<svg width="16" height="16" viewBox="0 0 16 16" fill="none" xmlns="http://www.w3.org/2000/svg">
<path d="M7.99967 4.33398C8.26489 4.33398 8.51925 4.22863 8.70678 4.04109C8.89432 3.85355 8.99967 3.5992 8.99967 3.33398V1.33398C8.99967 1.06877 8.89432 0.814414 8.70678 0.626878C8.51925 0.439341 8.26489 0.333984 7.99967 0.333984C7.73446 0.333984 7.4801 0.439341 7.29257 0.626878C7.10503 0.814414 6.99967 1.06877 6.99967 1.33398V3.33398C6.99967 3.5992 7.10503 3.85355 7.29257 4.04109C7.4801 4.22863 7.73446 4.33398 7.99967 4.33398ZM5.51301 4.07398L4.09967 2.66732C3.90877 2.47882 3.65129 2.37312 3.38301 2.37312C3.11472 2.37312 2.85724 2.47882 2.66634 2.66732C2.57286 2.75964 2.49876 2.86971 2.44839 2.99106C2.39802 3.11241 2.37239 3.2426 2.37301 3.37398C2.37641 3.63651 2.48157 3.88746 2.66634 4.07398L4.09967 5.48732C4.28703 5.67491 4.54121 5.78042 4.80634 5.78065C5.00399 5.78048 5.19716 5.72173 5.36145 5.61184C5.52574 5.50195 5.65378 5.34583 5.72939 5.16322C5.80501 4.9806 5.82481 4.77967 5.78629 4.5858C5.74778 4.39194 5.65268 4.21383 5.51301 4.07398ZM0.333008 8.00065C0.333008 8.26587 0.438365 8.52022 0.625901 8.70776C0.813437 8.89529 1.06779 9.00065 1.33301 9.00065H3.33301C3.59822 9.00065 3.85258 8.89529 4.04011 8.70776C4.22765 8.52022 4.33301 8.26587 4.33301 8.00065C4.33301 7.73544 4.22765 7.48108 4.04011 7.29354C3.85258 7.10601 3.59822 7.00065 3.33301 7.00065H1.33301C1.06779 7.00065 0.813437 7.10601 0.625901 7.29354C0.438365 7.48108 0.333008 7.73544 0.333008 8.00065ZM4.66634 10.3473C4.52854 10.3465 4.39209 10.3745 4.26578 10.4296C4.13948 10.4848 4.02612 10.5657 3.93301 10.6673L2.51301 12.054C2.32735 12.2423 2.22328 12.4962 2.22328 12.7607C2.22328 13.0251 2.32735 13.279 2.51301 13.4673C2.70164 13.655 2.95691 13.7603 3.22301 13.7603C3.4891 13.7603 3.74437 13.655 3.93301 13.4673L5.33301 12.054C5.47055 11.9166 5.56506 11.7421 5.60497 11.5518C5.64488 11.3615 5.62846 11.1638 5.55772 10.9827C5.48699 10.8016 5.365 10.645 5.20668 10.5322C5.04837 10.4194 4.8606 10.3551 4.66634 10.3473ZM6.99967 14.6673C6.99967 14.9325 7.10503 15.1869 7.29257 15.3744C7.4801 15.562 7.73446 15.6673 7.99967 15.6673C8.26489 15.6673 8.51925 15.562 8.70678 15.3744C8.89432 15.1869 8.99967 14.9325 8.99967 14.6673V12.6673C8.99967 12.4021 8.89432 12.1477 8.70678 11.9602C8.51925 11.7727 8.26489 11.6673 7.99967 11.6673C7.73446 11.6673 7.4801 11.7727 7.29257 11.9602C7.10503 12.1477 6.99967 12.4021 6.99967 12.6673V14.6673ZM10.6997 10.6673C10.5124 10.8548 10.4072 11.109 10.4072 11.374C10.4072 11.639 10.5124 11.8932 10.6997 12.0807L12.113 13.494C12.3012 13.6804 12.5548 13.7856 12.8197 13.7873C13.0865 13.786 13.3424 13.6808 13.533 13.494C13.7182 13.3055 13.8212 13.0515 13.8197 12.7873C13.8212 12.6548 13.796 12.5234 13.7456 12.4008C13.6952 12.2782 13.6206 12.1671 13.5263 12.074L12.113 10.6673C11.9255 10.4801 11.6713 10.3749 11.4063 10.3749C11.1413 10.3749 10.8872 10.4801 10.6997 10.6673ZM15.6663 8.00065C15.6663 7.73544 15.561 7.48108 15.3734 7.29354C15.1859 7.10601 14.9316 7.00065 14.6663 7.00065H12.6663C12.4011 7.00065 12.1468 7.10601 11.9592 7.29354C11.7717 7.48108 11.6663 7.73544 11.6663 8.00065C11.6663 8.26587 11.7717 8.52022 11.9592 8.70776C12.1468 8.89529 12.4011 9.00065 12.6663 9.00065H14.6663C14.9316 9.00065 15.1859 8.89529 15.3734 8.70776C15.561 8.52022 15.6663 8.26587 15.6663 8.00065ZM12.6663 2.27398C12.4154 2.28576 12.1779 2.3903 11.9997 2.56732L10.573 4.00065C10.3857 4.18815 10.2806 4.44232 10.2806 4.70732C10.2806 4.97232 10.3857 5.22648 10.573 5.41398C10.7616 5.60166 11.0169 5.70701 11.283 5.70701C11.5491 5.70701 11.8044 5.60166 11.993 5.41398L13.4063 4.00065C13.5556 3.86013 13.6581 3.67713 13.6999 3.47642C13.7417 3.27572 13.7208 3.06701 13.6401 2.87857C13.5593 2.69014 13.4226 2.53107 13.2484 2.42293C13.0743 2.31479 12.871 2.26279 12.6663 2.27398Z" fill="#165DFF"/>
</svg>
