<svg width="24" height="24" viewBox="0 0 24 24" fill="none" xmlns="http://www.w3.org/2000/svg">
<path d="M11.3691 14.2246C11.7619 13.9043 12.3409 13.9269 12.707 14.293L15.707 17.293C16.0976 17.6835 16.0976 18.3165 15.707 18.707C15.3165 19.0976 14.6835 19.0976 14.293 18.707L13 17.4141V22C13 22.5523 12.5523 23 12 23C11.4477 23 11 22.5523 11 22V17.4141L9.70703 18.707C9.31651 19.0976 8.68349 19.0976 8.29297 18.707C7.90244 18.3165 7.90244 17.6835 8.29297 17.293L11.293 14.293L11.3691 14.2246Z" fill="#4E5969"/>
<path d="M21 11C21.5522 11 21.9999 11.4478 22 12C22 12.5523 21.5523 13 21 13H3C2.44772 13 2 12.5523 2 12C2.00013 11.4478 2.4478 11 3 11H21Z" fill="#4E5969"/>
<path d="M12 1C12.5523 1 13 1.44772 13 2V6.58594L14.293 5.29297C14.6835 4.90244 15.3165 4.90244 15.707 5.29297C16.0976 5.68349 16.0976 6.31651 15.707 6.70703L12.707 9.70703C12.3165 10.0976 11.6835 10.0976 11.293 9.70703L8.29297 6.70703C7.90244 6.31651 7.90244 5.68349 8.29297 5.29297C8.68349 4.90244 9.31651 4.90244 9.70703 5.29297L11 6.58594V2C11 1.44772 11.4477 1 12 1Z" fill="#4E5969"/>
</svg>
