<svg width="14" height="15" viewBox="0 0 14 15" fill="none" xmlns="http://www.w3.org/2000/svg">
<path d="M12 0C12.3536 0 12.6928 0.140476 12.9428 0.390524C13.1929 0.640573 13.3333 0.979711 13.3333 1.33333V9.33333C13.3333 9.68696 13.1929 10.0261 12.9428 10.2761C12.6928 10.5262 12.3536 10.6667 12 10.6667H10V12C10 12.3536 9.85952 12.6928 9.60948 12.9428C9.35943 13.1929 9.02029 13.3333 8.66667 13.3333H1.33333C0.979711 13.3333 0.640573 13.1929 0.390524 12.9428C0.140476 12.6928 0 12.3536 0 12V4.66667C0 4.31305 0.140476 3.97391 0.390524 3.72386C0.640573 3.47381 0.979711 3.33333 1.33333 3.33333H2.66667V1.33333C2.66667 0.979711 2.80714 0.640573 3.05719 0.390524C3.30724 0.140476 3.64638 0 4 0H12ZM2.66667 4.66667H1.33333V12H8.66667V10.6667H4C3.64638 10.6667 3.30724 10.5262 3.05719 10.2761C2.80714 10.0261 2.66667 9.68696 2.66667 9.33333V4.66667ZM12 1.33333H4V9.33333H12V1.33333ZM10.5933 3.48867C10.7183 3.61369 10.7885 3.78322 10.7885 3.96C10.7885 4.13678 10.7183 4.30632 10.5933 4.43133L7.81133 7.21267C7.74323 7.2808 7.66238 7.33485 7.57338 7.37172C7.48439 7.4086 7.389 7.42758 7.29267 7.42758C7.19634 7.42758 7.10095 7.4086 7.01195 7.37172C6.92296 7.33485 6.8421 7.2808 6.774 7.21267L5.40733 5.846C5.28224 5.72099 5.21193 5.55142 5.21187 5.37457C5.2118 5.19772 5.28199 5.02809 5.407 4.903C5.53201 4.77791 5.70158 4.70759 5.87843 4.70753C6.05528 4.70747 6.22491 4.77766 6.35 4.90267L7.29267 5.84533L9.65 3.48867C9.77502 3.36369 9.94456 3.29348 10.1213 3.29348C10.2981 3.29348 10.4683 3.36369 10.5933 3.48867Z" fill="#4E5969"/>
</svg>
