<svg width="14" height="12" viewBox="0 0 14 12" fill="none" xmlns="http://www.w3.org/2000/svg">
<path d="M0.669922 6.27075C0.669922 6.07184 0.748939 5.88107 0.889592 5.74042C1.03024 5.59977 1.22101 5.52075 1.41992 5.52075H5.66992C5.86883 5.52075 6.0596 5.59977 6.20025 5.74042C6.3409 5.88107 6.41992 6.07184 6.41992 6.27075C6.41992 6.46966 6.3409 6.66043 6.20025 6.80108C6.0596 6.94173 5.86883 7.02075 5.66992 7.02075H1.41992C1.22101 7.02075 1.03024 6.94173 0.889592 6.80108C0.748939 6.66043 0.669922 6.46966 0.669922 6.27075ZM1.41992 3.02075H4.66992C4.86883 3.02075 5.0596 2.94173 5.20025 2.80108C5.3409 2.66043 5.41992 2.46966 5.41992 2.27075C5.41992 2.07184 5.3409 1.88107 5.20025 1.74042C5.0596 1.59977 4.86883 1.52075 4.66992 1.52075H1.41992C1.22101 1.52075 1.03024 1.59977 0.889592 1.74042C0.748939 1.88107 0.669922 2.07184 0.669922 2.27075C0.669922 2.46966 0.748939 2.66043 0.889592 2.80108C1.03024 2.94173 1.22101 3.02075 1.41992 3.02075ZM9.66992 9.52075H1.41992C1.22101 9.52075 1.03024 9.59976 0.889592 9.74042C0.748939 9.88107 0.669922 10.0718 0.669922 10.2707C0.669922 10.4697 0.748939 10.6604 0.889592 10.8011C1.03024 10.9417 1.22101 11.0207 1.41992 11.0207H9.66992C9.86883 11.0207 10.0596 10.9417 10.2003 10.8011C10.3409 10.6604 10.4199 10.4697 10.4199 10.2707C10.4199 10.0718 10.3409 9.88107 10.2003 9.74042C10.0596 9.59976 9.86883 9.52075 9.66992 9.52075ZM12.9505 3.24012L10.4505 0.740123C10.3809 0.670203 10.2981 0.614725 10.2069 0.576871C10.1157 0.539017 10.018 0.519531 9.9193 0.519531C9.82059 0.519531 9.72285 0.539017 9.63168 0.576871C9.54052 0.614725 9.45772 0.670203 9.38805 0.740123L6.88805 3.24012C6.74715 3.38102 6.668 3.57212 6.668 3.77137C6.668 3.97063 6.74715 4.16173 6.88805 4.30262C7.02894 4.44352 7.22004 4.52267 7.4193 4.52267C7.61855 4.52267 7.80965 4.44352 7.95055 4.30262L9.16992 3.08325V7.27075C9.16992 7.46966 9.24894 7.66043 9.38959 7.80108C9.53024 7.94173 9.72101 8.02075 9.91992 8.02075C10.1188 8.02075 10.3096 7.94173 10.4503 7.80108C10.5909 7.66043 10.6699 7.46966 10.6699 7.27075V3.08325L11.8893 4.30325C11.9591 4.37301 12.0419 4.42835 12.133 4.46611C12.2242 4.50387 12.3219 4.5233 12.4205 4.5233C12.5192 4.5233 12.6169 4.50387 12.7081 4.46611C12.7992 4.42835 12.882 4.37301 12.9518 4.30325C13.0216 4.23348 13.0769 4.15066 13.1147 4.05951C13.1524 3.96836 13.1718 3.87066 13.1718 3.772C13.1718 3.67334 13.1524 3.57564 13.1147 3.48449C13.0769 3.39334 13.0216 3.31051 12.9518 3.24075L12.9505 3.24012Z" fill="#4E5969"/>
</svg>
