<svg width="125" height="28" viewBox="0 0 125 28" fill="none" xmlns="http://www.w3.org/2000/svg">
<g clip-path="url(#clip0_133_3441)">
<path d="M26.8115 20.835L26.7227 20.9238L23.8818 23.7607C20.5082 27.1298 15.8023 28.46 11.4521 27.6621C11.2749 27.662 11.1861 27.5733 11.0088 27.5732C10.8312 27.4846 10.5643 27.4842 10.3867 27.3955C9.32157 27.0409 8.16756 26.5981 7.01367 25.9775C6.83611 25.8889 6.74689 25.7996 6.56934 25.7109C6.39243 25.5337 6.65864 25.357 6.9248 25.5342C7.36862 25.7999 7.901 25.1796 7.72363 24.7363C7.63486 24.559 7.63513 24.2932 7.99023 24.3818C8.78877 24.5589 8.9665 24.0271 8.87793 23.584C8.78914 23.318 8.96707 23.1398 9.2334 23.2285C9.94314 23.2283 10.2983 22.7856 10.1211 22.2539C10.1211 22.2539 9.85459 21.7217 10.4756 21.9873C10.5643 22.0759 10.5646 22.0762 10.6533 22.0762C13.8492 23.3173 17.5778 22.6969 20.1523 20.126L22.9932 17.2891L21.3955 15.6924V15.6045H30.7178L26.8115 20.835ZM12.3398 26.4209C12.0737 26.4211 11.8079 26.6865 11.8076 26.9521C11.8076 27.218 12.0736 27.4841 12.3398 27.4844C12.6062 27.4844 12.873 27.2181 12.873 26.9521C12.8728 26.6864 12.6061 26.4209 12.3398 26.4209ZM14.293 26.4209C14.0269 26.4212 13.761 26.6865 13.7607 26.9521C13.7607 27.218 14.0267 27.4841 14.293 27.4844C14.5592 27.4844 14.8262 27.2181 14.8262 26.9521C14.8259 26.6864 14.5591 26.4209 14.293 26.4209ZM10.5645 25.8887C10.2094 25.8888 9.94336 26.1552 9.94336 26.5098C9.94357 26.8642 10.2096 27.1298 10.5645 27.1299C10.9194 27.1299 11.1863 26.8642 11.1865 26.5098C11.1865 26.1551 10.9196 25.8887 10.5645 25.8887ZM8.87793 25.3564C8.52281 25.3564 8.25684 25.6229 8.25684 25.9775C8.25693 26.3321 8.52288 26.5977 8.87793 26.5977C9.14417 26.5976 9.4102 26.332 9.49902 25.9775C9.49902 25.6229 9.23299 25.3565 8.87793 25.3564ZM13.3164 24.8252C13.0502 24.8254 12.7843 25.0907 12.7842 25.3564C12.7842 25.6223 13.0502 25.8885 13.3164 25.8887C13.5828 25.8887 13.8496 25.6224 13.8496 25.3564C13.8494 25.0906 13.5827 24.8252 13.3164 24.8252ZM44.6553 17.9092L46.2539 2.21582H51.5801L49.0947 25.8887H43.8564L35.1562 10.2842L33.5586 25.8887H28.2314L28.9414 19.5049L32.4043 14.8945H29.3857L30.7178 2.21582H35.9551L44.6553 17.9092ZM70.4902 7.00391H58.9492L58.5049 11.7021H69.1582L68.626 16.4902H57.9727L57.5283 21.1006H70.3125L69.7803 25.8887H51.7578L52.291 21.1006L52.7344 16.4902L52.9121 14.3623L54.2441 2.21582H70.9346L70.4902 7.00391ZM112.238 21.8018C111.979 21.8367 111.538 21.8786 110.914 21.9346C110.921 22.1026 110.942 22.3266 110.97 22.5996H112.483V23.4678H111.104C111.181 23.8106 111.272 24.1115 111.391 24.3564C111.489 24.5594 111.587 24.6717 111.678 24.6787C111.762 24.6787 111.804 24.6086 111.881 24.4199C111.93 24.287 111.965 24.1468 111.993 24L112.652 24.4961L112.575 24.7627C112.533 24.8956 112.491 25.0145 112.449 25.1055C112.274 25.5115 112.021 25.7148 111.685 25.7148C111.299 25.7148 111.004 25.5322 110.703 25.0283C110.472 24.6364 110.304 24.1675 110.185 23.4678H109.112V24.3564L110.149 23.9922L110.297 24.8184L109.995 24.9238C110.079 25.0568 110.178 25.2173 110.283 25.4062L109.512 25.8262C109.449 25.6932 109.344 25.4972 109.183 25.2314L108.832 25.3711C108.699 25.4131 108.53 25.484 108.334 25.582L107.941 24.7559C108.145 24.6089 108.187 24.4897 108.188 24.3008V21.1855C109.617 21.1645 110.9 21.0806 112.035 20.9336L112.238 21.8018ZM11.6299 24.5586C11.2748 24.5586 11.0088 24.825 11.0088 25.1797C11.0089 25.5341 11.2749 25.7998 11.6299 25.7998C11.9849 25.7998 12.2509 25.5341 12.251 25.1797C12.251 24.825 11.985 24.5586 11.6299 24.5586ZM110.374 19.8418H112.498V20.7168H107.886V22.1445C107.872 23.9505 107.683 24.686 107.129 25.792L106.225 25.2949C106.799 24.182 106.939 23.6776 106.953 22.2568V19.8418H109.28L109.183 19.3652L110.269 19.3379L110.374 19.8418ZM98.1914 19.624C98.0302 20.1489 97.8197 20.6603 97.5674 21.1572V25.7637H96.5996V22.7188C96.3965 22.9915 96.2075 23.2363 96.0254 23.4531L95.5908 22.501C95.9481 22.0532 96.2704 21.5564 96.5576 21.0107C96.852 20.4578 97.0837 19.9187 97.252 19.3867L98.1914 19.624ZM79.2861 19.5264C79.2301 19.7994 79.1593 20.0584 79.0752 20.3174H80.5752V21.2695H80.2598C80.1476 22.3615 79.9655 23.1104 79.6221 23.7754C79.9164 24.1393 80.316 24.5171 80.8135 24.916L80.2178 25.7285C79.7623 25.3296 79.3908 24.9378 79.1035 24.5459C78.8021 24.9168 78.3672 25.3153 77.8066 25.7422L77.3652 25.1758L77.1826 25.5322C77.0074 25.4272 76.7343 25.2663 76.3701 25.0635C75.9636 25.3084 75.4237 25.5322 74.751 25.7422L74.3232 24.9795C74.8556 24.8466 75.255 24.7348 75.5283 24.6299C75.178 24.4619 74.8911 24.3351 74.6738 24.2441C74.7789 24.0762 74.8844 23.8941 74.9824 23.6982H74.4492V22.9844H75.3184C75.3674 22.8654 75.4168 22.7321 75.4658 22.5781L76.3418 22.7539L76.2646 22.9844H77.6172V23.6631C77.456 24.0061 77.2814 24.2867 77.0781 24.5107L77.5684 24.748C77.9889 24.4401 78.3325 24.1044 78.5918 23.7334C78.3955 23.3344 78.2411 22.8931 78.1289 22.4102C78.0654 22.5211 78.0065 22.6125 77.96 22.6836C77.945 22.7066 77.9309 22.7273 77.9189 22.7461L77.7012 22.2842L77.3164 22.7744C77.1622 22.6064 76.9238 22.4032 76.6084 22.1582V22.5928H75.7881V22.0674C75.4937 22.3964 75.1363 22.6696 74.7158 22.8936L74.2949 22.1934C74.7575 21.9974 75.1577 21.7522 75.4941 21.4512H74.5195V20.6953H75.0449C74.8137 20.2614 74.6526 19.9813 74.5615 19.8623L75.1709 19.5264C75.318 19.7153 75.5705 20.1141 75.7178 20.415L75.2207 20.6953H75.7881V19.4004L76.6084 19.4424V20.4082C76.6994 20.2963 76.7972 20.1494 76.9092 19.9678C77.0282 19.779 77.1127 19.6248 77.1758 19.5059L77.8281 19.876C77.709 20.1 77.5264 20.3734 77.2881 20.6953H77.667V21.4512H76.6084V21.8506L76.8955 21.5215C77.0918 21.6545 77.3233 21.8297 77.5967 22.0537L77.4775 21.8018C77.9191 21.1298 78.2551 20.2265 78.4023 19.3936L79.2861 19.5264ZM121.001 19.8623H123.139V20.7725H118.492V22.5225C118.822 22.0535 119.038 21.5282 119.144 20.9473L119.942 21.0947C119.924 21.2104 119.884 21.3634 119.833 21.5625L119.81 21.6543C120.041 21.9272 120.223 22.1654 120.363 22.3613V20.9404L121.232 20.9619V22.3965C121.499 21.9765 121.688 21.4934 121.808 20.9404L122.593 21.0947C122.558 21.2697 122.501 21.4724 122.431 21.6963C122.571 21.8433 122.725 22.0187 122.894 22.2217C123.069 22.4247 123.189 22.5718 123.266 22.6768L122.726 23.2578C122.557 23.0128 122.354 22.747 122.115 22.46C121.982 22.7187 121.821 22.9774 121.632 23.2432L121.232 22.9072V23.3486H122.838V24.1748H121.232V24.6719H123.216V25.54H118.365V24.6719H120.363V24.1748H118.751V23.3486H118.877L118.478 23.0127C118.457 23.6145 118.393 24.1043 118.288 24.4893C118.19 24.8672 118.022 25.2804 117.791 25.7354L116.852 25.3154C117.041 24.9516 117.188 24.6369 117.279 24.3779C117.37 24.1189 117.44 23.8176 117.482 23.4746C117.531 23.1317 117.553 22.6837 117.553 22.1309V19.8623H119.971L119.858 19.3867L120.896 19.3584L121.001 19.8623ZM99.6699 19.5059V21.6963C100.224 21.2344 100.714 20.7586 101.142 20.2617L101.85 21.0176C101.17 21.7385 100.448 22.3964 99.6699 22.9844V24.3359C99.67 24.6085 99.7476 24.6782 100.007 24.6992L100.102 24.7051C100.188 24.71 100.258 24.7139 100.315 24.7139C100.389 24.7138 100.479 24.7082 100.579 24.7021L100.623 24.6992C100.91 24.6712 100.995 24.6084 101.044 24.3564C101.072 24.2375 101.1 23.9436 101.121 23.4609L102.011 23.7686C102.004 24.1184 101.969 24.4472 101.92 24.748C101.794 25.413 101.57 25.6094 100.806 25.6514C100.694 25.6584 100.518 25.665 100.28 25.665C100.042 25.665 99.8661 25.6584 99.7539 25.6514C98.9482 25.6093 98.6817 25.4064 98.6816 24.5879V23.6777C98.5066 23.7966 98.3174 23.9152 98.1074 24.041L97.5957 23.1523C97.9671 22.9424 98.3243 22.7109 98.6816 22.459V19.4707L99.6699 19.5059ZM14.0273 0C21.7507 0.000192127 28.0533 6.20608 27.876 14.0078C27.876 14.5398 27.7881 14.9836 27.7881 15.4268H22.5498C22.5498 14.8949 22.6387 14.4511 22.6387 14.0078C22.6384 9.13182 18.7322 5.23057 13.8496 5.23047C8.96698 5.23047 5.0608 9.13175 5.06055 14.0078C5.06055 17.3769 7.01351 20.2145 9.76562 21.7217L9.67676 21.8105C9.49964 22.0761 9.67627 22.3416 9.67676 22.4307C9.67676 22.4307 9.76553 22.6086 9.67676 22.6973C9.58801 22.6973 9.49878 22.7861 9.32129 22.7861H9.14453C8.78943 22.7861 8.7001 22.9632 8.61133 23.0518C8.52265 23.1406 8.43398 23.4062 8.52246 23.6719C8.61125 23.7605 8.61125 23.8498 8.52246 23.9385C8.43392 24.0267 8.34538 24.0273 8.25684 24.0273H7.90137C7.63504 24.0273 7.45694 24.2045 7.36816 24.3818C7.2797 24.5591 7.36831 24.8253 7.45703 25.1797C7.4515 25.1853 7.36839 25.2709 7.36816 25.3564C7.36816 25.445 7.28007 25.4453 7.19141 25.4453C7.01385 25.3566 6.92463 25.2686 6.74707 25.2686C6.48079 25.2686 6.30361 25.4457 6.21484 25.623C2.48614 23.0518 0 18.7955 0 14.0078C0.00025632 6.29462 6.30379 0 14.0273 0ZM86.709 19.3867L86.5693 19.7432H88.2861V20.458H87.4453V20.8428H88.3779V21.5635H87.4238C87.9005 21.7805 88.2515 21.9559 88.4688 22.0889L88.0898 22.7119H90.5293V25.6162H85.8467V22.9707C85.7137 23.0336 85.5879 23.0897 85.4619 23.1387L85.0195 22.3193C85.6924 22.0953 86.1068 21.8715 86.3311 21.5635H85.2158V20.8428H85.6582L85.1602 20.5273C85.4544 20.1774 85.693 19.7647 85.8682 19.2959L86.709 19.3867ZM9.85449 24.0264C9.49938 24.0264 9.2334 24.2928 9.2334 24.6475C9.2334 25.0021 9.49938 25.2686 9.85449 25.2686C10.2095 25.2685 10.4756 25.0021 10.4756 24.6475C10.4756 24.2928 10.2095 24.0264 9.85449 24.0264ZM6.3916 23.9385C6.03678 23.9387 5.77061 24.2043 5.77051 24.5586C5.77051 24.9131 6.03671 25.1795 6.3916 25.1797C6.74671 25.1797 7.10245 24.9133 7.01367 24.5586C7.01357 24.2041 6.74664 23.9385 6.3916 23.9385ZM86.8213 24.875H89.5625V24.4756H86.8213V24.875ZM75.7744 23.9648L76.3486 24.2021C76.4818 24.0692 76.5944 23.9012 76.6855 23.6982H75.9287L75.7744 23.9648ZM12.6064 23.0518C12.2514 23.0518 12.0742 23.318 12.0742 23.584C12.0745 23.8497 12.3403 24.1152 12.6064 24.1152C12.8727 24.1152 13.1384 23.8497 13.1387 23.584C13.1387 23.318 12.8728 23.0518 12.6064 23.0518ZM5.06055 22.6973C4.7055 22.6973 4.43858 22.9629 4.43848 23.3174C4.43848 23.672 4.70543 23.9385 5.06055 23.9385C5.41558 23.9384 5.68164 23.5833 5.68164 23.3174C5.68154 22.963 5.41551 22.6974 5.06055 22.6973ZM11.0088 22.6973C10.7425 22.6973 10.4755 22.9628 10.3867 23.3174C10.3867 23.672 10.6537 23.9385 11.0088 23.9385C11.3638 23.9383 11.6299 23.672 11.6299 23.3174C11.6298 22.9629 11.3637 22.6974 11.0088 22.6973ZM7.63477 22.6084C7.27988 22.6085 7.01387 22.8742 7.01367 23.2285C7.01367 23.5831 7.27974 23.8495 7.63477 23.8496C7.98988 23.8496 8.25684 23.5832 8.25684 23.2285C8.25657 22.9626 7.9897 22.6084 7.63477 22.6084ZM86.8213 23.8037H89.5625V23.4043H86.8213V23.8037ZM119.487 22.4736C119.326 22.7886 119.13 23.0756 118.905 23.3486H120.363V22.7891L119.978 23.1875C119.858 22.9846 119.69 22.7465 119.487 22.4736ZM78.6904 21.3398C78.7675 21.9205 78.8864 22.4172 79.0615 22.8301C79.2227 22.4032 79.3344 21.8853 79.3975 21.2695H78.7246L78.6904 21.3398ZM87.0596 22.1729C86.8984 22.3618 86.6743 22.544 86.373 22.7119H87.957C87.7678 22.5859 87.4661 22.4038 87.0596 22.1729ZM110.03 21.998C109.743 22.019 109.435 22.0399 109.112 22.0469V22.5996H110.072L110.03 21.998ZM3.90625 21.2783C3.55114 21.2783 3.28516 21.5447 3.28516 21.8994C3.28535 22.2539 3.55127 22.5195 3.90625 22.5195C4.17248 22.5195 4.43846 22.2539 4.52734 21.8994C4.52734 21.5447 4.26137 21.2783 3.90625 21.2783ZM6.30371 21.3672C6.03738 21.3672 5.77051 21.5447 5.77051 21.8994C5.7707 22.2539 6.03747 22.5193 6.30371 22.4307C6.56981 22.4305 6.83575 22.2536 6.83594 21.8994C6.83594 21.6335 6.65853 21.3674 6.30371 21.3672ZM8.87793 21.3672C8.52281 21.3672 8.25595 21.6334 8.34473 21.8994C8.3449 22.1653 8.52298 22.4307 8.87793 22.4307C9.14414 22.4306 9.40996 22.2538 9.41016 21.8994C9.41016 21.6334 9.23299 21.3672 8.87793 21.3672ZM91.0762 22.418H88.5947V19.7012H91.0762V22.418ZM89.4287 21.627H90.249V20.4785H89.4287V21.627ZM86.1973 20.458C86.1482 20.549 86.0641 20.6751 85.9521 20.8428H86.5479L86.583 20.7441V20.458H86.1973ZM2.66309 19.7715C2.39698 19.7717 2.13114 20.037 2.13086 20.3027C2.13086 20.5686 2.39684 20.8348 2.66309 20.835C2.92943 20.835 3.19629 20.5687 3.19629 20.3027C3.19601 20.0369 2.92929 19.7715 2.66309 19.7715ZM4.79395 19.7715C4.439 19.7715 4.17322 20.0368 4.26172 20.3027C4.26172 20.5687 4.52763 20.8349 4.79395 20.835C5.06028 20.835 5.32715 20.5687 5.32715 20.3027C5.32687 20.0369 5.06014 19.7715 4.79395 19.7715ZM6.9248 19.7715C6.56993 19.7715 6.30333 20.0369 6.3916 20.3027C6.3916 20.5687 6.65847 20.835 6.9248 20.835C7.19112 20.8349 7.45703 20.5687 7.45703 20.3027C7.45675 20.0369 7.19098 19.7715 6.9248 19.7715ZM76.6084 20.6953H76.9941L76.6084 20.4502V20.6953ZM1.77539 18.0869C1.50925 18.087 1.24345 18.3524 1.24316 18.6182C1.24316 18.8841 1.50911 19.1503 1.77539 19.1504C2.04172 19.1504 2.30859 18.8842 2.30859 18.6182C2.3083 18.3523 2.04158 18.0869 1.77539 18.0869ZM3.63965 18.1758C3.37361 18.1759 3.19648 18.3525 3.19629 18.6182C3.19629 18.8841 3.37347 19.0614 3.63965 19.0615C3.90598 19.0615 4.08398 18.8842 4.08398 18.6182C4.08379 18.3524 3.90583 18.1758 3.63965 18.1758ZM5.59277 18.1758C5.32673 18.1759 5.14961 18.3525 5.14941 18.6182C5.14941 18.8841 5.32658 19.0614 5.59277 19.0615C5.85911 19.0615 6.03711 18.8842 6.03711 18.6182C6.03692 18.3524 5.85896 18.1758 5.59277 18.1758ZM22.4609 17.2891L21.751 17.998C21.9284 17.7321 22.1056 17.4659 22.1943 17.1113L22.4609 17.2891Z" fill="#00394D"/>
<path fill-rule="evenodd" clip-rule="evenodd" d="M85.7086 7.97588C85.9118 8.06604 86.1148 8.15618 86.3068 8.25761C87.1644 8.68587 87.5819 9.42968 87.6158 10.3651C87.7286 11.988 87.2096 13.3854 85.9118 14.4222C85.2911 14.918 84.535 15.1886 83.7676 15.3915C82.6669 15.6877 81.477 15.7085 80.3216 15.7285C80.1147 15.732 79.909 15.7356 79.7051 15.7408C78.87 15.7521 78.0349 15.7521 77.1999 15.7408C77.0614 15.7383 76.9057 15.7438 76.7413 15.7495C76.1419 15.7703 75.4267 15.7951 75.0106 15.459C74.3574 14.9296 74.5142 13.9401 74.6417 13.1361C74.6661 12.9817 74.6895 12.8341 74.7058 12.6979C74.8187 11.7851 74.9654 10.8835 75.1347 9.99317C75.2663 9.29821 75.3589 8.60325 75.4513 7.90829C75.4699 7.76928 75.4883 7.63027 75.5071 7.49127C75.5481 7.2085 75.5951 6.92572 75.6422 6.64295C75.7244 6.14811 75.8067 5.65325 75.8569 5.15841L75.8769 4.97107C75.9368 4.4025 75.9967 3.83485 76.139 3.27636C76.4776 1.9916 77.5271 0.808262 78.8361 0.458896C80.2113 0.0985009 81.5951 0.167453 82.9799 0.236461C83.1973 0.247296 83.4147 0.258133 83.6322 0.26731C84.2867 0.289849 84.9074 0.458896 85.4943 0.751912C86.3405 1.1689 86.9161 1.84509 87.266 2.71287C87.6722 3.71587 87.6722 4.71889 87.2433 5.72191C86.9274 6.46572 86.3857 6.9954 85.6635 7.35603C85.5324 7.42152 85.4012 7.4794 85.2723 7.5363C85.1793 7.57732 85.0875 7.61783 84.9977 7.66032C85.1367 7.7234 85.2721 7.78294 85.404 7.84093C85.5076 7.88652 85.6093 7.93125 85.7086 7.97588ZM79.2763 12.9459C80.2467 13.0586 81.3301 13.0248 82.2442 12.6078C83.1695 12.1908 84.219 10.9962 83.3952 9.99317C83.192 9.7565 82.9326 9.55365 82.6505 9.42968C81.8661 9.07595 80.9117 9.10615 80.0131 9.1346C79.7092 9.14421 79.4118 9.15363 79.1296 9.14793C78.9716 9.14793 78.9489 9.20428 78.9264 9.33952C78.8813 9.67759 78.8333 10.0128 78.7854 10.3481C78.7374 10.6833 78.6895 11.0188 78.6443 11.3568C78.5878 11.6837 78.5428 12.0218 78.4975 12.3598C78.4945 12.3873 78.4874 12.4238 78.4793 12.4644C78.4579 12.5734 78.4308 12.7111 78.4638 12.7769L78.475 12.7881C78.5627 12.8844 78.9027 12.9127 79.1239 12.9311C79.1873 12.9363 79.2411 12.9409 79.2763 12.9459ZM80.2242 6.53334C80.5966 6.57842 80.9577 6.57842 81.3188 6.54461C82.4134 6.44318 84.3432 5.92476 84.2416 4.47095C84.2304 4.23429 84.1175 4.00889 83.9708 3.8173C83.6773 3.43414 83.2034 3.15239 82.7294 3.02842C82.1652 2.88191 81.5445 2.87064 80.969 2.98334C80.4385 3.09604 79.9082 3.40033 79.7277 3.94127C79.5471 4.48222 79.4794 5.04572 79.423 5.60921C79.4197 5.65426 79.4091 5.71861 79.3973 5.79097C79.3675 5.97203 79.3294 6.20327 79.3778 6.30794C79.3778 6.3192 79.3778 6.31921 79.3891 6.33048C79.509 6.487 79.8473 6.50813 80.084 6.52291C80.137 6.52622 80.1849 6.52921 80.2242 6.53334Z" fill="#00394D"/>
<path fill-rule="evenodd" clip-rule="evenodd" d="M99.3069 5.12464C98.5508 4.57242 97.4111 4.3921 96.5083 4.29067C96.0906 4.24559 95.6619 4.20051 95.2331 4.18924C94.7027 4.1667 94.1835 4.18924 93.6757 4.25686C93.1905 4.32448 92.7166 4.42591 92.2425 4.54988C92.1757 4.56842 92.1086 4.58603 92.0416 4.60364C91.7008 4.6931 91.3612 4.78224 91.0689 4.9894C90.7417 5.22607 90.4821 5.54163 90.3354 5.91353C90.1887 6.29671 90.1322 6.86019 90.3918 7.22082C90.5499 7.44622 90.8432 7.46876 91.0915 7.40114C92.4682 7.05178 93.7885 6.7813 95.2105 6.99543C95.707 7.07432 96.1359 7.20955 96.4519 7.63781C96.5985 7.84067 96.6776 8.12241 96.4744 8.314C96.4019 8.45892 96.0912 8.48024 95.9274 8.49149L95.8876 8.49432C95.5861 8.52013 95.2824 8.54228 94.9778 8.56451C94.0854 8.62962 93.1853 8.69531 92.3103 8.85495C91.3736 9.024 90.437 9.37337 89.7599 10.0721C89.1392 10.7257 88.8232 11.7288 88.8458 12.619C88.891 14.4336 90.7868 15.29 92.3667 15.4591C93.766 15.6056 95.1653 15.5943 96.5534 15.3125C97.4901 15.121 98.3929 14.8392 99.1715 14.242C99.5665 13.9376 99.826 13.5658 99.8825 13.0586L99.9323 12.6503C100.085 11.4021 100.236 10.1613 100.379 8.9113C100.39 8.81617 100.402 8.72133 100.414 8.62669C100.475 8.13836 100.535 7.65537 100.469 7.16447C100.356 6.33052 99.984 5.60925 99.3069 5.12464ZM96.2262 11.988C96.1359 12.3936 95.8988 12.7994 95.4474 12.8671C94.7139 12.991 93.8224 13.0586 93.1792 12.6078C92.7052 12.2697 92.5021 11.6949 92.9874 11.278C93.4722 10.8563 94.1846 10.8296 94.8617 10.8042C95.1618 10.793 95.4549 10.782 95.7183 10.737C95.7381 10.7342 95.7577 10.7307 95.7774 10.7272C95.8367 10.7166 95.896 10.706 95.9552 10.7145C96.0117 10.7145 96.0569 10.737 96.0906 10.7596C96.4405 10.9399 96.2938 11.7062 96.2262 11.988Z" fill="#00394D"/>
<path fill-rule="evenodd" clip-rule="evenodd" d="M107.804 3.94125C108.831 3.91871 110.05 3.98633 110.975 4.45966C111.732 4.84284 112.104 5.98109 111.37 6.8376C111.182 7.0556 110.958 7.23875 110.731 7.42535C110.7 7.45098 110.668 7.47667 110.637 7.50251C110.592 7.53632 110.468 7.55886 110.411 7.52505C109.599 7.063 108.73 6.75871 107.804 6.60094C107.432 6.54459 107.048 6.48824 106.665 6.53332C106.36 6.56713 105.751 6.7249 105.784 7.13062C105.812 7.39562 106.166 7.5643 106.431 7.69073C106.493 7.72023 106.55 7.74741 106.597 7.77299C106.935 7.95331 107.285 8.11109 107.646 8.25759C107.919 8.36809 108.194 8.47057 108.469 8.5729C108.924 8.74192 109.377 8.91052 109.813 9.1141C111.246 9.7903 111.619 11.3005 111.1 12.574C110.648 13.6558 109.791 14.2982 108.752 14.7265C106.71 15.5604 104.385 15.6055 102.297 14.8842C102.27 14.8749 102.243 14.8655 102.216 14.8562C101.757 14.6976 101.296 14.5386 101.146 14.0278C100.898 13.1825 101.869 12.2697 102.5 11.8526C102.85 11.6273 103.031 11.6273 103.347 11.8752C104.317 12.619 106.066 13.2614 107.195 12.4838C107.353 12.3824 107.488 12.2133 107.455 12.033C107.395 11.7029 106.819 11.4704 106.485 11.3357C106.443 11.3186 106.404 11.3031 106.371 11.2892C106.116 11.181 105.858 11.0872 105.6 10.9935C105.401 10.9213 105.202 10.8493 105.006 10.7708C104.968 10.7556 104.929 10.7402 104.89 10.7248C104.121 10.4187 103.197 10.0507 102.681 9.40712C102.151 8.73093 102.049 7.84061 102.23 7.02919C102.489 5.83459 103.415 4.88792 104.566 4.50474C105.581 4.16665 106.676 3.96379 107.759 3.94125H107.804Z" fill="#00394D"/>
<path fill-rule="evenodd" clip-rule="evenodd" d="M121.989 4.38079C122.96 4.85412 123.762 5.50778 124.167 6.5446C124.348 6.9954 124.404 7.49127 124.404 7.97587C124.404 8.16746 124.394 8.35905 124.36 8.55064C124.314 8.79856 124.235 9.03523 124.089 9.26063C123.863 9.60999 123.525 9.88047 123.14 10.0495C122.881 10.1619 122.588 10.2014 122.307 10.2391C122.222 10.2505 122.139 10.2618 122.057 10.2749C120.574 10.4977 119.081 10.6705 117.588 10.8435C117.343 10.8718 117.099 10.9001 116.855 10.9286C116.836 10.9306 116.806 10.9327 116.769 10.9352C116.602 10.9466 116.294 10.9676 116.257 11.0413C116.246 11.0751 116.246 11.1089 116.257 11.1427C116.37 11.6386 116.776 11.9767 117.204 12.1908C117.86 12.5176 118.604 12.6528 119.326 12.6641C119.846 12.6641 120.364 12.5739 120.883 12.4612C121.268 12.3824 121.628 12.2922 121.989 12.1456L122.049 12.1239C122.284 12.0374 122.551 11.9387 122.791 12.0217C123.005 12.0893 123.152 12.281 123.242 12.4951C123.501 13.1374 123.276 13.8362 122.769 14.2758C122.193 14.7716 121.459 14.9745 120.737 15.1435C119.947 15.3351 119.1 15.4139 118.277 15.3914C117.374 15.3689 116.471 15.2224 115.614 14.9406C114.778 14.6702 114 14.2081 113.424 13.5319C112.307 12.2133 112.183 10.1397 112.589 8.5281C113.018 6.80381 114.35 5.30492 115.975 4.58365C116.923 4.15539 117.95 3.94128 118.988 3.90747C119.947 3.87366 121.11 3.95255 121.989 4.38079ZM119.981 8.17873C120.139 8.15619 120.297 8.09984 120.444 8.03222C120.602 7.95333 120.636 7.82937 120.579 7.66032C120.534 7.45746 120.421 7.33349 120.285 7.18698C119.924 6.78127 119.473 6.62349 118.954 6.57841C117.565 6.46571 116.482 7.20952 116.223 8.48302C116.323 8.4889 116.42 8.49786 116.516 8.50668C116.603 8.51475 116.69 8.52271 116.776 8.5281C116.84 8.5281 116.904 8.53063 116.968 8.53315C117.096 8.53814 117.22 8.54306 117.34 8.5281C117.599 8.49993 117.856 8.46896 118.113 8.43798C118.37 8.40698 118.626 8.37595 118.887 8.34778C118.954 8.33651 119.01 8.32524 119.067 8.31398C119.168 8.29895 119.27 8.28516 119.371 8.27139C119.575 8.24384 119.778 8.21629 119.981 8.17873Z" fill="#00394D"/>
</g>
<defs>
<clipPath id="clip0_133_3441">
<rect width="125" height="28" fill="white"/>
</clipPath>
</defs>
</svg>
