<svg width="32" height="32" xmlns="http://www.w3.org/2000/svg" fill="none">

 <g>
  <title>Layer 1</title>
  <path id="svg_1" fill="#4E5969" d="m11.91486,14.79306c0,-2.3933 1.94,-4.3334 4.333,-4.3334c2.393,0 4.333,1.9401 4.333,4.3334l0,4.3333l-8.666,0l0,-4.3333z"/>
  <path id="svg_2" stroke-width="1.33333" stroke="rgba(78, 89, 105, 1.00)" d="m16.24786,10.45966c2.393,0 4.333,1.9401 4.333,4.3334l0,4.3333l-8.666,0l0,-4.3333c0,-2.3933 1.94,-4.3334 4.333,-4.3334z"/>
  <path id="svg_3" d="m16.24786,10.45966l0,0" stroke-width="1.33333" stroke="rgba(78, 89, 105, 1.00)"/>
  <path id="svg_4" d="m10.24786,19.12616l12,0" stroke-width="1.33333" stroke="rgba(78, 89, 105, 1.00)"/>
  <path id="svg_5" d="m13.91486,21.45966l4.666,0" stroke-width="1.33333" stroke="rgba(78, 89, 105, 1.00)"/>
  <path id="svg_6" d="m16.24786,31.45946c8.837,0 16,-7.1634 16,-16c0,-8.83656 -7.163,-16 -16,-16c-8.837,0 -16,7.16344 -16,16c0,8.8366 7.163,16 16,16zm0,-31c8.284,0 15,6.71573 15,15c0,8.2843 -6.716,15 -15,15c-8.284,0 -15,-6.7157 -15,-15c0,-8.28427 6.716,-15 15,-15z" fill="rgba(242, 243, 245, 1)" fill-rule="evenodd"/>
 </g>
</svg>