<svg width="16" height="16" viewBox="0 0 16 16" fill="none" xmlns="http://www.w3.org/2000/svg">
<path fill-rule="evenodd" clip-rule="evenodd" d="M9.26613 1.63005C9.65665 1.23953 10.2898 1.23953 10.6803 1.63005L12.5422 3.49195C12.9328 3.88247 12.9328 4.51564 12.5422 4.90616L5.72561 11.7228C5.56648 11.8819 5.35832 11.9827 5.13479 12.0089L3.11914 12.2449C2.49452 12.318 1.95824 11.8033 2.00571 11.1762L2.16492 9.07285C2.18297 8.8344 2.28587 8.61031 2.45496 8.44122L9.26613 1.63005ZM8.76907 4.01273L10.1596 5.40322L11.3637 4.19905L9.97324 2.80856L8.76907 4.01273ZM9.21675 6.34603L7.82626 4.95554L3.48512 9.29667L3.36576 10.8736L4.8647 10.6981L9.21675 6.34603ZM13.9999 14.6666L1.99988 14.6666V13.3333L13.9999 13.3333V14.6666Z" fill="#C9CDD4"/>
</svg>
