<svg xmlns="http://www.w3.org/2000/svg" xmlns:xlink="http://www.w3.org/1999/xlink" width="68" height="48" viewBox="0 0 68 48" fill="none">
<path    style="mix-blend-mode:normal" fill="#F2F3F5"  d="M0 44L0 4C0 1.79086 1.79086 0 4 0L64 0C66.2091 0 68 1.79086 68 4L68 44C68 46.2091 66.2091 48 64 48L4 48C1.79086 48 0 46.2091 0 44Z">
</path>
<path  transform="translate(4, 6)"  style="mix-blend-mode:normal" fill="#FFFFFF"  d="M0 34L0 2C0 0.89543 0.89543 0 2 0L58 0C59.1046 0 60 0.89543 60 2L60 34C60 35.1046 59.1046 36 58 36L2 36C0.89543 36 0 35.1046 0 34Z">
</path>
<path  transform="translate(22, 12) rotate(9.213866198408551e-15)"  style="mix-blend-mode:normal" fill="#FFFFFF"  d="M0 20.57L0 3.43C0 1.53566 1.53566 0 3.43 0L20.57 0Q20.7385 0 20.9062 0.0165164Q21.0739 0.0330328 21.2392 0.0659065Q21.4044 0.0987802 21.5657 0.147695Q21.7269 0.196609 21.8826 0.261093Q22.0383 0.325577 22.1869 0.40501Q22.3355 0.484443 22.4756 0.578059Q22.6157 0.671676 22.746 0.778574Q22.8762 0.885473 22.9954 1.00462Q23.1145 1.12377 23.2214 1.25403Q23.3283 1.38429 23.4219 1.52439Q23.5156 1.6645 23.595 1.81311Q23.6744 1.96172 23.7389 2.1174Q23.8034 2.27307 23.8523 2.43432Q23.9012 2.59557 23.9341 2.76084Q23.967 2.92611 23.9835 3.0938Q24 3.2615 24 3.43L24 20.57C24 22.4643 22.4643 24 20.57 24L3.43 24Q3.2615 24 3.0938 23.9835Q2.92611 23.967 2.76084 23.9341Q2.59557 23.9012 2.43432 23.8523Q2.27307 23.8034 2.1174 23.7389Q1.96172 23.6744 1.81311 23.595Q1.6645 23.5156 1.52439 23.4219Q1.38429 23.3283 1.25403 23.2214Q1.12377 23.1145 1.00462 22.9954Q0.885473 22.8762 0.778574 22.746Q0.671676 22.6157 0.578059 22.4756Q0.484443 22.3355 0.40501 22.1869Q0.325577 22.0383 0.261093 21.8826Q0.196609 21.7269 0.147695 21.5657Q0.0987802 21.4044 0.0659065 21.2392Q0.0330328 21.0739 0.0165164 20.9062Q0 20.7385 0 20.57Z">
</path>
<rect  x="25" y="15" width="4.67" height="18" transform="rotate(9.213866198408551e-15 25 15)" rx="1.4299999475479126"   style="mix-blend-mode:normal" fill="#EAECEE" >
</rect>
<path fill-rule="evenodd"  fill="rgba(189, 194, 201, 1)" style="mix-blend-mode:normal" d="M28.24 15L26.43 15C25.6402 15 25 15.6402 25 16.43L25 31.57C25 32.3598 25.6402 33 26.43 33L28.24 33C29.0298 33 29.67 32.3598 29.67 31.57L29.67 16.43C29.67 15.6402 29.0298 15 28.24 15ZM25.6 16.43C25.6 15.9716 25.9716 15.6 26.43 15.6L28.24 15.6C28.6984 15.6 29.07 15.9716 29.07 16.43L29.07 31.57C29.07 32.0284 28.6984 32.4 28.24 32.4L26.43 32.4C25.9716 32.4 25.6 32.0284 25.6 31.57L25.6 16.43Z">
</path>
<rect  x="31.666015625" y="15" width="4.67" height="18" transform="rotate(9.213866198408551e-15 31.666015625 15)" rx="1.4299999475479126"   style="mix-blend-mode:normal" fill="#EAECEE" >
</rect>
<path fill-rule="evenodd"  fill="rgba(189, 194, 201, 1)" style="mix-blend-mode:normal" d="M34.906 15L33.096 15C32.3062 15 31.666 15.6402 31.666 16.43L31.666 31.57C31.666 32.3598 32.3062 33 33.096 33L34.906 33C35.6958 33 36.336 32.3598 36.336 31.57L36.336 16.43C36.336 15.6402 35.6958 15 34.906 15ZM32.266 16.43C32.266 15.9716 32.6376 15.6 33.096 15.6L34.906 15.6C35.3644 15.6 35.736 15.9716 35.736 16.43L35.736 31.57C35.736 32.0284 35.3644 32.4 34.906 32.4L33.096 32.4C32.6376 32.4 32.266 32.0284 32.266 31.57L32.266 16.43Z">
</path>
<rect  x="38.333984375" y="15" width="4.67" height="18" transform="rotate(9.213866198408551e-15 38.333984375 15)" rx="1.4299999475479126"   style="mix-blend-mode:normal" fill="#EAECEE" >
</rect>
<path fill-rule="evenodd"  fill="rgba(189, 194, 201, 1)" style="mix-blend-mode:normal" d="M41.574 15L39.764 15C38.9742 15 38.334 15.6402 38.334 16.43L38.334 31.57C38.334 32.3598 38.9742 33 39.764 33L41.574 33C42.3638 33 43.004 32.3598 43.004 31.57L43.004 16.43C43.004 15.6402 42.3638 15 41.574 15ZM38.934 16.43C38.934 15.9716 39.3056 15.6 39.764 15.6L41.574 15.6C42.0324 15.6 42.404 15.9716 42.404 16.43L42.404 31.57C42.404 32.0284 42.0324 32.4 41.574 32.4L39.764 32.4C39.3056 32.4 38.934 32.0284 38.934 31.57L38.934 16.43Z">
</path>
<path fill-rule="evenodd" transform="translate(22, 12) rotate(9.213866198408551e-15)" fill="rgba(51, 150, 100, 1)" style="mix-blend-mode:normal" d="M0 3.43L0 20.57Q0 20.7385 0.0165164 20.9062Q0.0330328 21.0739 0.0659065 21.2392Q0.0987802 21.4044 0.147695 21.5657Q0.196609 21.7269 0.261093 21.8826Q0.325577 22.0383 0.40501 22.1869Q0.484443 22.3355 0.578059 22.4756Q0.671676 22.6157 0.778574 22.746Q0.885473 22.8762 1.00462 22.9954Q1.12377 23.1145 1.25403 23.2214Q1.38429 23.3283 1.52439 23.4219Q1.6645 23.5156 1.81311 23.595Q1.96172 23.6744 2.1174 23.7389Q2.27307 23.8034 2.43432 23.8523Q2.59557 23.9012 2.76084 23.9341Q2.92611 23.967 3.0938 23.9835Q3.2615 24 3.43 24L20.57 24C22.4643 24 24 22.4643 24 20.57L24 3.43Q24 3.2615 23.9835 3.0938Q23.967 2.92611 23.9341 2.76084Q23.9012 2.59557 23.8523 2.43432Q23.8034 2.27307 23.7389 2.1174Q23.6744 1.96172 23.595 1.81311Q23.5156 1.6645 23.4219 1.52439Q23.3283 1.38429 23.2214 1.25403Q23.1145 1.12377 22.9954 1.00462Q22.8762 0.885473 22.746 0.778574Q22.6157 0.671676 22.4756 0.578059Q22.3355 0.484443 22.1869 0.40501Q22.0383 0.325577 21.8826 0.261093Q21.7269 0.196609 21.5657 0.147695Q21.4044 0.0987802 21.2392 0.0659065Q21.0739 0.0330328 20.9062 0.0165164Q20.7385 0 20.57 0L3.43 0C1.53566 0 0 1.53566 0 3.43ZM0.812664 20.8278Q0.8 20.6992 0.8 20.57L0.8 3.43C0.8 1.97749 1.97749 0.8 3.43 0.8L20.57 0.8Q20.6992 0.8 20.8278 0.812664Q20.9564 0.82533 21.0832 0.850541Q21.2098 0.875738 21.3335 0.913267Q21.4571 0.950747 21.5765 1.00021Q21.6958 1.04964 21.8098 1.11054Q21.9237 1.17145 22.0311 1.24322Q22.1386 1.31505 22.2386 1.39707Q22.3383 1.47895 22.4298 1.57043Q22.521 1.6616 22.603 1.76154Q22.6849 1.86141 22.7567 1.96881Q22.8286 2.07636 22.8894 2.1901Q22.9503 2.30413 22.9998 2.4236Q23.0493 2.5429 23.0867 2.66649Q23.1242 2.79021 23.1495 2.91703Q23.1747 3.04365 23.1873 3.17214Q23.2 3.30077 23.2 3.43L23.2 20.57C23.2 22.0225 22.0225 23.2 20.57 23.2L3.43 23.2Q3.30077 23.2 3.17214 23.1873Q3.04365 23.1747 2.91703 23.1495Q2.79021 23.1242 2.66648 23.0867Q2.5429 23.0493 2.42363 22.9998Q2.30413 22.9503 2.19011 22.8894Q2.07636 22.8286 1.96911 22.7569Q1.86141 22.6849 1.76154 22.603Q1.6616 22.521 1.57019 22.4296Q1.47895 22.3383 1.39687 22.2384Q1.31505 22.1386 1.24322 22.0311Q1.17145 21.9237 1.11054 21.8098Q1.04964 21.6958 1.00021 21.5765Q0.950747 21.4571 0.913228 21.3334Q0.875738 21.2098 0.850522 21.0831Q0.82533 20.9564 0.812664 20.8278Z">
</path>
<path fill-rule="evenodd"  fill="rgba(229, 230, 235, 1)" style="mix-blend-mode:normal" d="M0 4L0 44C0 46.2091 1.79086 48 4 48L64 48C66.2091 48 68 46.2091 68 44L68 4C68 1.79086 66.2091 0 64 0L4 0C1.79086 0 0 1.79086 0 4ZM4 47C2.34315 47 1 45.6569 1 44L1 4C1 2.34315 2.34315 1 4 1L64 1C65.6569 1 67 2.34315 67 4L67 44C67 45.6569 65.6569 47 64 47L4 47Z">
</path>
</svg>
