<svg xmlns="http://www.w3.org/2000/svg" xmlns:xlink="http://www.w3.org/1999/xlink" width="68" height="48" viewBox="0 0 68 48" fill="none">
<path    style="mix-blend-mode:normal" fill="#F2F3F5"  d="M0 44L0 4C0 1.79086 1.79086 0 4 0L64 0C66.2091 0 68 1.79086 68 4L68 44C68 46.2091 66.2091 48 64 48L4 48C1.79086 48 0 46.2091 0 44Z">
</path>
<path  transform="translate(4, 6)"  style="mix-blend-mode:normal" fill="#FFFFFF"  d="M0 34L0 2C0 0.89543 0.89543 0 2 0L58 0C59.1046 0 60 0.89543 60 2L60 34C60 35.1046 59.1046 36 58 36L2 36C0.89543 36 0 35.1046 0 34Z">
</path>
<rect  x="16" y="16" width="36" height="16" rx="3.430000066757202"   style="mix-blend-mode:normal" fill="#FDFEFF" >
</rect>
<path fill-rule="evenodd"  fill="rgba(189, 194, 201, 1)" style="mix-blend-mode:normal" d="M48.57 16L19.43 16C17.5357 16 16 17.5357 16 19.43L16 28.57C16 30.4643 17.5357 32 19.43 32L48.57 32C50.4643 32 52 30.4643 52 28.57L52 19.43C52 17.5357 50.4643 16 48.57 16ZM16.8 19.43C16.8 17.9775 17.9775 16.8 19.43 16.8L48.57 16.8C50.0225 16.8 51.2 17.9775 51.2 19.43L51.2 28.57C51.2 30.0225 50.0225 31.2 48.57 31.2L19.43 31.2C17.9775 31.2 16.8 30.0225 16.8 28.57L16.8 19.43Z">
</path>
<rect  x="31.5" y="20" width="8" height="8" rx="4"   style="mix-blend-mode:normal" fill="#BDC2C9" >
</rect>
<path fill-rule="evenodd"  fill="rgba(255, 255, 255, 1)" style="mix-blend-mode:normal" d="M39.5 24C39.5 21.7909 37.7091 20 35.5 20C33.2909 20 31.5 21.7909 31.5 24C31.5 26.2091 33.2909 28 35.5 28C37.7091 28 39.5 26.2091 39.5 24ZM32.8601 21.3601Q33.9536 20.2667 35.5 20.2667C37.5619 20.2667 39.2333 21.9381 39.2333 24C39.2333 26.0619 37.5619 27.7333 35.5 27.7333C33.4381 27.7333 31.7667 26.0619 31.7667 24Q31.7667 22.4536 32.8601 21.3601Z">
</path>
<path d="M35.5 24.1431C35.1715 24.1431 34.8566 24.0127 34.6243 23.7804C34.3921 23.5482 34.2616 23.2332 34.2616 22.9048C34.2616 22.5764 34.3921 22.2614 34.6243 22.0292C34.8566 21.797 35.1715 21.6665 35.5 21.6665C35.8284 21.6665 36.1434 21.797 36.3756 22.0292C36.6078 22.2614 36.7383 22.5764 36.7383 22.9048C36.7383 23.2332 36.6078 23.5482 36.3756 23.7804C36.1434 24.0127 35.8284 24.1431 35.5 24.1431Z"  style="mix-blend-mode:normal" fill="#FFFFFF" >
</path>
<path d="M33.505 25.452C33.5913 24.9554 33.8703 24.5075 34.2871 24.1964C34.3364 24.16 34.3969 24.1421 34.458 24.1459C34.5191 24.1497 34.577 24.1748 34.6214 24.217C34.8565 24.4418 35.1766 24.5681 35.5102 24.5681C35.8439 24.5681 36.1638 24.4418 36.3991 24.217C36.4428 24.1734 36.5008 24.1473 36.5624 24.1435C36.6239 24.1398 36.6848 24.1585 36.7334 24.1964C37.1415 24.5115 37.4124 24.9588 37.494 25.4519C37.5038 25.5028 37.5016 25.5554 37.4873 25.6053C37.4731 25.6552 37.4473 25.7011 37.412 25.7391C37.3398 25.818 37.2339 25.8615 37.124 25.8573L33.8743 25.8573C33.8208 25.8591 33.7675 25.8494 33.7181 25.8288C33.6687 25.8083 33.6243 25.7773 33.5879 25.738C33.5163 25.6593 33.486 25.5545 33.505 25.452Z"  style="mix-blend-mode:normal" fill="#FFFFFF" >
</path>
<path d="M45.2598 25.85C45.1443 26.05 44.8557 26.05 44.7402 25.85L42.6617 22.25C42.5463 22.05 42.6906 21.8 42.9215 21.8L47.0785 21.8C47.3094 21.8 47.4537 22.05 47.3383 22.25L45.2598 25.85Z"  style="mix-blend-mode:normal" fill="#BDC2C9" >
</path>
<rect  x="25.5" y="20" width="8" height="8" rx="4"   style="mix-blend-mode:normal" fill="#BDC2C9" >
</rect>
<path fill-rule="evenodd"  fill="rgba(255, 255, 255, 1)" style="mix-blend-mode:normal" d="M33.5 24C33.5 21.7909 31.7091 20 29.5 20C27.2909 20 25.5 21.7909 25.5 24C25.5 26.2091 27.2909 28 29.5 28C31.7091 28 33.5 26.2091 33.5 24ZM26.8601 21.3601Q27.9536 20.2667 29.5 20.2667C31.5619 20.2667 33.2333 21.9381 33.2333 24C33.2333 26.0619 31.5619 27.7333 29.5 27.7333C27.4381 27.7333 25.7667 26.0619 25.7667 24Q25.7667 22.4536 26.8601 21.3601Z">
</path>
<path    style="mix-blend-mode:normal" fill="#FFFFFF"  d="M29.5 24.1431C29.1715 24.1431 28.8566 24.0127 28.6243 23.7804C28.3921 23.5482 28.2616 23.2332 28.2616 22.9048C28.2616 22.5764 28.3921 22.2614 28.6243 22.0292C28.8566 21.797 29.1715 21.6665 29.5 21.6665C29.8284 21.6665 30.1434 21.797 30.3756 22.0292C30.6078 22.2614 30.7383 22.5764 30.7383 22.9048C30.7383 23.2332 30.6078 23.5482 30.3756 23.7804C30.1434 24.0127 29.8284 24.1431 29.5 24.1431Z">
</path>
<path fill-rule="evenodd"  fill="rgba(255, 255, 255, 1)" style="mix-blend-mode:normal" d="M28.6243 23.7804C28.8566 24.0127 29.1715 24.1431 29.5 24.1431C29.8284 24.1431 30.1434 24.0127 30.3756 23.7804C30.6078 23.5482 30.7383 23.2332 30.7383 22.9048C30.7383 22.5764 30.6078 22.2614 30.3756 22.0292C30.1434 21.797 29.8284 21.6665 29.5 21.6665C29.1715 21.6665 28.8566 21.797 28.6243 22.0292C28.3921 22.2614 28.2616 22.5764 28.2616 22.9048C28.2616 23.2332 28.3921 23.5482 28.6243 23.7804ZM28.6272 23.7776Q28.9887 24.1391 29.5 24.1391Q30.0112 24.1391 30.3727 23.7776Q30.7342 23.4161 30.7342 22.9048Q30.7342 22.3936 30.3727 22.0321Q30.0112 21.6706 29.5 21.6706Q28.9887 21.6706 28.6272 22.0321Q28.2657 22.3936 28.2657 22.9048Q28.2657 23.416 28.6272 23.7776Z">
</path>
<path    style="mix-blend-mode:normal" fill="#FFFFFF"  d="M27.505 25.452C27.5913 24.9554 27.8703 24.5075 28.2871 24.1964C28.3364 24.16 28.3969 24.1421 28.458 24.1459C28.5191 24.1497 28.577 24.1748 28.6214 24.217C28.8565 24.4418 29.1766 24.5681 29.5102 24.5681C29.8439 24.5681 30.1638 24.4418 30.3991 24.217C30.4428 24.1734 30.5008 24.1473 30.5624 24.1435C30.6239 24.1398 30.6848 24.1585 30.7334 24.1964C31.1415 24.5115 31.4124 24.9588 31.494 25.4519C31.5038 25.5028 31.5016 25.5554 31.4873 25.6053C31.4731 25.6552 31.4473 25.7011 31.412 25.7391C31.3398 25.818 31.2339 25.8615 31.124 25.8573L27.8743 25.8573C27.8208 25.8591 27.7675 25.8494 27.7181 25.8288C27.6687 25.8083 27.6243 25.7773 27.5879 25.738C27.5163 25.6593 27.486 25.5545 27.505 25.452Z">
</path>
<path fill-rule="evenodd"  fill="rgba(255, 255, 255, 1)" style="mix-blend-mode:normal" d="M27.8743 25.8573C27.8208 25.8591 27.7675 25.8494 27.7181 25.8288C27.6687 25.8083 27.6243 25.7773 27.5879 25.738C27.5163 25.6593 27.486 25.5545 27.505 25.452C27.5913 24.9554 27.8703 24.5075 28.2871 24.1964C28.3364 24.16 28.3969 24.1421 28.458 24.1459C28.5191 24.1497 28.577 24.1748 28.6214 24.217C28.8565 24.4418 29.1766 24.5681 29.5102 24.5681C29.8439 24.5681 30.1638 24.4418 30.3991 24.217C30.4428 24.1734 30.5008 24.1473 30.5624 24.1435C30.6239 24.1398 30.6848 24.1585 30.7334 24.1964C30.8781 24.3081 31.0055 24.4364 31.1133 24.5774Q30.9534 24.3714 30.7309 24.1996Q30.6566 24.1418 30.5626 24.1476Q30.4687 24.1534 30.4019 24.2199Q30.0332 24.5722 29.5102 24.5722Q28.987 24.5722 28.6186 24.2199Q28.5509 24.1557 28.4578 24.15Q28.3646 24.1443 28.2895 24.1997Q27.9775 24.4325 27.7756 24.7568Q27.5737 25.081 27.5091 25.4528L27.5091 25.4528Q27.4794 25.6127 27.5909 25.7352Q27.6455 25.7942 27.7197 25.8251Q27.7938 25.856 27.8741 25.8532L27.8742 25.8532L31.1241 25.8532L31.1241 25.8532Q31.2961 25.8597 31.409 25.7364Q31.462 25.6792 31.4834 25.6042Q31.5048 25.5292 31.4899 25.4526L31.4899 25.4526L31.4899 25.4525Q31.4459 25.1866 31.3407 24.954C31.4136 25.1119 31.4654 25.2791 31.494 25.4519C31.5038 25.5028 31.5016 25.5554 31.4873 25.6053C31.4731 25.6552 31.4473 25.7011 31.412 25.7391C31.3398 25.818 31.2339 25.8615 31.124 25.8573L27.8743 25.8573Z">
</path>
<rect  x="19.5" y="20" width="8" height="8" rx="4"   style="mix-blend-mode:normal" fill="#339664" >
</rect>
<path fill-rule="evenodd"  fill="rgba(255, 255, 255, 1)" style="mix-blend-mode:normal" d="M27.5 24C27.5 21.7909 25.7091 20 23.5 20C21.2909 20 19.5 21.7909 19.5 24C19.5 26.2091 21.2909 28 23.5 28C25.7091 28 27.5 26.2091 27.5 24ZM20.8601 21.3601Q21.9536 20.2667 23.5 20.2667C25.5619 20.2667 27.2333 21.9381 27.2333 24C27.2333 26.0619 25.5619 27.7333 23.5 27.7333C21.4381 27.7333 19.7667 26.0619 19.7667 24Q19.7667 22.4536 20.8601 21.3601Z">
</path>
<path d="M23.5 24.1431C23.1715 24.1431 22.8566 24.0127 22.6243 23.7804C22.3921 23.5482 22.2616 23.2332 22.2616 22.9048C22.2616 22.5764 22.3921 22.2614 22.6243 22.0292C22.8566 21.797 23.1715 21.6665 23.5 21.6665C23.8284 21.6665 24.1434 21.797 24.3756 22.0292C24.6078 22.2614 24.7383 22.5764 24.7383 22.9048C24.7383 23.2332 24.6078 23.5482 24.3756 23.7804C24.1434 24.0127 23.8284 24.1431 23.5 24.1431Z"  style="mix-blend-mode:normal" fill="#FFFFFF" >
</path>
<path d="M21.505 25.452C21.5913 24.9554 21.8703 24.5075 22.2871 24.1964C22.3364 24.16 22.3969 24.1421 22.458 24.1459C22.5191 24.1497 22.577 24.1748 22.6214 24.217C22.8565 24.4418 23.1766 24.5681 23.5102 24.5681C23.8439 24.5681 24.1638 24.4418 24.3991 24.217C24.4428 24.1734 24.5008 24.1473 24.5624 24.1435C24.6239 24.1398 24.6848 24.1585 24.7334 24.1964C25.1415 24.5115 25.4124 24.9588 25.494 25.4519C25.5038 25.5028 25.5016 25.5554 25.4873 25.6053C25.4731 25.6552 25.4473 25.7011 25.412 25.7391C25.3398 25.818 25.2339 25.8615 25.124 25.8573L21.8743 25.8573C21.8208 25.8591 21.7675 25.8494 21.7181 25.8288C21.6687 25.8083 21.6243 25.7773 21.5879 25.738C21.5163 25.6593 21.486 25.5545 21.505 25.452Z"  style="mix-blend-mode:normal" fill="#FFFFFF" >
</path>
<path fill-rule="evenodd"  fill="rgba(229, 230, 235, 1)" style="mix-blend-mode:normal" d="M0 4L0 44C0 46.2091 1.79086 48 4 48L64 48C66.2091 48 68 46.2091 68 44L68 4C68 1.79086 66.2091 0 64 0L4 0C1.79086 0 0 1.79086 0 4ZM4 47C2.34315 47 1 45.6569 1 44L1 4C1 2.34315 2.34315 1 4 1L64 1C65.6569 1 67 2.34315 67 4L67 44C67 45.6569 65.6569 47 64 47L4 47Z">
</path>
</svg>
