<svg width="24" height="24" viewBox="0 0 24 24" fill="none" xmlns="http://www.w3.org/2000/svg">
<path d="M6.0001 2.40039C5.36358 2.40039 4.75313 2.65325 4.30304 3.10333C3.85295 3.55342 3.6001 4.16387 3.6001 4.80039V19.2004C3.6001 19.8369 3.85295 20.4474 4.30304 20.8974C4.75313 21.3475 5.36358 21.6004 6.0001 21.6004H15.6001C16.2366 21.6004 16.8471 21.3475 17.2972 20.8974C17.7472 20.4474 18.0001 19.8369 18.0001 19.2004V4.80039C18.0001 4.16387 17.7472 3.55342 17.2972 3.10333C16.8471 2.65325 16.2366 2.40039 15.6001 2.40039H6.0001ZM6.0001 6.60039C6.0001 6.44126 6.06331 6.28865 6.17583 6.17613C6.28836 6.06361 6.44097 6.00039 6.6001 6.00039H15.0001C15.1592 6.00039 15.3118 6.06361 15.4244 6.17613C15.5369 6.28865 15.6001 6.44126 15.6001 6.60039V7.80039C15.6001 7.95952 15.5369 8.11213 15.4244 8.22465C15.3118 8.33718 15.1592 8.40039 15.0001 8.40039H6.6001C6.44097 8.40039 6.28836 8.33718 6.17583 8.22465C6.06331 8.11213 6.0001 7.95952 6.0001 7.80039V6.60039ZM19.2001 7.20039H19.8001C19.9592 7.20039 20.1118 7.26361 20.2244 7.37613C20.3369 7.48865 20.4001 7.64126 20.4001 7.80039V9.60039C20.4001 9.75952 20.3369 9.91213 20.2244 10.0247C20.1118 10.1372 19.9592 10.2004 19.8001 10.2004H19.2001V7.20039ZM19.2001 11.4004H19.8001C19.9592 11.4004 20.1118 11.4636 20.2244 11.5761C20.3369 11.6886 20.4001 11.8413 20.4001 12.0004V13.8004C20.4001 13.9595 20.3369 14.1121 20.2244 14.2247C20.1118 14.3372 19.9592 14.4004 19.8001 14.4004H19.2001V11.4004ZM19.2001 15.6004H19.8001C19.9592 15.6004 20.1118 15.6636 20.2244 15.7761C20.3369 15.8886 20.4001 16.0413 20.4001 16.2004V18.0004C20.4001 18.1595 20.3369 18.3121 20.2244 18.4247C20.1118 18.5372 19.9592 18.6004 19.8001 18.6004H19.2001V15.6004Z" fill="#4E5969"/>
</svg>
