<svg width="16" height="16" viewBox="0 0 16 16" fill="none" xmlns="http://www.w3.org/2000/svg">
<path d="M8 14.6673C7.07778 14.6673 6.21111 14.4922 5.4 14.142C4.58889 13.7918 3.88333 13.3169 3.28333 12.7173C2.68333 12.1178 2.20844 11.4122 1.85867 10.6007C1.50889 9.7891 1.33378 8.92243 1.33333 8.00065C1.33289 7.07887 1.508 6.21221 1.85867 5.40065C2.20933 4.5891 2.68422 3.88354 3.28333 3.28398C3.88244 2.68443 4.588 2.20954 5.4 1.85932C6.212 1.5091 7.07867 1.33398 8 1.33398H8.66667V6.85065C8.86667 6.97287 9.02778 7.13132 9.15 7.32598C9.27222 7.52065 9.33333 7.74554 9.33333 8.00065C9.33333 8.36732 9.20289 8.68132 8.942 8.94265C8.68111 9.20398 8.36711 9.33443 8 9.33398C7.63289 9.33354 7.31911 9.2031 7.05867 8.94265C6.79822 8.68221 6.66755 8.36821 6.66667 8.00065C6.66667 7.7451 6.72778 7.51732 6.85 7.31732C6.97222 7.11732 7.13333 6.96176 7.33333 6.85065V5.41732C6.75556 5.57287 6.27778 5.88687 5.9 6.35932C5.52222 6.83176 5.33333 7.37887 5.33333 8.00065C5.33333 8.73398 5.59444 9.36176 6.11667 9.88398C6.63889 10.4062 7.26667 10.6673 8 10.6673C8.73333 10.6673 9.36111 10.4062 9.88333 9.88398C10.4056 9.36176 10.6667 8.73398 10.6667 8.00065C10.6667 7.60065 10.586 7.23132 10.4247 6.89265C10.2633 6.55398 10.044 6.25665 9.76667 6.00065L10.7167 5.05065C11.1056 5.41732 11.4167 5.85354 11.65 6.35932C11.8833 6.8651 12 7.41221 12 8.00065C12 9.11176 11.6111 10.0562 10.8333 10.834C10.0556 11.6118 9.11111 12.0007 8 12.0007C6.88889 12.0007 5.94444 11.6118 5.16667 10.834C4.38889 10.0562 4 9.11176 4 8.00065C4 7.00065 4.31667 6.13132 4.95 5.39265C5.58333 4.65398 6.37778 4.20665 7.33333 4.05065V2.70065C6.01111 2.86732 4.90267 3.45065 4.008 4.45065C3.11333 5.45065 2.66622 6.63398 2.66667 8.00065C2.66667 9.48954 3.18333 10.7507 4.21667 11.784C5.25 12.8173 6.51111 13.334 8 13.334C9.48889 13.334 10.75 12.8173 11.7833 11.784C12.8167 10.7507 13.3333 9.48954 13.3333 8.00065C13.3333 7.23398 13.1833 6.51732 12.8833 5.85065C12.5833 5.18398 12.1722 4.60621 11.65 4.11732L12.6 3.16732C13.2333 3.77843 13.7362 4.49798 14.1087 5.32598C14.4811 6.15398 14.6671 7.04554 14.6667 8.00065C14.6667 8.92287 14.4916 9.78954 14.1413 10.6007C13.7911 11.4118 13.3162 12.1173 12.7167 12.7173C12.1171 13.3173 11.4116 13.7924 10.6 14.1427C9.78844 14.4929 8.92178 14.6678 8 14.6673Z" fill="#4FAE7B"/>
</svg>
