<svg xmlns="http://www.w3.org/2000/svg" xmlns:xlink="http://www.w3.org/1999/xlink" width="32" height="32" viewBox="0 0 32 32" fill="none">
<path fill-rule="evenodd"  fill="rgba(242, 243, 245, 1)"  d="M16 32C24.8366 32 32 24.8366 32 16C32 7.16344 24.8366 0 16 0C7.16344 0 0 7.16344 0 16C0 24.8366 7.16344 32 16 32ZM16 1C24.2843 1 31 7.71573 31 16C31 24.2843 24.2843 31 16 31C7.71573 31 1 24.2843 1 16C1 7.71573 7.71573 1 16 1Z">
</path>
<path d="M24 8L24 24L8 24L8 8L24 8Z"   fill="#FFFFFF" fill-opacity="0.01">
</path>
<path d="M9.46804 17.3433C9.38004 16.9089 9.33337 16.4603 9.33337 16.0002C9.33337 15.303 9.44004 14.6314 9.63871 13.9996C9.63871 13.9996 9.65737 13.9996 9.66671 13.9996C10.7707 13.9996 11.6667 13.105 11.6667 12.0003C11.6667 11.6825 11.5934 11.3826 11.4614 11.116C12.232 10.3996 13.1734 9.86258 14.2174 9.57422C14.548 10.2227 15.2227 10.6661 16 10.6661C16.7774 10.6661 17.452 10.2227 17.7827 9.57422C18.8267 9.86258 19.768 10.3996 20.5387 11.116C20.4067 11.3826 20.3334 11.6825 20.3334 12.0003C20.3334 13.105 21.2294 13.9996 22.3334 13.9996C22.3427 13.9996 22.3614 13.9996 22.3614 13.9996C22.56 14.6314 22.6667 15.303 22.6667 16.0002C22.6667 16.4603 22.62 16.9089 22.532 17.3433C22.4667 17.3369 22.4 17.3331 22.3334 17.3331C21.2294 17.3331 20.3334 18.2289 20.3334 19.3336C20.3334 19.8245 20.5107 20.2743 20.804 20.6217C20.0174 21.4406 19.0227 22.0583 17.9054 22.3903C17.648 21.5841 16.892 20.9997 16 20.9997C15.108 20.9997 14.352 21.5841 14.0947 22.3903C12.9774 22.0583 11.9827 21.4406 11.196 20.6217C11.4894 20.2743 11.6667 19.8245 11.6667 19.3336C11.6667 18.2289 10.7707 17.3331 9.66671 17.3331C9.60004 17.3331 9.53337 17.3369 9.46804 17.3433Z" stroke="#009eb7" stroke-width="1.333333373069763" stroke-linejoin="round"     fill="#009eb7" >
</path>
<path d="M18.3333 15.9998C18.3333 14.7114 17.2884 13.6665 16 13.6665C14.7115 13.6665 13.6666 14.7114 13.6666 15.9998C13.6666 17.2883 14.7115 18.3332 16 18.3332C17.2884 18.3332 18.3333 17.2883 18.3333 15.9998Z" stroke="#009eb7" stroke-width="1.333333373069763" stroke-linejoin="round"     fill="#FFFFFF" >
</path>
</svg>
