<svg width="40" height="40" viewBox="0 0 40 40" fill="none" xmlns="http://www.w3.org/2000/svg">
<circle cx="20" cy="20" r="19" fill="#008699" stroke="white" stroke-width="2"/>
<path d="M21.25 11.666C21.25 12.036 21.0892 12.3685 20.8333 12.5977V14.166H25C25.663 14.166 26.2989 14.4294 26.7678 14.8983C27.2366 15.3671 27.5 16.003 27.5 16.666V24.9994C27.5 25.6624 27.2366 26.2983 26.7678 26.7671C26.2989 27.236 25.663 27.4994 25 27.4994H15C14.337 27.4994 13.7011 27.236 13.2322 26.7671C12.7634 26.2983 12.5 25.6624 12.5 24.9994V16.666C12.5 16.003 12.7634 15.3671 13.2322 14.8983C13.7011 14.4294 14.337 14.166 15 14.166H19.1667V12.5977C19.0113 12.4587 18.8931 12.283 18.8229 12.0867C18.7527 11.8903 18.7328 11.6796 18.7649 11.4735C18.797 11.2675 18.8802 11.0728 19.0067 10.9071C19.1333 10.7414 19.2994 10.61 19.4897 10.5249C19.68 10.4398 19.8887 10.4036 20.0965 10.4197C20.3044 10.4359 20.505 10.5037 20.6799 10.6171C20.8549 10.7305 20.9987 10.8859 21.0983 11.0691C21.1979 11.2523 21.25 11.4575 21.25 11.666ZM10 18.3327H11.6667V23.3327H10V18.3327ZM30 18.3327H28.3333V23.3327H30V18.3327ZM17.5 22.0827C17.8315 22.0827 18.1495 21.951 18.3839 21.7166C18.6183 21.4822 18.75 21.1642 18.75 20.8327C18.75 20.5012 18.6183 20.1832 18.3839 19.9488C18.1495 19.7144 17.8315 19.5827 17.5 19.5827C17.1685 19.5827 16.8505 19.7144 16.6161 19.9488C16.3817 20.1832 16.25 20.5012 16.25 20.8327C16.25 21.1642 16.3817 21.4822 16.6161 21.7166C16.8505 21.951 17.1685 22.0827 17.5 22.0827ZM23.75 20.8327C23.75 20.5012 23.6183 20.1832 23.3839 19.9488C23.1495 19.7144 22.8315 19.5827 22.5 19.5827C22.1685 19.5827 21.8505 19.7144 21.6161 19.9488C21.3817 20.1832 21.25 20.5012 21.25 20.8327C21.25 21.1642 21.3817 21.4822 21.6161 21.7166C21.8505 21.951 22.1685 22.0827 22.5 22.0827C22.8315 22.0827 23.1495 21.951 23.3839 21.7166C23.6183 21.4822 23.75 21.1642 23.75 20.8327Z" fill="white"/>
</svg>
