<svg width="16" height="16" viewBox="0 0 16 16" fill="none" xmlns="http://www.w3.org/2000/svg">
<path fill-rule="evenodd" clip-rule="evenodd" d="M7.31668 2.00169C7.3557 2.17407 7.32467 2.3549 7.23041 2.50442C7.13615 2.65394 6.98638 2.7599 6.81401 2.79902C6.68319 2.82879 6.55354 2.86348 6.42534 2.90302C6.34169 2.92885 6.25377 2.93794 6.1666 2.92979C6.07944 2.92164 5.99473 2.8964 5.91731 2.85551C5.8399 2.81462 5.7713 2.75889 5.71543 2.69149C5.65955 2.62408 5.6175 2.54634 5.59168 2.46269C5.56585 2.37903 5.55675 2.29111 5.5649 2.20395C5.57306 2.11678 5.5983 2.03207 5.63918 1.95466C5.68007 1.87724 5.73581 1.80864 5.80321 1.75277C5.87061 1.6969 5.94836 1.65485 6.03201 1.62902C6.19201 1.57924 6.35423 1.53591 6.51868 1.49902C6.60408 1.4796 6.69248 1.47719 6.77881 1.49195C6.86514 1.5067 6.94772 1.53832 7.02183 1.585C7.09594 1.63169 7.16012 1.69251 7.21071 1.76401C7.2613 1.8355 7.29731 1.91627 7.31668 2.00169ZM8.68334 2.00169C8.72246 1.82932 8.82843 1.67954 8.97794 1.58528C9.12746 1.49102 9.30829 1.45999 9.48068 1.49902C12.45 2.17235 14.6673 4.82702 14.6673 8.00035C14.6673 11.6824 11.682 14.667 8.00068 14.667C4.82668 14.667 2.17201 12.4504 1.49868 9.48102C1.46412 9.31034 1.49771 9.13291 1.59228 8.98668C1.68684 8.84046 1.83487 8.73703 2.00471 8.69854C2.17454 8.66004 2.3527 8.68953 2.50108 8.78069C2.64945 8.87185 2.75627 9.01745 2.79868 9.18635C3.01082 10.1155 3.46808 10.9709 4.12288 11.6634C4.77767 12.3559 5.60609 12.8603 6.52193 13.1242C7.43777 13.388 8.40757 13.4016 9.33044 13.1635C10.2533 12.9254 11.0955 12.4444 11.7694 11.7705C12.4434 11.0965 12.9244 10.2543 13.1625 9.33145C13.4005 8.40858 13.387 7.43878 13.1232 6.52294C12.8593 5.6071 12.3549 4.77868 11.6624 4.12389C10.9699 3.46909 10.1145 3.01183 9.18534 2.79969C9.01296 2.76043 8.86322 2.6543 8.76908 2.50465C8.67494 2.355 8.6441 2.17408 8.68334 2.00169ZM4.40934 3.14702C4.46896 3.21121 4.51535 3.28653 4.54584 3.36866C4.57634 3.45079 4.59034 3.53813 4.58706 3.62568C4.58378 3.71322 4.56327 3.79927 4.52672 3.87889C4.49016 3.9585 4.43827 4.03014 4.37401 4.08969C4.27534 4.1808 4.18045 4.27546 4.08934 4.37369C3.96824 4.4997 3.80249 4.57312 3.62779 4.57813C3.45308 4.58314 3.2834 4.51934 3.15527 4.40048C3.02714 4.28161 2.95081 4.11718 2.94272 3.9426C2.93463 3.76801 2.99542 3.59723 3.11201 3.46702C3.22534 3.34435 3.34356 3.22591 3.46668 3.11169C3.53087 3.05207 3.60619 3.00568 3.68832 2.97519C3.77045 2.94469 3.85778 2.93069 3.94533 2.93397C4.03288 2.93725 4.11892 2.95776 4.19854 2.99431C4.27816 3.03087 4.34979 3.08276 4.40934 3.14702ZM8.00001 4.00035C8.17682 4.00035 8.34639 4.07059 8.47141 4.19562C8.59644 4.32064 8.66668 4.49021 8.66668 4.66702V7.72435L10.4713 9.52902C10.5928 9.65475 10.66 9.82316 10.6585 9.99795C10.6569 10.1728 10.5868 10.34 10.4632 10.4636C10.3396 10.5872 10.1724 10.6573 9.99761 10.6588C9.82281 10.6603 9.65441 10.5931 9.52868 10.4717L7.52868 8.47169C7.40364 8.34669 7.33338 8.17715 7.33334 8.00035V4.66702C7.33334 4.49021 7.40358 4.32064 7.52861 4.19562C7.65363 4.07059 7.8232 4.00035 8.00001 4.00035ZM2.46201 5.59235C2.63094 5.64445 2.77226 5.7615 2.8549 5.91777C2.93753 6.07405 2.95472 6.25674 2.90268 6.42569C2.86313 6.55389 2.82844 6.68354 2.79868 6.81435C2.75627 6.98325 2.64945 7.12885 2.50108 7.22002C2.3527 7.31118 2.17454 7.34066 2.00471 7.30217C1.83487 7.26367 1.68684 7.16025 1.59228 7.01402C1.49771 6.86779 1.46412 6.69037 1.49868 6.51969C1.53601 6.35524 1.57934 6.19302 1.62868 6.03302C1.68077 5.86409 1.79782 5.72277 1.9541 5.64013C2.11037 5.5575 2.29307 5.54031 2.46201 5.59235Z" fill="black"/>
</svg>
