<svg width="16" height="16" viewBox="0 0 16 16" fill="none" xmlns="http://www.w3.org/2000/svg">
<path d="M8 2C8.512 2 8.98 2.19267 9.33333 2.50933C9.70001 2.18135 10.1747 2.00001 10.6667 2H11.3333C11.5101 2 11.6797 2.07024 11.8047 2.19526C11.9298 2.32029 12 2.48986 12 2.66667C12 2.84348 11.9298 3.01305 11.8047 3.13807C11.6797 3.2631 11.5101 3.33333 11.3333 3.33333H10.6667C10.4899 3.33333 10.3203 3.40357 10.1953 3.5286C10.0702 3.65362 10 3.82319 10 4V12C10 12.1768 10.0702 12.3464 10.1953 12.4714C10.3203 12.5964 10.4899 12.6667 10.6667 12.6667H11.3333C11.5101 12.6667 11.6797 12.7369 11.8047 12.8619C11.9298 12.987 12 13.1565 12 13.3333C12 13.5101 11.9298 13.6797 11.8047 13.8047C11.6797 13.9298 11.5101 14 11.3333 14H10.6667C10.1547 14 9.68667 13.8073 9.33333 13.4907C8.96666 13.8187 8.49196 14 8 14H7.33333C7.15652 14 6.98695 13.9298 6.86193 13.8047C6.7369 13.6797 6.66667 13.5101 6.66667 13.3333C6.66667 13.1565 6.7369 12.987 6.86193 12.8619C6.98695 12.7369 7.15652 12.6667 7.33333 12.6667H8C8.17681 12.6667 8.34638 12.5964 8.4714 12.4714C8.59643 12.3464 8.66667 12.1768 8.66667 12V4C8.66667 3.82319 8.59643 3.65362 8.4714 3.5286C8.34638 3.40357 8.17681 3.33333 8 3.33333H7.33333C7.15652 3.33333 6.98695 3.2631 6.86193 3.13807C6.7369 3.01305 6.66667 2.84348 6.66667 2.66667C6.66667 2.48986 6.7369 2.32029 6.86193 2.19526C6.98695 2.07024 7.15652 2 7.33333 2H8ZM8 4.66667V6H3.33333V10H8V11.3333H3.33333C2.99695 11.3334 2.67296 11.2064 2.4263 10.9777C2.17965 10.7489 2.02856 10.4354 2.00333 10.1L2 10V6C1.99989 5.66362 2.12694 5.33962 2.35566 5.09297C2.58439 4.84631 2.8979 4.69523 3.23333 4.67L3.33333 4.66667H8ZM12.6667 4.66667C13.0031 4.66656 13.327 4.7936 13.5737 5.02233C13.8204 5.25106 13.9714 5.56456 13.9967 5.9L14 6V10C14.0001 10.3364 13.8731 10.6604 13.6443 10.907C13.4156 11.1537 13.1021 11.3048 12.7667 11.33L12.6667 11.3333H10.6667V10H12.6667V6H10.6667V4.66667H12.6667Z" fill="#6B7785"/>
</svg>
