<svg width="40" height="99" viewBox="0 0 40 99" fill="none" xmlns="http://www.w3.org/2000/svg">
<path d="M33.9403 8.48507C37.5016 9.37541 40 12.5753 40 16.2462V88.7538C40 93.9584 35.1089 97.7772 30.0597 96.5149L6.05972 90.5149C2.49838 89.6246 0 86.4247 0 82.7538V10.2462C0 5.04164 4.89111 1.22278 9.94028 2.48507L33.9403 8.48507Z" fill="#009E9E"/>
<path d="M32.9701 12.2425C34.7508 12.6877 36 14.2876 36 16.1231V88.8769C36 91.4792 33.5544 93.3886 31.0299 92.7575L7.02986 86.7575C5.24919 86.3123 4 84.7124 4 82.8769V10.1231C4 7.52082 6.44555 5.61139 8.97014 6.24254L32.9701 12.2425Z" fill="white"/>
</svg>
