<svg width="22" height="22" viewBox="0 0 22 22" fill="none" xmlns="http://www.w3.org/2000/svg">
<path d="M0 4C0 1.79086 1.79086 0 4 0H18C20.2091 0 22 1.79086 22 4V18C22 20.2091 20.2091 22 18 22H4C1.79086 22 0 20.2091 0 18V4Z" fill="#FF7D00"/>
<g clip-path="url(#clip0_7423_60716)">
<g filter="url(#filter0_d_7423_60716)">
<path d="M5.00065 5H17.0007C17.3689 5 17.6673 5.29848 17.6673 5.66667V16.3333C17.6673 16.7015 17.3689 17 17.0007 17H5.00065C4.63246 17 4.33398 16.7015 4.33398 16.3333V5.66667C4.33398 5.29848 4.63246 5 5.00065 5ZM11.0411 10.7886L6.76546 7.15847L5.9025 8.17487L11.0494 12.5447L16.1036 8.17077L15.2311 7.16256L11.0411 10.7886Z" fill="url(#paint0_linear_7423_60716)" shape-rendering="crispEdges"/>
<path d="M5.00098 5.33301H17.001C17.1849 5.33318 17.334 5.483 17.334 5.66699V16.333C17.334 16.517 17.1849 16.6668 17.001 16.667H5.00098C4.81688 16.667 4.66699 16.5171 4.66699 16.333V5.66699C4.66699 5.4829 4.81688 5.33301 5.00098 5.33301ZM6.51172 6.94238L5.64844 7.95898L5.43262 8.21289L5.68652 8.42871L10.834 12.7988L11.0518 12.9834L11.2676 12.7969L16.3213 8.42285L16.5742 8.20508L16.3555 7.95312L15.4834 6.94434L15.2646 6.69238L15.0127 6.91016L11.0391 10.3486L6.98145 6.9043L6.72754 6.68848L6.51172 6.94238Z" stroke="white" stroke-width="0.666667" shape-rendering="crispEdges"/>
</g>
</g>
<defs>
<filter id="filter0_d_7423_60716" x="1.66732" y="3.66667" width="18.6673" height="17.3333" filterUnits="userSpaceOnUse" color-interpolation-filters="sRGB">
<feFlood flood-opacity="0" result="BackgroundImageFix"/>
<feColorMatrix in="SourceAlpha" type="matrix" values="0 0 0 0 0 0 0 0 0 0 0 0 0 0 0 0 0 0 127 0" result="hardAlpha"/>
<feOffset dy="1.33333"/>
<feGaussianBlur stdDeviation="1.33333"/>
<feComposite in2="hardAlpha" operator="out"/>
<feColorMatrix type="matrix" values="0 0 0 0 0 0 0 0 0 0 0 0 0 0 0 0 0 0 0.05 0"/>
<feBlend mode="normal" in2="BackgroundImageFix" result="effect1_dropShadow_7423_60716"/>
<feBlend mode="normal" in="SourceGraphic" in2="effect1_dropShadow_7423_60716" result="shape"/>
</filter>
<linearGradient id="paint0_linear_7423_60716" x1="11.0007" y1="4.87977" x2="11.0007" y2="17" gradientUnits="userSpaceOnUse">
<stop stop-color="white"/>
<stop offset="1" stop-color="white" stop-opacity="0.8"/>
</linearGradient>
<clipPath id="clip0_7423_60716">
<rect width="16" height="16" fill="white" transform="translate(3 3)"/>
</clipPath>
</defs>
</svg>
