<svg width="24" height="24" viewBox="0 0 24 24" fill="none" xmlns="http://www.w3.org/2000/svg">
<path d="M10.4307 4.1543C6.76385 4.88367 4 8.11887 4 12C4 16.4183 7.58172 20 12 20C15.8814 20 19.1157 17.2355 19.8447 13.5684L21.8057 13.9609C20.8941 18.5447 16.8516 22 12 22C6.47715 22 2 17.5228 2 12C2 7.1487 5.45474 3.1052 10.0381 2.19336L10.4307 4.1543Z" fill="black"/>
<path d="M11.2148 8.07715C9.38167 8.44202 8 10.0596 8 12C8 14.2091 9.79086 16 12 16C13.9407 16 15.5573 14.6177 15.9219 12.7842L17.8828 13.1758C17.3361 15.9263 14.9112 18 12 18C8.68629 18 6 15.3137 6 12C6 9.0891 8.07306 6.66318 10.8232 6.11621L11.2148 8.07715Z" fill="black"/>
<path fill-rule="evenodd" clip-rule="evenodd" d="M12.877 2.03809C15.2447 2.24658 17.4609 3.29211 19.1279 4.98633C20.795 6.68078 21.8046 8.91419 21.9746 11.2852L13.9922 11.8564C13.9956 11.9039 14 11.9517 14 12C14 13.1046 13.1046 14 12 14C10.8954 14 10 13.1046 10 12C10 10.8954 10.8954 10 12 10C12.0589 10 12.1172 10.0038 12.1748 10.0088L12.877 2.03809ZM14.1973 9.83691L19.5811 9.45117C19.1973 8.30976 18.5598 7.26049 17.7031 6.38965C16.846 5.51849 15.8065 4.86326 14.6709 4.46094L14.1973 9.83691Z" fill="black"/>
</svg>
