<svg xmlns="http://www.w3.org/2000/svg" width="16" height="16" viewBox="0 0 16 16" fill="none">
  <path d="M7.96899 1.5C9.6728 1.50002 11.2415 1.70648 12.4055 2.05566C12.9829 2.22891 13.4987 2.44879 13.885 2.72266C14.254 2.98437 14.6376 3.39516 14.6379 3.96582C14.6379 4.53678 14.2541 4.94812 13.885 5.20996C13.8328 5.24694 13.7777 5.28235 13.7209 5.31738C13.7429 5.33093 13.7651 5.3436 13.7864 5.35742C14.1945 5.62298 14.6377 6.05211 14.6379 6.66797C14.6379 7.23901 14.2541 7.65027 13.885 7.91211C13.8328 7.94912 13.7777 7.98447 13.7209 8.01953C13.7427 8.03299 13.7653 8.04487 13.7864 8.05859C14.1945 8.3241 14.6376 8.75346 14.6379 9.36914C14.6379 9.9401 14.2541 10.3514 13.885 10.6133C13.8368 10.6474 13.7867 10.6814 13.7346 10.7139C13.7306 10.7164 13.726 10.7182 13.7219 10.7207C13.7436 10.7341 13.7654 10.7471 13.7864 10.7607C14.1946 11.0263 14.6378 11.4554 14.6379 12.0713C14.6379 12.6424 14.2542 13.0536 13.885 13.3154C13.4987 13.5893 12.983 13.8092 12.4055 13.9824C11.2415 14.3316 9.67287 14.5381 7.96899 14.5381C6.2651 14.5381 4.69654 14.3316 3.53247 13.9824C2.95471 13.8091 2.43842 13.5895 2.052 13.3154C1.70594 13.07 1.34837 12.6933 1.30493 12.1768L1.30005 12.0713L1.30493 11.958C1.35519 11.4024 1.76891 11.0097 2.15161 10.7607C2.17226 10.7473 2.19378 10.7349 2.21509 10.7217C2.15846 10.6867 2.10408 10.6502 2.052 10.6133C1.706 10.3678 1.34837 9.99109 1.30493 9.47461L1.30005 9.36914L1.30493 9.25586C1.35535 8.70043 1.769 8.30751 2.15161 8.05859C2.17226 8.04516 2.19378 8.0327 2.21509 8.01953C2.15857 7.98461 2.10399 7.94898 2.052 7.91211C1.70595 7.66665 1.34837 7.28999 1.30493 6.77344L1.30005 6.66797L1.30493 6.55469C1.35522 5.99909 1.76893 5.60638 2.15161 5.35742C2.17226 5.34399 2.19378 5.33153 2.21509 5.31836C2.15847 5.28339 2.10408 5.24689 2.052 5.20996C1.70598 4.96448 1.34833 4.58781 1.30493 4.07129L1.30005 3.96582L1.30493 3.86133C1.3484 3.34483 1.70598 2.96811 2.052 2.72266C2.43841 2.44864 2.95478 2.22897 3.53247 2.05566C4.69654 1.70647 6.26511 1.5 7.96899 1.5ZM11.4612 11.5146C10.6176 11.6859 9.64224 11.7955 8.60083 11.8271C8.39268 11.8335 8.18189 11.8359 7.96899 11.8359C7.7561 11.8359 7.5453 11.8335 7.33716 11.8271C6.29574 11.7955 5.3204 11.6859 4.47681 11.5146C4.31488 11.4818 4.15785 11.4465 4.0061 11.4092C3.49907 11.5546 3.12017 11.7173 2.87622 11.876C2.73444 11.9683 2.67132 12.0345 2.64478 12.0703C2.66741 12.101 2.71632 12.1558 2.82153 12.2305C3.04267 12.3873 3.4059 12.5555 3.91431 12.708C4.92314 13.0107 6.35719 13.208 7.96899 13.208C9.58061 13.208 11.0139 13.0106 12.0227 12.708C12.5313 12.5554 12.8953 12.3873 13.1165 12.2305C13.2207 12.1565 13.2684 12.1011 13.2913 12.0703C13.2644 12.0342 13.2019 11.9678 13.0608 11.876C12.8166 11.7171 12.4377 11.5547 11.9299 11.4092C11.7788 11.4463 11.6225 11.4819 11.4612 11.5146ZM11.928 8.70801C11.3899 8.84015 10.785 8.94303 10.134 9.01562C10.1003 9.01942 10.0664 9.02275 10.0325 9.02637C9.90867 9.03944 9.78337 9.05177 9.65649 9.0625C9.59371 9.06787 9.53053 9.07237 9.46704 9.07715C9.34262 9.0864 9.21701 9.09559 9.09009 9.10254C9.02338 9.10624 8.95628 9.10828 8.88892 9.11133C8.77612 9.11636 8.66254 9.12182 8.5481 9.125C8.46227 9.12742 8.37599 9.12756 8.28931 9.12891C8.1831 9.13053 8.07634 9.13476 7.96899 9.13477C7.86132 9.13477 7.75423 9.13054 7.64771 9.12891C7.56102 9.12756 7.47474 9.12742 7.38892 9.125C7.27447 9.12181 7.16089 9.11637 7.0481 9.11133C6.98073 9.10828 6.91364 9.10624 6.84692 9.10254C6.72 9.09558 6.59439 9.08641 6.46997 9.07715C6.40648 9.07237 6.3433 9.06786 6.28052 9.0625C6.15365 9.05177 6.02834 9.03945 5.90454 9.02637C5.87025 9.02271 5.83604 9.01946 5.802 9.01562C5.15144 8.94299 4.54681 8.84012 4.00903 8.70801C3.50084 8.85355 3.12058 9.0149 2.87622 9.17383C2.7348 9.26589 2.67144 9.33224 2.64478 9.36816C2.66739 9.39887 2.71646 9.45376 2.82153 9.52832C3.04265 9.68513 3.40596 9.85332 3.91431 10.0059C4.79701 10.2707 6.00527 10.4552 7.37329 10.4971C7.56876 10.5031 7.76749 10.5059 7.96899 10.5059C8.17051 10.5059 8.36924 10.5031 8.5647 10.4971C9.93241 10.4551 11.1401 10.2706 12.0227 10.0059C12.5313 9.85328 12.8953 9.68518 13.1165 9.52832C13.2206 9.45443 13.2684 9.39897 13.2913 9.36816C13.2643 9.33203 13.2015 9.26539 13.0608 9.17383C12.8163 9.01481 12.4365 8.85362 11.928 8.70801ZM11.929 6.00586C10.8291 6.27608 9.45028 6.4326 7.96899 6.43262C6.48727 6.43262 5.10809 6.27622 4.00806 6.00586C3.50013 6.15138 3.12046 6.31378 2.87622 6.47266C2.73453 6.56489 2.67135 6.63112 2.64478 6.66699C2.6674 6.69771 2.71635 6.75254 2.82153 6.82715C3.04266 6.98397 3.40591 7.15214 3.91431 7.30469C4.83171 7.57991 6.10081 7.76601 7.5354 7.79785C7.67838 7.80101 7.82296 7.80371 7.96899 7.80371C8.1147 7.80371 8.25895 7.801 8.40161 7.79785C9.83632 7.76605 11.1052 7.57993 12.0227 7.30469C12.5313 7.1521 12.8953 6.98402 13.1165 6.82715C13.2207 6.75321 13.2684 6.69782 13.2913 6.66699C13.2644 6.63091 13.2018 6.5644 13.0608 6.47266C12.8164 6.31369 12.4372 6.15145 11.929 6.00586ZM7.96899 2.83008C6.35726 2.83008 4.92313 3.02648 3.91431 3.3291C3.40592 3.48163 3.04271 3.65081 2.82153 3.80762C2.71839 3.88079 2.66896 3.93482 2.64575 3.96582C2.66872 3.9967 2.71764 4.05128 2.82153 4.125C3.04264 4.28182 3.40594 4.44999 3.91431 4.60254C4.92314 4.90519 6.35719 5.10254 7.96899 5.10254C9.58062 5.10252 11.0139 4.90515 12.0227 4.60254C12.5313 4.44995 12.8953 4.28186 13.1165 4.125C13.2193 4.05196 13.2671 3.99679 13.2903 3.96582C13.2669 3.93473 13.2186 3.88011 13.1165 3.80762C12.8953 3.65079 12.5312 3.48164 12.0227 3.3291C11.0139 3.02655 9.58046 2.83009 7.96899 2.83008Z" fill="#009E9E"/>
</svg>