<svg xmlns="http://www.w3.org/2000/svg" width="16" height="16" viewBox="0 0 16 16" fill="none">
  <path d="M10.1995 1.2002C11.0717 1.20042 11.7785 1.9079 11.7786 2.78027V6.68848H12.9446C13.6483 6.68873 14.2197 7.2592 14.22 7.96289V13.1465C14.22 14.0188 13.5121 14.7263 12.6399 14.7266H11.1155C11.1124 14.7266 11.1088 14.7256 11.1057 14.7256H2.88013C2.00788 14.7255 1.30012 14.0189 1.30005 13.1465V2.78027C1.30011 1.90783 2.00787 1.20033 2.88013 1.2002H10.1995ZM2.88013 2.53027C2.74213 2.5304 2.63019 2.64264 2.63013 2.78027V13.1465C2.63019 13.2841 2.74213 13.3964 2.88013 13.3965H10.4485V2.78027C10.4484 2.6427 10.3374 2.5305 10.1995 2.53027H2.88013ZM11.7805 13.3965H12.6399C12.7776 13.3962 12.8899 13.2842 12.8899 13.1465V8.01855H11.7805V13.3965ZM7.92017 5.94824C8.14805 5.99475 8.31946 6.19687 8.31958 6.43848C8.31958 6.68019 8.14813 6.88218 7.92017 6.92871L7.81958 6.93848H4.09985C3.82385 6.93831 3.59985 6.71451 3.59985 6.43848C3.59999 6.16255 3.82394 5.93865 4.09985 5.93848H7.81958L7.92017 5.94824ZM6.23364 3.80469C6.50979 3.80469 6.73364 4.02855 6.73364 4.30469C6.73364 4.58083 6.50979 4.80469 6.23364 4.80469H4.09985C3.82385 4.80452 3.59985 4.58073 3.59985 4.30469C3.59985 4.02865 3.82385 3.80486 4.09985 3.80469H6.23364Z" fill="#009E9E"/>
</svg>