<svg t="1755913429450" class="icon" viewBox="0 0 1024 1024" version="1.1" xmlns="http://www.w3.org/2000/svg"
    p-id="10617" width="32" height="32">
    <path d="M512 512m-512 0a512 512 0 1 0 1024 0 512 512 0 1 0-1024 0Z" fill="#3181FF" opacity=".15" p-id="10618">
    </path>
    <path
        d="M802.133333 601.315556c-5.546667-4.551111-8.533333-11.377778-7.822222-18.488889 0.426667-4.693333 0.853333-9.244444 0.995556-13.795556 0.853333-31.857778-6.684444-59.164444-22.613334-81.493333-27.733333-38.968889-73.528889-51.768889-106.951111-61.155556-22.755556-6.4-39.395556-7.964444-52.906666-9.386666-15.644444-1.564444-25.031111-2.417778-37.831112-9.813334-2.133333-1.28-4.408889-2.702222-6.4-4.124444-19.057778-13.368889-31.288889-33.991111-34.844444-56.746667v-26.026667c0-8.106667 4.551111-15.644444 11.804444-19.2a74.069333 74.069333 0 0 0 41.244445-66.986666c-0.284444-40.106667-32.711111-72.533333-72.248889-73.671111-0.284444 0-0.426667-0.142222-0.711111-0.142223h-3.982222c-0.284444 0-0.426667 0.142222-0.711111 0.142223-39.537778 1.137778-71.964444 33.564444-72.248889 73.671111a74.012444 74.012444 0 0 0 41.244444 66.986666c7.253333 3.555556 11.804444 11.093333 11.804445 19.2v26.026667c-3.555556 22.613333-15.786667 43.377778-34.844445 56.746667-1.991111 1.422222-4.266667 2.844444-6.4 4.124444-12.8 7.395556-22.186667 8.248889-37.831111 9.813334-13.368889 1.28-30.008889 2.986667-52.906667 9.386666-33.422222 9.386667-79.36 22.186667-106.951111 61.155556-15.928889 22.328889-23.466667 49.777778-22.613333 81.493333 0.142222 4.551111 0.426667 9.102222 0.995555 13.795556 0.711111 7.111111-2.275556 13.937778-7.822222 18.488889a73.671111 73.671111 0 0 0-27.448889 57.6c0 41.386667 33.848889 74.808889 75.377778 74.24 40.248889-0.568889 72.96-33.564444 73.244445-73.813334a74.368 74.368 0 0 0-55.893334-72.391111c-9.244444-2.417778-15.786667-10.666667-15.928889-20.195555-0.284444-18.062222 2.986667-38.115556 14.791111-54.755556 19.057778-26.737778 53.475556-36.408889 83.911112-44.942222 19.2-5.404444 33.28-6.826667 45.511111-7.964445 17.493333-1.706667 34.133333-3.413333 54.755555-15.217777 4.408889-2.56 8.675556-5.262222 12.8-8.391112 2.56-1.848889 5.688889-1.137778 7.395556 1.137778v242.773334c0 7.964444-4.551111 15.36-11.804445 18.915555-24.462222 12.088889-41.244444 37.404444-41.244444 66.56 0 36.551111 26.595556 66.702222 61.297778 72.817778 3.128889 0.568889 6.257778 0.995556 9.386666 1.28 0.284444 0 0.568889 0.142222 0.995556 0.142222h3.128889c0.995556 0 2.133333 0.142222 3.128889 0 0.284444 0 0.568889-0.142222 0.995555-0.142222 3.271111-0.142222 6.4-0.711111 9.386667-1.28a73.955556 73.955556 0 0 0 61.297778-72.817778c0-29.155556-16.782222-54.471111-41.244445-66.56-7.253333-3.555556-11.804444-10.951111-11.804444-18.915555V436.622222c1.706667-2.133333 4.835556-2.986667 7.395555-1.137778 3.982222 2.986667 8.391111 5.831111 12.8 8.391112 20.622222 11.804444 37.262222 13.511111 54.755556 15.217777 12.373333 1.137778 26.311111 2.56 45.511111 7.964445 30.435556 8.533333 64.853333 18.204444 83.911111 44.942222 11.804444 16.64 15.075556 36.551111 14.791111 54.755556-0.142222 9.528889-6.684444 17.777778-15.928889 20.195555a74.368 74.368 0 0 0-55.893333 72.391111c0.284444 40.248889 32.995556 73.244444 73.244444 73.813334 41.528889 0.568889 75.377778-32.853333 75.377778-74.24 0-23.324444-10.666667-44.088889-27.448889-57.6z m-501.76 57.457777c0 17.635556-14.222222 31.857778-31.857777 31.857778s-31.857778-14.222222-31.857778-31.857778 14.222222-31.857778 31.857778-31.857777 31.857778 14.364444 31.857777 31.857777z m242.773334-424.248889c0 17.351111-13.937778 31.431111-31.288889 31.715556-17.351111-0.284444-31.288889-14.364444-31.288889-31.715556s13.937778-31.431111 31.288889-31.715555c17.351111 0.284444 31.288889 14.364444 31.288889 31.715555z m-62.577778 530.346667c0-17.351111 13.937778-31.431111 31.288889-31.715555 17.351111 0.284444 31.288889 14.364444 31.288889 31.715555s-13.937778 31.431111-31.288889 31.715556a31.843556 31.843556 0 0 1-31.288889-31.715556z m274.631111-74.24c-17.635556 0-31.857778-14.222222-31.857778-31.857778s14.222222-31.857778 31.857778-31.857777 31.857778 14.222222 31.857778 31.857777-14.222222 31.857778-31.857778 31.857778z"
        fill="#3181FF" p-id="10619"></path>
</svg>