<svg width="16" height="16" viewBox="0 0 16 16" fill="none" xmlns="http://www.w3.org/2000/svg">
<path d="M13.5 2.35522C13.6187 2.32452 13.7436 2.32715 13.8609 2.36282C13.9782 2.39849 14.0834 2.46581 14.1649 2.55739C14.2464 2.64897 14.3011 2.76126 14.3229 2.8819C14.3448 3.00254 14.3329 3.12687 14.2887 3.24122L10.2887 13.5746C10.2491 13.6769 10.1849 13.7679 10.1017 13.8395C10.0185 13.911 9.91899 13.961 9.81189 13.9849C9.70479 14.0087 9.59346 14.0058 9.48776 13.9763C9.38207 13.9468 9.28528 13.8917 9.206 13.8159L6.95133 11.6592L6.14933 12.4606C5.72533 12.8846 5 12.5846 5 11.9846V9.79255L1.53933 6.48255C1.45347 6.4004 1.39112 6.2968 1.35874 6.18246C1.32637 6.06813 1.32515 5.94721 1.3552 5.83225C1.38525 5.71728 1.44548 5.61243 1.52966 5.52856C1.61385 5.44469 1.71892 5.38484 1.834 5.35522L13.5 2.35522ZM12.0907 5.22522L6.75866 9.62989L9.40533 12.1619L12.0907 5.22522ZM11.0387 4.36522L3.32733 6.34722L5.78866 8.70055L11.0387 4.36389V4.36522Z" fill="#4E5969"/>
</svg>
