<svg width="16" height="16" viewBox="0 0 16 16" fill="none" xmlns="http://www.w3.org/2000/svg">
<path d="M4 14V12.6667C4 11.9594 4.28095 11.2811 4.78105 10.781C5.28115 10.281 5.95942 10 6.66667 10H8.33333M12.6673 14C12.3137 14 11.9746 13.8595 11.7245 13.6095C11.4745 13.3594 11.334 13.0203 11.334 12.6667C11.334 12.313 11.4745 11.9739 11.7245 11.7239C11.9746 11.4738 12.3137 11.3333 12.6673 11.3333M12.6673 14C13.021 14 13.3601 13.8595 13.6101 13.6095C13.8602 13.3594 14.0007 13.0203 14.0007 12.6667C14.0007 12.313 13.8602 11.9739 13.6101 11.7239C13.3601 11.4738 13.021 11.3333 12.6673 11.3333M12.6673 14V15M12.6673 11.3333V10.3333M14.688 11.5L13.822 12M11.5133 13.3333L10.6467 13.8333M10.6467 11.5L11.5133 12M13.822 13.3333L14.6887 13.8333M5.33333 4.66667C5.33333 5.37391 5.61428 6.05219 6.11438 6.55229C6.61448 7.05238 7.29276 7.33333 8 7.33333C8.70724 7.33333 9.38552 7.05238 9.88562 6.55229C10.3857 6.05219 10.6667 5.37391 10.6667 4.66667C10.6667 3.95942 10.3857 3.28115 9.88562 2.78105C9.38552 2.28095 8.70724 2 8 2C7.29276 2 6.61448 2.28095 6.11438 2.78105C5.61428 3.28115 5.33333 3.95942 5.33333 4.66667Z" stroke="#4fae7b" stroke-width="1.33333" stroke-linecap="round" stroke-linejoin="round"/>
</svg>
