<svg width="24" height="24" viewBox="0 0 24 24" fill="none" xmlns="http://www.w3.org/2000/svg">
<path d="M15.5352 11.7139L13.4141 13.8359L15.5352 15.957L14.1211 17.3711L12 15.25L9.87891 17.3711L8.46484 15.957L10.5859 13.8359L8.46484 11.7139L9.87891 10.2998L12 12.4219L14.1211 10.2998L15.5352 11.7139Z" fill="black"/>
<path fill-rule="evenodd" clip-rule="evenodd" d="M22 7V20C22 20.5523 21.5523 21 21 21H3C2.44772 21 2 20.5523 2 20V7.00391L4 3H20L22 7ZM4 19H20V9H4V19ZM4.2373 7H19.7637L18.7637 5H5.23633L4.2373 7Z" fill="black"/>
</svg>
