<svg width="24" height="24" viewBox="0 0 24 24" fill="none" xmlns="http://www.w3.org/2000/svg">
<path d="M8.00195 14C9.5204 14 10.8965 14.6172 11.8906 15.6113L10.4766 17.0254C9.84211 16.391 8.96867 16 8.00195 16C7.03521 16 6.16181 16.391 5.52734 17.0254L4.1123 15.6113C5.10651 14.6171 6.48345 14 8.00195 14Z" fill="black"/>
<path d="M18.5 15H13.5V13H18.5V15Z" fill="black"/>
<path fill-rule="evenodd" clip-rule="evenodd" d="M8 7C9.65685 7 11 8.34315 11 10C11 11.6569 9.65685 13 8 13C6.34315 13 5 11.6569 5 10C5 8.34315 6.34315 7 8 7ZM8 9C7.44772 9 7 9.44772 7 10C7 10.5523 7.44772 11 8 11C8.55228 11 9 10.5523 9 10C9 9.44772 8.55228 9 8 9Z" fill="black"/>
<path d="M18.5 11H13.5V9H18.5V11Z" fill="black"/>
<path fill-rule="evenodd" clip-rule="evenodd" d="M22 4C22.5523 4 23 4.44772 23 5V19C23 19.5523 22.5523 20 22 20H2C1.44772 20 1 19.5523 1 19V5C1 4.44772 1.44772 4 2 4H22ZM3 18H21V6H3V18Z" fill="black"/>
</svg>
