<svg width="24" height="24" viewBox="0 0 24 24" fill="none" xmlns="http://www.w3.org/2000/svg">
<path fill-rule="evenodd" clip-rule="evenodd" d="M17 2C17.5523 2 18 2.44772 18 3V15H22V19C22 20.6569 20.6569 22 19 22H5C3.34315 22 2 20.6569 2 19V3C2 2.44772 2.44772 2 3 2H17ZM18 19C18 19.5523 18.4477 20 19 20C19.5523 20 20 19.5523 20 19V17H18V19ZM6 16.5V18.5H10V16.5H6ZM6 13V15H14V13H6ZM8.03516 7.53516H6V9.53516H8.03516V11.5713H10.0352V9.53516H12V7.53516H10.0352V5.5H8.03516V7.53516Z" fill="black"/>
</svg>
