<svg width="24" height="24" viewBox="0 0 24 24" fill="none" xmlns="http://www.w3.org/2000/svg">
<path fill-rule="evenodd" clip-rule="evenodd" d="M21 17.1709C21.351 17.295 21.672 17.4825 21.9492 17.7197L22.9639 17.1338L23.9639 18.8662L22.9502 19.4512C22.983 19.6291 23 19.8127 23 20C23 20.1873 22.983 20.3709 22.9502 20.5488L23.9639 21.1338L22.9639 22.8662L21.9492 22.2803C21.672 22.5175 21.351 22.705 21 22.8291V24H19V22.8291C18.649 22.705 18.328 22.5175 18.0508 22.2803L17.0361 22.8662L16.0361 21.1338L17.0498 20.5488C17.017 20.3709 17 20.1873 17 20C17 19.8127 17.017 19.6291 17.0498 19.4512L16.0361 18.8662L17.0361 17.1338L18.0508 17.7197C18.328 17.4825 18.649 17.295 19 17.1709V16H21V17.1709ZM20 19C19.4477 19 19 19.4477 19 20C19 20.5523 19.4477 21 20 21C20.5523 21 21 20.5523 21 20C21 19.4477 20.5523 19 20 19Z" fill="black"/>
<path fill-rule="evenodd" clip-rule="evenodd" d="M21 2C21.5523 2 22 2.44772 22 3V9C22 10.0143 21.6223 10.9404 21 11.6455V14.084C20.6747 14.0294 20.3408 14 20 14C16.6863 14 14 16.6863 14 20C14 20.7014 14.1216 21.3743 14.3428 22H4C3.44772 22 3 21.5523 3 21V11.6455C2.37773 10.9404 2 10.0143 2 9V3C2 2.44772 2.44772 2 3 2H21ZM4 9C4 10.1046 4.89543 11 6 11C7.10457 11 8 10.1046 8 9C8 8.44772 8.44772 8 9 8C9.55228 8 10 8.44772 10 9C10 10.1046 10.8954 11 12 11C13.1046 11 14 10.1046 14 9C14 8.44772 14.4477 8 15 8C15.5523 8 16 8.44772 16 9C16 10.1046 16.8954 11 18 11C19.1046 11 20 10.1046 20 9V4H4V9Z" fill="black"/>
</svg>
