<svg width="24" height="24" viewBox="0 0 24 24" fill="none" xmlns="http://www.w3.org/2000/svg">
<path d="M8 9C8.55228 9 9 9.44772 9 10C9 10.5523 8.55228 11 8 11C7.44775 11 7 10.5523 7 10C7 9.44775 7.44775 9.00004 8 9Z" fill="black"/>
<path fill-rule="evenodd" clip-rule="evenodd" d="M22 4C22.5523 4 23 4.44772 23 5V19C23 19.5523 22.5523 20 22 20H2C1.44772 20 1 19.5523 1 19V5C1 4.44772 1.44772 4 2 4H22ZM8.00195 14C6.48352 14 5.10745 14.6172 4.11328 15.6113L5.52734 17.0254C6.16178 16.391 7.03525 16 8.00195 16C8.9687 16 9.8421 16.391 10.4766 17.0254L11.8916 15.6113C10.8974 14.6171 9.52046 14 8.00195 14ZM13.5 13V15H18.5V13H13.5ZM8 7C6.34318 7.00004 5 8.34318 5 10C5 11.6569 6.34318 13 8 13C9.65685 13 11 11.6569 11 10C11 8.34315 9.65685 7 8 7ZM13.5 9V11H18.5V9H13.5Z" fill="black"/>
</svg>
