<svg width="24" height="24" viewBox="0 0 24 24" fill="none" xmlns="http://www.w3.org/2000/svg">
<path fill-rule="evenodd" clip-rule="evenodd" d="M12.822 11.001C13.8055 10.6434 14.897 11.1158 15.3103 12.0771C15.7161 13.0218 15.3292 14.1194 14.4206 14.6006L13.154 15.2715H15.8015L19.4372 12.9678C20.4309 12.3387 21.7494 12.6762 22.3191 13.7051C22.8017 14.5775 22.5848 15.6712 21.8054 16.293L16.6238 20.4268C16.4644 20.5538 16.2661 20.624 16.0622 20.624H8.1218L6.60422 22.1377C6.41721 22.324 6.15736 22.4183 5.89426 22.3965C5.6313 22.3746 5.39078 22.2389 5.23703 22.0244L2.26828 17.8789C1.98344 17.4808 2.06883 16.9281 2.46067 16.6348L7.21067 13.082L7.32199 13.0107C7.36049 12.99 7.40089 12.972 7.44211 12.957L12.822 11.001ZM13.4372 12.6924L8.18234 14.6025L4.24387 17.5479L6.08274 20.1133L7.11399 19.0859C7.2826 18.9179 7.51165 18.8233 7.74973 18.8232H15.7478L20.6833 14.8857C20.7761 14.8115 20.8022 14.6812 20.7448 14.5771C20.6768 14.4543 20.5188 14.4141 20.4001 14.4893L16.5437 16.9316C16.3997 17.0227 16.2326 17.0713 16.0622 17.0713H9.53098C9.11764 17.0711 8.75757 16.7889 8.65793 16.3877C8.55844 15.9866 8.7449 15.5695 9.11008 15.376L13.5779 13.0098C13.6581 12.9673 13.6928 12.8705 13.657 12.7871C13.6204 12.7025 13.5239 12.6609 13.4372 12.6924Z" fill="black"/>
<path d="M19.0007 2C19.5527 2.00032 20.0007 2.44791 20.0007 3V11H18.0007V4H6.0007V11H4.0007V3C4.0007 2.44772 4.44842 2 5.0007 2H19.0007Z" fill="black"/>
<path d="M15.0007 8H9.0007V6H15.0007V8Z" fill="black"/>
</svg>
