<svg width="24" height="24" viewBox="0 0 24 24" fill="none" xmlns="http://www.w3.org/2000/svg">
<path d="M18.3867 13.8867L17.1738 15.0996H20C22.1539 15.0996 23.9004 16.8461 23.9004 19C23.9004 21.1539 22.1539 22.9004 20 22.9004H15V21.0996H20C21.1598 21.0996 22.0996 20.1598 22.0996 19C22.0996 17.8402 21.1598 16.9004 20 16.9004H17.1738L18.3867 18.1133L17.1133 19.3867L13.7275 16L17.1133 12.6133L18.3867 13.8867Z" fill="black"/>
<path d="M11.3857 1.47755C11.7468 1.19669 12.2532 1.19669 12.6143 1.47755L20.6143 7.69923C20.8578 7.88869 21 8.18073 21 8.48927V10.4277C20.3679 10.2043 19.697 10.0645 19 10.0186V8.97853L12 3.53322L5 8.97853V18H11.0186C11.0645 18.6971 11.2052 19.3679 11.4287 20H4C3.44783 20 3.00018 19.5522 3 19V8.48927C3 8.18073 3.14222 7.88869 3.38574 7.69923L11.3857 1.47755Z" fill="black"/>
</svg>
