<svg width="24" height="24" viewBox="0 0 24 24" fill="none" xmlns="http://www.w3.org/2000/svg">
<path d="M12.822 11.001C13.8054 10.6434 14.897 11.1158 15.3103 12.0771C15.7161 13.0218 15.3292 14.1194 14.4206 14.6006L13.154 15.2715H15.8015L19.4372 12.9678C20.4309 12.3387 21.7494 12.6762 22.3191 13.7051C22.8017 14.5775 22.5848 15.6712 21.8054 16.293L16.6237 20.4268C16.4644 20.5538 16.2661 20.624 16.0622 20.624H8.12179L6.60421 22.1377C6.41721 22.324 6.15735 22.4183 5.89425 22.3965C5.6313 22.3746 5.39077 22.2389 5.23703 22.0244L2.26828 17.8789C1.98344 17.4808 2.06883 16.9281 2.46066 16.6348L7.21066 13.082L7.32199 13.0107C7.36048 12.99 7.40089 12.972 7.4421 12.957L12.822 11.001Z" fill="black"/>
<path d="M18.9997 2C19.552 2 19.9997 2.44772 19.9997 3V11H17.9997V4H5.99972V11H3.99972V3C3.99972 2.44785 4.44762 2.00021 4.99972 2H18.9997Z" fill="black"/>
<path d="M14.9997 8H8.99972V6H14.9997V8Z" fill="black"/>
</svg>
