<svg width="24" height="24" viewBox="0 0 24 24" fill="none" xmlns="http://www.w3.org/2000/svg">
<path fill-rule="evenodd" clip-rule="evenodd" d="M18 13C20.7614 13 23 15.2386 23 18C23 20.7614 20.7614 23 18 23C15.2386 23 13 20.7614 13 18C13 15.2386 15.2386 13 18 13ZM15.292 16.707C15.1047 17.0985 15 17.5371 15 18C15 19.6569 16.3431 21 18 21C18.4629 21 18.9015 20.8953 19.293 20.708L15.292 16.707ZM18 15C17.5371 15 17.0985 15.1047 16.707 15.292L20.708 19.293C20.8953 18.9015 21 18.4629 21 18C21 16.3431 19.6569 15 18 15Z" fill="black"/>
<path fill-rule="evenodd" clip-rule="evenodd" d="M22 7V12.2559C20.8661 11.4648 19.4875 11 18 11C14.134 11 11 14.134 11 18C11 19.0738 11.2427 20.0906 11.6748 21H3C2.44772 21 2 20.5523 2 20V7.00391L4 3H20L22 7ZM6 13H11V11H6V13ZM4.2373 7H19.7637L18.7637 5H5.23535L4.2373 7Z" fill="black"/>
</svg>
