<svg width="14" height="12" viewBox="0 0 14 12" fill="none" xmlns="http://www.w3.org/2000/svg">
    <path
        d="M10.9395 0.0136719C12.2841 0.150289 13.333 1.28632 13.333 2.66699V9.33301C13.333 10.7137 12.2841 11.8497 10.9395 11.9863L10.667 12H2.66699L2.39355 11.9863C1.04909 11.8496 0 10.7136 0 9.33301V2.66699C0 1.28643 1.04909 0.150438 2.39355 0.0136719L2.66699 0H10.667L10.9395 0.0136719ZM2.66699 1.33301C1.93061 1.33301 1.33301 1.93061 1.33301 2.66699V9.33301C1.33301 10.0694 1.93061 10.667 2.66699 10.667H10.667C11.4032 10.6668 12 10.0693 12 9.33301V2.66699C12 1.93072 11.4032 1.33318 10.667 1.33301H2.66699ZM6 2.66602C6.36793 2.66619 6.66584 2.96508 6.66602 3.33301C6.66602 3.70109 6.36804 3.99982 6 4H5.33301V8.66602C5.33301 9.03421 5.03421 9.33301 4.66602 9.33301C4.29812 9.33266 4 9.03399 4 8.66602V4H3.33301C2.96497 3.99983 2.66602 3.70109 2.66602 3.33301C2.66619 2.96508 2.96507 2.66619 3.33301 2.66602H6ZM10 8C10.3678 8.00018 10.6657 8.29823 10.666 8.66602C10.666 9.0341 10.368 9.33283 10 9.33301H8C7.63196 9.33283 7.33301 9.0341 7.33301 8.66602C7.33336 8.29823 7.63218 8.00017 8 8H10ZM10 6C10.3678 6.00018 10.6657 6.29823 10.666 6.66602C10.666 7.0341 10.368 7.33283 10 7.33301H8C7.63196 7.33283 7.33301 7.0341 7.33301 6.66602C7.33336 6.29823 7.63218 6.00017 8 6H10ZM10 4C10.3678 4.00018 10.6657 4.29823 10.666 4.66602C10.666 5.0341 10.368 5.33283 10 5.33301H8C7.63196 5.33283 7.33301 5.0341 7.33301 4.66602C7.33336 4.29823 7.63218 4.00017 8 4H10Z"
        fill="#4E5969" />
</svg>