<svg width="74" height="42" viewBox="0 0 74 42" fill="none" xmlns="http://www.w3.org/2000/svg">
    <rect x="0.5" y="0.5" width="73" height="41" rx="7.5" fill="white" />
    <rect x="0.5" y="0.5" width="73" height="41" rx="7.5" stroke="#E5E6EB" />
    <path
        d="M35 6C35.7013 6 36.3744 6.12067 37 6.3418C37.6256 6.12067 38.2987 6 39 6H43C46.3137 6 49 8.68629 49 12C49 15.3137 46.3137 18 43 18H39C38.2986 18 37.6257 17.8784 37 17.6572C36.3743 17.8784 35.7014 18 35 18H31C27.6863 18 25 15.3137 25 12C25 8.68629 27.6863 6 31 6H35ZM31 8C28.7909 8 27 9.79086 27 12C27 14.2091 28.7909 16 31 16H34.5293C33.5788 14.9384 33 13.5371 33 12C33 10.4629 33.5788 9.0616 34.5293 8H31ZM39.4707 8C40.4212 9.0616 41 10.4629 41 12C41 13.5371 40.4212 14.9384 39.4707 16H43C45.2091 16 47 14.2091 47 12C47 9.79086 45.2091 8 43 8H39.4707ZM37 8.53613C35.8046 9.22781 35 10.5196 35 12C35 13.4802 35.8049 14.7711 37 15.4629C38.1951 14.7711 39 13.4802 39 12C39 10.5196 38.1954 9.22781 37 8.53613Z"
        fill="#009E9E" />
    <path
        d="M22.636 24.604H23.364C25.128 26.452 27.158 27.894 29.454 28.958L28.95 29.854C26.626 28.734 24.652 27.292 23 25.514C21.474 27.208 19.472 28.678 16.994 29.924L16.504 29.042C18.968 27.852 21.012 26.368 22.636 24.604ZM19.094 29.028H26.906V29.994H23.518V32.43H27.564V33.396H23.518V35.986H28.838V36.98H17.176V35.986H22.482V33.396H18.422V32.43H22.482V29.994H19.094V29.028ZM31.792 24.786C32.73 25.514 33.528 26.228 34.172 26.956L33.444 27.67C32.884 26.984 32.1 26.242 31.106 25.444L31.792 24.786ZM39.926 37.148C39.17 37.148 38.344 37.134 37.462 37.12C36.566 37.106 35.852 37.022 35.292 36.868C34.746 36.7 34.256 36.35 33.822 35.846C33.64 35.608 33.458 35.496 33.29 35.496C32.954 35.496 32.408 36.14 31.638 37.428L30.882 36.742C31.624 35.566 32.282 34.852 32.856 34.6V30.344H30.854V29.42H33.794V34.656C33.906 34.74 34.018 34.852 34.13 34.978C34.466 35.384 34.816 35.678 35.208 35.86C35.628 36.056 36.258 36.168 37.07 36.196C37.798 36.21 38.708 36.224 39.786 36.224C40.444 36.224 41.116 36.21 41.802 36.196C42.474 36.182 43.006 36.168 43.37 36.14L43.132 37.148H39.926ZM34.76 26.004H37.014C37.21 25.514 37.406 24.996 37.574 24.464L38.54 24.688C38.386 25.15 38.232 25.584 38.064 26.004H42.978V26.942H37.672C37.252 27.88 36.776 28.72 36.272 29.448H38.526V27.782H39.492V29.448H42.544V30.372H39.492V32.038H43.16V32.99H39.492V35.594H38.526V32.99H34.648V32.038H38.526V30.372H35.292L35.068 29.448C35.628 28.776 36.146 27.936 36.608 26.942H34.76V26.004ZM51.406 26.928C51.77 27.558 52.092 28.244 52.4 29H53.772C54.164 28.3 54.486 27.558 54.766 26.774L55.718 27.11C55.452 27.81 55.158 28.44 54.836 29H57.104V29.966H49.292V29H51.434C51.154 28.384 50.874 27.824 50.58 27.32L51.406 26.928ZM53.254 24.478C53.408 24.87 53.562 25.318 53.716 25.808H56.852V26.732H49.614V25.808H52.694C52.54 25.388 52.372 24.996 52.204 24.646L53.254 24.478ZM46.268 37.274H45.05L44.84 36.294C45.218 36.322 45.582 36.35 45.918 36.35C46.282 36.35 46.478 36.168 46.478 35.804V32.36C45.918 32.584 45.344 32.794 44.77 32.976L44.518 31.968C45.176 31.8 45.834 31.59 46.478 31.338V28.216H44.77V27.25H46.478V24.604H47.514V27.25H48.676V28.216H47.514V30.904C47.906 30.708 48.298 30.512 48.69 30.302V31.324C48.298 31.534 47.906 31.73 47.514 31.912V36.056C47.514 36.868 47.094 37.274 46.268 37.274ZM52.022 30.358L52.988 30.47C52.848 30.848 52.694 31.212 52.526 31.562H57.328V32.542H55.788C55.578 33.578 55.144 34.46 54.486 35.174C55.438 35.622 56.362 36.098 57.244 36.602L56.698 37.414C55.858 36.896 54.892 36.378 53.772 35.846C52.848 36.518 51.378 37.064 49.362 37.456L48.97 36.546C50.594 36.252 51.854 35.86 52.722 35.356C51.868 34.964 50.958 34.586 49.978 34.194C50.356 33.62 50.692 33.074 50.986 32.542H49.11V31.562H51.504C51.7 31.142 51.868 30.75 52.022 30.358ZM54.836 32.542H52.008C51.756 32.976 51.49 33.396 51.21 33.788C52.022 34.096 52.806 34.418 53.562 34.754C54.192 34.166 54.612 33.438 54.836 32.542Z"
        fill="#4E5969" />
</svg>