<svg xmlns="http://www.w3.org/2000/svg" width="24" height="12" viewBox="0 0 24 12" fill="none">
  <path d="M10 0C10.7013 0 11.3744 0.120667 12 0.341797C12.6256 0.120667 13.2987 0 14 0H18C21.3137 0 24 2.68629 24 6C24 9.31371 21.3137 12 18 12H14C13.2986 12 12.6257 11.8784 12 11.6572C11.3743 11.8784 10.7014 12 10 12H6C2.68629 12 0 9.31371 0 6C0 2.68629 2.68629 0 6 0H10ZM6 2C3.79086 2 2 3.79086 2 6C2 8.20914 3.79086 10 6 10H9.5293C8.57882 8.9384 8 7.53707 8 6C8 4.46293 8.57882 3.0616 9.5293 2H6ZM14.4707 2C15.4212 3.0616 16 4.46293 16 6C16 7.53707 15.4212 8.9384 14.4707 10H18C20.2091 10 22 8.20914 22 6C22 3.79086 20.2091 2 18 2H14.4707ZM12 2.53613C10.8046 3.22781 10 4.51962 10 6C10 7.48021 10.8049 8.77115 12 9.46289C13.1951 8.77115 14 7.48021 14 6C14 4.51962 13.1954 3.22781 12 2.53613Z" fill="#C9CDD4"/>
  <path d="M12 0.339844C14.3303 1.16355 16 3.38566 16 5.99805C16 8.61044 14.3303 10.8325 12 11.6562C9.66968 10.8325 8 8.61044 8 5.99805C8.00001 3.38566 9.66968 1.16355 12 0.339844ZM12 2.53418C10.8046 3.22586 10 4.51767 10 5.99805C10 7.47825 10.8049 8.7692 12 9.46094C13.1951 8.7692 14 7.47825 14 5.99805C14 4.51767 13.1954 3.22586 12 2.53418Z" fill="#009E9E"/>
</svg>