<svg xmlns="http://www.w3.org/2000/svg" width="24" height="12" viewBox="0 0 24 12" fill="none">
  <path d="M18 0C21.3137 0 24 2.68629 24 6C24 9.31371 21.3137 12 18 12H14C10.6863 12 8 9.31371 8 6C8 2.68629 10.6863 0 14 0H18ZM14 2C11.7909 2 10 3.79086 10 6C10 8.20914 11.7909 10 14 10H18C20.2091 10 22 8.20914 22 6C22 3.79086 20.2091 2 18 2H14Z" fill="#C9CDD4"/>
  <path d="M10 0C10.6996 0 11.3708 0.120736 11.9951 0.34082C11.9967 0.340276 11.9985 0.340387 12 0.339844C13.7698 0.965416 15.157 2.39819 15.7227 4.19531C15.729 4.21544 15.7351 4.23564 15.7412 4.25586C15.7591 4.31474 15.7759 4.37397 15.792 4.43359C15.8013 4.46802 15.8106 4.50244 15.8193 4.53711C15.8865 4.80551 15.9352 5.08093 15.9648 5.3623C15.9658 5.37177 15.9678 5.38114 15.9688 5.39062C15.9769 5.47185 15.9824 5.55359 15.9873 5.63574C15.9889 5.66273 15.9909 5.68971 15.9922 5.7168C15.9965 5.81003 16 5.90375 16 5.99805C16 6.09031 15.9973 6.18219 15.9932 6.27344C15.9916 6.30772 15.9884 6.34184 15.9863 6.37598C15.9824 6.43877 15.9775 6.50123 15.9717 6.56348C15.969 6.59249 15.967 6.6215 15.9639 6.65039C15.9581 6.70336 15.9514 6.75605 15.9443 6.80859C15.9388 6.84942 15.9331 6.8901 15.9268 6.93066C15.9125 7.02181 15.8972 7.11241 15.8789 7.20215C15.8506 7.34147 15.8161 7.47863 15.7783 7.61426C15.7723 7.63581 15.766 7.65726 15.7598 7.67871C15.7443 7.73172 15.7287 7.78453 15.7119 7.83691C15.7045 7.86006 15.6972 7.88323 15.6895 7.90625C15.6339 8.07209 15.5712 8.23453 15.502 8.39355C15.4809 8.44182 15.4588 8.48952 15.4365 8.53711C15.4141 8.58505 15.3908 8.63245 15.3672 8.67969C15.3519 8.71018 15.3361 8.74032 15.3203 8.77051C15.195 9.01059 15.0549 9.24129 14.8994 9.46094C14.886 9.47981 14.873 9.49887 14.8594 9.51758C14.699 9.73871 14.5233 9.94758 14.335 10.1445C14.3138 10.1667 14.293 10.1891 14.2715 10.2109C14.2369 10.246 14.2015 10.2802 14.166 10.3145C14.1473 10.3325 14.1283 10.3503 14.1094 10.3682C13.0355 11.3788 11.591 12 10 12H6C2.68629 12 0 9.31371 0 6C0 2.68629 2.68629 0 6 0H10ZM6 2C3.79086 2 2 3.79086 2 6C2 8.20914 3.79086 10 6 10H9.53125C8.57963 8.93825 8 7.53612 8 5.99805C8.00004 4.46195 8.57787 3.06125 9.52734 2H6ZM11.998 2.53516C10.8037 3.22707 10.0001 4.51847 10 5.99805C10 7.47823 10.8049 8.76919 12 9.46094C13.0426 8.85747 13.7876 7.79801 13.9609 6.55469C13.9623 6.54466 13.9626 6.53447 13.9639 6.52441C13.9865 6.35215 14 6.17653 14 5.99805C14 5.91008 13.9958 5.82287 13.9902 5.73633C13.9836 5.63397 13.9732 5.53273 13.959 5.43262C13.9363 5.27243 13.9044 5.1154 13.8633 4.96191C13.586 3.92735 12.9044 3.05894 11.998 2.53516Z" fill="#009E9E"/>
</svg>