<svg width="74" height="42" viewBox="0 0 74 42" fill="none" xmlns="http://www.w3.org/2000/svg">
    <rect x="1" y="1" width="72" height="40" rx="7" fill="white" />
    <rect x="1" y="1" width="72" height="40" rx="7" stroke="#009E9E" stroke-width="2" />
    <path
        d="M43 6C46.3137 6 49 8.68629 49 12C49 15.3137 46.3137 18 43 18H39C35.6863 18 33 15.3137 33 12C33 8.68629 35.6863 6 39 6H43ZM39 8C36.7909 8 35 9.79086 35 12C35 14.2091 36.7909 16 39 16H43C45.2091 16 47 14.2091 47 12C47 9.79086 45.2091 8 43 8H39Z"
        fill="#C9CDD4" />
    <path
        d="M35 6C35.6996 6 36.3708 6.12074 36.9951 6.34082C36.9967 6.34028 36.9985 6.34039 37 6.33984C38.7698 6.96542 40.157 8.39819 40.7227 10.1953C40.729 10.2154 40.7351 10.2356 40.7412 10.2559C40.7591 10.3147 40.7759 10.374 40.792 10.4336C40.8013 10.468 40.8106 10.5024 40.8193 10.5371C40.8865 10.8055 40.9352 11.0809 40.9648 11.3623C40.9658 11.3718 40.9678 11.3811 40.9688 11.3906C40.9769 11.4719 40.9824 11.5536 40.9873 11.6357C40.9889 11.6627 40.9909 11.6897 40.9922 11.7168C40.9965 11.81 41 11.9038 41 11.998C41 12.0903 40.9973 12.1822 40.9932 12.2734C40.9916 12.3077 40.9884 12.3418 40.9863 12.376C40.9824 12.4388 40.9775 12.5012 40.9717 12.5635C40.969 12.5925 40.967 12.6215 40.9639 12.6504C40.9581 12.7034 40.9514 12.756 40.9443 12.8086C40.9388 12.8494 40.9331 12.8901 40.9268 12.9307C40.9125 13.0218 40.8972 13.1124 40.8789 13.2021C40.8506 13.3415 40.8161 13.4786 40.7783 13.6143C40.7723 13.6358 40.766 13.6573 40.7598 13.6787C40.7443 13.7317 40.7287 13.7845 40.7119 13.8369C40.7045 13.8601 40.6972 13.8832 40.6895 13.9062C40.6339 14.0721 40.5712 14.2345 40.502 14.3936C40.4809 14.4418 40.4588 14.4895 40.4365 14.5371C40.4141 14.585 40.3908 14.6324 40.3672 14.6797C40.3519 14.7102 40.3361 14.7403 40.3203 14.7705C40.195 15.0106 40.0549 15.2413 39.8994 15.4609C39.886 15.4798 39.873 15.4989 39.8594 15.5176C39.699 15.7387 39.5233 15.9476 39.335 16.1445C39.3138 16.1667 39.293 16.1891 39.2715 16.2109C39.2369 16.246 39.2015 16.2802 39.166 16.3145C39.1473 16.3325 39.1283 16.3503 39.1094 16.3682C38.0355 17.3788 36.591 18 35 18H31C27.6863 18 25 15.3137 25 12C25 8.68629 27.6863 6 31 6H35ZM31 8C28.7909 8 27 9.79086 27 12C27 14.2091 28.7909 16 31 16H34.5312C33.5796 14.9382 33 13.5361 33 11.998C33 10.4619 33.5779 9.06125 34.5273 8H31ZM36.998 8.53516C35.8037 9.22707 35.0001 10.5185 35 11.998C35 13.4782 35.8049 14.7692 37 15.4609C38.0426 14.8575 38.7876 13.798 38.9609 12.5547C38.9623 12.5447 38.9626 12.5345 38.9639 12.5244C38.9865 12.3522 39 12.1765 39 11.998C39 11.9101 38.9958 11.8229 38.9902 11.7363C38.9836 11.634 38.9732 11.5327 38.959 11.4326C38.9363 11.2724 38.9044 11.1154 38.8633 10.9619C38.586 9.92735 37.9044 9.05894 36.998 8.53516Z"
        fill="#009E9E" />
    <path
        d="M17.008 26.592H21.25C21.404 25.92 21.53 25.22 21.642 24.506L22.65 24.632C22.538 25.318 22.426 25.976 22.286 26.592H29.23V27.572H22.048C21.74 28.734 21.362 29.798 20.942 30.778H28.11V31.744H24.694V36.014H29.244V36.994H19.038V36.014H23.672V31.744H20.48C19.584 33.452 18.478 34.824 17.162 35.874L16.644 34.95C18.688 33.214 20.144 30.75 21.012 27.572H17.008V26.592ZM31.792 24.786C32.73 25.514 33.528 26.228 34.172 26.956L33.444 27.67C32.884 26.984 32.1 26.242 31.106 25.444L31.792 24.786ZM39.926 37.148C39.17 37.148 38.344 37.134 37.462 37.12C36.566 37.106 35.852 37.022 35.292 36.868C34.746 36.7 34.256 36.35 33.822 35.846C33.64 35.608 33.458 35.496 33.29 35.496C32.954 35.496 32.408 36.14 31.638 37.428L30.882 36.742C31.624 35.566 32.282 34.852 32.856 34.6V30.344H30.854V29.42H33.794V34.656C33.906 34.74 34.018 34.852 34.13 34.978C34.466 35.384 34.816 35.678 35.208 35.86C35.628 36.056 36.258 36.168 37.07 36.196C37.798 36.21 38.708 36.224 39.786 36.224C40.444 36.224 41.116 36.21 41.802 36.196C42.474 36.182 43.006 36.168 43.37 36.14L43.132 37.148H39.926ZM34.76 26.004H37.014C37.21 25.514 37.406 24.996 37.574 24.464L38.54 24.688C38.386 25.15 38.232 25.584 38.064 26.004H42.978V26.942H37.672C37.252 27.88 36.776 28.72 36.272 29.448H38.526V27.782H39.492V29.448H42.544V30.372H39.492V32.038H43.16V32.99H39.492V35.594H38.526V32.99H34.648V32.038H38.526V30.372H35.292L35.068 29.448C35.628 28.776 36.146 27.936 36.608 26.942H34.76V26.004ZM51.406 26.928C51.77 27.558 52.092 28.244 52.4 29H53.772C54.164 28.3 54.486 27.558 54.766 26.774L55.718 27.11C55.452 27.81 55.158 28.44 54.836 29H57.104V29.966H49.292V29H51.434C51.154 28.384 50.874 27.824 50.58 27.32L51.406 26.928ZM53.254 24.478C53.408 24.87 53.562 25.318 53.716 25.808H56.852V26.732H49.614V25.808H52.694C52.54 25.388 52.372 24.996 52.204 24.646L53.254 24.478ZM46.268 37.274H45.05L44.84 36.294C45.218 36.322 45.582 36.35 45.918 36.35C46.282 36.35 46.478 36.168 46.478 35.804V32.36C45.918 32.584 45.344 32.794 44.77 32.976L44.518 31.968C45.176 31.8 45.834 31.59 46.478 31.338V28.216H44.77V27.25H46.478V24.604H47.514V27.25H48.676V28.216H47.514V30.904C47.906 30.708 48.298 30.512 48.69 30.302V31.324C48.298 31.534 47.906 31.73 47.514 31.912V36.056C47.514 36.868 47.094 37.274 46.268 37.274ZM52.022 30.358L52.988 30.47C52.848 30.848 52.694 31.212 52.526 31.562H57.328V32.542H55.788C55.578 33.578 55.144 34.46 54.486 35.174C55.438 35.622 56.362 36.098 57.244 36.602L56.698 37.414C55.858 36.896 54.892 36.378 53.772 35.846C52.848 36.518 51.378 37.064 49.362 37.456L48.97 36.546C50.594 36.252 51.854 35.86 52.722 35.356C51.868 34.964 50.958 34.586 49.978 34.194C50.356 33.62 50.692 33.074 50.986 32.542H49.11V31.562H51.504C51.7 31.142 51.868 30.75 52.022 30.358ZM54.836 32.542H52.008C51.756 32.976 51.49 33.396 51.21 33.788C52.022 34.096 52.806 34.418 53.562 34.754C54.192 34.166 54.612 33.438 54.836 32.542Z"
        fill="#4E5969" />
</svg>