<svg width="16" height="16" viewBox="0 0 16 16" fill="none" xmlns="http://www.w3.org/2000/svg">
    <path
        d="M3.33333 14C2.96667 14 2.65289 13.8696 2.392 13.6087C2.13111 13.3478 2.00044 13.0338 2 12.6667V3.33333C2 2.96667 2.13067 2.65289 2.392 2.392C2.65333 2.13111 2.96711 2.00044 3.33333 2H6C6.36667 2 6.68067 2.13067 6.942 2.392C7.20333 2.65333 7.33378 2.96711 7.33333 3.33333V4C7.33333 4.18889 7.26933 4.34733 7.14133 4.47533C7.01333 4.60333 6.85511 4.66711 6.66667 4.66667C6.47822 4.66622 6.32 4.60222 6.192 4.47467C6.064 4.34711 6 4.18889 6 4V3.33333H3.33333V12.6667H6V12C6 11.8111 6.064 11.6529 6.192 11.5253C6.32 11.3978 6.47822 11.3338 6.66667 11.3333C6.85511 11.3329 7.01356 11.3969 7.142 11.5253C7.27044 11.6538 7.33422 11.812 7.33333 12V12.6667C7.33333 13.0333 7.20289 13.3473 6.942 13.6087C6.68111 13.87 6.36711 14.0004 6 14H3.33333ZM10 14C9.63333 14 9.31956 13.8696 9.05867 13.6087C8.79778 13.3478 8.66711 13.0338 8.66667 12.6667V12C8.66667 11.8111 8.73067 11.6529 8.85867 11.5253C8.98667 11.3978 9.14489 11.3338 9.33333 11.3333C9.52178 11.3329 9.68022 11.3969 9.80867 11.5253C9.93711 11.6538 10.0009 11.812 10 12V12.6667H12.6667V3.33333H10V4C10 4.18889 9.936 4.34733 9.808 4.47533C9.68 4.60333 9.52178 4.66711 9.33333 4.66667C9.14489 4.66622 8.98667 4.60222 8.85867 4.47467C8.73067 4.34711 8.66667 4.18889 8.66667 4V3.33333C8.66667 2.96667 8.79733 2.65289 9.05867 2.392C9.32 2.13111 9.63378 2.00044 10 2H12.6667C13.0333 2 13.3473 2.13067 13.6087 2.392C13.87 2.65333 14.0004 2.96711 14 3.33333V12.6667C14 13.0333 13.8696 13.3473 13.6087 13.6087C13.3478 13.87 13.0338 14.0004 12.6667 14H10ZM7.33333 8.66667H6.66667C6.47778 8.66667 6.31956 8.60267 6.192 8.47467C6.06444 8.34667 6.00044 8.18844 6 8C5.99956 7.81156 6.06356 7.65333 6.192 7.52533C6.32044 7.39733 6.47867 7.33333 6.66667 7.33333H7.33333V6.66667C7.33333 6.47778 7.39733 6.31956 7.52533 6.192C7.65333 6.06444 7.81156 6.00044 8 6C8.18844 5.99956 8.34689 6.06356 8.47533 6.192C8.60378 6.32044 8.66756 6.47867 8.66667 6.66667V7.33333H9.33333C9.52222 7.33333 9.68067 7.39733 9.80867 7.52533C9.93667 7.65333 10.0004 7.81156 10 8C9.99956 8.18844 9.93555 8.34689 9.808 8.47533C9.68044 8.60378 9.52222 8.66756 9.33333 8.66667H8.66667V9.33333C8.66667 9.52222 8.60267 9.68067 8.47467 9.80867C8.34667 9.93667 8.18844 10.0004 8 10C7.81156 9.99956 7.65333 9.93555 7.52533 9.808C7.39733 9.68044 7.33333 9.52222 7.33333 9.33333V8.66667Z"
        fill="#4E5969" />
</svg>