<svg width="74" height="42" viewBox="0 0 74 42" fill="none" xmlns="http://www.w3.org/2000/svg">
    <rect x="0.5" y="0.5" width="73" height="41" rx="7.5" fill="white" />
    <rect x="0.5" y="0.5" width="73" height="41" rx="7.5" stroke="#75D5D6" />
    <path
        d="M35 6C38.3137 6 41 8.68629 41 12C41 15.3137 38.3137 18 35 18H31C27.6863 18 25 15.3137 25 12C25 8.68629 27.6863 6 31 6H35ZM31 8C28.7909 8 27 9.79086 27 12C27 14.2091 28.7909 16 31 16H35C37.2091 16 39 14.2091 39 12C39 9.79086 37.2091 8 35 8H31Z"
        fill="#C9CDD4" />
    <path
        d="M43 6C46.3137 6 49 8.68629 49 12C49 15.3137 46.3137 18 43 18H39C38.2989 18 37.6264 17.8782 37.001 17.6572L37 17.6582C36.9908 17.6549 36.9819 17.6508 36.9727 17.6475C36.9396 17.6356 36.9069 17.6228 36.874 17.6104C36.8226 17.5908 36.7715 17.5707 36.7207 17.5498C36.6815 17.5337 36.6423 17.5179 36.6035 17.501C36.5674 17.4852 36.5318 17.4686 36.4961 17.4521C36.4546 17.4331 36.413 17.4145 36.3721 17.3945C36.222 17.3213 36.0753 17.2423 35.9326 17.1572C35.8891 17.1313 35.8465 17.1041 35.8037 17.0771C35.7766 17.06 35.7495 17.0429 35.7227 17.0254C35.6845 17.0005 35.6469 16.975 35.6094 16.9492C35.4703 16.8538 35.3353 16.753 35.2051 16.6465C35.1714 16.619 35.1385 16.5907 35.1055 16.5625C35.0749 16.5364 35.0446 16.5101 35.0146 16.4834C34.9807 16.4532 34.9473 16.4225 34.9141 16.3916C34.8733 16.3536 34.8327 16.3154 34.793 16.2764C34.7813 16.2649 34.7694 16.2537 34.7578 16.2422L34.71 16.1943C34.6715 16.155 34.6341 16.1146 34.5967 16.0742C34.5716 16.0472 34.547 16.0197 34.5225 15.9922C34.4771 15.9414 34.4323 15.8902 34.3887 15.8379C34.3664 15.8112 34.345 15.7839 34.3232 15.7568C34.2831 15.707 34.2436 15.6566 34.2051 15.6055C34.1933 15.5899 34.1815 15.5743 34.1699 15.5586C34.1343 15.5104 34.0996 15.4614 34.0654 15.4121C33.9842 15.2949 33.9069 15.1748 33.834 15.0518C33.8011 14.9962 33.7684 14.9405 33.7373 14.8838C33.7234 14.8584 33.7108 14.8322 33.6973 14.8066C33.67 14.7552 33.643 14.7037 33.6172 14.6514C33.5996 14.6157 33.5823 14.58 33.5654 14.5439C33.5394 14.4883 33.5137 14.4325 33.4893 14.376C33.4818 14.3587 33.4741 14.3416 33.4668 14.3242C33.4332 14.2444 33.4013 14.1636 33.3711 14.082C33.3614 14.0559 33.3531 14.0292 33.3438 14.0029C33.3223 13.9424 33.3008 13.8817 33.2812 13.8203C33.2697 13.784 33.2589 13.7475 33.248 13.7109C33.2329 13.6598 33.2189 13.6083 33.2051 13.5566C33.1952 13.5199 33.1849 13.4833 33.1758 13.4463C33.1336 13.2759 33.0986 13.1026 33.0713 12.9268C33.0688 12.9108 33.0668 12.8949 33.0645 12.8789C33.053 12.8009 33.0426 12.7225 33.0342 12.6436C33.0317 12.6198 33.0296 12.5961 33.0273 12.5723C33.021 12.5049 33.0158 12.4372 33.0117 12.3691C33.0098 12.338 33.0083 12.3067 33.0068 12.2754C33.0027 12.1841 33 12.0923 33 12C33 11.9057 33.0025 11.812 33.0068 11.7188C33.0082 11.6891 33.0099 11.6595 33.0117 11.6299C33.0166 11.5497 33.0232 11.4699 33.0312 11.3906C33.0324 11.3789 33.0329 11.3672 33.0342 11.3555C33.0426 11.2765 33.053 11.1981 33.0645 11.1201C33.0668 11.1042 33.0688 11.0882 33.0713 11.0723C33.0986 10.8964 33.1336 10.7232 33.1758 10.5527C33.1876 10.5049 33.2009 10.4575 33.2139 10.4102C33.2272 10.3617 33.2414 10.3136 33.2559 10.2656C33.2646 10.2367 33.2721 10.2074 33.2812 10.1787C33.3008 10.1173 33.3223 10.0566 33.3438 9.99609C33.3538 9.96773 33.3636 9.9393 33.374 9.91113C33.4036 9.83164 33.434 9.75267 33.4668 9.6748C33.4741 9.65746 33.4818 9.6403 33.4893 9.62305C33.5162 9.56064 33.5442 9.49879 33.5732 9.4375C33.5794 9.42447 33.5855 9.41142 33.5918 9.39844L33.6514 9.2793C33.6716 9.23957 33.6928 9.20035 33.7139 9.16113C33.722 9.14601 33.729 9.13028 33.7373 9.11523C33.7749 9.0469 33.8144 8.97977 33.8545 8.91309C33.9213 8.80193 33.9918 8.69323 34.0654 8.58691C34.0996 8.53759 34.1343 8.48866 34.1699 8.44043C34.1871 8.41722 34.2042 8.39405 34.2217 8.37109C34.2551 8.32717 34.2896 8.28417 34.3242 8.24121C34.3457 8.21451 34.3667 8.18745 34.3887 8.16113C34.4426 8.09642 34.4981 8.03307 34.5547 7.9707C34.5686 7.95534 34.5826 7.94002 34.5967 7.9248C34.6447 7.87294 34.6933 7.82163 34.7432 7.77148C34.7595 7.75499 34.7764 7.73896 34.793 7.72266C34.8327 7.68358 34.8733 7.64538 34.9141 7.60742C34.9473 7.5765 34.9807 7.5458 35.0146 7.51562C35.0446 7.48895 35.0749 7.4626 35.1055 7.43652C35.1385 7.40832 35.1714 7.38003 35.2051 7.35254C35.3353 7.24606 35.4703 7.14521 35.6094 7.0498C35.6469 7.02407 35.6845 6.99853 35.7227 6.97363C35.7495 6.95611 35.7766 6.93898 35.8037 6.92188C35.8465 6.8949 35.8891 6.86771 35.9326 6.8418C36.0753 6.75676 36.222 6.6777 36.3721 6.60449C36.4862 6.54882 36.6027 6.49772 36.7207 6.44922C36.7715 6.42835 36.8226 6.40818 36.874 6.38867C36.9068 6.37623 36.9396 6.36344 36.9727 6.35156C36.9818 6.34829 36.9909 6.34502 37 6.3418H37.001C37.6263 6.12086 38.299 6 39 6H43ZM39.4707 8C40.4213 9.06152 41 10.4629 41 12C41 13.5371 40.4213 14.9385 39.4707 16H43C45.2091 16 47 14.2091 47 12C47 9.79086 45.2091 8 43 8H39.4707ZM37 8.53613C36.7845 8.66083 36.5812 8.80452 36.3936 8.96582C36.3797 8.9777 36.3662 8.98989 36.3525 9.00195C36.1707 9.16254 36.0036 9.33944 35.8535 9.53027C35.8465 9.53923 35.84 9.5486 35.833 9.55762C35.6331 9.81623 35.4644 10.1 35.332 10.4033C35.2551 10.5797 35.1907 10.7626 35.1396 10.9512C35.0967 11.1093 35.0624 11.2712 35.0391 11.4365C35.0369 11.4517 35.0362 11.4672 35.0342 11.4824C35.0123 11.6519 35 11.8246 35 12C35 12.1764 35.012 12.3501 35.0342 12.5205C35.0358 12.5332 35.0373 12.5459 35.0391 12.5586C35.0624 12.7253 35.0964 12.8885 35.1396 13.0479C35.1438 13.0632 35.148 13.0785 35.1523 13.0938C35.4389 14.1024 36.1112 14.9484 37 15.4629C38.1951 14.7711 39 13.4802 39 12C39 10.5196 38.1954 9.22781 37 8.53613Z"
        fill="#009E9E" />
    <path
        d="M27.928 30.666V37.414H26.934V36.644H21.152V37.414H20.144V31.73C19.262 32.836 18.226 33.76 17.05 34.502L16.518 33.55C18.73 32.122 20.326 30.12 21.306 27.558H16.98V26.592H21.642C21.852 25.92 22.02 25.22 22.16 24.492L23.182 24.618C23.042 25.304 22.888 25.962 22.706 26.592H29.23V27.558H22.398C21.978 28.706 21.488 29.742 20.9 30.666H27.928ZM21.152 35.678H26.934V31.632H21.152V35.678ZM31.792 24.786C32.73 25.514 33.528 26.228 34.172 26.956L33.444 27.67C32.884 26.984 32.1 26.242 31.106 25.444L31.792 24.786ZM39.926 37.148C39.17 37.148 38.344 37.134 37.462 37.12C36.566 37.106 35.852 37.022 35.292 36.868C34.746 36.7 34.256 36.35 33.822 35.846C33.64 35.608 33.458 35.496 33.29 35.496C32.954 35.496 32.408 36.14 31.638 37.428L30.882 36.742C31.624 35.566 32.282 34.852 32.856 34.6V30.344H30.854V29.42H33.794V34.656C33.906 34.74 34.018 34.852 34.13 34.978C34.466 35.384 34.816 35.678 35.208 35.86C35.628 36.056 36.258 36.168 37.07 36.196C37.798 36.21 38.708 36.224 39.786 36.224C40.444 36.224 41.116 36.21 41.802 36.196C42.474 36.182 43.006 36.168 43.37 36.14L43.132 37.148H39.926ZM34.76 26.004H37.014C37.21 25.514 37.406 24.996 37.574 24.464L38.54 24.688C38.386 25.15 38.232 25.584 38.064 26.004H42.978V26.942H37.672C37.252 27.88 36.776 28.72 36.272 29.448H38.526V27.782H39.492V29.448H42.544V30.372H39.492V32.038H43.16V32.99H39.492V35.594H38.526V32.99H34.648V32.038H38.526V30.372H35.292L35.068 29.448C35.628 28.776 36.146 27.936 36.608 26.942H34.76V26.004ZM51.406 26.928C51.77 27.558 52.092 28.244 52.4 29H53.772C54.164 28.3 54.486 27.558 54.766 26.774L55.718 27.11C55.452 27.81 55.158 28.44 54.836 29H57.104V29.966H49.292V29H51.434C51.154 28.384 50.874 27.824 50.58 27.32L51.406 26.928ZM53.254 24.478C53.408 24.87 53.562 25.318 53.716 25.808H56.852V26.732H49.614V25.808H52.694C52.54 25.388 52.372 24.996 52.204 24.646L53.254 24.478ZM46.268 37.274H45.05L44.84 36.294C45.218 36.322 45.582 36.35 45.918 36.35C46.282 36.35 46.478 36.168 46.478 35.804V32.36C45.918 32.584 45.344 32.794 44.77 32.976L44.518 31.968C45.176 31.8 45.834 31.59 46.478 31.338V28.216H44.77V27.25H46.478V24.604H47.514V27.25H48.676V28.216H47.514V30.904C47.906 30.708 48.298 30.512 48.69 30.302V31.324C48.298 31.534 47.906 31.73 47.514 31.912V36.056C47.514 36.868 47.094 37.274 46.268 37.274ZM52.022 30.358L52.988 30.47C52.848 30.848 52.694 31.212 52.526 31.562H57.328V32.542H55.788C55.578 33.578 55.144 34.46 54.486 35.174C55.438 35.622 56.362 36.098 57.244 36.602L56.698 37.414C55.858 36.896 54.892 36.378 53.772 35.846C52.848 36.518 51.378 37.064 49.362 37.456L48.97 36.546C50.594 36.252 51.854 35.86 52.722 35.356C51.868 34.964 50.958 34.586 49.978 34.194C50.356 33.62 50.692 33.074 50.986 32.542H49.11V31.562H51.504C51.7 31.142 51.868 30.75 52.022 30.358ZM54.836 32.542H52.008C51.756 32.976 51.49 33.396 51.21 33.788C52.022 34.096 52.806 34.418 53.562 34.754C54.192 34.166 54.612 33.438 54.836 32.542Z"
        fill="#4E5969" />
</svg>