<svg xmlns="http://www.w3.org/2000/svg" width="24" height="12" viewBox="0 0 24 12" fill="none">
  <path d="M10 0C13.3137 0 16 2.68629 16 6C16 9.31371 13.3137 12 10 12H6C2.68629 12 0 9.31371 0 6C0 2.68629 2.68629 0 6 0H10ZM6 2C3.79086 2 2 3.79086 2 6C2 8.20914 3.79086 10 6 10H10C12.2091 10 14 8.20914 14 6C14 3.79086 12.2091 2 10 2H6Z" fill="#C9CDD4"/>
  <path d="M18 0C21.3137 0 24 2.68629 24 6C24 9.31371 21.3137 12 18 12H14C13.2989 12 12.6264 11.8782 12.001 11.6572L12 11.6582C11.9908 11.6549 11.9819 11.6508 11.9727 11.6475C11.9396 11.6356 11.9069 11.6228 11.874 11.6104C11.8226 11.5908 11.7715 11.5707 11.7207 11.5498C11.6815 11.5337 11.6423 11.5179 11.6035 11.501C11.5674 11.4852 11.5318 11.4686 11.4961 11.4521C11.4546 11.4331 11.413 11.4145 11.3721 11.3945C11.222 11.3213 11.0753 11.2423 10.9326 11.1572C10.8891 11.1313 10.8465 11.1041 10.8037 11.0771C10.7766 11.06 10.7495 11.0429 10.7227 11.0254C10.6845 11.0005 10.6469 10.975 10.6094 10.9492C10.4703 10.8538 10.3353 10.753 10.2051 10.6465C10.1714 10.619 10.1385 10.5907 10.1055 10.5625C10.0749 10.5364 10.0446 10.5101 10.0146 10.4834C9.98072 10.4532 9.94729 10.4225 9.91406 10.3916C9.87326 10.3536 9.8327 10.3154 9.79297 10.2764C9.78132 10.2649 9.76937 10.2537 9.75781 10.2422L9.70996 10.1943C9.67148 10.155 9.63408 10.1146 9.59668 10.0742C9.57163 10.0472 9.54702 10.0197 9.52246 9.99219C9.47714 9.9414 9.43227 9.89021 9.38867 9.83789C9.36645 9.81121 9.34501 9.7839 9.32324 9.75684C9.28313 9.70697 9.24361 9.65663 9.20508 9.60547C9.19333 9.58987 9.18152 9.57431 9.16992 9.55859C9.13431 9.51035 9.09961 9.46144 9.06543 9.41211C8.98422 9.29488 8.90685 9.17485 8.83398 9.05176C8.80109 8.99621 8.76843 8.94047 8.7373 8.88379C8.72336 8.8584 8.71085 8.83225 8.69727 8.80664C8.66999 8.75523 8.64299 8.70365 8.61719 8.65137C8.59961 8.61574 8.58232 8.57996 8.56543 8.54395C8.53935 8.48834 8.51366 8.43249 8.48926 8.37598C8.48181 8.35872 8.47409 8.34156 8.4668 8.32422C8.4332 8.24435 8.40128 8.16361 8.37109 8.08203C8.36142 8.05588 8.35307 8.02925 8.34375 8.00293C8.3223 7.94238 8.30079 7.88174 8.28125 7.82031C8.26971 7.78404 8.25891 7.74751 8.24805 7.71094C8.23287 7.65983 8.21892 7.6083 8.20508 7.55664C8.19524 7.51992 8.18494 7.48328 8.17578 7.44629C8.13359 7.27585 8.09856 7.10259 8.07129 6.92676C8.06882 6.91085 8.06679 6.89486 8.06445 6.87891C8.053 6.80091 8.0426 6.7225 8.03418 6.64355C8.03165 6.61984 8.0296 6.59606 8.02734 6.57227C8.02097 6.50487 8.01585 6.43716 8.01172 6.36914C8.00983 6.33795 8.00825 6.30671 8.00684 6.27539C8.00271 6.1841 8 6.09231 8 6C8 5.90572 8.00253 5.81197 8.00684 5.71875C8.00821 5.68907 8.00992 5.65945 8.01172 5.62988C8.0166 5.54968 8.02325 5.46994 8.03125 5.39062C8.03243 5.37892 8.03293 5.36715 8.03418 5.35547C8.04261 5.27653 8.05299 5.19811 8.06445 5.12012C8.0668 5.10417 8.06882 5.08818 8.07129 5.07227C8.09858 4.89644 8.13357 4.72316 8.17578 4.55273C8.18763 4.5049 8.20088 4.45753 8.21387 4.41016C8.22716 4.36169 8.24139 4.31359 8.25586 4.26562C8.26458 4.2367 8.27211 4.20745 8.28125 4.17871C8.3008 4.11729 8.3223 4.05664 8.34375 3.99609C8.3538 3.96773 8.36356 3.9393 8.37402 3.91113C8.40355 3.83164 8.43403 3.75267 8.4668 3.6748C8.47409 3.65746 8.4818 3.6403 8.48926 3.62305C8.51622 3.56064 8.54425 3.49879 8.57324 3.4375C8.57941 3.42447 8.58554 3.41142 8.5918 3.39844L8.65137 3.2793C8.67162 3.23957 8.69276 3.20035 8.71387 3.16113C8.72201 3.14601 8.72904 3.13028 8.7373 3.11523C8.77485 3.0469 8.81439 2.97977 8.85449 2.91309C8.92132 2.80193 8.99176 2.69323 9.06543 2.58691C9.09962 2.53759 9.13431 2.48866 9.16992 2.44043C9.18706 2.41722 9.20422 2.39405 9.22168 2.37109C9.25509 2.32717 9.28964 2.28417 9.32422 2.24121C9.34571 2.21451 9.36674 2.18745 9.38867 2.16113C9.44261 2.09642 9.49812 2.03307 9.55469 1.9707C9.56862 1.95534 9.58259 1.94002 9.59668 1.9248C9.64471 1.87294 9.69335 1.82163 9.74316 1.77148C9.75955 1.75499 9.77639 1.73896 9.79297 1.72266C9.8327 1.68358 9.87326 1.64538 9.91406 1.60742C9.94729 1.5765 9.98072 1.5458 10.0146 1.51562C10.0446 1.48895 10.0749 1.4626 10.1055 1.43652C10.1385 1.40832 10.1714 1.38003 10.2051 1.35254C10.3353 1.24606 10.4703 1.14521 10.6094 1.0498C10.6469 1.02407 10.6845 0.998534 10.7227 0.973633C10.7495 0.956106 10.7766 0.938982 10.8037 0.921875C10.8465 0.894904 10.8891 0.867709 10.9326 0.841797C11.0753 0.756762 11.222 0.677701 11.3721 0.604492C11.4862 0.548823 11.6027 0.497724 11.7207 0.449219C11.7715 0.428351 11.8226 0.408176 11.874 0.388672C11.9068 0.37623 11.9396 0.363442 11.9727 0.351562C11.9818 0.348293 11.9909 0.345023 12 0.341797H12.001C12.6263 0.120862 13.299 0 14 0H18ZM14.4707 2C15.4213 3.06152 16 4.46289 16 6C16 7.53711 15.4213 8.93849 14.4707 10H18C20.2091 10 22 8.20914 22 6C22 3.79086 20.2091 2 18 2H14.4707ZM12 2.53613C11.7845 2.66083 11.5812 2.80452 11.3936 2.96582C11.3797 2.9777 11.3662 2.98989 11.3525 3.00195C11.1707 3.16254 11.0036 3.33944 10.8535 3.53027C10.8465 3.53923 10.84 3.5486 10.833 3.55762C10.6331 3.81623 10.4644 4.09996 10.332 4.40332C10.2551 4.5797 10.1907 4.76265 10.1396 4.95117C10.0967 5.10934 10.0624 5.2712 10.0391 5.43652C10.0369 5.45174 10.0362 5.46715 10.0342 5.48242C10.0123 5.65188 10 5.82456 10 6C10 6.17645 10.012 6.35013 10.0342 6.52051C10.0358 6.53321 10.0373 6.54593 10.0391 6.55859C10.0624 6.72526 10.0964 6.88846 10.1396 7.04785C10.1438 7.06319 10.148 7.07849 10.1523 7.09375C10.4389 8.10239 11.1112 8.94845 12 9.46289C13.1951 8.77115 14 7.48021 14 6C14 4.51962 13.1954 3.22781 12 2.53613Z" fill="#009E9E"/>
</svg>