<svg width="14" height="15" viewBox="0 0 14 15" fill="none" xmlns="http://www.w3.org/2000/svg">
    <path
        d="M1.5 7.125C1.5 7.36005 1.84576 7.7688 2.64785 8.16982C3.68554 8.68867 5.15758 9 6.75 9C8.3424 9 9.81443 8.68867 10.8521 8.16982C11.6543 7.7688 12 7.36005 12 7.125V5.49652C10.7625 6.26115 8.87048 6.75 6.75 6.75C4.62955 6.75 2.73747 6.26115 1.5 5.49652V7.125ZM12 9.24652C10.7625 10.0112 8.87048 10.5 6.75 10.5C4.62955 10.5 2.73747 10.0112 1.5 9.24652V10.875C1.5 11.1101 1.84576 11.5188 2.64785 11.9198C3.68554 12.4387 5.15758 12.75 6.75 12.75C8.3424 12.75 9.81443 12.4387 10.8521 11.9198C11.6543 11.5188 12 11.1101 12 10.875V9.24652ZM0 10.875V3.375C0 1.51104 3.02208 0 6.75 0C10.478 0 13.5 1.51104 13.5 3.375V10.875C13.5 12.739 10.478 14.25 6.75 14.25C3.02208 14.25 0 12.739 0 10.875ZM6.75 5.25C8.3424 5.25 9.81443 4.93869 10.8521 4.41985C11.6543 4.0188 12 3.61006 12 3.375C12 3.13994 11.6543 2.7312 10.8521 2.33015C9.81443 1.81131 8.3424 1.5 6.75 1.5C5.15758 1.5 3.68554 1.81131 2.64785 2.33015C1.84576 2.7312 1.5 3.13994 1.5 3.375C1.5 3.61006 1.84576 4.0188 2.64785 4.41985C3.68554 4.93869 5.15758 5.25 6.75 5.25Z"
        fill="#4E5969" />
</svg>