<svg width="16" height="16" viewBox="0 0 16 16" fill="none" xmlns="http://www.w3.org/2000/svg">
<path d="M14.1025 2.50488C14.6067 2.55621 15 2.98232 15 3.5V12.5C15 13.0177 14.6067 13.4438 14.1025 13.4951L14 13.5H2C1.48232 13.5 1.05621 13.1067 1.00488 12.6025L1 12.5V3.5C1 2.94772 1.44772 2.5 2 2.5H14L14.1025 2.50488ZM2.33008 12.1699H13.6699V3.83008H2.33008V12.1699ZM4.73047 6.27539C5.50025 6.27548 6.11523 6.48534 6.11523 7.2002C6.11516 7.53014 5.92982 7.88991 5.62988 8.00488V8.02539C6.00488 8.12539 6.29004 8.40539 6.29004 8.90039C6.28982 9.66012 5.64482 10 4.83496 10H3.42969V6.27539H4.73047ZM9.08105 7.01953H8.07129V10H7.17676V7.01953H6.1709V6.27539H9.08105V7.01953ZM11.2393 8.05957L11.6045 8.88477H11.6299C11.5849 8.48979 11.5098 7.95469 11.5098 7.50977V6.27539H12.3594V10H11.4492L10.5293 8.20508L10.165 7.38965H10.1396C10.1796 7.80454 10.2548 8.31473 10.2549 8.76465V10H9.4043V6.27539H10.3145L11.2393 8.05957ZM4.3252 9.31543H4.76953C5.19953 9.31543 5.41992 9.15984 5.41992 8.83984C5.41985 8.53496 5.20446 8.41016 4.76953 8.41016H4.3252V9.31543ZM4.3252 7.75488H4.69531C5.07509 7.75479 5.24512 7.58989 5.24512 7.33496C5.2451 7.07006 5.07008 6.96002 4.69531 6.95996H4.3252V7.75488Z" fill="#4E5969"/>
</svg>
