<svg width="16" height="16" viewBox="0 0 16 16" fill="none" xmlns="http://www.w3.org/2000/svg">
<path d="M13.0049 1C13.3721 1.00002 13.6699 1.29778 13.6699 1.66504V2.33008H14.335C14.7022 2.33008 15 2.62785 15 2.99512C15 3.36237 14.7022 3.66016 14.335 3.66016H13.6699V12.3398H14.335C14.7022 12.3398 15 12.6376 15 13.0049C15 13.3721 14.7022 13.6699 14.335 13.6699H13.6699V14.335C13.6699 14.7022 13.3721 15 13.0049 15C12.6376 15 12.3398 14.7022 12.3398 14.335V13.6699H3.66016V14.335C3.66016 14.7022 3.36237 15 2.99512 15C2.62785 15 2.33008 14.7022 2.33008 14.335V13.6699H1.66504C1.29778 13.6699 1.00002 13.3721 1 13.0049C1 12.6376 1.29777 12.3398 1.66504 12.3398H2.33008V3.66016H1.66504C1.29778 3.66016 1.00002 3.36237 1 2.99512C1 2.62785 1.29777 2.33008 1.66504 2.33008H2.33008V1.66504C2.33008 1.29777 2.62785 1 2.99512 1C3.36237 1.00002 3.66016 1.29778 3.66016 1.66504V2.33008H12.3398V1.66504C12.3398 1.29777 12.6376 1 13.0049 1ZM3.66016 12.3398H12.3398V3.66016H3.66016V12.3398ZM5.5 9C5.94176 9 6.2997 9.35807 6.2998 9.7998C6.2998 10.2416 5.94183 10.5996 5.5 10.5996C5.05817 10.5996 4.7002 10.2416 4.7002 9.7998C4.7003 9.35807 5.05824 9 5.5 9ZM10.6348 9.09961C11.002 9.09961 11.2998 9.39738 11.2998 9.76465C11.2998 10.1319 11.002 10.4297 10.6348 10.4297H7.96484C7.59766 10.4296 7.29983 10.1318 7.2998 9.76465C7.2998 9.39743 7.59765 9.09969 7.96484 9.09961H10.6348ZM5.5 5.40039C5.94176 5.40039 6.2997 5.75846 6.2998 6.2002C6.2998 6.64202 5.94183 7 5.5 7C5.05817 7 4.7002 6.64202 4.7002 6.2002C4.7003 5.75846 5.05824 5.40039 5.5 5.40039ZM10.6348 5.5C11.002 5.5 11.2998 5.79777 11.2998 6.16504C11.2998 6.53229 11.002 6.83008 10.6348 6.83008H7.96484C7.59766 6.82999 7.29983 6.53224 7.2998 6.16504C7.2998 5.79782 7.59765 5.50008 7.96484 5.5H10.6348Z" fill="#4E5969"/>
</svg>
