<svg width="68" height="48" viewBox="0 0 68 48" fill="none" xmlns="http://www.w3.org/2000/svg">
<rect x="0.5" y="0.5" width="67" height="47" rx="3.5" fill="#F2F3F5"/>
<rect x="0.5" y="0.5" width="67" height="47" rx="3.5" stroke="#E5E6EB"/>
<rect x="4" y="6" width="60" height="36" rx="1.71429" fill="white"/>
<g clip-path="url(#clip0_741_2052)">
<path d="M8.71428 7.44C8.71428 6.64471 9.35899 6 10.1543 6H57.6743C58.4696 6 59.1143 6.64471 59.1143 7.44V40.56C59.1143 41.3553 58.4696 42 57.6743 42H10.1543C9.35899 42 8.71428 41.3553 8.71428 40.56V7.44Z" fill="white"/>
<path d="M13.7543 12.4798C13.7543 11.6845 14.399 11.0398 15.1943 11.0398H52.6343C53.4296 11.0398 54.0743 11.6845 54.0743 12.4798V26.1598C54.0743 26.9551 53.4296 27.5998 52.6343 27.5998H15.1943C14.399 27.5998 13.7543 26.9551 13.7543 26.1598V12.4798Z" fill="#A2DFB8" fill-opacity="0.5"/>
<path fill-rule="evenodd" clip-rule="evenodd" d="M15.5543 27.5999H15.1943C15.0981 27.5999 15.0042 27.5905 14.9133 27.5725L14.8434 27.9257C14.9572 27.9482 15.0745 27.9599 15.1943 27.9599H15.5543V27.5999ZM14.3942 27.3574L14.1939 27.6565C13.9978 27.5252 13.829 27.3564 13.6977 27.1603L13.9968 26.96C14.102 27.1171 14.2372 27.2523 14.3942 27.3574ZM13.7543 12.8219H13.3943V12.4799C13.3943 12.3602 13.406 12.2428 13.4286 12.129L13.7817 12.1989C13.7637 12.2898 13.7543 12.3838 13.7543 12.4799V12.8219ZM13.9968 11.6798L13.6977 11.4796C13.829 11.2834 13.9978 11.1146 14.1939 10.9833L14.3942 11.2825C14.2372 11.3876 14.102 11.5228 13.9968 11.6798ZM14.9133 11.0673C15.0042 11.0494 15.0981 11.0399 15.1943 11.0399H15.5543V10.6799H15.1943C15.0745 10.6799 14.9572 10.6917 14.8434 10.7142L14.9133 11.0673ZM52.2743 11.0399V10.6799H52.6343C52.7541 10.6799 52.8714 10.6917 52.9852 10.7142L52.9153 11.0673C52.8244 11.0494 52.7305 11.0399 52.6343 11.0399H52.2743ZM53.4344 11.2825L53.6347 10.9833C53.8308 11.1146 53.9996 11.2834 54.1309 11.4796L53.8318 11.6798C53.7266 11.5228 53.5914 11.3876 53.4344 11.2825ZM54.0743 25.8179H54.4343V26.1599C54.4343 26.2797 54.4226 26.3971 54.4001 26.5108L54.0469 26.441C54.0649 26.3501 54.0743 26.2561 54.0743 26.1599V25.8179ZM53.8318 26.96L54.1309 27.1603C53.9996 27.3564 53.8308 27.5252 53.6347 27.6565L53.4344 27.3574C53.5914 27.2523 53.7266 27.1171 53.8318 26.96ZM16.2743 27.5999V27.9599H16.9943V27.5999H16.2743ZM17.7143 27.5999V27.9599H18.4343V27.5999H17.7143ZM19.1543 27.5999V27.9599H19.8743V27.5999H19.1543ZM20.5943 27.5999V27.9599H21.3143V27.5999H20.5943ZM22.0343 27.5999V27.9599H22.7543V27.5999H22.0343ZM23.4743 27.5999V27.9599H24.1943V27.5999H23.4743ZM24.9143 27.5999V27.9599H25.6343V27.5999H24.9143ZM26.3543 27.5999V27.9599H27.0743V27.5999H26.3543ZM27.7943 27.5999V27.9599H28.5143V27.5999H27.7943ZM29.2343 27.5999V27.9599H29.9543V27.5999H29.2343ZM30.6743 27.5999V27.9599H31.3943V27.5999H30.6743ZM32.1143 27.5999V27.9599H32.8343V27.5999H32.1143ZM33.5543 27.5999V27.9599H34.2743V27.5999H33.5543ZM34.9943 27.5999V27.9599H35.7143V27.5999H34.9943ZM36.4343 27.5999V27.9599H37.1543V27.5999H36.4343ZM37.8743 27.5999V27.9599H38.5943V27.5999H37.8743ZM39.3143 27.5999V27.9599H40.0343V27.5999H39.3143ZM40.7543 27.5999V27.9599H41.4743V27.5999H40.7543ZM42.1943 27.5999V27.9599H42.9143V27.5999H42.1943ZM43.6343 27.5999V27.9599H44.3543V27.5999H43.6343ZM45.0743 27.5999V27.9599H45.7943V27.5999H45.0743ZM46.5143 27.5999V27.9599H47.2343V27.5999H46.5143ZM47.9543 27.5999V27.9599H48.6743V27.5999H47.9543ZM49.3943 27.5999V27.9599H50.1143V27.5999H49.3943ZM50.8343 27.5999V27.9599H51.5543V27.5999H50.8343ZM52.2743 27.5999V27.9599H52.6343C52.7541 27.9599 52.8714 27.9482 52.9852 27.9257L52.9153 27.5725C52.8244 27.5905 52.7305 27.5999 52.6343 27.5999H52.2743ZM54.0743 25.1339H54.4343V24.4499H54.0743V25.1339ZM54.0743 23.7659H54.4343V23.0819H54.0743V23.7659ZM54.0743 22.3979H54.4343V21.7139H54.0743V22.3979ZM54.0743 21.0299H54.4343V20.3459H54.0743V21.0299ZM54.0743 19.6619H54.4343V18.9779H54.0743V19.6619ZM54.0743 18.2939H54.4343V17.6099H54.0743V18.2939ZM54.0743 16.9259H54.4343V16.2419H54.0743V16.9259ZM54.0743 15.5579H54.4343V14.8739H54.0743V15.5579ZM54.0743 14.1899H54.4343V13.5059H54.0743V14.1899ZM54.0743 12.8219H54.4343V12.4799C54.4343 12.3602 54.4226 12.2428 54.4001 12.129L54.0469 12.1989C54.0649 12.2898 54.0743 12.3838 54.0743 12.4799V12.8219ZM51.5543 11.0399V10.6799H50.8343V11.0399H51.5543ZM50.1143 11.0399V10.6799H49.3943V11.0399H50.1143ZM48.6743 11.0399V10.6799H47.9543V11.0399H48.6743ZM47.2343 11.0399V10.6799H46.5143V11.0399H47.2343ZM45.7943 11.0399V10.6799H45.0743V11.0399H45.7943ZM44.3543 11.0399V10.6799H43.6343V11.0399H44.3543ZM42.9143 11.0399V10.6799H42.1943V11.0399H42.9143ZM41.4743 11.0399V10.6799H40.7543V11.0399H41.4743ZM40.0343 11.0399V10.6799H39.3143V11.0399H40.0343ZM38.5943 11.0399V10.6799H37.8743V11.0399H38.5943ZM37.1543 11.0399V10.6799H36.4343V11.0399H37.1543ZM35.7143 11.0399V10.6799H34.9943V11.0399H35.7143ZM34.2743 11.0399V10.6799H33.5543V11.0399H34.2743ZM32.8343 11.0399V10.6799H32.1143V11.0399H32.8343ZM31.3943 11.0399V10.6799H30.6743V11.0399H31.3943ZM29.9543 11.0399V10.6799H29.2343V11.0399H29.9543ZM28.5143 11.0399V10.6799H27.7943V11.0399H28.5143ZM27.0743 11.0399V10.6799H26.3543V11.0399H27.0743ZM25.6343 11.0399V10.6799H24.9143V11.0399H25.6343ZM24.1943 11.0399V10.6799H23.4743V11.0399H24.1943ZM22.7543 11.0399V10.6799H22.0343V11.0399H22.7543ZM21.3143 11.0399V10.6799H20.5943V11.0399H21.3143ZM19.8743 11.0399V10.6799H19.1543V11.0399H19.8743ZM18.4343 11.0399V10.6799H17.7143V11.0399H18.4343ZM16.9943 11.0399V10.6799H16.2743V11.0399H16.9943ZM13.7543 13.5059H13.3943V14.1899H13.7543V13.5059ZM13.7543 14.8739H13.3943V15.5579H13.7543V14.8739ZM13.7543 16.2419H13.3943V16.9259H13.7543V16.2419ZM13.7543 17.6099H13.3943V18.2939H13.7543V17.6099ZM13.7543 18.9779H13.3943V19.6619H13.7543V18.9779ZM13.7543 20.3459H13.3943V21.0299H13.7543V20.3459ZM13.7543 21.7139H13.3943V22.3979H13.7543V21.7139ZM13.7543 23.0819H13.3943V23.7659H13.7543V23.0819ZM13.7543 24.4499H13.3943V25.1339H13.7543V24.4499ZM13.7543 25.8179H13.3943V26.1599C13.3943 26.2797 13.406 26.3971 13.4286 26.5108L13.7817 26.441C13.7637 26.3501 13.7543 26.2561 13.7543 26.1599V25.8179Z" fill="#4FAE7B"/>
<path d="M13.7543 31.2C13.7543 30.4047 14.399 29.76 15.1943 29.76H52.6343C53.4296 29.76 54.0743 30.4047 54.0743 31.2V42H13.7543V31.2Z" fill="#E5E6EB"/>
<circle cx="41.8343" cy="20.4" r="2.88" fill="#83CEA1"/>
<path d="M28.1693 23.0329L25.3255 20.189C25.0443 19.9079 24.5884 19.9079 24.3072 20.189L21.4634 23.0329C21.0098 23.4864 21.3311 24.262 21.9725 24.262L27.6602 24.262C28.3016 24.262 28.6229 23.4864 28.1693 23.0329Z" fill="#83CEA1"/>
<rect x="27.4343" y="13.9199" width="7.92" height="4.68" rx="1.44" fill="#83CEA1"/>
</g>
<defs>
<clipPath id="clip0_741_2052">
<rect width="50.4" height="36" fill="white" transform="translate(8.71428 6)"/>
</clipPath>
</defs>
</svg>
