<svg width="68" height="48" viewBox="0 0 68 48" fill="none" xmlns="http://www.w3.org/2000/svg">
<rect x="0.5" y="0.5" width="67" height="47" rx="3.5" fill="#F2F3F5"/>
<rect x="0.5" y="0.5" width="67" height="47" rx="3.5" stroke="#E5E6EB"/>
<rect x="4" y="6" width="60" height="36" rx="1.71429" fill="white"/>
<g clip-path="url(#clip0_741_2051)">
<path d="M8.71426 7.44C8.71426 6.64471 9.35897 6 10.1543 6H57.6743C58.4696 6 59.1143 6.64471 59.1143 7.44V40.56C59.1143 41.3553 58.4696 42 57.6743 42H10.1543C9.35897 42 8.71426 41.3553 8.71426 40.56V7.44Z" fill="white"/>
<rect x="13.7542" y="11.0398" width="10.8" height="7.92" rx="1.44" fill="#83CEA1"/>
<path d="M15.1942 17.52V15.792C15.1942 15.792 16.0663 14.4065 16.9942 14.064C18.4465 13.5277 19.254 15.5922 20.7742 15.2736C22.0934 14.997 23.1142 13.2 23.1142 13.2V17.52H15.1942Z" fill="#A2DFB8"/>
<rect x="13.7542" y="25.8" width="10.8" height="7.92" rx="1.44" fill="#E5E6EB"/>
<path d="M15.1942 32.2802V30.5522C15.1942 30.5522 16.0663 29.1668 16.9942 28.8242C18.4465 28.288 19.254 30.3525 20.7742 30.0338C22.0934 29.7573 23.1142 27.9602 23.1142 27.9602V32.2802H15.1942Z" fill="#C9CDD4"/>
<rect x="28.5143" y="11.0398" width="10.8" height="7.92" rx="1.44" fill="#E5E6EB"/>
<path d="M29.9543 17.52V15.792C29.9543 15.792 30.8264 14.4065 31.7543 14.064C33.2066 13.5277 34.014 15.5922 35.5343 15.2736C36.8535 14.997 37.8743 13.2 37.8743 13.2V17.52H29.9543Z" fill="#C9CDD4"/>
<rect x="28.5143" y="25.8" width="10.8" height="7.92" rx="1.44" fill="#E5E6EB"/>
<path d="M29.9543 32.2802V30.5522C29.9543 30.5522 30.8264 29.1668 31.7543 28.8242C33.2066 28.288 34.014 30.3525 35.5343 30.0338C36.8535 29.7573 37.8743 27.9602 37.8743 27.9602V32.2802H29.9543Z" fill="#C9CDD4"/>
<rect x="43.2743" y="11.0398" width="10.8" height="7.92" rx="1.44" fill="#E5E6EB"/>
<path d="M44.7143 17.52V15.792C44.7143 15.792 45.5864 14.4065 46.5143 14.064C47.9666 13.5277 48.7741 15.5922 50.2943 15.2736C51.6135 14.997 52.6343 13.2 52.6343 13.2V17.52H44.7143Z" fill="#C9CDD4"/>
<rect x="43.2743" y="25.8" width="10.8" height="7.92" rx="1.44" fill="#E5E6EB"/>
<path d="M44.7143 32.2802V30.5522C44.7143 30.5522 45.5864 29.1668 46.5143 28.8242C47.9666 28.288 48.7741 30.3525 50.2943 30.0338C51.6135 29.7573 52.6343 27.9602 52.6343 27.9602V32.2802H44.7143Z" fill="#C9CDD4"/>
<rect x="13.7542" y="21.8401" width="10.8" height="1.08" rx="0.54" fill="#83CEA1"/>
<rect x="28.5143" y="21.8401" width="10.8" height="1.08" rx="0.54" fill="#E5E6EB"/>
<rect x="43.2743" y="21.8401" width="10.8" height="1.08" rx="0.54" fill="#E5E6EB"/>
<rect x="43.2743" y="36.5999" width="10.8" height="1.08" rx="0.54" fill="#E5E6EB"/>
<rect x="28.5143" y="36.5999" width="10.8" height="1.08" rx="0.54" fill="#E5E6EB"/>
<rect x="13.7542" y="36.5999" width="10.8" height="1.08" rx="0.54" fill="#E5E6EB"/>
<rect x="13.7542" y="20.0398" width="5.76" height="1.08" rx="0.54" fill="#4FAE7B"/>
<rect x="28.5143" y="20.0398" width="5.76" height="1.08" rx="0.54" fill="#A9AEB8"/>
<rect x="43.2743" y="20.0398" width="5.76" height="1.08" rx="0.54" fill="#A9AEB8"/>
<rect x="43.2743" y="34.8" width="5.76" height="1.08" rx="0.54" fill="#A9AEB8"/>
<rect x="28.5143" y="34.8" width="5.76" height="1.08" rx="0.54" fill="#A9AEB8"/>
<rect x="13.7542" y="34.8" width="5.76" height="1.08" rx="0.54" fill="#A9AEB8"/>
</g>
<defs>
<clipPath id="clip0_741_2051">
<rect width="50.4" height="36" fill="white" transform="translate(8.71426 6)"/>
</clipPath>
</defs>
</svg>
