<svg width="16" height="16" viewBox="0 0 16 16" fill="none" xmlns="http://www.w3.org/2000/svg">
<path fill-rule="evenodd" clip-rule="evenodd" d="M1.99651 3.64269L7.89733 7.17312L7.89739 7.17316C8.21638 7.36406 8.35719 7.69911 8.35719 8.00219C8.35719 8.30527 8.21638 8.64031 7.89739 8.83122L7.89733 8.83126L1.99545 12.3623C1.65238 12.5679 1.26225 12.5315 0.972311 12.3432C0.68635 12.1575 0.5 11.8295 0.5 11.4538V4.5475C0.5 4.17196 0.686244 3.84346 0.973118 3.65793C1.26396 3.46983 1.65434 3.43542 1.99651 3.64269ZM1.50536 4.51415C1.5026 4.52134 1.5 4.53212 1.5 4.5475V11.4538C1.5 11.471 1.50325 11.4824 1.50638 11.4896L7.33533 8.00219L1.50536 4.51415Z" fill="#6B7785"/>
<path fill-rule="evenodd" clip-rule="evenodd" d="M9.13925 3.64264L15.0401 7.17312L15.0402 7.17316C15.3592 7.36406 15.5 7.69911 15.5 8.00219C15.5 8.30527 15.3592 8.64031 15.0402 8.83122L15.0401 8.83126L9.13826 12.3623C8.7952 12.5679 8.40506 12.5315 8.11513 12.3432C7.82917 12.1575 7.64281 11.8295 7.64281 11.4538V4.5475C7.64281 4.17211 7.82885 3.84357 8.11576 3.65796C8.40673 3.46973 8.79709 3.43552 9.13925 3.64264ZM8.64815 4.51413C8.6454 4.52134 8.64281 4.53212 8.64281 4.5475V11.4538C8.64281 11.471 8.64607 11.4824 8.64919 11.4896L14.4781 8.00219L8.64815 4.51413Z" fill="#6B7785"/>
</svg>
