<svg xmlns="http://www.w3.org/2000/svg" xmlns:xlink="http://www.w3.org/1999/xlink" width="68" height="48" viewBox="0 0 68 48" fill="none">
<path    style="mix-blend-mode:normal" fill="#F2F3F5"  d="M0 44L0 4C0 1.79086 1.79086 0 4 0L64 0C66.2091 0 68 1.79086 68 4L68 44C68 46.2091 66.2091 48 64 48L4 48C1.79086 48 0 46.2091 0 44Z">
</path>
<path  transform="translate(4, 6)"  style="mix-blend-mode:normal" fill="#FFFFFF"  d="M0 34L0 2C0 0.89543 0.89543 0 2 0L58 0C59.1046 0 60 0.89543 60 2L60 34C60 35.1046 59.1046 36 58 36L2 36C0.89543 36 0 35.1046 0 34Z">
</path>
<rect  x="31" y="16" width="15" height="2" rx="1"   style="mix-blend-mode:normal" fill="#339664" >
</rect>
<rect  x="31" y="23" width="15" height="2" rx="1"   style="mix-blend-mode:normal" fill="#BDC2C9" >
</rect>
<rect  x="31" y="30" width="15" height="2" rx="1"   style="mix-blend-mode:normal" fill="#339664" >
</rect>
<rect  x="22" y="14" width="6" height="6" rx="2"   style="mix-blend-mode:normal" fill="#339664" >
</rect>
<path fill-rule="evenodd"  fill="rgba(51, 150, 100, 1)" style="mix-blend-mode:normal" d="M26 14L24 14C22.8954 14 22 14.8954 22 16L22 18C22 19.1046 22.8954 20 24 20L26 20C27.1046 20 28 19.1046 28 18L28 16C28 14.8954 27.1046 14 26 14ZM23.4 16C23.4 15.6686 23.6686 15.4 24 15.4L26 15.4C26.3314 15.4 26.6 15.6686 26.6 16L26.6 18C26.6 18.3314 26.3314 18.6 26 18.6L24 18.6C23.6686 18.6 23.4 18.3314 23.4 18L23.4 16Z">
</path>
<path    stroke="rgba(255, 255, 255, 1)" stroke-width="0.6000000238418579" stroke-linejoin="round" stroke-linecap="round" style="mix-blend-mode:normal" d="M26.5827 15.9165L24.4056 18.0832L23.416 17.0983">
</path>
<path    stroke="rgba(255, 255, 255, 1)" stroke-width="0.6000000238418579" stroke-linejoin="round" stroke-linecap="round" style="mix-blend-mode:normal" d="M26.5827 16L24.4056 18.1667L23.416 17.1818">
</path>
<rect  x="22" y="28" width="6" height="6" rx="2"   style="mix-blend-mode:normal" fill="#339664" >
</rect>
<path fill-rule="evenodd"  fill="rgba(51, 150, 100, 1)" style="mix-blend-mode:normal" d="M26 28L24 28C22.8954 28 22 28.8954 22 30L22 32C22 33.1046 22.8954 34 24 34L26 34C27.1046 34 28 33.1046 28 32L28 30C28 28.8954 27.1046 28 26 28ZM23.4 30C23.4 29.6686 23.6686 29.4 24 29.4L26 29.4C26.3314 29.4 26.6 29.6686 26.6 30L26.6 32C26.6 32.3314 26.3314 32.6 26 32.6L24 32.6C23.6686 32.6 23.4 32.3314 23.4 32L23.4 30Z">
</path>
<rect  x="22" y="21" width="6" height="6" rx="2"   style="mix-blend-mode:normal" fill="#FFFFFF" >
</rect>
<path fill-rule="evenodd"  fill="rgba(189, 194, 201, 1)" style="mix-blend-mode:normal" d="M26 21L24 21C22.8954 21 22 21.8954 22 23L22 25C22 26.1046 22.8954 27 24 27L26 27C27.1046 27 28 26.1046 28 25L28 23C28 21.8954 27.1046 21 26 21ZM22.4571 23C22.4571 22.1479 23.1479 21.4571 24 21.4571L26 21.4571C26.8521 21.4571 27.5429 22.1479 27.5429 23L27.5429 25C27.5429 25.8521 26.8521 26.5429 26 26.5429L24 26.5429C23.1479 26.5429 22.4571 25.8521 22.4571 25L22.4571 23Z">
</path>
<path    stroke="rgba(255, 255, 255, 1)" stroke-width="0.6000000238418579" stroke-linejoin="round" stroke-linecap="round" style="mix-blend-mode:normal" d="M26.5827 30L24.4056 32.1667L23.416 31.1818">
</path>
<path fill-rule="evenodd"  fill="rgba(229, 230, 235, 1)" style="mix-blend-mode:normal" d="M0 4L0 44C0 46.2091 1.79086 48 4 48L64 48C66.2091 48 68 46.2091 68 44L68 4C68 1.79086 66.2091 0 64 0L4 0C1.79086 0 0 1.79086 0 4ZM4 47C2.34315 47 1 45.6569 1 44L1 4C1 2.34315 2.34315 1 4 1L64 1C65.6569 1 67 2.34315 67 4L67 44C67 45.6569 65.6569 47 64 47L4 47Z">
</path>
</svg>
