<svg width="16" height="16" viewBox="0 0 16 16" fill="none" xmlns="http://www.w3.org/2000/svg">
<path d="M5.5 9C6.05228 9 6.5 9.44772 6.5 10V13C6.5 13.5177 6.10667 13.9438 5.60254 13.9951L5.5 14H2.5L2.39746 13.9951C1.92703 13.9472 1.55278 13.573 1.50488 13.1025L1.5 13V10C1.5 9.44772 1.94772 9 2.5 9H5.5ZM11.335 12.1006C11.7022 12.1006 11.9999 12.3984 12 12.7656C12 13.1329 11.7022 13.4307 11.335 13.4307H8.46582C8.09855 13.4307 7.80078 13.1329 7.80078 12.7656C7.80087 12.3984 8.0986 12.1006 8.46582 12.1006H11.335ZM2.83008 12.6699H5.16992V10.3301H2.83008V12.6699ZM13.835 9.5C14.2022 9.50008 14.5 9.79782 14.5 10.165C14.5 10.5322 14.2021 10.83 13.835 10.8301H8.46484C8.09759 10.8301 7.79983 10.5323 7.7998 10.165C7.7998 9.79777 8.09757 9.5 8.46484 9.5H13.835ZM5.5 2C6.05228 2 6.5 2.44772 6.5 3V6C6.5 6.51768 6.10667 6.94379 5.60254 6.99512L5.5 7H2.5L2.39746 6.99512C1.92703 6.94722 1.55278 6.57297 1.50488 6.10254L1.5 6V3C1.5 2.44772 1.94772 2 2.5 2H5.5ZM11.335 5.09961C11.7022 5.09961 11.9999 5.39745 12 5.76465C12 6.13192 11.7022 6.42969 11.335 6.42969H8.46582C8.09855 6.42969 7.80078 6.13192 7.80078 5.76465C7.80087 5.39745 8.0986 5.09961 8.46582 5.09961H11.335ZM2.83008 5.66992H5.16992V3.33008H2.83008V5.66992ZM13.8359 2.5C14.2031 2.50008 14.501 2.79782 14.501 3.16504C14.501 3.53224 14.2031 3.82999 13.8359 3.83008H8.46582C8.09856 3.83008 7.8008 3.53229 7.80078 3.16504C7.80078 2.79777 8.09855 2.5 8.46582 2.5H13.8359Z" fill="#4E5969"/>
</svg>
