<svg width="68" height="48" viewBox="0 0 68 48" fill="none" xmlns="http://www.w3.org/2000/svg">
<rect x="0.5" y="0.5" width="67" height="47" rx="3.5" fill="#F2F3F5"/>
<rect x="0.5" y="0.5" width="67" height="47" rx="3.5" stroke="#E5E6EB"/>
<rect x="4" y="6" width="60" height="36" rx="1.71429" fill="white"/>
<rect width="50.4" height="36" transform="translate(8.71429 6)" fill="white"/>
<rect x="13.7543" y="12.1201" width="40.32" height="24.48" rx="1.44" fill="#F2F3F5"/>
<rect x="13.7543" y="12.1201" width="40.32" height="24.48" rx="1.44" fill="#F2F3F5"/>
<path d="M13.7543 35.16V35.016C13.7543 35.016 18.1943 31.5735 22.9179 29.832C30.3115 27.1061 34.4223 28.6007 42.1616 26.9808C48.8776 25.575 54.0743 22.2 54.0743 22.2L54.0743 35.16C54.0743 35.9552 53.4296 36.6 52.6343 36.6H15.1943C14.399 36.6 13.7543 35.9552 13.7543 35.16Z" fill="#4FAE7B"/>
<path d="M13.7543 35.1599V33.5759C13.7543 33.5759 15.6907 28.4414 20.4143 26.6999C27.8079 23.974 33.915 32.8198 41.6543 31.1999C48.3703 29.7941 54.0743 18.5999 54.0743 18.5999L54.0743 35.1599C54.0743 35.9551 53.4296 36.5999 52.6343 36.5999H15.1943C14.399 36.5999 13.7543 35.9551 13.7543 35.1599Z" fill="#74D4A1"/>
<circle cx="25.4543" cy="15.1799" r="6.3" fill="#C9E2D6"/>
</svg>
