<svg width="68" height="48" viewBox="0 0 68 48" fill="none" xmlns="http://www.w3.org/2000/svg">
<rect x="0.5" y="0.5" width="67" height="47" rx="3.5" fill="#F2F3F5"/>
<rect x="0.5" y="0.5" width="67" height="47" rx="3.5" stroke="#E5E6EB"/>
<rect x="4" y="6" width="60" height="36" rx="1.71429" fill="white"/>
<rect width="50.4" height="36" transform="translate(8.71429 6)" fill="white"/>
<rect x="13.7543" y="12.1201" width="40.32" height="24.48" rx="1.44" fill="#F2F3F5"/>
<path d="M32.0648 27.7018H27.0018L25.9131 31.3652H23.1483L27.9349 17.04H31.2872L36.0738 31.3652H33.1535L32.0648 27.7018ZM31.3736 25.4208L29.5419 19.2173L27.693 25.4208H31.3736Z" fill="#4FAE7B"/>
<path d="M44.3954 29.3265C44.3954 30.2001 44.4146 30.8673 44.453 31.3281H42.869C42.8402 31.1361 42.8162 30.6609 42.797 29.9025C42.4802 30.4209 42.077 30.8193 41.5874 31.0977C41.1074 31.3761 40.5506 31.5153 39.917 31.5153C39.245 31.5153 38.6306 31.3233 38.0738 30.9393C37.517 30.5649 37.0754 30.0369 36.749 29.3553C36.4322 28.6641 36.2738 27.8769 36.2738 26.9937C36.2738 26.1105 36.4322 25.3281 36.749 24.6465C37.0754 23.9553 37.517 23.4225 38.0738 23.0481C38.6306 22.6641 39.245 22.4721 39.917 22.4721C40.5506 22.4721 41.1074 22.6113 41.5874 22.8897C42.077 23.1681 42.4802 23.5665 42.797 24.0849C42.8162 23.3457 42.8402 22.8705 42.869 22.6593H44.453C44.4146 23.1201 44.3954 23.7873 44.3954 24.6609V29.3265ZM42.6242 26.9937C42.6242 26.3793 42.5282 25.8369 42.3362 25.3665C42.1442 24.8961 41.8754 24.5313 41.5298 24.2721C41.1842 24.0129 40.7858 23.8833 40.3346 23.8833C39.893 23.8833 39.4994 24.0129 39.1538 24.2721C38.8082 24.5313 38.5346 24.8961 38.333 25.3665C38.141 25.8369 38.045 26.3793 38.045 26.9937C38.045 27.6081 38.141 28.1505 38.333 28.6209C38.5346 29.0913 38.8082 29.4561 39.1538 29.7153C39.4994 29.9745 39.893 30.1041 40.3346 30.1041C40.7858 30.1041 41.1842 29.9745 41.5298 29.7153C41.8754 29.4561 42.1442 29.0913 42.3362 28.6209C42.5282 28.1505 42.6242 27.6081 42.6242 26.9937Z" fill="#A2DFB8"/>
</svg>
