<svg width="16" height="16" viewBox="0 0 16 16" fill="none" xmlns="http://www.w3.org/2000/svg">
  <rect x="0.666992" y="7.33301" width="5.33333" height="1.33333" rx="0.333333" fill="#4E5969"/>
  <rect x="10" y="7.33301" width="5.33333" height="1.33333" rx="0.333333" fill="#4E5969"/>
  <rect x="7.33301" y="7.33301" width="1.33333" height="1.33333" rx="0.666667" fill="#4E5969"/>
  <path d="M3.99967 2C4.36786 2 4.66634 2.29848 4.66634 2.66667V4H11.333V2.66667C11.333 2.29848 11.6315 2 11.9997 2C12.3679 2 12.6663 2.29848 12.6663 2.66667V4C12.6663 4.73638 12.0694 5.33333 11.333 5.33333H4.66634C3.92996 5.33333 3.33301 4.73638 3.33301 4V2.66667C3.33301 2.29848 3.63148 2 3.99967 2Z" fill="#4E5969"/>
  <path d="M11.333 10.667C12.0694 10.667 12.6663 11.2639 12.6663 12.0003V13.3337C12.6663 13.7018 12.3679 14.0003 11.9997 14.0003C11.6315 14.0003 11.333 13.7018 11.333 13.3337V12.0003H4.66634V13.3337C4.66634 13.7018 4.36786 14.0003 3.99967 14.0003C3.63148 14.0003 3.33301 13.7018 3.33301 13.3337V12.0003C3.33301 11.2639 3.92996 10.667 4.66634 10.667H11.333Z" fill="#4E5969"/>
</svg>
