<svg width="68" height="48" viewBox="0 0 68 48" fill="none" xmlns="http://www.w3.org/2000/svg">
<rect x="0.5" y="0.5" width="67" height="47" rx="3.5" fill="#F2F3F5"/>
<rect x="0.5" y="0.5" width="67" height="47" rx="3.5" stroke="#E5E6EB"/>
<rect x="4" y="6" width="60" height="36" rx="1.71429" fill="white"/>
<rect width="50.4" height="36" transform="translate(8.71429 6)" fill="white"/>
<path d="M32.8751 10.0525C33.4274 9.83442 34.0417 9.83438 34.5939 10.0525L48.6447 15.6032L48.3146 16.4402L47.9835 17.2771L33.9328 11.7263C33.8054 11.676 33.6636 11.6761 33.5363 11.7263L19.4855 17.2771L18.8234 15.6032L32.8751 10.0525Z" fill="#E5E6EB"/>
<rect x="13.7543" y="15.72" width="40.32" height="20.88" rx="1.44" fill="#F2F3F5"/>
<rect x="18.4343" y="21.1201" width="30.96" height="4.32" rx="0.36" fill="#4FAE7B"/>
<rect x="18.4343" y="28.3201" width="25.56" height="2.88" rx="0.36" fill="#A2DFB8"/>
<path d="M36.0743 11.0399C36.0743 12.2328 35.1072 13.1999 33.9143 13.1999C32.7214 13.1999 31.7543 12.2328 31.7543 11.0399C31.7543 9.84695 32.7214 8.87988 33.9143 8.87988C35.1072 8.87988 36.0743 9.84695 36.0743 11.0399Z" fill="white"/>
<path d="M35.3545 11.0394C35.3542 10.2443 34.709 9.59964 33.9139 9.59964C33.1189 9.59986 32.4744 10.2444 32.4742 11.0394C32.4742 11.8345 33.1188 12.4797 33.9139 12.4799C34.7092 12.4799 35.3545 11.8347 35.3545 11.0394ZM36.7942 11.0394C36.7942 12.63 35.5045 13.9197 33.9139 13.9197C32.3235 13.9195 31.0344 12.6298 31.0344 11.0394C31.0346 9.44911 32.3236 8.16013 33.9139 8.15991C35.5043 8.15991 36.794 9.44898 36.7942 11.0394Z" fill="#C9CDD4"/>
</svg>
