<svg width="16" height="16" viewBox="0 0 16 16" fill="none" xmlns="http://www.w3.org/2000/svg">
<path d="M8.25 1.33496C8.43474 1.33508 8.61158 1.41249 8.7373 1.54785L11.9424 5H14L14.1025 5.00488C14.6065 5.0562 14.9998 5.48253 15 6V14L14.9951 14.1025C14.9472 14.573 14.5729 14.9472 14.1025 14.9951L14 15H2C1.48232 15 1.05621 14.6067 1.00488 14.1025L1 14V6C1.00024 5.44792 1.44787 5 2 5H4.55762L7.7627 1.54785C7.88841 1.41273 8.06544 1.33507 8.25 1.33496ZM2.33008 13.6699H13.6699V6.33008H2.33008V13.6699ZM7.83496 10.6699C8.20223 10.6699 8.5 10.9677 8.5 11.335C8.49998 11.7022 8.20222 12 7.83496 12H5.16504C4.79778 12 4.50002 11.7022 4.5 11.335C4.5 10.9677 4.79777 10.6699 5.16504 10.6699H7.83496ZM10.835 8C11.2022 8 11.5 8.29777 11.5 8.66504C11.5 9.03229 11.2022 9.33008 10.835 9.33008H5.16504C4.79778 9.33008 4.50002 9.03229 4.5 8.66504C4.5 8.29777 4.79777 8 5.16504 8H10.835ZM6.37109 5H10.1289L8.25 2.97656L6.37109 5Z" fill="#4E5969"/>
</svg>
