<svg width="16" height="16" viewBox="0 0 16 16" fill="none" xmlns="http://www.w3.org/2000/svg">
<path d="M10.6025 1.00488C11.1067 1.05621 11.5 1.48232 11.5 2V6H13.5C14.0523 6 14.5 6.44772 14.5 7V14C14.5 14.5523 14.0523 15 13.5 15H2.5C1.98232 15 1.55621 14.6067 1.50488 14.1025L1.5 14V2C1.5 1.44772 1.94772 1 2.5 1H10.5L10.6025 1.00488ZM2.83008 13.6699H10.1699V2.33008H2.83008V13.6699ZM11.5 13.6699H13.1699V7.33008H11.5V13.6699ZM7.83496 10C8.20223 10 8.5 10.2978 8.5 10.665C8.49998 11.0323 8.20222 11.3301 7.83496 11.3301H5.16504C4.79778 11.3301 4.50002 11.0323 4.5 10.665C4.5 10.2978 4.79777 10 5.16504 10H7.83496ZM7.66602 3.83496C8.2183 3.83496 8.66602 4.28268 8.66602 4.83496V7.16504C8.66602 7.71732 8.2183 8.16504 7.66602 8.16504H5.33594C4.78365 8.16504 4.33594 7.71732 4.33594 7.16504V4.83496C4.33594 4.28268 4.78365 3.83496 5.33594 3.83496H7.66602ZM5.66602 6.83496H7.33594V5.16504H5.66602V6.83496Z" fill="#4E5969"/>
</svg>
