<svg width="68" height="48" viewBox="0 0 68 48" fill="none" xmlns="http://www.w3.org/2000/svg">
<rect x="0.5" y="0.5" width="67" height="47" rx="3.5" fill="#F2F3F5"/>
<rect x="0.5" y="0.5" width="67" height="47" rx="3.5" stroke="#E5E6EB"/>
<rect x="4" y="6" width="60" height="36" rx="1.71429" fill="white"/>
<g clip-path="url(#clip0_741_2050)">
<path d="M8.71429 7.44C8.71429 6.64471 9.359 6 10.1543 6H57.6743C58.4696 6 59.1143 6.64471 59.1143 7.44V40.56C59.1143 41.3553 58.4696 42 57.6743 42H10.1543C9.359 42 8.71429 41.3553 8.71429 40.56V7.44Z" fill="white"/>
<rect x="13.7543" y="24" width="40.32" height="12.96" rx="1.44" fill="#F2F3F5"/>
<path d="M13.7543 12.4798C13.7543 11.6845 14.399 11.0398 15.1943 11.0398H31.3943C32.1896 11.0398 32.8343 11.6845 32.8343 12.4798V20.3998C32.8343 21.1951 32.1896 21.8398 31.3943 21.8398H15.1943C14.399 21.8398 13.7543 21.1951 13.7543 20.3998V12.4798Z" fill="#4FAE7B"/>
<rect x="34.9943" y="11.0398" width="19.08" height="10.8" rx="1.44" fill="#F2F3F5"/>
<path d="M22.0403 12.9157C21.296 12.5343 20.4502 12.3983 19.6239 12.5272C18.7976 12.6561 18.0334 13.0433 17.4407 13.6333C16.848 14.2232 16.4572 14.9857 16.3245 15.8113C16.1917 16.637 16.3238 17.4835 16.7017 18.2295C17.0796 18.9755 17.684 19.5827 18.4283 19.9641C19.1725 20.3455 20.0184 20.4815 20.8447 20.3526C21.6709 20.2237 22.4352 19.8365 23.0279 19.2466C23.6206 18.6566 24.0113 17.8942 24.1441 17.0685L20.2343 16.4399L22.0403 12.9157Z" fill="#A2DFB8"/>
<path fill-rule="evenodd" clip-rule="evenodd" d="M23.8254 16.693C23.87 16.0592 23.7462 15.4225 23.4635 14.8488C23.1808 14.2751 22.7514 13.789 22.2216 13.4383L20.7837 16.1693L23.8254 16.693Z" fill="#A2DFB8"/>
<rect x="25.9943" y="13.5598" width="4.68" height="2.16" rx="0.72" fill="#C4EFD2"/>
<rect x="27.0743" y="17.1599" width="3.6" height="2.16" rx="0.72" fill="#C4EFD2"/>
<rect x="19.1543" y="30.8401" width="3.6" height="2.16" rx="0.72" transform="rotate(90 19.1543 30.8401)" fill="#C9CDD4"/>
<rect x="24.4343" y="26.8799" width="7.56" height="2.16" rx="0.72" transform="rotate(90 24.4343 26.8799)" fill="#C9CDD4"/>
<rect x="29.7143" y="30.48" width="3.96" height="2.16" rx="0.72" transform="rotate(90 29.7143 30.48)" fill="#C9CDD4"/>
<rect x="34.9943" y="28.6799" width="5.76" height="2.16" rx="0.72" transform="rotate(90 34.9943 28.6799)" fill="#C9CDD4"/>
<rect x="40.2743" y="32.2798" width="2.16" height="2.16" rx="0.72" transform="rotate(90 40.2743 32.2798)" fill="#C9CDD4"/>
<rect x="45.5543" y="26.8799" width="7.56" height="2.16" rx="0.72" transform="rotate(90 45.5543 26.8799)" fill="#C9CDD4"/>
<rect x="50.8343" y="30.48" width="3.96" height="2.16" rx="0.72" transform="rotate(90 50.8343 30.48)" fill="#C9CDD4"/>
<path d="M37.1543 16.0433C37.1543 16.0433 37.518 16.1357 37.5972 16.284C37.8802 16.8141 38.1604 17.3647 38.3424 17.0108C38.6918 16.3315 38.8236 15.4897 39.3777 15.6823C39.9038 15.8652 39.9038 17.3527 40.4569 17.3527C40.946 17.3527 41.2667 16.0141 41.6067 16.0433C42.1655 16.0914 42.6082 17.1739 42.9058 16.8753C43.5596 16.2193 43.5219 15.4897 44.5498 15.4897C45.2654 15.4897 45.177 12.7606 45.8893 12.8419C46.3632 12.8959 46.2575 13.7271 47.1437 13.7271C47.7588 13.7271 47.5764 15.382 48.053 15.382C48.3756 15.382 48.918 13.2901 49.2217 13.227C49.6849 13.1307 49.5802 13.9967 49.9416 13.9967C50.303 13.9967 50.3804 13.271 50.8343 13.4196C50.8343 13.4196 50.8343 20.4001 50.8343 20.4001H37.1543V16.0433Z" fill="#E5E6EB"/>
<path d="M37.1543 19.6799C37.1543 19.6799 37.7583 19.9542 38.1529 18.7238C38.5475 17.4935 38.586 15.6294 39.7311 17.1989C40.256 17.9184 40.9992 16.5808 41.6139 16.6723C42.3403 16.7805 42.865 18.568 43.4056 17.6979C44.1439 16.5098 44.4634 16.3257 45.1234 16.0365C45.9396 15.6788 45.885 14.3156 46.6895 14.4627C47.2246 14.5606 47.5556 16.8301 48.477 16.9819C49.2069 17.1022 49.5449 15.5098 49.7179 14.9154C50.1472 13.4401 50.5386 13.9982 50.8343 14.1495" stroke="#C9CDD4" stroke-width="0.36" stroke-linecap="round"/>
</g>
<defs>
<clipPath id="clip0_741_2050">
<rect width="50.4" height="36" fill="white" transform="translate(8.71429 6)"/>
</clipPath>
</defs>
</svg>
