<svg xmlns="http://www.w3.org/2000/svg" xmlns:xlink="http://www.w3.org/1999/xlink" width="68" height="48" viewBox="0 0 68 48" fill="none">
<path    style="mix-blend-mode:normal" fill="#F2F3F5"  d="M0 44L0 4C0 1.79086 1.79086 0 4 0L64 0C66.2091 0 68 1.79086 68 4L68 44C68 46.2091 66.2091 48 64 48L4 48C1.79086 48 0 46.2091 0 44Z">
</path>
<path  transform="translate(4, 6)"  style="mix-blend-mode:normal" fill="#FFFFFF"  d="M0 34L0 2C0 0.89543 0.89543 0 2 0L58 0C59.1046 0 60 0.89543 60 2L60 34C60 35.1046 59.1046 36 58 36L2 36C0.89543 36 0 35.1046 0 34Z">
</path>
<rect  x="22" y="12" width="24" height="24" rx="3.430000066757202"   style="mix-blend-mode:normal" fill="#FDFEFF" >
</rect>
<path fill-rule="evenodd"  fill="rgba(189, 194, 201, 1)" style="mix-blend-mode:normal" d="M42.57 12L25.43 12C23.5357 12 22 13.5357 22 15.43L22 32.57C22 34.4643 23.5357 36 25.43 36L42.57 36C44.4643 36 46 34.4643 46 32.57L46 15.43C46 13.5357 44.4643 12 42.57 12ZM22.8 15.43C22.8 13.9775 23.9775 12.8 25.43 12.8L42.57 12.8C44.0225 12.8 45.2 13.9775 45.2 15.43L45.2 32.57C45.2 34.0225 44.0225 35.2 42.57 35.2L25.43 35.2C23.9775 35.2 22.8 34.0225 22.8 32.57L22.8 15.43Z">
</path>
<rect  x="26" y="25" width="16" height="1" rx="0.5"   style="mix-blend-mode:normal" fill="#BDC2C9" >
</rect>
<rect  x="26" y="31" width="16" height="1" rx="0.5"   style="mix-blend-mode:normal" fill="#BDC2C9" >
</rect>
<rect  x="26" y="28" width="9" height="1" rx="0.5"   style="mix-blend-mode:normal" fill="#BDC2C9" >
</rect>
<g >
<text transform="translate(30.5, 14)">
<tspan x="0.6608424764126539" y="8.752717293798923" font-size="9.516521453857422" line-height="18.22" style="mix-blend-mode:normal" fill="#339664"  font-family="Roboto-Regular" letter-spacing="0" >
T</tspan>
</text>
</g>
<path fill-rule="evenodd"  fill="rgba(229, 230, 235, 1)" style="mix-blend-mode:normal" d="M0 4L0 44C0 46.2091 1.79086 48 4 48L64 48C66.2091 48 68 46.2091 68 44L68 4C68 1.79086 66.2091 0 64 0L4 0C1.79086 0 0 1.79086 0 4ZM4 47C2.34315 47 1 45.6569 1 44L1 4C1 2.34315 2.34315 1 4 1L64 1C65.6569 1 67 2.34315 67 4L67 44C67 45.6569 65.6569 47 64 47L4 47Z">
</path>
</svg>
