<svg width="16" height="16" viewBox="0 0 16 16" fill="none" xmlns="http://www.w3.org/2000/svg">
<path fill-rule="evenodd" clip-rule="evenodd" d="M8 13.5C7.72386 13.5 7.5 13.7239 7.5 14C7.5 14.2761 7.72386 14.5 8 14.5C8.27614 14.5 8.5 14.2761 8.5 14C8.5 13.7239 8.27614 13.5 8 13.5ZM6.5 14C6.5 13.1716 7.17157 12.5 8 12.5C8.82843 12.5 9.5 13.1716 9.5 14C9.5 14.8284 8.82843 15.5 8 15.5C7.17157 15.5 6.5 14.8284 6.5 14Z" fill="#6B7785"/>
<path fill-rule="evenodd" clip-rule="evenodd" d="M8 9.5C7.72386 9.5 7.5 9.72386 7.5 10C7.5 10.2761 7.72386 10.5 8 10.5C8.27614 10.5 8.5 10.2761 8.5 10C8.5 9.72386 8.27614 9.5 8 9.5ZM6.5 10C6.5 9.17157 7.17157 8.5 8 8.5C8.82843 8.5 9.5 9.17157 9.5 10C9.5 10.8284 8.82843 11.5 8 11.5C7.17157 11.5 6.5 10.8284 6.5 10Z" fill="#6B7785"/>
<path fill-rule="evenodd" clip-rule="evenodd" d="M8 5.5C7.90111 5.5 7.80444 5.52932 7.72222 5.58427C7.63999 5.63921 7.5759 5.7173 7.53806 5.80866C7.50022 5.90002 7.49032 6.00055 7.50961 6.09755C7.5289 6.19454 7.57652 6.28363 7.64645 6.35355C7.71637 6.42348 7.80547 6.4711 7.90246 6.49039C7.99945 6.50969 8.09998 6.49978 8.19134 6.46194C8.28271 6.4241 8.36079 6.36001 8.41574 6.27779C8.47068 6.19556 8.5 6.09889 8.5 6C8.5 5.86739 8.44732 5.74022 8.35355 5.64645C8.25979 5.55268 8.13261 5.5 8 5.5ZM7.16665 4.7528C7.41332 4.58797 7.70333 4.5 8 4.5C8.39783 4.5 8.77936 4.65804 9.06066 4.93934C9.34197 5.22064 9.5 5.60217 9.5 6C9.5 6.29667 9.41203 6.58668 9.24721 6.83336C9.08238 7.08003 8.84812 7.27229 8.57403 7.38582C8.29994 7.49935 7.99834 7.52906 7.70737 7.47118C7.41639 7.4133 7.14912 7.27044 6.93934 7.06066C6.72956 6.85088 6.5867 6.58361 6.52882 6.29264C6.47094 6.00166 6.50065 5.70006 6.61418 5.42598C6.72771 5.15189 6.91997 4.91762 7.16665 4.7528Z" fill="#6B7785"/>
<path fill-rule="evenodd" clip-rule="evenodd" d="M8 1.5C7.72386 1.5 7.5 1.72386 7.5 2C7.5 2.27614 7.72386 2.5 8 2.5C8.27614 2.5 8.5 2.27614 8.5 2C8.5 1.72386 8.27614 1.5 8 1.5ZM6.5 2C6.5 1.17157 7.17157 0.5 8 0.5C8.82843 0.5 9.5 1.17157 9.5 2C9.5 2.82843 8.82843 3.5 8 3.5C7.17157 3.5 6.5 2.82843 6.5 2Z" fill="#6B7785"/>
<path fill-rule="evenodd" clip-rule="evenodd" d="M12 9.5C11.7239 9.5 11.5 9.72386 11.5 10C11.5 10.2761 11.7239 10.5 12 10.5C12.2761 10.5 12.5 10.2761 12.5 10C12.5 9.72386 12.2761 9.5 12 9.5ZM10.5 10C10.5 9.17157 11.1716 8.5 12 8.5C12.8284 8.5 13.5 9.17157 13.5 10C13.5 10.8284 12.8284 11.5 12 11.5C11.1716 11.5 10.5 10.8284 10.5 10Z" fill="#6B7785"/>
<path fill-rule="evenodd" clip-rule="evenodd" d="M12 5.5C11.7239 5.5 11.5 5.72386 11.5 6C11.5 6.27614 11.7239 6.5 12 6.5C12.2761 6.5 12.5 6.27614 12.5 6C12.5 5.72386 12.2761 5.5 12 5.5ZM10.5 6C10.5 5.17157 11.1716 4.5 12 4.5C12.8284 4.5 13.5 5.17157 13.5 6C13.5 6.82843 12.8284 7.5 12 7.5C11.1716 7.5 10.5 6.82843 10.5 6Z" fill="#6B7785"/>
<path fill-rule="evenodd" clip-rule="evenodd" d="M12 1.5C11.7239 1.5 11.5 1.72386 11.5 2C11.5 2.27614 11.7239 2.5 12 2.5C12.2761 2.5 12.5 2.27614 12.5 2C12.5 1.72386 12.2761 1.5 12 1.5ZM10.5 2C10.5 1.17157 11.1716 0.5 12 0.5C12.8284 0.5 13.5 1.17157 13.5 2C13.5 2.82843 12.8284 3.5 12 3.5C11.1716 3.5 10.5 2.82843 10.5 2Z" fill="#6B7785"/>
<path fill-rule="evenodd" clip-rule="evenodd" d="M4 9.5C3.72386 9.5 3.5 9.72386 3.5 10C3.5 10.2761 3.72386 10.5 4 10.5C4.27614 10.5 4.5 10.2761 4.5 10C4.5 9.72386 4.27614 9.5 4 9.5ZM2.5 10C2.5 9.17157 3.17157 8.5 4 8.5C4.82843 8.5 5.5 9.17157 5.5 10C5.5 10.8284 4.82843 11.5 4 11.5C3.17157 11.5 2.5 10.8284 2.5 10Z" fill="#6B7785"/>
<path fill-rule="evenodd" clip-rule="evenodd" d="M4 5.5C3.72386 5.5 3.5 5.72386 3.5 6C3.5 6.27614 3.72386 6.5 4 6.5C4.27614 6.5 4.5 6.27614 4.5 6C4.5 5.72386 4.27614 5.5 4 5.5ZM2.5 6C2.5 5.17157 3.17157 4.5 4 4.5C4.82843 4.5 5.5 5.17157 5.5 6C5.5 6.82843 4.82843 7.5 4 7.5C3.17157 7.5 2.5 6.82843 2.5 6Z" fill="#6B7785"/>
<path fill-rule="evenodd" clip-rule="evenodd" d="M4 1.5C3.72386 1.5 3.5 1.72386 3.5 2C3.5 2.27614 3.72386 2.5 4 2.5C4.27614 2.5 4.5 2.27614 4.5 2C4.5 1.72386 4.27614 1.5 4 1.5ZM2.5 2C2.5 1.17157 3.17157 0.5 4 0.5C4.82843 0.5 5.5 1.17157 5.5 2C5.5 2.82843 4.82843 3.5 4 3.5C3.17157 3.5 2.5 2.82843 2.5 2Z" fill="#6B7785"/>
</svg>
