<svg width="16" height="16" viewBox="0 0 16 16" fill="none" xmlns="http://www.w3.org/2000/svg">
    <path fill-rule="evenodd" clip-rule="evenodd"
        d="M3.33333 2C2.97971 2 2.64057 2.14048 2.39052 2.39052C2.14048 2.64057 2 2.97971 2 3.33333V12.6667C2 13.0203 2.14048 13.3594 2.39052 13.6095C2.64057 13.8595 2.97971 14 3.33333 14H12.6667C13.0203 14 13.3594 13.8595 13.6095 13.6095C13.8595 13.3594 14 13.0203 14 12.6667V3.33333C14 2.97971 13.8595 2.64057 13.6095 2.39052C13.3594 2.14048 13.0203 2 12.6667 2H3.33333ZM3.33333 3.33333H12.6667V12.6667H3.33333V3.33333ZM11.3 6.53C11.3637 6.4685 11.4145 6.39494 11.4494 6.3136C11.4843 6.23227 11.5027 6.14479 11.5035 6.05627C11.5043 5.96775 11.4874 5.87996 11.4539 5.79803C11.4204 5.7161 11.3709 5.64166 11.3083 5.57907C11.2457 5.51647 11.1712 5.46697 11.0893 5.43345C11.0074 5.39993 10.9196 5.38306 10.8311 5.38383C10.7425 5.3846 10.6551 5.40299 10.5737 5.43793C10.4924 5.47287 10.4188 5.52366 10.3573 5.58733L7.05733 8.88733L5.64333 7.47333C5.58144 7.41139 5.50795 7.36225 5.42706 7.32871C5.34617 7.29517 5.25947 7.2779 5.1719 7.27787C4.99506 7.2778 4.82543 7.34799 4.70033 7.473C4.57524 7.59801 4.50493 7.76758 4.50487 7.94443C4.5048 8.12128 4.57499 8.29091 4.7 8.416L6.53867 10.2547C6.60677 10.3228 6.68763 10.3768 6.77662 10.4137C6.86561 10.4506 6.961 10.4696 7.05733 10.4696C7.15367 10.4696 7.24905 10.4506 7.33805 10.4137C7.42704 10.3768 7.5079 10.3228 7.576 10.2547L11.3 6.53Z"
        fill="#4E5969" />
</svg>