<svg width="16" height="16" viewBox="0 0 16 16" fill="none" xmlns="http://www.w3.org/2000/svg">
<path d="M13.8525 1.25488C14.3567 1.30621 14.75 1.73232 14.75 2.25V13.75L14.7451 13.8525C14.6972 14.323 14.323 14.6972 13.8525 14.7451L13.75 14.75H2.25C1.73232 14.75 1.30621 14.3567 1.25488 13.8525L1.25 13.75V2.25C1.25 1.69772 1.69772 1.25 2.25 1.25H13.75L13.8525 1.25488ZM11.6475 8.79102C11.0828 8.15585 10.076 8.20355 9.57324 8.88867L6.25 13.4199H13.4199V10.7852L11.6475 8.79102ZM2.58008 13.4199H4.60059L8.5 8.10254C9.50354 6.73407 11.5142 6.63985 12.6416 7.9082L13.4199 8.7832V2.58008H2.58008V13.4199ZM5.75 4C6.7165 4 7.5 4.7835 7.5 5.75C7.5 6.7165 6.7165 7.5 5.75 7.5C4.7835 7.5 4 6.7165 4 5.75C4 4.7835 4.7835 4 5.75 4ZM5.75 5.09961C5.39102 5.09961 5.09961 5.39102 5.09961 5.75C5.09961 6.10898 5.39102 6.40039 5.75 6.40039C6.10898 6.40039 6.40039 6.10898 6.40039 5.75C6.40039 5.39102 6.10898 5.09961 5.75 5.09961Z" fill="#4E5969"/>
</svg>
