<svg width="16" height="16" viewBox="0 0 16 16" fill="none" xmlns="http://www.w3.org/2000/svg">
<path d="M3.5 2C4.05228 2 4.5 2.44772 4.5 3V5C4.5 5.55228 4.05228 6 3.5 6H2.5C1.94772 6 1.5 5.55228 1.5 5V3C1.5 2.44772 1.94772 2 2.5 2H3.5ZM2.5 5H3.5V3H2.5V5ZM8.5 2C9.05228 2 9.5 2.44772 9.5 3V5C9.5 5.55228 9.05228 6 8.5 6H7.5C6.94772 6 6.5 5.55228 6.5 5V3C6.5 2.44772 6.94772 2 7.5 2H8.5ZM7.5 5H8.5V3H7.5V5ZM13.5 2C14.0523 2 14.5 2.44772 14.5 3V5C14.5 5.55228 14.0523 6 13.5 6H12.5C11.9477 6 11.5 5.55228 11.5 5V3C11.5 2.44772 11.9477 2 12.5 2H13.5ZM12.5 5H13.5V3H12.5V5ZM3.5 7C4.05228 7 4.5 7.44772 4.5 8V10C4.5 10.5523 4.05228 11 3.5 11H2.5C1.94772 11 1.5 10.5523 1.5 10V8C1.5 7.44772 1.94772 7 2.5 7H3.5ZM2.5 10H3.5V8H2.5V10ZM8.5 7C9.05228 7 9.5 7.44772 9.5 8V10C9.5 10.5523 9.05228 11 8.5 11H7.5C6.94772 11 6.5 10.5523 6.5 10V8C6.5 7.44772 6.94772 7 7.5 7H8.5ZM7.5 10H8.5V8H7.5V10ZM13.5 7C14.0523 7 14.5 7.44772 14.5 8V10C14.5 10.5523 14.0523 11 13.5 11H12.5C11.9477 11 11.5 10.5523 11.5 10V8C11.5 7.44772 11.9477 7 12.5 7H13.5ZM12.5 10H13.5V8H12.5V10ZM3.5 12C4.05228 12 4.5 12.4477 4.5 13V14C4.5 14.5523 4.05228 15 3.5 15H2.5C1.94772 15 1.5 14.5523 1.5 14V13C1.5 12.4477 1.94772 12 2.5 12H3.5ZM2.5 14H3.5V13H2.5V14ZM8.5 12C9.05228 12 9.5 12.4477 9.5 13V14C9.5 14.5523 9.05228 15 8.5 15H7.5C6.94772 15 6.5 14.5523 6.5 14V13C6.5 12.4477 6.94772 12 7.5 12H8.5ZM7.5 14H8.5V13H7.5V14ZM13.5 12C14.0523 12 14.5 12.4477 14.5 13V14C14.5 14.5523 14.0523 15 13.5 15H12.5C11.9477 15 11.5 14.5523 11.5 14V13C11.5 12.4477 11.9477 12 12.5 12H13.5ZM12.5 14H13.5V13H12.5V14Z" fill="#4E5969"/>
</svg>
