<svg width="68" height="48" viewBox="0 0 68 48" fill="none" xmlns="http://www.w3.org/2000/svg">
<rect x="0.5" y="0.5" width="67" height="47" rx="3.5" fill="#F2F3F5"/>
<rect x="0.5" y="0.5" width="67" height="47" rx="3.5" stroke="#E5E6EB"/>
<rect x="4" y="6" width="60" height="36" rx="1.71429" fill="white"/>
<g clip-path="url(#clip0_741_2048)">
<path d="M8.71429 7.44C8.71429 6.64471 9.359 6 10.1543 6H57.6743C58.4696 6 59.1143 6.64471 59.1143 7.44V40.56C59.1143 41.3553 58.4696 42 57.6743 42H10.1543C9.359 42 8.71429 41.3553 8.71429 40.56V7.44Z" fill="white"/>
<rect x="28.1543" y="11.0398" width="3.6" height="3.6" rx="0.72" fill="#A9AEB8"/>
<rect x="28.1543" y="22.2" width="3.6" height="3.6" rx="0.72" fill="#4FAE7B"/>
<rect x="28.1543" y="33.3599" width="3.6" height="3.6" rx="0.72" fill="#C9CDD4"/>
<rect x="30.3143" y="16.4402" width="4.32" height="0.72" rx="0.36" transform="rotate(90 30.3143 16.4402)" fill="#A9AEB8"/>
<rect x="30.3143" y="27.5999" width="4.32" height="0.72" rx="0.36" transform="rotate(90 30.3143 27.5999)" fill="#C9CDD4"/>
<rect x="33.1943" y="9.96021" width="20.88" height="5.76" rx="1.44" fill="#A9AEB8"/>
<rect x="15.5543" y="11.0398" width="11.16" height="3.6" rx="0.72" fill="#A9AEB8"/>
<rect x="33.1943" y="22.2" width="20.88" height="3.6" rx="0.72" fill="#4FAE7B"/>
<rect x="19.1543" y="33.3599" width="7.56" height="3.6" rx="1.44" fill="#E5E6EB"/>
<rect x="16.9943" y="22.2" width="9.72" height="2.88" rx="0.72" fill="#C4EFD2"/>
<rect x="33.1943" y="34.0801" width="20.88" height="2.88" rx="0.72" fill="#E5E6EB"/>
</g>
<defs>
<clipPath id="clip0_741_2048">
<rect width="50.4" height="36" fill="white" transform="translate(8.71429 6)"/>
</clipPath>
</defs>
</svg>
