<svg width="16" height="16" viewBox="0 0 16 16" fill="none" xmlns="http://www.w3.org/2000/svg">
<path d="M10 1C10.5523 1 11 1.44772 11 2V3.33496C11 3.70225 10.7023 4 10.335 4C9.96767 4 9.66992 3.70225 9.66992 3.33496V2.33008H2.33008V13.6699H4.83496C5.20225 13.6699 5.5 13.9677 5.5 14.335C5.5 14.7023 5.20225 15 4.83496 15H2C1.44772 15 1 14.5523 1 14V2C1 1.44772 1.44772 1 2 1H10ZM10 5C12.7614 5 15 7.23858 15 10C15 12.7614 12.7614 15 10 15C7.23858 15 5 12.7614 5 10C5 7.23858 7.23858 5 10 5ZM10 6.33008C7.97311 6.33008 6.33008 7.97311 6.33008 10C6.33008 12.0269 7.97311 13.6699 10 13.6699C12.0269 13.6699 13.6699 12.0269 13.6699 10C13.6699 7.97311 12.0269 6.33008 10 6.33008ZM10 7.33496C10.3673 7.33496 10.665 7.63273 10.665 8V9.83496H12C12.3673 9.83496 12.665 10.1327 12.665 10.5C12.665 10.8673 12.3673 11.165 12 11.165H10C9.82363 11.165 9.65401 11.0954 9.5293 10.9707C9.40459 10.846 9.33496 10.6764 9.33496 10.5V8C9.33496 7.63273 9.63273 7.33496 10 7.33496Z" fill="#4E5969"/>
</svg>
