<svg width="16" height="16" viewBox="0 0 16 16" fill="none" xmlns="http://www.w3.org/2000/svg">
<path d="M12.6667 3.33301C13.0031 3.3329 13.327 3.45995 13.5737 3.68867C13.8204 3.9174 13.9714 4.2309 13.9967 4.56634L14 4.66634V12.6663C14.0001 13.0027 13.8731 13.3267 13.6443 13.5734C13.4156 13.82 13.1021 13.9711 12.7667 13.9963L12.6667 13.9997H3.33333C2.99695 13.9998 2.67296 13.8727 2.4263 13.644C2.17965 13.4153 2.02856 13.1018 2.00333 12.7663L2 12.6663V4.66634C1.99989 4.32996 2.12694 4.00596 2.35566 3.75931C2.58439 3.51266 2.8979 3.36157 3.23333 3.33634L3.33333 3.33301H12.6667ZM12.6667 4.66634H3.33333V12.6663H3.95333L9.492 7.12768C9.64826 6.97155 9.86011 6.88385 10.081 6.88385C10.3019 6.88385 10.5137 6.97155 10.67 7.12768L12.6667 9.12367V4.66634ZM10.0807 8.42367L5.838 12.6663H12.6667V11.0097L10.0807 8.42367ZM5.66667 5.99967C5.93188 5.99967 6.18624 6.10503 6.37377 6.29257C6.56131 6.4801 6.66667 6.73446 6.66667 6.99967C6.66667 7.26489 6.56131 7.51925 6.37377 7.70678C6.18624 7.89432 5.93188 7.99967 5.66667 7.99967C5.40145 7.99967 5.1471 7.89432 4.95956 7.70678C4.77202 7.51925 4.66667 7.26489 4.66667 6.99967C4.66667 6.73446 4.77202 6.4801 4.95956 6.29257C5.1471 6.10503 5.40145 5.99967 5.66667 5.99967ZM12 1.33301C12.1768 1.33301 12.3464 1.40325 12.4714 1.52827C12.5964 1.65329 12.6667 1.82286 12.6667 1.99967C12.6667 2.17649 12.5964 2.34605 12.4714 2.47108C12.3464 2.5961 12.1768 2.66634 12 2.66634H4C3.82319 2.66634 3.65362 2.5961 3.5286 2.47108C3.40357 2.34605 3.33333 2.17649 3.33333 1.99967C3.33333 1.82286 3.40357 1.65329 3.5286 1.52827C3.65362 1.40325 3.82319 1.33301 4 1.33301H12Z" fill="#4E5969"/>
</svg>
