<svg width="16" height="16" viewBox="0 0 16 16" fill="none" xmlns="http://www.w3.org/2000/svg">
<path fill-rule="evenodd" clip-rule="evenodd" d="M7.99968 1.33301C11.6817 1.33301 14.6663 4.31767 14.6663 7.99967C14.6686 9.53826 14.1366 11.0299 13.161 12.2197L13.1743 12.2343L13.0863 12.309C12.4611 13.0484 11.682 13.6424 10.8034 14.0496C9.92486 14.4568 8.96801 14.6672 7.99968 14.6663C6.03301 14.6663 4.26635 13.815 3.04635 12.4617L2.91301 12.3083L2.82501 12.235L2.83835 12.219C1.86295 11.0294 1.33087 9.53803 1.33301 7.99967C1.33301 4.31767 4.31768 1.33301 7.99968 1.33301ZM7.99968 11.333C6.75968 11.333 5.63901 11.7277 4.80435 12.2703C5.72607 12.9616 6.84753 13.3346 7.99968 13.333C9.15184 13.3346 10.2733 12.9616 11.195 12.2703C10.2412 11.6593 9.13243 11.334 7.99968 11.333ZM7.99968 2.66634C6.99603 2.66631 6.01274 2.94948 5.16283 3.48331C4.31292 4.01713 3.63088 4.77994 3.19512 5.68406C2.75936 6.58817 2.58755 7.5969 2.69945 8.59429C2.81135 9.59169 3.20241 10.5373 3.82768 11.3223C4.90835 10.547 6.38301 9.99967 7.99968 9.99967C9.61635 9.99967 11.091 10.547 12.1717 11.3223C12.797 10.5373 13.188 9.59169 13.2999 8.59429C13.4118 7.5969 13.24 6.58817 12.8042 5.68406C12.3685 4.77994 11.6864 4.01713 10.8365 3.48331C9.98662 2.94948 9.00333 2.66631 7.99968 2.66634ZM7.99968 3.99967C8.70692 3.99967 9.3852 4.28063 9.8853 4.78072C10.3854 5.28082 10.6663 5.9591 10.6663 6.66634C10.6663 7.37359 10.3854 8.05186 9.8853 8.55196C9.3852 9.05206 8.70692 9.33301 7.99968 9.33301C7.29244 9.33301 6.61416 9.05206 6.11406 8.55196C5.61397 8.05186 5.33301 7.37359 5.33301 6.66634C5.33301 5.9591 5.61397 5.28082 6.11406 4.78072C6.61416 4.28063 7.29244 3.99967 7.99968 3.99967ZM7.99968 5.33301C7.64606 5.33301 7.30692 5.47348 7.05687 5.72353C6.80682 5.97358 6.66635 6.31272 6.66635 6.66634C6.66635 7.01996 6.80682 7.3591 7.05687 7.60915C7.30692 7.8592 7.64606 7.99967 7.99968 7.99967C8.3533 7.99967 8.69244 7.8592 8.94249 7.60915C9.19254 7.3591 9.33301 7.01996 9.33301 6.66634C9.33301 6.31272 9.19254 5.97358 8.94249 5.72353C8.69244 5.47348 8.3533 5.33301 7.99968 5.33301Z" fill="#4E5969"/>
</svg>
