<svg width="68" height="48" viewBox="0 0 68 48" fill="none" xmlns="http://www.w3.org/2000/svg">
<rect x="0.5" y="0.5" width="67" height="47" rx="3.5" fill="#F2F3F5"/>
<rect x="0.5" y="0.5" width="67" height="47" rx="3.5" stroke="#E5E6EB"/>
<rect x="4" y="6" width="60" height="36" rx="1.71429" fill="white"/>
<rect width="50.4" height="36" transform="translate(8.71428 6)" fill="white"/>
<path d="M13.7543 11.7601C13.7543 10.9648 14.399 10.3201 15.1943 10.3201H52.6343C53.4296 10.3201 54.0743 10.9648 54.0743 11.7601V35.8801C54.0743 36.6754 53.4296 37.3201 52.6343 37.3201H15.1943C14.399 37.3201 13.7543 36.6754 13.7543 35.8801V11.7601Z" fill="#F2F3F5"/>
<path d="M53.3545 11.7597C53.3543 11.3623 53.032 11.04 52.6346 11.0398H15.194C14.7966 11.04 14.4743 11.3623 14.4742 11.7597V35.8802C14.4743 36.2777 14.7966 36.6 15.194 36.6001H52.6346C53.032 36.5999 53.3543 36.2777 53.3545 35.8802V11.7597ZM54.7942 35.8802C54.794 37.0729 53.8273 38.0397 52.6346 38.0398H15.194C14.0013 38.0397 13.0346 37.073 13.0344 35.8802V11.7597C13.0346 10.567 14.0013 9.60024 15.194 9.6001H52.6346C53.8273 9.60026 54.794 10.567 54.7942 11.7597V35.8802Z" fill="#C9CDD4"/>
<path d="M13.7543 15.3599H54.0743V35.8799C54.0743 36.6752 53.4296 37.3199 52.6343 37.3199H15.1943C14.399 37.3199 13.7543 36.6752 13.7543 35.8799V15.3599Z" fill="#F2F3F5"/>
<path d="M53.3545 16.0799H14.4742V35.8804C14.4744 36.2778 14.7966 36.6001 15.194 36.6002H52.6346C53.032 36.6001 53.3543 36.2777 53.3545 35.8804V16.0799ZM54.7942 35.8804C54.794 37.073 53.8273 38.0398 52.6346 38.04H15.194C14.0013 38.0398 13.0346 37.073 13.0344 35.8804V14.6401H54.7942V35.8804Z" fill="#C9CDD4"/>
<circle cx="16.2743" cy="12.84" r="1.08" fill="#4FAE7B"/>
<circle cx="19.1543" cy="12.84" r="1.08" fill="#A2DFB8"/>
<circle cx="22.0343" cy="12.84" r="1.08" fill="#A2DFB8"/>
<path d="M37.1543 25.7999C37.1543 25.3103 37.1111 24.8351 37.0535 24.3599H39.4871C39.6023 24.8207 39.6743 25.3031 39.6743 25.7999C39.6743 26.0663 39.6527 26.3255 39.6167 26.5775C40.1135 26.6495 40.5743 26.8079 40.9991 27.0383C41.0711 26.6351 41.1143 26.2247 41.1143 25.7999C41.1143 21.8399 37.8743 18.5999 33.9143 18.5999C29.9327 18.5999 26.7143 21.8399 26.7143 25.7999C26.7143 29.7599 29.9543 32.9999 33.9143 32.9999C34.3391 32.9999 34.7495 32.9567 35.1527 32.8847C34.8107 32.2575 34.6324 31.5542 34.6343 30.8399C34.6343 30.6311 34.6559 30.4295 34.6847 30.2279C34.4543 30.6815 34.2023 31.1207 33.9143 31.5311C33.3167 30.6671 32.8343 29.7095 32.5391 28.6799H35.2175C35.6499 27.9284 36.3001 27.3259 37.0823 26.9519C37.1255 26.5703 37.1543 26.1887 37.1543 25.7999ZM33.9143 20.0615C34.5119 20.9255 34.9943 21.8903 35.2895 22.9199H32.5391C32.8343 21.8903 33.3167 20.9255 33.9143 20.0615ZM28.3415 27.2399C28.2263 26.7791 28.1543 26.2967 28.1543 25.7999C28.1543 25.3031 28.2263 24.8207 28.3415 24.3599H30.7751C30.7175 24.8351 30.6743 25.3103 30.6743 25.7999C30.6743 26.2895 30.7175 26.7647 30.7751 27.2399H28.3415ZM28.9319 28.6799H31.0343C31.2863 29.5799 31.6103 30.4439 32.0423 31.2431C30.7306 30.7911 29.6262 29.881 28.9319 28.6799ZM31.0343 22.9199H28.9319C29.6221 21.7153 30.728 20.8039 32.0423 20.3567C31.6103 21.1559 31.2863 22.0199 31.0343 22.9199ZM35.5991 27.2399H32.2295C32.1575 26.7647 32.1143 26.2895 32.1143 25.7999C32.1143 25.3103 32.1575 24.8279 32.2295 24.3599H35.5991C35.6639 24.8279 35.7143 25.3103 35.7143 25.7999C35.7143 26.2895 35.6639 26.7647 35.5991 27.2399ZM35.7791 20.3567C37.1039 20.8103 38.2055 21.7247 38.8967 22.9199H36.7727C36.547 22.0282 36.2133 21.1674 35.7791 20.3567Z" fill="#A2DFB8"/>
<path d="M41.8343 31.5602V30.1202H39.6743V27.9602H38.2343V30.1202H36.0743V31.5602H38.2343V33.7202H39.6743V31.5602H41.8343Z" fill="#4FAE7B"/>
</svg>
