<svg width="16" height="16" viewBox="0 0 16 16" fill="none" xmlns="http://www.w3.org/2000/svg">
<path d="M8 1C11.866 1 15 4.13401 15 8C15 11.866 11.866 15 8 15H1.99902L1.89746 14.9951C1.42658 14.9476 1.05243 14.5743 1.00488 14.1035L1 14.002V8C1 4.13401 4.13401 1 8 1ZM8 2.33008C4.86855 2.33008 2.33008 4.86855 2.33008 8V13.6699H8C11.1315 13.6699 13.6699 11.1315 13.6699 8C13.6699 4.86855 11.1315 2.33008 8 2.33008ZM8.58594 5.27344C8.90523 5.27344 9.16406 5.53227 9.16406 5.85156V10.4219C9.16406 10.7412 8.90523 11 8.58594 11C8.26665 11 8.00781 10.7412 8.00781 10.4219V8.49609H5.74219V10.4219C5.74219 10.7412 5.48335 11 5.16406 11C4.84477 11 4.58594 10.7412 4.58594 10.4219V5.85156C4.58594 5.53227 4.84477 5.27344 5.16406 5.27344C5.48335 5.27344 5.74219 5.53227 5.74219 5.85156V7.52734H8.00781V5.85156C8.00781 5.53227 8.26665 5.27344 8.58594 5.27344ZM10.9062 5.27344C11.2255 5.27344 11.4844 5.53227 11.4844 5.85156V10.4219C11.4844 10.7412 11.2255 11 10.9062 11C10.587 11 10.3281 10.7412 10.3281 10.4219V5.85156C10.3281 5.53227 10.587 5.27344 10.9062 5.27344Z" fill="#4E5969"/>
</svg>
