<svg width="22" height="22" viewBox="0 0 22 22" fill="none" xmlns="http://www.w3.org/2000/svg">
<path d="M0 4C0 1.79086 1.79086 0 4 0H18C20.2091 0 22 1.79086 22 4V18C22 20.2091 20.2091 22 18 22H4C1.79086 22 0 20.2091 0 18V4Z" fill="#7E5AEA"/>
<g clip-path="url(#clip0_7423_60730)">
<g filter="url(#filter0_d_7423_60730)">
<path d="M10.334 4.36621V11.6666H17.6344C17.2999 15.0355 14.4575 17.6666 11.0007 17.6666C7.31875 17.6666 4.33398 14.6819 4.33398 10.9999C4.33398 7.54306 6.9651 4.70069 10.334 4.36621ZM11.6673 4.36621C14.8169 4.67892 17.3217 7.18368 17.6344 10.3333H11.6673V4.36621Z" fill="url(#paint0_linear_7423_60730)" shape-rendering="crispEdges"/>
<path d="M10.001 12H17.2539C16.7745 15.0223 14.1582 17.3328 11.001 17.333C7.50319 17.333 4.66703 14.4978 4.66699 11C4.66699 7.8425 6.97839 5.22531 10.001 4.74609V12ZM12.001 4.74609C14.6974 5.1739 16.8263 7.30355 17.2539 10H12.001V4.74609Z" stroke="white" stroke-width="0.666667" shape-rendering="crispEdges"/>
</g>
</g>
<defs>
<filter id="filter0_d_7423_60730" x="1.66732" y="3.03288" width="18.6341" height="18.6337" filterUnits="userSpaceOnUse" color-interpolation-filters="sRGB">
<feFlood flood-opacity="0" result="BackgroundImageFix"/>
<feColorMatrix in="SourceAlpha" type="matrix" values="0 0 0 0 0 0 0 0 0 0 0 0 0 0 0 0 0 0 127 0" result="hardAlpha"/>
<feOffset dy="1.33333"/>
<feGaussianBlur stdDeviation="1.33333"/>
<feComposite in2="hardAlpha" operator="out"/>
<feColorMatrix type="matrix" values="0 0 0 0 0 0 0 0 0 0 0 0 0 0 0 0 0 0 0.05 0"/>
<feBlend mode="normal" in2="BackgroundImageFix" result="effect1_dropShadow_7423_60730"/>
<feBlend mode="normal" in="SourceGraphic" in2="effect1_dropShadow_7423_60730" result="shape"/>
</filter>
<linearGradient id="paint0_linear_7423_60730" x1="10.9842" y1="4.23295" x2="10.9842" y2="17.6666" gradientUnits="userSpaceOnUse">
<stop stop-color="white"/>
<stop offset="1" stop-color="white" stop-opacity="0.8"/>
</linearGradient>
<clipPath id="clip0_7423_60730">
<rect width="16" height="16" fill="white" transform="translate(3 3)"/>
</clipPath>
</defs>
</svg>
