<svg width="48" height="48" viewBox="0 0 48 48" fill="none" xmlns="http://www.w3.org/2000/svg">
    <rect width="48" height="48" rx="10" fill="#C6ADF7" />
    <path
        d="M21.4688 15.1406H17.25V26.3467C17.25 29.1195 16.2991 29.8936 14.6443 29.8936C13.8688 29.8936 13.1705 29.7607 12.6272 29.5739L12.1875 32.8543C12.9627 33.1213 14.1524 33.2812 15.083 33.2812C18.8824 33.2812 21.4688 31.4951 21.4688 26.3741V15.1406ZM30.6689 14.7188C26.585 14.7188 24 17.039 24 20.1058C24 22.7469 25.9907 24.4005 28.8853 25.467C30.9789 26.2136 31.8064 26.8807 31.8064 27.9739C31.8064 29.1739 30.8498 29.9475 29.0406 29.9475C27.3603 29.9475 25.8349 29.3864 24.8011 28.8266V28.8256L24 32.1594C24.983 32.7204 26.8181 33.2802 28.8076 33.2802C33.59 33.2802 35.8125 30.7199 35.8125 27.7064C35.8125 25.1461 34.3909 23.4929 31.3154 22.3189C29.0405 21.4124 28.0844 20.9059 28.0844 19.7592C28.0844 18.8521 28.9117 18.0258 30.6179 18.0258C32.2973 18.0258 33.4521 18.5904 34.125 18.9376L35.1335 15.5626C34.0789 15.0995 32.6584 14.7188 30.6689 14.7188V14.7188Z"
        fill="white" />
</svg>