<?xml version="1.0" encoding="UTF-8"?>
<svg width="20px" height="20px" viewBox="0 0 20 20" version="1.1" xmlns="http://www.w3.org/2000/svg" xmlns:xlink="http://www.w3.org/1999/xlink">
    <title>编组 10备份</title>
    <g id="需求三" stroke="none" stroke-width="1" fill="none" fill-rule="evenodd">
        <g id="1、浮层和签入" transform="translate(-1030, -670)" fill="#666666" fill-rule="nonzero">
            <g id="编组-19" transform="translate(1015, 547)">
                <g id="编组-17" transform="translate(0, 116)">
                    <g id="编组-10备份" transform="translate(15, 7)">
                        <g id="编组" transform="translate(2, 3)">
                            <path d="M12.8913591,15 L2.49793497,15 C1.1205534,15 0,13.9077335 0,12.5655279 L0,2.43447213 C0,1.09186075 1.1205534,0 2.49793497,0 L12.2028764,0 C12.5762555,0 12.8788715,0.294976873 12.8788715,0.658930455 C12.8788715,1.02288404 12.5762555,1.31786091 12.2028764,1.31786091 L2.49793497,1.31786091 C1.86606273,1.31786091 1.35199013,1.81895642 1.35199013,2.43447213 L1.35199013,12.5655279 C1.35199013,13.1814493 1.86606273,13.6821391 2.49793497,13.6821391 L12.8909428,13.6821391 C13.5228151,13.6821391 14.0368877,13.1810436 14.0368877,12.5655279 L14.0368877,6.41605129 C14.0368877,6.0520977 14.3395037,5.75712083 14.7128828,5.75712083 C15.0862618,5.75712083 15.3888778,6.0520977 15.3888778,6.41605129 L15.3888778,12.5655279 C15.3888778,13.9081393 14.2687407,15 12.8913591,15 Z" id="路径"></path>
                            <path d="M11.6663262,5.26373448 C11.4794285,5.26373448 11.2937796,5.18907734 11.1601624,5.04179177 C10.9124918,4.76953664 10.9378832,4.35324191 11.2171891,4.11182342 L14.8756377,0.949444128 C15.1545273,0.707619897 15.5828518,0.73277611 15.8296899,1.00503124 C16.0773605,1.27728637 16.051969,1.69358111 15.7726632,1.93499959 L12.1142145,5.09737888 C11.9860086,5.20895886 11.8257511,5.26373448 11.6663262,5.26373448 Z M7.16746246,5.10305932 L3.33210622,5.10305932 C2.95872717,5.10305932 2.65611115,4.80808245 2.65611115,4.44412886 C2.65611115,4.08017528 2.95872717,3.78519841 3.33210622,3.78519841 L7.16746246,3.78519841 C7.54084151,3.78519841 7.84345753,4.08017528 7.84345753,4.44412886 C7.84345753,4.80808245 7.54084151,5.10305932 7.16746246,5.10305932 Z M8.96983847,8.4674998 L3.33210622,8.4674998 C2.95872717,8.4674998 2.65611115,8.17252292 2.65611115,7.80856934 C2.65611115,7.44461576 2.95872717,7.14963889 3.33210622,7.14963889 L8.96942221,7.14963889 C9.34280126,7.14963889 9.64541771,7.44461576 9.64541771,7.80856934 C9.64583353,8.17252292 9.34280126,8.4674998 8.96983847,8.4674998 Z M11.6734025,11.8319403 L3.33210622,11.8319403 C2.95872717,11.8319403 2.65611115,11.5369634 2.65611115,11.1730098 C2.65611115,10.8090562 2.95872717,10.5140794 3.33210622,10.5140794 L11.6734025,10.5140794 C12.0467815,10.5140794 12.3493975,10.8090562 12.3493975,11.1730098 C12.3493975,11.5369634 12.0467815,11.8319403 11.6734025,11.8319403 Z" id="形状"></path>
                        </g>
                    </g>
                </g>
            </g>
        </g>
    </g>
</svg>