<?xml version="1.0" encoding="UTF-8"?>
<svg width="20px" height="20px" viewBox="0 0 20 20" version="1.1" xmlns="http://www.w3.org/2000/svg" xmlns:xlink="http://www.w3.org/1999/xlink">
    <title>编组 19</title>
    <g id="需求四" stroke="none" stroke-width="1" fill="none" fill-rule="evenodd">
        <g id="1、浮层和签入备份-10" transform="translate(-431, -744)" fill="#409EFE" fill-rule="nonzero">
            <g id="编组-19" transform="translate(431, 744)">
                <g id="编组" transform="translate(2, 1)">
                    <path d="M8,0 C7.58518519,0 7.25,0.321746 7.25,0.719928896 L7.25,2.15978669 C7.25,2.55796958 7.58518519,2.87971558 8,2.87971558 C8.41481481,2.87971558 8.75,2.55796958 8.75,2.15978669 L8.75,0.719928896 C8.75,0.323523603 8.41481481,0 8,0 Z" id="路径"></path>
                    <path d="M8,2.87971558 C10.4814815,2.87971558 12.5,4.81730199 12.5,7.19928896 L12.5,10.1269998 C12.5,10.8113767 13.0018519,11.4015406 13.7018519,11.538416 C14.1648148,11.6290737 14.5,12.0237014 14.5,12.4787675 C14.5,12.9338337 14.1648148,13.3284614 13.7018519,13.4191191 C13.6722222,13.4244519 13.6425926,13.4315623 13.6148148,13.4386727 L2.38518519,13.4386727 C2.35740741,13.4315623 2.32777778,13.4244519 2.29814815,13.4191191 C1.83518519,13.3284614 1.5,12.9338337 1.5,12.4787675 C1.5,12.0237014 1.83518519,11.6290737 2.29814815,11.538416 C2.99814815,11.4015406 3.5,10.8113767 3.5,10.1269998 L3.5,7.19928896 C3.5,4.8190796 5.51851852,2.87971558 8,2.87971558 M8,1.43985779 C4.68703704,1.43985779 2,4.0191586 2,7.19928896 L2,10.1269998 C0.859259259,10.3492001 0,11.3179933 0,12.4787675 C0,13.6395418 0.859259259,14.608335 2,14.8305353 L2,14.8785305 L14,14.8785305 L14,14.8305353 C15.1407407,14.608335 16,13.6395418 16,12.4787675 C16,11.3179933 15.1407407,10.3509777 14,10.1287774 L14,7.19928896 C14,4.0191586 11.312963,1.43985779 8,1.43985779 Z" id="形状" stroke="#FFFFFF" stroke-width="0.2"></path>
                    <path d="M8,18 C6.63888889,18 5.35,17.5022714 4.36851852,16.5992495 C4.07037037,16.3237211 4.05925926,15.8686549 4.3462963,15.5806834 C4.63333333,15.2927118 5.10740741,15.2838238 5.40740741,15.5593522 C6.10740741,16.2046218 7.02962963,16.5583646 8,16.5583646 C8.92407407,16.5583646 9.81111111,16.2330634 10.5,15.6428995 C10.8092593,15.3762591 11.2833333,15.4029232 11.5592593,15.6997827 C11.8351852,15.9966423 11.8092593,16.4517085 11.5,16.7165712 C10.537037,17.5431562 9.29444444,18 8,18 L8,18 Z" id="路径" stroke="#FFFFFF" stroke-width="0.2"></path>
                </g>
            </g>
        </g>
    </g>
</svg>
