<?xml version="1.0" encoding="UTF-8"?>
<svg width="20px" height="20px" viewBox="0 0 20 20" version="1.1" xmlns="http://www.w3.org/2000/svg" xmlns:xlink="http://www.w3.org/1999/xlink">
    <title>编组 6</title>
    <g id="需求三" stroke="none" stroke-width="1" fill="none" fill-rule="evenodd">
        <g id="1、浮层和签入" transform="translate(-1030, -562)" fill="#409EFE" fill-rule="nonzero">
            <g id="编组-19" transform="translate(1015, 547)">
                <g id="编组-15" transform="translate(0, 8)">
                    <g id="编组-6" transform="translate(15, 7)">
                        <g id="编组" transform="translate(1, 3)">
                            <path d="M13.5595655,4.68678342 L4.44017379,4.68678342 C4.11624138,4.68678342 3.85364229,4.4357052 3.85364229,4.12598451 C3.85364229,3.81626383 4.11624138,3.5651856 4.44017379,3.5651856 L13.5595655,3.5651856 C13.8834979,3.5651856 14.146097,3.81626383 14.146097,4.12598451 C14.146097,4.4357052 13.8834979,4.68678342 13.5595655,4.68678342 L13.5595655,4.68678342 Z M9.47131064,7.57801336 L4.44017379,7.57801336 C4.11624138,7.57801336 3.85364229,7.32693514 3.85364229,7.01721445 C3.85364229,6.70749376 4.11624138,6.45641554 4.44017379,6.45641554 L9.47131064,6.45641554 C9.79524305,6.45641554 10.0578421,6.70749376 10.0578421,7.01721445 C10.0578421,7.32693514 9.79524305,7.57801336 9.47131064,7.57801336 Z" id="形状"></path>
                            <path d="M5.2112672,15 C4.44894009,14.9983553 3.83137985,14.4078889 3.82965967,13.679007 L3.82965967,12.3330896 L3.08828385,12.3330896 C1.38253078,12.331302 0.000574271881,11.0089716 0,9.37805324 L0,2.95279319 C0.00186768736,1.3227508 1.383446,0.00178574729 3.08828385,0 L14.9117161,0 C16.616554,0.00178574729 17.9981323,1.3227508 18,2.95279319 L18,9.37805324 C17.9981323,11.0080956 16.616554,12.3290607 14.9117161,12.3308464 L9.69810282,12.3308464 C9.56024259,12.3305713 9.42592682,12.3725927 9.31490224,12.4507328 L6.0243302,14.7452727 C5.78843526,14.9105026 5.50368846,14.999712 5.2112672,15 L5.2112672,15 Z M3.08828385,1.12159782 C2.0310725,1.12283381 1.1743557,1.94196432 1.173063,2.95279319 L1.173063,9.37805324 C1.1743557,10.3888821 2.0310725,11.2080126 3.08828385,11.2092486 L3.93549602,11.2092486 C4.52394182,11.2104823 5.00065032,11.6662764 5.00194062,12.2289057 L5.00194062,13.67801 C5.00207561,13.7529159 5.04610658,13.8214301 5.11593514,13.8553909 C5.18576369,13.8893517 5.26960807,13.883029 5.33300507,13.8390216 L8.62435916,11.543734 C8.93574734,11.32568 9.31187176,11.2084838 9.69784214,11.2092486 L14.9114555,11.2092486 C15.9686668,11.2080126 16.8253836,10.3888821 16.8266763,9.37805324 L16.8266763,2.95279319 C16.8253836,1.94196432 15.9686668,1.12283381 14.9114555,1.12159782 L3.08828385,1.12159782 Z" id="形状"></path>
                        </g>
                    </g>
                </g>
            </g>
        </g>
    </g>
</svg>
