<svg width="16" height="16" viewBox="0 0 16 16" fill="none" xmlns="http://www.w3.org/2000/svg">
<path fill-rule="evenodd" clip-rule="evenodd" d="M3.33301 3.33301C3.33301 2.80257 3.54372 2.29387 3.91879 1.91879C4.29387 1.54372 4.80257 1.33301 5.33301 1.33301H10.6663C11.1968 1.33301 11.7055 1.54372 12.0806 1.91879C12.4556 2.29387 12.6663 2.80257 12.6663 3.33301V12.6663C12.6663 13.1968 12.4556 13.7055 12.0806 14.0806C11.7055 14.4556 11.1968 14.6663 10.6663 14.6663H5.33301C4.80257 14.6663 4.29387 14.4556 3.91879 14.0806C3.54372 13.7055 3.33301 13.1968 3.33301 12.6663V3.33301ZM5.33301 2.66634C5.1562 2.66634 4.98663 2.73658 4.8616 2.8616C4.73658 2.98663 4.66634 3.1562 4.66634 3.33301V12.6663C4.66634 12.8432 4.73658 13.0127 4.8616 13.1377C4.98663 13.2628 5.1562 13.333 5.33301 13.333H10.6663C10.8432 13.333 11.0127 13.2628 11.1377 13.1377C11.2628 13.0127 11.333 12.8432 11.333 12.6663V3.33301C11.333 3.1562 11.2628 2.98663 11.1377 2.8616C11.0127 2.73658 10.8432 2.66634 10.6663 2.66634H5.33301ZM6.33301 3.99967C6.33301 3.82286 6.40325 3.65329 6.52827 3.52827C6.65329 3.40325 6.82286 3.33301 6.99967 3.33301H8.99967C9.17649 3.33301 9.34606 3.40325 9.47108 3.52827C9.5961 3.65329 9.66634 3.82286 9.66634 3.99967C9.66634 4.17649 9.5961 4.34605 9.47108 4.47108C9.34606 4.5961 9.17649 4.66634 8.99967 4.66634H6.99967C6.82286 4.66634 6.65329 4.5961 6.52827 4.47108C6.40325 4.34605 6.33301 4.17649 6.33301 3.99967ZM6.99967 11.6663C6.99967 11.4011 7.10503 11.1468 7.29257 10.9592C7.4801 10.7717 7.73446 10.6663 7.99967 10.6663C8.26489 10.6663 8.51925 10.7717 8.70678 10.9592C8.89432 11.1468 8.99967 11.4011 8.99967 11.6663C8.99967 11.9316 8.89432 12.1859 8.70678 12.3734C8.51925 12.561 8.26489 12.6663 7.99967 12.6663C7.73446 12.6663 7.4801 12.561 7.29257 12.3734C7.10503 12.1859 6.99967 11.9316 6.99967 11.6663Z" fill="#86909C"/>
</svg>
