<svg width="24" height="24" viewBox="0 0 24 24" fill="none" xmlns="http://www.w3.org/2000/svg">
<path fill-rule="evenodd" clip-rule="evenodd" d="M16 4H10V10H16.1738C16.5859 8.83532 17.6941 8 19 8C20.6569 8 22 9.34315 22 11C22 12.6569 20.6569 14 19 14C17.6941 14 16.5859 13.1647 16.1738 12H10V17C10 17.5523 10.4477 18 11 18H16.1738C16.5859 16.8353 17.6941 16 19 16C20.6569 16 22 17.3431 22 19C22 20.6569 20.6569 22 19 22C17.6941 22 16.5859 21.1647 16.1738 20H11C9.34315 20 8 18.6569 8 17V4H2V2H16V4ZM19 18C18.4477 18 18 18.4477 18 19C18 19.5523 18.4477 20 19 20C19.5523 20 20 19.5523 20 19C20 18.4477 19.5523 18 19 18ZM19 10C18.4477 10 18 10.4477 18 11C18 11.5523 18.4477 12 19 12C19.5523 12 20 11.5523 20 11C20 10.4477 19.5523 10 19 10Z" fill="black"/>
</svg>
