<svg width="24" height="24" viewBox="0 0 24 24" fill="none" xmlns="http://www.w3.org/2000/svg">
<path d="M20 22H4V20H20V22Z" fill="black"/>
<path fill-rule="evenodd" clip-rule="evenodd" d="M19 13C19.5523 13 20 13.4477 20 14V18L19.9951 18.1025C19.9438 18.6067 19.5177 19 19 19H5L4.89746 18.9951C4.42703 18.9472 4.05278 18.573 4.00488 18.1025L4 18V14C4 13.4823 4.39333 13.0562 4.89746 13.0049L5 13H7.88184L10.1162 8.53027C10.1451 8.54571 10.1748 8.55948 10.2041 8.57422C8.89705 7.91619 8 6.56318 8 5C8 2.79086 9.79086 1 12 1C14.2091 1 16 2.79086 16 5C16 6.54933 15.1183 7.89128 13.8301 8.55566C13.8474 8.54672 13.8656 8.53946 13.8828 8.53027L16.1182 13H19ZM13.8818 13L12 9.23633L10.1182 13H13.8818ZM6 17H18V15H6V17ZM12 3C10.8954 3 10 3.89543 10 5C10 6.10457 10.8954 7 12 7C13.1046 7 14 6.10457 14 5C14 3.89543 13.1046 3 12 3Z" fill="black"/>
</svg>
