<svg width="24" height="24" viewBox="0 0 24 24" fill="none" xmlns="http://www.w3.org/2000/svg">
<path d="M21 20C21.5523 20 22 20.4477 22 21C22 21.5523 21.5523 22 21 22H3C2.44772 22 2 21.5523 2 21C2 20.4477 2.44772 20 3 20H21Z" fill="#4E5969"/>
<path d="M21 17.1533C21.5523 17.1533 22 17.601 22 18.1533C21.9997 18.7054 21.5521 19.1533 21 19.1533H3C2.44788 19.1533 2.00026 18.7054 2 18.1533C2 17.601 2.44772 17.1533 3 17.1533H21Z" fill="#4E5969"/>
<path d="M12 2C12.5523 2 13 2.44772 13 3V12.0859L14.293 10.793C14.6835 10.4024 15.3165 10.4024 15.707 10.793C16.0976 11.1835 16.0976 11.8165 15.707 12.207L12.707 15.207C12.6592 15.2548 12.6065 15.2976 12.5498 15.335C12.5121 15.3599 12.4727 15.3811 12.4326 15.4004C12.3874 15.4222 12.3407 15.4412 12.292 15.4561C12.2717 15.4622 12.251 15.4668 12.2305 15.4717C12.2191 15.4744 12.2078 15.4772 12.1963 15.4795C12.1859 15.4816 12.1754 15.4826 12.165 15.4844C12.1112 15.4933 12.0563 15.5 12 15.5C11.9433 15.5 11.8881 15.4934 11.834 15.4844C11.8236 15.4826 11.8131 15.4816 11.8027 15.4795C11.7912 15.4772 11.7799 15.4744 11.7686 15.4717C11.748 15.4668 11.7273 15.4623 11.707 15.4561C11.6584 15.4412 11.6116 15.4222 11.5664 15.4004C11.5266 15.3812 11.4877 15.3597 11.4502 15.335C11.3935 15.2976 11.3408 15.2548 11.293 15.207L8.29297 12.207C7.90244 11.8165 7.90244 11.1835 8.29297 10.793C8.68349 10.4024 9.31651 10.4024 9.70703 10.793L11 12.0859V3C11 2.44772 11.4477 2 12 2Z" fill="#4E5969"/>
</svg>
