<svg width="24" height="24" viewBox="0 0 24 24" fill="none" xmlns="http://www.w3.org/2000/svg">
<path d="M21 20C21.5523 20 22 20.4477 22 21C22 21.5523 21.5523 22 21 22H3C2.44772 22 2 21.5523 2 21C2 20.4477 2.44772 20 3 20H21Z" fill="#4E5969"/>
<path d="M21 17.1533C21.5523 17.1533 22 17.601 22 18.1533C21.9997 18.7054 21.5521 19.1533 21 19.1533H3C2.44788 19.1533 2.00026 18.7054 2 18.1533C2 17.601 2.44772 17.1533 3 17.1533H21Z" fill="#4E5969"/>
<path d="M12.0205 2.00098C12.0381 2.00133 12.0557 2.00165 12.0732 2.00293C12.0909 2.00421 12.1085 2.00562 12.126 2.00781C12.1378 2.0093 12.1494 2.01177 12.1611 2.01367C12.1802 2.01676 12.1991 2.02026 12.2178 2.02441C12.2269 2.02645 12.236 2.02895 12.2451 2.03125C12.3141 2.04866 12.3799 2.07357 12.4424 2.10449C12.4746 2.12042 12.5064 2.13761 12.5371 2.15723C12.5449 2.16219 12.5529 2.16671 12.5605 2.17188C12.6122 2.2069 12.6613 2.24722 12.707 2.29297L15.707 5.29297C16.0976 5.68349 16.0976 6.31651 15.707 6.70703C15.3165 7.09756 14.6835 7.09756 14.293 6.70703L13 5.41406V14.5C13 15.0523 12.5523 15.5 12 15.5C11.4477 15.5 11 15.0523 11 14.5V5.41406L9.70703 6.70703C9.31651 7.09756 8.68349 7.09756 8.29297 6.70703C7.90244 6.31651 7.90244 5.68349 8.29297 5.29297L11.293 2.29297C11.3548 2.23117 11.4248 2.17778 11.501 2.13379C11.5154 2.12546 11.5302 2.1179 11.5449 2.11035C11.6073 2.0784 11.6731 2.05257 11.7422 2.03418C11.7588 2.02976 11.7753 2.02503 11.792 2.02148C11.803 2.01916 11.8141 2.01758 11.8252 2.01562C11.8427 2.01252 11.8603 2.00998 11.8779 2.00781C11.8957 2.00565 11.9136 2.00415 11.9316 2.00293C11.9476 2.00184 11.9635 2.00131 11.9795 2.00098C11.9863 2.00084 11.9931 2 12 2C12.0069 2 12.0137 2.00084 12.0205 2.00098Z" fill="#4E5969"/>
</svg>
