<svg width="229" height="129" viewBox="0 0 229 129" fill="none" xmlns="http://www.w3.org/2000/svg">
<path d="M0 8C0 3.58173 3.58172 0 8 0H221C225.418 0 229 3.58172 229 8V121C229 125.418 225.418 129 221 129H8.00001C3.58173 129 0 125.418 0 121V8Z" fill="#F7F8FA"/>
<path d="M137.966 71.77L135.334 81.598L135.26 81.618L133.419 88.4886C132.847 90.6223 130.654 91.8887 128.521 91.3172L113.792 87.372L113.57 87.43L93.994 82.186L93.96 82.058L92.4315 81.6479C90.398 81.1022 89.1914 79.0118 89.736 76.978L89.8 76.996L99.458 40.952L99.394 40.934C99.9563 38.8385 102.111 37.5952 104.206 38.1569L134.622 46.308L134.654 46.196L140.212 47.6848C142.346 48.2565 143.612 50.4502 143.04 52.5843L137.932 71.64L137.966 71.77ZM139.264 51.496L103.218 41.838L96.102 68.398L132.144 78.054L139.264 51.496ZM106.968 59.284L109.356 63.374L115.57 57.524L118.736 63.056L127.106 55.678L129.2 72.796L101.556 65.384L106.968 59.284ZM108.754 55.26C107.184 54.838 106.25 53.222 106.672 51.652C107.094 50.082 108.708 49.146 110.28 49.568C111.85 49.99 112.784 51.606 112.362 53.176C111.94 54.746 110.326 55.682 108.754 55.26ZM125.91 41.934L124.952 41.68L117.362 39.646L124.695 37.6812C126.828 37.1095 129.022 38.3757 129.594 40.5094L130.29 43.108L125.91 41.934ZM89.734 51.118L92.218 60.388L90.184 67.976L85.9589 52.2034C85.3874 50.0696 86.6536 47.8765 88.7873 47.3047L96.26 45.302L95.086 49.682L89.734 51.118ZM100.479 90.9374C98.3455 91.5088 96.1525 90.2427 95.5807 88.1092L94.58 84.376L109.774 88.448L100.479 90.9374Z" fill="#E5E6EB"/>
</svg>
