<?xml version="1.0" encoding="UTF-8"?>
<!DOCTYPE svg PUBLIC "-//W3C//DTD SVG 1.1//EN" "http://www.w3.org/Graphics/SVG/1.1/DTD/svg11.dtd">
<svg xmlns="http://www.w3.org/2000/svg" version="1.1" width="128px" height="128px" style="shape-rendering:geometricPrecision; text-rendering:geometricPrecision; image-rendering:optimizeQuality; fill-rule:evenodd; clip-rule:evenodd" xmlns:xlink="http://www.w3.org/1999/xlink">
<g><path style="opacity:1" fill="#a896d5" d="M -0.5,-0.5 C 24.1667,-0.5 48.8333,-0.5 73.5,-0.5C 73.5,0.833333 73.5,2.16667 73.5,3.5C 71.5,3.5 69.5,3.5 67.5,3.5C 67.5,5.5 67.5,7.5 67.5,9.5C 61.5,9.5 55.5,9.5 49.5,9.5C 49.5,11.5 49.5,13.5 49.5,15.5C 45.8808,14.5964 42.7141,14.2631 40,14.5C 37.8975,16.3025 37.0642,18.6359 37.5,21.5C 35.5,21.5 33.5,21.5 31.5,21.5C 31.6646,24.5184 31.498,27.5184 31,30.5C 27.6064,29.5442 24.1064,29.2108 20.5,29.5C 20.67,30.8221 20.3366,31.9887 19.5,33C 15.8484,33.4986 12.1817,33.6653 8.5,33.5C 8.81864,35.7505 8.31864,37.7505 7,39.5C 4.6194,38.565 2.1194,38.2317 -0.5,38.5C -0.5,25.5 -0.5,12.5 -0.5,-0.5 Z"/></g>
<g><path style="opacity:1" fill="#ae9cd9" d="M 73.5,-0.5 C 91.5,-0.5 109.5,-0.5 127.5,-0.5C 127.5,15.5 127.5,31.5 127.5,47.5C 125.208,47.2436 123.041,47.5769 121,48.5C 120.316,47.2161 120.483,46.0495 121.5,45C 117.7,44.9173 113.7,44.584 109.5,44C 108.663,42.9887 108.33,41.8221 108.5,40.5C 107.5,40.5 106.5,40.5 105.5,40.5C 106.329,35.4989 104.329,33.3322 99.5,34C 98.944,34.3826 98.6107,34.8826 98.5,35.5C 97.2058,36.2899 96.0391,37.2899 95,38.5C 94.2825,37.5494 93.4491,37.3828 92.5,38C 93.8228,38.8159 94.4894,39.9826 94.5,41.5C 92.5,39.8333 90.5,38.1667 88.5,36.5C 79.0456,29.1408 68.3789,26.4741 56.5,28.5C 45.7109,30.211 37.0443,34.8777 30.5,42.5C 27.925,45.319 25.5917,48.319 23.5,51.5C 22.5206,48.3752 22.1872,45.0419 22.5,41.5C 24.5529,41.5979 26.2196,40.9313 27.5,39.5C 28.6246,37.623 28.2912,35.7897 26.5,34C 24.6131,33.2204 22.9464,33.3871 21.5,34.5C 19.4876,36.2082 19.1542,38.2082 20.5,40.5C 19.6236,40.3691 18.9569,40.7025 18.5,41.5C 19.4415,41.4895 20.1081,41.9895 20.5,43C 19.8392,45.464 19.3392,47.964 19,50.5C 18.4232,45.3793 17.4232,45.3793 16,50.5C 15.101,48.6316 13.601,47.6316 11.5,47.5C 10.3576,50.1261 8.0243,52.2927 4.5,54C 2.80343,54.3845 1.13676,54.2178 -0.5,53.5C -0.5,48.5 -0.5,43.5 -0.5,38.5C 2.1194,38.2317 4.6194,38.565 7,39.5C 8.31864,37.7505 8.81864,35.7505 8.5,33.5C 12.1817,33.6653 15.8484,33.4986 19.5,33C 20.3366,31.9887 20.67,30.8221 20.5,29.5C 24.1064,29.2108 27.6064,29.5442 31,30.5C 31.498,27.5184 31.6646,24.5184 31.5,21.5C 33.5,21.5 35.5,21.5 37.5,21.5C 37.0642,18.6359 37.8975,16.3025 40,14.5C 42.7141,14.2631 45.8808,14.5964 49.5,15.5C 49.5,13.5 49.5,11.5 49.5,9.5C 55.5,9.5 61.5,9.5 67.5,9.5C 67.5,7.5 67.5,5.5 67.5,3.5C 69.5,3.5 71.5,3.5 73.5,3.5C 73.5,2.16667 73.5,0.833333 73.5,-0.5 Z"/></g>
<g><path style="opacity:1" fill="#ebd5f4" d="M 88.5,36.5 C 87.4265,37.2506 87.2599,38.2506 88,39.5C 89.1667,41.1667 90.3333,42.8333 91.5,44.5C 90.4756,45.8518 89.4756,47.1851 88.5,48.5C 87.5,47.8333 86.5,47.1667 85.5,46.5C 81.6373,41.7301 76.6373,38.7301 70.5,37.5C 64.2962,36.2299 57.9629,36.2299 51.5,37.5C 49.2971,36.9484 48.4638,35.6151 49,33.5C 51.4256,31.5476 53.9256,29.881 56.5,28.5C 68.3789,26.4741 79.0456,29.1408 88.5,36.5 Z"/></g>
<g><path style="opacity:1" fill="#c088eb" d="M 21.5,34.5 C 22.9464,33.3871 24.6131,33.2204 26.5,34C 28.2912,35.7897 28.6246,37.623 27.5,39.5C 26.7659,38.2921 26.4326,36.9587 26.5,35.5C 24.7085,35.634 23.0418,35.3007 21.5,34.5 Z"/></g>
<g><path style="opacity:1" fill="#d188f4" d="M 105.5,40.5 C 104.609,41.1098 103.609,41.4431 102.5,41.5C 103.341,39.6208 103.675,37.6208 103.5,35.5C 101.833,35.5 100.167,35.5 98.5,35.5C 98.6107,34.8826 98.944,34.3826 99.5,34C 104.329,33.3322 106.329,35.4989 105.5,40.5 Z"/></g>
<g><path style="opacity:1" fill="#b254e4" d="M 98.5,35.5 C 100.167,35.5 101.833,35.5 103.5,35.5C 103.675,37.6208 103.341,39.6208 102.5,41.5C 98.9319,41.2407 97.5985,39.2407 98.5,35.5 Z"/></g>
<g><path style="opacity:1" fill="#b3b6e6" d="M 56.5,28.5 C 53.9256,29.881 51.4256,31.5476 49,33.5C 48.4638,35.6151 49.2971,36.9484 51.5,37.5C 47.6358,39.5943 43.9692,41.9277 40.5,44.5C 40.6107,43.8826 40.944,43.3826 41.5,43C 40.0337,42.3645 38.7003,41.5312 37.5,40.5C 35.0741,40.1768 32.7408,40.8435 30.5,42.5C 37.0443,34.8777 45.7109,30.211 56.5,28.5 Z"/></g>
<g><path style="opacity:1" fill="#2f2542" d="M 66.5,37.5 C 67.8333,38.1667 69.1667,38.8333 70.5,39.5C 63.7,39.1277 57.0334,39.7944 50.5,41.5C 49.8333,41.5 49.1667,41.5 48.5,41.5C 54.0371,38.6813 60.0371,37.3479 66.5,37.5 Z"/></g>
<g><path style="opacity:1" fill="#8147d7" d="M 21.5,34.5 C 23.0418,35.3007 24.7085,35.634 26.5,35.5C 26.4326,36.9587 26.7659,38.2921 27.5,39.5C 26.2196,40.9313 24.5529,41.5979 22.5,41.5C 21.8333,41.1667 21.1667,40.8333 20.5,40.5C 19.1542,38.2082 19.4876,36.2082 21.5,34.5 Z"/></g>
<g><path style="opacity:1" fill="#82669e" d="M 66.5,37.5 C 67.8333,37.5 69.1667,37.5 70.5,37.5C 76.6373,38.7301 81.6373,41.7301 85.5,46.5C 81.8886,44.3563 78.2219,42.1896 74.5,40C 73.2068,39.51 71.8734,39.3433 70.5,39.5C 69.1667,38.8333 67.8333,38.1667 66.5,37.5 Z"/></g>
<g><path style="opacity:1" fill="#5c6174" d="M 70.5,39.5 C 71.9738,40.6751 73.6404,41.6751 75.5,42.5C 74.675,43.3857 73.675,43.719 72.5,43.5C 65.8828,42.2001 59.2161,42.2001 52.5,43.5C 51.2867,43.2528 50.62,42.5862 50.5,41.5C 57.0334,39.7944 63.7,39.1277 70.5,39.5 Z"/></g>
<g><path style="opacity:1" fill="#93b7e8" d="M 40.5,44.5 C 34.2733,50.5116 30.94,57.8449 30.5,66.5C 27.7435,67.5761 26.4102,66.4095 26.5,63C 27.2781,59.845 27.4448,56.6784 27,53.5C 26.1376,55.087 25.4709,56.7536 25,58.5C 24.6174,57.944 24.1174,57.6107 23.5,57.5C 23.6716,56.5084 23.3382,55.8417 22.5,55.5C 23.2341,54.2921 23.5674,52.9587 23.5,51.5C 25.5917,48.319 27.925,45.319 30.5,42.5C 32.7408,40.8435 35.0741,40.1768 37.5,40.5C 38.7003,41.5312 40.0337,42.3645 41.5,43C 40.944,43.3826 40.6107,43.8826 40.5,44.5 Z"/></g>
<g><path style="opacity:1" fill="#100d14" d="M 48.5,41.5 C 49.1667,41.5 49.8333,41.5 50.5,41.5C 50.62,42.5862 51.2867,43.2528 52.5,43.5C 59.2161,42.2001 65.8828,42.2001 72.5,43.5C 74.6717,44.1282 76.3384,45.4616 77.5,47.5C 76.8016,48.8626 76.8016,50.0293 77.5,51C 76.6195,51.7083 75.9528,52.5416 75.5,53.5C 70.444,55.7436 67.1107,59.5769 65.5,65C 65.9042,67.2692 66.0709,69.7692 66,72.5C 63.1561,74.8724 60.3228,74.7058 57.5,72C 58.6295,67.9215 58.7961,63.7548 58,59.5C 56.1575,57.8288 53.9908,56.8288 51.5,56.5C 47.9186,55.7401 44.2519,55.2401 40.5,55C 41.376,53.414 42.376,51.914 43.5,50.5C 42.1854,48.8014 42.1854,47.1347 43.5,45.5C 44.5794,43.457 46.246,42.1237 48.5,41.5 Z"/></g>
<g><path style="opacity:1" fill="#28192e" d="M 70.5,39.5 C 71.8734,39.3433 73.2068,39.51 74.5,40C 78.2219,42.1896 81.8886,44.3563 85.5,46.5C 84.3701,48.3737 83.3701,50.3737 82.5,52.5C 83.7054,55.4496 84.7054,58.4496 85.5,61.5C 84.1667,60.5 82.8333,59.5 81.5,58.5C 80.9423,57.2101 79.9423,56.3768 78.5,56C 80.158,55.2747 80.658,54.108 80,52.5C 78.7741,54.5477 77.2741,54.881 75.5,53.5C 75.9528,52.5416 76.6195,51.7083 77.5,51C 76.8016,50.0293 76.8016,48.8626 77.5,47.5C 76.3384,45.4616 74.6717,44.1282 72.5,43.5C 73.675,43.719 74.675,43.3857 75.5,42.5C 73.6404,41.6751 71.9738,40.6751 70.5,39.5 Z"/></g>
<g><path style="opacity:1" fill="#ada2db" d="M 20.5,40.5 C 21.1667,40.8333 21.8333,41.1667 22.5,41.5C 22.1872,45.0419 22.5206,48.3752 23.5,51.5C 23.5674,52.9587 23.2341,54.2921 22.5,55.5C 20.9657,54.7971 19.299,54.9637 17.5,56C 15.3757,58.5638 14.0424,61.3971 13.5,64.5C 13.6309,63.6236 13.2975,62.9569 12.5,62.5C 12.1667,64.3333 11.8333,66.1667 11.5,68C 11.5465,70.2953 12.2132,72.1286 13.5,73.5C 14.5462,75.7359 15.8795,77.7359 17.5,79.5C 19.4147,79.2155 21.0813,79.5489 22.5,80.5C 14.6817,80.7512 7.015,81.7512 -0.5,83.5C -0.5,73.5 -0.5,63.5 -0.5,53.5C 1.13676,54.2178 2.80343,54.3845 4.5,54C 8.0243,52.2927 10.3576,50.1261 11.5,47.5C 13.601,47.6316 15.101,48.6316 16,50.5C 17.4232,45.3793 18.4232,45.3793 19,50.5C 19.3392,47.964 19.8392,45.464 20.5,43C 20.1081,41.9895 19.4415,41.4895 18.5,41.5C 18.9569,40.7025 19.6236,40.3691 20.5,40.5 Z"/></g>
<g><path style="opacity:1" fill="#f9e0f6" d="M 88.5,36.5 C 90.5,38.1667 92.5,39.8333 94.5,41.5C 98.209,45.5863 100.876,50.253 102.5,55.5C 101.559,60.0704 101.226,64.737 101.5,69.5C 100.691,67.7078 100.191,65.7078 100,63.5C 98.5507,64.6141 97.2173,65.6141 96,66.5C 95.7679,65.2625 95.2679,64.2625 94.5,63.5C 93.879,57.928 91.879,52.928 88.5,48.5C 89.4756,47.1851 90.4756,45.8518 91.5,44.5C 90.3333,42.8333 89.1667,41.1667 88,39.5C 87.2599,38.2506 87.4265,37.2506 88.5,36.5 Z"/></g>
<g><path style="opacity:1" fill="#b8a8e0" d="M 98.5,35.5 C 97.5985,39.2407 98.9319,41.2407 102.5,41.5C 103.609,41.4431 104.609,41.1098 105.5,40.5C 106.5,40.5 107.5,40.5 108.5,40.5C 108.33,41.8221 108.663,42.9887 109.5,44C 113.7,44.584 117.7,44.9173 121.5,45C 120.483,46.0495 120.316,47.2161 121,48.5C 123.041,47.5769 125.208,47.2436 127.5,47.5C 127.5,59.1667 127.5,70.8333 127.5,82.5C 126.596,83.209 126.263,84.209 126.5,85.5C 119.453,85.3042 112.787,85.9709 106.5,87.5C 102.094,85.681 101.761,83.5143 105.5,81C 104.552,80.5172 103.552,80.3505 102.5,80.5C 102.5,80.1667 102.5,79.8333 102.5,79.5C 108.144,80.5191 111.144,78.1857 111.5,72.5C 112.397,73.5981 113.23,73.5981 114,72.5C 114.903,68.9668 114.57,65.6335 113,62.5C 112.819,65.6946 112.319,68.6946 111.5,71.5C 111.5,70.1667 111.5,68.8333 111.5,67.5C 111.901,63.4355 110.901,59.7688 108.5,56.5C 106.591,55.6518 104.591,55.3184 102.5,55.5C 100.876,50.253 98.209,45.5863 94.5,41.5C 94.4894,39.9826 93.8228,38.8159 92.5,38C 93.4491,37.3828 94.2825,37.5494 95,38.5C 96.0391,37.2899 97.2058,36.2899 98.5,35.5 Z"/></g>
<g><path style="opacity:1" fill="#b895d1" d="M 70.5,37.5 C 69.1667,37.5 67.8333,37.5 66.5,37.5C 60.0371,37.3479 54.0371,38.6813 48.5,41.5C 46.246,42.1237 44.5794,43.457 43.5,45.5C 40.8333,46.1667 39.1667,47.8333 38.5,50.5C 35.0626,53.701 32.8959,57.701 32,62.5C 31.4361,67.1935 31.6027,71.8602 32.5,76.5C 30.5977,73.6627 29.931,70.3293 30.5,66.5C 30.94,57.8449 34.2733,50.5116 40.5,44.5C 43.9692,41.9277 47.6358,39.5943 51.5,37.5C 57.9629,36.2299 64.2962,36.2299 70.5,37.5 Z"/></g>
<g><path style="opacity:1" fill="#a672ac" d="M 85.5,46.5 C 86.5,47.1667 87.5,47.8333 88.5,48.5C 91.879,52.928 93.879,57.928 94.5,63.5C 94.8168,67.7016 94.4834,71.7016 93.5,75.5C 95.1234,65.7903 92.9567,57.1237 87,49.5C 87.9789,52.4751 89.3122,55.4751 91,58.5C 91.8256,61.7928 92.3256,65.1262 92.5,68.5C 90.5,68.5 88.5,68.5 86.5,68.5C 86.3259,66.139 85.9926,63.8056 85.5,61.5C 84.7054,58.4496 83.7054,55.4496 82.5,52.5C 83.3701,50.3737 84.3701,48.3737 85.5,46.5 Z"/></g>
<g><path style="opacity:1" fill="#d48cf0" d="M 102.5,55.5 C 104.591,55.3184 106.591,55.6518 108.5,56.5C 110.901,59.7688 111.901,63.4355 111.5,67.5C 110.732,68.2625 110.232,69.2625 110,70.5C 108.61,67.1007 108.11,63.7674 108.5,60.5C 106.604,59.5344 104.604,59.2011 102.5,59.5C 102.5,66.1667 102.5,72.8333 102.5,79.5C 101.521,76.3752 101.187,73.0419 101.5,69.5C 101.226,64.737 101.559,60.0704 102.5,55.5 Z"/></g>
<g><path style="opacity:1" fill="#122335" d="M 43.5,45.5 C 42.1854,47.1347 42.1854,48.8014 43.5,50.5C 42.376,51.914 41.376,53.414 40.5,55C 44.2519,55.2401 47.9186,55.7401 51.5,56.5C 51.5,57.1667 51.5,57.8333 51.5,58.5C 44.6,56.7244 40.6,59.3911 39.5,66.5C 39.3869,72.2078 42.2203,75.2078 48,75.5C 49.5328,75.2272 51.0328,74.8938 52.5,74.5C 51.5358,76.4047 49.8691,77.4047 47.5,77.5C 45.8953,76.5697 44.3953,76.5697 43,77.5C 40.0713,74.0437 36.9046,73.7104 33.5,76.5C 33.1667,76.5 32.8333,76.5 32.5,76.5C 31.6027,71.8602 31.4361,67.1935 32,62.5C 32.8959,57.701 35.0626,53.701 38.5,50.5C 39.1667,47.8333 40.8333,46.1667 43.5,45.5 Z"/></g>
<g><path style="opacity:1" fill="#004b70" d="M 38.5,50.5 C 39.3764,50.3691 40.0431,50.7025 40.5,51.5C 38.4284,56.6712 37.0951,62.0045 36.5,67.5C 35.5,67.5 34.5,67.5 33.5,67.5C 33.3597,61.2585 35.0264,55.5919 38.5,50.5 Z"/></g>
<g><path style="opacity:1" fill="#151926" d="M 81.5,58.5 C 71.8139,56.6878 67.9805,60.6878 70,70.5C 70.6897,72.3502 71.8564,73.6836 73.5,74.5C 71.4559,75.0312 69.7893,76.1978 68.5,78C 65.209,79.5438 61.8757,79.7105 58.5,78.5C 58.8333,78.1667 59.1667,77.8333 59.5,77.5C 62.551,78.7405 65.551,77.9071 68.5,75C 65.6212,75.4891 62.9545,75.9891 60.5,76.5C 57.5713,76.0042 55.9047,74.3376 55.5,71.5C 57.6497,66.0211 56.3164,61.6878 51.5,58.5C 51.5,57.8333 51.5,57.1667 51.5,56.5C 53.9908,56.8288 56.1575,57.8288 58,59.5C 58.7961,63.7548 58.6295,67.9215 57.5,72C 60.3228,74.7058 63.1561,74.8724 66,72.5C 66.0709,69.7692 65.9042,67.2692 65.5,65C 67.1107,59.5769 70.444,55.7436 75.5,53.5C 77.2741,54.881 78.7741,54.5477 80,52.5C 80.658,54.108 80.158,55.2747 78.5,56C 79.9423,56.3768 80.9423,57.2101 81.5,58.5 Z"/></g>
<g><path style="opacity:1" fill="#d1e7ed" d="M 51.5,58.5 C 56.3164,61.6878 57.6497,66.0211 55.5,71.5C 54.1667,72.1667 53.1667,73.1667 52.5,74.5C 51.0328,74.8938 49.5328,75.2272 48,75.5C 42.2203,75.2078 39.3869,72.2078 39.5,66.5C 40.6,59.3911 44.6,56.7244 51.5,58.5 Z"/></g>
<g><path style="opacity:1" fill="#e3eaf1" d="M 81.5,58.5 C 82.8333,59.5 84.1667,60.5 85.5,61.5C 85.9926,63.8056 86.3259,66.139 86.5,68.5C 86.5,68.8333 86.5,69.1667 86.5,69.5C 83.5617,74.8027 79.2284,76.4694 73.5,74.5C 71.8564,73.6836 70.6897,72.3502 70,70.5C 67.9805,60.6878 71.8139,56.6878 81.5,58.5 Z"/></g>
<g><path style="opacity:1" fill="#a0f0f9" d="M 13.5,64.5 C 13.5,67.5 13.5,70.5 13.5,73.5C 12.2132,72.1286 11.5465,70.2953 11.5,68C 11.8333,66.1667 12.1667,64.3333 12.5,62.5C 13.2975,62.9569 13.6309,63.6236 13.5,64.5 Z"/></g>
<g><path style="opacity:1" fill="#7868da" d="M 22.5,55.5 C 23.3382,55.8417 23.6716,56.5084 23.5,57.5C 23.5,58.5 23.5,59.5 23.5,60.5C 21.2075,60.2436 19.0408,60.5769 17,61.5C 16.7037,64.7058 16.2037,67.8725 15.5,71C 16.4062,73.7906 17.0728,76.6239 17.5,79.5C 15.8795,77.7359 14.5462,75.7359 13.5,73.5C 13.5,70.5 13.5,67.5 13.5,64.5C 14.0424,61.3971 15.3757,58.5638 17.5,56C 19.299,54.9637 20.9657,54.7971 22.5,55.5 Z"/></g>
<g><path style="opacity:1" fill="#bee4f1" d="M 111.5,72.5 C 111.5,72.1667 111.5,71.8333 111.5,71.5C 112.319,68.6946 112.819,65.6946 113,62.5C 114.57,65.6335 114.903,68.9668 114,72.5C 113.23,73.5981 112.397,73.5981 111.5,72.5 Z"/></g>
<g><path style="opacity:1" fill="#b051e4" d="M 111.5,67.5 C 111.5,68.8333 111.5,70.1667 111.5,71.5C 111.5,71.8333 111.5,72.1667 111.5,72.5C 111.144,78.1857 108.144,80.5191 102.5,79.5C 102.5,72.8333 102.5,66.1667 102.5,59.5C 104.604,59.2011 106.604,59.5344 108.5,60.5C 108.11,63.7674 108.61,67.1007 110,70.5C 110.232,69.2625 110.732,68.2625 111.5,67.5 Z"/></g>
<g><path style="opacity:1" fill="#8da1e4" d="M 30.5,66.5 C 29.931,70.3293 30.5977,73.6627 32.5,76.5C 32.8511,78.8695 33.0178,81.2028 33,83.5C 32.4646,81.7295 31.6313,81.3961 30.5,82.5C 29.3818,85.8116 29.3818,89.1449 30.5,92.5C 30.1667,92.5 29.8333,92.5 29.5,92.5C 27.4928,88.1334 25.4928,83.8001 23.5,79.5C 23.5,73.1667 23.5,66.8333 23.5,60.5C 23.5,59.5 23.5,58.5 23.5,57.5C 24.1174,57.6107 24.6174,57.944 25,58.5C 25.4709,56.7536 26.1376,55.087 27,53.5C 27.4448,56.6784 27.2781,59.845 26.5,63C 26.4102,66.4095 27.7435,67.5761 30.5,66.5 Z"/></g>
<g><path style="opacity:1" fill="#21374d" d="M 48.5,61.5 C 49.8734,61.3433 51.2068,61.51 52.5,62C 51.269,63.1827 51.269,64.3493 52.5,65.5C 53.1924,64.9747 53.6924,64.3081 54,63.5C 56.1833,70.6512 53.8499,72.9845 47,70.5C 44.7879,67.0213 45.2879,64.0213 48.5,61.5 Z"/></g>
<g><path style="opacity:1" fill="#2f3548" d="M 73.5,62.5 C 78.8393,61.368 80.6726,63.7013 79,69.5C 76.3333,72.1667 73.6667,72.1667 71,69.5C 70.2025,67.7412 70.3691,66.0745 71.5,64.5C 72.8626,65.8793 73.8626,65.7126 74.5,64C 74.4301,63.2352 74.0967,62.7352 73.5,62.5 Z"/></g>
<g><path style="opacity:1" fill="#6533c7" d="M 23.5,60.5 C 23.5,66.8333 23.5,73.1667 23.5,79.5C 23.5,80.1667 23.1667,80.5 22.5,80.5C 21.0813,79.5489 19.4147,79.2155 17.5,79.5C 17.0728,76.6239 16.4062,73.7906 15.5,71C 16.2037,67.8725 16.7037,64.7058 17,61.5C 19.0408,60.5769 21.2075,60.2436 23.5,60.5 Z"/></g>
<g><path style="opacity:1" fill="#e9c2f3" d="M 94.5,63.5 C 95.2679,64.2625 95.7679,65.2625 96,66.5C 97.2173,65.6141 98.5507,64.6141 100,63.5C 100.191,65.7078 100.691,67.7078 101.5,69.5C 101.187,73.0419 101.521,76.3752 102.5,79.5C 102.5,79.8333 102.5,80.1667 102.5,80.5C 100.676,86.1392 98.3427,91.4726 95.5,96.5C 93.5,97.5 91.5,98.5 89.5,99.5C 89.5,99.1667 89.5,98.8333 89.5,98.5C 92.5238,96.9289 94.1905,94.4289 94.5,91C 92.9841,88.5425 91.3174,86.3758 89.5,84.5C 90.8266,81.5293 92.1599,78.5293 93.5,75.5C 94.4834,71.7016 94.8168,67.7016 94.5,63.5 Z"/></g>
<g><path style="opacity:1" fill="#201f35" d="M 86.5,69.5 C 87.1834,71.1765 88.5168,71.8432 90.5,71.5C 91.6915,77.7818 90.5249,78.1151 87,72.5C 85.3977,74.3073 84.0644,76.3073 83,78.5C 80.8159,77.8919 78.8159,78.5586 77,80.5C 76.6667,79.8333 76.3333,79.1667 76,78.5C 74.1696,84.4916 70.003,88.4916 63.5,90.5C 61.0678,89.2848 58.7345,88.9514 56.5,89.5C 53.72,89.0548 51.0534,89.0548 48.5,89.5C 42.5457,86.6155 41.5457,87.6155 45.5,92.5C 43.5887,91.925 41.922,90.925 40.5,89.5C 37.3765,85.5859 35.0431,81.2526 33.5,76.5C 36.9046,73.7104 40.0713,74.0437 43,77.5C 44.3953,76.5697 45.8953,76.5697 47.5,77.5C 49.8691,77.4047 51.5358,76.4047 52.5,74.5C 53.1667,73.1667 54.1667,72.1667 55.5,71.5C 55.9047,74.3376 57.5713,76.0042 60.5,76.5C 62.9545,75.9891 65.6212,75.4891 68.5,75C 65.551,77.9071 62.551,78.7405 59.5,77.5C 59.1667,77.8333 58.8333,78.1667 58.5,78.5C 61.8757,79.7105 65.209,79.5438 68.5,78C 69.7893,76.1978 71.4559,75.0312 73.5,74.5C 79.2284,76.4694 83.5617,74.8027 86.5,69.5 Z"/></g>
<g><path style="opacity:1" fill="#2b193c" d="M 93.5,75.5 C 92.1599,78.5293 90.8266,81.5293 89.5,84.5C 87.8437,86.4602 86.177,88.4602 84.5,90.5C 79.1459,94.3976 73.1459,96.7309 66.5,97.5C 65.3915,96.71 64.0581,96.21 62.5,96C 64.4406,95.2571 66.2739,95.4238 68,96.5C 68.7504,95.8742 69.5838,95.3742 70.5,95C 68.8988,94.7266 67.3988,94.2266 66,93.5C 64.984,94.6341 64.3173,94.3008 64,92.5C 63.3333,95.1667 62.6667,95.1667 62,92.5C 60.2458,94.25 58.0792,94.9167 55.5,94.5C 55.366,92.7085 55.6993,91.0418 56.5,89.5C 58.7345,88.9514 61.0678,89.2848 63.5,90.5C 70.003,88.4916 74.1696,84.4916 76,78.5C 76.3333,79.1667 76.6667,79.8333 77,80.5C 78.8159,78.5586 80.8159,77.8919 83,78.5C 84.0644,76.3073 85.3977,74.3073 87,72.5C 90.5249,78.1151 91.6915,77.7818 90.5,71.5C 88.5168,71.8432 87.1834,71.1765 86.5,69.5C 86.5,69.1667 86.5,68.8333 86.5,68.5C 88.5,68.5 90.5,68.5 92.5,68.5C 92.3256,65.1262 91.8256,61.7928 91,58.5C 89.3122,55.4751 87.9789,52.4751 87,49.5C 92.9567,57.1237 95.1234,65.7903 93.5,75.5 Z"/></g>
<g><path style="opacity:1" fill="#b7b0e3" d="M 23.5,79.5 C 25.4928,83.8001 27.4928,88.1334 29.5,92.5C 28.7784,92.9175 28.2784,93.5842 28,94.5C 26.2605,93.1057 24.2605,92.4391 22,92.5C 14.5601,93.2434 7.06009,93.5767 -0.5,93.5C -0.5,90.1667 -0.5,86.8333 -0.5,83.5C 7.015,81.7512 14.6817,80.7512 22.5,80.5C 23.1667,80.5 23.5,80.1667 23.5,79.5 Z"/></g>
<g><path style="opacity:1" fill="#d5e0e6" d="M 53.5,81.5 C 56.3547,82.7516 59.3547,83.7516 62.5,84.5C 65.6453,83.7516 68.6453,82.7516 71.5,81.5C 70.274,85.5339 67.4407,87.5339 63,87.5C 58.508,87.3503 55.3413,85.3503 53.5,81.5 Z"/></g>
<g><path style="opacity:1" fill="#ddaaeb" d="M 89.5,84.5 C 91.3174,86.3758 92.9841,88.5425 94.5,91C 94.1905,94.4289 92.5238,96.9289 89.5,98.5C 88.5,96.8333 87.1667,95.5 85.5,94.5C 85.1667,93.1667 84.8333,91.8333 84.5,90.5C 86.177,88.4602 87.8437,86.4602 89.5,84.5 Z"/></g>
<g><path style="opacity:1" fill="#c3b8e8" d="M 102.5,80.5 C 103.552,80.3505 104.552,80.5172 105.5,81C 101.761,83.5143 102.094,85.681 106.5,87.5C 112.787,85.9709 119.453,85.3042 126.5,85.5C 126.263,84.209 126.596,83.209 127.5,82.5C 127.5,87.1667 127.5,91.8333 127.5,96.5C 119.116,97.73 110.616,97.73 102,96.5C 100.333,97.1667 98.6667,97.8333 97,98.5C 96.2828,97.9558 95.7828,97.2891 95.5,96.5C 98.3427,91.4726 100.676,86.1392 102.5,80.5 Z"/></g>
<g><path style="opacity:1" fill="#9388d9" d="M 32.5,76.5 C 32.8333,76.5 33.1667,76.5 33.5,76.5C 35.0431,81.2526 37.3765,85.5859 40.5,89.5C 40.3915,91.5138 41.0582,93.1805 42.5,94.5C 42.0919,95.6431 41.4252,96.6431 40.5,97.5C 39.9041,96.2839 39.7374,94.9506 40,93.5C 38.9331,95.6917 37.4331,97.3583 35.5,98.5C 33.1097,97.1092 31.4431,95.1092 30.5,92.5C 29.3818,89.1449 29.3818,85.8116 30.5,82.5C 31.6313,81.3961 32.4646,81.7295 33,83.5C 33.0178,81.2028 32.8511,78.8695 32.5,76.5 Z"/></g>
<g><path style="opacity:1" fill="#1f112b" d="M 56.5,89.5 C 55.6993,91.0418 55.366,92.7085 55.5,94.5C 58.0792,94.9167 60.2458,94.25 62,92.5C 62.6667,95.1667 63.3333,95.1667 64,92.5C 64.3173,94.3008 64.984,94.6341 66,93.5C 67.3988,94.2266 68.8988,94.7266 70.5,95C 69.5838,95.3742 68.7504,95.8742 68,96.5C 66.2739,95.4238 64.4406,95.2571 62.5,96C 64.0581,96.21 65.3915,96.71 66.5,97.5C 62.1539,97.6657 57.8206,97.499 53.5,97C 50.3672,96.1404 47.7005,94.6404 45.5,92.5C 41.5457,87.6155 42.5457,86.6155 48.5,89.5C 51.0534,89.0548 53.72,89.0548 56.5,89.5 Z"/></g>
<g><path style="opacity:1" fill="#ab84c8" d="M 40.5,89.5 C 41.922,90.925 43.5887,91.925 45.5,92.5C 47.7005,94.6404 50.3672,96.1404 53.5,97C 57.8206,97.499 62.1539,97.6657 66.5,97.5C 73.1459,96.7309 79.1459,94.3976 84.5,90.5C 84.8333,91.8333 85.1667,93.1667 85.5,94.5C 82.9205,95.2276 80.2538,95.7276 77.5,96C 78.7996,97.5788 78.4663,98.7455 76.5,99.5C 71.3302,99.1388 65.6635,99.1388 59.5,99.5C 53.6843,98.0775 48.0176,96.4109 42.5,94.5C 41.0582,93.1805 40.3915,91.5138 40.5,89.5 Z"/></g>
<g><path style="opacity:1" fill="#9475d7" d="M 42.5,94.5 C 48.0176,96.4109 53.6843,98.0775 59.5,99.5C 60.1408,100.482 60.8075,101.482 61.5,102.5C 59.713,102.943 58.0463,103.276 56.5,103.5C 56.1667,103.5 55.8333,103.5 55.5,103.5C 52.0459,100.703 48.3792,99.5359 44.5,100C 45.6721,100.419 46.6721,101.085 47.5,102C 44.6529,102.944 42.1529,102.444 40,100.5C 39.5357,101.094 39.369,101.761 39.5,102.5C 37.8333,101.5 36.5,100.167 35.5,98.5C 37.4331,97.3583 38.9331,95.6917 40,93.5C 39.7374,94.9506 39.9041,96.2839 40.5,97.5C 41.4252,96.6431 42.0919,95.6431 42.5,94.5 Z"/></g>
<g><path style="opacity:1" fill="#d295ec" d="M 85.5,94.5 C 87.1667,95.5 88.5,96.8333 89.5,98.5C 89.5,98.8333 89.5,99.1667 89.5,99.5C 87.4687,101.522 85.1354,103.189 82.5,104.5C 81.8333,104.833 81.1667,105.167 80.5,105.5C 80.4142,104.504 80.7476,103.671 81.5,103C 79.1192,102.777 77.4525,101.61 76.5,99.5C 78.4663,98.7455 78.7996,97.5788 77.5,96C 80.2538,95.7276 82.9205,95.2276 85.5,94.5 Z"/></g>
<g><path style="opacity:1" fill="#ccc5f0" d="M 29.5,92.5 C 29.8333,92.5 30.1667,92.5 30.5,92.5C 31.4431,95.1092 33.1097,97.1092 35.5,98.5C 36.5,100.167 37.8333,101.5 39.5,102.5C 40.8333,103.167 42.1667,103.833 43.5,104.5C 29.025,104.636 14.3584,104.636 -0.5,104.5C -0.5,100.833 -0.5,97.1667 -0.5,93.5C 7.06009,93.5767 14.5601,93.2434 22,92.5C 24.2605,92.4391 26.2605,93.1057 28,94.5C 28.2784,93.5842 28.7784,92.9175 29.5,92.5 Z"/></g>
<g><path style="opacity:1" fill="#bb79e2" d="M 76.5,99.5 C 77.4525,101.61 79.1192,102.777 81.5,103C 80.7476,103.671 80.4142,104.504 80.5,105.5C 81.2899,106.794 82.2899,107.961 83.5,109C 80.5738,109.218 77.7405,109.718 75,110.5C 72.2809,109.556 69.4475,109.223 66.5,109.5C 66.5,109.167 66.5,108.833 66.5,108.5C 68.5273,108.662 70.5273,108.495 72.5,108C 66.8757,107.098 61.5423,105.598 56.5,103.5C 58.0463,103.276 59.713,102.943 61.5,102.5C 60.8075,101.482 60.1408,100.482 59.5,99.5C 65.6635,99.1388 71.3302,99.1388 76.5,99.5 Z"/></g>
<g><path style="opacity:1" fill="#7d5fd1" d="M 55.5,103.5 C 55.6068,105.379 55.1068,105.712 54,104.5C 52.0517,105.109 50.2184,105.776 48.5,106.5C 47.8333,106.5 47.1667,106.5 46.5,106.5C 45.7095,105.599 44.7095,104.932 43.5,104.5C 42.1667,103.833 40.8333,103.167 39.5,102.5C 39.369,101.761 39.5357,101.094 40,100.5C 42.1529,102.444 44.6529,102.944 47.5,102C 46.6721,101.085 45.6721,100.419 44.5,100C 48.3792,99.5359 52.0459,100.703 55.5,103.5 Z"/></g>
<g><path style="opacity:1" fill="#6a3eb6" d="M 55.5,103.5 C 55.8333,103.5 56.1667,103.5 56.5,103.5C 61.5423,105.598 66.8757,107.098 72.5,108C 70.5273,108.495 68.5273,108.662 66.5,108.5C 57.4938,108.666 48.4938,108.5 39.5,108C 42.6946,107.819 45.6946,107.319 48.5,106.5C 50.2184,105.776 52.0517,105.109 54,104.5C 55.1068,105.712 55.6068,105.379 55.5,103.5 Z"/></g>
<g><path style="opacity:1" fill="#acb1e9" d="M -0.5,104.5 C 14.3584,104.636 29.025,104.636 43.5,104.5C 44.7095,104.932 45.7095,105.599 46.5,106.5C 39.4673,106.503 32.4673,107.003 25.5,108C 28.0356,108.186 30.369,108.686 32.5,109.5C 21.349,109.275 10.349,109.275 -0.5,109.5C -0.5,107.833 -0.5,106.167 -0.5,104.5 Z"/></g>
<g><path style="opacity:1" fill="#7876ce" d="M 46.5,106.5 C 47.1667,106.5 47.8333,106.5 48.5,106.5C 45.6946,107.319 42.6946,107.819 39.5,108C 48.4938,108.5 57.4938,108.666 66.5,108.5C 66.5,108.833 66.5,109.167 66.5,109.5C 55.5,109.5 44.5,109.5 33.5,109.5C 33.1667,109.5 32.8333,109.5 32.5,109.5C 30.369,108.686 28.0356,108.186 25.5,108C 32.4673,107.003 39.4673,106.503 46.5,106.5 Z"/></g>
<g><path style="opacity:1" fill="#dcb4ee" d="M 82.5,104.5 C 90.8187,105.543 99.1521,106.043 107.5,106C 108.949,107.117 110.616,107.784 112.5,108C 111.371,110.168 109.871,110.668 108,109.5C 107.147,111.125 106.147,111.458 105,110.5C 103,111.167 101,111.833 99,112.5C 87.2473,111.512 75.4139,111.179 63.5,111.5C 55.2833,111.2 47.1167,111.2 39,111.5C 36.8886,111.299 35.0552,110.633 33.5,109.5C 44.5,109.5 55.5,109.5 66.5,109.5C 69.4475,109.223 72.2809,109.556 75,110.5C 77.7405,109.718 80.5738,109.218 83.5,109C 82.2899,107.961 81.2899,106.794 80.5,105.5C 81.1667,105.167 81.8333,104.833 82.5,104.5 Z"/></g>
<g><path style="opacity:1" fill="#d2bae8" d="M 32.5,109.5 C 32.8333,109.5 33.1667,109.5 33.5,109.5C 35.0552,110.633 36.8886,111.299 39,111.5C 47.1167,111.2 55.2833,111.2 63.5,111.5C 62.9924,113.233 62.159,113.566 61,112.5C 59.5806,113.46 58.0806,114.293 56.5,115C 55.4829,116.049 55.3162,117.216 56,118.5C 57.6667,118.167 59.3333,117.833 61,117.5C 62.1433,120.915 63.81,121.249 66,118.5C 67.9426,120.715 69.6093,120.715 71,118.5C 72.3754,120.376 73.542,122.376 74.5,124.5C 77.9233,120.235 79.5899,120.901 79.5,126.5C 81.5972,126.003 83.4305,125.67 85,125.5C 85.9947,126.066 86.828,126.733 87.5,127.5C 58.1667,127.5 28.8333,127.5 -0.5,127.5C -0.5,121.5 -0.5,115.5 -0.5,109.5C 10.349,109.275 21.349,109.275 32.5,109.5 Z"/></g>
<g><path style="opacity:1" fill="#dbc2ed" d="M 95.5,96.5 C 95.7828,97.2891 96.2828,97.9558 97,98.5C 98.6667,97.8333 100.333,97.1667 102,96.5C 110.616,97.73 119.116,97.73 127.5,96.5C 127.5,106.833 127.5,117.167 127.5,127.5C 114.167,127.5 100.833,127.5 87.5,127.5C 86.828,126.733 85.9947,126.066 85,125.5C 83.4305,125.67 81.5972,126.003 79.5,126.5C 79.5899,120.901 77.9233,120.235 74.5,124.5C 73.542,122.376 72.3754,120.376 71,118.5C 69.6093,120.715 67.9426,120.715 66,118.5C 63.81,121.249 62.1433,120.915 61,117.5C 59.3333,117.833 57.6667,118.167 56,118.5C 55.3162,117.216 55.4829,116.049 56.5,115C 58.0806,114.293 59.5806,113.46 61,112.5C 62.159,113.566 62.9924,113.233 63.5,111.5C 75.4139,111.179 87.2473,111.512 99,112.5C 101,111.833 103,111.167 105,110.5C 106.147,111.458 107.147,111.125 108,109.5C 109.871,110.668 111.371,110.168 112.5,108C 110.616,107.784 108.949,107.117 107.5,106C 99.1521,106.043 90.8187,105.543 82.5,104.5C 85.1354,103.189 87.4687,101.522 89.5,99.5C 91.5,98.5 93.5,97.5 95.5,96.5 Z"/></g>
</svg>
