<svg width="16" height="16" viewBox="0 0 16 16" fill="none" xmlns="http://www.w3.org/2000/svg">
<path d="M14 3C14.5523 3 15 3.44772 15 4V13C15 13.5523 14.5523 14 14 14H8C7.44772 14 7 13.5523 7 13V12.6651H13.6185V4.33492H12V3H14Z" fill="#4E5969"/>
<path d="M10.8506 2.31836C11.0733 2.20732 11.335 2.36926 11.335 2.61816V10.8818C11.335 11.0087 11.2629 11.1249 11.1494 11.1816L8.14941 12.6816C7.92674 12.7927 7.66504 12.6307 7.66504 12.3818V4.11816C7.66504 3.99128 7.73709 3.87511 7.85059 3.81836L10.8506 2.31836Z" stroke="#4E5969" stroke-width="1.33"/>
<path d="M2.83008 13.8C2.83008 13.9105 2.74054 14 2.63008 14H1.7C1.58954 14 1.5 13.9105 1.5 13.8V12.8699C1.5 12.7595 1.58954 12.6699 1.7 12.6699H2.63008C2.74054 12.6699 2.83008 12.7595 2.83008 12.8699V13.8Z" fill="#4E5969"/>
<path d="M5.33008 13.8C5.33008 13.9105 5.24054 14 5.13008 14H4.2C4.08954 14 4 13.9105 4 13.8V12.8699C4 12.7595 4.08954 12.6699 4.2 12.6699H5.13008C5.24054 12.6699 5.33008 12.7595 5.33008 12.8699V13.8Z" fill="#4E5969"/>
<path d="M2.83008 11.4201C2.83008 11.5306 2.74054 11.6201 2.63008 11.6201H1.7C1.58954 11.6201 1.5 11.5306 1.5 11.4201V10.49C1.5 10.3796 1.58954 10.29 1.7 10.29H2.63008C2.74054 10.29 2.83008 10.3796 2.83008 10.49V11.4201Z" fill="#4E5969"/>
<path d="M2.83008 8.99043C2.83008 9.10089 2.74054 9.19043 2.63008 9.19043H1.7C1.58954 9.19043 1.5 9.10089 1.5 8.99043V8.06035C1.5 7.94989 1.58954 7.86035 1.7 7.86035H2.63008C2.74054 7.86035 2.83008 7.94989 2.83008 8.06035V8.99043Z" fill="#4E5969"/>
<path d="M2.83008 6.55977C2.83008 6.67022 2.74054 6.75977 2.63008 6.75977H1.7C1.58954 6.75977 1.5 6.67022 1.5 6.55977V5.62969C1.5 5.51923 1.58954 5.42969 1.7 5.42969H2.63008C2.74054 5.42969 2.83008 5.51923 2.83008 5.62969V6.55977Z" fill="#4E5969"/>
<path d="M2.83008 4.13008C2.83008 4.24054 2.74054 4.33008 2.63008 4.33008H1.7C1.58954 4.33008 1.5 4.24054 1.5 4.13008V3.2C1.5 3.08954 1.58954 3 1.7 3H2.63008C2.74054 3 2.83008 3.08954 2.83008 3.2V4.13008Z" fill="#4E5969"/>
<path d="M5.33008 4.13008C5.33008 4.24054 5.24054 4.33008 5.13008 4.33008H4.2C4.08954 4.33008 4 4.24054 4 4.13008V3.2C4 3.08954 4.08954 3 4.2 3H5.13008C5.24054 3 5.33008 3.08954 5.33008 3.2V4.13008Z" fill="#4E5969"/>
</svg>
