<svg width="16" height="16" viewBox="0 0 16 16" fill="none" xmlns="http://www.w3.org/2000/svg">
    <path fill-rule="evenodd" clip-rule="evenodd"
        d="M8.41211 9.78516C8.24445 9.36039 8.59222 9.01332 9.0166 9.18164L13.6094 10.75C14.1117 10.9492 14.2037 11.6317 13.7461 11.7666L11.4365 12.4502L10.7539 14.7598C10.6185 15.2167 9.93472 15.1253 9.73535 14.623L8.41211 9.78516ZM10.2822 12.8291L10.6328 11.6455L11.9746 11.248L9.62988 10.4473L10.2822 12.8291ZM13.4561 10.8096L13.4619 10.8086L13.4639 10.8066C13.4614 10.8074 13.4585 10.8088 13.4561 10.8096Z"
        fill="#4E5969" />
    <path
        d="M5.69727 3.85352C6.11148 3.85352 6.44727 4.1893 6.44727 4.60352C6.44727 5.01773 6.11148 5.35352 5.69727 5.35352C5.28305 5.35352 4.94727 5.01773 4.94727 4.60352C4.94727 4.1893 5.28305 3.85352 5.69727 3.85352Z"
        fill="#4E5969" />
    <path fill-rule="evenodd" clip-rule="evenodd"
        d="M12.2998 1.2998C12.8521 1.2998 13.2998 1.74752 13.2998 2.2998V8.55371C13.2998 8.921 13.0021 9.21875 12.6348 9.21875C12.2675 9.21875 11.9697 8.921 11.9697 8.55371V7.96484H3.12988V11.9697H6.44336C6.81065 11.9697 7.1084 12.2675 7.1084 12.6348C7.1084 13.0021 6.81065 13.2998 6.44336 13.2998H2.7998L2.69727 13.2949C2.22684 13.247 1.85259 12.8728 1.80469 12.4023L1.7998 12.2998V2.2998C1.7998 1.74752 2.24752 1.2998 2.7998 1.2998H12.2998ZM3.12988 6.63477H11.9697V2.62988H3.12988V6.63477Z"
        fill="#4E5969" />
    <path
        d="M5.69727 9.44629C6.11148 9.44629 6.44727 9.78208 6.44727 10.1963C6.44727 10.6105 6.11148 10.9463 5.69727 10.9463C5.28305 10.9463 4.94727 10.6105 4.94727 10.1963C4.94727 9.78208 5.28305 9.44629 5.69727 9.44629Z"
        fill="#4E5969" />
</svg>