<svg width="16" height="16" viewBox="0 0 16 16" fill="none" xmlns="http://www.w3.org/2000/svg">
<path fill-rule="evenodd" clip-rule="evenodd" d="M10.6667 2C10.8435 2 11.013 2.07024 11.1381 2.19526C11.2631 2.32029 11.3333 2.48986 11.3333 2.66667V3.33333H12.6667C13.0203 3.33333 13.3594 3.47381 13.6095 3.72386C13.8595 3.97391 14 4.31304 14 4.66667V12.6667C14 13.0203 13.8595 13.3594 13.6095 13.6095C13.3594 13.8595 13.0203 14 12.6667 14H3.33333C2.97971 14 2.64057 13.8595 2.39052 13.6095C2.14048 13.3594 2 13.0203 2 12.6667V4.66667C2 4.31304 2.14048 3.97391 2.39052 3.72386C2.64057 3.47381 2.97971 3.33333 3.33333 3.33333H4.66667V2.66667C4.66667 2.48986 4.7369 2.32029 4.86193 2.19526C4.98695 2.07024 5.15652 2 5.33333 2C5.51014 2 5.67971 2.07024 5.80474 2.19526C5.92976 2.32029 6 2.48986 6 2.66667V3.33333H10V2.66667C10 2.48986 10.0702 2.32029 10.1953 2.19526C10.3203 2.07024 10.4899 2 10.6667 2ZM5.33333 4.66667H3.33333V6H12.6667V4.66667H10.6667H5.33333ZM3.33333 7.33333V12.6667H12.6667V7.33333H3.33333ZM4.66667 8.66667C4.66667 8.48986 4.7369 8.32029 4.86193 8.19526C4.98695 8.07024 5.15652 8 5.33333 8H5.34C5.51681 8 5.68638 8.07024 5.8114 8.19526C5.93643 8.32029 6.00667 8.48986 6.00667 8.66667C6.00667 8.84348 5.93643 9.01305 5.8114 9.13807C5.68638 9.2631 5.51681 9.33333 5.34 9.33333H5.33333C5.15652 9.33333 4.98695 9.2631 4.86193 9.13807C4.7369 9.01305 4.66667 8.84348 4.66667 8.66667ZM5.33333 10C5.15652 10 4.98695 10.0702 4.86193 10.1953C4.7369 10.3203 4.66667 10.4899 4.66667 10.6667C4.66667 10.8435 4.7369 11.013 4.86193 11.1381C4.98695 11.2631 5.15652 11.3333 5.33333 11.3333H5.34C5.51681 11.3333 5.68638 11.2631 5.8114 11.1381C5.93643 11.013 6.00667 10.8435 6.00667 10.6667C6.00667 10.4899 5.93643 10.3203 5.8114 10.1953C5.68638 10.0702 5.51681 10 5.34 10H5.33333ZM7.33333 8.66667C7.33333 8.48986 7.40357 8.32029 7.5286 8.19526C7.65362 8.07024 7.82319 8 8 8H8.00667C8.18348 8 8.35305 8.07024 8.47807 8.19526C8.6031 8.32029 8.67333 8.48986 8.67333 8.66667C8.67333 8.84348 8.6031 9.01305 8.47807 9.13807C8.35305 9.2631 8.18348 9.33333 8.00667 9.33333H8C7.82319 9.33333 7.65362 9.2631 7.5286 9.13807C7.40357 9.01305 7.33333 8.84348 7.33333 8.66667ZM8 10C7.82319 10 7.65362 10.0702 7.5286 10.1953C7.40357 10.3203 7.33333 10.4899 7.33333 10.6667C7.33333 10.8435 7.40357 11.013 7.5286 11.1381C7.65362 11.2631 7.82319 11.3333 8 11.3333H8.00667C8.18348 11.3333 8.35305 11.2631 8.47807 11.1381C8.6031 11.013 8.67333 10.8435 8.67333 10.6667C8.67333 10.4899 8.6031 10.3203 8.47807 10.1953C8.35305 10.0702 8.18348 10 8.00667 10H8ZM10 8.66667C10 8.48986 10.0702 8.32029 10.1953 8.19526C10.3203 8.07024 10.4899 8 10.6667 8H10.6733C10.8501 8 11.0197 8.07024 11.1447 8.19526C11.2698 8.32029 11.34 8.48986 11.34 8.66667C11.34 8.84348 11.2698 9.01305 11.1447 9.13807C11.0197 9.2631 10.8501 9.33333 10.6733 9.33333H10.6667C10.4899 9.33333 10.3203 9.2631 10.1953 9.13807C10.0702 9.01305 10 8.84348 10 8.66667ZM10.6667 10C10.4899 10 10.3203 10.0702 10.1953 10.1953C10.0702 10.3203 10 10.4899 10 10.6667C10 10.8435 10.0702 11.013 10.1953 11.1381C10.3203 11.2631 10.4899 11.3333 10.6667 11.3333H10.6733C10.8501 11.3333 11.0197 11.2631 11.1447 11.1381C11.2698 11.013 11.34 10.8435 11.34 10.6667C11.34 10.4899 11.2698 10.3203 11.1447 10.1953C11.0197 10.0702 10.8501 10 10.6733 10H10.6667Z" fill="#4E5969"/>
</svg>
