<svg width="16" height="16" viewBox="0 0 16 16" fill="none" xmlns="http://www.w3.org/2000/svg">
<path d="M6 3.90513V2.08768C5.99852 1.79869 5.88264 1.52205 5.67769 1.31823C5.47274 1.11441 5.1954 0.999996 4.90629 1L2.09371 1C1.80364 1 1.52545 1.11518 1.32034 1.32021C1.11523 1.52524 1 1.80332 1 2.09327V3.91073C1 4.20068 1.11523 4.47876 1.32034 4.68378C1.52545 4.88881 1.80364 5.00399 2.09371 5.00399H4.90629C5.05039 5.004 5.19307 4.97553 5.32613 4.92024C5.45919 4.86495 5.58001 4.78392 5.68165 4.68181C5.78328 4.5797 5.86372 4.45851 5.91836 4.32523C5.97299 4.19194 6.00074 4.04917 6 3.90513ZM4.74965 3.74855H2.25035V2.24985H4.75105L4.74965 3.74855ZM13.9063 10.996H11.0937C10.8036 10.996 10.5254 11.1112 10.3203 11.3162C10.1152 11.5212 10 11.7993 10 12.0893V13.9067C10 14.1967 10.1152 14.4748 10.3203 14.6798C10.5254 14.8848 10.8036 15 11.0937 15H13.9063C14.0499 15 14.1921 14.9717 14.3248 14.9168C14.4575 14.8618 14.5781 14.7813 14.6797 14.6798C14.7812 14.5783 14.8618 14.4577 14.9167 14.3251C14.9717 14.1925 15 14.0503 15 13.9067V12.0893C15 11.9457 14.9717 11.8035 14.9167 11.6709C14.8618 11.5383 14.7812 11.4177 14.6797 11.3162C14.5781 11.2147 14.4575 11.1342 14.3248 11.0792C14.1921 11.0243 14.0499 10.996 13.9063 10.996ZM13.7497 13.7446H11.2503V12.2459H13.751L13.7497 13.7446ZM13.9063 5.998H11.0937C10.8036 5.998 10.5254 6.11319 10.3203 6.31821C10.1152 6.52324 10 6.80132 10 7.09127V8.90873C10 9.19868 10.1152 9.47676 10.3203 9.68179C10.5254 9.88681 10.8036 10.002 11.0937 10.002H13.9063C14.0499 10.002 14.1921 9.97372 14.3248 9.91878C14.4575 9.86384 14.5781 9.78331 14.6797 9.68179C14.7812 9.58027 14.8618 9.45975 14.9167 9.3271C14.9717 9.19446 15 9.0523 15 8.90873V7.09127C15 6.9477 14.9717 6.80554 14.9167 6.6729C14.8618 6.54025 14.7812 6.41973 14.6797 6.31821C14.5781 6.21669 14.4575 6.13616 14.3248 6.08122C14.1921 6.02628 14.0499 5.998 13.9063 5.998ZM13.7497 8.74655H11.2503V7.24785H13.751L13.7497 8.74655ZM8.37483 7.87138H4.12448V6.62153C4.12449 6.53946 4.10833 6.45818 4.07691 6.38235C4.0455 6.30652 3.99945 6.23762 3.9414 6.17958C3.88334 6.12154 3.81442 6.0755 3.73857 6.04409C3.66271 6.01268 3.58141 5.99651 3.4993 5.99651C3.41719 5.99651 3.33589 6.01268 3.26004 6.04409C3.18418 6.0755 3.11526 6.12154 3.0572 6.17958C2.99915 6.23762 2.9531 6.30652 2.92169 6.38235C2.89028 6.45818 2.87411 6.53946 2.87413 6.62153V13.3685C2.87413 13.5342 2.93999 13.6932 3.05724 13.8104C3.17448 13.9276 3.33349 13.9934 3.4993 13.9934H8.37483C8.54062 13.9934 8.69961 13.9275 8.81683 13.8103C8.93405 13.6931 8.99991 13.5342 8.99991 13.3685C8.99991 13.2028 8.93405 13.0438 8.81683 12.9266C8.69961 12.8094 8.54062 12.7436 8.37483 12.7436H4.12448V9.12263H8.37483C8.54062 9.1226 8.69961 9.05675 8.81683 8.93956C8.93405 8.82237 8.99991 8.66343 8.99991 8.4977C8.99991 8.33198 8.93405 8.17304 8.81683 8.05585C8.69961 7.93865 8.54062 7.8728 8.37483 7.87278V7.87138Z" fill="#4E5969"/>
</svg>
