<svg width="16" height="16" viewBox="0 0 16 16" fill="none" xmlns="http://www.w3.org/2000/svg">
<path d="M13.333 2.66699C13.6694 2.66689 13.9934 2.79393 14.24 3.02266C14.4867 3.25138 14.6378 3.56489 14.663 3.90033L14.6663 4.00033V12.0003C14.6664 12.3367 14.5394 12.6607 14.3107 12.9074C14.082 13.154 13.7684 13.3051 13.433 13.3303L13.333 13.3337H2.66634C2.32996 13.3338 2.00596 13.2067 1.75931 12.978C1.51265 12.7493 1.36157 12.4358 1.33634 12.1003L1.33301 12.0003V4.00033C1.3329 3.66394 1.45995 3.33995 1.68867 3.09329C1.9174 2.84664 2.2309 2.69555 2.56634 2.67033L2.66634 2.66699H13.333ZM13.333 4.94299L8.70634 9.56966C8.51884 9.75693 8.26468 9.86211 7.99967 9.86211C7.73467 9.86211 7.48051 9.75693 7.29301 9.56966L2.66634 4.94299V12.0003H13.333V4.94299ZM12.3903 4.00033H3.60901L7.99967 8.39099L12.3903 4.00033Z" fill="#4E5969"/>
</svg>
