<svg width="16" height="16" viewBox="0 0 16 16" fill="none" xmlns="http://www.w3.org/2000/svg">
<path d="M8.00323 14.6683C4.32132 14.6683 1.33655 11.6835 1.33655 8.00161C1.33655 4.31973 4.32132 1.33496 8.00323 1.33496C11.6851 1.33496 14.6699 4.31973 14.6699 8.00161C14.6699 11.6835 11.6851 14.6683 8.00323 14.6683ZM8.00323 13.3349C10.9488 13.3349 13.3366 10.9471 13.3366 8.00161C13.3366 5.05611 10.9488 2.66829 8.00323 2.66829C5.05769 2.66829 2.66988 5.05611 2.66988 8.00161C2.66988 10.9471 5.05769 13.3349 8.00323 13.3349ZM8.66989 8.66827H10.6699V10.0016H8.66989V11.3349H7.33656V10.0016H5.33655V8.66827H7.33656V8.00161H5.33655V6.66827H7.06043L5.64619 5.25408L6.589 4.31127L8.00323 5.72549L9.41743 4.31127L10.3602 5.25408L8.94603 6.66827H10.6699V8.00161H8.66989V8.66827Z" fill="#4E5969"/>
</svg>