<svg width="16" height="16" viewBox="0 0 16 16" fill="none" xmlns="http://www.w3.org/2000/svg">
<path d="M2.66663 14.667C2.66663 11.7215 5.05444 9.33366 7.99996 9.33366C10.9455 9.33366 13.3333 11.7215 13.3333 14.667H12C12 12.4579 10.2091 10.667 7.99996 10.667C5.79082 10.667 3.99996 12.4579 3.99996 14.667H2.66663ZM7.99996 8.66699C5.78996 8.66699 3.99996 6.87699 3.99996 4.66699C3.99996 2.45699 5.78996 0.666992 7.99996 0.666992C10.21 0.666992 12 2.45699 12 4.66699C12 6.87699 10.21 8.66699 7.99996 8.66699ZM7.99996 7.33366C9.47329 7.33366 10.6666 6.14033 10.6666 4.66699C10.6666 3.19366 9.47329 2.00033 7.99996 2.00033C6.52663 2.00033 5.33329 3.19366 5.33329 4.66699C5.33329 6.14033 6.52663 7.33366 7.99996 7.33366Z" fill="#4E5969"/>
</svg>