<svg width="16" height="16" viewBox="0 0 16 16" fill="none" xmlns="http://www.w3.org/2000/svg">
<path d="M8.66671 14V15.3333H7.33337V14H2.00004C1.63185 14 1.33337 13.7015 1.33337 13.3333V2.66667C1.33337 2.29848 1.63185 2 2.00004 2H6.00004C6.79651 2 7.51144 2.34917 8.00004 2.90279C8.48864 2.34917 9.20357 2 10 2H14C14.3682 2 14.6667 2.29848 14.6667 2.66667V13.3333C14.6667 13.7015 14.3682 14 14 14H8.66671ZM13.3334 12.6667V3.33333H10C9.26364 3.33333 8.66671 3.93029 8.66671 4.66667V12.6667H13.3334ZM7.33337 12.6667V4.66667C7.33337 3.93029 6.73644 3.33333 6.00004 3.33333H2.66671V12.6667H7.33337Z" fill="#4E5969"/>
</svg>