<svg width="16" height="16" viewBox="0 0 16 16" fill="none" xmlns="http://www.w3.org/2000/svg">
<path fill-rule="evenodd" clip-rule="evenodd" d="M13.3333 11.4469C13.5673 11.5297 13.7813 11.6547 13.9661 11.8128L14.6426 11.4222L15.3092 12.5771L14.6335 12.9671C14.6553 13.0857 14.6667 13.2081 14.6667 13.333C14.6667 13.4579 14.6553 13.5803 14.6335 13.6989L15.3092 14.0889L14.6426 15.2438L13.9661 14.8532C13.7813 15.0113 13.5673 15.1364 13.3333 15.2191V15.9997H12V15.2191C11.766 15.1364 11.552 15.0113 11.3672 14.8532L10.6908 15.2438L10.0241 14.0889L10.6999 13.6989C10.678 13.5803 10.6667 13.4579 10.6667 13.333C10.6667 13.2081 10.678 13.0857 10.6999 12.9671L10.0241 12.5771L10.6908 11.4222L11.3672 11.8128C11.552 11.6547 11.766 11.5297 12 11.4469V10.6663H13.3333V11.4469ZM12.6667 12.6663C12.2985 12.6663 12 12.9648 12 13.333C12 13.7012 12.2985 13.9997 12.6667 13.9997C13.0349 13.9997 13.3333 13.7012 13.3333 13.333C13.3333 12.9648 13.0349 12.6663 12.6667 12.6663Z" fill="#4E5969"/>
<path fill-rule="evenodd" clip-rule="evenodd" d="M11.3333 2.66634H13.3379C13.7035 2.66643 13.9999 2.96294 14 3.32845V9.56087C13.5829 9.41345 13.1342 9.33301 12.6667 9.33301V3.99967H11.3333V5.33301H4.66667V3.99967H3.33333V13.333H8.66667C8.66667 13.8006 8.74772 14.2492 8.89518 14.6663H2.66211C2.29647 14.6663 2.00009 14.3698 2 14.0042V3.32845C2.00009 2.96282 2.2966 2.66643 2.66211 2.66634H4.66667V1.33301H11.3333V2.66634ZM6 3.99967H10V2.66634H6V3.99967Z" fill="#4E5969"/>
<path d="M6 11.9997H4.66667V10.6663H6V11.9997Z" fill="#4E5969"/>
<path d="M6 9.99967H4.66667V8.66634H6V9.99967Z" fill="#4E5969"/>
<path d="M6 7.99967H4.66667V6.66634H6V7.99967Z" fill="#4E5969"/>
</svg>