<svg width="16" height="16" viewBox="0 0 16 16" fill="none" xmlns="http://www.w3.org/2000/svg">
<path d="M13.5 1.5C14.0523 1.5 14.5 1.94772 14.5 2.5V13.5C14.5 14.0177 14.1067 14.4438 13.6025 14.4951L13.5 14.5H2.5L2.39746 14.4951C1.92703 14.4472 1.55278 14.073 1.50488 13.6025L1.5 13.5V2.5C1.5 1.94772 1.94772 1.5 2.5 1.5H13.5ZM2.83008 13.1699H13.1699V2.83008H2.83008V13.1699ZM5.2666 4.5C5.6258 4.5 5.91699 4.79119 5.91699 5.15039V9.54004C5.91699 9.89924 5.6258 10.1904 5.2666 10.1904C4.9074 10.1904 4.61621 9.89924 4.61621 9.54004V5.15039C4.61621 4.79119 4.9074 4.5 5.2666 4.5ZM10.6943 4.5C11.0535 4.5 11.3447 4.79119 11.3447 5.15039V8.02051C11.3447 8.37971 11.0535 8.6709 10.6943 8.6709C10.3351 8.6709 10.0439 8.37971 10.0439 8.02051V5.15039C10.0439 4.79119 10.3351 4.5 10.6943 4.5ZM7.98047 4.5C8.33967 4.5 8.63086 4.79119 8.63086 5.15039V6.50586C8.63086 6.86506 8.33967 7.15625 7.98047 7.15625C7.62127 7.15625 7.33008 6.86506 7.33008 6.50586V5.15039C7.33008 4.79119 7.62127 4.5 7.98047 4.5Z" fill="#4E5969"/>
</svg>
