<svg width="16" height="16" viewBox="0 0 16 16" fill="none" xmlns="http://www.w3.org/2000/svg">
<path fill-rule="evenodd" clip-rule="evenodd" d="M5.44833 10.5523C8.01166 13.1157 10.387 13.3963 11.0843 13.4223C11.927 13.453 12.787 12.765 13.159 12.0603C12.5657 11.3643 11.793 10.8243 10.947 10.239C10.4477 10.7377 9.83233 11.6643 9.01299 11.3323C8.54699 11.145 7.39633 10.615 6.39099 9.60899C5.38566 8.60299 4.85566 7.45299 4.66699 6.98766C4.33499 6.16699 5.26433 5.55032 5.76366 5.05099C5.17833 4.19099 4.64766 3.39832 3.95299 2.83499C3.23833 3.20832 2.54633 4.06166 2.57766 4.91566C2.60366 5.61299 2.88433 7.98832 5.44833 10.5523ZM11.035 14.755C10.075 14.7197 7.35433 14.3437 4.50499 11.495C1.65633 8.64566 1.28099 5.92566 1.24499 4.96499C1.19166 3.50099 2.31299 2.07899 3.60833 1.52366C3.76431 1.4563 3.93513 1.43066 4.10401 1.44924C4.2729 1.46782 4.43405 1.52999 4.57166 1.62966C5.64366 2.41166 6.38299 3.59632 7.01833 4.52432C7.15049 4.71729 7.21104 4.95039 7.18949 5.18328C7.16794 5.41618 7.06565 5.63421 6.90033 5.79966L5.99633 6.70432C6.20633 7.16766 6.63366 7.96632 7.33366 8.66632C8.03366 9.36632 8.83233 9.79366 9.29633 10.0037L10.1997 9.09966C10.3655 8.93363 10.5845 8.83123 10.8183 8.81039C11.052 8.78955 11.2857 8.85159 11.4783 8.98566C12.425 9.64166 13.537 10.3703 14.3477 11.4083C14.4554 11.5469 14.524 11.7119 14.5461 11.8861C14.5683 12.0602 14.5433 12.2371 14.4737 12.3983C13.9157 13.7003 12.5037 14.809 11.035 14.755Z" fill="#4E5969"/>
</svg>
