<svg width="16" height="16" viewBox="0 0 16 16" fill="none" xmlns="http://www.w3.org/2000/svg">
<path d="M13.5 1.5C14.0523 1.5 14.5 1.94772 14.5 2.5V13.5C14.5 14.0177 14.1067 14.4438 13.6025 14.4951L13.5 14.5H2.5L2.39746 14.4951C1.92703 14.4472 1.55278 14.073 1.50488 13.6025L1.5 13.5V2.5C1.5 1.94772 1.94772 1.5 2.5 1.5H13.5ZM3.77148 13.1699H12.2285L8 8.94141L3.77148 13.1699ZM2.83008 12.2285L7.05859 8L2.83008 3.77148V12.2285ZM8.94141 8L13.1699 12.2285V3.77148L8.94141 8ZM8 7.05859L12.2285 2.83008H3.77148L8 7.05859Z" fill="#4E5969"/>
</svg>
