<svg width="16" height="16" viewBox="0 0 16 16" fill="none" xmlns="http://www.w3.org/2000/svg">
<path fill-rule="evenodd" clip-rule="evenodd" d="M7.99967 1.33301C11.6817 1.33301 14.6663 4.31767 14.6663 7.99967C14.6663 11.6817 11.6817 14.6663 7.99967 14.6663C4.31767 14.6663 1.33301 11.6817 1.33301 7.99967C1.33301 4.31767 4.31767 1.33301 7.99967 1.33301ZM7.99967 2.66634C6.58519 2.66634 5.22863 3.22824 4.22844 4.22844C3.22824 5.22863 2.66634 6.58519 2.66634 7.99967C2.66634 9.41416 3.22824 10.7707 4.22844 11.7709C5.22863 12.7711 6.58519 13.333 7.99967 13.333C9.41416 13.333 10.7707 12.7711 11.7709 11.7709C12.7711 10.7707 13.333 9.41416 13.333 7.99967C13.333 6.58519 12.7711 5.22863 11.7709 4.22844C10.7707 3.22824 9.41416 2.66634 7.99967 2.66634ZM7.99967 5.33301C8.70692 5.33301 9.3852 5.61396 9.88529 6.11406C10.3854 6.61415 10.6663 7.29243 10.6663 7.99967C10.6663 8.70692 10.3854 9.3852 9.88529 9.88529C9.3852 10.3854 8.70692 10.6663 7.99967 10.6663C7.29243 10.6663 6.61415 10.3854 6.11406 9.88529C5.61396 9.3852 5.33301 8.70692 5.33301 7.99967C5.33301 7.29243 5.61396 6.61415 6.11406 6.11406C6.61415 5.61396 7.29243 5.33301 7.99967 5.33301ZM7.99967 6.66634C7.64605 6.66634 7.30691 6.80682 7.05687 7.05687C6.80682 7.30691 6.66634 7.64605 6.66634 7.99967C6.66634 8.3533 6.80682 8.69243 7.05687 8.94248C7.30691 9.19253 7.64605 9.33301 7.99967 9.33301C8.3533 9.33301 8.69243 9.19253 8.94248 8.94248C9.19253 8.69243 9.33301 8.3533 9.33301 7.99967C9.33301 7.64605 9.19253 7.30691 8.94248 7.05687C8.69243 6.80682 8.3533 6.66634 7.99967 6.66634Z" fill="#4E5969"/>
</svg>
