<svg width="16" height="16" viewBox="0 0 16 16" fill="none" xmlns="http://www.w3.org/2000/svg">
  <path d="M2.66634 2H11.9997C12.3533 2 12.6924 2.14048 12.9425 2.39052C13.1925 2.64057 13.333 2.97971 13.333 3.33333V8.05333C12.3299 7.88414 11.3001 8.10346 10.453 8.66667H7.99967V11.3333H8.71967C8.64634 11.7867 8.64634 12.2333 8.71967 12.6667H2.66634C2.31272 12.6667 1.97358 12.5262 1.72353 12.2761C1.47348 12.0261 1.33301 11.687 1.33301 11.3333V3.33333C1.33301 2.97971 1.47348 2.64057 1.72353 2.39052C1.97358 2.14048 2.31272 2 2.66634 2ZM2.66634 4.66667V7.33333H6.66634V4.66667H2.66634ZM7.99967 4.66667V7.33333H11.9997V4.66667H7.99967ZM2.66634 8.66667V11.3333H6.66634V8.66667H2.66634Z" fill="#4E5969"/>
  <path d="M11.057 11.3327C10.9332 11.4565 10.8349 11.6039 10.7679 11.7656C10.701 11.9272 10.667 12.1005 10.667 12.2754C10.667 12.4504 10.7009 12.6241 10.7679 12.7858C10.8349 12.9476 10.9332 13.0949 11.057 13.2188C11.1808 13.3425 11.3282 13.4402 11.4899 13.5072C11.6517 13.5742 11.8252 13.6087 12.0003 13.6087C12.1753 13.6087 12.3484 13.5741 12.5101 13.5072C12.6718 13.4402 12.8192 13.3425 12.943 13.2188L13.8857 14.1615C13.6381 14.4091 13.344 14.6056 13.0205 14.7396C12.6971 14.8735 12.3504 14.942 12.0003 14.9421C11.6502 14.9421 11.303 14.8736 10.9795 14.7396C10.656 14.6056 10.3619 14.4091 10.1143 14.1615C9.86664 13.9138 9.67015 13.6198 9.53613 13.2962C9.40212 12.9727 9.33301 12.6256 9.33301 12.2754C9.33304 11.9253 9.40218 11.5786 9.53613 11.2552C9.67014 10.9317 9.86665 10.6376 10.1143 10.39L11.057 11.3327ZM12.9424 8.66667C13.2925 8.66667 13.6397 8.73515 13.9632 8.86914C14.2867 9.00315 14.5808 9.19966 14.8285 9.44727C15.0761 9.69488 15.2726 9.98897 15.4066 10.3125C15.5406 10.636 15.609 10.9831 15.609 11.3333C15.609 11.6834 15.5405 12.0301 15.4066 12.3535C15.2726 12.677 15.0761 12.9711 14.8285 13.2188L13.8857 12.276C14.0095 12.1522 14.1078 12.0048 14.1748 11.8431C14.2417 11.6815 14.2763 11.5082 14.2764 11.3333C14.2764 11.1583 14.2418 10.9846 14.1748 10.8229C14.1078 10.6611 14.0096 10.5138 13.8857 10.39C13.7619 10.2662 13.6146 10.1686 13.4528 10.1016C13.291 10.0346 13.1175 10 12.9424 10C12.7674 10 12.5943 10.0346 12.4326 10.1016C12.2709 10.1686 12.1235 10.2662 11.9997 10.39L11.057 9.44727C11.3046 9.19966 11.5987 9.00315 11.9222 8.86914C12.2456 8.73519 12.5923 8.66671 12.9424 8.66667ZM12.471 10.8613C12.7314 10.601 13.154 10.601 13.4144 10.8613C13.6746 11.1216 13.6745 11.5437 13.4144 11.804L12.471 12.7467C12.2107 13.0071 11.7887 13.0071 11.5283 12.7467C11.2682 12.4864 11.2681 12.0643 11.5283 11.804L12.471 10.8613Z" fill="#4E5969"/>
</svg>
