<svg width="16" height="16" viewBox="0 0 16 16" fill="none" xmlns="http://www.w3.org/2000/svg">
<path d="M3.23047 1.09668C3.86172 1.09668 4.37512 1.59391 4.4043 2.21777H10.9111C10.9403 1.59308 11.4538 1.09672 12.085 1.09668H13.2812C13.932 1.09668 14.4589 1.62368 14.459 2.27344V3.46973C14.459 4.0443 14.0464 4.52179 13.502 4.625V10.6895C14.0471 10.7927 14.4588 11.2713 14.459 11.8457V13.043C14.4587 13.6936 13.9309 14.2197 13.2812 14.2197H12.085C11.4535 14.2197 10.9399 13.7218 10.9111 13.0977H4.4043C4.37596 13.7231 3.86223 14.2207 3.23047 14.2207H2.0332C1.38333 14.2206 0.857422 13.6927 0.857422 13.043V11.8467C0.857553 11.271 1.26937 10.793 1.81445 10.6904V4.62598C1.26938 4.52331 0.857422 4.04568 0.857422 3.4707V2.27344C0.857522 1.62288 1.38344 1.09683 2.0332 1.09668H3.23047ZM2.13379 12.9424H3.13086V11.9453H2.13379V12.9424ZM12.1846 12.9424H13.1816V11.9453H12.1846V12.9424ZM4.40625 3.49512C4.39338 4.13384 3.87229 4.64746 3.23047 4.64746H3.09082V10.6699H3.23047C3.87156 10.6699 4.39209 11.1828 4.40625 11.8203H10.9092C10.9229 11.1815 11.4436 10.669 12.085 10.6689H12.2246V4.64648H12.1846L12.085 4.64746C11.4434 4.64742 10.9225 4.13333 10.9092 3.49512H4.40625ZM9.5166 5.10547C9.68124 5.11216 9.83699 5.18199 9.95117 5.30078C10.0653 5.41967 10.1288 5.57835 10.1289 5.74316C10.1289 5.90806 10.0654 6.06661 9.95117 6.18555C9.83697 6.30448 9.68135 6.37514 9.5166 6.38184H8.28809V9.99707C8.27864 10.1597 8.20733 10.313 8.08887 10.4248C7.97035 10.5366 7.81334 10.5986 7.65039 10.5986C7.48744 10.5986 7.33044 10.5366 7.21191 10.4248C7.09346 10.313 7.02214 10.1597 7.0127 9.99707V9.99121L7.01074 6.38184H5.79883C5.6342 6.37505 5.47838 6.3044 5.36426 6.18555C5.25017 6.06663 5.18652 5.90797 5.18652 5.74316C5.18658 5.57835 5.25011 5.41967 5.36426 5.30078C5.47837 5.18196 5.63423 5.11226 5.79883 5.10547H9.5166ZM2.13379 3.37012H3.13086V2.37402H2.13379V3.37012ZM12.1846 3.37012H13.1816V2.37402H12.1846V3.37012Z" fill="#4E5969"/>
</svg>
