<svg width="16" height="16" viewBox="0 0 16 16" fill="none" xmlns="http://www.w3.org/2000/svg">
<path d="M13.5997 2.40039C13.7398 2.40039 13.8785 2.42798 14.0079 2.48159C14.1373 2.53519 14.2549 2.61376 14.3539 2.71281C14.453 2.81186 14.5315 2.92945 14.5851 3.05886C14.6388 3.18828 14.6663 3.32698 14.6663 3.46706V12.5337C14.6663 12.8166 14.554 13.0879 14.3539 13.288C14.1539 13.488 13.8826 13.6004 13.5997 13.6004H2.39967C2.11678 13.6004 1.84547 13.488 1.64543 13.288C1.44539 13.0879 1.33301 12.8166 1.33301 12.5337V3.46706C1.33301 3.18416 1.44539 2.91285 1.64543 2.71281C1.84547 2.51277 2.11678 2.40039 2.39967 2.40039H13.5997ZM13.333 3.46706H2.66634C2.59562 3.46706 2.52779 3.49515 2.47778 3.54516C2.42777 3.59517 2.39967 3.663 2.39967 3.73372V12.2671C2.39967 12.3378 2.42777 12.4056 2.47778 12.4556C2.52779 12.5056 2.59562 12.5337 2.66634 12.5337H13.333C13.4037 12.5337 13.4716 12.5056 13.5216 12.4556C13.5716 12.4056 13.5997 12.3378 13.5997 12.2671V3.73372C13.5997 3.663 13.5716 3.59517 13.5216 3.54516C13.4716 3.49515 13.4037 3.46706 13.333 3.46706ZM12.4589 8.68759C12.5546 8.78063 12.6119 8.90617 12.6196 9.03942C12.6272 9.17267 12.5846 9.30394 12.5002 9.40732L12.4695 9.44172L10.9149 11.0417C10.8235 11.1358 10.7006 11.1929 10.5697 11.2021C10.4389 11.2113 10.3092 11.172 10.2055 11.0916L10.1711 11.0623L9.23834 10.2033C9.13689 10.1103 9.07534 9.98162 9.06657 9.84424C9.05779 9.70687 9.10248 9.57142 9.19127 9.46623C9.28007 9.36104 9.40609 9.29426 9.54299 9.27985C9.67989 9.26544 9.81706 9.30453 9.92581 9.38892L9.96101 9.41879L10.5117 9.92572L11.7047 8.69826C11.8033 8.59684 11.9382 8.53875 12.0796 8.53675C12.221 8.53475 12.3575 8.58901 12.4589 8.68759ZM7.46634 9.33372C7.60779 9.33372 7.74344 9.38991 7.84346 9.48993C7.94348 9.58995 7.99967 9.72561 7.99967 9.86706C7.99967 10.0085 7.94348 10.1442 7.84346 10.2442C7.74344 10.3442 7.60779 10.4004 7.46634 10.4004H3.99967C3.85823 10.4004 3.72257 10.3442 3.62255 10.2442C3.52253 10.1442 3.46634 10.0085 3.46634 9.86706C3.46634 9.72561 3.52253 9.58995 3.62255 9.48993C3.72257 9.38991 3.85823 9.33372 3.99967 9.33372H7.46634ZM12.4589 4.95426C12.5546 5.04729 12.6119 5.17283 12.6196 5.30608C12.6272 5.43933 12.5846 5.57061 12.5002 5.67399L12.4695 5.70839L10.9149 7.30839C10.8235 7.40248 10.7006 7.45959 10.5697 7.46879C10.4389 7.47799 10.3092 7.43864 10.2055 7.35826L10.1711 7.32892L9.23834 6.46999C9.13689 6.37695 9.07534 6.24829 9.06657 6.11091C9.05779 5.97354 9.10248 5.83809 9.19127 5.7329C9.28007 5.62771 9.40609 5.56093 9.54299 5.54652C9.67989 5.53211 9.81706 5.57119 9.92581 5.65559L9.96101 5.68546L10.5117 6.19239L11.7047 4.96492C11.8033 4.86351 11.9382 4.80542 12.0796 4.80342C12.221 4.80142 12.3575 4.85567 12.4589 4.95426ZM7.46634 5.60039C7.60779 5.60039 7.74344 5.65658 7.84346 5.7566C7.94348 5.85662 7.99967 5.99227 7.99967 6.13372C7.99967 6.27517 7.94348 6.41083 7.84346 6.51085C7.74344 6.61087 7.60779 6.66706 7.46634 6.66706H3.99967C3.85823 6.66706 3.72257 6.61087 3.62255 6.51085C3.52253 6.41083 3.46634 6.27517 3.46634 6.13372C3.46634 5.99227 3.52253 5.85662 3.62255 5.7566C3.72257 5.65658 3.85823 5.60039 3.99967 5.60039H7.46634Z" fill="#4E5969" stroke="#4E5969" stroke-width="0.2"/>
</svg>
