<svg width="16" height="16" viewBox="0 0 16 16" fill="none" xmlns="http://www.w3.org/2000/svg">
<path d="M12.8 2C13.1183 2 13.4235 2.12643 13.6485 2.35147C13.8736 2.57652 14 2.88174 14 3.2V12.8C14 13.1183 13.8736 13.4235 13.6485 13.6485C13.4235 13.8736 13.1183 14 12.8 14H3.2C2.88174 14 2.57652 13.8736 2.35147 13.6485C2.12643 13.4235 2 13.1183 2 12.8V3.2C2 2.88174 2.12643 2.57652 2.35147 2.35147C2.57652 2.12643 2.88174 2 3.2 2H12.8ZM12.8 3.2H3.2V12.8H12.8V3.2ZM6.44857 6.8L8 8.35143L9.55143 6.8C9.66396 6.68747 9.81658 6.62425 9.97571 6.62426C10.1349 6.62425 10.2875 6.68747 10.4 6.8C10.5125 6.91253 10.5757 7.06515 10.5757 7.22429C10.5757 7.38342 10.5125 7.53604 10.4 7.64857L8 10.0486L5.6 7.64857C5.54428 7.59285 5.50008 7.52671 5.46993 7.45391C5.43978 7.38111 5.42426 7.30308 5.42425 7.22429C5.42425 7.14549 5.43978 7.06746 5.46993 6.99466C5.50008 6.92186 5.54428 6.85572 5.6 6.8C5.65572 6.74428 5.72186 6.70008 5.79466 6.66993C5.86746 6.63978 5.94549 6.62425 6.02429 6.62426C6.10308 6.62426 6.18111 6.63978 6.25391 6.66993C6.32671 6.70008 6.39285 6.74428 6.44857 6.8Z" fill="#4E5969"/>
</svg>
