<svg width="16" height="16" viewBox="0 0 16 16" fill="none" xmlns="http://www.w3.org/2000/svg">
<path d="M14.1025 2.00488C14.6067 2.05621 15 2.48232 15 3V13C15 13.5177 14.6067 13.9438 14.1025 13.9951L14 14H2C1.48232 14 1.05621 13.6067 1.00488 13.1025L1 13V3C1 2.44772 1.44772 2 2 2H14L14.1025 2.00488ZM2.33008 12.6699H13.6699V3.33008H2.33008V12.6699ZM7.33496 9.60059C7.70223 9.60059 8 9.89836 8 10.2656C7.99998 10.6329 7.70222 10.9307 7.33496 10.9307H4.66504C4.29778 10.9307 4.00002 10.6329 4 10.2656C4 9.89836 4.29777 9.60059 4.66504 9.60059H7.33496ZM11.335 7.30078C11.7022 7.30078 12 7.59855 12 7.96582C12 8.33307 11.7022 8.63086 11.335 8.63086H4.66504C4.29778 8.63086 4.00002 8.33307 4 7.96582C4 7.59855 4.29777 7.30078 4.66504 7.30078H11.335ZM11.335 5C11.7022 5 12 5.29777 12 5.66504C12 6.03229 11.7022 6.33008 11.335 6.33008H4.66504C4.29778 6.33008 4.00002 6.03229 4 5.66504C4 5.29777 4.29777 5 4.66504 5H11.335Z" fill="#4E5969"/>
</svg>
