<svg width="16" height="16" viewBox="0 0 16 16" fill="none" xmlns="http://www.w3.org/2000/svg">
    <path fill-rule="evenodd" clip-rule="evenodd"
        d="M13.2002 2.33496C14.0091 2.33507 14.6649 2.99086 14.665 3.7998V12.2002C14.6649 13.0091 14.0091 13.6649 13.2002 13.665H2.7998C1.99086 13.6649 1.33507 13.0091 1.33496 12.2002V3.7998C1.33507 2.99086 1.99086 2.33507 2.7998 2.33496H13.2002ZM2.66504 12.2002C2.66514 12.2746 2.7254 12.3349 2.7998 12.335H5.33496V9.46504H2.66504V12.2002ZM10.665 12.335H13.2002C13.2746 12.3349 13.3349 12.2746 13.335 12.2002V9.46504H10.665V12.335ZM6.66504 12.335H9.33496V9.46504H6.66504V12.335ZM2.66504 8.13496H5.33496V5.3H2.66504V8.13496ZM10.665 8.13496H13.335V5.3H10.665V8.13496ZM6.66504 8.13496H9.33496V5.3H6.66504V8.13496Z"
        fill="#4E5969" />
</svg>