<svg width="16" height="16" viewBox="0 0 16 16" fill="none" xmlns="http://www.w3.org/2000/svg">
<path fill-rule="evenodd" clip-rule="evenodd" d="M10.667 3.33301C11.2798 3.33301 11.8867 3.45371 12.4528 3.68824C13.019 3.92276 13.5335 4.2665 13.9668 4.69984C14.4002 5.13318 14.7439 5.64763 14.9784 6.21382C15.213 6.78 15.3337 7.38684 15.3337 7.99967C15.3337 8.61251 15.213 9.21934 14.9784 9.78553C14.7439 10.3517 14.4002 10.8662 13.9668 11.2995C13.5335 11.7328 13.019 12.0766 12.4528 12.3111C11.8867 12.5456 11.2798 12.6663 10.667 12.6663H5.33366C4.72082 12.6663 4.11399 12.5456 3.5478 12.3111C2.98162 12.0766 2.46717 11.7328 2.03383 11.2995C1.60049 10.8662 1.25674 10.3517 1.02222 9.78553C0.787699 9.21934 0.666992 8.61251 0.666992 7.99967C0.666992 7.38684 0.787699 6.78 1.02222 6.21382C1.25674 5.64763 1.60049 5.13318 2.03383 4.69984C2.46717 4.2665 2.98162 3.92276 3.5478 3.68824C4.11399 3.45371 4.72082 3.33301 5.33366 3.33301H10.667ZM10.667 4.66634H5.33366C4.4496 4.66634 3.60176 5.01753 2.97664 5.64265C2.35152 6.26777 2.00033 7.11562 2.00033 7.99967C2.00033 8.88373 2.35152 9.73158 2.97664 10.3567C3.60176 10.9818 4.4496 11.333 5.33366 11.333H10.667C11.551 11.333 12.3989 10.9818 13.024 10.3567C13.6491 9.73158 14.0003 8.88373 14.0003 7.99967C14.0003 7.11562 13.6491 6.26777 13.024 5.64265C12.3989 5.01753 11.551 4.66634 10.667 4.66634ZM5.33366 5.33301C6.0409 5.33301 6.71918 5.61396 7.21928 6.11406C7.71937 6.61415 8.00033 7.29243 8.00033 7.99967C8.00033 8.70692 7.71937 9.3852 7.21928 9.88529C6.71918 10.3854 6.0409 10.6663 5.33366 10.6663C4.62642 10.6663 3.94814 10.3854 3.44804 9.88529C2.94794 9.3852 2.66699 8.70692 2.66699 7.99967C2.66699 7.29243 2.94794 6.61415 3.44804 6.11406C3.94814 5.61396 4.62642 5.33301 5.33366 5.33301ZM5.33366 6.66634C4.98004 6.66634 4.6409 6.80682 4.39085 7.05687C4.1408 7.30691 4.00033 7.64605 4.00033 7.99967C4.00033 8.3533 4.1408 8.69243 4.39085 8.94248C4.6409 9.19253 4.98004 9.33301 5.33366 9.33301C5.68728 9.33301 6.02642 9.19253 6.27647 8.94248C6.52652 8.69243 6.66699 8.3533 6.66699 7.99967C6.66699 7.64605 6.52652 7.30691 6.27647 7.05687C6.02642 6.80682 5.68728 6.66634 5.33366 6.66634Z" fill="#4E5969"/>
</svg>
