<svg width="16" height="16" viewBox="0 0 16 16" fill="none" xmlns="http://www.w3.org/2000/svg">
<path d="M5 2C5.55228 2 6 2.44772 6 3V4C6 4.55228 6.44772 5 7 5H14C14.5523 5 15 5.44772 15 6V13C15 13.5177 14.6067 13.9438 14.1025 13.9951L14 14H2C1.48232 14 1.05621 13.6067 1.00488 13.1025L1 13V3C1 2.44772 1.44772 2 2 2H5ZM2.33008 12.6699H13.6699V6.33008H7C5.71318 6.33008 4.66992 5.28682 4.66992 4V3.33008H2.33008V12.6699ZM9.5 2C10.0523 2 10.5 2.44772 10.5 3C10.5 3.51768 10.1067 3.94379 9.60254 3.99512L9.5 4H8.5L8.39746 3.99512C7.89333 3.94379 7.5 3.51768 7.5 3C7.5 2.44772 7.94772 2 8.5 2H9.5ZM14 2C14.5523 2 15 2.44772 15 3C15 3.51768 14.6067 3.94379 14.1025 3.99512L14 4H13L12.8975 3.99512C12.3933 3.94379 12 3.51768 12 3C12 2.44772 12.4477 2 13 2H14Z" fill="#4E5969"/>
</svg>
