<svg width="16" height="16" viewBox="0 0 16 16" fill="none" xmlns="http://www.w3.org/2000/svg">
<path d="M13 3C14.1046 3 15 3.89543 15 5V11C15 12.0357 14.2128 12.887 13.2041 12.9893L13 13H3L2.7959 12.9893C1.85435 12.8938 1.1062 12.1457 1.01074 11.2041L1 11V5C1 3.89543 1.89543 3 3 3H13ZM3 4.33008C2.62997 4.33008 2.33008 4.62997 2.33008 5V11C2.33008 11.37 2.62997 11.6699 3 11.6699H13C13.37 11.6699 13.6699 11.37 13.6699 11V5C13.6699 4.62997 13.37 4.33008 13 4.33008H3ZM11.707 9.5C11.9023 9.30474 12.2188 9.30474 12.4141 9.5C12.6093 9.69527 12.6093 10.0118 12.4141 10.207L11.707 10.9141C11.5118 11.1093 11.1953 11.1093 11 10.9141C10.8047 10.7188 10.8047 10.4023 11 10.207L11.707 9.5ZM11 7.37891C11.1953 7.18364 11.5118 7.18364 11.707 7.37891C11.9022 7.57417 11.9023 7.89069 11.707 8.08594L9.58594 10.207C9.39069 10.4023 9.07417 10.4022 8.87891 10.207C8.68364 10.0118 8.68364 9.69526 8.87891 9.5L11 7.37891Z" fill="#4E5969"/>
</svg>
