<svg width="16" height="16" viewBox="0 0 16 16" fill="none" xmlns="http://www.w3.org/2000/svg">
<path d="M3.84473 1C4.21198 1.00002 4.50977 1.29778 4.50977 1.66504V2.33496C4.50977 2.42288 4.49096 2.50619 4.45996 2.58301C5.53538 2.86248 6.33008 3.83712 6.33008 5C6.33008 6.14482 5.55975 7.10696 4.50977 7.40332V8.5957C5.55988 8.89197 6.33008 9.85509 6.33008 11C6.33008 12.1628 5.53526 13.1365 4.45996 13.416C4.49117 13.4931 4.50977 13.5768 4.50977 13.665V14.335C4.50977 14.7022 4.21198 15 3.84473 15C3.47746 15 3.17969 14.7022 3.17969 14.335V13.665C3.17969 13.5794 3.19709 13.498 3.22656 13.4229C2.13786 13.1526 1.33008 12.1723 1.33008 11C1.33008 9.84449 2.11464 8.87436 3.17969 8.58789V7.41113C2.11477 7.12458 1.33008 6.15543 1.33008 5C1.33008 3.82762 2.13775 2.84639 3.22656 2.57617C3.1973 2.50124 3.17969 2.42026 3.17969 2.33496V1.66504C3.17969 1.29777 3.47746 1 3.84473 1ZM11.1348 11.501C11.502 11.501 11.7998 11.7987 11.7998 12.166C11.7998 12.5333 11.502 12.8311 11.1348 12.8311H8.46484C8.09759 12.8311 7.79983 12.5333 7.7998 12.166C7.7998 11.7987 8.09757 11.501 8.46484 11.501H11.1348ZM3.83008 9.83008C3.18391 9.83008 2.66016 10.3538 2.66016 11C2.66016 11.6462 3.18391 12.1699 3.83008 12.1699C4.47625 12.1699 5 11.6462 5 11C5 10.3538 4.47625 9.83008 3.83008 9.83008ZM13.835 9.2002C14.2022 9.20028 14.5 9.49802 14.5 9.86523C14.5 10.2324 14.2021 10.5302 13.835 10.5303H8.46484C8.09759 10.5303 7.79983 10.2325 7.7998 9.86523C7.7998 9.49796 8.09757 9.2002 8.46484 9.2002H13.835ZM11.1348 5.09961C11.502 5.09961 11.7998 5.39738 11.7998 5.76465C11.7998 6.1319 11.502 6.42969 11.1348 6.42969H8.46484C8.09759 6.42969 7.79983 6.1319 7.7998 5.76465C7.7998 5.39738 8.09757 5.09961 8.46484 5.09961H11.1348ZM3.83008 3.83008C3.18391 3.83008 2.66016 4.35383 2.66016 5C2.66016 5.64617 3.18391 6.16992 3.83008 6.16992C4.47625 6.16992 5 5.64617 5 5C5 4.35383 4.47625 3.83008 3.83008 3.83008ZM13.835 2.7998C14.2022 2.79989 14.5 3.09763 14.5 3.46484C14.5 3.83204 14.2021 4.1298 13.835 4.12988H8.46484C8.09759 4.12988 7.79983 3.8321 7.7998 3.46484C7.7998 3.09757 8.09757 2.7998 8.46484 2.7998H13.835Z" fill="#4E5969"/>
</svg>
