<svg width="16" height="16" viewBox="0 0 16 16" fill="none" xmlns="http://www.w3.org/2000/svg">
<path fill-rule="evenodd" clip-rule="evenodd" d="M12.4735 11.7102C13.0048 11.1789 13.3032 10.4583 13.3032 9.70688C13.3032 8.9555 13.0048 8.23489 12.4735 7.70355L8.1135 3.34355C7.98841 3.21854 7.91809 3.04896 7.91803 2.87212C7.91797 2.69527 7.98816 2.52564 8.11317 2.40055C8.23817 2.27545 8.40775 2.20514 8.5846 2.20508C8.76144 2.20502 8.93107 2.27521 9.05617 2.40021L13.4162 6.76021C14.1977 7.54154 14.6368 8.60132 14.6369 9.70641C14.637 10.8115 14.1982 11.8714 13.4168 12.6529C12.6355 13.4344 11.5757 13.8735 10.4706 13.8736C9.36555 13.8738 8.30567 13.4349 7.52417 12.6535L2.2215 7.35021C1.6588 6.78742 1.34271 6.02415 1.34277 5.22831C1.34284 4.43247 1.65904 3.66925 2.22183 3.10655C2.78462 2.54385 3.54789 2.22776 4.34373 2.22782C5.13958 2.22788 5.9028 2.54409 6.4655 3.10688L11.7675 8.40888C12.1032 8.75465 12.2894 9.21863 12.2858 9.70056C12.2822 10.1825 12.0892 10.6437 11.7483 10.9844C11.4075 11.3251 10.9463 11.5181 10.4644 11.5215C9.98245 11.525 9.51852 11.3387 9.17283 11.0029L4.34217 6.17155C4.21707 6.04654 4.14676 5.87696 4.1467 5.70012C4.14663 5.52327 4.21683 5.35364 4.34183 5.22855C4.46684 5.10345 4.63642 5.03314 4.81326 5.03308C4.99011 5.03302 5.15974 5.10321 5.28483 5.22821L10.1162 10.0595C10.2101 10.1535 10.3374 10.2064 10.4703 10.2064C10.6031 10.2065 10.7305 10.1538 10.8245 10.0599C10.9185 9.96599 10.9713 9.83862 10.9714 9.70578C10.9714 9.57294 10.9187 9.44552 10.8248 9.35155L5.52283 4.04955C5.36805 3.89467 5.18427 3.77181 4.982 3.68796C4.77974 3.60411 4.56293 3.56092 4.34397 3.56086C4.12501 3.56079 3.90818 3.60386 3.70586 3.68759C3.50355 3.77133 3.3197 3.8941 3.16483 4.04888C2.85205 4.36148 2.67627 4.78553 2.67614 5.22774C2.67602 5.66995 2.85156 6.0941 3.16417 6.40688L8.46683 11.7095C8.99817 12.2408 9.71879 12.5393 10.4702 12.5393C11.2215 12.5393 11.9422 12.2408 12.4735 11.7095V11.7102Z" fill="#4E5969"/>
</svg>
