<svg width="16" height="16" viewBox="0 0 16 16" fill="none" xmlns="http://www.w3.org/2000/svg">
<path d="M11.5 4.5C12.0523 4.5 12.5 4.94772 12.5 5.5V13.5L12.4951 13.6025C12.4472 14.073 12.073 14.4472 11.6025 14.4951L11.5 14.5H2L1.89746 14.4951C1.42703 14.4472 1.05278 14.073 1.00488 13.6025L1 13.5V5.5C1 4.94772 1.44772 4.5 2 4.5H11.5ZM2.33008 13.1699H11.1699V8.33008H2.33008V13.1699ZM14 1.5C14.5523 1.5 15 1.94772 15 2.5V10.5L14.9951 10.6025C14.9472 11.073 14.573 11.4472 14.1025 11.4951L14 11.5H13V10.1699H13.6699V2.83008H4.33008V4H3V2.5C3 1.94772 3.44772 1.5 4 1.5H14ZM2.33008 7H11.1699V5.83008H2.33008V7Z" fill="#4E5969"/>
</svg>
