<svg width="16" height="16" viewBox="0 0 16 16" fill="none" xmlns="http://www.w3.org/2000/svg">
<path d="M11.3333 3.99992H14.6667V5.33325H13.3333V13.9999C13.3333 14.3681 13.0349 14.6666 12.6667 14.6666H3.33334C2.96516 14.6666 2.66668 14.3681 2.66668 13.9999V5.33325H1.33334V3.99992H4.66668V1.99992C4.66668 1.63173 4.96516 1.33325 5.33334 1.33325H10.6667C11.0349 1.33325 11.3333 1.63173 11.3333 1.99992V3.99992ZM12 5.33325H4.00001V13.3333H12V5.33325ZM6.00001 7.33325H7.33334V11.3333H6.00001V7.33325ZM8.66668 7.33325H10V11.3333H8.66668V7.33325ZM6.00001 2.66659V3.99992H10V2.66659H6.00001Z" fill="#F53F3F"/>
</svg>
