<svg width="24" height="24" viewBox="0 0 24 24" fill="none" xmlns="http://www.w3.org/2000/svg">
<path fill-rule="evenodd" clip-rule="evenodd" d="M4 10.165L2.033 8.554C2.11408 8.01569 2.33992 7.50953 2.68638 7.08962C3.03284 6.66972 3.48689 6.35185 4 6.17V10.164V10.165ZM5 10.985L10.732 15.681C11.0896 15.9741 11.5376 16.1343 12 16.1343C12.4624 16.1343 12.9104 15.9741 13.268 15.681L19 10.985V5C19 4.20435 18.6839 3.44129 18.1213 2.87868C17.5587 2.31607 16.7956 2 16 2H8C7.20435 2 6.44129 2.31607 5.87868 2.87868C5.31607 3.44129 5 4.20435 5 5V10.985ZM21.967 8.554L20 10.165V6.171C20.513 6.35277 20.9669 6.67049 21.3134 7.0902C21.6598 7.50992 21.8857 8.01587 21.967 8.554ZM13.266 18.246L22 11.11V19C22 19.7956 21.6839 20.5587 21.1213 21.1213C20.5587 21.6839 19.7956 22 19 22H5C4.20435 22 3.44129 21.6839 2.87868 21.1213C2.31607 20.5587 2 19.7956 2 19V11.109L10.734 18.246C11.0913 18.5381 11.5385 18.6977 12 18.6977C12.4615 18.6977 12.9087 18.5381 13.266 18.246ZM10 9C9.73478 9 9.48043 9.10536 9.29289 9.29289C9.10536 9.48043 9 9.73478 9 10C9 10.2652 9.10536 10.5196 9.29289 10.7071C9.48043 10.8946 9.73478 11 10 11H14C14.2652 11 14.5196 10.8946 14.7071 10.7071C14.8946 10.5196 15 10.2652 15 10C15 9.73478 14.8946 9.48043 14.7071 9.29289C14.5196 9.10536 14.2652 9 14 9H10ZM10 5C9.73478 5 9.48043 5.10536 9.29289 5.29289C9.10536 5.48043 9 5.73478 9 6C9 6.26522 9.10536 6.51957 9.29289 6.70711C9.48043 6.89464 9.73478 7 10 7H14C14.2652 7 14.5196 6.89464 14.7071 6.70711C14.8946 6.51957 15 6.26522 15 6C15 5.73478 14.8946 5.48043 14.7071 5.29289C14.5196 5.10536 14.2652 5 14 5H10Z" fill="#C9CDD4"/>
</svg>
