<svg width="24" height="24" viewBox="0 0 24 24" fill="none" xmlns="http://www.w3.org/2000/svg">
<path fill-rule="evenodd" clip-rule="evenodd" d="M2.5 4C2.5 3.17157 3.17157 2.5 4 2.5H20C20.8284 2.5 21.5 3.17157 21.5 4V7.22553C21.5 7.73838 21.238 8.21568 20.8053 8.49102L16 11.5489V21H14V11.2745C14 10.7616 14.262 10.2843 14.6947 10.009L19.5 6.95105V4.5H4.5V6.95105L9.30531 10.009C9.73799 10.2843 10 10.7616 10 11.2745V18.5H8V11.5489L3.19469 8.49102C2.76201 8.21568 2.5 7.73838 2.5 7.22553V4Z" fill="#4E5969"/>
</svg>
