<svg width="18" height="18" viewBox="0 0 18 18" fill="none" xmlns="http://www.w3.org/2000/svg">
<path d="M11.25 2.25C11.6642 2.25 12 2.58579 12 3V6C12 6.41421 11.6642 6.75 11.25 6.75H9.75V8.25H12.75C13.1642 8.25 13.5 8.58577 13.5 9V11.25H15C15.4142 11.25 15.75 11.5858 15.75 12V15C15.75 15.4142 15.4142 15.75 15 15.75H10.5C10.0858 15.75 9.75 15.4142 9.75 15V12C9.75 11.5858 10.0858 11.25 10.5 11.25H12V9.75H6V11.25H7.5C7.91423 11.25 8.25 11.5858 8.25 12V15C8.25 15.4142 7.91423 15.75 7.5 15.75H3C2.58579 15.75 2.25 15.4142 2.25 15V12C2.25 11.5858 2.58579 11.25 3 11.25H4.5V9C4.5 8.58577 4.83579 8.25 5.25 8.25H8.25V6.75H6.75C6.33579 6.75 6 6.41421 6 6V3C6 2.58579 6.33579 2.25 6.75 2.25H11.25ZM6.75 12.75H3.75V14.25H6.75V12.75ZM14.25 12.75H11.25V14.25H14.25V12.75ZM10.5 3.75H7.5V5.25H10.5V3.75Z" fill="#4E5969"/>
</svg>
