<svg width="15" height="14" viewBox="0 0 15 14" fill="none" xmlns="http://www.w3.org/2000/svg">
<path fill-rule="evenodd" clip-rule="evenodd" d="M3.375 3.375C3.375 2.33947 4.21447 1.5 5.25 1.5C6.28553 1.5 7.125 2.33947 7.125 3.375C7.125 4.41053 6.28553 5.25 5.25 5.25C4.21447 5.25 3.375 4.41053 3.375 3.375ZM5.25 0C3.38604 0 1.875 1.51104 1.875 3.375C1.875 5.23896 3.38604 6.75 5.25 6.75C7.11396 6.75 8.625 5.23896 8.625 3.375C8.625 1.51104 7.11396 0 5.25 0ZM10.5 4.875C10.5 4.46079 10.8358 4.125 11.25 4.125C11.6642 4.125 12 4.46079 12 4.875C12 5.28921 11.6642 5.625 11.25 5.625C10.8358 5.625 10.5 5.28921 10.5 4.875ZM11.25 2.625C10.0074 2.625 9 3.63236 9 4.875C9 6.11764 10.0074 7.125 11.25 7.125C12.4926 7.125 13.5 6.11764 13.5 4.875C13.5 3.63236 12.4926 2.625 11.25 2.625ZM0 10.5C0 8.84315 1.34315 7.5 3 7.5H7.5C9.15685 7.5 10.5 8.84315 10.5 10.5V13.5H0V10.5ZM3 9C2.17157 9 1.5 9.67157 1.5 10.5V12H9V10.5C9 9.67157 8.32843 9 7.5 9H3ZM15 10.5C15 9.25736 13.9926 8.25 12.75 8.25H11.25V9.75H12.75C13.1642 9.75 13.5 10.0858 13.5 10.5V11.25H11.25V12.75H15V10.5Z" fill="#4E5969"/>
</svg>
