<svg width="22" height="22" viewBox="0 0 22 22" fill="none" xmlns="http://www.w3.org/2000/svg">
<path d="M0 4C0 1.79086 1.79086 0 4 0H18C20.2091 0 22 1.79086 22 4V18C22 20.2091 20.2091 22 18 22H4C1.79086 22 0 20.2091 0 18V4Z" fill="#EBBC00"/>
<g clip-path="url(#clip0_7423_60744)">
<g filter="url(#filter0_d_7423_60744)">
<path fill-rule="evenodd" clip-rule="evenodd" d="M16.999 5C17.3672 5 17.666 5.2988 17.666 5.66699V15C17.666 15.3682 17.3672 15.667 16.999 15.667H13.502L14.5996 17.1309C14.7101 17.2781 14.6805 17.4872 14.5332 17.5977C14.4755 17.6409 14.4051 17.6641 14.333 17.6641H7.66699C7.4829 17.6641 7.33301 17.5151 7.33301 17.3311C7.33303 17.259 7.35714 17.1885 7.40039 17.1309L8.49805 15.667H4.99902C4.63098 15.6668 4.33203 15.3681 4.33203 15V5.66699C4.33203 5.29891 4.63098 5.00018 4.99902 5H16.999ZM12.8643 8.86426L11.2314 10.4971L9.81738 9.08301L6.98828 11.9111L7.93164 12.8545L9.81738 10.9688L11.2314 12.3828L13.8076 9.80664L15.0029 11.002V7.66895H11.6689L12.8643 8.86426Z" fill="url(#paint0_linear_7423_60744)" shape-rendering="crispEdges"/>
<path d="M4.99902 5.33301H16.999C17.1831 5.33301 17.333 5.4829 17.333 5.66699V15L17.3262 15.0674C17.295 15.2193 17.1601 15.334 16.999 15.334H12.835L13.2354 15.8672L14.333 17.3311H7.66699L8.76465 15.8672L9.16504 15.334H4.99902C4.81487 15.3338 4.66504 15.1838 4.66504 15V5.66699C4.66504 5.48322 4.81487 5.33318 4.99902 5.33301ZM11.4336 7.9043L12.3936 8.86426L11.2314 10.0264L10.0527 8.84766L9.81738 8.61133L9.58203 8.84766L6.75293 11.6758L6.5166 11.9111L6.75293 12.1465L7.69629 13.0898L7.93164 13.3262L8.16699 13.0898L9.81738 11.4395L10.9961 12.6182L11.2314 12.8545L11.4668 12.6182L13.8076 10.2773L14.7676 11.2373L15.3359 11.8066V7.33594H10.8643L11.4336 7.9043Z" stroke="white" stroke-width="0.666667" shape-rendering="crispEdges"/>
</g>
</g>
<defs>
<filter id="filter0_d_7423_60744" x="1.66536" y="3.66667" width="18.6673" height="17.9974" filterUnits="userSpaceOnUse" color-interpolation-filters="sRGB">
<feFlood flood-opacity="0" result="BackgroundImageFix"/>
<feColorMatrix in="SourceAlpha" type="matrix" values="0 0 0 0 0 0 0 0 0 0 0 0 0 0 0 0 0 0 127 0" result="hardAlpha"/>
<feOffset dy="1.33333"/>
<feGaussianBlur stdDeviation="1.33333"/>
<feComposite in2="hardAlpha" operator="out"/>
<feColorMatrix type="matrix" values="0 0 0 0 0 0 0 0 0 0 0 0 0 0 0 0 0 0 0.05 0"/>
<feBlend mode="normal" in2="BackgroundImageFix" result="effect1_dropShadow_7423_60744"/>
<feBlend mode="normal" in="SourceGraphic" in2="effect1_dropShadow_7423_60744" result="shape"/>
</filter>
<linearGradient id="paint0_linear_7423_60744" x1="10.999" y1="4.87311" x2="10.999" y2="17.6641" gradientUnits="userSpaceOnUse">
<stop stop-color="white"/>
<stop offset="1" stop-color="white" stop-opacity="0.8"/>
</linearGradient>
<clipPath id="clip0_7423_60744">
<rect width="16" height="16" fill="white" transform="translate(3 3)"/>
</clipPath>
</defs>
</svg>
