<svg width="19" height="20" viewBox="0 0 19 20" fill="none" xmlns="http://www.w3.org/2000/svg">
<path fill-rule="evenodd" clip-rule="evenodd" d="M4.5 5C4.5 2.23858 6.73858 0 9.5 0C12.2614 0 14.5 2.23858 14.5 5V5.5H17C18.1046 5.5 19 6.39543 19 7.5V17.5C19 18.6046 18.1046 19.5 17 19.5H2C0.895431 19.5 0 18.6046 0 17.5V7.5C0 6.39543 0.895431 5.5 2 5.5H4.5V5ZM6.5 5.5H12.5V5C12.5 3.34315 11.1569 2 9.5 2C7.84315 2 6.5 3.34315 6.5 5V5.5ZM2 7.5V17.5H17V7.5H2ZM9.5 11.5C8.94772 11.5 8.5 11.9477 8.5 12.5C8.5 13.0523 8.94772 13.5 9.5 13.5C10.0523 13.5 10.5 13.0523 10.5 12.5C10.5 11.9477 10.0523 11.5 9.5 11.5ZM6.5 12.5C6.5 10.8431 7.84315 9.5 9.5 9.5C11.1569 9.5 12.5 10.8431 12.5 12.5C12.5 14.1569 11.1569 15.5 9.5 15.5C7.84315 15.5 6.5 14.1569 6.5 12.5Z" fill="#4E5969"/>
</svg>
