<svg width="17" height="20" viewBox="0 0 17 20" fill="none" xmlns="http://www.w3.org/2000/svg">
<path fill-rule="evenodd" clip-rule="evenodd" d="M2 18V2L15 2V18L2 18ZM1.9375 0C0.807633 0 0 0.957207 0 2V18C0 19.0428 0.807635 20 1.9375 20H15.0625C16.1924 20 17 19.0428 17 18V2C17 0.957207 16.1924 0 15.0625 0H1.9375ZM5 6L12 6V4L5 4V6ZM8.5 12.5C7.39543 12.5 6.5 13.3954 6.5 14.5C6.5 15.6046 7.39543 16.5 8.5 16.5C9.60457 16.5 10.5 15.6046 10.5 14.5C10.5 13.3954 9.60457 12.5 8.5 12.5Z" fill="#4E5969"/>
</svg>
