<svg width="24" height="24" viewBox="0 0 24 24" fill="none" xmlns="http://www.w3.org/2000/svg">
<path fill-rule="evenodd" clip-rule="evenodd" d="M12 1.84766L12.4962 2.13117C14.1301 3.06484 16.0277 3.66267 17.5459 4.02702C18.2993 4.20784 18.9468 4.32826 19.404 4.4032C19.6323 4.44064 19.8125 4.46662 19.9339 4.48305C19.9946 4.49127 20.0406 4.49709 20.0704 4.50075L20.103 4.50467L20.1104 4.50552L20.111 4.50559L21 4.60436V13.0822L20.9864 13.1638L20 12.9994C20.9864 13.1638 20.9863 13.1644 20.9862 13.1649L20.986 13.1662L20.9855 13.1691L20.9842 13.1766L20.9803 13.1981C20.9771 13.2153 20.9728 13.2382 20.967 13.2665C20.9555 13.323 20.9386 13.4011 20.9148 13.4983C20.8674 13.6926 20.7928 13.9639 20.6806 14.292C20.4565 14.9471 20.0803 15.8357 19.4664 16.7915C18.2304 18.7161 16.0428 20.8906 12.2765 21.974L12 22.0535L11.7236 21.974C7.9572 20.8906 5.76967 18.7161 4.53359 16.7915C3.91971 15.8357 3.54347 14.9471 3.31943 14.292C3.20723 13.9639 3.1326 13.6926 3.08518 13.4983C3.06145 13.4011 3.04447 13.323 3.03298 13.2665C3.02723 13.2382 3.02285 13.2153 3.01968 13.1981L3.0158 13.1766L3.0145 13.1691L3.014 13.1662L3.01379 13.1649C3.0137 13.1644 3.01361 13.1638 4 12.9994L3.01361 13.1638L3 13.0822V4.60436L3.88957 4.50552L3.89699 4.50467L3.92956 4.50075C3.95944 4.49709 4.00539 4.49126 4.06608 4.48305C4.1875 4.46662 4.3677 4.44064 4.59604 4.4032C5.05319 4.32826 5.70071 4.20784 6.45413 4.02702C7.97228 3.66267 9.86995 3.06484 11.5039 2.13116L12 1.84766ZM5 6.36354V12.902C5.00669 12.9331 5.01592 12.9741 5.02811 13.024C5.06271 13.1657 5.1209 13.3789 5.21182 13.6448C5.39404 14.1776 5.70529 14.9149 6.21642 15.7107C7.20109 17.2439 8.93888 19.0162 12 19.9691C15.0611 19.0162 16.7989 17.2439 17.7836 15.7107C18.2947 14.9149 18.606 14.1776 18.7882 13.6448C18.8791 13.3789 18.9373 13.1657 18.9719 13.024C18.9841 12.9741 18.9933 12.9331 19 12.902V6.36354C18.5104 6.28166 17.8454 6.1557 17.0791 5.97179C15.6133 5.61998 13.735 5.04636 12 4.13886C10.265 5.04636 8.38676 5.61998 6.92088 5.9718C6.15461 6.1557 5.48957 6.28166 5 6.36354ZM17.1195 9.78898L11.4123 15.4961L7.70524 11.789L9.11945 10.3748L11.4123 12.6677L15.7052 8.37476L17.1195 9.78898Z" fill="#4E5969"/>
</svg>
