<svg width="22" height="22" viewBox="0 0 22 22" fill="none" xmlns="http://www.w3.org/2000/svg">
<path d="M0 4C0 1.79086 1.79086 0 4 0H18C20.2091 0 22 1.79086 22 4V18C22 20.2091 20.2091 22 18 22H4C1.79086 22 0 20.2091 0 18V4Z" fill="#24B28F"/>
<g clip-path="url(#clip0_7423_60682)">
<g filter="url(#filter0_d_7423_60682)">
<path d="M5 5H10.3333V10.3333H5V5ZM5 11.6667H10.3333V17H5V11.6667ZM11.6667 5H17V10.3333H11.6667V5ZM11.6667 11.6667H17V17H11.6667V11.6667Z" fill="url(#paint0_linear_7423_60682)" shape-rendering="crispEdges"/>
<path d="M16.667 12V16.667H12V12H16.667ZM10 12V16.667H5.33301V12H10ZM16.667 5.33301V10H12V5.33301H16.667ZM10 5.33301V10H5.33301V5.33301H10Z" stroke="white" stroke-width="0.666667" shape-rendering="crispEdges"/>
</g>
</g>
<defs>
<filter id="filter0_d_7423_60682" x="2.33333" y="3.66667" width="17.3333" height="17.3333" filterUnits="userSpaceOnUse" color-interpolation-filters="sRGB">
<feFlood flood-opacity="0" result="BackgroundImageFix"/>
<feColorMatrix in="SourceAlpha" type="matrix" values="0 0 0 0 0 0 0 0 0 0 0 0 0 0 0 0 0 0 127 0" result="hardAlpha"/>
<feOffset dy="1.33333"/>
<feGaussianBlur stdDeviation="1.33333"/>
<feComposite in2="hardAlpha" operator="out"/>
<feColorMatrix type="matrix" values="0 0 0 0 0 0 0 0 0 0 0 0 0 0 0 0 0 0 0.05 0"/>
<feBlend mode="normal" in2="BackgroundImageFix" result="effect1_dropShadow_7423_60682"/>
<feBlend mode="normal" in="SourceGraphic" in2="effect1_dropShadow_7423_60682" result="shape"/>
</filter>
<linearGradient id="paint0_linear_7423_60682" x1="11" y1="4.87977" x2="11" y2="17" gradientUnits="userSpaceOnUse">
<stop stop-color="white"/>
<stop offset="1" stop-color="white" stop-opacity="0.8"/>
</linearGradient>
<clipPath id="clip0_7423_60682">
<rect width="16" height="16" fill="white" transform="translate(3 3)"/>
</clipPath>
</defs>
</svg>
