<svg width="300" height="358" viewBox="0 0 300 358" fill="none" xmlns="http://www.w3.org/2000/svg">
<g clip-path="url(#clip0_5256_17050)">
<path d="M271 219C242.686 167.781 265.972 175.097 280 159C293.439 143.585 300.93 133.5 294.5 109.5C282.978 66.5 250.103 50.2316 230 46.5C199.532 40.8427 197.554 72.4431 166.598 71.3375C150.839 70.7754 136.415 62.8884 121.411 58.0235C85.8898 46.4971 42.3694 54.3011 19.4769 83.8406C-0.608124 109.741 -1.21576 146.181 6.82928 177.96C15.04 210.374 23.4989 233.119 49.9997 253.5C76.4912 273.872 94.2859 279.923 125.5 268C147.775 259.496 184.669 253.448 207 261.787C231 270.748 253.579 270.905 268.5 253.5C274.925 246.009 276.688 229.292 271 219Z" fill="url(#paint0_linear_5256_17050)"/>
<g filter="url(#filter0_dd_5256_17050)">
<g filter="url(#filter1_dd_5256_17050)">
<path d="M242.301 95.4902H57.9688C44.7139 95.4902 33.9688 106.235 33.9688 119.49V202.585C33.9688 215.839 44.7139 226.585 57.9688 226.585H242.301C255.556 226.585 266.301 215.839 266.301 202.585V119.49C266.301 106.235 255.556 95.4902 242.301 95.4902Z" fill="url(#paint1_linear_5256_17050)"/>
</g>
<path d="M227.49 145.675H70.6403C70.5593 145.675 70.4817 145.643 70.4244 145.586C70.3671 145.528 70.335 145.451 70.335 145.37C70.335 145.289 70.3671 145.211 70.4244 145.154C70.4817 145.097 70.5593 145.064 70.6403 145.064H227.49C227.571 145.064 227.649 145.097 227.706 145.154C227.763 145.211 227.795 145.289 227.795 145.37C227.795 145.451 227.763 145.528 227.706 145.586C227.649 145.643 227.571 145.675 227.49 145.675Z" fill="#75D5D6"/>
<path d="M227.49 157.89H70.6403C70.5593 157.89 70.4817 157.858 70.4244 157.801C70.3671 157.743 70.335 157.666 70.335 157.585C70.335 157.504 70.3671 157.426 70.4244 157.369C70.4817 157.311 70.5593 157.279 70.6403 157.279H227.49C227.571 157.279 227.649 157.311 227.706 157.369C227.763 157.426 227.795 157.504 227.795 157.585C227.795 157.666 227.763 157.743 227.706 157.801C227.649 157.858 227.571 157.89 227.49 157.89Z" fill="#75D5D6"/>
<path d="M227.49 170.105H70.6403C70.5593 170.105 70.4817 170.073 70.4244 170.015C70.3671 169.958 70.335 169.88 70.335 169.8C70.335 169.719 70.3671 169.641 70.4244 169.584C70.4817 169.526 70.5593 169.494 70.6403 169.494H227.49C227.571 169.494 227.649 169.526 227.706 169.584C227.763 169.641 227.795 169.719 227.795 169.8C227.795 169.88 227.763 169.958 227.706 170.015C227.649 170.073 227.571 170.105 227.49 170.105Z" fill="#75D5D6"/>
<path d="M227.49 182.32H70.6403C70.5593 182.32 70.4817 182.288 70.4244 182.23C70.3671 182.173 70.335 182.095 70.335 182.014C70.335 181.933 70.3671 181.856 70.4244 181.798C70.4817 181.741 70.5593 181.709 70.6403 181.709H227.49C227.571 181.709 227.649 181.741 227.706 181.798C227.763 181.856 227.795 181.933 227.795 182.014C227.795 182.095 227.763 182.173 227.706 182.23C227.649 182.288 227.571 182.32 227.49 182.32Z" fill="#75D5D6"/>
<path d="M227.49 194.535H70.6403C70.5593 194.535 70.4817 194.502 70.4244 194.445C70.3671 194.388 70.335 194.31 70.335 194.229C70.335 194.148 70.3671 194.071 70.4244 194.013C70.4817 193.956 70.5593 193.924 70.6403 193.924H227.49C227.571 193.924 227.649 193.956 227.706 194.013C227.763 194.071 227.795 194.148 227.795 194.229C227.795 194.31 227.763 194.388 227.706 194.445C227.649 194.502 227.571 194.535 227.49 194.535Z" fill="#75D5D6"/>
<path d="M107.783 195.009C107.702 195.009 107.625 194.977 107.567 194.921C107.51 194.864 107.478 194.787 107.477 194.706L107.172 145.236C107.172 145.196 107.179 145.156 107.194 145.119C107.21 145.082 107.232 145.048 107.26 145.019C107.288 144.991 107.322 144.968 107.359 144.953C107.396 144.937 107.435 144.929 107.475 144.929H107.477C107.558 144.929 107.635 144.961 107.693 145.018C107.75 145.074 107.782 145.152 107.783 145.232L108.088 194.702C108.088 194.742 108.081 194.782 108.065 194.819C108.05 194.856 108.028 194.89 108 194.919C107.972 194.947 107.938 194.97 107.901 194.985C107.864 195.001 107.825 195.009 107.784 195.009H107.783Z" fill="#75D5D6"/>
<path d="M150.229 195.009C150.148 195.009 150.071 194.977 150.014 194.921C149.956 194.864 149.924 194.787 149.924 194.706L149.618 145.236C149.618 145.196 149.626 145.156 149.641 145.119C149.656 145.082 149.678 145.048 149.706 145.019C149.735 144.991 149.768 144.968 149.805 144.953C149.842 144.937 149.882 144.929 149.922 144.929H149.924C150.004 144.929 150.082 144.961 150.139 145.018C150.196 145.074 150.228 145.152 150.229 145.232L150.534 194.702C150.535 194.742 150.527 194.782 150.512 194.819C150.497 194.856 150.474 194.89 150.446 194.919C150.418 194.947 150.384 194.97 150.347 194.985C150.311 195.001 150.271 195.009 150.231 195.009H150.229Z" fill="#75D5D6"/>
<path d="M192.675 195.009C192.595 195.009 192.517 194.977 192.46 194.921C192.403 194.864 192.37 194.787 192.37 194.706L192.064 145.236C192.064 145.196 192.072 145.156 192.087 145.119C192.102 145.082 192.124 145.048 192.153 145.019C192.181 144.991 192.214 144.968 192.251 144.953C192.288 144.937 192.328 144.929 192.368 144.929H192.37C192.451 144.929 192.528 144.961 192.585 145.018C192.642 145.074 192.675 145.152 192.675 145.232L192.981 194.702C192.981 194.742 192.973 194.782 192.958 194.819C192.943 194.856 192.921 194.89 192.892 194.919C192.864 194.947 192.831 194.97 192.794 194.985C192.757 195.001 192.717 195.009 192.677 195.009H192.675Z" fill="#75D5D6"/>
<path d="M102.744 135.309H73.7338C72.6405 135.309 71.5919 134.875 70.8188 134.102C70.0457 133.329 69.6113 132.28 69.6113 131.187C69.6113 130.094 70.0457 129.045 70.8188 128.272C71.5919 127.499 72.6405 127.064 73.7338 127.064H102.744C103.837 127.064 104.886 127.499 105.659 128.272C106.432 129.045 106.866 130.094 106.866 131.187C106.866 132.28 106.432 133.329 105.659 134.102C104.886 134.875 103.837 135.309 102.744 135.309Z" fill="#47BCC2"/>
<path d="M94.0577 155.006H82.4207C81.9817 155.006 81.5471 154.92 81.1416 154.752C80.736 154.584 80.3675 154.338 80.0571 154.027C79.7468 153.717 79.5005 153.349 79.3326 152.943C79.1646 152.537 79.0781 152.103 79.0781 151.664C79.0781 151.225 79.1646 150.79 79.3326 150.385C79.5005 149.979 79.7468 149.611 80.0571 149.3C80.3675 148.99 80.736 148.744 81.1416 148.576C81.5471 148.408 81.9817 148.321 82.4207 148.321H94.0577C94.4967 148.321 94.9313 148.408 95.3369 148.576C95.7424 148.744 96.1109 148.99 96.4213 149.3C96.7317 149.611 96.9779 149.979 97.1459 150.385C97.3139 150.79 97.4003 151.225 97.4003 151.664C97.4003 152.103 97.3139 152.537 97.1459 152.943C96.9779 153.349 96.7317 153.717 96.4213 154.027C96.1109 154.338 95.7424 154.584 95.3369 154.752C94.9313 154.92 94.4967 155.006 94.0577 155.006Z" fill="#47BCC2"/>
<path d="M134.671 166.916H123.034C122.595 166.916 122.16 166.829 121.755 166.661C121.349 166.493 120.981 166.247 120.67 165.937C120.36 165.626 120.114 165.258 119.946 164.852C119.778 164.447 119.691 164.012 119.691 163.573C119.691 163.134 119.778 162.699 119.946 162.294C120.114 161.888 120.36 161.52 120.67 161.209C120.981 160.899 121.349 160.653 121.755 160.485C122.16 160.317 122.595 160.23 123.034 160.23H134.671C135.11 160.23 135.545 160.317 135.95 160.485C136.356 160.653 136.724 160.899 137.035 161.209C137.345 161.52 137.591 161.888 137.759 162.294C137.927 162.699 138.014 163.134 138.014 163.573C138.014 164.012 137.927 164.447 137.759 164.852C137.591 165.258 137.345 165.626 137.035 165.937C136.724 166.247 136.356 166.493 135.95 166.661C135.545 166.829 135.11 166.916 134.671 166.916Z" fill="#47BCC2"/>
<path d="M134.671 180.046H123.034C122.147 180.046 121.297 179.694 120.67 179.067C120.044 178.441 119.691 177.59 119.691 176.704C119.691 175.817 120.044 174.967 120.67 174.34C121.297 173.713 122.147 173.361 123.034 173.361H134.671C135.558 173.361 136.408 173.713 137.035 174.34C137.661 174.967 138.014 175.817 138.014 176.704C138.014 177.59 137.661 178.441 137.035 179.067C136.408 179.694 135.558 180.046 134.671 180.046Z" fill="#47BCC2"/>
<path d="M178.034 155.311H166.397C165.511 155.311 164.661 154.959 164.034 154.332C163.407 153.705 163.055 152.855 163.055 151.969C163.055 151.082 163.407 150.232 164.034 149.605C164.661 148.978 165.511 148.626 166.397 148.626H178.034C178.921 148.626 179.771 148.978 180.398 149.605C181.025 150.232 181.377 151.082 181.377 151.969C181.377 152.855 181.025 153.705 180.398 154.332C179.771 154.959 178.921 155.311 178.034 155.311Z" fill="#47BCC2"/>
<path d="M143.918 135.463H114.908C113.814 135.463 112.766 135.028 111.993 134.255C111.219 133.482 110.785 132.434 110.785 131.34C110.785 130.247 111.219 129.198 111.993 128.425C112.766 127.652 113.814 127.218 114.908 127.218H143.918C144.459 127.218 144.995 127.324 145.495 127.532C145.996 127.739 146.45 128.042 146.833 128.425C147.216 128.808 147.519 129.262 147.726 129.763C147.934 130.263 148.04 130.799 148.04 131.34C148.04 131.882 147.934 132.418 147.726 132.918C147.519 133.418 147.216 133.873 146.833 134.255C146.45 134.638 145.996 134.942 145.495 135.149C144.995 135.356 144.459 135.463 143.918 135.463Z" fill="#47BCC2"/>
<path d="M185.092 135.767H156.081C154.988 135.767 153.94 135.333 153.166 134.56C152.393 133.787 151.959 132.738 151.959 131.645C151.959 130.552 152.393 129.503 153.166 128.73C153.94 127.957 154.988 127.522 156.081 127.522H185.092C186.185 127.522 187.234 127.957 188.007 128.73C188.78 129.503 189.214 130.552 189.214 131.645C189.214 132.738 188.78 133.787 188.007 134.56C187.234 135.333 186.185 135.767 185.092 135.767Z" fill="#47BCC2"/>
<path d="M226.265 135.767H197.255C196.162 135.767 195.113 135.333 194.34 134.56C193.567 133.787 193.133 132.738 193.133 131.645C193.133 130.552 193.567 129.503 194.34 128.73C195.113 127.957 196.162 127.522 197.255 127.522H226.265C227.359 127.522 228.407 127.957 229.18 128.73C229.954 129.503 230.388 130.552 230.388 131.645C230.388 132.738 229.954 133.787 229.18 134.56C228.407 135.333 227.359 135.767 226.265 135.767Z" fill="#47BCC2"/>
<path d="M86.399 133.747L89.1778 129.216L88.3405 129.107L90.0323 133.364C90.0676 133.479 90.1457 133.576 90.2504 133.636C90.3551 133.695 90.4787 133.712 90.5957 133.684C90.7124 133.651 90.8114 133.573 90.8713 133.468C90.9312 133.362 90.9472 133.237 90.9157 133.12L89.224 128.863C89.1975 128.779 89.1472 128.703 89.0793 128.646C89.0113 128.589 88.9283 128.553 88.8403 128.541C88.7522 128.53 88.6627 128.543 88.5823 128.581C88.5019 128.619 88.434 128.679 88.3866 128.754L85.6084 133.285C85.2993 133.788 86.0909 134.249 86.399 133.747Z" fill="white"/>
<path d="M87.0264 132.222L89.4501 132.186C89.5716 132.186 89.6881 132.137 89.774 132.051C89.8599 131.966 89.9082 131.849 89.9082 131.728C89.9082 131.606 89.8599 131.49 89.774 131.404C89.6881 131.318 89.5716 131.27 89.4501 131.27L87.0264 131.306C86.9049 131.306 86.7884 131.354 86.7025 131.44C86.6166 131.526 86.5684 131.642 86.5684 131.764C86.5684 131.885 86.6166 132.002 86.7025 132.088C86.7884 132.174 86.9049 132.222 87.0264 132.222Z" fill="white"/>
<path d="M131.001 131.235C130.938 131.11 130.855 130.996 130.756 130.896C130.911 130.703 131.001 130.465 131.013 130.217C131.025 129.97 130.959 129.724 130.823 129.517C130.597 129.179 130.253 128.936 129.859 128.837C129.394 128.746 128.914 128.756 128.454 128.867C128.423 128.86 128.392 128.856 128.36 128.856C128.239 128.858 128.124 128.907 128.038 128.992C127.953 129.078 127.904 129.193 127.902 129.314L127.74 132.925C127.722 132.953 127.706 132.983 127.695 133.014C127.67 133.12 127.681 133.23 127.725 133.329C127.735 133.444 127.787 133.551 127.871 133.629C127.956 133.707 128.066 133.752 128.181 133.754C128.295 133.754 128.404 133.71 128.486 133.632C129.391 133.699 130.339 133.552 130.88 132.731C131.027 132.513 131.115 132.261 131.136 131.999C131.158 131.737 131.111 131.474 131.001 131.235ZM130.009 132.365C129.826 132.521 129.611 132.636 129.379 132.7C129.147 132.765 128.903 132.778 128.666 132.738L128.8 129.732C129.212 129.664 129.682 129.628 129.967 129.906C130.013 129.95 130.052 130.003 130.082 130.06C130.085 130.069 130.107 130.183 130.104 130.152C130.109 130.219 130.111 130.185 130.093 130.246C130.074 130.308 130.038 130.364 129.99 130.408C129.942 130.452 129.883 130.482 129.819 130.496C129.698 130.498 129.583 130.548 129.498 130.633C129.413 130.718 129.363 130.833 129.361 130.954C129.362 131.075 129.411 131.19 129.496 131.276C129.582 131.361 129.698 131.41 129.819 131.412C129.913 131.414 130.004 131.449 130.076 131.509C130.149 131.569 130.199 131.652 130.218 131.745C130.235 131.857 130.225 131.973 130.188 132.081C130.152 132.188 130.09 132.286 130.009 132.366L130.009 132.365Z" fill="white"/>
<path d="M171.405 129.099C170.741 129.223 170.139 129.57 169.7 130.083C169.262 130.596 169.012 131.244 168.992 131.919C168.964 132.636 169.217 133.335 169.698 133.867C170.245 134.427 171.002 134.433 171.726 134.336C171.846 134.332 171.96 134.282 172.045 134.197C172.131 134.112 172.18 133.998 172.184 133.878C172.184 133.656 171.973 133.387 171.726 133.42C171.254 133.483 170.682 133.585 170.323 133.195C170.015 132.816 169.868 132.333 169.912 131.847C169.947 131.385 170.138 130.949 170.454 130.61C170.77 130.272 171.192 130.05 171.65 129.983C171.766 129.95 171.865 129.872 171.925 129.766C171.985 129.661 172.001 129.536 171.97 129.419C171.935 129.304 171.857 129.206 171.752 129.146C171.647 129.086 171.523 129.07 171.406 129.099H171.405Z" fill="white"/>
<path d="M210.333 129.533L210.45 133.949C210.452 134.019 210.469 134.088 210.501 134.15C210.532 134.213 210.578 134.268 210.634 134.31C210.69 134.352 210.754 134.382 210.823 134.396C210.892 134.41 210.963 134.408 211.031 134.39C211.643 134.263 212.192 133.928 212.585 133.443C212.978 132.957 213.192 132.35 213.189 131.725C213.186 131.1 212.968 130.495 212.57 130.013C212.173 129.531 211.621 129.201 211.008 129.078C210.891 129.049 210.767 129.066 210.662 129.126C210.557 129.185 210.48 129.283 210.445 129.398C210.414 129.516 210.43 129.64 210.49 129.746C210.549 129.851 210.648 129.929 210.765 129.962C211.184 130.03 211.565 130.245 211.841 130.568C212.117 130.89 212.27 131.3 212.272 131.725C212.275 132.149 212.128 132.561 211.856 132.887C211.584 133.214 211.205 133.433 210.787 133.507L211.367 133.948L211.25 129.533C211.234 128.944 210.318 128.942 210.333 129.533Z" fill="white"/>
<path d="M220.334 220.777H221.869C221.923 220.777 221.975 220.799 222.013 220.837C222.051 220.875 222.072 220.927 222.072 220.981V221.654C222.072 221.708 222.051 221.76 222.013 221.798C221.975 221.836 221.923 221.858 221.869 221.858H221.615V222.868H220.589V221.859H220.334C220.308 221.859 220.281 221.853 220.256 221.843C220.232 221.833 220.209 221.818 220.19 221.799C220.172 221.78 220.157 221.758 220.146 221.733C220.136 221.708 220.131 221.682 220.131 221.655V220.981C220.131 220.954 220.136 220.928 220.146 220.903C220.157 220.878 220.172 220.856 220.19 220.837C220.209 220.818 220.232 220.803 220.256 220.793C220.281 220.783 220.308 220.777 220.334 220.777Z" fill="#E6E6E6"/>
<path opacity="0.2" d="M220.654 220.997C220.657 221.111 220.705 221.22 220.787 221.3C220.869 221.38 220.979 221.425 221.093 221.425C221.208 221.425 221.318 221.38 221.4 221.3C221.482 221.22 221.529 221.111 221.532 220.997" fill="black"/>
<path d="M250.008 194.461L246.164 194.112L243.718 188.171L248.086 185.725L250.008 194.461Z" fill="#FFC3B2"/>
<path d="M214.728 210.771C214.6 210.452 214.55 210.107 214.581 209.765C214.613 209.423 214.725 209.094 214.909 208.804C215.093 208.514 215.343 208.272 215.639 208.097C215.935 207.923 216.268 207.821 216.611 207.8L222.579 207.444L223.458 210.367L217.314 212.054C216.8 212.195 216.253 212.142 215.776 211.906C215.299 211.669 214.926 211.265 214.728 210.771Z" fill="#FFC3B2"/>
<path d="M221.138 212.102L221.203 206.618L234.461 204.503L244.675 192.789C245.206 192.18 245.941 191.784 246.741 191.674C247.542 191.565 248.356 191.749 249.031 192.193C249.44 192.463 249.785 192.818 250.041 193.235C250.298 193.652 250.46 194.121 250.515 194.607C250.571 195.093 250.519 195.586 250.363 196.05C250.207 196.514 249.951 196.939 249.613 197.293L241.187 207.663L221.138 212.102Z" fill="#E6E6E6"/>
<path d="M252.978 273.792H249.484L240.816 234.6L231.836 246.707L226.594 272.918H223.273L223.972 244.785L235.68 214.729H247.212C250.364 220.433 252.836 226.313 250.008 232.378L252.978 273.792Z" fill="#4E5969"/>
<path d="M228.736 276.173C228.775 276.296 228.787 276.427 228.771 276.555C228.755 276.684 228.712 276.808 228.645 276.918C228.578 277.029 228.488 277.124 228.381 277.197C228.274 277.271 228.152 277.32 228.025 277.343L219.475 278.86C219.137 278.922 218.788 278.858 218.494 278.681C218.2 278.503 217.981 278.224 217.878 277.896C217.779 277.583 217.793 277.244 217.918 276.94C218.043 276.636 218.271 276.386 218.562 276.233C220.442 275.268 222.06 273.861 223.277 272.133C224.217 273.008 225.267 272.927 226.383 272.281L227.566 272.428L228.736 276.173Z" fill="#2F2E41"/>
<path d="M254.597 276.172C254.636 276.296 254.648 276.426 254.632 276.555C254.616 276.684 254.574 276.807 254.506 276.918C254.439 277.029 254.349 277.124 254.242 277.197C254.135 277.27 254.014 277.32 253.886 277.342L245.336 278.86C244.998 278.922 244.649 278.858 244.355 278.68C244.061 278.503 243.842 278.224 243.74 277.896C243.64 277.582 243.654 277.244 243.779 276.94C243.904 276.636 244.132 276.386 244.424 276.233C246.304 275.268 247.922 273.861 249.14 272.133C250.08 273.008 251.13 272.927 252.246 272.281L253.429 272.428L254.597 276.172Z" fill="#2F2E41"/>
<path d="M243.631 190.354C246.333 190.354 248.524 188.163 248.524 185.461C248.524 182.759 246.333 180.568 243.631 180.568C240.929 180.568 238.738 182.759 238.738 185.461C238.738 188.163 240.929 190.354 243.631 190.354Z" fill="#FFC3B2"/>
<path d="M247.999 216.041L235.243 215.692L238.989 203.902C236.661 200.169 239.004 196.441 242.32 192.714L244.941 190.967L249.134 190.617C250.95 192.56 251.944 195.13 251.907 197.789C251.86 204.076 250.53 210.286 247.999 216.041Z" fill="#E6E6E6"/>
<path d="M251.669 183.539C251.669 185.443 250.432 188.391 248.873 189.655C247.824 190.505 246.437 190.469 245.902 189.305C245.353 188.111 243.463 185.305 240.136 183.539C235.701 181.185 241.709 177.159 245.902 177.773C249.054 178.235 251.669 180.354 251.669 183.539Z" fill="#4E5969"/>
<path d="M248.698 180.918C250.628 180.918 252.192 179.353 252.192 177.423C252.192 175.493 250.628 173.929 248.698 173.929C246.768 173.929 245.203 175.493 245.203 177.423C245.203 179.353 246.768 180.918 248.698 180.918Z" fill="#4E5969"/>
<path d="M244.679 176.2C244.68 175.319 245.013 174.471 245.613 173.825C246.212 173.18 247.034 172.785 247.912 172.719C247.825 172.713 247.738 172.706 247.65 172.706C246.723 172.706 245.834 173.074 245.179 173.73C244.523 174.385 244.155 175.274 244.155 176.201C244.155 177.128 244.523 178.017 245.179 178.672C245.834 179.327 246.723 179.696 247.65 179.696C247.739 179.696 247.825 179.689 247.912 179.683C247.033 179.617 246.212 179.222 245.612 178.576C245.013 177.93 244.68 177.082 244.679 176.2Z" fill="#4E5969"/>
<path d="M214.65 220.055L208.222 207.953C207.732 207.031 207.629 205.952 207.935 204.954C208.24 203.956 208.93 203.12 209.852 202.631C210.774 202.141 211.853 202.037 212.851 202.343C213.849 202.649 214.685 203.338 215.174 204.26L221.603 216.363C222.092 217.285 222.196 218.363 221.89 219.362C221.584 220.36 220.895 221.196 219.973 221.685C219.051 222.175 217.972 222.278 216.974 221.973C215.976 221.667 215.14 220.977 214.65 220.055Z" fill="#47BCC2"/>
<path d="M218.693 223.976C218.45 223.733 218.268 223.436 218.163 223.109C218.057 222.783 218.031 222.435 218.086 222.096C218.14 221.757 218.275 221.436 218.478 221.159C218.682 220.883 218.948 220.658 219.255 220.504L224.602 217.829L226.56 220.17L221.575 224.14C221.158 224.471 220.634 224.638 220.103 224.608C219.571 224.577 219.069 224.353 218.693 223.976Z" fill="#FFC3B2"/>
<path d="M225.109 222.681L223.012 217.614L234.368 210.454L239.151 195.666C239.399 194.897 239.919 194.244 240.612 193.828C241.306 193.412 242.126 193.261 242.922 193.404C243.404 193.491 243.861 193.682 244.261 193.964C244.66 194.247 244.993 194.614 245.236 195.039C245.478 195.464 245.624 195.938 245.663 196.425C245.703 196.913 245.635 197.404 245.464 197.863L241.796 210.711L225.109 222.681Z" fill="#E6E6E6"/>
</g>
<path d="M226 59.8L234.4 77.4L235.6 54.6L226 59.8Z" fill="#75D5D6"/>
<path d="M249.2 51L239.2 77.4L258.4 61L249.2 51Z" fill="#75D5D6"/>
<path d="M261.2 70.6L243.2 81.8H261.2V70.6Z" fill="#75D5D6"/>
</g>
<path d="M116.351 342.284H111.059V341.29H122.119V342.284H117.373V346.358H121.405V347.324H117.373V351.804H122.707V352.784H110.233V351.804H112.431V345.084H113.411V351.804H116.351V342.284ZM128.489 347.086H131.695V344.482H132.717V347.086H136.063V348.066H132.717V351.93H136.693V352.924H127.915V351.93H131.695V348.066H128.489V347.086ZM126.235 347.702C125.717 348.234 125.171 348.752 124.583 349.242L123.953 348.416C125.703 346.974 127.061 345.322 128.041 343.46H124.443V342.466H128.517C128.797 341.822 129.049 341.15 129.245 340.464L130.295 340.59C130.099 341.234 129.889 341.864 129.637 342.466H136.679V343.46H129.189C128.643 344.566 127.985 345.602 127.229 346.554V353.442H126.235V347.702ZM139.031 341.402H149.937V342.382H147.599V346.092H150.665V347.058H147.599V353.26H146.577V347.058H142.531C142.405 348.5 142.139 349.69 141.719 350.642C141.187 351.818 140.305 352.728 139.073 353.372L138.527 352.504C139.661 351.86 140.459 351.006 140.907 349.942C141.201 349.13 141.397 348.178 141.509 347.058H138.275V346.092H141.565C141.565 345.91 141.579 345.742 141.579 345.602V342.382H139.031V341.402ZM142.615 342.382V345.602C142.615 345.77 142.601 345.938 142.601 346.092H146.577V342.382H142.615ZM153.087 344.86L154.193 340.968L155.187 341.136L154.389 343.894H156.839C157.119 342.802 157.343 341.668 157.511 340.464L158.533 340.59C158.351 341.766 158.127 342.858 157.875 343.894H164.427V344.86H157.609C157.441 345.42 157.273 345.952 157.077 346.456H162.803V347.324C162.425 348.528 161.669 349.62 160.521 350.6C161.655 351.272 163.041 351.888 164.665 352.448L164.147 353.386C162.355 352.728 160.871 352.014 159.695 351.244C158.547 352.056 157.119 352.784 155.425 353.442L154.893 352.504C156.461 351.93 157.763 351.3 158.813 350.614C157.721 349.774 156.951 348.864 156.489 347.884C155.467 350.096 154.151 351.846 152.555 353.148L152.037 352.224C154.081 350.432 155.579 347.982 156.559 344.86H153.087ZM157.245 347.38C157.721 348.332 158.519 349.214 159.639 350.026C160.675 349.214 161.389 348.332 161.781 347.38H157.245ZM160.885 340.576C161.893 341.346 162.719 342.116 163.391 342.886L162.677 343.6C162.089 342.858 161.263 342.074 160.213 341.234L160.885 340.576ZM171.945 340.506H172.981V343.026H178.007V349.606H176.999V348.724H172.981V353.498H171.945V348.724H167.941V349.606H166.933V343.026H171.945V340.506ZM167.941 347.744H171.945V344.006H167.941V347.744ZM172.981 347.744H176.999V344.006H172.981V347.744ZM181.311 350.334C181.535 350.334 181.745 350.418 181.913 350.586C182.081 350.754 182.165 350.95 182.165 351.202C182.165 351.44 182.081 351.636 181.913 351.804C181.745 351.972 181.535 352.056 181.311 352.056C181.059 352.056 180.863 351.972 180.709 351.804C180.541 351.636 180.457 351.44 180.457 351.202C180.457 350.95 180.541 350.754 180.709 350.586C180.863 350.418 181.059 350.334 181.311 350.334ZM185.002 350.334C185.226 350.334 185.436 350.418 185.604 350.586C185.772 350.754 185.856 350.95 185.856 351.202C185.856 351.44 185.772 351.636 185.604 351.804C185.436 351.972 185.226 352.056 185.002 352.056C184.75 352.056 184.554 351.972 184.4 351.804C184.232 351.636 184.148 351.44 184.148 351.202C184.148 350.95 184.232 350.754 184.4 350.586C184.554 350.418 184.75 350.334 185.002 350.334ZM188.694 350.334C188.918 350.334 189.128 350.418 189.296 350.586C189.464 350.754 189.548 350.95 189.548 351.202C189.548 351.44 189.464 351.636 189.296 351.804C189.128 351.972 188.918 352.056 188.694 352.056C188.442 352.056 188.246 351.972 188.092 351.804C187.924 351.636 187.84 351.44 187.84 351.202C187.84 350.95 187.924 350.754 188.092 350.586C188.246 350.418 188.442 350.334 188.694 350.334Z" fill="#4E5969"/>
<defs>
<filter id="filter0_dd_5256_17050" x="12.7714" y="90" width="274.457" height="219.341" filterUnits="userSpaceOnUse" color-interpolation-filters="sRGB">
<feFlood flood-opacity="0" result="BackgroundImageFix"/>
<feColorMatrix in="SourceAlpha" type="matrix" values="0 0 0 0 0 0 0 0 0 0 0 0 0 0 0 0 0 0 127 0" result="hardAlpha"/>
<feMorphology radius="3.04573" operator="erode" in="SourceAlpha" result="effect1_dropShadow_5256_17050"/>
<feOffset dy="6.09145"/>
<feGaussianBlur stdDeviation="3.04573"/>
<feComposite in2="hardAlpha" operator="out"/>
<feColorMatrix type="matrix" values="0 0 0 0 0.0901961 0 0 0 0 0.219608 0 0 0 0 0.482353 0 0 0 0.03 0"/>
<feBlend mode="normal" in2="BackgroundImageFix" result="effect1_dropShadow_5256_17050"/>
<feColorMatrix in="SourceAlpha" type="matrix" values="0 0 0 0 0 0 0 0 0 0 0 0 0 0 0 0 0 0 127 0" result="hardAlpha"/>
<feMorphology radius="3.04573" operator="erode" in="SourceAlpha" result="effect2_dropShadow_5256_17050"/>
<feOffset dy="15.2286"/>
<feGaussianBlur stdDeviation="9.13718"/>
<feComposite in2="hardAlpha" operator="out"/>
<feColorMatrix type="matrix" values="0 0 0 0 0.0902477 0 0 0 0 0.2203 0 0 0 0 0.480404 0 0 0 0.08 0"/>
<feBlend mode="normal" in2="effect1_dropShadow_5256_17050" result="effect2_dropShadow_5256_17050"/>
<feBlend mode="normal" in="SourceGraphic" in2="effect2_dropShadow_5256_17050" result="shape"/>
</filter>
<filter id="filter1_dd_5256_17050" x="18.7401" y="95.4902" width="262.789" height="161.552" filterUnits="userSpaceOnUse" color-interpolation-filters="sRGB">
<feFlood flood-opacity="0" result="BackgroundImageFix"/>
<feColorMatrix in="SourceAlpha" type="matrix" values="0 0 0 0 0 0 0 0 0 0 0 0 0 0 0 0 0 0 127 0" result="hardAlpha"/>
<feMorphology radius="3.04573" operator="erode" in="SourceAlpha" result="effect1_dropShadow_5256_17050"/>
<feOffset dy="6.09145"/>
<feGaussianBlur stdDeviation="3.04573"/>
<feComposite in2="hardAlpha" operator="out"/>
<feColorMatrix type="matrix" values="0 0 0 0 0.0901961 0 0 0 0 0.219608 0 0 0 0 0.482353 0 0 0 0.03 0"/>
<feBlend mode="normal" in2="BackgroundImageFix" result="effect1_dropShadow_5256_17050"/>
<feColorMatrix in="SourceAlpha" type="matrix" values="0 0 0 0 0 0 0 0 0 0 0 0 0 0 0 0 0 0 127 0" result="hardAlpha"/>
<feMorphology radius="3.04573" operator="erode" in="SourceAlpha" result="effect2_dropShadow_5256_17050"/>
<feOffset dy="15.2286"/>
<feGaussianBlur stdDeviation="9.13718"/>
<feComposite in2="hardAlpha" operator="out"/>
<feColorMatrix type="matrix" values="0 0 0 0 0.0902477 0 0 0 0 0.2203 0 0 0 0 0.480404 0 0 0 0.08 0"/>
<feBlend mode="normal" in2="effect1_dropShadow_5256_17050" result="effect2_dropShadow_5256_17050"/>
<feBlend mode="normal" in="SourceGraphic" in2="effect2_dropShadow_5256_17050" result="shape"/>
</filter>
<linearGradient id="paint0_linear_5256_17050" x1="123.133" y1="327.527" x2="162.983" y2="36.3815" gradientUnits="userSpaceOnUse">
<stop stop-color="white"/>
<stop offset="0.1" stop-color="#F0FFFE"/>
<stop offset="0.24" stop-color="#CAF5F5"/>
<stop offset="0.25" stop-color="#CAF5F5"/>
<stop offset="0.26" stop-color="#D2F5F5"/>
<stop offset="0.45" stop-color="#E8FFFE"/>
<stop offset="0.64" stop-color="#ECFFFE"/>
<stop offset="0.82" stop-color="#EBFFFE"/>
<stop offset="1" stop-color="white"/>
</linearGradient>
<linearGradient id="paint1_linear_5256_17050" x1="33.9688" y1="161.037" x2="266.301" y2="161.037" gradientUnits="userSpaceOnUse">
<stop stop-color="white"/>
<stop offset="0.78" stop-color="#E8FFFE"/>
</linearGradient>
<clipPath id="clip0_5256_17050">
<rect width="300" height="300" fill="white"/>
</clipPath>
</defs>
</svg>
