<svg width="125" height="28" viewBox="0 0 125 28" fill="none" xmlns="http://www.w3.org/2000/svg">
    <g clip-path="url(#clip0_1507_4712)">
        <path
            d="M26.8115 20.835L26.7227 20.9238L23.8818 23.7607C20.5082 27.1298 15.8023 28.46 11.4521 27.6621C11.2749 27.662 11.1861 27.5733 11.0088 27.5732C10.8312 27.4846 10.5643 27.4852 10.3867 27.3965C9.32147 27.0418 8.16767 26.5981 7.01367 25.9775C6.83611 25.8889 6.74689 25.8006 6.56934 25.7119C6.39178 25.5346 6.65847 25.3568 6.9248 25.5342C7.36869 25.8002 7.90119 25.1797 7.72363 24.7363C7.63493 24.559 7.63522 24.2932 7.99023 24.3818C8.78901 24.559 8.96665 24.0271 8.87793 23.584C8.78914 23.318 8.96707 23.1408 9.2334 23.2295C9.94327 23.2293 10.2985 22.7857 10.1211 22.2539C10.1211 22.2539 9.85429 21.7224 10.4756 21.9883C10.5643 22.0769 10.5646 22.0771 10.6533 22.0771C13.8493 23.3183 17.5778 22.697 20.1523 20.126L22.9932 17.2891L21.3955 15.6934V15.6045H30.7178L26.8115 20.835ZM12.3398 26.4209C12.0736 26.4211 11.8076 26.6874 11.8076 26.9531C11.8078 27.2189 12.0737 27.4851 12.3398 27.4854C12.6061 27.4854 12.8729 27.219 12.873 26.9531C12.873 26.6872 12.6062 26.4209 12.3398 26.4209ZM14.293 26.4209C14.0267 26.4212 13.7607 26.6874 13.7607 26.9531C13.7609 27.2189 14.0268 27.4851 14.293 27.4854C14.5591 27.4854 14.826 27.219 14.8262 26.9531C14.8262 26.6872 14.5592 26.4209 14.293 26.4209ZM10.5645 25.8887C10.2094 25.8888 9.94336 26.1552 9.94336 26.5098C9.9434 26.8643 10.2094 27.1298 10.5645 27.1299C10.9195 27.1299 11.1865 26.8644 11.1865 26.5098C11.1865 26.1551 10.9196 25.8887 10.5645 25.8887ZM8.87793 25.3574C8.52286 25.3574 8.2569 25.6229 8.25684 25.9775C8.25684 26.3322 8.52281 26.5986 8.87793 26.5986C9.14423 26.5986 9.41026 26.3322 9.49902 25.9775C9.49895 25.623 9.23295 25.3575 8.87793 25.3574ZM13.3164 24.8252C13.0502 24.8254 12.7842 25.0916 12.7842 25.3574C12.7845 25.6232 13.0503 25.8885 13.3164 25.8887C13.5826 25.8887 13.8493 25.6233 13.8496 25.3574C13.8496 25.0915 13.5828 24.8252 13.3164 24.8252ZM44.6553 17.9092L46.2539 2.21582H51.5801L49.0947 25.8887H43.8564L35.1562 10.2842L33.5586 25.8887H28.2314L28.9414 19.5049L32.4043 14.8945H29.3857L30.7178 2.21582H35.9551L44.6553 17.9092ZM70.4902 7.00391H58.9492L58.5049 11.7021H69.1582L68.626 16.4902H57.9727L57.5283 21.1006H70.3125L69.7803 25.8887H51.7578L52.291 21.1006L52.7344 16.4902L52.9121 14.3623L54.2441 2.21582H70.9346L70.4902 7.00391ZM112.238 21.8018C111.979 21.8367 111.538 21.8786 110.914 21.9346C110.921 22.1025 110.942 22.3267 110.97 22.5996H112.484V23.4678H111.104C111.181 23.8106 111.272 24.1115 111.391 24.3564C111.489 24.5594 111.587 24.6716 111.678 24.6787C111.762 24.6787 111.804 24.6088 111.881 24.4199C111.93 24.287 111.965 24.147 111.993 24L112.652 24.4971L112.575 24.7627C112.533 24.8955 112.491 25.0145 112.449 25.1055C112.274 25.5115 112.021 25.7148 111.685 25.7148C111.299 25.7148 111.004 25.5331 110.703 25.0293C110.472 24.6373 110.304 24.1678 110.185 23.4678H109.112V24.3564L110.149 23.9932L110.297 24.8193L109.995 24.9238C110.079 25.0568 110.178 25.2182 110.283 25.4072L109.512 25.8271C109.449 25.6941 109.344 25.4974 109.183 25.2314L108.832 25.3721C108.699 25.4141 108.53 25.484 108.334 25.582L107.941 24.7559C108.145 24.6089 108.188 24.4898 108.188 24.3008V21.1855C109.617 21.1645 110.9 21.0806 112.035 20.9336L112.238 21.8018ZM11.6299 24.5596C11.2748 24.5596 11.0088 24.8251 11.0088 25.1797C11.0088 25.5342 11.2748 25.8007 11.6299 25.8008C11.985 25.8008 12.251 25.5342 12.251 25.1797C12.2509 24.8251 11.985 24.5596 11.6299 24.5596ZM110.374 19.8418H112.498V20.7168H107.886V22.1445C107.872 23.9505 107.683 24.686 107.129 25.792L106.225 25.2949C106.799 24.1819 106.939 23.6778 106.953 22.2568V19.8418H109.28L109.183 19.3662L110.269 19.3379L110.374 19.8418ZM98.1914 19.625C98.0302 20.15 97.8197 20.6612 97.5674 21.1582V25.7637H96.5996V22.7188C96.3964 22.9917 96.2076 23.2371 96.0254 23.4541L95.5908 22.502C95.9483 22.054 96.2702 21.5567 96.5576 21.0107C96.852 20.4577 97.0837 19.9187 97.252 19.3867L98.1914 19.625ZM79.2861 19.5264C79.2301 19.7993 79.1593 20.0585 79.0752 20.3174H80.5752V21.2695H80.2598C80.1476 22.3614 79.9654 23.1105 79.6221 23.7754C79.9164 24.1394 80.3159 24.518 80.8135 24.917L80.2178 25.7285C79.7623 25.3296 79.3908 24.9378 79.1035 24.5459C78.8021 24.9169 78.3674 25.3162 77.8066 25.7432L77.3652 25.1758L77.1826 25.5332C77.0074 25.4282 76.7345 25.2664 76.3701 25.0635C75.9636 25.3085 75.4238 25.5332 74.751 25.7432L74.3232 24.9795C74.8556 24.8466 75.255 24.7348 75.5283 24.6299C75.1782 24.462 74.891 24.3361 74.6738 24.2451C74.7789 24.0772 74.8843 23.8951 74.9824 23.6992H74.4492V22.9844H75.3184C75.3674 22.8655 75.4168 22.7329 75.4658 22.5791L76.3418 22.7539L76.2646 22.9844H77.6172V23.6641C77.4561 24.0068 77.2813 24.2868 77.0781 24.5107L77.5684 24.749C77.9889 24.441 78.3325 24.1044 78.5918 23.7334C78.3956 23.3346 78.241 22.8939 78.1289 22.4111C78.0655 22.5218 78.0064 22.6127 77.96 22.6836C77.9449 22.7067 77.931 22.7282 77.9189 22.7471L77.7012 22.2852L77.3164 22.7744C77.1623 22.6065 76.9236 22.404 76.6084 22.1592V22.5928H75.7881V22.0674C75.4937 22.3963 75.1363 22.6696 74.7158 22.8936L74.2949 22.1934C74.7575 21.9974 75.1577 21.7531 75.4941 21.4521H74.5195V20.6953H75.0449C74.8137 20.2616 74.6526 19.9813 74.5615 19.8623L75.1709 19.5264C75.3181 19.7154 75.5706 20.115 75.7178 20.416L75.2207 20.6953H75.7881V19.4004L76.6084 19.4424V20.4092C76.6995 20.2972 76.7971 20.1497 76.9092 19.9678C77.0283 19.7788 77.1127 19.6248 77.1758 19.5059L77.8281 19.877C77.709 20.1009 77.5263 20.3734 77.2881 20.6953H77.667V21.4521H76.6084V21.8506L76.8955 21.5215C77.0918 21.6545 77.3233 21.8297 77.5967 22.0537L77.4775 21.8018C77.9191 21.1298 78.2552 20.2265 78.4023 19.3936L79.2861 19.5264ZM121.001 19.8633H123.139V20.7725H118.492V22.5225C118.821 22.0537 119.038 21.5289 119.144 20.9482L119.942 21.0947C119.924 21.2105 119.884 21.3641 119.833 21.5635L119.81 21.6553C120.041 21.9282 120.223 22.1664 120.363 22.3623V20.9404L121.232 20.9619V22.3965C121.499 21.9765 121.688 21.4933 121.808 20.9404L122.593 21.0947C122.558 21.2697 122.501 21.4733 122.431 21.6973C122.571 21.8442 122.725 22.0188 122.894 22.2217C123.069 22.4247 123.189 22.5718 123.266 22.6768L122.726 23.2578C122.557 23.0128 122.354 22.747 122.115 22.46C121.982 22.7189 121.821 22.9782 121.632 23.2441L121.232 22.9082V23.3486H122.838V24.1748H121.232V24.6719H123.216V25.54H118.365V24.6719H120.363V24.1748H118.751V23.3486H118.877L118.478 23.0127C118.457 23.6147 118.393 24.1052 118.288 24.4902C118.19 24.8681 118.022 25.2815 117.791 25.7363L116.852 25.3154C117.041 24.9516 117.188 24.6369 117.279 24.3779C117.37 24.1189 117.44 23.8176 117.482 23.4746C117.531 23.1316 117.553 22.6837 117.553 22.1309V19.8633H119.971L119.858 19.3867L120.896 19.3594L121.001 19.8633ZM99.6699 19.5059V21.6973C100.224 21.2353 100.714 20.7586 101.142 20.2617L101.85 21.0176C101.17 21.7385 100.448 22.3964 99.6699 22.9844V24.3359C99.67 24.6088 99.7475 24.6792 100.007 24.7002L100.102 24.7051C100.188 24.71 100.258 24.7139 100.315 24.7139L100.623 24.7002C100.91 24.6722 100.995 24.6084 101.044 24.3564C101.072 24.2373 101.1 23.9434 101.121 23.4609L102.011 23.7686C102.004 24.1186 101.969 24.448 101.92 24.749C101.794 25.4138 101.57 25.6094 100.806 25.6514C100.694 25.6584 100.518 25.666 100.28 25.666C100.042 25.666 99.8661 25.6584 99.7539 25.6514C98.9481 25.6093 98.6817 25.4067 98.6816 24.5879V23.6777C98.5065 23.7967 98.3176 23.9161 98.1074 24.042L97.5957 23.1523C97.967 22.9424 98.3244 22.7118 98.6816 22.46V19.4707L99.6699 19.5059ZM14.0273 0C21.7507 0.000192091 28.0533 6.20608 27.876 14.0078C27.876 14.5398 27.7881 14.9836 27.7881 15.4268H22.5498C22.5498 14.8949 22.6387 14.4511 22.6387 14.0078C22.6384 9.13182 18.7322 5.23057 13.8496 5.23047C8.96698 5.23047 5.0608 9.13175 5.06055 14.0078C5.06055 17.3769 7.01351 20.2145 9.76562 21.7217L9.67676 21.8105C9.49964 22.0761 9.67627 22.3416 9.67676 22.4307C9.67676 22.4307 9.76553 22.6086 9.67676 22.6973C9.58801 22.6973 9.49878 22.7861 9.32129 22.7861H9.14453C8.78943 22.7861 8.7001 22.9632 8.61133 23.0518C8.52265 23.1406 8.43398 23.4062 8.52246 23.6719C8.61125 23.7605 8.61125 23.8498 8.52246 23.9385C8.43392 24.0267 8.34538 24.0273 8.25684 24.0273H7.90137C7.63504 24.0273 7.45694 24.2045 7.36816 24.3818C7.2797 24.5591 7.36831 24.8253 7.45703 25.1797C7.45149 25.1853 7.36839 25.2709 7.36816 25.3564C7.36816 25.445 7.28006 25.4453 7.19141 25.4453C7.01385 25.3566 6.92463 25.2686 6.74707 25.2686C6.48079 25.2686 6.30361 25.4457 6.21484 25.623C2.48614 23.0518 0 18.7955 0 14.0078C0.000256147 6.29462 6.30379 0 14.0273 0ZM86.709 19.3867L86.5693 19.7441H88.2861V20.458H87.4453V20.8428H88.3779V21.5635H87.4238C87.9005 21.7805 88.2515 21.9559 88.4688 22.0889L88.0898 22.7119H90.5293V25.6172H85.8467V22.9707C85.7137 23.0336 85.5879 23.0897 85.4619 23.1387L85.0195 22.3203C85.6924 22.0963 86.1068 21.8715 86.3311 21.5635H85.2158V20.8428H85.6582L85.1602 20.5283C85.4546 20.1783 85.6929 19.7649 85.8682 19.2959L86.709 19.3867ZM9.85449 24.0273C9.49949 24.0273 9.23356 24.293 9.2334 24.6475C9.2334 25.0021 9.49938 25.2686 9.85449 25.2686C10.2095 25.2685 10.4756 25.0021 10.4756 24.6475C10.4754 24.293 10.2094 24.0274 9.85449 24.0273ZM6.3916 23.9385C6.03678 23.9387 5.77061 24.2043 5.77051 24.5586C5.77051 24.9131 6.03671 25.1795 6.3916 25.1797C6.74671 25.1797 7.10245 24.9133 7.01367 24.5586C7.01357 24.2041 6.74664 23.9385 6.3916 23.9385ZM86.8213 24.875H89.5625V24.4756H86.8213V24.875ZM75.7744 23.9648L76.3486 24.2031C76.4818 24.0702 76.5944 23.9021 76.6855 23.6992H75.9287L75.7744 23.9648ZM12.6064 23.0518C12.2514 23.0518 12.0742 23.318 12.0742 23.584C12.0743 23.8498 12.3402 24.1161 12.6064 24.1162C12.8728 24.1162 13.1386 23.8498 13.1387 23.584C13.1387 23.318 12.8728 23.0518 12.6064 23.0518ZM5.06055 22.6973C4.7055 22.6973 4.43858 22.9629 4.43848 23.3174C4.43848 23.672 4.70543 23.9385 5.06055 23.9385C5.41558 23.9384 5.68164 23.5833 5.68164 23.3174C5.68154 22.963 5.41551 22.6974 5.06055 22.6973ZM11.0088 22.6973C10.7425 22.6973 10.4755 22.9637 10.3867 23.3184C10.3869 23.6728 10.6538 23.9385 11.0088 23.9385C11.3636 23.9383 11.6297 23.6727 11.6299 23.3184C11.6299 22.9638 11.3638 22.6974 11.0088 22.6973ZM7.63477 22.6084C7.27988 22.6085 7.01387 22.8742 7.01367 23.2285C7.01367 23.5831 7.27974 23.8495 7.63477 23.8496C7.98988 23.8496 8.25684 23.5832 8.25684 23.2285C8.25657 22.9626 7.9897 22.6084 7.63477 22.6084ZM86.8213 23.8037H89.5625V23.4053H86.8213V23.8037ZM119.487 22.4736C119.326 22.7886 119.13 23.0757 118.905 23.3486H120.363V22.7891L119.978 23.1875C119.858 22.9846 119.69 22.7464 119.487 22.4736ZM78.6904 21.3398C78.7675 21.9208 78.8863 22.4181 79.0615 22.8311C79.2227 22.4041 79.3344 21.8855 79.3975 21.2695H78.7246L78.6904 21.3398ZM87.0596 22.1729C86.8984 22.3618 86.6743 22.544 86.373 22.7119H87.957C87.7678 22.5859 87.4661 22.4039 87.0596 22.1729ZM110.03 21.998C109.743 22.019 109.435 22.0399 109.112 22.0469V22.5996H110.072L110.03 21.998ZM3.90625 21.2783C3.55114 21.2783 3.28516 21.5447 3.28516 21.8994C3.28535 22.2539 3.55127 22.5195 3.90625 22.5195C4.17248 22.5195 4.43846 22.2539 4.52734 21.8994C4.52734 21.5447 4.26137 21.2783 3.90625 21.2783ZM6.30371 21.3672C6.03738 21.3672 5.77051 21.5447 5.77051 21.8994C5.7707 22.2539 6.03747 22.5193 6.30371 22.4307C6.56981 22.4305 6.83575 22.2536 6.83594 21.8994C6.83594 21.6335 6.65853 21.3674 6.30371 21.3672ZM8.87793 21.3672C8.52281 21.3672 8.25595 21.6334 8.34473 21.8994C8.3449 22.1653 8.52298 22.4307 8.87793 22.4307C9.14414 22.4306 9.40997 22.2538 9.41016 21.8994C9.41016 21.6334 9.23299 21.3672 8.87793 21.3672ZM91.0762 22.418H88.5947V19.7021H91.0762V22.418ZM89.4287 21.627H90.249V20.4785H89.4287V21.627ZM86.1973 20.458C86.1482 20.549 86.0642 20.6749 85.9521 20.8428H86.5479L86.583 20.7451V20.458H86.1973ZM2.66309 19.7715C2.39698 19.7717 2.13114 20.037 2.13086 20.3027C2.13086 20.5686 2.39684 20.8348 2.66309 20.835C2.92943 20.835 3.19629 20.5687 3.19629 20.3027C3.19601 20.0369 2.92929 19.7715 2.66309 19.7715ZM4.79395 19.7715C4.439 19.7715 4.17322 20.0368 4.26172 20.3027C4.26172 20.5687 4.52763 20.8349 4.79395 20.835C5.06028 20.835 5.32715 20.5687 5.32715 20.3027C5.32687 20.0369 5.06014 19.7715 4.79395 19.7715ZM6.9248 19.7715C6.56993 19.7715 6.30333 20.0369 6.3916 20.3027C6.3916 20.5687 6.65847 20.835 6.9248 20.835C7.19112 20.8349 7.45703 20.5687 7.45703 20.3027C7.45675 20.0369 7.19098 19.7715 6.9248 19.7715ZM76.6084 20.6953H76.9941L76.6084 20.4512V20.6953ZM1.77539 18.0869C1.50925 18.087 1.24345 18.3524 1.24316 18.6182C1.24316 18.8841 1.50911 19.1503 1.77539 19.1504C2.04172 19.1504 2.30859 18.8842 2.30859 18.6182C2.3083 18.3523 2.04158 18.0869 1.77539 18.0869ZM3.63965 18.1758C3.37361 18.1759 3.19648 18.3525 3.19629 18.6182C3.19629 18.8841 3.37347 19.0614 3.63965 19.0615C3.90598 19.0615 4.08398 18.8842 4.08398 18.6182C4.08379 18.3524 3.90583 18.1758 3.63965 18.1758ZM5.59277 18.1758C5.32673 18.1759 5.14961 18.3525 5.14941 18.6182C5.14941 18.8841 5.32658 19.0614 5.59277 19.0615C5.85911 19.0615 6.03711 18.8842 6.03711 18.6182C6.03692 18.3524 5.85896 18.1758 5.59277 18.1758ZM22.4609 17.2891L21.751 17.998C21.9284 17.7321 22.1056 17.4659 22.1943 17.1113L22.4609 17.2891Z"
            fill="#00394D" />
        <path fill-rule="evenodd" clip-rule="evenodd"
            d="M85.7087 7.97637C85.9118 8.06652 86.1148 8.15667 86.3068 8.2581C87.1644 8.68636 87.5819 9.43017 87.6158 10.3656C87.7286 11.9885 87.2096 13.3859 85.9118 14.4227C85.2911 14.9185 84.5351 15.1891 83.7677 15.392C82.667 15.6882 81.477 15.709 80.3216 15.729C80.1147 15.7325 79.909 15.7361 79.7052 15.7413C78.87 15.7526 78.0349 15.7526 77.1999 15.7413C77.0615 15.7388 76.9057 15.7443 76.7414 15.75C76.1419 15.7708 75.4268 15.7956 75.0106 15.4595C74.3574 14.9301 74.5143 13.9406 74.6417 13.1366C74.6661 12.9822 74.6895 12.8346 74.7059 12.6984C74.8187 11.7856 74.9654 10.884 75.1347 9.99366C75.2664 9.2987 75.3589 8.60374 75.4513 7.90878C75.4699 7.76977 75.4883 7.63076 75.5071 7.49175C75.5481 7.20899 75.5951 6.92621 75.6422 6.64344C75.7244 6.14859 75.8067 5.65374 75.8569 5.1589L75.8769 4.97156C75.9368 4.40299 75.9967 3.83534 76.139 3.27684C76.4776 1.99209 77.5271 0.80875 78.8361 0.459385C80.2113 0.0989892 81.5951 0.167941 82.9799 0.236949C83.1973 0.247784 83.4147 0.258621 83.6323 0.267798C84.2867 0.290337 84.9074 0.459385 85.4943 0.7524C86.3405 1.16939 86.9161 1.84558 87.266 2.71336C87.6722 3.71636 87.6722 4.71938 87.2433 5.7224C86.9275 6.46621 86.3858 6.99589 85.6636 7.35651C85.5324 7.42201 85.4012 7.47989 85.2723 7.53679C85.1793 7.57781 85.0875 7.61831 84.9977 7.6608C85.1367 7.72389 85.2721 7.78343 85.404 7.84142C85.5076 7.88701 85.6094 7.93174 85.7087 7.97637ZM79.2763 12.9464C80.2467 13.0591 81.3302 13.0253 82.2442 12.6083C83.1695 12.1913 84.2191 10.9967 83.3952 9.99366C83.1921 9.75699 82.9326 9.55414 82.6505 9.43017C81.8661 9.07644 80.9117 9.10664 80.0131 9.13509C79.7092 9.1447 79.4118 9.15411 79.1296 9.14842C78.9716 9.14842 78.949 9.20477 78.9264 9.34001C78.8813 9.67808 78.8333 10.0133 78.7854 10.3486C78.7374 10.6838 78.6895 11.0193 78.6443 11.3573C78.5879 11.6842 78.5428 12.0223 78.4976 12.3603C78.4945 12.3878 78.4874 12.4243 78.4793 12.4649C78.458 12.5739 78.4309 12.7115 78.4638 12.7773L78.475 12.7886C78.5627 12.8849 78.9027 12.9131 79.124 12.9316C79.1873 12.9368 79.2411 12.9414 79.2763 12.9464ZM80.2242 6.53383C80.5966 6.57891 80.9577 6.57891 81.3188 6.5451C82.4134 6.44367 84.3432 5.92525 84.2416 4.47144C84.2304 4.23478 84.1175 4.00938 83.9708 3.81779C83.6773 3.43462 83.2034 3.15287 82.7294 3.0289C82.1652 2.88239 81.5445 2.87112 80.9691 2.98382C80.4386 3.09652 79.9082 3.40081 79.7277 3.94176C79.5471 4.48271 79.4794 5.04621 79.423 5.6097C79.4198 5.65474 79.4091 5.7191 79.3973 5.79145C79.3675 5.97252 79.3295 6.20375 79.3778 6.30843C79.3778 6.31969 79.3778 6.3197 79.3891 6.33097C79.509 6.48749 79.8473 6.50862 80.084 6.5234C80.137 6.52671 80.1849 6.5297 80.2242 6.53383Z"
            fill="#00394D" />
        <path fill-rule="evenodd" clip-rule="evenodd"
            d="M99.3069 5.12451C98.5508 4.5723 97.4111 4.39198 96.5083 4.29055C96.0907 4.24547 95.6619 4.20039 95.2331 4.18912C94.7027 4.16658 94.1835 4.18912 93.6757 4.25674C93.1905 4.32436 92.7166 4.42579 92.2425 4.54976C92.1757 4.5683 92.1086 4.58591 92.0416 4.60352C91.7008 4.69298 91.3612 4.78212 91.0689 4.98927C90.7417 5.22594 90.4821 5.5415 90.3354 5.9134C90.1887 6.29658 90.1322 6.86007 90.3918 7.2207C90.5499 7.4461 90.8432 7.46864 91.0915 7.40102C92.4682 7.05166 93.7885 6.78118 95.2105 6.99531C95.707 7.0742 96.1359 7.20943 96.4519 7.63769C96.5985 7.84055 96.6776 8.12229 96.4744 8.31388C96.4019 8.4588 96.0912 8.48012 95.9274 8.49136L95.8876 8.4942C95.5861 8.52 95.2824 8.54216 94.9778 8.56439C94.0854 8.6295 93.1853 8.69519 92.3103 8.85483C91.3736 9.02388 90.437 9.37325 89.7599 10.072C89.1393 10.7256 88.8232 11.7286 88.8458 12.6189C88.891 14.4334 90.7868 15.2899 92.3667 15.4589C93.766 15.6055 95.1653 15.5941 96.5534 15.3124C97.4901 15.1208 98.3929 14.8391 99.1715 14.2419C99.5665 13.9375 99.826 13.5657 99.8825 13.0585L99.9324 12.6502C100.085 11.402 100.236 10.1612 100.379 8.91118C100.39 8.81605 100.402 8.72121 100.414 8.62657C100.475 8.13824 100.535 7.65525 100.469 7.16435C100.356 6.33039 99.984 5.60912 99.3069 5.12451ZM96.2262 11.9879C96.1359 12.3935 95.8988 12.7993 95.4474 12.8669C94.7139 12.9908 93.8224 13.0585 93.1792 12.6077C92.7053 12.2696 92.5021 11.6948 92.9874 11.2778C93.4722 10.8562 94.1846 10.8295 94.8617 10.8041C95.1618 10.7929 95.4549 10.7819 95.7183 10.7369C95.7381 10.7341 95.7577 10.7306 95.7774 10.727C95.8367 10.7165 95.896 10.7059 95.9553 10.7144C96.0117 10.7144 96.0569 10.7369 96.0907 10.7594C96.4405 10.9398 96.2938 11.7061 96.2262 11.9879Z"
            fill="#00394D" />
        <path fill-rule="evenodd" clip-rule="evenodd"
            d="M107.804 3.94125C108.831 3.91871 110.05 3.98633 110.975 4.45966C111.732 4.84284 112.104 5.98109 111.37 6.8376C111.182 7.0556 110.958 7.23875 110.731 7.42535C110.7 7.45098 110.668 7.47667 110.637 7.50251C110.592 7.53632 110.468 7.55886 110.411 7.52505C109.599 7.063 108.73 6.75871 107.804 6.60094C107.432 6.54459 107.048 6.48824 106.665 6.53332C106.36 6.56713 105.751 6.7249 105.784 7.13062C105.812 7.39562 106.166 7.5643 106.431 7.69073C106.493 7.72023 106.55 7.74741 106.597 7.77299C106.935 7.95331 107.285 8.11109 107.646 8.25759C107.919 8.36809 108.194 8.47057 108.469 8.5729C108.924 8.74192 109.377 8.91052 109.813 9.1141C111.246 9.7903 111.619 11.3005 111.1 12.574C110.648 13.6558 109.791 14.2982 108.752 14.7265C106.71 15.5604 104.385 15.6055 102.297 14.8842C102.27 14.8749 102.243 14.8655 102.216 14.8562C101.757 14.6976 101.296 14.5386 101.146 14.0278C100.898 13.1825 101.869 12.2697 102.5 11.8526C102.85 11.6273 103.031 11.6273 103.347 11.8752C104.317 12.619 106.066 13.2614 107.195 12.4838C107.353 12.3824 107.488 12.2133 107.455 12.033C107.395 11.7029 106.819 11.4704 106.485 11.3357C106.443 11.3186 106.404 11.3031 106.371 11.2892C106.116 11.181 105.858 11.0872 105.6 10.9935C105.401 10.9213 105.202 10.8493 105.006 10.7708C104.968 10.7556 104.929 10.7402 104.89 10.7248C104.121 10.4187 103.197 10.0507 102.681 9.40712C102.151 8.73093 102.049 7.84061 102.23 7.02919C102.489 5.83459 103.415 4.88792 104.566 4.50474C105.581 4.16665 106.676 3.96379 107.759 3.94125H107.804Z"
            fill="#00394D" />
        <path fill-rule="evenodd" clip-rule="evenodd"
            d="M121.989 4.38067C122.96 4.854 123.762 5.50766 124.167 6.54448C124.348 6.99528 124.404 7.49115 124.404 7.97574C124.404 8.16733 124.394 8.35892 124.36 8.55051C124.314 8.79844 124.235 9.03511 124.089 9.26051C123.863 9.60987 123.525 9.88035 123.14 10.0494C122.881 10.1618 122.588 10.2012 122.307 10.239C122.222 10.2504 122.139 10.2617 122.057 10.2748C120.574 10.4976 119.081 10.6704 117.588 10.8434C117.343 10.8716 117.099 10.8999 116.855 10.9284C116.836 10.9305 116.806 10.9326 116.769 10.9351C116.602 10.9465 116.294 10.9675 116.257 11.0411C116.246 11.0749 116.246 11.1088 116.257 11.1426C116.37 11.6384 116.776 11.9766 117.204 12.1907C117.86 12.5175 118.604 12.6527 119.326 12.664C119.846 12.664 120.364 12.5738 120.883 12.4611C121.268 12.3822 121.628 12.2921 121.989 12.1455L122.049 12.1238C122.284 12.0373 122.551 11.9386 122.791 12.0216C123.005 12.0892 123.152 12.2809 123.242 12.4949C123.501 13.1373 123.276 13.836 122.769 14.2756C122.193 14.7715 121.459 14.9743 120.737 15.1434C119.947 15.335 119.1 15.4138 118.277 15.3913C117.374 15.3688 116.471 15.2223 115.614 14.9405C114.778 14.6701 114 14.208 113.424 13.5318C112.307 12.2132 112.183 10.1395 112.589 8.52797C113.018 6.80369 114.35 5.3048 115.975 4.58353C116.923 4.15527 117.95 3.94115 118.988 3.90734C119.947 3.87353 121.11 3.95242 121.989 4.38067ZM119.981 8.1786C120.139 8.15606 120.297 8.09971 120.444 8.03209C120.602 7.9532 120.636 7.82925 120.579 7.6602C120.534 7.45734 120.421 7.33337 120.285 7.18686C119.924 6.78115 119.473 6.62337 118.954 6.57829C117.565 6.46559 116.482 7.2094 116.223 8.48289C116.323 8.48877 116.42 8.49773 116.516 8.50655C116.603 8.51463 116.69 8.52258 116.776 8.52797C116.84 8.52797 116.904 8.53051 116.968 8.53303C117.096 8.53802 117.22 8.54294 117.34 8.52797C117.599 8.49981 117.856 8.46884 118.113 8.43786C118.37 8.40686 118.626 8.37583 118.887 8.34765C118.954 8.33638 119.01 8.32511 119.067 8.31386C119.168 8.29883 119.27 8.28504 119.371 8.27127C119.575 8.24372 119.778 8.21617 119.981 8.1786Z"
            fill="#00394D" />
    </g>
    <defs>
        <clipPath id="clip0_1507_4712">
            <rect width="125" height="28" fill="white" />
        </clipPath>
    </defs>
</svg>