<svg width="15" height="14" viewBox="0 0 15 14" fill="none" xmlns="http://www.w3.org/2000/svg">
<path fill-rule="evenodd" clip-rule="evenodd" d="M0 1.5C0 0.671574 0.671573 0 1.5 0H13.5C14.3284 0 15 0.671573 15 1.5V12C15 12.8284 14.3284 13.5 13.5 13.5H1.5C0.671574 13.5 0 12.8284 0 12V1.5ZM13.5 1.5L1.5 1.5V12H13.5V1.5ZM6 4.875H2.625V3.375H6V4.875ZM6 7.5H2.625V6H6V7.5ZM4.5 10.125H2.625V8.625H4.5V10.125ZM9.375 8.25C8.33947 8.25 7.5 9.08947 7.5 10.125H6C6 8.74729 6.8255 7.56238 8.00886 7.03793C7.47155 6.62675 7.125 5.97885 7.125 5.25C7.125 4.00736 8.13236 3 9.375 3C10.6176 3 11.625 4.00736 11.625 5.25C11.625 5.97885 11.2784 6.62675 10.7411 7.03793C11.9245 7.56238 12.75 8.74729 12.75 10.125H11.25C11.25 9.08947 10.4105 8.25 9.375 8.25ZM8.625 5.25C8.625 4.83579 8.96079 4.5 9.375 4.5C9.78921 4.5 10.125 4.83579 10.125 5.25C10.125 5.66421 9.78921 6 9.375 6C8.96079 6 8.625 5.66421 8.625 5.25Z" fill="#4E5969"/>
</svg>
