<svg width="24" height="24" viewBox="0 0 24 24" fill="none" xmlns="http://www.w3.org/2000/svg">
<path fill-rule="evenodd" clip-rule="evenodd" d="M20 16.1709C20.351 16.295 20.672 16.4825 20.9492 16.7197L21.9639 16.1338L22.9639 17.8662L21.9502 18.4512C21.983 18.6291 22 18.8127 22 19C22 19.1873 21.983 19.3709 21.9502 19.5488L22.9639 20.1338L21.9639 21.8662L20.9492 21.2803C20.672 21.5175 20.351 21.705 20 21.8291V23H18V21.8291C17.649 21.705 17.328 21.5175 17.0508 21.2803L16.0361 21.8662L15.0361 20.1338L16.0498 19.5488C16.017 19.3709 16 19.1873 16 19C16 18.8127 16.017 18.6291 16.0498 18.4512L15.0361 17.8662L16.0361 16.1338L17.0508 16.7197C17.328 16.4825 17.649 16.295 18 16.1709V15H20V16.1709ZM19 18C18.4477 18 18 18.4477 18 19C18 19.5523 18.4477 20 19 20C19.5523 20 20 19.5523 20 19C20 18.4477 19.5523 18 19 18Z" fill="black"/>
<path fill-rule="evenodd" clip-rule="evenodd" d="M17 3H20.0068C20.5552 3.00013 20.9999 3.4449 21 3.99316V13.3418C20.3744 13.1207 19.7013 13 19 13V5H17V7H7V5H5V19H13C13 19.7014 13.1216 20.3743 13.3428 21H3.99316C3.44471 20.9999 3.00013 20.5551 3 20.0068V3.99316C3.00013 3.44471 3.4449 3.00013 3.99316 3H7V1H17V3ZM9 5H15V3H9V5Z" fill="black"/>
<path d="M9 17H7V15H9V17Z" fill="black"/>
<path d="M9 14H7V12H9V14Z" fill="black"/>
<path d="M9 11H7V9H9V11Z" fill="black"/>
</svg>
