<svg width="24" height="24" viewBox="0 0 24 24" fill="none" xmlns="http://www.w3.org/2000/svg">
<path fill-rule="evenodd" clip-rule="evenodd" d="M16.1025 2.00488C16.6067 2.05621 17 2.48232 17 3V8.07227C16.9184 8.06059 16.8364 8.04998 16.7539 8.04102C20.2653 8.41708 23 11.3887 23 15C23 18.866 19.866 22 16 22H4C3.48232 22 3.05621 21.6067 3.00488 21.1025L3 21V3C3 2.44772 3.44772 2 4 2H16L16.1025 2.00488ZM15.1641 8.05078C15.1092 8.05738 15.0545 8.06447 15 8.07227V4H5V20H11.1025C9.80553 18.7294 9 16.9591 9 15C9 11.4169 11.6922 8.46401 15.1641 8.05078ZM15 16.5H19V14.5H17V11.5H15V16.5Z" fill="black"/>
</svg>
