<svg width="40" height="93" viewBox="0 0 40 93" fill="none" xmlns="http://www.w3.org/2000/svg">
<path d="M33.9403 8.48507C37.5016 9.37541 40 12.5753 40 16.2462V85C40 89.4183 36.4183 93 32 93H8C3.58172 93 0 89.4183 0 85V10.2462C0 5.04164 4.89111 1.22278 9.94028 2.48507L33.9403 8.48507Z" fill="#009E9E"/>
<path d="M32.9701 12.2425C34.7508 12.6877 36 14.2876 36 16.1231V85C36 87.2091 34.2091 89 32 89H8C5.79086 89 4 87.2091 4 85V10.1231C4 7.52082 6.44555 5.61139 8.97014 6.24254L32.9701 12.2425Z" fill="white"/>
</svg>
