<svg width="24" height="24" viewBox="0 0 24 24" fill="none" xmlns="http://www.w3.org/2000/svg">
<path fill-rule="evenodd" clip-rule="evenodd" d="M20 17.1709C20.351 17.295 20.672 17.4825 20.9492 17.7197L21.9639 17.1338L22.9639 18.8662L21.9502 19.4512C21.983 19.6291 22 19.8127 22 20C22 20.1873 21.983 20.3709 21.9502 20.5488L22.9639 21.1338L21.9639 22.8662L20.9492 22.2803C20.672 22.5175 20.351 22.705 20 22.8291V24H18V22.8291C17.649 22.705 17.328 22.5175 17.0508 22.2803L16.0361 22.8662L15.0361 21.1338L16.0498 20.5488C16.017 20.3709 16 20.1873 16 20C16 19.8127 16.017 19.6291 16.0498 19.4512L15.0361 18.8662L16.0361 17.1338L17.0508 17.7197C17.328 17.4825 17.649 17.295 18 17.1709V16H20V17.1709ZM19 19C18.4477 19 18 19.4477 18 20C18 20.5523 18.4477 21 19 21C19.5523 21 20 20.5523 20 20C20 19.4477 19.5523 19 19 19Z" fill="black"/>
<path fill-rule="evenodd" clip-rule="evenodd" d="M21 2C21.5523 2 22 2.44772 22 3V9C22 10.0143 21.6223 10.9404 21 11.6455V14.3418C20.3744 14.1207 19.7013 14 19 14V12.874C18.6804 12.9562 18.3453 13 18 13C16.8053 13 15.7329 12.4759 15 11.6455C14.2671 12.4759 13.1947 13 12 13C10.8053 13 9.73294 12.4759 9 11.6455C8.26706 12.4759 7.19469 13 6 13C5.6547 13 5.31962 12.9562 5 12.874V20H13C13 20.7014 13.1216 21.3743 13.3428 22H4C3.44772 22 3 21.5523 3 21V11.6455C2.37773 10.9404 2 10.0143 2 9V3C2 2.44772 2.44772 2 3 2H21ZM4 9C4 10.1046 4.89543 11 6 11C7.10457 11 8 10.1046 8 9C8 8.44772 8.44772 8 9 8C9.55228 8 10 8.44772 10 9C10 10.1046 10.8954 11 12 11C13.1046 11 14 10.1046 14 9C14 8.44772 14.4477 8 15 8C15.5523 8 16 8.44772 16 9C16 10.1046 16.8954 11 18 11C19.1046 11 20 10.1046 20 9V4H4V9Z" fill="black"/>
</svg>
