<svg width="24" height="24" viewBox="0 0 24 24" fill="none" xmlns="http://www.w3.org/2000/svg">
<path d="M10 18.5H6V16.5H10V18.5Z" fill="black"/>
<path d="M14 15H6V13H14V15Z" fill="black"/>
<path d="M10.0352 7.53516H12V9.53516H10.0352V11.5713H8.03516V9.53516H6V7.53516H8.03516V5.5H10.0352V7.53516Z" fill="black"/>
<path fill-rule="evenodd" clip-rule="evenodd" d="M17 2C17.5523 2 18 2.44772 18 3V15H22V19C22 20.6569 20.6569 22 19 22H5C3.34315 22 2 20.6569 2 19V3C2 2.44772 2.44772 2 3 2H17ZM4 19C4 19.5523 4.44772 20 5 20H16V4H4V19ZM18 19C18 19.5523 18.4477 20 19 20C19.5523 20 20 19.5523 20 19V17H18V19Z" fill="black"/>
</svg>
