<svg width="24" height="24" viewBox="0 0 24 24" fill="none" xmlns="http://www.w3.org/2000/svg">
<path d="M19.132 3C19.4517 3.00014 19.7524 3.15348 19.9405 3.41211L23.2775 8H20.8038L18.6222 5H5.38683L2.58703 8.84961L12.005 19.0518L18.0001 12.5566V15.5049L12.3722 21.6016C12.185 21.8044 11.8681 21.817 11.6652 21.6299C11.6189 21.5807 7.82479 17.4711 0.283317 9.30176C0.121551 9.12651 0.105932 8.86085 0.246208 8.66797L4.06847 3.41211C4.25666 3.15348 4.5582 3 4.87804 3H19.132Z" fill="black"/>
<path d="M22.0001 21H20.0001V19H22.0001V21Z" fill="black"/>
<path d="M22.0001 17H20.0001V10H22.0001V17Z" fill="black"/>
</svg>
