<svg width="24" height="24" viewBox="0 0 24 24" fill="none" xmlns="http://www.w3.org/2000/svg">
<path d="M18.3867 14.8867L17.1738 16.0996H20C22.1539 16.0996 23.9004 17.8461 23.9004 20C23.9004 22.1539 22.1539 23.9004 20 23.9004H15V22.0996H20C21.1598 22.0996 22.0996 21.1598 22.0996 20C22.0996 18.8402 21.1598 17.9004 20 17.9004H17.1738L18.3867 19.1133L17.1133 20.3867L13.7275 17L17.1133 13.6133L18.3867 14.8867Z" fill="black"/>
<path d="M9 2H15V0H17V2H20C20.5523 2 21 2.44772 21 3V11.4277C20.3679 11.2043 19.697 11.0644 19 11.0186V4H17V6H15V4H9V6H7V4H5V20H11.1504C11.2941 20.7081 11.5382 21.3796 11.8662 22H4C3.44772 22 3 21.5523 3 21V3C3 2.44772 3.44772 2 4 2H7V0H9V2Z" fill="black"/>
<path d="M12 10H7V8H12V10Z" fill="black"/>
</svg>
