<svg width="24" height="24" viewBox="0 0 24 24" fill="none" xmlns="http://www.w3.org/2000/svg">
<path fill-rule="evenodd" clip-rule="evenodd" d="M20.9111 13.9805C20.8499 14.0839 20.785 14.1867 20.7188 14.29C21.4568 15.0226 22.5668 15.8118 23.5605 16.2402C23.3206 16.6102 23.0314 17.2709 22.9014 17.6709C22.5886 17.4891 22.2688 17.2773 21.9512 17.0479V17.8906H18.3008V17.1006C17.9865 17.3813 17.6708 17.6379 17.3613 17.8604C17.2132 17.5919 16.848 17.0343 16.5967 16.7305H16.4014V17.0146C16.6798 17.3567 17.5911 18.5706 17.6025 18.5859L16.8643 19.3926L16.4014 18.8076V23.1406H15.0908V19.8428L14.5576 21.1602L13.5 20.5303C13.5 20.5303 14.7854 17.7449 14.999 16.7305H13.9814V15.3906H15.0908V13.6406H16.4014V15.3906H17.0508V16.3193C18.0634 15.5905 19.0545 14.553 19.6709 13.5L20.9111 13.9805ZM19.9629 15.3408C19.5867 15.8123 19.1753 16.2663 18.751 16.6807H21.4648C20.9276 16.258 20.4121 15.7938 19.9629 15.3408Z" fill="black"/>
<path d="M22.9014 18.6455L21.8008 21.5205H23.0811V22.7803H17.1309V21.5205H20.5586L20.9346 20.7178L19.8057 20.8506L19.4785 18.5859L20.627 18.4219L20.9785 20.6182C21.304 19.8526 21.8008 18.29 21.8008 18.29L22.9014 18.6455Z" fill="black"/>
<path d="M9 2H15V0H17V2H20C20.5523 2 21 2.44772 21 3V11.4277C20.3679 11.2043 19.697 11.0644 19 11.0186V4H17V6H15V4H9V6H7V4H5V20H11.1504C11.2941 20.7081 11.5382 21.3796 11.8662 22H4C3.44772 22 3 21.5523 3 21V3C3 2.44772 3.44772 2 4 2H7V0H9V2Z" fill="black"/>
<path d="M19.2822 20.9111L18.1367 21.1602L17.6025 18.9355L18.7129 18.6455L19.2822 20.9111Z" fill="black"/>
<path d="M12 10H7V8H12V10Z" fill="black"/>
</svg>
