<svg width="24" height="24" viewBox="0 0 24 24" fill="none" xmlns="http://www.w3.org/2000/svg">
<path d="M23 21H1V19H23V21Z" fill="black"/>
<path d="M15.0039 7.54199C15.6528 7.43322 16.3196 7.54028 16.9014 7.84766C17.4832 8.15512 17.9479 8.6457 18.2236 9.24316L16.8604 9.87207C16.6225 9.35789 16.1037 9.00006 15.5 9C14.6718 9.00008 14.0002 9.67178 14 10.5C14.0002 11.3282 14.6718 11.9999 15.5 12C15.9965 11.9999 16.435 11.7574 16.708 11.3857L17.9189 12.2744C17.5298 12.8048 16.9769 13.1934 16.3457 13.3789C15.7144 13.5643 15.0391 13.5366 14.4248 13.3008C13.8105 13.065 13.2904 12.6335 12.9453 12.0732C12.6004 11.5131 12.4489 10.8547 12.5146 10.2002C12.5805 9.54564 12.8601 8.93053 13.3096 8.4502C13.7593 7.96985 14.355 7.65083 15.0039 7.54199Z" fill="black"/>
<path d="M9 13H6V11H9V13Z" fill="black"/>
<path d="M11 10H6V8H11V10Z" fill="black"/>
<path fill-rule="evenodd" clip-rule="evenodd" d="M21.0078 3C21.5556 3 22 3.44925 22 4.00781V18H2V4.00781C2 3.4514 2.4557 3 2.99219 3H21.0078ZM4 16H20V5H4V16Z" fill="black"/>
</svg>
