<svg width="24" height="24" viewBox="0 0 24 24" fill="none" xmlns="http://www.w3.org/2000/svg">
<path d="M23 21H1V19H23V21Z" fill="black"/>
<path fill-rule="evenodd" clip-rule="evenodd" d="M21.0078 3C21.5556 3 22 3.44994 22 4.00684V17H2V4.00684C2.00001 3.45077 2.4557 3 2.99219 3H21.0078ZM16.9014 7.84766C16.3197 7.54032 15.6528 7.4323 15.0039 7.54102C14.3551 7.64985 13.7592 7.96899 13.3096 8.44922C12.8599 8.9296 12.5805 9.54549 12.5146 10.2002C12.4489 10.8548 12.6004 11.5131 12.9453 12.0732C13.2904 12.6335 13.8106 13.0649 14.4248 13.3008C15.0389 13.5364 15.7136 13.5632 16.3447 13.3779C16.9761 13.1925 17.5297 12.805 17.9189 12.2744L16.707 11.3857C16.4341 11.7571 15.9962 11.9999 15.5 12C14.6718 11.9998 14 11.3283 14 10.5C14 9.67169 14.6717 9.00018 15.5 9C16.1038 9.00014 16.6226 9.3578 16.8604 9.87207L18.2236 9.24316C17.9479 8.64571 17.4831 8.15512 16.9014 7.84766ZM6 11V13H9V11H6ZM6 10H11V8H6V10Z" fill="black"/>
</svg>
