<svg width="24" height="24" viewBox="0 0 24 24" fill="none" xmlns="http://www.w3.org/2000/svg">
<path d="M13.5996 9.40039H12.5996V11.4004H16.5996V14.5H17.4004V17.2998H14.5996V14.5H15.4004V12.5996H12.5996V14.5H13.4004V17.2998H10.5996V14.5H11.4004V12.5996H8.59961V14.5H9.40039V17.2998H6.59961V14.5H7.40039V11.4004H11.4004V9.40039H10.4004V6.2002H13.5996V9.40039Z" fill="black"/>
<path fill-rule="evenodd" clip-rule="evenodd" d="M20 2C20.5523 2 21 2.44772 21 3V21C21 21.5523 20.5523 22 20 22H4C3.44772 22 3 21.5523 3 21V3C3 2.44772 3.44772 2 4 2H20ZM5 20H19V4H12H5V20Z" fill="black"/>
</svg>
