<svg width="24" height="24" viewBox="0 0 24 24" fill="none" xmlns="http://www.w3.org/2000/svg">
<path fill-rule="evenodd" clip-rule="evenodd" d="M20 2C20.5523 2 21 2.44772 21 3V21C21 21.5523 20.5523 22 20 22H4C3.44772 22 3 21.5523 3 21V3C3 2.44772 3.44772 2 4 2H20ZM10.4004 6.2002V9.40039H11.4004V11.4004H7.40039V14.5H6.59961V17.2998H9.40039V14.5H8.59961V12.5996H11.4004V14.5H10.5996V17.2998H13.4004V14.5H12.5996V12.5996H15.4004V14.5H14.5996V17.2998H17.4004V14.5H16.5996V11.4004H12.5996V9.40039H13.5996V6.2002H10.4004Z" fill="black"/>
</svg>
