<svg width="24" height="24" viewBox="0 0 24 24" fill="none" xmlns="http://www.w3.org/2000/svg">
<path d="M18.0049 7.00293V12.0029L16.2119 10.21L12.3477 14.0742L10.2266 11.9531L7.39844 14.7812L5.98438 13.3672L10.2266 9.12402L12.3477 11.2451L14.7979 8.7959L13.0049 7.00293H18.0049Z" fill="black"/>
<path fill-rule="evenodd" clip-rule="evenodd" d="M21.1025 3.00488C21.6067 3.05621 22 3.48232 22 4V18C22 18.5177 21.6067 18.9438 21.1025 18.9951L21 19H15.7529L17.4004 21.1963C17.5661 21.4172 17.5207 21.7308 17.2998 21.8965C17.2133 21.9614 17.1082 21.9971 17 21.9971H7C6.72397 21.9971 6.50017 21.773 6.5 21.4971C6.5 21.3889 6.5347 21.2828 6.59961 21.1963L8.24707 19H3C2.44772 19 2 18.5523 2 18V4C2 3.44772 2.44772 3 3 3H21L21.1025 3.00488ZM4 17H20V5H4V17Z" fill="black"/>
</svg>
