<svg width="18" height="18" viewBox="0 0 18 18" fill="none" xmlns="http://www.w3.org/2000/svg">
<rect width="18" height="18" rx="4" fill="#1979FF"/>
<path d="M8.5 4C10.9853 4 13 6.01472 13 8.5C13 9.56246 12.6304 10.5378 12.0146 11.3076L13.8281 13.1211L13.1211 13.8281L11.3076 12.0146C10.5378 12.6304 9.56246 13 8.5 13C6.01472 13 4 10.9853 4 8.5C4 6.01472 6.01472 4 8.5 4ZM8.5 5C6.567 5 5 6.567 5 8.5C5 10.433 6.567 12 8.5 12C10.433 12 12 10.433 12 8.5C12 6.567 10.433 5 8.5 5Z" fill="white"/>
<path d="M6.5 10L7.5 8.5L9 9L10.2 7" stroke="white" stroke-width="0.8"/>
</svg>
