<svg width="18" height="18" viewBox="0 0 18 18" fill="none" xmlns="http://www.w3.org/2000/svg">
<rect width="18" height="18" rx="4" fill="#1979FF"/>
<path d="M5.79883 9H5C5 11.2091 6.79086 13 9 13C10.1046 13 11.1043 12.552 11.8281 11.8281L12.5352 12.5352C11.6303 13.44 10.3807 14 9 14C6.23858 14 4 11.7614 4 9H3.20117L4.5 7.5L5.79883 9ZM11 10.7998C11 10.7998 10.5 11.2002 9 11.2002C7.5 11.2002 7 10.7998 7 10.7998V10C7 10 7.5 10.4004 9 10.4004C10.5 10.4004 11 10 11 10V10.7998ZM9 4C11.7614 4 14 6.23858 14 9H14.7988L13.5 10.5L12.2012 9H13C13 6.79086 11.2091 5 9 5C7.89543 5 6.89573 5.44802 6.17188 6.17188L5.46484 5.46484C6.36967 4.56002 7.61929 4 9 4ZM11 9.09961C11 9.09961 10.5 9.5 9 9.5C7.5 9.5 7 9.09961 7 9.09961V8.2998C7 8.2998 7.5 8.7002 9 8.7002C10.5 8.7002 11 8.2998 11 8.2998V9.09961ZM9 6.7998C10.1043 6.7998 10.9996 7.02375 11 7.2998C11 7.57595 10.1046 7.7998 9 7.7998C7.89543 7.7998 7 7.57595 7 7.2998C7.00042 7.02375 7.89569 6.7998 9 6.7998Z" fill="white"/>
</svg>
