<svg width="18" height="18" viewBox="0 0 18 18" fill="none" xmlns="http://www.w3.org/2000/svg">
<rect width="18" height="18" rx="4" fill="#1979FF"/>
<path d="M11.5 11.5H13.5V12.5H11.5V14.5H10.5V12.5H8.5V11.5H10.5V9.5H11.5V11.5ZM8 4C10.2091 4 12 4.89543 12 6V8.12598C11.6804 8.04371 11.3453 8 11 8V7.31934C10.267 7.73505 9.19553 8 8 8C6.80447 8 5.73298 7.73505 5 7.31934V9C5 9.00106 5.0004 9.00303 5.00098 9.00586C5.00164 9.00897 5.00305 9.01517 5.00684 9.02441C5.01495 9.04419 5.03457 9.08133 5.07812 9.13281C5.16939 9.2406 5.34077 9.38034 5.61914 9.51953C6.08865 9.75424 6.75847 9.93231 7.54492 9.9834C7.36933 10.2836 7.23166 10.6087 7.13867 10.9521C6.29504 10.8587 5.55161 10.6322 5 10.3193V12C5 12.0011 5.0004 12.003 5.00098 12.0059C5.00164 12.009 5.00305 12.0152 5.00684 12.0244C5.01495 12.0442 5.03457 12.0813 5.07812 12.1328C5.16939 12.2406 5.34077 12.3803 5.61914 12.5195C5.99991 12.7099 6.5127 12.8616 7.1123 12.9404C7.2017 13.3113 7.34263 13.6618 7.52734 13.9844C5.54102 13.8674 4 13.0246 4 12V6C4 4.89543 5.79086 4 8 4ZM8 5C7.01712 5 6.17688 5.20165 5.61914 5.48047C5.34077 5.61966 5.16939 5.7594 5.07812 5.86719C5.03457 5.91867 5.01495 5.95581 5.00684 5.97559C5.00305 5.98483 5.00164 5.99103 5.00098 5.99414C5.0004 5.99697 5 5.99894 5 6C5 6.00106 5.0004 6.00303 5.00098 6.00586C5.00164 6.00897 5.00305 6.01517 5.00684 6.02441C5.01495 6.04419 5.03457 6.08133 5.07812 6.13281C5.16939 6.2406 5.34077 6.38034 5.61914 6.51953C6.17688 6.79835 7.01712 7 8 7C8.98288 7 9.82312 6.79835 10.3809 6.51953C10.6592 6.38034 10.8306 6.2406 10.9219 6.13281C10.9654 6.08133 10.9851 6.04419 10.9932 6.02441C10.9969 6.01517 10.9984 6.00897 10.999 6.00586C10.9996 6.00303 11 6.00106 11 6C11 5.99894 10.9996 5.99697 10.999 5.99414C10.9984 5.99103 10.9969 5.98483 10.9932 5.97559C10.9851 5.95581 10.9654 5.91867 10.9219 5.86719C10.8306 5.7594 10.6592 5.61966 10.3809 5.48047C9.82312 5.20165 8.98288 5 8 5Z" fill="white"/>
</svg>
