<svg width="18" height="18" viewBox="0 0 18 18" fill="none" xmlns="http://www.w3.org/2000/svg">
<rect width="18" height="18" rx="4" fill="#1979FF"/>
<path d="M12.0163 11.3092L14.1568 13.4497L13.4497 14.1568L11.3092 12.0163C10.5395 12.632 9.5629 13 8.5 13C6.73228 13 5.20342 11.982 4.46738 10.5H6H7.5L6.84799 11.5867C7.33999 11.8505 7.90245 12 8.5 12C9.4478 12 10.3073 11.6238 10.9374 11.0124L11.0124 10.9374C11.6238 10.3073 12 9.4478 12 8.5C12 8.1525 11.9494 7.81682 11.8552 7.5H12.8886C12.9615 7.82159 13 8.1563 13 8.5C13 9.5629 12.632 10.5395 12.0163 11.3092ZM12.5326 6.5H9.5L10.152 5.41331C9.66 5.14956 9.09755 5 8.5 5C6.56625 5 5 6.56625 5 8.5C5 8.8475 5.05058 9.18315 5.1448 9.5H4.1114C4.03849 9.1784 4 8.8437 4 8.5C4 6.01375 6.01375 4 8.5 4C10.2677 4 11.7966 5.01798 12.5326 6.5Z" fill="white"/>
</svg>
