<svg width="18" height="18" viewBox="0 0 18 18" fill="none" xmlns="http://www.w3.org/2000/svg">
<rect width="18" height="18" rx="4" fill="#009E9E"/>
<path d="M6.13245 4.90349L6.70596 5.72279C5.67438 6.44623 5 7.64436 5 9C5 11.2092 6.79086 13 9 13C11.2092 13 13 11.2092 13 9C13 7.64436 12.3256 6.44623 11.2941 5.72279L11.8675 4.90349C13.1571 5.80779 14 7.30545 14 9C14 11.7614 11.7614 14 9 14C6.23857 14 4 11.7614 4 9C4 7.30545 4.84297 5.80779 6.13245 4.90349ZM8.5 9V4H9.5V9H8.5Z" fill="white"/>
</svg>
