<svg width="18" height="18" viewBox="0 0 18 18" fill="none" xmlns="http://www.w3.org/2000/svg">
<rect width="18" height="18" rx="4" fill="#7E5AEA"/>
<path d="M5.5 4C6.15293 4 6.70703 4.41766 6.91309 5H11.25C12.4926 5 13.5 6.00736 13.5 7.25C13.5 8.49264 12.4926 9.5 11.25 9.5H7.75C7.05965 9.50001 6.5 10.0596 6.5 10.75C6.5 11.4404 7.05965 12 7.75 12H11.75V10.7676L14 12.5L11.75 14.2324V13H7.75C6.50737 13 5.5 11.9926 5.5 10.75C5.5 9.50736 6.50737 8.50001 7.75 8.5H11.25C11.9404 8.5 12.5 7.94036 12.5 7.25C12.5 6.55964 11.9404 6 11.25 6H6.91309C6.70703 6.58234 6.15293 7 5.5 7C4.67157 7 4 6.32843 4 5.5C4 4.67157 4.67157 4 5.5 4ZM5.5 5C5.22386 5 5 5.22386 5 5.5C5 5.77614 5.22386 6 5.5 6C5.77614 6 6 5.77614 6 5.5C6 5.22386 5.77614 5 5.5 5Z" fill="white"/>
</svg>
