<svg width="18" height="18" viewBox="0 0 18 18" fill="none" xmlns="http://www.w3.org/2000/svg">
<rect width="18" height="18" rx="4" fill="#7E5AEA"/>
<path d="M7 5H5.5V7.5C5.5 8.09831 5.23571 8.63349 4.81934 9C5.23571 9.36651 5.5 9.90169 5.5 10.5V13H7V14H5.5C4.98232 14 4.55621 13.6067 4.50488 13.1025L4.5 13V10.5C4.5 9.94772 4.05228 9.5 3.5 9.5V8.5C4.05228 8.5 4.5 8.05228 4.5 7.5V5C4.5 4.44772 4.94772 4 5.5 4H7V5ZM12.5 4C13.0523 4 13.5 4.44772 13.5 5V7.5C13.5 8.05228 13.9477 8.5 14.5 8.5V9.5C13.9477 9.5 13.5 9.94772 13.5 10.5V13L13.4951 13.1025C13.4438 13.6067 13.0177 14 12.5 14H11V13H12.5V10.5C12.5 9.90169 12.7643 9.36651 13.1807 9C12.7643 8.63349 12.5 8.09831 12.5 7.5V5H11V4H12.5ZM7 10.5C7.27614 10.5 7.5 10.7239 7.5 11C7.5 11.2761 7.27614 11.5 7 11.5C6.72386 11.5 6.5 11.2761 6.5 11C6.5 10.7239 6.72386 10.5 7 10.5ZM9 10.5C9.27614 10.5 9.5 10.7239 9.5 11C9.5 11.2761 9.27614 11.5 9 11.5C8.72386 11.5 8.5 11.2761 8.5 11C8.5 10.7239 8.72386 10.5 9 10.5ZM11 10.5C11.2761 10.5 11.5 10.7239 11.5 11C11.5 11.2761 11.2761 11.5 11 11.5C10.7239 11.5 10.5 11.2761 10.5 11C10.5 10.7239 10.7239 10.5 11 10.5Z" fill="white"/>
</svg>
