<svg width="18" height="18" viewBox="0 0 18 18" fill="none" xmlns="http://www.w3.org/2000/svg">
<rect width="18" height="18" rx="4" fill="#009E9E"/>
<path d="M7 13V13.9662C7 14.1043 6.88807 14.2162 6.75 14.2162C6.69151 14.2162 6.63489 14.1957 6.58996 14.1583L4.53047 12.442C4.4244 12.3536 4.41007 12.196 4.49846 12.0899C4.54596 12.0329 4.61632 12 4.69052 12H12C12.5523 12 13 11.5522 13 11V6.99994H14V11C14 12.1045 13.1046 13 12 13H7ZM11 4.99994V4.03369C11 3.89562 11.1119 3.78369 11.25 3.78369C11.3085 3.78369 11.3651 3.8042 11.4101 3.84164L13.4696 5.55788C13.5756 5.64627 13.5899 5.80391 13.5015 5.90998C13.4541 5.96698 13.3837 5.99993 13.3095 5.99993L6 5.99994C5.44772 5.99994 5 6.44766 5 6.99994V11H4V6.99994C4 5.89537 4.89543 4.99994 6 4.99994H11Z" fill="white"/>
</svg>
