<svg width="18" height="18" viewBox="0 0 18 18" fill="none" xmlns="http://www.w3.org/2000/svg">
<rect width="18" height="18" rx="4" fill="#7E5AEA"/>
<path d="M9 13.5L6 11.5H4V6.5H6L9 4.5V13.5ZM12.9473 5.77637C13.9619 7.80567 13.9619 10.1943 12.9473 12.2236L12.0527 11.7764C12.9266 10.0286 12.9266 7.97141 12.0527 6.22363L12.9473 5.77637ZM6.55469 7.33203L6.30273 7.5H5V10.5H6.30273L6.55469 10.668L8 11.6309V6.36816L6.55469 7.33203ZM10.9473 6.77637C11.6472 8.17616 11.6472 9.82384 10.9473 11.2236L10.0527 10.7764C10.6119 9.6581 10.6119 8.3419 10.0527 7.22363L10.9473 6.77637Z" fill="white"/>
</svg>
