<svg width="18" height="18" viewBox="0 0 18 18" fill="none" xmlns="http://www.w3.org/2000/svg">
<rect width="18" height="18" rx="4" fill="#FF7D00"/>
<path d="M9 5C7.70475 5 6.55303 5.61526 5.82137 6.57137L7 7.75H4V4.75L5.10931 5.85931C6.0253 4.726 7.42779 4 9 4C11.7614 4 14 6.23857 14 9H13C13 6.79086 11.2092 5 9 5ZM5 9C5 11.2092 6.79086 13 9 13C10.2952 13 11.447 12.3848 12.1786 11.4286L11 10.25H14V13.25L12.8907 12.1407C11.9747 13.274 10.5722 14 9 14C6.23857 14 4 11.7614 4 9H5Z" fill="white"/>
</svg>
