<svg width="18" height="18" viewBox="0 0 18 18" fill="none" xmlns="http://www.w3.org/2000/svg">
<rect width="18" height="18" rx="4" fill="#1D2129"/>
<g clip-path="url(#clip0_1727_11522)">
<path d="M11.1191 12.3213L8.99805 14.4424L6.87598 12.3213L7.58301 11.6143L8.99805 13.0283L10.4121 11.6143L11.1191 12.3213ZM6.38086 7.58398L4.9668 8.99805L6.38086 10.4121L5.67383 11.1191L3.55273 8.99805L5.67383 6.87598L6.38086 7.58398ZM14.4424 8.99805L12.3213 11.1191L11.6143 10.4121L13.0283 8.99805L11.6143 7.58301L12.3213 6.87598L14.4424 8.99805ZM9.75 9.75H8.25V8.25H9.75V9.75ZM11.1191 5.67383L10.4121 6.38086L8.99805 4.9668L7.58398 6.38086L6.87695 5.67383L8.99805 3.55273L11.1191 5.67383Z" fill="white"/>
</g>
<defs>
<clipPath id="clip0_1727_11522">
<rect width="12" height="12" fill="white" transform="translate(3 3)"/>
</clipPath>
</defs>
</svg>
