<svg width="18" height="18" viewBox="0 0 18 18" fill="none" xmlns="http://www.w3.org/2000/svg">
<rect width="18" height="18" rx="4" fill="#009E9E"/>
<g clip-path="url(#clip0_346_1314)">
<path d="M13.541 11.1539V8.80417H9.42554V6.7346C10.0797 6.54858 10.5608 5.94695 10.5608 5.23407C10.5608 4.37341 9.8604 3.67297 8.99979 3.67297C8.13919 3.67297 7.43875 4.37342 7.43875 5.23407C7.43875 5.94696 7.91993 6.54858 8.57406 6.7346V8.80414H4.45853V11.1539C3.82621 11.3535 3.36621 11.9455 3.36621 12.6428C3.36621 13.5035 4.06666 14.2039 4.92725 14.2039C5.78784 14.2039 6.4883 13.5035 6.4883 12.6428C6.4883 11.9145 5.98593 11.3026 5.31 11.1312V9.65564H8.57401V11.1423C7.91988 11.3283 7.43871 11.9299 7.43871 12.6428C7.43871 13.5035 8.13915 14.2039 8.99975 14.2039C9.86034 14.2039 10.5608 13.5034 10.5608 12.6428C10.5608 11.9299 10.0796 11.3283 9.42549 11.1423V9.65564H12.6895V11.1313C12.0137 11.3028 11.5115 11.9145 11.5115 12.6428C11.5115 13.5035 12.2119 14.2039 13.0725 14.2039C13.9331 14.2039 14.6336 13.5035 14.6336 12.6428C14.6336 11.9454 14.1735 11.3533 13.541 11.1539ZM8.29024 5.23408C8.29024 4.84271 8.60842 4.52452 8.99979 4.52452C9.39116 4.52452 9.70935 4.84271 9.70935 5.23408C9.70935 5.62545 9.39117 5.94364 8.99979 5.94364C8.60841 5.94364 8.29024 5.62545 8.29024 5.23408ZM5.63681 12.6428C5.63681 13.0342 5.31863 13.3524 4.92725 13.3524C4.53587 13.3524 4.21769 13.0342 4.21769 12.6428C4.21769 12.2515 4.53588 11.9333 4.92725 11.9333C5.31862 11.9333 5.63681 12.2515 5.63681 12.6428ZM9.70935 12.6428C9.70935 13.0342 9.39117 13.3524 8.99979 13.3524C8.60841 13.3524 8.29024 13.0342 8.29024 12.6428C8.29024 12.2515 8.60842 11.9333 8.99979 11.9333C9.39116 11.9333 9.70935 12.2515 9.70935 12.6428ZM13.0726 13.3524C12.6812 13.3524 12.363 13.0342 12.363 12.6428C12.363 12.2515 12.6812 11.9333 13.0726 11.9333C13.4639 11.9333 13.7821 12.2515 13.7821 12.6428C13.7821 13.0342 13.4639 13.3524 13.0726 13.3524Z" fill="white"/>
</g>
<defs>
<clipPath id="clip0_346_1314">
<rect width="12" height="12" fill="white" transform="translate(3 3)"/>
</clipPath>
</defs>
</svg>
