<svg width="18" height="18" viewBox="0 0 18 18" fill="none" xmlns="http://www.w3.org/2000/svg">
<rect width="18" height="18" rx="4" fill="#FF7D00"/>
<path d="M9 4C9.41162 4 9.81163 4.04976 10.1943 4.14355C10.0709 4.40338 10 4.6932 10 5C10 5.04268 10.0032 5.08493 10.0059 5.12695C9.68452 5.04374 9.34736 5 9 5C6.79086 5 5 6.79086 5 9C5 9.53881 5.10652 10.0502 5.29785 10.5166L5.40137 10.7705L5.36133 11.041L5.16113 12.4062L6.52441 12.3633L6.80273 12.3545L7.0459 12.4912C7.62283 12.815 8.2883 13 9 13C11.2091 13 13 11.2091 13 9C13 8.25059 12.7932 7.54975 12.4346 6.9502C12.7719 6.87537 13.0757 6.71557 13.3252 6.49414C13.7531 7.23114 14 8.08641 14 9C14 11.7614 11.7614 14 9 14C8.11233 14 7.27829 13.7689 6.55566 13.3633L4 13.4443L4.37207 10.8965C4.13216 10.3117 4 9.67126 4 9C4 6.23858 6.23858 4 9 4ZM7 8.5C7.27614 8.5 7.5 8.72386 7.5 9C7.5 9.27614 7.27614 9.5 7 9.5C6.72386 9.5 6.5 9.27614 6.5 9C6.5 8.72386 6.72386 8.5 7 8.5ZM9 8.5C9.27614 8.5 9.5 8.72386 9.5 9C9.5 9.27614 9.27614 9.5 9 9.5C8.72386 9.5 8.5 9.27614 8.5 9C8.5 8.72386 8.72386 8.5 9 8.5ZM11 8.5C11.2761 8.5 11.5 8.72386 11.5 9C11.5 9.27614 11.2761 9.5 11 9.5C10.7239 9.5 10.5 9.27614 10.5 9C10.5 8.72386 10.7239 8.5 11 8.5ZM12 4C12.5523 4 13 4.44772 13 5C13 5.55228 12.5523 6 12 6C11.4477 6 11 5.55228 11 5C11 4.44772 11.4477 4 12 4Z" fill="white"/>
</svg>
