<svg width="18" height="18" viewBox="0 0 18 18" fill="none" xmlns="http://www.w3.org/2000/svg">
<rect width="18" height="18" rx="4" fill="#009E9E"/>
<path d="M9 4C11.2091 4 13 5.79086 13 8V13H14V14H4V13H5V8C5 5.79086 6.79086 4 9 4ZM9 5C7.34315 5 6 6.34315 6 8V13H12V8C12 6.34315 10.6569 5 9 5ZM9.5 11.7998H8.5V10.7998H9.5V11.7998ZM9.5 9.7998H8.5V6.7998H9.5V9.7998Z" fill="white"/>
<path d="M9 4C11.2091 4 13 5.79086 13 8V13H14V14H4V13H5V8C5 5.79086 6.79086 4 9 4ZM9 5C7.34315 5 6 6.34315 6 8V13H12V8C12 6.34315 10.6569 5 9 5ZM9.5 11.7998H8.5V10.7998H9.5V11.7998ZM9.5 9.7998H8.5V6.7998H9.5V9.7998Z" fill="white"/>
</svg>
