<svg width="232" height="166" viewBox="0 0 232 166" fill="none" xmlns="http://www.w3.org/2000/svg">
<rect width="232" height="166" rx="8" fill="white"/>
<rect x="12" y="12" width="99" height="66" rx="4" fill="white"/>
<path d="M25.08 25.9V26.52C25.08 26.76 25.21 26.88 25.47 26.88H28C28.22 26.88 28.38 26.83 28.48 26.73C28.6 26.6 28.69 26.22 28.73 25.58L29.39 25.79C29.32 26.63 29.18 27.13 28.98 27.31C28.8 27.47 28.51 27.55 28.13 27.55H25.26C24.68 27.55 24.39 27.25 24.39 26.67V23.89H25.08V25.26C26.29 25.02 27.47 24.66 28.63 24.18L29.03 24.75C27.65 25.27 26.33 25.65 25.08 25.9ZM21.81 32.91H20.75L20.6 32.22C20.94 32.25 21.26 32.27 21.56 32.27C21.82 32.27 21.95 32.12 21.95 31.84V29.45C21.51 29.6 21.06 29.74 20.61 29.86L20.44 29.14C20.95 29.03 21.45 28.89 21.95 28.73V26.44H20.6V25.75H21.95V23.87H22.64V25.75H23.75V26.44H22.64V28.49C23.06 28.32 23.46 28.14 23.86 27.95V28.68C23.46 28.86 23.05 29.04 22.64 29.2V32.02C22.64 32.61 22.36 32.91 21.81 32.91ZM29.03 28.32V33H28.31V32.49H25.18V33H24.47V28.32H29.03ZM25.18 31.85H28.31V30.71H25.18V31.85ZM25.18 30.07H28.31V28.95H25.18V30.07ZM31.91 23.86H32.62V25.75H33.78V26.44H32.62V27.21C33.11 27.71 33.6 28.27 34.09 28.88L33.68 29.49C33.27 28.86 32.92 28.36 32.62 27.98V32.99H31.91V28.01C31.59 28.95 31.18 29.81 30.68 30.59L30.37 29.81C31.09 28.83 31.6 27.7 31.91 26.44H30.69V25.75H31.91V23.86ZM34.86 28.38L35.52 28.53C35.2 29.93 34.73 31.13 34.13 32.15L33.51 31.75C34.13 30.74 34.58 29.62 34.86 28.38ZM38.48 28.33C38.9 29.46 39.26 30.67 39.56 31.95L38.91 32.24C38.58 30.85 38.22 29.62 37.83 28.54L38.48 28.33ZM36.24 32.89H35.22L35.08 32.22C35.4 32.24 35.7 32.26 35.99 32.26C36.26 32.26 36.4 32.11 36.4 31.82V27.55H33.96V26.86H39.57V27.55H37.12V32C37.12 32.59 36.82 32.89 36.24 32.89ZM34.49 24.43H39.05V25.11H34.49V24.43ZM41.91 23.86H42.62V25.75H43.78V26.44H42.62V27.21C43.11 27.71 43.6 28.27 44.09 28.88L43.68 29.49C43.27 28.86 42.92 28.36 42.62 27.98V32.99H41.91V28.01C41.59 28.95 41.18 29.81 40.68 30.59L40.37 29.81C41.09 28.83 41.6 27.7 41.91 26.44H40.69V25.75H41.91V23.86ZM44.86 28.38L45.52 28.53C45.2 29.93 44.73 31.13 44.13 32.15L43.51 31.75C44.13 30.74 44.58 29.62 44.86 28.38ZM48.48 28.33C48.9 29.46 49.26 30.67 49.56 31.95L48.91 32.24C48.58 30.85 48.22 29.62 47.83 28.54L48.48 28.33ZM46.24 32.89H45.22L45.08 32.22C45.4 32.24 45.7 32.26 45.99 32.26C46.26 32.26 46.4 32.11 46.4 31.82V27.55H43.96V26.86H49.57V27.55H47.12V32C47.12 32.59 46.82 32.89 46.24 32.89ZM44.49 24.43H49.05V25.11H44.49V24.43ZM57.35 32.16C58.35 32.16 59.1 32.14 59.6 32.12L59.48 32.84H57.51C55.11 32.84 53.62 32.71 53.02 32.45C52.49 32.23 52.02 31.82 51.61 31.24C51.43 31.88 51.18 32.47 50.86 33.01L50.34 32.55C50.88 31.64 51.17 30.62 51.22 29.48L51.86 29.56C51.84 29.9 51.81 30.21 51.76 30.51C52.02 30.92 52.31 31.24 52.62 31.47V29.04H50.64V28.38H54.88V29.04H53.26V30.1H54.63V30.74H53.26V31.83C53.32 31.85 53.37 31.87 53.41 31.89C53.99 32.07 55.3 32.16 57.35 32.16ZM51.09 24.22H54.5V27.71H51.09V24.22ZM53.8 27.11V26.26H51.79V27.11H53.8ZM51.79 25.7H53.8V24.82H51.79V25.7ZM55.02 24.23H59.34V24.89H57.54C57.51 25.17 57.47 25.43 57.41 25.69H59.06V29.73H58.39V26.31H55.97V29.73H55.33V25.69H56.76C56.82 25.43 56.86 25.16 56.89 24.89H55.02V24.23ZM57.9 29.76C58.52 30.24 59.04 30.72 59.46 31.2L58.95 31.7C58.58 31.24 58.07 30.74 57.42 30.22L57.9 29.76ZM56.85 26.78H57.51V28.19C57.49 29.14 57.3 29.9 56.96 30.47C56.62 31 56.06 31.41 55.3 31.71L54.91 31.09C55.63 30.83 56.13 30.47 56.42 30.02C56.68 29.55 56.83 28.94 56.85 28.19V26.78Z" fill="#1D2129"/>
<rect x="79" y="16" width="24" height="24" rx="12" fill="#24B28F" fill-opacity="0.1"/>
<path d="M85.75 22.75H90.4167V27.4167H85.75V22.75ZM85.75 28.5833H90.4167V33.25H85.75V28.5833ZM91.5833 22.75H96.25V27.4167H91.5833V22.75ZM91.5833 28.5833H96.25V33.25H91.5833V28.5833Z" fill="url(#paint0_linear_12239_21983)"/>
<path d="M23.248 43.004H24.48V53H22.842V44.978C22.24 45.524 21.484 45.93 20.56 46.196V44.572C21.008 44.46 21.484 44.264 21.988 43.984C22.492 43.676 22.912 43.354 23.248 43.004ZM27.6742 50.886C28.0522 50.886 28.3742 51.04 28.6262 51.348C28.8642 51.656 28.9902 52.062 28.9902 52.552C28.9902 53.294 28.7662 53.938 28.3462 54.498C27.9122 55.044 27.3242 55.422 26.5962 55.632V54.708C26.9742 54.568 27.2962 54.344 27.5622 54.036C27.8142 53.7 27.9262 53.378 27.9262 53.042C27.8422 53.07 27.7302 53.098 27.5762 53.098C27.2682 53.098 27.0162 52.986 26.8062 52.776C26.5962 52.566 26.4982 52.3 26.4982 51.992C26.4982 51.656 26.6102 51.39 26.8342 51.194C27.0442 50.984 27.3242 50.886 27.6742 50.886ZM33.9517 42.808C34.9177 42.808 35.7157 43.088 36.3457 43.648C36.9617 44.208 37.2697 44.922 37.2697 45.818C37.2697 46.686 36.9337 47.47 36.2897 48.184C35.8977 48.604 35.1977 49.136 34.2177 49.794C33.1957 50.466 32.5797 51.054 32.3557 51.558H37.2837V53H30.3117C30.3117 51.978 30.6337 51.096 31.3057 50.34C31.6697 49.92 32.4397 49.304 33.6017 48.506C34.2457 48.058 34.6937 47.68 34.9737 47.386C35.4077 46.896 35.6317 46.364 35.6317 45.804C35.6317 45.258 35.4777 44.852 35.1977 44.586C34.9037 44.32 34.4697 44.194 33.8957 44.194C33.2797 44.194 32.8177 44.404 32.5097 44.824C32.2017 45.216 32.0337 45.818 32.0057 46.602H30.3677C30.3817 45.482 30.7037 44.586 31.3477 43.9C32.0057 43.172 32.8737 42.808 33.9517 42.808ZM39.2802 43.004H45.3702V44.446H40.5962L40.3162 47.19H40.3582C40.6662 46.882 41.0162 46.658 41.4222 46.518C41.7862 46.378 42.1922 46.308 42.6402 46.308C43.5782 46.308 44.3482 46.616 44.9362 47.232C45.5242 47.848 45.8322 48.702 45.8322 49.78C45.8322 50.816 45.4402 51.656 44.6562 52.314C43.9282 52.902 43.0742 53.196 42.0802 53.196C41.1702 53.196 40.3862 52.944 39.7422 52.454C39.0142 51.908 38.6222 51.166 38.5522 50.242H40.1622C40.2322 50.788 40.4422 51.194 40.8062 51.46C41.1142 51.684 41.5482 51.81 42.0942 51.81C42.6822 51.81 43.1862 51.628 43.5922 51.264C43.9842 50.9 44.1942 50.41 44.1942 49.794C44.1942 49.122 44.0122 48.59 43.6762 48.212C43.3402 47.82 42.8362 47.638 42.1922 47.638C41.7582 47.638 41.3802 47.708 41.0722 47.862C40.7222 48.03 40.4562 48.282 40.2602 48.632H38.7342L39.2802 43.004ZM50.7267 42.808C52.6867 42.808 53.7927 43.718 54.0447 45.538H52.4487C52.2527 44.614 51.6647 44.152 50.7127 44.152C50.0407 44.152 49.5087 44.474 49.1167 45.132C48.7247 45.748 48.5427 46.518 48.5427 47.442V47.568H48.6127C48.8927 47.148 49.2427 46.854 49.6627 46.658C50.0547 46.462 50.5027 46.378 51.0067 46.378C51.9867 46.378 52.7707 46.686 53.3587 47.316C53.9467 47.946 54.2407 48.758 54.2407 49.738C54.2407 50.746 53.8907 51.572 53.2187 52.216C52.5467 52.86 51.7067 53.196 50.7127 53.196C49.4807 53.196 48.5427 52.748 47.8987 51.866C47.2547 50.998 46.9467 49.808 46.9467 48.282C46.9467 46.644 47.2827 45.328 47.9687 44.32C48.6407 43.312 49.5647 42.808 50.7267 42.808ZM50.6567 47.708C50.0407 47.708 49.5647 47.89 49.2287 48.268C48.8787 48.632 48.7107 49.15 48.7107 49.794C48.7107 50.424 48.8927 50.928 49.2567 51.292C49.6207 51.656 50.0827 51.838 50.6567 51.838C51.2447 51.838 51.7067 51.642 52.0707 51.25C52.4347 50.858 52.6167 50.354 52.6167 49.738C52.6167 49.122 52.4347 48.632 52.0987 48.268C51.7347 47.89 51.2587 47.708 50.6567 47.708Z" fill="#1D2129"/>
<path d="M26.512 68.768H25.448L25.288 68.192L26.328 68.216C26.528 68.216 26.632 68.096 26.632 67.856V62.336H21.368V68.792H20.792V61.776H27.208V67.984C27.208 68.504 26.976 68.768 26.512 68.768ZM21.952 63.256H26.056V63.792H21.952V63.256ZM22.4 64.656H25.608V67.232H22.4V64.656ZM25.048 66.72V65.176H22.96V66.72H25.048ZM32.808 64.64V67.672C32.808 67.904 32.92 68.024 33.16 68.024H34.36C34.512 68.024 34.64 67.976 34.736 67.88C34.864 67.744 34.952 67.272 34.984 66.456L35.536 66.632C35.464 67.56 35.344 68.128 35.176 68.32C35.016 68.48 34.792 68.568 34.504 68.576H32.992C32.48 68.576 32.224 68.304 32.224 67.776V61.56H32.808V64.096C33.592 63.872 34.352 63.56 35.096 63.152L35.44 63.624C34.52 64.08 33.64 64.416 32.808 64.64ZM28.976 68.68L28.8 68.144C28.928 68.064 28.992 67.952 28.992 67.8V61.6H29.568V63.832H31.624V64.392H29.568V67.976C30.272 67.816 30.968 67.616 31.664 67.384L31.816 67.928C30.936 68.208 29.984 68.456 28.976 68.68Z" fill="#86909C"/>
<path d="M42.456 62.176C43 62.176 43.448 62.312 43.784 62.592C44.112 62.872 44.28 63.248 44.28 63.728C44.28 64.368 43.968 64.8 43.344 65.008C43.68 65.112 43.936 65.272 44.112 65.496C44.304 65.72 44.4 66 44.4 66.336C44.4 66.856 44.216 67.28 43.856 67.608C43.488 67.944 43.008 68.112 42.416 68.112C41.872 68.112 41.432 67.968 41.088 67.696C40.68 67.36 40.456 66.872 40.408 66.232H41.072C41.088 66.68 41.24 67.024 41.52 67.256C41.76 67.448 42.056 67.552 42.416 67.552C42.824 67.552 43.152 67.432 43.4 67.2C43.624 66.976 43.744 66.696 43.744 66.36C43.744 66.016 43.632 65.752 43.408 65.56C43.184 65.368 42.88 65.28 42.48 65.28H42.016V64.768H42.456C42.84 64.768 43.128 64.68 43.328 64.512C43.528 64.336 43.632 64.088 43.632 63.768C43.632 63.448 43.528 63.2 43.336 63.024C43.128 62.832 42.832 62.744 42.464 62.744C42.08 62.744 41.784 62.84 41.568 63.048C41.344 63.256 41.216 63.552 41.176 63.936H40.528C40.576 63.384 40.784 62.952 41.136 62.64C41.472 62.328 41.912 62.176 42.456 62.176ZM50.7089 64.872C51.1329 64.872 51.4609 65.024 51.6929 65.344C51.8929 65.616 51.9969 65.984 51.9969 66.44C51.9969 66.888 51.8929 67.256 51.6929 67.536C51.4609 67.84 51.1329 68 50.7089 68C50.2769 68 49.9489 67.84 49.7249 67.536C49.5169 67.248 49.4209 66.888 49.4209 66.44C49.4209 65.984 49.5169 65.616 49.7249 65.344C49.9489 65.024 50.2769 64.872 50.7089 64.872ZM50.0209 62.176H50.5329L47.3329 68.112H46.8129L50.0209 62.176ZM46.6449 62.288C47.0689 62.288 47.3969 62.44 47.6289 62.76C47.8289 63.032 47.9329 63.4 47.9329 63.856C47.9329 64.304 47.8289 64.672 47.6289 64.952C47.3969 65.256 47.0689 65.416 46.6449 65.416C46.2129 65.416 45.8849 65.256 45.6609 64.952C45.4529 64.664 45.3569 64.304 45.3569 63.856C45.3569 63.4 45.4529 63.032 45.6609 62.76C45.8849 62.44 46.2129 62.288 46.6449 62.288ZM50.7089 65.304C50.4609 65.304 50.2849 65.416 50.1729 65.64C50.0689 65.832 50.0209 66.096 50.0209 66.44C50.0209 66.768 50.0689 67.032 50.1729 67.224C50.2849 67.448 50.4609 67.568 50.7089 67.568C50.9489 67.568 51.1249 67.448 51.2449 67.216C51.3409 67.024 51.3969 66.768 51.3969 66.44C51.3969 66.104 51.3409 65.84 51.2449 65.648C51.1249 65.416 50.9489 65.304 50.7089 65.304ZM46.6449 62.72C46.3969 62.72 46.2209 62.832 46.1089 63.056C46.0049 63.248 45.9569 63.512 45.9569 63.856C45.9569 64.184 46.0049 64.448 46.1089 64.64C46.2209 64.864 46.3969 64.984 46.6449 64.984C46.8849 64.984 47.0609 64.864 47.1809 64.632C47.2769 64.44 47.3329 64.184 47.3329 63.856C47.3329 63.52 47.2769 63.256 47.1729 63.064C47.0609 62.832 46.8849 62.72 46.6449 62.72Z" fill="#F53F3F"/>
<path d="M60.7499 65.0003V65.8337C60.7499 67.2745 59.9373 68.5255 58.7455 69.1535C58.8569 69.1624 58.9695 69.167 59.0833 69.167C61.3844 69.167 63.2499 67.3015 63.2499 65.0003H65.3333L61.9999 60.8337L58.6666 65.0003H60.7499Z" fill="#F53F3F"/>
<rect x="121" y="12" width="99" height="66" rx="4" fill="white"/>
<path d="M134.08 25.9V26.52C134.08 26.76 134.21 26.88 134.47 26.88H137C137.22 26.88 137.38 26.83 137.48 26.73C137.6 26.6 137.69 26.22 137.73 25.58L138.39 25.79C138.32 26.63 138.18 27.13 137.98 27.31C137.8 27.47 137.51 27.55 137.13 27.55H134.26C133.68 27.55 133.39 27.25 133.39 26.67V23.89H134.08V25.26C135.29 25.02 136.47 24.66 137.63 24.18L138.03 24.75C136.65 25.27 135.33 25.65 134.08 25.9ZM130.81 32.91H129.75L129.6 32.22C129.94 32.25 130.26 32.27 130.56 32.27C130.82 32.27 130.95 32.12 130.95 31.84V29.45C130.51 29.6 130.06 29.74 129.61 29.86L129.44 29.14C129.95 29.03 130.45 28.89 130.95 28.73V26.44H129.6V25.75H130.95V23.87H131.64V25.75H132.75V26.44H131.64V28.49C132.06 28.32 132.46 28.14 132.86 27.95V28.68C132.46 28.86 132.05 29.04 131.64 29.2V32.02C131.64 32.61 131.36 32.91 130.81 32.91ZM138.03 28.32V33H137.31V32.49H134.18V33H133.47V28.32H138.03ZM134.18 31.85H137.31V30.71H134.18V31.85ZM134.18 30.07H137.31V28.95H134.18V30.07ZM140.91 23.86H141.62V25.75H142.78V26.44H141.62V27.21C142.11 27.71 142.6 28.27 143.09 28.88L142.68 29.49C142.27 28.86 141.92 28.36 141.62 27.98V32.99H140.91V28.01C140.59 28.95 140.18 29.81 139.68 30.59L139.37 29.81C140.09 28.83 140.6 27.7 140.91 26.44H139.69V25.75H140.91V23.86ZM143.86 28.38L144.52 28.53C144.2 29.93 143.73 31.13 143.13 32.15L142.51 31.75C143.13 30.74 143.58 29.62 143.86 28.38ZM147.48 28.33C147.9 29.46 148.26 30.67 148.56 31.95L147.91 32.24C147.58 30.85 147.22 29.62 146.83 28.54L147.48 28.33ZM145.24 32.89H144.22L144.08 32.22C144.4 32.24 144.7 32.26 144.99 32.26C145.26 32.26 145.4 32.11 145.4 31.82V27.55H142.96V26.86H148.57V27.55H146.12V32C146.12 32.59 145.82 32.89 145.24 32.89ZM143.49 24.43H148.05V25.11H143.49V24.43ZM150.91 23.86H151.62V25.75H152.78V26.44H151.62V27.21C152.11 27.71 152.6 28.27 153.09 28.88L152.68 29.49C152.27 28.86 151.92 28.36 151.62 27.98V32.99H150.91V28.01C150.59 28.95 150.18 29.81 149.68 30.59L149.37 29.81C150.09 28.83 150.6 27.7 150.91 26.44H149.69V25.75H150.91V23.86ZM153.86 28.38L154.52 28.53C154.2 29.93 153.73 31.13 153.13 32.15L152.51 31.75C153.13 30.74 153.58 29.62 153.86 28.38ZM157.48 28.33C157.9 29.46 158.26 30.67 158.56 31.95L157.91 32.24C157.58 30.85 157.22 29.62 156.83 28.54L157.48 28.33ZM155.24 32.89H154.22L154.08 32.22C154.4 32.24 154.7 32.26 154.99 32.26C155.26 32.26 155.4 32.11 155.4 31.82V27.55H152.96V26.86H158.57V27.55H156.12V32C156.12 32.59 155.82 32.89 155.24 32.89ZM153.49 24.43H158.05V25.11H153.49V24.43ZM166.35 32.16C167.35 32.16 168.1 32.14 168.6 32.12L168.48 32.84H166.51C164.11 32.84 162.62 32.71 162.02 32.45C161.49 32.23 161.02 31.82 160.61 31.24C160.43 31.88 160.18 32.47 159.86 33.01L159.34 32.55C159.88 31.64 160.17 30.62 160.22 29.48L160.86 29.56C160.84 29.9 160.81 30.21 160.76 30.51C161.02 30.92 161.31 31.24 161.62 31.47V29.04H159.64V28.38H163.88V29.04H162.26V30.1H163.63V30.74H162.26V31.83C162.32 31.85 162.37 31.87 162.41 31.89C162.99 32.07 164.3 32.16 166.35 32.16ZM160.09 24.22H163.5V27.71H160.09V24.22ZM162.8 27.11V26.26H160.79V27.11H162.8ZM160.79 25.7H162.8V24.82H160.79V25.7ZM164.02 24.23H168.34V24.89H166.54C166.51 25.17 166.47 25.43 166.41 25.69H168.06V29.73H167.39V26.31H164.97V29.73H164.33V25.69H165.76C165.82 25.43 165.86 25.16 165.89 24.89H164.02V24.23ZM166.9 29.76C167.52 30.24 168.04 30.72 168.46 31.2L167.95 31.7C167.58 31.24 167.07 30.74 166.42 30.22L166.9 29.76ZM165.85 26.78H166.51V28.19C166.49 29.14 166.3 29.9 165.96 30.47C165.62 31 165.06 31.41 164.3 31.71L163.91 31.09C164.63 30.83 165.13 30.47 165.42 30.02C165.68 29.55 165.83 28.94 165.85 28.19V26.78Z" fill="#1D2129"/>
<rect x="188" y="16" width="24" height="24" rx="12" fill="#FF7D00" fill-opacity="0.1"/>
<path d="M194.75 22.75H205.25C205.572 22.75 205.833 23.0112 205.833 23.3333V32.6667C205.833 32.9888 205.572 33.25 205.25 33.25H194.75C194.428 33.25 194.167 32.9888 194.167 32.6667V23.3333C194.167 23.0112 194.428 22.75 194.75 22.75ZM200.035 27.815L196.294 24.6387L195.539 25.528L200.043 29.3516L204.465 25.5244L203.702 24.6422L200.035 27.815Z" fill="url(#paint1_linear_12239_21983)"/>
<path d="M132.248 43.004H133.48V53H131.842V44.978C131.24 45.524 130.484 45.93 129.56 46.196V44.572C130.008 44.46 130.484 44.264 130.988 43.984C131.492 43.676 131.912 43.354 132.248 43.004ZM136.674 50.886C137.052 50.886 137.374 51.04 137.626 51.348C137.864 51.656 137.99 52.062 137.99 52.552C137.99 53.294 137.766 53.938 137.346 54.498C136.912 55.044 136.324 55.422 135.596 55.632V54.708C135.974 54.568 136.296 54.344 136.562 54.036C136.814 53.7 136.926 53.378 136.926 53.042C136.842 53.07 136.73 53.098 136.576 53.098C136.268 53.098 136.016 52.986 135.806 52.776C135.596 52.566 135.498 52.3 135.498 51.992C135.498 51.656 135.61 51.39 135.834 51.194C136.044 50.984 136.324 50.886 136.674 50.886ZM142.952 42.808C143.918 42.808 144.716 43.088 145.346 43.648C145.962 44.208 146.27 44.922 146.27 45.818C146.27 46.686 145.934 47.47 145.29 48.184C144.898 48.604 144.198 49.136 143.218 49.794C142.196 50.466 141.58 51.054 141.356 51.558H146.284V53H139.312C139.312 51.978 139.634 51.096 140.306 50.34C140.67 49.92 141.44 49.304 142.602 48.506C143.246 48.058 143.694 47.68 143.974 47.386C144.408 46.896 144.632 46.364 144.632 45.804C144.632 45.258 144.478 44.852 144.198 44.586C143.904 44.32 143.47 44.194 142.896 44.194C142.28 44.194 141.818 44.404 141.51 44.824C141.202 45.216 141.034 45.818 141.006 46.602H139.368C139.382 45.482 139.704 44.586 140.348 43.9C141.006 43.172 141.874 42.808 142.952 42.808ZM148.28 43.004H154.37V44.446H149.596L149.316 47.19H149.358C149.666 46.882 150.016 46.658 150.422 46.518C150.786 46.378 151.192 46.308 151.64 46.308C152.578 46.308 153.348 46.616 153.936 47.232C154.524 47.848 154.832 48.702 154.832 49.78C154.832 50.816 154.44 51.656 153.656 52.314C152.928 52.902 152.074 53.196 151.08 53.196C150.17 53.196 149.386 52.944 148.742 52.454C148.014 51.908 147.622 51.166 147.552 50.242H149.162C149.232 50.788 149.442 51.194 149.806 51.46C150.114 51.684 150.548 51.81 151.094 51.81C151.682 51.81 152.186 51.628 152.592 51.264C152.984 50.9 153.194 50.41 153.194 49.794C153.194 49.122 153.012 48.59 152.676 48.212C152.34 47.82 151.836 47.638 151.192 47.638C150.758 47.638 150.38 47.708 150.072 47.862C149.722 48.03 149.456 48.282 149.26 48.632H147.734L148.28 43.004ZM159.727 42.808C161.687 42.808 162.793 43.718 163.045 45.538H161.449C161.253 44.614 160.665 44.152 159.713 44.152C159.041 44.152 158.509 44.474 158.117 45.132C157.725 45.748 157.543 46.518 157.543 47.442V47.568H157.613C157.893 47.148 158.243 46.854 158.663 46.658C159.055 46.462 159.503 46.378 160.007 46.378C160.987 46.378 161.771 46.686 162.359 47.316C162.947 47.946 163.241 48.758 163.241 49.738C163.241 50.746 162.891 51.572 162.219 52.216C161.547 52.86 160.707 53.196 159.713 53.196C158.481 53.196 157.543 52.748 156.899 51.866C156.255 50.998 155.947 49.808 155.947 48.282C155.947 46.644 156.283 45.328 156.969 44.32C157.641 43.312 158.565 42.808 159.727 42.808ZM159.657 47.708C159.041 47.708 158.565 47.89 158.229 48.268C157.879 48.632 157.711 49.15 157.711 49.794C157.711 50.424 157.893 50.928 158.257 51.292C158.621 51.656 159.083 51.838 159.657 51.838C160.245 51.838 160.707 51.642 161.071 51.25C161.435 50.858 161.617 50.354 161.617 49.738C161.617 49.122 161.435 48.632 161.099 48.268C160.735 47.89 160.259 47.708 159.657 47.708Z" fill="#1D2129"/>
<path d="M135.512 68.768H134.448L134.288 68.192L135.328 68.216C135.528 68.216 135.632 68.096 135.632 67.856V62.336H130.368V68.792H129.792V61.776H136.208V67.984C136.208 68.504 135.976 68.768 135.512 68.768ZM130.952 63.256H135.056V63.792H130.952V63.256ZM131.4 64.656H134.608V67.232H131.4V64.656ZM134.048 66.72V65.176H131.96V66.72H134.048ZM141.808 64.64V67.672C141.808 67.904 141.92 68.024 142.16 68.024H143.36C143.512 68.024 143.64 67.976 143.736 67.88C143.864 67.744 143.952 67.272 143.984 66.456L144.536 66.632C144.464 67.56 144.344 68.128 144.176 68.32C144.016 68.48 143.792 68.568 143.504 68.576H141.992C141.48 68.576 141.224 68.304 141.224 67.776V61.56H141.808V64.096C142.592 63.872 143.352 63.56 144.096 63.152L144.44 63.624C143.52 64.08 142.64 64.416 141.808 64.64ZM137.976 68.68L137.8 68.144C137.928 68.064 137.992 67.952 137.992 67.8V61.6H138.568V63.832H140.624V64.392H138.568V67.976C139.272 67.816 139.968 67.616 140.664 67.384L140.816 67.928C139.936 68.208 138.984 68.456 137.976 68.68Z" fill="#86909C"/>
<path d="M151.456 62.176C152 62.176 152.448 62.312 152.784 62.592C153.112 62.872 153.28 63.248 153.28 63.728C153.28 64.368 152.968 64.8 152.344 65.008C152.68 65.112 152.936 65.272 153.112 65.496C153.304 65.72 153.4 66 153.4 66.336C153.4 66.856 153.216 67.28 152.856 67.608C152.488 67.944 152.008 68.112 151.416 68.112C150.872 68.112 150.432 67.968 150.088 67.696C149.68 67.36 149.456 66.872 149.408 66.232H150.072C150.088 66.68 150.24 67.024 150.52 67.256C150.76 67.448 151.056 67.552 151.416 67.552C151.824 67.552 152.152 67.432 152.4 67.2C152.624 66.976 152.744 66.696 152.744 66.36C152.744 66.016 152.632 65.752 152.408 65.56C152.184 65.368 151.88 65.28 151.48 65.28H151.016V64.768H151.456C151.84 64.768 152.128 64.68 152.328 64.512C152.528 64.336 152.632 64.088 152.632 63.768C152.632 63.448 152.528 63.2 152.336 63.024C152.128 62.832 151.832 62.744 151.464 62.744C151.08 62.744 150.784 62.84 150.568 63.048C150.344 63.256 150.216 63.552 150.176 63.936H149.528C149.576 63.384 149.784 62.952 150.136 62.64C150.472 62.328 150.912 62.176 151.456 62.176ZM159.709 64.872C160.133 64.872 160.461 65.024 160.693 65.344C160.893 65.616 160.997 65.984 160.997 66.44C160.997 66.888 160.893 67.256 160.693 67.536C160.461 67.84 160.133 68 159.709 68C159.277 68 158.949 67.84 158.725 67.536C158.517 67.248 158.421 66.888 158.421 66.44C158.421 65.984 158.517 65.616 158.725 65.344C158.949 65.024 159.277 64.872 159.709 64.872ZM159.021 62.176H159.533L156.333 68.112H155.813L159.021 62.176ZM155.645 62.288C156.069 62.288 156.397 62.44 156.629 62.76C156.829 63.032 156.933 63.4 156.933 63.856C156.933 64.304 156.829 64.672 156.629 64.952C156.397 65.256 156.069 65.416 155.645 65.416C155.213 65.416 154.885 65.256 154.661 64.952C154.453 64.664 154.357 64.304 154.357 63.856C154.357 63.4 154.453 63.032 154.661 62.76C154.885 62.44 155.213 62.288 155.645 62.288ZM159.709 65.304C159.461 65.304 159.285 65.416 159.173 65.64C159.069 65.832 159.021 66.096 159.021 66.44C159.021 66.768 159.069 67.032 159.173 67.224C159.285 67.448 159.461 67.568 159.709 67.568C159.949 67.568 160.125 67.448 160.245 67.216C160.341 67.024 160.397 66.768 160.397 66.44C160.397 66.104 160.341 65.84 160.245 65.648C160.125 65.416 159.949 65.304 159.709 65.304ZM155.645 62.72C155.397 62.72 155.221 62.832 155.109 63.056C155.005 63.248 154.957 63.512 154.957 63.856C154.957 64.184 155.005 64.448 155.109 64.64C155.221 64.864 155.397 64.984 155.645 64.984C155.885 64.984 156.061 64.864 156.181 64.632C156.277 64.44 156.333 64.184 156.333 63.856C156.333 63.52 156.277 63.256 156.173 63.064C156.061 62.832 155.885 62.72 155.645 62.72Z" fill="#F53F3F"/>
<path d="M169.75 65.0003V65.8337C169.75 67.2745 168.937 68.5255 167.745 69.1535C167.857 69.1624 167.97 69.167 168.083 69.167C170.384 69.167 172.25 67.3015 172.25 65.0003H174.333L171 60.8337L167.667 65.0003H169.75Z" fill="#F53F3F"/>
<rect x="12" y="88" width="99" height="66" rx="4" fill="white"/>
<path d="M25.08 101.9V102.52C25.08 102.76 25.21 102.88 25.47 102.88H28C28.22 102.88 28.38 102.83 28.48 102.73C28.6 102.6 28.69 102.22 28.73 101.58L29.39 101.79C29.32 102.63 29.18 103.13 28.98 103.31C28.8 103.47 28.51 103.55 28.13 103.55H25.26C24.68 103.55 24.39 103.25 24.39 102.67V99.89H25.08V101.26C26.29 101.02 27.47 100.66 28.63 100.18L29.03 100.75C27.65 101.27 26.33 101.65 25.08 101.9ZM21.81 108.91H20.75L20.6 108.22C20.94 108.25 21.26 108.27 21.56 108.27C21.82 108.27 21.95 108.12 21.95 107.84V105.45C21.51 105.6 21.06 105.74 20.61 105.86L20.44 105.14C20.95 105.03 21.45 104.89 21.95 104.73V102.44H20.6V101.75H21.95V99.87H22.64V101.75H23.75V102.44H22.64V104.49C23.06 104.32 23.46 104.14 23.86 103.95V104.68C23.46 104.86 23.05 105.04 22.64 105.2V108.02C22.64 108.61 22.36 108.91 21.81 108.91ZM29.03 104.32V109H28.31V108.49H25.18V109H24.47V104.32H29.03ZM25.18 107.85H28.31V106.71H25.18V107.85ZM25.18 106.07H28.31V104.95H25.18V106.07ZM31.91 99.86H32.62V101.75H33.78V102.44H32.62V103.21C33.11 103.71 33.6 104.27 34.09 104.88L33.68 105.49C33.27 104.86 32.92 104.36 32.62 103.98V108.99H31.91V104.01C31.59 104.95 31.18 105.81 30.68 106.59L30.37 105.81C31.09 104.83 31.6 103.7 31.91 102.44H30.69V101.75H31.91V99.86ZM34.86 104.38L35.52 104.53C35.2 105.93 34.73 107.13 34.13 108.15L33.51 107.75C34.13 106.74 34.58 105.62 34.86 104.38ZM38.48 104.33C38.9 105.46 39.26 106.67 39.56 107.95L38.91 108.24C38.58 106.85 38.22 105.62 37.83 104.54L38.48 104.33ZM36.24 108.89H35.22L35.08 108.22C35.4 108.24 35.7 108.26 35.99 108.26C36.26 108.26 36.4 108.11 36.4 107.82V103.55H33.96V102.86H39.57V103.55H37.12V108C37.12 108.59 36.82 108.89 36.24 108.89ZM34.49 100.43H39.05V101.11H34.49V100.43ZM41.91 99.86H42.62V101.75H43.78V102.44H42.62V103.21C43.11 103.71 43.6 104.27 44.09 104.88L43.68 105.49C43.27 104.86 42.92 104.36 42.62 103.98V108.99H41.91V104.01C41.59 104.95 41.18 105.81 40.68 106.59L40.37 105.81C41.09 104.83 41.6 103.7 41.91 102.44H40.69V101.75H41.91V99.86ZM44.86 104.38L45.52 104.53C45.2 105.93 44.73 107.13 44.13 108.15L43.51 107.75C44.13 106.74 44.58 105.62 44.86 104.38ZM48.48 104.33C48.9 105.46 49.26 106.67 49.56 107.95L48.91 108.24C48.58 106.85 48.22 105.62 47.83 104.54L48.48 104.33ZM46.24 108.89H45.22L45.08 108.22C45.4 108.24 45.7 108.26 45.99 108.26C46.26 108.26 46.4 108.11 46.4 107.82V103.55H43.96V102.86H49.57V103.55H47.12V108C47.12 108.59 46.82 108.89 46.24 108.89ZM44.49 100.43H49.05V101.11H44.49V100.43ZM57.35 108.16C58.35 108.16 59.1 108.14 59.6 108.12L59.48 108.84H57.51C55.11 108.84 53.62 108.71 53.02 108.45C52.49 108.23 52.02 107.82 51.61 107.24C51.43 107.88 51.18 108.47 50.86 109.01L50.34 108.55C50.88 107.64 51.17 106.62 51.22 105.48L51.86 105.56C51.84 105.9 51.81 106.21 51.76 106.51C52.02 106.92 52.31 107.24 52.62 107.47V105.04H50.64V104.38H54.88V105.04H53.26V106.1H54.63V106.74H53.26V107.83C53.32 107.85 53.37 107.87 53.41 107.89C53.99 108.07 55.3 108.16 57.35 108.16ZM51.09 100.22H54.5V103.71H51.09V100.22ZM53.8 103.11V102.26H51.79V103.11H53.8ZM51.79 101.7H53.8V100.82H51.79V101.7ZM55.02 100.23H59.34V100.89H57.54C57.51 101.17 57.47 101.43 57.41 101.69H59.06V105.73H58.39V102.31H55.97V105.73H55.33V101.69H56.76C56.82 101.43 56.86 101.16 56.89 100.89H55.02V100.23ZM57.9 105.76C58.52 106.24 59.04 106.72 59.46 107.2L58.95 107.7C58.58 107.24 58.07 106.74 57.42 106.22L57.9 105.76ZM56.85 102.78H57.51V104.19C57.49 105.14 57.3 105.9 56.96 106.47C56.62 107 56.06 107.41 55.3 107.71L54.91 107.09C55.63 106.83 56.13 106.47 56.42 106.02C56.68 105.55 56.83 104.94 56.85 104.19V102.78Z" fill="#1D2129"/>
<path d="M79 104C79 97.3726 84.3726 92 91 92C97.6274 92 103 97.3726 103 104C103 110.627 97.6274 116 91 116C84.3726 116 79 110.627 79 104Z" fill="#1979FF" fill-opacity="0.1"/>
<path d="M85.1667 103.416H96.8334V108.666C96.8334 108.989 96.5723 109.25 96.2501 109.25H85.7501C85.4279 109.25 85.1667 108.989 85.1667 108.666V103.416ZM93.9167 98.7497H96.2501C96.5723 98.7497 96.8334 99.0108 96.8334 99.333V102.25H85.1667V99.333C85.1667 99.0108 85.4279 98.7497 85.7501 98.7497H88.0834V97.583H89.2501V98.7497H92.7501V97.583H93.9167V98.7497Z" fill="url(#paint2_linear_12239_21983)"/>
<path d="M23.248 119.004H24.48V129H22.842V120.978C22.24 121.524 21.484 121.93 20.56 122.196V120.572C21.008 120.46 21.484 120.264 21.988 119.984C22.492 119.676 22.912 119.354 23.248 119.004ZM27.6742 126.886C28.0522 126.886 28.3742 127.04 28.6262 127.348C28.8642 127.656 28.9902 128.062 28.9902 128.552C28.9902 129.294 28.7662 129.938 28.3462 130.498C27.9122 131.044 27.3242 131.422 26.5962 131.632V130.708C26.9742 130.568 27.2962 130.344 27.5622 130.036C27.8142 129.7 27.9262 129.378 27.9262 129.042C27.8422 129.07 27.7302 129.098 27.5762 129.098C27.2682 129.098 27.0162 128.986 26.8062 128.776C26.5962 128.566 26.4982 128.3 26.4982 127.992C26.4982 127.656 26.6102 127.39 26.8342 127.194C27.0442 126.984 27.3242 126.886 27.6742 126.886ZM33.9517 118.808C34.9177 118.808 35.7157 119.088 36.3457 119.648C36.9617 120.208 37.2697 120.922 37.2697 121.818C37.2697 122.686 36.9337 123.47 36.2897 124.184C35.8977 124.604 35.1977 125.136 34.2177 125.794C33.1957 126.466 32.5797 127.054 32.3557 127.558H37.2837V129H30.3117C30.3117 127.978 30.6337 127.096 31.3057 126.34C31.6697 125.92 32.4397 125.304 33.6017 124.506C34.2457 124.058 34.6937 123.68 34.9737 123.386C35.4077 122.896 35.6317 122.364 35.6317 121.804C35.6317 121.258 35.4777 120.852 35.1977 120.586C34.9037 120.32 34.4697 120.194 33.8957 120.194C33.2797 120.194 32.8177 120.404 32.5097 120.824C32.2017 121.216 32.0337 121.818 32.0057 122.602H30.3677C30.3817 121.482 30.7037 120.586 31.3477 119.9C32.0057 119.172 32.8737 118.808 33.9517 118.808ZM39.2802 119.004H45.3702V120.446H40.5962L40.3162 123.19H40.3582C40.6662 122.882 41.0162 122.658 41.4222 122.518C41.7862 122.378 42.1922 122.308 42.6402 122.308C43.5782 122.308 44.3482 122.616 44.9362 123.232C45.5242 123.848 45.8322 124.702 45.8322 125.78C45.8322 126.816 45.4402 127.656 44.6562 128.314C43.9282 128.902 43.0742 129.196 42.0802 129.196C41.1702 129.196 40.3862 128.944 39.7422 128.454C39.0142 127.908 38.6222 127.166 38.5522 126.242H40.1622C40.2322 126.788 40.4422 127.194 40.8062 127.46C41.1142 127.684 41.5482 127.81 42.0942 127.81C42.6822 127.81 43.1862 127.628 43.5922 127.264C43.9842 126.9 44.1942 126.41 44.1942 125.794C44.1942 125.122 44.0122 124.59 43.6762 124.212C43.3402 123.82 42.8362 123.638 42.1922 123.638C41.7582 123.638 41.3802 123.708 41.0722 123.862C40.7222 124.03 40.4562 124.282 40.2602 124.632H38.7342L39.2802 119.004ZM50.7267 118.808C52.6867 118.808 53.7927 119.718 54.0447 121.538H52.4487C52.2527 120.614 51.6647 120.152 50.7127 120.152C50.0407 120.152 49.5087 120.474 49.1167 121.132C48.7247 121.748 48.5427 122.518 48.5427 123.442V123.568H48.6127C48.8927 123.148 49.2427 122.854 49.6627 122.658C50.0547 122.462 50.5027 122.378 51.0067 122.378C51.9867 122.378 52.7707 122.686 53.3587 123.316C53.9467 123.946 54.2407 124.758 54.2407 125.738C54.2407 126.746 53.8907 127.572 53.2187 128.216C52.5467 128.86 51.7067 129.196 50.7127 129.196C49.4807 129.196 48.5427 128.748 47.8987 127.866C47.2547 126.998 46.9467 125.808 46.9467 124.282C46.9467 122.644 47.2827 121.328 47.9687 120.32C48.6407 119.312 49.5647 118.808 50.7267 118.808ZM50.6567 123.708C50.0407 123.708 49.5647 123.89 49.2287 124.268C48.8787 124.632 48.7107 125.15 48.7107 125.794C48.7107 126.424 48.8927 126.928 49.2567 127.292C49.6207 127.656 50.0827 127.838 50.6567 127.838C51.2447 127.838 51.7067 127.642 52.0707 127.25C52.4347 126.858 52.6167 126.354 52.6167 125.738C52.6167 125.122 52.4347 124.632 52.0987 124.268C51.7347 123.89 51.2587 123.708 50.6567 123.708Z" fill="#1D2129"/>
<path d="M26.512 144.768H25.448L25.288 144.192L26.328 144.216C26.528 144.216 26.632 144.096 26.632 143.856V138.336H21.368V144.792H20.792V137.776H27.208V143.984C27.208 144.504 26.976 144.768 26.512 144.768ZM21.952 139.256H26.056V139.792H21.952V139.256ZM22.4 140.656H25.608V143.232H22.4V140.656ZM25.048 142.72V141.176H22.96V142.72H25.048ZM32.808 140.64V143.672C32.808 143.904 32.92 144.024 33.16 144.024H34.36C34.512 144.024 34.64 143.976 34.736 143.88C34.864 143.744 34.952 143.272 34.984 142.456L35.536 142.632C35.464 143.56 35.344 144.128 35.176 144.32C35.016 144.48 34.792 144.568 34.504 144.576H32.992C32.48 144.576 32.224 144.304 32.224 143.776V137.56H32.808V140.096C33.592 139.872 34.352 139.56 35.096 139.152L35.44 139.624C34.52 140.08 33.64 140.416 32.808 140.64ZM28.976 144.68L28.8 144.144C28.928 144.064 28.992 143.952 28.992 143.8V137.6H29.568V139.832H31.624V140.392H29.568V143.976C30.272 143.816 30.968 143.616 31.664 143.384L31.816 143.928C30.936 144.208 29.984 144.456 28.976 144.68Z" fill="#86909C"/>
<path d="M42.456 138.176C43 138.176 43.448 138.312 43.784 138.592C44.112 138.872 44.28 139.248 44.28 139.728C44.28 140.368 43.968 140.8 43.344 141.008C43.68 141.112 43.936 141.272 44.112 141.496C44.304 141.72 44.4 142 44.4 142.336C44.4 142.856 44.216 143.28 43.856 143.608C43.488 143.944 43.008 144.112 42.416 144.112C41.872 144.112 41.432 143.968 41.088 143.696C40.68 143.36 40.456 142.872 40.408 142.232H41.072C41.088 142.68 41.24 143.024 41.52 143.256C41.76 143.448 42.056 143.552 42.416 143.552C42.824 143.552 43.152 143.432 43.4 143.2C43.624 142.976 43.744 142.696 43.744 142.36C43.744 142.016 43.632 141.752 43.408 141.56C43.184 141.368 42.88 141.28 42.48 141.28H42.016V140.768H42.456C42.84 140.768 43.128 140.68 43.328 140.512C43.528 140.336 43.632 140.088 43.632 139.768C43.632 139.448 43.528 139.2 43.336 139.024C43.128 138.832 42.832 138.744 42.464 138.744C42.08 138.744 41.784 138.84 41.568 139.048C41.344 139.256 41.216 139.552 41.176 139.936H40.528C40.576 139.384 40.784 138.952 41.136 138.64C41.472 138.328 41.912 138.176 42.456 138.176ZM50.7089 140.872C51.1329 140.872 51.4609 141.024 51.6929 141.344C51.8929 141.616 51.9969 141.984 51.9969 142.44C51.9969 142.888 51.8929 143.256 51.6929 143.536C51.4609 143.84 51.1329 144 50.7089 144C50.2769 144 49.9489 143.84 49.7249 143.536C49.5169 143.248 49.4209 142.888 49.4209 142.44C49.4209 141.984 49.5169 141.616 49.7249 141.344C49.9489 141.024 50.2769 140.872 50.7089 140.872ZM50.0209 138.176H50.5329L47.3329 144.112H46.8129L50.0209 138.176ZM46.6449 138.288C47.0689 138.288 47.3969 138.44 47.6289 138.76C47.8289 139.032 47.9329 139.4 47.9329 139.856C47.9329 140.304 47.8289 140.672 47.6289 140.952C47.3969 141.256 47.0689 141.416 46.6449 141.416C46.2129 141.416 45.8849 141.256 45.6609 140.952C45.4529 140.664 45.3569 140.304 45.3569 139.856C45.3569 139.4 45.4529 139.032 45.6609 138.76C45.8849 138.44 46.2129 138.288 46.6449 138.288ZM50.7089 141.304C50.4609 141.304 50.2849 141.416 50.1729 141.64C50.0689 141.832 50.0209 142.096 50.0209 142.44C50.0209 142.768 50.0689 143.032 50.1729 143.224C50.2849 143.448 50.4609 143.568 50.7089 143.568C50.9489 143.568 51.1249 143.448 51.2449 143.216C51.3409 143.024 51.3969 142.768 51.3969 142.44C51.3969 142.104 51.3409 141.84 51.2449 141.648C51.1249 141.416 50.9489 141.304 50.7089 141.304ZM46.6449 138.72C46.3969 138.72 46.2209 138.832 46.1089 139.056C46.0049 139.248 45.9569 139.512 45.9569 139.856C45.9569 140.184 46.0049 140.448 46.1089 140.64C46.2209 140.864 46.3969 140.984 46.6449 140.984C46.8849 140.984 47.0609 140.864 47.1809 140.632C47.2769 140.44 47.3329 140.184 47.3329 139.856C47.3329 139.52 47.2769 139.256 47.1729 139.064C47.0609 138.832 46.8849 138.72 46.6449 138.72Z" fill="#00B42A"/>
<path d="M60.7499 141V140.166C60.7499 138.726 59.9373 137.474 58.7455 136.847C58.8569 136.838 58.9695 136.833 59.0833 136.833C61.3844 136.833 63.2499 138.698 63.2499 141H65.3333L61.9999 145.166L58.6666 141H60.7499Z" fill="#00B42A"/>
<rect x="121" y="88" width="99" height="66" rx="4" fill="white"/>
<path d="M134.08 101.9V102.52C134.08 102.76 134.21 102.88 134.47 102.88H137C137.22 102.88 137.38 102.83 137.48 102.73C137.6 102.6 137.69 102.22 137.73 101.58L138.39 101.79C138.32 102.63 138.18 103.13 137.98 103.31C137.8 103.47 137.51 103.55 137.13 103.55H134.26C133.68 103.55 133.39 103.25 133.39 102.67V99.89H134.08V101.26C135.29 101.02 136.47 100.66 137.63 100.18L138.03 100.75C136.65 101.27 135.33 101.65 134.08 101.9ZM130.81 108.91H129.75L129.6 108.22C129.94 108.25 130.26 108.27 130.56 108.27C130.82 108.27 130.95 108.12 130.95 107.84V105.45C130.51 105.6 130.06 105.74 129.61 105.86L129.44 105.14C129.95 105.03 130.45 104.89 130.95 104.73V102.44H129.6V101.75H130.95V99.87H131.64V101.75H132.75V102.44H131.64V104.49C132.06 104.32 132.46 104.14 132.86 103.95V104.68C132.46 104.86 132.05 105.04 131.64 105.2V108.02C131.64 108.61 131.36 108.91 130.81 108.91ZM138.03 104.32V109H137.31V108.49H134.18V109H133.47V104.32H138.03ZM134.18 107.85H137.31V106.71H134.18V107.85ZM134.18 106.07H137.31V104.95H134.18V106.07ZM140.91 99.86H141.62V101.75H142.78V102.44H141.62V103.21C142.11 103.71 142.6 104.27 143.09 104.88L142.68 105.49C142.27 104.86 141.92 104.36 141.62 103.98V108.99H140.91V104.01C140.59 104.95 140.18 105.81 139.68 106.59L139.37 105.81C140.09 104.83 140.6 103.7 140.91 102.44H139.69V101.75H140.91V99.86ZM143.86 104.38L144.52 104.53C144.2 105.93 143.73 107.13 143.13 108.15L142.51 107.75C143.13 106.74 143.58 105.62 143.86 104.38ZM147.48 104.33C147.9 105.46 148.26 106.67 148.56 107.95L147.91 108.24C147.58 106.85 147.22 105.62 146.83 104.54L147.48 104.33ZM145.24 108.89H144.22L144.08 108.22C144.4 108.24 144.7 108.26 144.99 108.26C145.26 108.26 145.4 108.11 145.4 107.82V103.55H142.96V102.86H148.57V103.55H146.12V108C146.12 108.59 145.82 108.89 145.24 108.89ZM143.49 100.43H148.05V101.11H143.49V100.43ZM150.91 99.86H151.62V101.75H152.78V102.44H151.62V103.21C152.11 103.71 152.6 104.27 153.09 104.88L152.68 105.49C152.27 104.86 151.92 104.36 151.62 103.98V108.99H150.91V104.01C150.59 104.95 150.18 105.81 149.68 106.59L149.37 105.81C150.09 104.83 150.6 103.7 150.91 102.44H149.69V101.75H150.91V99.86ZM153.86 104.38L154.52 104.53C154.2 105.93 153.73 107.13 153.13 108.15L152.51 107.75C153.13 106.74 153.58 105.62 153.86 104.38ZM157.48 104.33C157.9 105.46 158.26 106.67 158.56 107.95L157.91 108.24C157.58 106.85 157.22 105.62 156.83 104.54L157.48 104.33ZM155.24 108.89H154.22L154.08 108.22C154.4 108.24 154.7 108.26 154.99 108.26C155.26 108.26 155.4 108.11 155.4 107.82V103.55H152.96V102.86H158.57V103.55H156.12V108C156.12 108.59 155.82 108.89 155.24 108.89ZM153.49 100.43H158.05V101.11H153.49V100.43ZM166.35 108.16C167.35 108.16 168.1 108.14 168.6 108.12L168.48 108.84H166.51C164.11 108.84 162.62 108.71 162.02 108.45C161.49 108.23 161.02 107.82 160.61 107.24C160.43 107.88 160.18 108.47 159.86 109.01L159.34 108.55C159.88 107.64 160.17 106.62 160.22 105.48L160.86 105.56C160.84 105.9 160.81 106.21 160.76 106.51C161.02 106.92 161.31 107.24 161.62 107.47V105.04H159.64V104.38H163.88V105.04H162.26V106.1H163.63V106.74H162.26V107.83C162.32 107.85 162.37 107.87 162.41 107.89C162.99 108.07 164.3 108.16 166.35 108.16ZM160.09 100.22H163.5V103.71H160.09V100.22ZM162.8 103.11V102.26H160.79V103.11H162.8ZM160.79 101.7H162.8V100.82H160.79V101.7ZM164.02 100.23H168.34V100.89H166.54C166.51 101.17 166.47 101.43 166.41 101.69H168.06V105.73H167.39V102.31H164.97V105.73H164.33V101.69H165.76C165.82 101.43 165.86 101.16 165.89 100.89H164.02V100.23ZM166.9 105.76C167.52 106.24 168.04 106.72 168.46 107.2L167.95 107.7C167.58 107.24 167.07 106.74 166.42 106.22L166.9 105.76ZM165.85 102.78H166.51V104.19C166.49 105.14 166.3 105.9 165.96 106.47C165.62 107 165.06 107.41 164.3 107.71L163.91 107.09C164.63 106.83 165.13 106.47 165.42 106.02C165.68 105.55 165.83 104.94 165.85 104.19V102.78Z" fill="#1D2129"/>
<rect x="188" y="92" width="24" height="24" rx="12" fill="#7E5AEA" fill-opacity="0.1"/>
<path d="M199.417 98.1953V104.583H205.805C205.512 107.531 203.025 109.833 200 109.833C196.778 109.833 194.167 107.222 194.167 104C194.167 100.975 196.469 98.488 199.417 98.1953ZM200.583 98.1953C203.339 98.4689 205.531 100.661 205.805 103.416H200.583V98.1953Z" fill="url(#paint3_linear_12239_21983)"/>
<path d="M132.248 119.004H133.48V129H131.842V120.978C131.24 121.524 130.484 121.93 129.56 122.196V120.572C130.008 120.46 130.484 120.264 130.988 119.984C131.492 119.676 131.912 119.354 132.248 119.004ZM136.674 126.886C137.052 126.886 137.374 127.04 137.626 127.348C137.864 127.656 137.99 128.062 137.99 128.552C137.99 129.294 137.766 129.938 137.346 130.498C136.912 131.044 136.324 131.422 135.596 131.632V130.708C135.974 130.568 136.296 130.344 136.562 130.036C136.814 129.7 136.926 129.378 136.926 129.042C136.842 129.07 136.73 129.098 136.576 129.098C136.268 129.098 136.016 128.986 135.806 128.776C135.596 128.566 135.498 128.3 135.498 127.992C135.498 127.656 135.61 127.39 135.834 127.194C136.044 126.984 136.324 126.886 136.674 126.886ZM142.952 118.808C143.918 118.808 144.716 119.088 145.346 119.648C145.962 120.208 146.27 120.922 146.27 121.818C146.27 122.686 145.934 123.47 145.29 124.184C144.898 124.604 144.198 125.136 143.218 125.794C142.196 126.466 141.58 127.054 141.356 127.558H146.284V129H139.312C139.312 127.978 139.634 127.096 140.306 126.34C140.67 125.92 141.44 125.304 142.602 124.506C143.246 124.058 143.694 123.68 143.974 123.386C144.408 122.896 144.632 122.364 144.632 121.804C144.632 121.258 144.478 120.852 144.198 120.586C143.904 120.32 143.47 120.194 142.896 120.194C142.28 120.194 141.818 120.404 141.51 120.824C141.202 121.216 141.034 121.818 141.006 122.602H139.368C139.382 121.482 139.704 120.586 140.348 119.9C141.006 119.172 141.874 118.808 142.952 118.808ZM148.28 119.004H154.37V120.446H149.596L149.316 123.19H149.358C149.666 122.882 150.016 122.658 150.422 122.518C150.786 122.378 151.192 122.308 151.64 122.308C152.578 122.308 153.348 122.616 153.936 123.232C154.524 123.848 154.832 124.702 154.832 125.78C154.832 126.816 154.44 127.656 153.656 128.314C152.928 128.902 152.074 129.196 151.08 129.196C150.17 129.196 149.386 128.944 148.742 128.454C148.014 127.908 147.622 127.166 147.552 126.242H149.162C149.232 126.788 149.442 127.194 149.806 127.46C150.114 127.684 150.548 127.81 151.094 127.81C151.682 127.81 152.186 127.628 152.592 127.264C152.984 126.9 153.194 126.41 153.194 125.794C153.194 125.122 153.012 124.59 152.676 124.212C152.34 123.82 151.836 123.638 151.192 123.638C150.758 123.638 150.38 123.708 150.072 123.862C149.722 124.03 149.456 124.282 149.26 124.632H147.734L148.28 119.004ZM159.727 118.808C161.687 118.808 162.793 119.718 163.045 121.538H161.449C161.253 120.614 160.665 120.152 159.713 120.152C159.041 120.152 158.509 120.474 158.117 121.132C157.725 121.748 157.543 122.518 157.543 123.442V123.568H157.613C157.893 123.148 158.243 122.854 158.663 122.658C159.055 122.462 159.503 122.378 160.007 122.378C160.987 122.378 161.771 122.686 162.359 123.316C162.947 123.946 163.241 124.758 163.241 125.738C163.241 126.746 162.891 127.572 162.219 128.216C161.547 128.86 160.707 129.196 159.713 129.196C158.481 129.196 157.543 128.748 156.899 127.866C156.255 126.998 155.947 125.808 155.947 124.282C155.947 122.644 156.283 121.328 156.969 120.32C157.641 119.312 158.565 118.808 159.727 118.808ZM159.657 123.708C159.041 123.708 158.565 123.89 158.229 124.268C157.879 124.632 157.711 125.15 157.711 125.794C157.711 126.424 157.893 126.928 158.257 127.292C158.621 127.656 159.083 127.838 159.657 127.838C160.245 127.838 160.707 127.642 161.071 127.25C161.435 126.858 161.617 126.354 161.617 125.738C161.617 125.122 161.435 124.632 161.099 124.268C160.735 123.89 160.259 123.708 159.657 123.708Z" fill="#1D2129"/>
<path d="M135.512 144.768H134.448L134.288 144.192L135.328 144.216C135.528 144.216 135.632 144.096 135.632 143.856V138.336H130.368V144.792H129.792V137.776H136.208V143.984C136.208 144.504 135.976 144.768 135.512 144.768ZM130.952 139.256H135.056V139.792H130.952V139.256ZM131.4 140.656H134.608V143.232H131.4V140.656ZM134.048 142.72V141.176H131.96V142.72H134.048ZM141.808 140.64V143.672C141.808 143.904 141.92 144.024 142.16 144.024H143.36C143.512 144.024 143.64 143.976 143.736 143.88C143.864 143.744 143.952 143.272 143.984 142.456L144.536 142.632C144.464 143.56 144.344 144.128 144.176 144.32C144.016 144.48 143.792 144.568 143.504 144.576H141.992C141.48 144.576 141.224 144.304 141.224 143.776V137.56H141.808V140.096C142.592 139.872 143.352 139.56 144.096 139.152L144.44 139.624C143.52 140.08 142.64 140.416 141.808 140.64ZM137.976 144.68L137.8 144.144C137.928 144.064 137.992 143.952 137.992 143.8V137.6H138.568V139.832H140.624V140.392H138.568V143.976C139.272 143.816 139.968 143.616 140.664 143.384L140.816 143.928C139.936 144.208 138.984 144.456 137.976 144.68Z" fill="#86909C"/>
<path d="M151.456 138.176C152 138.176 152.448 138.312 152.784 138.592C153.112 138.872 153.28 139.248 153.28 139.728C153.28 140.368 152.968 140.8 152.344 141.008C152.68 141.112 152.936 141.272 153.112 141.496C153.304 141.72 153.4 142 153.4 142.336C153.4 142.856 153.216 143.28 152.856 143.608C152.488 143.944 152.008 144.112 151.416 144.112C150.872 144.112 150.432 143.968 150.088 143.696C149.68 143.36 149.456 142.872 149.408 142.232H150.072C150.088 142.68 150.24 143.024 150.52 143.256C150.76 143.448 151.056 143.552 151.416 143.552C151.824 143.552 152.152 143.432 152.4 143.2C152.624 142.976 152.744 142.696 152.744 142.36C152.744 142.016 152.632 141.752 152.408 141.56C152.184 141.368 151.88 141.28 151.48 141.28H151.016V140.768H151.456C151.84 140.768 152.128 140.68 152.328 140.512C152.528 140.336 152.632 140.088 152.632 139.768C152.632 139.448 152.528 139.2 152.336 139.024C152.128 138.832 151.832 138.744 151.464 138.744C151.08 138.744 150.784 138.84 150.568 139.048C150.344 139.256 150.216 139.552 150.176 139.936H149.528C149.576 139.384 149.784 138.952 150.136 138.64C150.472 138.328 150.912 138.176 151.456 138.176ZM159.709 140.872C160.133 140.872 160.461 141.024 160.693 141.344C160.893 141.616 160.997 141.984 160.997 142.44C160.997 142.888 160.893 143.256 160.693 143.536C160.461 143.84 160.133 144 159.709 144C159.277 144 158.949 143.84 158.725 143.536C158.517 143.248 158.421 142.888 158.421 142.44C158.421 141.984 158.517 141.616 158.725 141.344C158.949 141.024 159.277 140.872 159.709 140.872ZM159.021 138.176H159.533L156.333 144.112H155.813L159.021 138.176ZM155.645 138.288C156.069 138.288 156.397 138.44 156.629 138.76C156.829 139.032 156.933 139.4 156.933 139.856C156.933 140.304 156.829 140.672 156.629 140.952C156.397 141.256 156.069 141.416 155.645 141.416C155.213 141.416 154.885 141.256 154.661 140.952C154.453 140.664 154.357 140.304 154.357 139.856C154.357 139.4 154.453 139.032 154.661 138.76C154.885 138.44 155.213 138.288 155.645 138.288ZM159.709 141.304C159.461 141.304 159.285 141.416 159.173 141.64C159.069 141.832 159.021 142.096 159.021 142.44C159.021 142.768 159.069 143.032 159.173 143.224C159.285 143.448 159.461 143.568 159.709 143.568C159.949 143.568 160.125 143.448 160.245 143.216C160.341 143.024 160.397 142.768 160.397 142.44C160.397 142.104 160.341 141.84 160.245 141.648C160.125 141.416 159.949 141.304 159.709 141.304ZM155.645 138.72C155.397 138.72 155.221 138.832 155.109 139.056C155.005 139.248 154.957 139.512 154.957 139.856C154.957 140.184 155.005 140.448 155.109 140.64C155.221 140.864 155.397 140.984 155.645 140.984C155.885 140.984 156.061 140.864 156.181 140.632C156.277 140.44 156.333 140.184 156.333 139.856C156.333 139.52 156.277 139.256 156.173 139.064C156.061 138.832 155.885 138.72 155.645 138.72Z" fill="#00B42A"/>
<path d="M169.75 141V140.166C169.75 138.726 168.937 137.474 167.745 136.847C167.857 136.838 167.97 136.833 168.083 136.833C170.384 136.833 172.25 138.698 172.25 141H174.333L171 145.166L167.667 141H169.75Z" fill="#00B42A"/>
<defs>
<linearGradient id="paint0_linear_12239_21983" x1="91" y1="22.75" x2="91" y2="33.25" gradientUnits="userSpaceOnUse">
<stop stop-color="#24B28F" stop-opacity="0.6"/>
<stop offset="1" stop-color="#24B28F"/>
</linearGradient>
<linearGradient id="paint1_linear_12239_21983" x1="200" y1="22.75" x2="200" y2="33.25" gradientUnits="userSpaceOnUse">
<stop stop-color="#FF7D00" stop-opacity="0.6"/>
<stop offset="1" stop-color="#FF7D00"/>
</linearGradient>
<linearGradient id="paint2_linear_12239_21983" x1="91.0001" y1="97.583" x2="91.0001" y2="109.25" gradientUnits="userSpaceOnUse">
<stop stop-color="#1979FF" stop-opacity="0.6"/>
<stop offset="1" stop-color="#1979FF"/>
</linearGradient>
<linearGradient id="paint3_linear_12239_21983" x1="199.986" y1="98.1953" x2="199.986" y2="109.833" gradientUnits="userSpaceOnUse">
<stop stop-color="#7E5AEA" stop-opacity="0.6"/>
<stop offset="1" stop-color="#7E5AEA"/>
</linearGradient>
</defs>
</svg>
