<svg width="24" height="24" viewBox="0 0 24 24" fill="none" xmlns="http://www.w3.org/2000/svg">
<path d="M12 8C13.3807 8 14.5 9.1193 14.5 10.5C14.5 11.8807 13.3807 13 12 13C10.6193 13 9.5 11.8807 9.5 10.5C9.5 9.1193 10.6193 8 12 8Z" stroke="#009E9E" stroke-width="2" stroke-linecap="round" stroke-linejoin="round"/>
<mask id="path-2-inside-1_6350_26069" fill="white">
<path d="M5 18.5C5.04347 17.8409 5.22562 17.8827 5.49999 17.3179C6.31034 15.6498 8.02086 14.5 9.99997 14.5H14C15.9791 14.5 17.6896 15.6499 18.5 17.3179C18.7729 17.8798 18.9554 18.3447 19 19"/>
</mask>
<path d="M3.00434 18.3684C2.93165 19.4706 3.76621 20.423 4.86838 20.4957C5.97056 20.5684 6.92297 19.7338 6.99566 18.6316L5 18.5L3.00434 18.3684ZM17.0046 19.1357C17.0796 20.2377 18.0337 21.0703 19.1357 20.9954C20.2377 20.9204 21.0703 19.9663 20.9954 18.8643L19 19L17.0046 19.1357ZM5.49999 17.3179L3.70103 16.444L5.49999 17.3179ZM18.5 17.3179L20.299 16.444V16.444L18.5 17.3179ZM9.99997 14.5V16.5H14V14.5V12.5H9.99997V14.5ZM5 18.5L6.99566 18.6316C7.00079 18.554 7.00513 18.5802 6.98303 18.6587C6.97118 18.7008 6.95454 18.7481 6.93273 18.7972C6.91123 18.8456 6.89099 18.8815 6.87973 18.9004C6.87126 18.9145 6.86867 18.9174 6.88928 18.8869C6.90228 18.8677 6.94586 18.8041 6.98404 18.746C7.07597 18.606 7.18463 18.4272 7.29894 18.1919L5.49999 17.3179L3.70103 16.444C3.67816 16.4911 3.66116 16.5189 3.64041 16.5505C3.62225 16.5781 3.61274 16.5916 3.57608 16.6458C3.54701 16.6888 3.49818 16.7614 3.44708 16.8468C3.32994 17.0427 3.21595 17.279 3.13273 17.5747C3.05568 17.8483 3.02095 18.1165 3.00434 18.3684L5 18.5ZM5.49999 17.3179L7.29894 18.1919C7.78746 17.1863 8.81548 16.5 9.99997 16.5V14.5V12.5C7.22625 12.5 4.83321 14.1134 3.70103 16.444L5.49999 17.3179ZM14 14.5V16.5C15.1845 16.5 16.2125 17.1863 16.701 18.1919L18.5 17.3179L20.299 16.444C19.1667 14.1134 16.7737 12.5 14 12.5V14.5ZM18.5 17.3179L16.701 18.1919C16.9252 18.6534 16.9852 18.8503 17.0046 19.1357L19 19L20.9954 18.8643C20.9257 17.8392 20.6206 17.1062 20.299 16.444L18.5 17.3179Z" fill="#009E9E" mask="url(#path-2-inside-1_6350_26069)"/>
<path d="M12 3C16.9706 3 21 7.02943 21 12C21 16.9706 16.9706 21 12 21C7.02943 21 3 16.9706 3 12C3 7.02943 7.02943 3 12 3Z" stroke="#4E5969" stroke-width="2" stroke-linecap="round" stroke-linejoin="round"/>
</svg>
