<svg width="64" height="64" viewBox="0 0 64 64" fill="none" xmlns="http://www.w3.org/2000/svg">
<rect width="64" height="64" rx="14.2222" fill="#009E9E"/>
<path d="M24.1477 37.7334L24.0852 37.7959L22.092 39.7861C19.7246 42.1504 16.4221 43.0843 13.3694 42.5244C13.2453 42.5243 13.183 42.4621 13.0588 42.4619C12.9342 42.3997 12.7469 42.3991 12.6223 42.3369C11.8748 42.088 11.0649 41.7773 10.2551 41.3418C10.1306 41.2796 10.0681 41.2175 9.9436 41.1553C9.819 41.0308 10.0057 40.9068 10.1926 41.0312C10.5041 41.2175 10.8777 40.7817 10.7532 40.4707C10.691 40.3463 10.6911 40.1599 10.9397 40.2217C11.5004 40.3461 11.625 39.9731 11.5627 39.6621C11.5005 39.4755 11.6259 39.3509 11.8127 39.4131C12.3109 39.4129 12.5604 39.1017 12.4358 38.7285C12.4348 38.7265 12.2499 38.3558 12.6848 38.542C12.747 38.6041 12.7469 38.6045 12.8088 38.6045C15.0516 39.4755 17.6682 39.0395 19.4749 37.2354L21.469 35.2451L20.3479 34.125V34.0625H26.8889L24.1477 37.7334ZM13.9924 41.6533C13.8057 41.6536 13.6194 41.8399 13.6194 42.0264C13.6195 42.2128 13.8057 42.3991 13.9924 42.3994C14.1793 42.3994 14.3664 42.213 14.3665 42.0264C14.3665 41.8398 14.1793 41.6533 13.9924 41.6533ZM15.3635 41.6533C15.1766 41.6533 14.9895 41.8398 14.9895 42.0264C14.9896 42.213 15.1766 42.3994 15.3635 42.3994C15.5503 42.3994 15.7375 42.213 15.7375 42.0264C15.7375 41.8398 15.5504 41.6533 15.3635 41.6533ZM12.7473 41.2793C12.4982 41.2793 12.311 41.4662 12.3108 41.7148C12.3108 41.9637 12.4981 42.1504 12.7473 42.1504C12.9963 42.1502 13.1829 41.9636 13.1829 41.7148C13.1827 41.4663 12.9962 41.2795 12.7473 41.2793ZM11.5627 40.9062C11.3138 40.9065 11.1272 41.0931 11.1272 41.3418C11.1272 41.5905 11.3137 41.7771 11.5627 41.7773C11.7496 41.7773 11.937 41.5907 11.9993 41.3418C11.9992 41.093 11.8119 40.9062 11.5627 40.9062ZM14.678 40.5332C14.4912 40.5333 14.304 40.7198 14.304 40.9062C14.304 41.0929 14.4911 41.2792 14.678 41.2793C14.8649 41.2793 15.052 41.0929 15.052 40.9062C15.0519 40.7197 14.8649 40.5332 14.678 40.5332ZM36.6702 35.6787L37.7913 24.666H41.5295L39.7854 41.2783H36.1096L30.0042 30.3271L28.8831 41.2783H25.1448L25.6428 36.7979L28.0725 33.5625H25.9543L26.8889 24.666H30.5647L36.6702 35.6787ZM54.8 28.0254H46.7004L46.3889 31.3232H53.8655L53.4915 34.6826H46.0159L45.7043 37.918H54.675L54.301 41.2783H41.6545L42.0286 37.918L42.3401 34.6826L42.4641 33.1895L43.3987 24.666H55.1116L54.8 28.0254ZM13.4944 40.3467C13.2452 40.3467 13.0588 40.5334 13.0588 40.7822C13.059 41.0309 13.2453 41.2177 13.4944 41.2178C13.7435 41.2178 13.9308 41.0309 13.9309 40.7822C13.9309 40.5333 13.7436 40.3467 13.4944 40.3467ZM15.177 23.1113C20.5969 23.1115 25.0202 27.4665 24.8958 32.9414C24.8958 33.3147 24.8333 33.6265 24.8333 33.9375H21.1575C21.1575 33.5642 21.22 33.2525 21.22 32.9414C21.2198 29.5196 18.4784 26.7822 15.052 26.7822C11.6256 26.7823 8.88417 29.5196 8.88403 32.9414C8.88403 35.3057 10.2555 37.2968 12.1868 38.3545L12.1243 38.417C11.9997 38.6037 12.1243 38.7903 12.1243 38.8525C12.1274 38.8588 12.1847 38.9785 12.1243 39.0391C12.062 39.0391 11.9996 39.1014 11.8752 39.1016C11.8752 39.1016 11.8125 39.1016 11.7502 39.1016C11.501 39.1016 11.4385 39.2259 11.3762 39.2881C11.314 39.3505 11.2515 39.5372 11.3137 39.7236C11.376 39.7859 11.376 39.8479 11.3137 39.9102C11.2515 39.9721 11.1894 39.9727 11.1272 39.9727H10.8782C10.6914 39.9727 10.5665 40.0964 10.5042 40.2207C10.4418 40.3451 10.5043 40.5324 10.5667 40.7812C10.5655 40.7824 10.5043 40.8437 10.5042 40.9053C10.5042 40.9675 10.4414 40.9678 10.3792 40.9678C10.2548 40.9056 10.1921 40.8438 10.0676 40.8438C9.88119 40.844 9.7569 40.9676 9.69458 41.0918C7.07796 39.2874 5.33325 36.3011 5.33325 32.9414C5.33339 27.5286 9.75696 23.1113 15.177 23.1113ZM12.2483 39.9727C11.9993 39.9727 11.813 40.1596 11.8127 40.4082C11.8127 40.657 11.9992 40.8437 12.2483 40.8438C12.4975 40.8438 12.6848 40.6571 12.6848 40.4082C12.6846 40.1595 12.4973 39.9727 12.2483 39.9727ZM9.8186 39.9102C9.56954 39.9103 9.38306 40.097 9.38306 40.3457C9.38315 40.5944 9.56961 40.7811 9.8186 40.7812C10.0677 40.7812 10.3172 40.5945 10.2551 40.3457C10.2551 40.0969 10.0678 39.9102 9.8186 39.9102ZM14.1799 39.2891C13.9307 39.2891 13.8059 39.4754 13.8059 39.6621C13.8059 39.8487 13.993 40.0352 14.1799 40.0352C14.3668 40.0351 14.5539 39.8486 14.554 39.6621C14.554 39.4755 14.3668 39.2892 14.1799 39.2891ZM13.0588 39.04C12.8719 39.04 12.6846 39.2267 12.6223 39.4756C12.6224 39.7244 12.8097 39.9111 13.0588 39.9111C13.3077 39.9109 13.4943 39.7242 13.4944 39.4756C13.4944 39.2269 13.3078 39.0403 13.0588 39.04ZM8.88403 39.0391C8.635 39.0392 8.44849 39.2259 8.44849 39.4746C8.44855 39.7233 8.63504 39.91 8.88403 39.9102C9.13318 39.9102 9.32047 39.6613 9.32056 39.4746C9.32056 39.2258 9.13324 39.0391 8.88403 39.0391ZM10.6907 38.9766C10.4417 38.9768 10.2552 39.1635 10.2551 39.4121C10.2551 39.6609 10.4417 39.8474 10.6907 39.8477C10.9399 39.8477 11.1272 39.661 11.1272 39.4121C11.1271 39.2255 10.9398 38.9766 10.6907 38.9766ZM8.07446 38.0439C7.82527 38.0439 7.63794 38.2306 7.63794 38.4795C7.63818 38.7281 7.82543 38.915 8.07446 38.915C8.26128 38.915 8.4486 38.7282 8.51099 38.4795C8.51099 38.2306 8.32367 38.0439 8.07446 38.0439ZM9.7561 38.1055C9.56937 38.1057 9.38306 38.2308 9.38306 38.4795C9.3833 38.7279 9.56949 38.9142 9.7561 38.8525C9.94289 38.8525 10.1299 38.7281 10.1301 38.4795C10.1301 38.2928 10.0053 38.1055 9.7561 38.1055ZM11.5637 38.1055C11.3145 38.1055 11.1274 38.2928 11.1897 38.4795C11.1899 38.666 11.3147 38.8525 11.5637 38.8525C11.7504 38.8524 11.9365 38.7279 11.9368 38.4795C11.9368 38.2929 11.8126 38.1057 11.5637 38.1055ZM7.20239 36.9863C7.01549 36.9863 6.82837 37.1727 6.82837 37.3594C6.82855 37.5459 7.01559 37.7324 7.20239 37.7324C7.38916 37.7323 7.57623 37.5459 7.57642 37.3594C7.57642 37.1728 7.38926 36.9864 7.20239 36.9863ZM8.69751 36.9863C8.44831 36.9863 8.26119 37.1727 8.32349 37.3594C8.32367 37.5459 8.51069 37.7324 8.69751 37.7324C8.88431 37.7324 9.07135 37.5459 9.07153 37.3594C9.07153 37.1727 8.8844 36.9863 8.69751 36.9863ZM10.1926 36.9863C9.94346 36.9864 9.7563 37.1727 9.8186 37.3594C9.81879 37.5459 10.0058 37.7324 10.1926 37.7324C10.3794 37.7324 10.5665 37.5459 10.5667 37.3594C10.5667 37.1727 10.3795 36.9863 10.1926 36.9863ZM6.57935 35.8037C6.39251 35.8037 6.20546 35.9902 6.20532 36.1768C6.20532 36.3634 6.39244 36.5508 6.57935 36.5508C6.76622 36.5507 6.95337 36.3634 6.95337 36.1768C6.95323 35.9902 6.76615 35.8038 6.57935 35.8037ZM7.88794 35.8662C7.70111 35.8662 7.57651 35.9902 7.57642 36.1768C7.57642 36.3634 7.70104 36.4883 7.88794 36.4883C8.07463 36.4881 8.19946 36.3633 8.19946 36.1768C8.19937 35.9903 8.07457 35.8664 7.88794 35.8662ZM9.25806 35.8662C9.07129 35.8663 8.94662 35.9902 8.94653 36.1768C8.94653 36.3634 9.07122 36.4882 9.25806 36.4883C9.44496 36.4883 9.56958 36.3634 9.56958 36.1768C9.56949 35.9902 9.44489 35.8662 9.25806 35.8662ZM21.0959 35.2432L20.5969 35.7412C20.7214 35.5546 20.8461 35.3679 20.9084 35.1191L21.0959 35.2432Z" fill="white"/>
</svg>
