<svg width="173" height="36" viewBox="0 0 173 36" fill="none" xmlns="http://www.w3.org/2000/svg">
    <g clip-path="url(#clip0_1577_5232)">
        <path
            d="M34.4258 26.7871L30.6641 30.5488C26.3324 34.8805 20.2907 36.5903 14.7051 35.5645C14.4771 35.5645 14.3628 35.4512 14.1348 35.4512C13.9068 35.3372 13.5649 35.3366 13.3369 35.2227C11.9691 34.7667 10.4876 34.1964 9.00586 33.3984C8.77787 33.2844 8.66353 33.1706 8.43555 33.0566C8.20776 32.8287 8.54968 32.6011 8.8916 32.8291C9.46152 33.1708 10.145 32.3727 9.91699 31.8027C9.8032 31.5747 9.80407 31.2327 10.2598 31.3467C11.2854 31.5745 11.5133 30.8911 11.3994 30.3213C11.2854 29.9793 11.5135 29.7512 11.8555 29.8652C12.7672 29.8652 13.223 29.2952 12.9951 28.6113C12.9951 28.6113 12.6532 27.9275 13.4512 28.2695C13.5649 28.3833 13.5652 28.3838 13.6787 28.3838C17.7824 29.9796 22.5703 29.1807 25.876 25.875L29.5244 22.2275L27.4717 20.1758V20.0615H39.4414L34.4258 26.7871ZM15.8447 33.9688C15.5029 33.9689 15.1614 34.3107 15.1611 34.6523C15.1611 34.9943 15.5028 35.3367 15.8447 35.3369C16.1867 35.3369 16.5293 34.9943 16.5293 34.6523C16.529 34.3106 16.1866 33.9688 15.8447 33.9688ZM18.3525 33.9688C18.0108 33.969 17.6692 34.3107 17.6689 34.6523C17.6689 34.9942 18.0106 35.3367 18.3525 35.3369C18.6944 35.3369 19.0371 34.9943 19.0371 34.6523C19.0369 34.3106 18.6943 33.9688 18.3525 33.9688ZM13.5654 33.2852C13.1095 33.2852 12.7676 33.627 12.7676 34.083C12.7676 34.5389 13.1095 34.8809 13.5654 34.8809C14.0212 34.8807 14.3632 34.5388 14.3633 34.083C14.3633 33.6271 14.0213 33.2853 13.5654 33.2852ZM11.3994 32.6006C10.9436 32.6006 10.6018 32.9426 10.6016 33.3984C10.6016 33.8544 10.9434 34.1973 11.3994 34.1973C11.7413 34.1972 12.0833 33.8544 12.1973 33.3984C12.1971 32.9427 11.8552 32.6006 11.3994 32.6006ZM154.507 28.2227C154.174 28.2676 153.606 28.3216 152.806 28.3936C152.815 28.6095 152.842 28.8973 152.878 29.248H154.822V30.3643H153.049C153.148 30.8051 153.265 31.1919 153.418 31.5068C153.544 31.7678 153.67 31.9119 153.787 31.9209C153.895 31.9209 153.949 31.8309 154.048 31.5879C154.111 31.417 154.156 31.2367 154.192 31.0479L155.038 31.6875L154.939 32.0293C154.885 32.2003 154.831 32.3537 154.777 32.4707C154.552 32.9925 154.228 33.2529 153.796 33.2529C153.301 33.2529 152.923 33.019 152.536 32.3711C152.239 31.8671 152.023 31.2642 151.87 30.3643H150.493V31.5068L151.825 31.0391L152.014 32.1016L151.627 32.2363C151.735 32.4073 151.861 32.6144 151.996 32.8574L151.006 33.3975C150.925 33.2265 150.79 32.9738 150.583 32.6318L150.133 32.8125C149.962 32.8665 149.746 32.9561 149.494 33.082L148.99 32.0205C149.251 31.8316 149.305 31.6784 149.305 31.4355V27.4307C151.141 27.4037 152.788 27.2954 154.246 27.1064L154.507 28.2227ZM152.113 25.7021H154.84V26.8271H148.918V28.6631C148.9 30.9851 148.657 31.9305 147.946 33.3525L146.785 32.7129C147.523 31.2822 147.703 30.6342 147.721 28.8076V25.7021H150.709L150.583 25.0898L151.979 25.0547L152.113 25.7021ZM132.88 25.4229C132.673 26.0977 132.403 26.7547 132.079 27.3936V33.3154H130.837V29.4004C130.576 29.7513 130.334 30.0667 130.1 30.3457L129.541 29.1211C130 28.5451 130.414 27.9061 130.783 27.2041C131.161 26.4932 131.458 25.8001 131.674 25.1162L132.88 25.4229ZM101.803 25.2979C101.731 25.6487 101.641 25.9816 101.533 26.3145H103.459V27.5381H103.054C102.91 28.9421 102.676 29.9057 102.235 30.7607C102.613 31.2286 103.126 31.7147 103.765 32.2275L103 33.2715C102.415 32.7585 101.938 32.254 101.569 31.75C101.182 32.2269 100.624 32.7401 99.9043 33.2891L99.3369 32.5605L99.1035 33.0195C98.8785 32.8845 98.5275 32.677 98.0596 32.416C97.5377 32.731 96.8443 33.0191 95.9805 33.2891L95.4307 32.3086C96.1147 32.1376 96.6285 31.9934 96.9795 31.8584C96.5295 31.6424 96.1599 31.4803 95.8809 31.3633C96.0159 31.1473 96.1513 30.9131 96.2773 30.6611H95.5928V29.7432H96.709C96.7719 29.5902 96.8355 29.4195 96.8984 29.2217L98.0234 29.4463L97.9238 29.7432H99.6611V30.6162C99.4541 31.0572 99.2288 31.4171 98.9678 31.7051L99.5977 32.0117C100.138 31.6157 100.579 31.1831 100.912 30.7061C100.66 30.1931 100.462 29.6258 100.318 29.0049C100.237 29.1475 100.16 29.2651 100.101 29.3564C100.081 29.3861 100.063 29.4132 100.048 29.4375L99.7695 28.8438L99.2744 29.4736C99.0764 29.2577 98.7701 28.9966 98.3652 28.6816V29.2393H97.3125V28.5645C96.9346 28.9873 96.4753 29.338 95.9355 29.626L95.3955 28.7266C95.9894 28.4746 96.5026 28.1594 96.9346 27.7725H95.6836V26.8008H96.3584C96.0615 26.243 95.8543 25.8826 95.7373 25.7295L96.5205 25.2979C96.7095 25.541 97.0328 26.0537 97.2217 26.4404L96.583 26.8008H97.3125V25.1357L98.3652 25.1895V26.4316C98.4822 26.2876 98.608 26.0983 98.752 25.8643C98.9049 25.6214 99.0128 25.4235 99.0938 25.2705L99.9307 25.7471C99.7777 26.0351 99.5443 26.3868 99.2383 26.8008H99.7246V27.7725H98.3652V28.2852L98.7344 27.8623C98.9862 28.0332 99.283 28.2581 99.6338 28.5459L99.4814 28.2227C100.048 27.3587 100.48 26.197 100.669 25.126L101.803 25.2979ZM17.0986 31.917C16.7568 31.9171 16.4152 32.2589 16.415 32.6006C16.415 32.9425 16.7567 33.285 17.0986 33.2852C17.4406 33.2852 17.7832 32.9426 17.7832 32.6006C17.783 32.2588 17.4405 31.917 17.0986 31.917ZM57.3379 23.0254L59.3896 2.84863H66.2295L63.0371 33.2842H56.3115L45.1406 13.2217L43.0889 33.2842H36.249L37.1611 25.0771L41.6074 19.1494H37.7314L39.4414 2.84863H46.167L57.3379 23.0254ZM90.5098 9.00391H75.6904L75.1211 15.0459H88.7998L88.1162 21.2012H74.4365L73.8672 27.1289H90.2812L89.5977 33.2842H66.457L67.1416 27.1289L67.7109 21.2012L67.9395 18.4658L69.6494 2.84863H91.0801L90.5098 9.00391ZM169.366 25.7285H172.111V26.8984H166.145V29.1484C166.567 28.5456 166.846 27.8708 166.981 27.124L168.007 27.3125C167.983 27.4613 167.932 27.6587 167.866 27.915L167.836 28.0322C168.133 28.3831 168.367 28.6895 168.547 28.9414V27.1143L169.663 27.1416V28.9863C170.005 28.4464 170.248 27.8252 170.401 27.1143L171.409 27.3125C171.364 27.5375 171.292 27.7989 171.202 28.0869C171.382 28.2759 171.58 28.5008 171.796 28.7617C172.021 29.0227 172.174 29.2117 172.273 29.3467L171.58 30.0938C171.364 29.7788 171.103 29.4364 170.797 29.0674C170.626 29.4002 170.42 29.7334 170.177 30.0752L169.663 29.6436V30.2109H171.725V31.2725H169.663V31.9121H172.21V33.0273H165.982V31.9121H168.547V31.2725H166.478V30.2109H166.64L166.126 29.7783C166.099 30.5523 166.018 31.1827 165.883 31.6777C165.757 32.1636 165.541 32.6945 165.244 33.2793L164.038 32.7393C164.281 32.2714 164.47 31.8661 164.587 31.5332C164.704 31.2004 164.795 30.8138 164.849 30.373C164.912 29.932 164.938 29.3555 164.938 28.6445V25.7285H168.043L167.899 25.1162L169.231 25.0811L169.366 25.7285ZM134.779 25.2695V28.0859C135.49 27.492 136.12 26.8801 136.669 26.2412L137.578 27.2139C136.705 28.1407 135.778 28.9863 134.779 29.7422V31.4795C134.779 31.8303 134.878 31.9202 135.211 31.9473L135.333 31.9541C135.444 31.9604 135.534 31.9658 135.607 31.9658C135.702 31.9658 135.816 31.959 135.945 31.9512L136.003 31.9473C136.372 31.9113 136.48 31.8304 136.543 31.5068C136.579 31.3538 136.616 30.9754 136.643 30.3545L137.785 30.75C137.776 31.2 137.731 31.6237 137.668 32.0107C137.506 32.8654 137.218 33.1179 136.237 33.1719C136.093 33.1809 135.868 33.1894 135.562 33.1895C135.257 33.1895 135.032 33.1809 134.888 33.1719C133.853 33.1179 133.51 32.8565 133.51 31.8037V30.6338C133.285 30.7867 133.042 30.9397 132.772 31.1016L132.115 29.958C132.592 29.6881 133.051 29.3913 133.51 29.0674V25.2246L134.779 25.2695ZM14.9326 31.5752C14.4769 31.5754 14.1348 31.9172 14.1348 32.373C14.1348 32.8287 14.4769 33.1707 14.9326 33.1709C15.3886 33.1709 15.7314 32.8289 15.7314 32.373C15.7314 31.917 15.3886 31.5752 14.9326 31.5752ZM114.934 25.1172L114.754 25.5762H116.959V26.4941H115.879V26.9893H117.076V27.916H115.852C116.464 28.195 116.914 28.4208 117.193 28.5918L116.707 29.3926H119.839V33.127H113.827V29.7256C113.656 29.8066 113.494 29.8784 113.332 29.9414L112.765 28.8887C113.629 28.6007 114.16 28.312 114.448 27.916H113.017V26.9893H113.584L112.945 26.584C113.323 26.1341 113.629 25.6028 113.854 25L114.934 25.1172ZM18.0107 0C27.9279 4.93677e-05 36.021 7.97954 35.793 18.0107C35.793 18.6947 35.6797 19.2651 35.6797 19.835H28.9541C28.9541 19.1511 29.0683 18.5807 29.0684 18.0107C29.0684 11.7412 24.0518 6.72559 17.7822 6.72559C11.5129 6.72581 6.49707 11.7414 6.49707 18.0107C6.49711 22.3424 9.0054 25.9899 12.5391 27.9277L12.4248 28.042C12.1971 28.3839 12.4247 28.7258 12.4248 28.8398C12.4248 28.8398 12.5388 29.0676 12.4248 29.1816C12.3109 29.1818 12.1965 29.2959 11.9688 29.2959H11.7412C11.2856 29.2959 11.1715 29.5238 11.0576 29.6377C10.9436 29.7517 10.8294 30.0936 10.9434 30.4355C11.0573 30.5495 11.0571 30.6634 10.9434 30.7773C10.8295 30.8912 10.7154 30.8916 10.6016 30.8916H10.1455C9.80354 30.8916 9.57492 31.1197 9.46094 31.3477C9.347 31.5755 9.46121 31.9181 9.5752 32.374C9.56915 32.3802 9.46096 32.4908 9.46094 32.6016C9.46094 32.7155 9.34736 32.7158 9.2334 32.7158C9.00541 32.6018 8.89107 32.4873 8.66309 32.4873C8.32137 32.4874 8.09348 32.7155 7.97949 32.9434C3.19189 29.6375 3.28019e-05 24.1662 0 18.0107C0 8.09351 8.09349 0 18.0107 0ZM12.6533 30.8906C12.1974 30.8906 11.8555 31.2335 11.8555 31.6895C11.8557 32.1452 12.1975 32.4873 12.6533 32.4873C13.1091 32.4873 13.451 32.1452 13.4512 31.6895C13.4512 31.2335 13.1092 30.8907 12.6533 30.8906ZM8.20703 30.7773C7.75138 30.7775 7.40938 31.1197 7.40918 31.5752C7.40918 32.0311 7.75125 32.3738 8.20703 32.374C8.66299 32.374 9.11887 32.0312 9.00488 31.5752C9.00468 31.1195 8.66285 30.7773 8.20703 30.7773ZM115.078 32.1738H118.597V31.6602H115.078V32.1738ZM97.2939 31.0029L98.0322 31.3096C98.2032 31.1386 98.3469 30.9221 98.4639 30.6611H97.4922L97.2939 31.0029ZM16.1865 29.6367C15.7308 29.637 15.5029 29.9794 15.5029 30.3213C15.503 30.6629 15.8447 31.0046 16.1865 31.0049C16.5285 31.0049 16.871 30.6631 16.8711 30.3213C16.8711 29.9793 16.5285 29.6367 16.1865 29.6367ZM115.078 30.7969H118.597V30.2832H115.078V30.7969ZM6.49707 29.1816C6.04141 29.1819 5.69935 29.5239 5.69922 29.9795C5.69922 30.4353 6.04133 30.7771 6.49707 30.7773C6.95304 30.7773 7.2959 30.3215 7.2959 29.9795C7.29577 29.5238 6.95296 29.1816 6.49707 29.1816ZM14.1348 29.1816C13.7929 29.1819 13.4509 29.5236 13.3369 29.9795C13.3371 30.4352 13.6791 30.7772 14.1348 30.7773C14.5906 30.7773 14.9325 30.4353 14.9326 29.9795C14.9326 29.5235 14.5907 29.1816 14.1348 29.1816ZM9.80371 29.0684C9.34774 29.0684 9.00488 29.4104 9.00488 29.8662C9.00512 30.322 9.3479 30.6641 9.80371 30.6641C10.2593 30.6638 10.6013 30.3218 10.6016 29.8662C10.6016 29.5243 10.2595 29.0686 9.80371 29.0684ZM167.422 29.0859C167.215 29.4908 166.963 29.86 166.675 30.2109H168.547V29.4902L168.053 30.0039C167.9 29.7429 167.683 29.4369 167.422 29.0859ZM101.038 27.6279C101.137 28.3747 101.29 29.014 101.515 29.5449C101.722 28.996 101.866 28.33 101.947 27.5381H101.083L101.038 27.6279ZM115.384 28.6992C115.177 28.9422 114.889 29.1766 114.502 29.3926H116.536C116.293 29.2306 115.906 28.9962 115.384 28.6992ZM151.672 28.4746C151.303 28.5016 150.907 28.5281 150.493 28.5371V29.248H151.727L151.672 28.4746ZM120.541 29.0146H117.354V25.5225H120.541V29.0146ZM5.01562 27.3584C4.55967 27.3584 4.21777 27.7003 4.21777 28.1562C4.21795 28.6121 4.55979 28.9541 5.01562 28.9541C5.35752 28.9541 5.6994 28.6121 5.81348 28.1562C5.81348 27.7003 5.47159 27.3584 5.01562 27.3584ZM8.09375 27.4717C7.75178 27.4717 7.40918 27.7003 7.40918 28.1562C7.40936 28.6121 7.75187 28.9538 8.09375 28.8398C8.43553 28.8397 8.77717 28.6119 8.77734 28.1562C8.77734 27.8143 8.54949 27.4719 8.09375 27.4717ZM11.3994 27.4717C10.9434 27.4717 10.6009 27.8143 10.7148 28.1562C10.715 28.4981 10.9436 28.8398 11.3994 28.8398C11.7412 28.8397 12.0828 28.6119 12.083 28.1562C12.083 27.8143 11.8552 27.4718 11.3994 27.4717ZM118.426 27.9971H119.479V26.5215H118.426V27.9971ZM114.277 26.4941C114.214 26.6111 114.106 26.7733 113.962 26.9893H114.727L114.771 26.8633V26.4941H114.277ZM98.3652 26.8008H98.8604L98.3652 26.4854V26.8008ZM3.41992 25.4199C3.07795 25.4199 2.73535 25.7625 2.73535 26.1045C2.73565 26.4463 3.0781 26.7881 3.41992 26.7881C3.7617 26.788 4.10322 26.4463 4.10352 26.1045C4.10352 25.7626 3.76185 25.42 3.41992 25.4199ZM6.15527 25.4199C5.69944 25.4201 5.35772 25.7626 5.47168 26.1045C5.47198 26.4463 5.81353 26.7879 6.15527 26.7881C6.4971 26.7881 6.83955 26.4463 6.83984 26.1045C6.83984 25.7625 6.49724 25.4199 6.15527 25.4199ZM8.8916 25.4199C8.43565 25.4199 8.09303 25.7625 8.20703 26.1045C8.20733 26.4463 8.54978 26.7881 8.8916 26.7881C9.23335 26.7879 9.5749 26.4463 9.5752 26.1045C9.5752 25.7626 9.2335 25.4201 8.8916 25.4199ZM2.28027 23.2539C1.93829 23.2539 1.5957 23.5965 1.5957 23.9385C1.59589 24.2804 1.93838 24.6221 2.28027 24.6221C2.622 24.6218 2.96368 24.2802 2.96387 23.9385C2.96387 23.5966 2.6221 23.2542 2.28027 23.2539ZM4.67383 23.3682C4.33186 23.3682 4.10352 23.5965 4.10352 23.9385C4.10364 24.2803 4.33195 24.5078 4.67383 24.5078C5.01561 24.5077 5.24304 24.2803 5.24316 23.9385C5.24316 23.5965 5.0157 23.3682 4.67383 23.3682ZM7.18164 23.3682C6.83966 23.3682 6.61133 23.5965 6.61133 23.9385C6.61145 24.2803 6.83975 24.5078 7.18164 24.5078C7.52343 24.5077 7.75085 24.2803 7.75098 23.9385C7.75098 23.5965 7.52352 23.3682 7.18164 23.3682ZM28.8398 22.2285L27.9277 23.1406C28.1556 22.7986 28.384 22.456 28.498 22L28.8398 22.2285ZM147.817 2C149.051 2 150.234 2.14676 151.366 2.44141C152.499 2.73593 153.464 3.1596 154.263 3.71191L152.356 7.11035C150.728 6.09758 149.02 5.59091 147.234 5.59082C145.982 5.59082 145.021 5.79308 144.351 6.19824C143.699 6.60341 143.321 7.13773 143.219 7.80078C143.116 8.46357 143.38 8.96048 144.01 9.29199C144.661 9.6051 145.671 9.91834 147.04 10.2314C148.459 10.5814 149.61 10.9314 150.495 11.2812C151.38 11.6312 152.096 12.1834 152.642 12.9385C153.206 13.6935 153.388 14.716 153.188 16.0049C153.017 17.1099 152.548 18.1231 151.779 19.0439C151.032 19.9463 150 20.6641 148.684 21.1982C147.367 21.7322 145.826 22 144.059 22C142.531 22 141.08 21.7967 139.707 21.3916C138.355 20.968 137.298 20.4247 136.535 19.7617L138.575 16.3916C139.31 16.9993 140.219 17.4881 141.304 17.8564C142.388 18.2246 143.501 18.4082 144.642 18.4082C145.912 18.4082 146.879 18.2246 147.544 17.8564C148.211 17.4698 148.593 16.9629 148.69 16.3369C148.762 15.8765 148.636 15.4987 148.313 15.2041C148.012 14.8911 147.591 14.6421 147.049 14.458C146.525 14.2739 145.801 14.0716 144.878 13.8506C143.459 13.5008 142.308 13.1507 141.423 12.8008C140.538 12.451 139.815 11.8887 139.254 11.1152C138.711 10.3417 138.54 9.31049 138.739 8.02148C138.913 6.89842 139.373 5.88549 140.12 4.9834C140.87 4.06246 141.895 3.33496 143.192 2.80078C144.508 2.26676 146.05 2.00001 147.817 2ZM107.938 2.33203C110.295 2.33206 112.028 2.78328 113.141 3.68555C114.271 4.58794 114.717 5.81235 114.478 7.35938C114.332 8.29851 113.973 9.1364 113.398 9.87305C112.843 10.6096 112.127 11.1897 111.251 11.6133C112.301 11.9632 113.076 12.5531 113.573 13.3818C114.074 14.1921 114.231 15.1956 114.046 16.3926C113.784 18.0869 112.918 19.3945 111.45 20.3154C110.003 21.2176 108.019 21.6689 105.497 21.6689H95.5L98.4941 2.33203H107.938ZM135.753 21.6689H131.059L129.988 17.5254H121.013L118.659 21.6689H114.075L125.685 2.33203H130.104L135.753 21.6689ZM172.97 2.33203L172.414 5.92285H162.252L161.602 10.1221H170.577L170.038 13.6025H161.063L160.37 18.0771H170.892L170.336 21.6689H155.368L158.362 2.33203H172.97ZM100.468 18.2988H105.688C106.865 18.2988 107.779 18.1053 108.428 17.7188C109.095 17.332 109.492 16.7331 109.617 15.9229C109.865 14.3207 108.802 13.5195 106.427 13.5195H101.208L100.468 18.2988ZM122.976 14.127H129.105L127.187 6.72363L122.976 14.127ZM101.713 10.2598H106.158C107.263 10.2598 108.131 10.0664 108.762 9.67969C109.392 9.29293 109.766 8.72174 109.883 7.9668C110 7.21188 109.801 6.65051 109.287 6.28223C108.776 5.89549 107.969 5.70216 106.864 5.70215H102.418L101.713 10.2598Z"
            fill="#009E9E" />
    </g>
    <defs>
        <clipPath id="clip0_1577_5232">
            <rect width="173" height="36" fill="white" />
        </clipPath>
    </defs>
</svg>