<svg width="24" height="24" viewBox="0 0 24 24" fill="none" xmlns="http://www.w3.org/2000/svg">
<path d="M18 13C20.7614 13 23 15.2386 23 18C23 20.7614 20.7614 23 18 23C15.2386 23 13 20.7614 13 18C13 15.2386 15.2386 13 18 13ZM18 14.5C16.067 14.5 14.5 16.067 14.5 18C14.5 19.933 16.067 21.5 18 21.5C19.933 21.5 21.5 19.933 21.5 18C21.5 16.067 19.933 14.5 18 14.5ZM18.75 17.25H20.5V18.75H18.75V20.5H17.25V18.75H15.5V17.25H17.25V15.5H18.75V17.25Z" fill="#4FAE7B"/>
<path d="M12.4141 5H21C21.5523 5 22 5.44772 22 6V12.2559C21.3959 11.8344 20.7225 11.5061 20 11.291V11H4V19H11.0723C11.1733 19.7062 11.3794 20.3782 11.6748 21H3C2.44772 21 2 20.5523 2 20V4C2 3.44772 2.44772 3 3 3H10.4141L12.4141 5ZM4 9H20V7H11.5859L9.58594 5H4V9Z" fill="#4FAE7B"/>
</svg>
