<svg width="24" height="24" viewBox="0 0 24 24" fill="none" xmlns="http://www.w3.org/2000/svg">
<path d="M20 2C20.5523 2 21 2.44772 21 3V11.6738C20.3783 11.3785 19.7061 11.1733 19 11.0723V8H5V20H11.291C11.5061 20.7227 11.8353 21.3958 12.2568 22H4C3.44772 22 3 21.5523 3 21V3C3 2.44772 3.44772 2 4 2H20ZM11.291 16C11.1024 16.6338 11 17.3049 11 18H7V16H11.291ZM11 14H7V10H11V14ZM17 11.0723C15.4923 11.288 14.1402 11.9835 13.1025 13H13V11H17V11.0723ZM5 6H19V4H5V6Z" fill="#4FAE7B"/>
<path d="M18 13C20.7614 13 23 15.2386 23 18C23 20.7614 20.7614 23 18 23C15.2386 23 13 20.7614 13 18C13 15.2386 15.2386 13 18 13ZM18 14.5C16.067 14.5 14.5 16.067 14.5 18C14.5 19.933 16.067 21.5 18 21.5C19.933 21.5 21.5 19.933 21.5 18C21.5 16.067 19.933 14.5 18 14.5ZM18.75 17.25H20.5V18.75H18.75V20.5H17.25V18.75H15.5V17.25H17.25V15.5H18.75V17.25Z" fill="#4FAE7B"/>
</svg>
