<svg width="20" height="20" viewBox="0 0 20 20" fill="none" xmlns="http://www.w3.org/2000/svg">
<mask id="path-1-outside-1_71_1980" maskUnits="userSpaceOnUse" x="0.875" y="0.649414" width="19" height="19" fill="black">
<rect fill="white" x="0.875" y="0.649414" width="19" height="19"/>
<path d="M7.70801 11.459C8.39836 11.459 8.95801 12.0186 8.95801 12.709V17.292C8.95772 17.9821 8.39819 18.542 7.70801 18.542H3.125C2.43482 18.542 1.87529 17.9821 1.875 17.292V12.709C1.875 12.0186 2.43464 11.459 3.125 11.459H7.70801ZM12.4199 11.918C12.6056 11.3609 13.3944 11.3609 13.5801 11.918L13.6934 12.2598C13.9366 12.9899 14.51 13.5628 15.2402 13.8066L15.582 13.9199C16.1391 14.1056 16.1391 14.8944 15.582 15.0801L15.2402 15.1934C14.51 15.4365 13.9372 16.01 13.6934 16.7402L13.5801 17.082C13.3944 17.639 12.6056 17.639 12.4199 17.082L12.3066 16.7402C12.0635 16.01 11.49 15.4372 10.7598 15.1934L10.418 15.0801C9.86095 14.8944 9.86095 14.1056 10.418 13.9199L10.7598 13.8066C11.49 13.5635 12.0628 12.99 12.3066 12.2598L12.4199 11.918ZM3.125 17.292H7.70801V12.709H3.125V17.292ZM17.21 10.209C17.3028 9.93047 17.6972 9.93047 17.79 10.209L17.8467 10.3799C17.9683 10.745 18.255 11.0314 18.6201 11.1533L18.791 11.21C19.0694 11.3028 19.0694 11.6972 18.791 11.79L18.6201 11.8467C18.255 11.9683 17.9686 12.255 17.8467 12.6201L17.79 12.791C17.6972 13.0695 17.3028 13.0695 17.21 12.791L17.1533 12.6201C17.0317 12.2551 16.7449 11.9686 16.3799 11.8467L16.209 11.79C15.9305 11.6972 15.9305 11.3028 16.209 11.21L16.3799 11.1533C16.7449 11.0317 17.0314 10.7449 17.1533 10.3799L17.21 10.209ZM8.92285 2.26562C9.40622 1.44443 10.5938 1.44443 11.0771 2.26562L14.1514 7.49121C14.6411 8.32435 14.0407 9.37477 13.0742 9.375H6.92578C5.95935 9.37477 5.35894 8.32435 5.84863 7.49121L8.92285 2.26562ZM6.92578 8.125H13.0742L10 2.89941L6.92578 8.125Z"/>
</mask>
<path d="M7.70801 11.459C8.39836 11.459 8.95801 12.0186 8.95801 12.709V17.292C8.95772 17.9821 8.39819 18.542 7.70801 18.542H3.125C2.43482 18.542 1.87529 17.9821 1.875 17.292V12.709C1.875 12.0186 2.43464 11.459 3.125 11.459H7.70801ZM12.4199 11.918C12.6056 11.3609 13.3944 11.3609 13.5801 11.918L13.6934 12.2598C13.9366 12.9899 14.51 13.5628 15.2402 13.8066L15.582 13.9199C16.1391 14.1056 16.1391 14.8944 15.582 15.0801L15.2402 15.1934C14.51 15.4365 13.9372 16.01 13.6934 16.7402L13.5801 17.082C13.3944 17.639 12.6056 17.639 12.4199 17.082L12.3066 16.7402C12.0635 16.01 11.49 15.4372 10.7598 15.1934L10.418 15.0801C9.86095 14.8944 9.86095 14.1056 10.418 13.9199L10.7598 13.8066C11.49 13.5635 12.0628 12.99 12.3066 12.2598L12.4199 11.918ZM3.125 17.292H7.70801V12.709H3.125V17.292ZM17.21 10.209C17.3028 9.93047 17.6972 9.93047 17.79 10.209L17.8467 10.3799C17.9683 10.745 18.255 11.0314 18.6201 11.1533L18.791 11.21C19.0694 11.3028 19.0694 11.6972 18.791 11.79L18.6201 11.8467C18.255 11.9683 17.9686 12.255 17.8467 12.6201L17.79 12.791C17.6972 13.0695 17.3028 13.0695 17.21 12.791L17.1533 12.6201C17.0317 12.2551 16.7449 11.9686 16.3799 11.8467L16.209 11.79C15.9305 11.6972 15.9305 11.3028 16.209 11.21L16.3799 11.1533C16.7449 11.0317 17.0314 10.7449 17.1533 10.3799L17.21 10.209ZM8.92285 2.26562C9.40622 1.44443 10.5938 1.44443 11.0771 2.26562L14.1514 7.49121C14.6411 8.32435 14.0407 9.37477 13.0742 9.375H6.92578C5.95935 9.37477 5.35894 8.32435 5.84863 7.49121L8.92285 2.26562ZM6.92578 8.125H13.0742L10 2.89941L6.92578 8.125Z" fill="white"/>
<path d="M8.95801 17.292L9.15801 17.2921V17.292H8.95801ZM1.875 17.292H1.675L1.675 17.2921L1.875 17.292ZM3.125 11.459V11.259H3.125L3.125 11.459ZM12.4199 11.918L12.2302 11.8547L12.2301 11.855L12.4199 11.918ZM13.5801 11.918L13.7699 11.855L13.7698 11.8547L13.5801 11.918ZM13.6934 12.2598L13.5035 12.3227L13.5036 12.323L13.6934 12.2598ZM15.2402 13.8066L15.1769 13.9963L15.1773 13.9965L15.2402 13.8066ZM15.582 13.9199L15.6453 13.7302L15.645 13.7301L15.582 13.9199ZM15.582 15.0801L15.645 15.2699L15.6453 15.2698L15.582 15.0801ZM15.2402 15.1934L15.1773 15.0035L15.177 15.0036L15.2402 15.1934ZM13.6934 16.7402L13.5037 16.6769L13.5035 16.6773L13.6934 16.7402ZM13.5801 17.082L13.7698 17.1453L13.7699 17.145L13.5801 17.082ZM12.4199 17.082L12.2301 17.145L12.2302 17.1453L12.4199 17.082ZM12.3066 16.7402L12.4965 16.6773L12.4964 16.677L12.3066 16.7402ZM10.7598 15.1934L10.8231 15.0037L10.8227 15.0035L10.7598 15.1934ZM10.418 15.0801L10.3547 15.2698L10.355 15.2699L10.418 15.0801ZM10.418 13.9199L10.355 13.7301L10.3547 13.7302L10.418 13.9199ZM10.7598 13.8066L10.8227 13.9965L10.823 13.9964L10.7598 13.8066ZM12.3066 12.2598L12.4963 12.3231L12.4965 12.3227L12.3066 12.2598ZM3.125 17.292H2.925V17.492H3.125V17.292ZM7.70801 17.292V17.492H7.90801V17.292H7.70801ZM7.70801 12.709H7.90801V12.509H7.70801V12.709ZM3.125 12.709V12.509H2.925V12.709H3.125ZM17.21 10.209L17.0202 10.1457L17.0201 10.1461L17.21 10.209ZM17.79 10.209L17.9799 10.1461L17.9798 10.1457L17.79 10.209ZM17.8467 10.3799L17.6568 10.4428L17.6569 10.4431L17.8467 10.3799ZM18.6201 11.1533L18.5568 11.343L18.5572 11.3432L18.6201 11.1533ZM18.791 11.21L18.8543 11.0202L18.8539 11.0201L18.791 11.21ZM18.791 11.79L18.8539 11.9799L18.8543 11.9798L18.791 11.79ZM18.6201 11.8467L18.5572 11.6568L18.5569 11.6569L18.6201 11.8467ZM17.8467 12.6201L17.657 12.5568L17.6568 12.5572L17.8467 12.6201ZM17.79 12.791L17.9798 12.8543L17.9799 12.8539L17.79 12.791ZM17.21 12.791L17.0201 12.8539L17.0202 12.8543L17.21 12.791ZM17.1533 12.6201L17.3432 12.5572L17.3431 12.5569L17.1533 12.6201ZM16.3799 11.8467L16.4433 11.657L16.4428 11.6568L16.3799 11.8467ZM16.209 11.79L16.1457 11.9798L16.1461 11.9799L16.209 11.79ZM16.209 11.21L16.1461 11.0201L16.1457 11.0202L16.209 11.21ZM16.3799 11.1533L16.4428 11.3432L16.4431 11.3431L16.3799 11.1533ZM17.1533 10.3799L17.343 10.4432L17.3432 10.4428L17.1533 10.3799ZM8.92285 2.26562L8.75049 2.16417L8.75047 2.16421L8.92285 2.26562ZM11.0771 2.26562L11.2495 2.16421L11.2495 2.16417L11.0771 2.26562ZM14.1514 7.49121L14.3238 7.38987L14.3237 7.3898L14.1514 7.49121ZM13.0742 9.375V9.575H13.0743L13.0742 9.375ZM6.92578 9.375L6.92573 9.575H6.92578V9.375ZM5.84863 7.49121L5.67625 7.3898L5.67621 7.38987L5.84863 7.49121ZM6.92578 8.125L6.7534 8.02359L6.57608 8.325H6.92578V8.125ZM13.0742 8.125V8.325H13.4239L13.2466 8.02359L13.0742 8.125ZM10 2.89941L10.1724 2.798L10 2.50499L9.82762 2.798L10 2.89941ZM7.70801 11.459V11.659C8.28791 11.659 8.75801 12.1291 8.75801 12.709H8.95801H9.15801C9.15801 11.9082 8.50882 11.259 7.70801 11.259V11.459ZM8.95801 12.709H8.75801V17.292H8.95801H9.15801V12.709H8.95801ZM8.95801 17.292L8.75801 17.2919C8.75777 17.8717 8.28765 18.342 7.70801 18.342V18.542V18.742C8.50873 18.742 9.15767 18.0925 9.15801 17.2921L8.95801 17.292ZM7.70801 18.542V18.342H3.125V18.542V18.742H7.70801V18.542ZM3.125 18.542V18.342C2.54536 18.342 2.07524 17.8717 2.075 17.2919L1.875 17.292L1.675 17.2921C1.67533 18.0925 2.32428 18.742 3.125 18.742V18.542ZM1.875 17.292H2.075V12.709H1.875H1.675V17.292H1.875ZM1.875 12.709H2.075C2.075 12.1291 2.5451 11.659 3.125 11.659L3.125 11.459L3.125 11.259C2.32419 11.259 1.675 11.9082 1.675 12.709H1.875ZM3.125 11.459V11.659H7.70801V11.459V11.259H3.125V11.459ZM12.4199 11.918L12.6097 11.9812C12.7346 11.6065 13.2654 11.6065 13.3903 11.9812L13.5801 11.918L13.7698 11.8547C13.5234 11.1154 12.4766 11.1154 12.2302 11.8547L12.4199 11.918ZM13.5801 11.918L13.3902 11.9809L13.5035 12.3227L13.6934 12.2598L13.8832 12.1968L13.7699 11.855L13.5801 11.918ZM13.6934 12.2598L13.5036 12.323C13.7667 13.113 14.3872 13.7327 15.1769 13.9963L15.2402 13.8066L15.3036 13.6169C14.6329 13.393 14.1064 12.8669 13.8831 12.1966L13.6934 12.2598ZM15.2402 13.8066L15.1773 13.9965L15.5191 14.1098L15.582 13.9199L15.645 13.7301L15.3032 13.6168L15.2402 13.8066ZM15.582 13.9199L15.5188 14.1097C15.8935 14.2346 15.8935 14.7654 15.5188 14.8903L15.582 15.0801L15.6453 15.2698C16.3846 15.0234 16.3846 13.9766 15.6453 13.7302L15.582 13.9199ZM15.582 15.0801L15.5191 14.8902L15.1773 15.0035L15.2402 15.1934L15.3032 15.3832L15.645 15.2699L15.582 15.0801ZM15.2402 15.1934L15.177 15.0036C14.387 15.2667 13.7674 15.8872 13.5037 16.6769L13.6934 16.7402L13.8831 16.8036C14.107 16.1329 14.6331 15.6064 15.3034 15.3831L15.2402 15.1934ZM13.6934 16.7402L13.5035 16.6773L13.3902 17.0191L13.5801 17.082L13.7699 17.145L13.8832 16.8032L13.6934 16.7402ZM13.5801 17.082L13.3903 17.0188C13.2654 17.3935 12.7346 17.3935 12.6097 17.0188L12.4199 17.082L12.2302 17.1453C12.4766 17.8846 13.5234 17.8846 13.7698 17.1453L13.5801 17.082ZM12.4199 17.082L12.6098 17.0191L12.4965 16.6773L12.3066 16.7402L12.1168 16.8032L12.2301 17.145L12.4199 17.082ZM12.3066 16.7402L12.4964 16.677C12.2333 15.887 11.6128 15.2674 10.8231 15.0037L10.7598 15.1934L10.6964 15.3831C11.3671 15.607 11.8936 16.1331 12.1169 16.8034L12.3066 16.7402ZM10.7598 15.1934L10.8227 15.0035L10.4809 14.8902L10.418 15.0801L10.355 15.2699L10.6968 15.3832L10.7598 15.1934ZM10.418 15.0801L10.4812 14.8903C10.1065 14.7654 10.1065 14.2346 10.4812 14.1097L10.418 13.9199L10.3547 13.7302C9.61537 13.9766 9.61536 15.0234 10.3547 15.2698L10.418 15.0801ZM10.418 13.9199L10.4809 14.1098L10.8227 13.9965L10.7598 13.8066L10.6968 13.6168L10.355 13.7301L10.418 13.9199ZM10.7598 13.8066L10.823 13.9964C11.613 13.7333 12.2326 13.1128 12.4963 12.3231L12.3066 12.2598L12.1169 12.1964C11.893 12.8671 11.3669 13.3936 10.6966 13.6169L10.7598 13.8066ZM12.3066 12.2598L12.4965 12.3227L12.6098 11.9809L12.4199 11.918L12.2301 11.855L12.1168 12.1968L12.3066 12.2598ZM3.125 17.292V17.492H7.70801V17.292V17.092H3.125V17.292ZM7.70801 17.292H7.90801V12.709H7.70801H7.50801V17.292H7.70801ZM7.70801 12.709V12.509H3.125V12.709V12.909H7.70801V12.709ZM3.125 12.709H2.925V17.292H3.125H3.325V12.709H3.125ZM17.21 10.209L17.3997 10.2722C17.4318 10.1761 17.5682 10.1761 17.6003 10.2722L17.79 10.209L17.9798 10.1457C17.8262 9.68489 17.1738 9.68489 17.0202 10.1457L17.21 10.209ZM17.79 10.209L17.6002 10.2719L17.6568 10.4428L17.8467 10.3799L18.0365 10.317L17.9799 10.1461L17.79 10.209ZM17.8467 10.3799L17.6569 10.4431C17.7985 10.868 18.1321 11.2012 18.5568 11.343L18.6201 11.1533L18.6835 10.9636C18.3779 10.8616 18.1381 10.6219 18.0364 10.3167L17.8467 10.3799ZM18.6201 11.1533L18.5572 11.3432L18.7281 11.3998L18.791 11.21L18.8539 11.0201L18.683 10.9635L18.6201 11.1533ZM18.791 11.21L18.7277 11.3997C18.8238 11.4318 18.8238 11.5683 18.7277 11.6003L18.791 11.79L18.8543 11.9798C19.315 11.8261 19.315 11.1739 18.8543 11.0202L18.791 11.21ZM18.791 11.79L18.7281 11.6002L18.5572 11.6568L18.6201 11.8467L18.683 12.0365L18.8539 11.9799L18.791 11.79ZM18.6201 11.8467L18.5569 11.6569C18.132 11.7985 17.7988 12.1322 17.657 12.5568L17.8467 12.6201L18.0364 12.6835C18.1384 12.3779 18.3781 12.1381 18.6833 12.0364L18.6201 11.8467ZM17.8467 12.6201L17.6568 12.5572L17.6002 12.7281L17.79 12.791L17.9799 12.8539L18.0365 12.683L17.8467 12.6201ZM17.79 12.791L17.6003 12.7278C17.5682 12.8239 17.4318 12.8239 17.3997 12.7278L17.21 12.791L17.0202 12.8543C17.1738 13.3151 17.8262 13.3151 17.9798 12.8543L17.79 12.791ZM17.21 12.791L17.3998 12.7281L17.3432 12.5572L17.1533 12.6201L16.9635 12.683L17.0201 12.8539L17.21 12.791ZM17.1533 12.6201L17.3431 12.5569C17.2016 12.132 16.8678 11.7988 16.4433 11.657L16.3799 11.8467L16.3165 12.0364C16.622 12.1384 16.8619 12.3782 16.9636 12.6833L17.1533 12.6201ZM16.3799 11.8467L16.4428 11.6568L16.2719 11.6002L16.209 11.79L16.1461 11.9799L16.317 12.0365L16.3799 11.8467ZM16.209 11.79L16.2722 11.6003C16.1761 11.5682 16.1761 11.4318 16.2722 11.3997L16.209 11.21L16.1457 11.0202C15.6849 11.1738 15.6849 11.8262 16.1457 11.9798L16.209 11.79ZM16.209 11.21L16.2719 11.3998L16.4428 11.3432L16.3799 11.1533L16.317 10.9635L16.1461 11.0201L16.209 11.21ZM16.3799 11.1533L16.4431 11.3431C16.8679 11.2015 17.2012 10.8678 17.343 10.4432L17.1533 10.3799L16.9636 10.3165C16.8616 10.622 16.6218 10.8619 16.3167 10.9636L16.3799 11.1533ZM17.1533 10.3799L17.3432 10.4428L17.3998 10.2719L17.21 10.209L17.0201 10.1461L16.9635 10.317L17.1533 10.3799ZM8.92285 2.26562L9.09521 2.36708C9.50124 1.67728 10.4988 1.67728 10.9048 2.36708L11.0771 2.26562L11.2495 2.16417C10.6888 1.21158 9.31121 1.21158 8.75049 2.16417L8.92285 2.26562ZM11.0771 2.26562L10.9048 2.36704L13.979 7.59262L14.1514 7.49121L14.3237 7.3898L11.2495 2.16421L11.0771 2.26562ZM14.1514 7.49121L13.9789 7.59256C14.3903 8.29249 13.8859 9.17481 13.0742 9.175L13.0742 9.375L13.0743 9.575C14.1954 9.57474 14.8918 8.35621 14.3238 7.38987L14.1514 7.49121ZM13.0742 9.375V9.175H6.92578V9.375V9.575H13.0742V9.375ZM6.92578 9.375L6.92583 9.175C6.11415 9.17481 5.60965 8.29249 6.02105 7.59256L5.84863 7.49121L5.67621 7.38987C5.10822 8.35621 5.80455 9.57474 6.92573 9.575L6.92578 9.375ZM5.84863 7.49121L6.02101 7.59262L9.09523 2.36704L8.92285 2.26562L8.75047 2.16421L5.67625 7.3898L5.84863 7.49121ZM6.92578 8.125V8.325H13.0742V8.125V7.925H6.92578V8.125ZM13.0742 8.125L13.2466 8.02359L10.1724 2.798L10 2.89941L9.82762 3.00083L12.9018 8.22641L13.0742 8.125ZM10 2.89941L9.82762 2.798L6.7534 8.02359L6.92578 8.125L7.09816 8.22641L10.1724 3.00083L10 2.89941Z" fill="white" mask="url(#path-1-outside-1_71_1980)"/>
</svg>
