<svg width="18" height="18" viewBox="0 0 18 18" fill="none" xmlns="http://www.w3.org/2000/svg">
<path d="M1.5 4.5V0.75H5.25V2.25H3V4.5H1.5ZM15 4.5V2.25H12.75V0.75H16.5V4.5H15ZM1.5 17.25V13.5H3V15.75H5.25V17.25H1.5ZM12.75 17.25V15.75H15V13.5H16.5V17.25H12.75ZM5.25 13.5H12.75V4.5H5.25V13.5ZM5.25 15C4.8375 15 4.4845 14.8533 4.191 14.5597C3.8975 14.2662 3.7505 13.913 3.75 13.5V4.5C3.75 4.0875 3.897 3.7345 4.191 3.441C4.485 3.1475 4.838 3.0005 5.25 3H12.75C13.1625 3 13.5157 3.147 13.8097 3.441C14.1038 3.735 14.2505 4.088 14.25 4.5V13.5C14.25 13.9125 14.1033 14.2657 13.8097 14.5597C13.5162 14.8538 13.163 15.0005 12.75 15H5.25ZM6.75 7.5H11.25V6H6.75V7.5ZM6.75 9.75H11.25V8.25H6.75V9.75ZM6.75 12H11.25V10.5H6.75V12Z" fill="#4E5969"/>
</svg>
