<svg width="18" height="18" viewBox="0 0 18 18" fill="none" xmlns="http://www.w3.org/2000/svg">
<g clip-path="url(#clip0_72_4557)">
<path fill-rule="evenodd" clip-rule="evenodd" d="M3.375 5.25H1.875V3.75H3.375V5.25ZM16.125 5.25H4.875V3.75H16.125V5.25ZM3.375 9.75H1.875V8.25H3.375V9.75ZM16.125 9.75H4.875V8.25H16.125V9.75ZM3.375 14.25H1.875V12.75H3.375V14.25ZM16.125 14.25H4.875V12.75H16.125V14.25Z" fill="#000D4D"/>
<path fill-rule="evenodd" clip-rule="evenodd" d="M3.375 5.25H1.875V3.75H3.375V5.25ZM16.125 5.25H4.875V3.75H16.125V5.25ZM3.375 9.75H1.875V8.25H3.375V9.75ZM16.125 9.75H4.875V8.25H16.125V9.75ZM3.375 14.25H1.875V12.75H3.375V14.25ZM16.125 14.25H4.875V12.75H16.125V14.25Z" fill="black" fill-opacity="0.2"/>
<path fill-rule="evenodd" clip-rule="evenodd" d="M3.375 5.25H1.875V3.75H3.375V5.25ZM16.125 5.25H4.875V3.75H16.125V5.25ZM3.375 9.75H1.875V8.25H3.375V9.75ZM16.125 9.75H4.875V8.25H16.125V9.75ZM3.375 14.25H1.875V12.75H3.375V14.25ZM16.125 14.25H4.875V12.75H16.125V14.25Z" fill="black" fill-opacity="0.2"/>
<path fill-rule="evenodd" clip-rule="evenodd" d="M3.375 5.25H1.875V3.75H3.375V5.25ZM16.125 5.25H4.875V3.75H16.125V5.25ZM3.375 9.75H1.875V8.25H3.375V9.75ZM16.125 9.75H4.875V8.25H16.125V9.75ZM3.375 14.25H1.875V12.75H3.375V14.25ZM16.125 14.25H4.875V12.75H16.125V14.25Z" fill="black" fill-opacity="0.2"/>
<path fill-rule="evenodd" clip-rule="evenodd" d="M3.375 5.25H1.875V3.75H3.375V5.25ZM16.125 5.25H4.875V3.75H16.125V5.25ZM3.375 9.75H1.875V8.25H3.375V9.75ZM16.125 9.75H4.875V8.25H16.125V9.75ZM3.375 14.25H1.875V12.75H3.375V14.25ZM16.125 14.25H4.875V12.75H16.125V14.25Z" fill="black" fill-opacity="0.2"/>
<path fill-rule="evenodd" clip-rule="evenodd" d="M3.375 5.25H1.875V3.75H3.375V5.25ZM16.125 5.25H4.875V3.75H16.125V5.25ZM3.375 9.75H1.875V8.25H3.375V9.75ZM16.125 9.75H4.875V8.25H16.125V9.75ZM3.375 14.25H1.875V12.75H3.375V14.25ZM16.125 14.25H4.875V12.75H16.125V14.25Z" fill="black" fill-opacity="0.2"/>
<path fill-rule="evenodd" clip-rule="evenodd" d="M3.375 5.25H1.875V3.75H3.375V5.25ZM16.125 5.25H4.875V3.75H16.125V5.25ZM3.375 9.75H1.875V8.25H3.375V9.75ZM16.125 9.75H4.875V8.25H16.125V9.75ZM3.375 14.25H1.875V12.75H3.375V14.25ZM16.125 14.25H4.875V12.75H16.125V14.25Z" fill="black" fill-opacity="0.2"/>
<path fill-rule="evenodd" clip-rule="evenodd" d="M3.375 5.25H1.875V3.75H3.375V5.25ZM16.125 5.25H4.875V3.75H16.125V5.25ZM3.375 9.75H1.875V8.25H3.375V9.75ZM16.125 9.75H4.875V8.25H16.125V9.75ZM3.375 14.25H1.875V12.75H3.375V14.25ZM16.125 14.25H4.875V12.75H16.125V14.25Z" fill="black" fill-opacity="0.2"/>
<path fill-rule="evenodd" clip-rule="evenodd" d="M3.375 5.25H1.875V3.75H3.375V5.25ZM16.125 5.25H4.875V3.75H16.125V5.25ZM3.375 9.75H1.875V8.25H3.375V9.75ZM16.125 9.75H4.875V8.25H16.125V9.75ZM3.375 14.25H1.875V12.75H3.375V14.25ZM16.125 14.25H4.875V12.75H16.125V14.25Z" fill="black" fill-opacity="0.2"/>
<path fill-rule="evenodd" clip-rule="evenodd" d="M3.375 5.25H1.875V3.75H3.375V5.25ZM16.125 5.25H4.875V3.75H16.125V5.25ZM3.375 9.75H1.875V8.25H3.375V9.75ZM16.125 9.75H4.875V8.25H16.125V9.75ZM3.375 14.25H1.875V12.75H3.375V14.25ZM16.125 14.25H4.875V12.75H16.125V14.25Z" fill="black" fill-opacity="0.2"/>
</g>
<defs>
<clipPath id="clip0_72_4557">
<rect width="18" height="18" fill="white"/>
</clipPath>
</defs>
</svg>
