<svg width="18" height="18" viewBox="0 0 18 18" fill="none" xmlns="http://www.w3.org/2000/svg">
<g clip-path="url(#clip0_3413_15730)">
<path d="M8.9703 7.3736L4.5 11.6999H7.2V17.0999H10.8V11.6999H13.5L8.9703 7.3736ZM16.2 0.899902H1.8C0.81 0.899902 0 1.7099 0 2.6999V13.4999C0 14.4899 0.81 15.2999 1.8 15.2999H5.4V13.4999H1.8V5.3999H16.2V13.4999H12.6V15.2999H16.2C17.19 15.2999 18 14.4899 18 13.4999V2.6999C18 1.7099 17.19 0.899902 16.2 0.899902ZM2.25 3.8249C2.16136 3.8249 2.07358 3.80744 1.99169 3.77352C1.90979 3.7396 1.83538 3.68988 1.7727 3.6272C1.71002 3.56452 1.6603 3.49011 1.62638 3.40821C1.59246 3.32632 1.575 3.23854 1.575 3.1499C1.575 3.06126 1.59246 2.97349 1.62638 2.89159C1.6603 2.8097 1.71002 2.73528 1.7727 2.67261C1.83538 2.60993 1.90979 2.56021 1.99169 2.52628C2.07358 2.49236 2.16136 2.4749 2.25 2.4749C2.42902 2.4749 2.60071 2.54602 2.7273 2.67261C2.85388 2.79919 2.925 2.97088 2.925 3.1499C2.925 3.32892 2.85388 3.50061 2.7273 3.6272C2.60071 3.75379 2.42902 3.8249 2.25 3.8249ZM4.05 3.8249C3.96136 3.8249 3.87358 3.80744 3.79169 3.77352C3.70979 3.7396 3.63538 3.68988 3.5727 3.6272C3.51002 3.56452 3.4603 3.49011 3.42638 3.40821C3.39246 3.32632 3.375 3.23854 3.375 3.1499C3.375 3.06126 3.39246 2.97349 3.42638 2.89159C3.4603 2.8097 3.51002 2.73528 3.5727 2.67261C3.63538 2.60993 3.70979 2.56021 3.79169 2.52628C3.87358 2.49236 3.96136 2.4749 4.05 2.4749C4.22902 2.4749 4.40071 2.54602 4.5273 2.67261C4.65388 2.79919 4.725 2.97088 4.725 3.1499C4.725 3.32892 4.65388 3.50061 4.5273 3.6272C4.40071 3.75379 4.22902 3.8249 4.05 3.8249ZM16.2 3.5999H5.4V2.6999H16.2171L16.2 3.5999Z" fill="#4E5969"/>
</g>
<defs>
<clipPath id="clip0_3413_15730">
<rect width="18" height="18" fill="white"/>
</clipPath>
</defs>
</svg>
