<svg width="1148" height="681" viewBox="0 0 1148 681" fill="none" xmlns="http://www.w3.org/2000/svg">
<g filter="url(#filter0_dddddd_1978_6380)">
<g clip-path="url(#clip0_1978_6380)">
<rect width="1148" height="77" fill="#EDF1F9"/>
<path fill-rule="evenodd" clip-rule="evenodd" d="M92 48.5C97.5228 48.5 102 44.0228 102 38.5C102 32.9772 97.5228 28.5 92 28.5C86.4772 28.5 82 32.9772 82 38.5C82 44.0228 86.4772 48.5 92 48.5Z" fill="#ED6A5E"/>
<path fill-rule="evenodd" clip-rule="evenodd" d="M128 48.5C133.523 48.5 138 44.0228 138 38.5C138 32.9772 133.523 28.5 128 28.5C122.477 28.5 118 32.9772 118 38.5C118 44.0228 122.477 48.5 128 48.5Z" fill="#F4BF4F"/>
<path fill-rule="evenodd" clip-rule="evenodd" d="M164 48.5C169.523 48.5 174 44.0228 174 38.5C174 32.9772 169.523 28.5 164 28.5C158.477 28.5 154 32.9772 154 38.5C154 44.0228 158.477 48.5 164 48.5Z" fill="#61C554"/>
<line y1="76.5" x2="1148" y2="76.5" stroke="black" stroke-opacity="0.1"/>
<rect y="77" width="1148" height="604" fill="white"/>
</g>
<rect width="1148" height="681" rx="16" stroke="black" stroke-opacity="0.1"/>
</g>
<path d="M292.476 33.91L292.19 35.054C292.74 37.628 293.444 39.85 294.324 41.698C295.182 39.476 295.644 36.88 295.732 33.91H292.476ZM293.598 43.282C292.74 41.588 292.014 39.652 291.42 37.452C291.024 38.464 290.584 39.366 290.122 40.158L289.132 38.948C290.43 36.484 291.31 33.162 291.75 28.982L293.29 29.246C293.158 30.368 292.982 31.424 292.806 32.392H298.614V33.91H297.184C297.074 37.584 296.392 40.73 295.16 43.326C296.304 45.306 297.646 46.824 299.23 47.902L298.372 49.2C296.832 48.1 295.512 46.604 294.412 44.756C293.356 46.516 291.992 47.99 290.342 49.178L289.528 47.858C291.244 46.67 292.586 45.152 293.598 43.282ZM283.17 39.256L284.644 39.432C284.49 39.85 284.336 40.246 284.204 40.642H288.802V41.94C288.318 43.392 287.504 44.646 286.36 45.702C287.416 46.186 288.428 46.67 289.396 47.198L288.538 48.43C287.57 47.858 286.448 47.264 285.15 46.692C283.698 47.704 281.872 48.518 279.672 49.134L278.924 47.814C280.728 47.33 282.29 46.736 283.566 46.01C282.598 45.592 281.586 45.174 280.508 44.778C281.08 43.81 281.586 42.908 282.026 42.028H279.43V40.642H282.642C282.84 40.158 283.016 39.696 283.17 39.256ZM284.908 45.086C286.008 44.206 286.844 43.172 287.372 42.028H283.588C283.236 42.776 282.84 43.48 282.4 44.14C283.28 44.448 284.116 44.756 284.908 45.086ZM281.168 29.444C281.696 30.302 282.136 31.226 282.532 32.194L281.388 32.722C280.926 31.644 280.442 30.698 279.914 29.862L281.168 29.444ZM287.856 29.378L289 29.906C288.56 30.874 288.01 31.82 287.306 32.744L286.184 32.172C286.888 31.226 287.46 30.302 287.856 29.378ZM279.474 33.25H283.764V29.048H285.238V33.25H289.242V34.636H285.238V34.878C286.426 35.472 287.658 36.154 288.89 36.902L288.076 38.134C286.976 37.254 286.03 36.55 285.238 36.022V38.882H283.764V34.702C283.038 36.44 281.718 37.936 279.826 39.212L279.056 37.936C280.75 36.946 281.938 35.846 282.598 34.636H279.474V33.25ZM303.608 49.002H301.738L301.408 47.506C301.98 47.572 302.552 47.616 303.08 47.616C303.63 47.616 303.916 47.286 303.916 46.67V41.28C303.036 41.61 302.178 41.918 301.32 42.182L300.924 40.642C301.936 40.4 302.948 40.092 303.916 39.74V34.768H301.276V33.25H303.916V29.092H305.456V33.25H307.568V34.768H305.456V39.102C306.16 38.794 306.842 38.464 307.502 38.112V39.674C306.82 40.026 306.138 40.334 305.456 40.642V47.066C305.456 48.342 304.84 49.002 303.608 49.002ZM310.186 39.278C309.922 43.04 309.064 46.34 307.612 49.2L306.38 48.1C307.942 45.196 308.734 41.412 308.756 36.792V29.906H320.35V35.252H316.214V37.848H320.922V39.278H316.214V41.984H319.91V49.2H318.436V48.122H312.474V49.2H311V41.984H314.674V39.278H310.186ZM314.674 35.252H310.296V36.792C310.296 37.144 310.274 37.496 310.274 37.848H314.674V35.252ZM312.474 46.714H318.436V43.392H312.474V46.714ZM318.81 31.38H310.296V33.822H318.81V31.38ZM324.596 29.488C325.916 29.906 327.148 30.412 328.248 31.028L327.412 32.304C326.224 31.6 325.036 31.072 323.826 30.676L324.596 29.488ZM331.68 28.96L333.242 29.158C333.066 29.642 332.89 30.126 332.67 30.566H341.536V31.512C341.272 32.59 340.92 33.668 340.48 34.724L338.962 34.262C339.336 33.58 339.644 32.81 339.908 31.952H336.168C336.08 32.48 335.948 32.964 335.772 33.404C336.916 35.098 339.182 36.264 342.57 36.902L341.998 38.31C338.786 37.65 336.498 36.462 335.134 34.702C334.87 35.098 334.584 35.472 334.254 35.824C333.176 36.836 331.416 37.65 328.952 38.222L328.358 36.814C330.514 36.352 332.076 35.714 333.044 34.878C333.836 34.152 334.386 33.184 334.65 31.952H331.834C331.218 32.744 330.492 33.47 329.656 34.13L328.732 32.898C330.184 31.842 331.152 30.522 331.68 28.96ZM340.04 38.816V45.35H338.456V40.29H327.478V45.526H325.894V38.816H340.04ZM332.34 41.126L333.924 41.258C333.616 44.052 332.956 45.922 331.922 46.89C330.778 48.078 328.226 48.848 324.266 49.156L323.65 47.748C327.148 47.55 329.458 46.956 330.58 45.944C331.57 44.998 332.164 43.392 332.34 41.126ZM327.654 33.624L328.578 34.702C327.478 35.846 326.114 36.924 324.486 37.936L323.43 36.704C325.102 35.758 326.51 34.724 327.654 33.624ZM334.43 45.284C337.29 46.032 339.886 46.934 342.24 47.99L341.382 49.31C338.874 48.122 336.278 47.176 333.616 46.494L334.43 45.284ZM355.044 28.74C355.396 29.488 355.748 30.346 356.078 31.292H363.8V32.81H359.972C359.708 33.976 359.356 35.098 358.894 36.154H364.262V37.672H348.466V40.928C348.378 44.36 347.586 47.11 346.068 49.178L344.858 48.1C346.134 46.384 346.816 43.986 346.86 40.928V36.154H351.37L350.446 32.81H346.42V31.292H354.472C354.164 30.456 353.79 29.708 353.394 29.026L355.044 28.74ZM352.932 36.154H357.376C357.86 35.098 358.234 33.976 358.454 32.81H352.008L352.932 36.154Z" fill="#1D2129"/>
<path d="M441.04 33.624V44.294H438.928V35.67H428.984V44.316H426.872V33.624H432.482C432.614 32.986 432.746 32.348 432.834 31.688H424.254V29.708H443.746V31.688H435.1C434.968 32.348 434.836 33.008 434.66 33.624H441.04ZM435.606 44.052C438.422 44.954 440.996 46.054 443.306 47.352L442.008 49.332C439.544 47.836 437.036 46.648 434.462 45.79L435.606 44.052ZM432.944 36.726H435.056V40.224C434.924 42.666 434.132 44.624 432.68 46.098C431.272 47.462 428.94 48.496 425.728 49.244L424.54 47.374C427.752 46.67 429.93 45.79 431.074 44.712C432.218 43.568 432.834 42.072 432.944 40.224V36.726ZM446.144 29.708H465.856V31.71H457.188C457.012 32.502 456.792 33.272 456.506 34.02H464.822V49.332H462.798V48.408H449.268V49.332H447.244V34.02H454.394C454.68 33.272 454.9 32.502 455.054 31.71H446.144V29.708ZM449.268 46.472H451.776V35.934H449.268V46.472ZM453.734 46.472H458.266V44.096H453.734V46.472ZM460.224 46.472H462.798V35.934H460.224V46.472ZM453.734 42.314H458.266V40.026H453.734V42.314ZM453.734 38.222H458.266V35.934H453.734V38.222ZM484.424 37.606V42.226H473.71V43.392H485.458V49.266H483.368V48.474H473.71V49.244H471.62V37.606H484.424ZM473.71 46.626H483.368V45.042H473.71V46.626ZM473.71 40.554H482.378V39.278H473.71V40.554ZM487.46 34.856V39.058H485.414V36.616H470.586V39.058H468.54V34.856H477.054C476.878 34.416 476.68 34.02 476.482 33.668L478.33 33.36L477.956 33.118C478.968 31.798 479.716 30.39 480.156 28.872L482.158 29.312C482.026 29.686 481.916 30.038 481.784 30.39H487.9V32.216H484.314C484.666 32.7 484.952 33.184 485.194 33.624L483.346 34.306C482.994 33.602 482.576 32.898 482.092 32.216H480.97C480.596 32.942 480.178 33.624 479.716 34.24L478.66 33.558C478.836 33.954 478.99 34.394 479.166 34.856H487.46ZM471.51 32.216C471.026 33.008 470.498 33.756 469.926 34.438L468.1 33.294C469.376 31.93 470.278 30.434 470.828 28.85L472.83 29.29C472.698 29.664 472.544 30.038 472.412 30.39H477.956V32.216H474.656C475.052 32.766 475.404 33.294 475.668 33.8L473.754 34.526C473.38 33.734 472.962 32.964 472.478 32.216H471.51ZM497.954 29.708H509.086V40.224H504.576V42.424H509.372V44.36H504.576V46.648H510.142V48.65H496.832V46.648H502.508V44.36H497.69V42.424H502.508V40.224H497.954V29.708ZM507.084 38.376V35.868H504.576V38.376H507.084ZM502.508 38.376V35.868H499.956V38.376H502.508ZM499.956 34.064H502.508V31.556H499.956V34.064ZM504.576 31.556V34.064H507.084V31.556H504.576ZM490.364 36.946H492.542V32.238H490.034V30.258H497.14V32.238H494.654V36.946H496.876V38.948H494.654V43.348C495.402 43.084 496.128 42.82 496.832 42.512V44.536C494.808 45.328 492.652 46.01 490.342 46.56L489.836 44.558C490.76 44.404 491.662 44.206 492.542 43.986V38.948H490.364V36.946Z" fill="#1D2129"/>
<path d="M572.794 43.854H566.018V42.424H574.774V41.28H576.358V42.424H584.982V43.854H578.316C579.812 45.262 582.122 46.384 585.224 47.22L584.542 48.628C580.89 47.396 578.316 45.812 576.776 43.854H576.358V49.222H574.774V43.854H574.356C572.97 45.724 570.396 47.352 566.634 48.716L565.798 47.352C569.186 46.318 571.518 45.152 572.794 43.854ZM568.174 34.504C567.602 35.164 566.986 35.78 566.326 36.396L565.424 35.164C567.382 33.404 568.834 31.336 569.802 28.96L571.276 29.334C571.056 29.928 570.792 30.5 570.528 31.05H575.28C574.972 30.368 574.664 29.73 574.312 29.158L575.94 28.894C576.248 29.532 576.534 30.258 576.82 31.05H583.926V32.37H576.93V33.866H583.112V35.098H576.93V36.55H583.112V37.782H576.93V39.344H584.344V40.686H568.174V34.504ZM575.368 39.344V37.782H569.648V39.344H575.368ZM575.368 36.55V35.098H569.648V36.55H575.368ZM575.368 33.866V32.37H569.758L569.648 32.546V33.866H575.368ZM602.868 28.96C603.924 29.752 604.826 30.566 605.574 31.38L604.562 32.392H607.246V33.91H600.47C600.624 36.638 600.91 38.794 601.306 40.378C601.438 40.928 601.592 41.434 601.746 41.918C602.846 40.158 603.726 38.09 604.408 35.736L605.838 36.352C604.958 39.256 603.814 41.72 602.406 43.7C602.714 44.404 603.044 45.02 603.396 45.526C604.122 46.582 604.716 47.11 605.156 47.11C605.552 47.088 605.926 45.944 606.256 43.678L607.686 44.47C607.158 47.396 606.41 48.87 605.42 48.87C604.496 48.87 603.506 48.21 602.45 46.89C602.054 46.362 601.68 45.746 601.35 45.064C599.81 46.868 598.006 48.21 595.938 49.134L595.058 47.814C597.258 46.824 599.128 45.372 600.646 43.458C600.338 42.644 600.052 41.764 599.81 40.818C599.326 38.97 599.018 36.66 598.842 33.91H591.296V37.562H596.686C596.642 41.28 596.466 43.678 596.18 44.756C595.894 45.702 595.212 46.186 594.112 46.23C593.584 46.23 592.946 46.186 592.242 46.142L591.758 44.712C592.616 44.756 593.342 44.778 593.936 44.778C594.42 44.756 594.728 44.426 594.86 43.81C594.992 43.062 595.058 41.478 595.102 39.058H591.296V39.718C591.208 43.656 590.328 46.824 588.7 49.2L587.49 48.122C588.898 46.098 589.624 43.304 589.69 39.718V32.392H598.776C598.732 31.292 598.71 30.17 598.71 28.982H600.338C600.338 30.214 600.36 31.336 600.404 32.392H604.518C603.858 31.6 602.978 30.786 601.856 29.928L602.868 28.96ZM626.892 31.644V49.178H625.286V47.814H613.714V49.178H612.108V31.644H616.816C617.3 30.764 617.674 29.884 617.894 28.96L619.5 29.18C619.258 30.06 618.906 30.896 618.466 31.644H626.892ZM613.714 46.296H625.286V42.71H613.714V46.296ZM613.714 41.258H625.286V37.892H613.714V41.258ZM613.714 36.44H625.286V33.162H613.714V36.44ZM632.48 30.566H640.444V32.084H632.48V30.566ZM631.622 36.506H641.28V38.046H636.198C635.318 41.39 634.548 43.766 633.888 45.218C635.626 44.866 637.364 44.36 639.08 43.722C638.508 42.534 637.958 41.456 637.386 40.444L638.728 39.784C639.784 41.676 640.774 43.722 641.698 45.944L640.334 46.648C640.114 46.076 639.894 45.548 639.674 45.042C637.342 45.878 634.79 46.538 632.062 47.022L631.688 45.526C631.842 45.482 631.952 45.438 632.04 45.394C632.7 44.492 633.58 42.05 634.68 38.046H631.622V36.506ZM644.58 29.092H646.164V33.536H650.96C650.96 40.422 650.85 44.668 650.652 46.296C650.432 48.078 649.354 48.98 647.462 48.98C647.088 48.98 646.45 48.958 645.526 48.914L645.174 47.506C645.966 47.55 646.67 47.594 647.264 47.594C648.342 47.594 648.98 46.956 649.156 45.702C649.288 44.536 649.376 40.994 649.42 35.076H646.164V35.34C646.098 41.676 644.558 46.318 641.566 49.244L640.378 48.21C643.128 45.548 644.536 41.258 644.58 35.34V35.076H641.61V33.536H644.58V29.092ZM660.134 28.872L661.608 29.554C660.838 31.402 659.848 33.118 658.66 34.746V49.244H657.076V36.682C656.086 37.76 655.008 38.794 653.842 39.762L653.336 38.112C656.46 35.428 658.726 32.348 660.134 28.872ZM670.276 48.848H666.074C664.534 48.848 663.764 48.056 663.764 46.516V39.806C662.84 40.334 661.894 40.818 660.926 41.28L660.222 39.784C661.454 39.212 662.642 38.618 663.764 37.958V29.136H665.348V36.99C667.658 35.45 669.682 33.69 671.42 31.732L672.52 32.986C670.474 35.186 668.076 37.144 665.348 38.86V46.296C665.348 46.978 665.7 47.33 666.448 47.33H670.012C670.584 47.33 671.024 47.132 671.288 46.78C671.53 46.428 671.684 45.152 671.772 42.974L673.246 43.458C673.092 45.988 672.828 47.528 672.454 48.056C672.058 48.584 671.332 48.848 670.276 48.848Z" fill="#1D2129"/>
<path d="M740.406 46.714H749.58C750.944 43.59 752.132 39.74 753.144 35.12L754.706 35.538C753.782 39.718 752.66 43.458 751.296 46.714H755.938V48.254H740.406V46.714ZM742.804 36.198C743.684 38.53 744.476 41.236 745.18 44.272L743.684 44.646C743.09 41.874 742.342 39.19 741.418 36.638L742.804 36.198ZM747.05 34.636C747.798 37.056 748.48 39.85 749.096 42.974L747.578 43.326C747.094 40.466 746.456 37.716 745.664 35.076L747.05 34.636ZM747.072 28.85C747.49 29.532 747.886 30.302 748.238 31.138H756.29V32.678H739.988V37.584C739.9 42.424 739.152 46.296 737.722 49.2L736.424 48.034C737.656 45.526 738.316 42.05 738.36 37.584V31.138H746.522C746.17 30.434 745.774 29.774 745.334 29.158L747.072 28.85ZM762.186 36.704V40.554H767.774V36.704H762.186ZM762.098 42.006C761.856 44.822 761.042 47.154 759.634 49.002L758.424 47.924C759.832 45.966 760.558 43.48 760.602 40.466V29.906H776.992V46.384C776.992 47.924 776.222 48.694 774.682 48.694H772.152L771.734 47.132C772.614 47.176 773.428 47.22 774.176 47.22C774.968 47.22 775.386 46.758 775.386 45.834V42.006H769.402V48.452H767.774V42.006H762.098ZM775.386 40.554V36.704H769.402V40.554H775.386ZM775.386 35.23V31.446H769.402V35.23H775.386ZM767.774 31.446H762.186V35.23H767.774V31.446ZM783.042 29.444C784.428 30.544 785.594 31.622 786.54 32.7L785.462 33.8C784.604 32.744 783.438 31.644 781.942 30.478L783.042 29.444ZM780.49 35.802H785.088V45.57C785.88 44.91 786.738 44.162 787.64 43.304L788.08 44.976C786.694 46.274 785.22 47.418 783.68 48.43L783.064 47.022C783.372 46.714 783.548 46.384 783.548 46.032V37.32H780.49V35.802ZM788.3 38.376H798.772V39.828C798.068 41.896 796.924 43.678 795.318 45.174C796.814 46.208 798.64 47.11 800.796 47.902L799.938 49.266C797.65 48.342 795.714 47.308 794.174 46.12C792.414 47.44 790.236 48.474 787.662 49.266L786.782 47.924C789.224 47.198 791.27 46.252 792.92 45.086C791.248 43.546 790.126 41.83 789.51 39.916H788.3V38.376ZM791.006 39.916C791.578 41.5 792.59 42.93 794.042 44.184C795.45 42.952 796.506 41.544 797.21 39.916H791.006ZM789.994 29.884H797.386V34.636C797.386 35.186 797.672 35.472 798.244 35.472H800.268V36.924H797.848C796.484 36.924 795.824 36.264 795.824 34.966V31.38H791.556V32.15C791.556 34.482 790.412 36.286 788.168 37.562L787.112 36.352C789.026 35.406 789.994 34.064 789.994 32.326V29.884ZM803.062 35.252H811.62L811.752 33.976H804.536V29.862H820.464V33.976H813.336L813.204 35.252H821.96V36.462H813.028C812.94 36.902 812.874 37.32 812.786 37.716H819.166V47.418H822.356V48.694H802.666V47.418H805.856V37.716H811.202C811.29 37.298 811.356 36.88 811.444 36.462H803.062V35.252ZM807.396 47.418H817.604V45.966H807.396V47.418ZM807.396 44.976H817.604V43.59H807.396V44.976ZM807.396 42.578H817.604V41.192H807.396V42.578ZM807.396 40.202H817.604V38.816H807.396V40.202ZM818.968 32.854V31.028H815.69V32.854H818.968ZM814.238 32.854V31.028H810.762V32.854H814.238ZM809.332 32.854V31.028H806.054V32.854H809.332Z" fill="#1D2129"/>
<path d="M900.406 46.714H909.58C910.944 43.59 912.132 39.74 913.144 35.12L914.706 35.538C913.782 39.718 912.66 43.458 911.296 46.714H915.938V48.254H900.406V46.714ZM902.804 36.198C903.684 38.53 904.476 41.236 905.18 44.272L903.684 44.646C903.09 41.874 902.342 39.19 901.418 36.638L902.804 36.198ZM907.05 34.636C907.798 37.056 908.48 39.85 909.096 42.974L907.578 43.326C907.094 40.466 906.456 37.716 905.664 35.076L907.05 34.636ZM907.072 28.85C907.49 29.532 907.886 30.302 908.238 31.138H916.29V32.678H899.988V37.584C899.9 42.424 899.152 46.296 897.722 49.2L896.424 48.034C897.656 45.526 898.316 42.05 898.36 37.584V31.138H906.522C906.17 30.434 905.774 29.774 905.334 29.158L907.072 28.85ZM922.186 36.704V40.554H927.774V36.704H922.186ZM922.098 42.006C921.856 44.822 921.042 47.154 919.634 49.002L918.424 47.924C919.832 45.966 920.558 43.48 920.602 40.466V29.906H936.992V46.384C936.992 47.924 936.222 48.694 934.682 48.694H932.152L931.734 47.132C932.614 47.176 933.428 47.22 934.176 47.22C934.968 47.22 935.386 46.758 935.386 45.834V42.006H929.402V48.452H927.774V42.006H922.098ZM935.386 40.554V36.704H929.402V40.554H935.386ZM935.386 35.23V31.446H929.402V35.23H935.386ZM927.774 31.446H922.186V35.23H927.774V31.446ZM942.052 35.78L943.79 29.664L945.352 29.928L944.098 34.262H947.948C948.388 32.546 948.74 30.764 949.004 28.872L950.61 29.07C950.324 30.918 949.972 32.634 949.576 34.262H959.872V35.78H949.158C948.894 36.66 948.63 37.496 948.322 38.288H957.32V39.652C956.726 41.544 955.538 43.26 953.734 44.8C955.516 45.856 957.694 46.824 960.246 47.704L959.432 49.178C956.616 48.144 954.284 47.022 952.436 45.812C950.632 47.088 948.388 48.232 945.726 49.266L944.89 47.792C947.354 46.89 949.4 45.9 951.05 44.822C949.334 43.502 948.124 42.072 947.398 40.532C945.792 44.008 943.724 46.758 941.216 48.804L940.402 47.352C943.614 44.536 945.968 40.686 947.508 35.78H942.052ZM948.586 39.74C949.334 41.236 950.588 42.622 952.348 43.898C953.976 42.622 955.098 41.236 955.714 39.74H948.586ZM954.306 29.048C955.89 30.258 957.188 31.468 958.244 32.678L957.122 33.8C956.198 32.634 954.9 31.402 953.25 30.082L954.306 29.048ZM973.138 34.812H974.656V37.496H980.86V44.888C980.86 46.252 980.156 46.956 978.792 46.956H976.724L976.328 45.482L978.286 45.526C978.99 45.526 979.342 45.196 979.342 44.558V38.97H974.656V49.2H973.138V38.97H968.43V47.11H966.912V38.684C965.812 39.806 964.624 40.862 963.326 41.852L962.314 40.532C965.108 38.464 967.308 36.11 968.914 33.426H963.04V31.886H969.75C970.234 30.918 970.63 29.95 970.96 28.938L972.566 29.136C972.258 30.104 971.906 31.028 971.51 31.886H982.18V33.426H970.74C969.948 34.878 969.024 36.242 967.968 37.496H973.138V34.812Z" fill="#1D2129"/>
<rect x="413" y="68" width="108" height="8" rx="4" fill="#4FAE7B"/>
<path d="M0 76H1148V673C1148 677.418 1144.42 681 1140 681H7.99997C3.58169 681 0 677.418 0 673V76Z" fill="#4FAE7B" fill-opacity="0.05"/>
<rect x="76" y="131" width="185" height="496" rx="12" fill="white"/>
<rect x="288" y="131" width="566" height="259" rx="12" fill="white"/>
<rect x="898" y="131" width="175" height="496" rx="12" fill="white"/>
<rect x="288" y="418" width="566" height="113" rx="12" fill="white"/>
<rect x="288.5" y="418.5" width="565" height="112" rx="11.5" stroke="#00B42A" stroke-opacity="0.4"/>
<rect x="345" y="164" width="123" height="28" rx="14" fill="#8BD595"/>
<rect x="612" y="164" width="123" height="28" rx="14" fill="#8BD595"/>
<rect x="345" y="212" width="185" height="28" rx="14" fill="#E8FFEA"/>
<rect x="345" y="281" width="123" height="28" rx="14" fill="#8BD595"/>
<rect x="345" y="329" width="452" height="28" rx="14" fill="#E8FFEA"/>
<rect x="612" y="212" width="185" height="28" rx="14" fill="#E8FFEA"/>
<circle cx="123" cy="175" r="16" fill="#00B42A" fill-opacity="0.4"/>
<rect x="159" y="159" width="71" height="32" rx="16" fill="#00B42A" fill-opacity="0.4"/>
<rect x="107" y="227" width="123" height="32" rx="16" fill="#8BD595"/>
<rect x="107" y="295" width="123" height="32" rx="16" fill="#8BD595"/>
<rect x="107" y="363" width="123" height="32" rx="16" fill="#8BD595"/>
<rect x="107" y="431" width="123" height="32" rx="16" fill="#8BD595"/>
<rect x="107" y="499" width="123" height="32" rx="16" fill="#8BD595"/>
<rect x="107" y="567" width="123" height="32" rx="16" fill="#8BD595"/>
<rect x="345" y="437" width="45" height="28" rx="14" fill="#8BD595"/>
<rect x="530" y="447" width="108" height="40" rx="4" fill="#009A29"/>
<path d="M554.667 468.667L548 473.667L541.333 468.667" stroke="white" stroke-width="2" stroke-linecap="round" stroke-linejoin="round"/>
<path d="M541.333 461.167H554.667" stroke="white" stroke-width="2" stroke-linecap="round"/>
<path d="M541.333 464.5H554.667" stroke="white" stroke-width="2" stroke-linecap="round"/>
<rect x="345" y="485" width="92" height="28" rx="14" fill="#92A694" fill-opacity="0.5"/>
<rect x="925" y="185" width="122" height="28" rx="14" fill="#E8FFEA" fill-opacity="0.5"/>
<rect x="925" y="249" width="122" height="28" rx="14" fill="#E8FFEA" fill-opacity="0.5"/>
<rect x="925" y="313" width="122" height="28" rx="14" fill="#E8FFEA" fill-opacity="0.5"/>
<path d="M563.332 460.616H577.652V462.104H570.836V464.2C572.788 465.144 574.772 466.232 576.788 467.448L575.876 468.824C573.86 467.512 572.18 466.504 570.836 465.816V474.648H569.316V462.104H563.332V460.616ZM584.916 462.328H588.436C588.212 461.56 587.972 460.84 587.716 460.168L589.252 459.912C589.492 460.616 589.716 461.432 589.94 462.328H593.46V463.784H584.916V462.328ZM584.5 472.536H589.38C590.068 470.408 590.676 467.768 591.22 464.632L592.676 465C592.196 467.816 591.62 470.328 590.916 472.536H593.828V474.024H584.5V472.536ZM587.012 464.776C587.492 466.792 587.924 469.08 588.308 471.672L586.9 472.04C586.548 469.688 586.132 467.416 585.62 465.224L587.012 464.776ZM584.58 466.072V467.608C584.036 467.896 583.476 468.152 582.916 468.408V472.936C582.916 473.992 582.388 474.52 581.332 474.52H579.892L579.54 473.048C579.988 473.096 580.404 473.128 580.804 473.128C581.188 473.128 581.396 472.936 581.396 472.552V469.064C580.756 469.304 580.116 469.528 579.476 469.736L579.092 468.2C579.876 468.008 580.644 467.784 581.396 467.512V464.152H579.332V462.696H581.396V459.928H582.916V462.696H584.564V464.152H582.916V466.904C583.476 466.648 584.036 466.36 584.58 466.072ZM596.804 462.28H600.036C599.588 461.592 599.124 460.968 598.628 460.424L599.892 459.816C600.436 460.408 600.948 461.064 601.428 461.8L600.468 462.28H603.7C604.212 461.48 604.644 460.632 605.012 459.736L606.484 460.264C606.132 461 605.732 461.672 605.284 462.28H608.196V469.144H603.252V470.408H609.652V471.848H603.252V474.712H601.748V471.848H595.348V470.408H601.748V469.144H596.804V462.28ZM606.724 467.8V466.328H603.252V467.8H606.724ZM601.748 467.8V466.328H598.276V467.8H601.748ZM598.276 465.048H601.748V463.608H598.276V465.048ZM603.252 463.608V465.048H606.724V463.608H603.252ZM612.66 460.04C613.716 460.888 614.596 461.736 615.316 462.568L614.244 463.624C613.636 462.824 612.756 461.96 611.62 461.032L612.66 460.04ZM621.828 474.376C620.964 474.376 620.004 474.36 618.98 474.344C617.94 474.328 617.092 474.232 616.436 474.072C615.796 473.88 615.236 473.496 614.756 472.952C614.532 472.68 614.324 472.552 614.148 472.552C613.796 472.552 613.22 473.272 612.404 474.728L611.284 473.688C612.084 472.376 612.82 471.56 613.46 471.24V466.712H611.316V465.304H614.884V471.368C614.948 471.432 615.028 471.496 615.108 471.592C615.492 472.024 615.876 472.344 616.26 472.552C616.74 472.776 617.444 472.92 618.404 472.952C619.3 472.968 620.372 472.984 621.62 472.984C622.404 472.984 623.204 472.968 624.02 472.952C624.82 472.936 625.444 472.904 625.892 472.872L625.508 474.376H621.828ZM620.292 459.832H621.764V461.752H624.836V463.208H621.764V465.192H625.396V466.648H622.804V470.568C622.804 470.824 622.964 470.968 623.284 470.968H623.636C623.796 470.968 623.94 470.904 624.052 470.808C624.18 470.696 624.276 470.104 624.324 469.016L625.652 469.464C625.524 470.84 625.348 471.656 625.124 471.896C624.9 472.12 624.516 472.248 623.956 472.264H622.82C622.34 472.264 621.988 472.136 621.748 471.896C621.492 471.624 621.38 471.288 621.38 470.904V466.648H620.052C619.988 467.688 619.828 468.6 619.556 469.368C619.14 470.584 618.18 471.576 616.676 472.376L615.684 471.192C616.948 470.568 617.78 469.8 618.164 468.888C618.404 468.28 618.548 467.528 618.612 466.648H616.164V465.192H620.292V463.208H617.956C617.668 463.752 617.38 464.264 617.06 464.744L615.748 463.928C616.612 462.728 617.22 461.448 617.588 460.088L619.044 460.376C618.9 460.856 618.756 461.32 618.596 461.752H620.292V459.832Z" fill="white"/>
<path d="M255.848 305.608C256.501 306.56 257.619 309.928 258.271 313.149C261.813 331.38 273.555 349.464 293.871 368.061C324.997 396.468 374.482 418.506 432.634 429.855C448.756 433.003 465.437 435.785 465.903 435.492C465.996 435.346 462.362 432.71 457.795 429.635C447.171 422.46 442.791 418.287 442.791 415.431C442.791 413.308 445.214 410.892 447.265 410.892C447.917 410.892 448.383 410.379 448.383 409.794C448.383 409.208 448.663 408.695 449.035 408.695C450.62 408.695 458.354 412.649 471.867 420.263C479.695 424.656 489.76 430.074 494.14 432.344C507.746 439.373 508.771 440.617 505.323 445.962C502.9 449.623 493.861 454.235 482.678 457.384C454.627 465.511 441.394 467.927 425.924 468C419.959 468 418.655 467.78 418.002 466.682C416.884 464.632 417.536 463.387 421.637 460.532C424.433 458.555 426.856 457.603 430.676 457.018C438.598 455.773 457.143 451.819 457.982 451.234C458.354 450.941 453.509 450.135 447.078 449.476C416.604 446.255 377.091 435.639 346.338 422.387C295.362 400.495 263.583 372.234 252.121 338.701C250.164 332.771 249.604 329.257 249.232 319.665C248.766 309.488 248.952 307.804 250.257 306.779C251.096 306.12 251.748 305.242 251.748 304.803C251.748 303.411 254.45 303.924 255.848 305.608ZM339.348 403.863C339.348 404.376 355.377 411.77 365.908 416.09C376.346 420.337 397.593 427.219 399.084 426.853C399.55 426.706 394.518 424.876 387.995 422.68C374.668 418.287 356.123 411.112 346.338 406.572C339.628 403.497 339.348 403.351 339.348 403.863ZM339.348 409.794C339.348 409.94 340.28 410.453 341.399 410.892C343.449 411.697 343.449 411.624 341.771 410.599C339.814 409.354 339.348 409.208 339.348 409.794ZM330.961 411.258C330.961 411.697 345.499 418.433 352.395 421.142C361.435 424.73 358.732 423.046 348.388 418.653C343.169 416.456 337.205 413.747 335.155 412.795C331.147 410.819 330.961 410.745 330.961 411.258ZM449.315 411.917C449.315 412.063 449.967 412.429 450.806 412.649C451.551 412.869 451.924 412.795 451.645 412.356C451.086 411.624 449.315 411.331 449.315 411.917ZM344.008 411.99C344.008 412.137 344.94 412.649 346.058 413.088C348.108 413.894 348.108 413.82 346.431 412.795C344.474 411.551 344.008 411.404 344.008 411.99ZM330.495 413.528C337.95 418.067 373.829 432.857 377.277 432.857C377.65 432.857 371.313 430.221 363.112 427.073C354.911 423.924 344.008 419.312 338.882 416.896C329.563 412.429 327.047 411.404 330.495 413.528ZM453.043 413.381C453.043 413.528 453.788 414.113 454.627 414.626C456.118 415.578 456.211 415.504 455 414.333C453.788 413.162 453.043 412.795 453.043 413.381ZM456.77 415.651C456.77 416.822 498.52 440.544 499.452 439.812C500.105 439.373 501.223 440.032 487.99 433.003C481.839 429.708 472.426 424.437 467.021 421.215C456.584 414.992 456.77 415.138 456.77 415.651ZM462.828 429.123C463.107 429.489 465.064 430.88 467.301 432.124L471.215 434.467L467.021 431.465C462.735 428.464 461.803 427.951 462.828 429.123ZM462.828 431.832C466.928 434.687 472.613 437.835 470.469 436.078C468.978 434.833 459.1 428.537 458.634 428.537C458.354 428.537 460.218 430.001 462.828 431.832ZM453.695 437.762C454.347 437.908 455.652 437.908 456.491 437.762C457.423 437.542 456.863 437.396 455.372 437.396C453.788 437.396 453.136 437.542 453.695 437.762Z" fill="url(#paint0_linear_1978_6380)"/>
<defs>
<filter id="filter0_dddddd_1978_6380" x="-80.5" y="-0.5" width="1309" height="862" filterUnits="userSpaceOnUse" color-interpolation-filters="sRGB">
<feFlood flood-opacity="0" result="BackgroundImageFix"/>
<feColorMatrix in="SourceAlpha" type="matrix" values="0 0 0 0 0 0 0 0 0 0 0 0 0 0 0 0 0 0 127 0" result="hardAlpha"/>
<feOffset dy="2.76726"/>
<feGaussianBlur stdDeviation="1.1069"/>
<feColorMatrix type="matrix" values="0 0 0 0 0 0 0 0 0 0 0 0 0 0 0 0 0 0 0.0196802 0"/>
<feBlend mode="normal" in2="BackgroundImageFix" result="effect1_dropShadow_1978_6380"/>
<feColorMatrix in="SourceAlpha" type="matrix" values="0 0 0 0 0 0 0 0 0 0 0 0 0 0 0 0 0 0 127 0" result="hardAlpha"/>
<feOffset dy="6.6501"/>
<feGaussianBlur stdDeviation="2.66004"/>
<feColorMatrix type="matrix" values="0 0 0 0 0 0 0 0 0 0 0 0 0 0 0 0 0 0 0.0282725 0"/>
<feBlend mode="normal" in2="effect1_dropShadow_1978_6380" result="effect2_dropShadow_1978_6380"/>
<feColorMatrix in="SourceAlpha" type="matrix" values="0 0 0 0 0 0 0 0 0 0 0 0 0 0 0 0 0 0 127 0" result="hardAlpha"/>
<feOffset dy="12.5216"/>
<feGaussianBlur stdDeviation="5.00862"/>
<feColorMatrix type="matrix" values="0 0 0 0 0 0 0 0 0 0 0 0 0 0 0 0 0 0 0.035 0"/>
<feBlend mode="normal" in2="effect2_dropShadow_1978_6380" result="effect3_dropShadow_1978_6380"/>
<feColorMatrix in="SourceAlpha" type="matrix" values="0 0 0 0 0 0 0 0 0 0 0 0 0 0 0 0 0 0 127 0" result="hardAlpha"/>
<feOffset dy="22.3363"/>
<feGaussianBlur stdDeviation="8.93452"/>
<feColorMatrix type="matrix" values="0 0 0 0 0 0 0 0 0 0 0 0 0 0 0 0 0 0 0.0417275 0"/>
<feBlend mode="normal" in2="effect3_dropShadow_1978_6380" result="effect4_dropShadow_1978_6380"/>
<feColorMatrix in="SourceAlpha" type="matrix" values="0 0 0 0 0 0 0 0 0 0 0 0 0 0 0 0 0 0 127 0" result="hardAlpha"/>
<feOffset dy="41.7776"/>
<feGaussianBlur stdDeviation="16.711"/>
<feColorMatrix type="matrix" values="0 0 0 0 0 0 0 0 0 0 0 0 0 0 0 0 0 0 0.0503198 0"/>
<feBlend mode="normal" in2="effect4_dropShadow_1978_6380" result="effect5_dropShadow_1978_6380"/>
<feColorMatrix in="SourceAlpha" type="matrix" values="0 0 0 0 0 0 0 0 0 0 0 0 0 0 0 0 0 0 127 0" result="hardAlpha"/>
<feOffset dy="100"/>
<feGaussianBlur stdDeviation="40"/>
<feColorMatrix type="matrix" values="0 0 0 0 0 0 0 0 0 0 0 0 0 0 0 0 0 0 0.07 0"/>
<feBlend mode="normal" in2="effect5_dropShadow_1978_6380" result="effect6_dropShadow_1978_6380"/>
<feBlend mode="normal" in="SourceGraphic" in2="effect6_dropShadow_1978_6380" result="shape"/>
</filter>
<linearGradient id="paint0_linear_1978_6380" x1="378" y1="304" x2="378" y2="468" gradientUnits="userSpaceOnUse">
<stop offset="0.5" stop-color="#8BD595"/>
<stop offset="1" stop-color="#009A29"/>
</linearGradient>
<clipPath id="clip0_1978_6380">
<rect width="1148" height="681" rx="16" fill="white"/>
</clipPath>
</defs>
</svg>
