<svg xmlns="http://www.w3.org/2000/svg" width="24" height="25" viewBox="0 0 24 25" fill="none">
  <path fill-rule="evenodd" clip-rule="evenodd" d="M0 3.5C0 1.84315 1.34315 0.5 3 0.5H21C22.6569 0.5 24 1.84315 24 3.5V21.5C24 23.1569 22.6569 24.5 21 24.5H3C1.34315 24.5 0 23.1569 0 21.5V3.5Z" fill="#4FAE7B"/>
  <mask id="mask0_122_2047" style="mask-type:luminance" maskUnits="userSpaceOnUse" x="4" y="4" width="16" height="17">
    <path fill-rule="evenodd" clip-rule="evenodd" d="M4 4.5H20V20.5H4V4.5Z" fill="white"/>
  </mask>
  <g mask="url(#mask0_122_2047)">
    <path d="M6.66675 6.50004C6.66675 6.13185 6.96522 5.83337 7.33341 5.83337H14.0001L17.3334 9.16671V18.5C17.3334 18.8682 17.0349 19.1667 16.6667 19.1667H7.33341C6.96522 19.1667 6.66675 18.8682 6.66675 18.5V6.50004V6.50004Z" stroke="white" stroke-width="1.33333" stroke-linejoin="round"/>
    <path d="M9.33325 11.1666H14.6633" stroke="white" stroke-width="1.33333" stroke-linejoin="round"/>
    <path d="M9.33325 13.8334H14.6633" stroke="white" stroke-width="1.33333" stroke-linejoin="round"/>
  </g>
</svg>