<svg xmlns="http://www.w3.org/2000/svg" width="16" height="16" viewBox="0 0 16 16" fill="none">
  <path d="M6 10V7.16669L12.1167 1.05002C12.25 0.916691 12.4 0.816691 12.5667 0.750024C12.7333 0.683358 12.9 0.650024 13.0667 0.650024C13.2444 0.650024 13.414 0.683358 13.5753 0.750024C13.7367 0.816691 13.8838 0.916691 14.0167 1.05002L14.95 2.00002C15.0722 2.13336 15.1667 2.28069 15.2333 2.44202C15.3 2.60336 15.3333 2.76714 15.3333 2.93336C15.3333 3.09958 15.3029 3.26358 15.242 3.42536C15.1811 3.58714 15.0838 3.73425 14.95 3.86669L8.83333 10H6ZM13.0667 3.86669L14.0167 2.93336L13.0833 2.00002L12.1333 2.93336L13.0667 3.86669ZM3.33333 14C2.96667 14 2.65289 13.8696 2.392 13.6087C2.13111 13.3478 2.00044 13.0338 2 12.6667V3.33336C2 2.96669 2.13067 2.65291 2.392 2.39202C2.65333 2.13114 2.96711 2.00047 3.33333 2.00002H9.28333L4.66667 6.61669V11.3334H9.36667L14 6.70002V12.6667C14 13.0334 13.8696 13.3474 13.6087 13.6087C13.3478 13.87 13.0338 14.0005 12.6667 14H3.33333Z" fill="#FFF" fill-opacity=".8"/>
</svg>