<svg width="24" height="24" viewBox="0 0 24 24" fill="none" xmlns="http://www.w3.org/2000/svg">
<rect width="24" height="24" rx="4" fill="#F2F3F5"/>
<g clip-path="url(#clip0_191_4076)">
<path d="M6.75 13H11V17.25C11 19.5972 9.09721 21.5 6.75 21.5C4.40279 21.5 2.5 19.5972 2.5 17.25C2.5 14.9028 4.40279 13 6.75 13Z" fill="#4297FF"/>
<path d="M17.25 13H13V17.25C13 19.5972 14.9028 21.5 17.25 21.5C19.5972 21.5 21.5 19.5972 21.5 17.25C21.5 14.9028 19.5972 13 17.25 13Z" fill="#9775EE"/>
<path d="M21.5 6.75C21.5 4.40279 19.5972 2.5 17.25 2.5C14.9028 2.5 13 4.40279 13 6.75V11H17.25C19.5972 11 21.5 9.09721 21.5 6.75Z" fill="#42C19D"/>
<path d="M11 6.75C11 4.40279 9.09721 2.5 6.75 2.5C4.40279 2.5 2.5 4.40279 2.5 6.75C2.5 9.09721 4.40279 11 6.75 11H11V6.75Z" fill="#47BCC2"/>
</g>
<defs>
<clipPath id="clip0_191_4076">
<rect x="2.5" y="2.5" width="19" height="19" rx="4" fill="white"/>
</clipPath>
</defs>
</svg>
