<svg width="16" height="16" viewBox="0 0 16 16" fill="none" xmlns="http://www.w3.org/2000/svg">
<path d="M13.75 6.99961V12.9996C13.75 13.3311 13.6183 13.6491 13.3839 13.8835C13.1495 14.1179 12.8315 14.2496 12.5 14.2496H3.5C3.16848 14.2496 2.85054 14.1179 2.61612 13.8835C2.3817 13.6491 2.25 13.3311 2.25 12.9996V6.99961C2.25 6.66809 2.3817 6.35015 2.61612 6.11573C2.85054 5.88131 3.16848 5.74961 3.5 5.74961H4.75C4.94891 5.74961 5.13968 5.82863 5.28033 5.96928C5.42098 6.10994 5.5 6.3007 5.5 6.49961C5.5 6.69853 5.42098 6.88929 5.28033 7.02994C5.13968 7.1706 4.94891 7.24961 4.75 7.24961H3.75V12.7496H12.25V7.24961H11.25C11.0511 7.24961 10.8603 7.1706 10.7197 7.02994C10.579 6.88929 10.5 6.69853 10.5 6.49961C10.5 6.3007 10.579 6.10994 10.7197 5.96928C10.8603 5.82863 11.0511 5.74961 11.25 5.74961H12.5C12.8315 5.74961 13.1495 5.88131 13.3839 6.11573C13.6183 6.35015 13.75 6.66809 13.75 6.99961ZM6.03062 4.53024L7.25 3.31211V8.49961C7.25 8.69853 7.32902 8.88929 7.46967 9.02994C7.61032 9.1706 7.80109 9.24961 8 9.24961C8.19891 9.24961 8.38968 9.1706 8.53033 9.02994C8.67098 8.88929 8.75 8.69853 8.75 8.49961V3.31211L9.96937 4.53211C10.0391 4.60188 10.122 4.65722 10.2131 4.69498C10.3043 4.73273 10.402 4.75217 10.5006 4.75217C10.5993 4.75217 10.697 4.73273 10.7881 4.69498C10.8793 4.65722 10.9621 4.60188 11.0319 4.53211C11.1016 4.46235 11.157 4.37953 11.1947 4.28838C11.2325 4.19722 11.2519 4.09953 11.2519 4.00086C11.2519 3.9022 11.2325 3.80451 11.1947 3.71335C11.157 3.6222 11.1016 3.53938 11.0319 3.46961L8.53187 0.969615C8.4622 0.899695 8.3794 0.844217 8.28824 0.806363C8.19707 0.768509 8.09934 0.749023 8.00062 0.749023C7.90191 0.749023 7.80417 0.768509 7.71301 0.806363C7.62185 0.844217 7.53905 0.899695 7.46938 0.969615L4.96938 3.46961C4.89961 3.53938 4.84427 3.6222 4.80651 3.71335C4.76876 3.80451 4.74932 3.9022 4.74932 4.00086C4.74932 4.20012 4.82848 4.39122 4.96938 4.53211C5.11027 4.67301 5.30137 4.75217 5.50063 4.75217C5.69988 4.75217 5.89098 4.67301 6.03188 4.53211L6.03062 4.53024Z" fill="#4E5969"/>
</svg>
