<svg width="16" height="16" viewBox="0 0 16 16" fill="none" xmlns="http://www.w3.org/2000/svg">
    <path fill-rule="evenodd" clip-rule="evenodd" d="M2.66665 7.99998C2.66665 5.05446 5.05446 2.66665 7.99998 2.66665C10.9455 2.66665 13.3333 5.05446 13.3333 7.99998C13.3333 10.9455 10.9455 13.3333 7.99998 13.3333C5.05446 13.3333 2.66665 10.9455 2.66665 7.99998ZM7.99998 1.33331C4.31808 1.33331 1.33331 4.31808 1.33331 7.99998C1.33331 11.6819 4.31808 14.6666 7.99998 14.6666C11.6819 14.6666 14.6666 11.6819 14.6666 7.99998C14.6666 4.31808 11.6819 1.33331 7.99998 1.33331ZM6.02367 5.64296L8.38069 7.99998L6.02367 10.357L6.96648 11.2998L10.2663 7.99998L6.96648 4.70015L6.02367 5.64296Z" fill="#C9CDD4"/>
</svg>
