<svg width="18" height="18" viewBox="0 0 18 18" fill="none" xmlns="http://www.w3.org/2000/svg">
<rect width="18" height="18" rx="4" fill="#EB693A"/>
<g clip-path="url(#clip0_13810_10940)">
<g filter="url(#filter0_d_13810_10940)">
<path fill-rule="evenodd" clip-rule="evenodd" d="M13.5 4.5C13.7761 4.5 14 4.72386 14 5V12C14 12.2761 13.7761 12.5 13.5 12.5H10.8765L11.7002 13.5981C11.783 13.7086 11.7604 13.8654 11.6499 13.9482C11.6067 13.9807 11.5541 13.9985 11.5 13.9985H6.5C6.36198 13.9985 6.25009 13.8865 6.25 13.7485C6.25 13.6944 6.26735 13.6414 6.2998 13.5981L7.12354 12.5H4.5C4.22386 12.5 4 12.2761 4 12V5C4 4.72386 4.22386 4.5 4.5 4.5H13.5ZM10.3989 7.39795L9.17383 8.62256L8.11328 7.56201L5.99219 9.68359L6.69922 10.3906L8.11328 8.97656L9.17383 10.0371L11.106 8.10498L12.0024 9.00146V6.50146H9.50244L10.3989 7.39795Z" fill="url(#paint0_linear_13810_10940)" shape-rendering="crispEdges"/>
<path d="M4.5 4.6875H13.5C13.6726 4.6875 13.8125 4.82741 13.8125 5V12C13.8125 12.1726 13.6726 12.3125 13.5 12.3125H10.501L10.7266 12.6123L11.5498 13.7109C11.5703 13.7382 11.565 13.7769 11.5371 13.7979C11.5257 13.8064 11.5128 13.8115 11.5 13.8115H6.5C6.46587 13.8115 6.43785 13.7834 6.4375 13.749C6.4375 13.7347 6.44258 13.7211 6.4502 13.7109L7.27344 12.6123L7.49902 12.3125H4.5C4.32741 12.3125 4.1875 12.1726 4.1875 12V5C4.1875 4.82741 4.32741 4.6875 4.5 4.6875ZM9.37012 6.63379L10.1338 7.39746L9.17383 8.35742L8.11328 7.29688L5.72656 9.68359L6.69922 10.6562L8.11328 9.24219L9.17383 10.3027L9.30664 10.1699L11.1055 8.36914L12.1904 9.4541V6.31445H9.0498L9.37012 6.63379Z" stroke="white" stroke-width="0.375" shape-rendering="crispEdges"/>
</g>
</g>
<defs>
<filter id="filter0_d_13810_10940" x="1" y="3" width="16" height="15.4985" filterUnits="userSpaceOnUse" color-interpolation-filters="sRGB">
<feFlood flood-opacity="0" result="BackgroundImageFix"/>
<feColorMatrix in="SourceAlpha" type="matrix" values="0 0 0 0 0 0 0 0 0 0 0 0 0 0 0 0 0 0 127 0" result="hardAlpha"/>
<feOffset dy="1.5"/>
<feGaussianBlur stdDeviation="1.5"/>
<feComposite in2="hardAlpha" operator="out"/>
<feColorMatrix type="matrix" values="0 0 0 0 0 0 0 0 0 0 0 0 0 0 0 0 0 0 0.05 0"/>
<feBlend mode="normal" in2="BackgroundImageFix" result="effect1_dropShadow_13810_10940"/>
<feBlend mode="normal" in="SourceGraphic" in2="effect1_dropShadow_13810_10940" result="shape"/>
</filter>
<linearGradient id="paint0_linear_13810_10940" x1="9" y1="4.40483" x2="9" y2="13.9985" gradientUnits="userSpaceOnUse">
<stop stop-color="white"/>
<stop offset="1" stop-color="white" stop-opacity="0.8"/>
</linearGradient>
<clipPath id="clip0_13810_10940">
<rect width="12" height="12" fill="white" transform="translate(3 3)"/>
</clipPath>
</defs>
</svg>
