<svg width="18" height="18" viewBox="0 0 18 18" fill="none" xmlns="http://www.w3.org/2000/svg">
<rect width="18" height="18" rx="4" fill="#24B28F"/>
<g clip-path="url(#clip0_13810_10929)">
<g filter="url(#filter0_d_13810_10929)">
<path fill-rule="evenodd" clip-rule="evenodd" d="M13 4C13.2761 4 13.5 4.22386 13.5 4.5V13.5C13.5 13.7761 13.2761 14 13 14H5C4.72386 14 4.5 13.7761 4.5 13.5V4.5C4.5 4.22386 4.72386 4 5 4H13ZM8.2002 6.1001V7.7002H8.7002V8.7002H6.7002V10.25H6.2998V11.6499H7.7002V10.25H7.2998V9.2998H8.7002V10.25H8.2998V11.6499H9.7002V10.25H9.2998V9.2998H10.7002V10.25H10.2998V11.6499H11.7002V10.25H11.2998V8.7002H9.2998V7.7002H9.7998V6.1001H8.2002Z" fill="url(#paint0_linear_13810_10929)" shape-rendering="crispEdges"/>
<path d="M5 4.1875H13C13.1726 4.1875 13.3125 4.32741 13.3125 4.5V13.5C13.3125 13.6726 13.1726 13.8125 13 13.8125H5C4.82741 13.8125 4.6875 13.6726 4.6875 13.5V4.5C4.6875 4.32741 4.82741 4.1875 5 4.1875ZM8.0127 7.8877H8.5127V8.5127H6.5127V10.0625H6.1123V11.8379H7.8877V10.0625H7.4873V9.4873H8.5127V10.0625H8.1123V11.8379H9.8877V10.0625H9.4873V9.4873H10.5127V10.0625H10.1123V11.8379H11.8877V10.0625H11.4873V8.5127H9.4873V7.8877H9.9873V5.91309H8.0127V7.8877Z" stroke="white" stroke-width="0.375" shape-rendering="crispEdges"/>
</g>
</g>
<defs>
<filter id="filter0_d_13810_10929" x="1.5" y="2.5" width="15" height="16" filterUnits="userSpaceOnUse" color-interpolation-filters="sRGB">
<feFlood flood-opacity="0" result="BackgroundImageFix"/>
<feColorMatrix in="SourceAlpha" type="matrix" values="0 0 0 0 0 0 0 0 0 0 0 0 0 0 0 0 0 0 127 0" result="hardAlpha"/>
<feOffset dy="1.5"/>
<feGaussianBlur stdDeviation="1.5"/>
<feComposite in2="hardAlpha" operator="out"/>
<feColorMatrix type="matrix" values="0 0 0 0 0 0 0 0 0 0 0 0 0 0 0 0 0 0 0.05 0"/>
<feBlend mode="normal" in2="BackgroundImageFix" result="effect1_dropShadow_13810_10929"/>
<feBlend mode="normal" in="SourceGraphic" in2="effect1_dropShadow_13810_10929" result="shape"/>
</filter>
<linearGradient id="paint0_linear_13810_10929" x1="9" y1="3.8998" x2="9" y2="14" gradientUnits="userSpaceOnUse">
<stop stop-color="white"/>
<stop offset="1" stop-color="white" stop-opacity="0.8"/>
</linearGradient>
<clipPath id="clip0_13810_10929">
<rect width="12" height="12" fill="white" transform="translate(3 3)"/>
</clipPath>
</defs>
</svg>
