<svg width="18" height="18" viewBox="0 0 18 18" fill="none" xmlns="http://www.w3.org/2000/svg">
<rect width="18" height="18" rx="4" fill="#7E5AEA"/>
<g clip-path="url(#clip0_13810_10945)">
<g filter="url(#filter0_d_13810_10945)">
<path d="M14.5 13.5H3.5V12.5H14.5V13.5Z" fill="url(#paint0_linear_13810_10945)" shape-rendering="crispEdges"/>
<path fill-rule="evenodd" clip-rule="evenodd" d="M13.5039 4.5C13.7778 4.5 14 4.72497 14 5.00342V11.5H4V5.00342C4 4.72539 4.22785 4.5 4.49609 4.5H13.5039ZM11.4507 6.92383C11.1598 6.77016 10.8264 6.71615 10.502 6.77051C10.1775 6.82492 9.87962 6.98449 9.65479 7.22461C9.42995 7.4648 9.29024 7.77274 9.25732 8.1001C9.22446 8.42738 9.30018 8.75653 9.47266 9.03662C9.64518 9.31673 9.90529 9.53246 10.2124 9.65039C10.5195 9.76822 10.8568 9.78159 11.1724 9.68896C11.488 9.59624 11.7649 9.40249 11.9595 9.13721L11.3535 8.69287C11.217 8.87854 10.9981 8.99994 10.75 9C10.3359 8.99991 10 8.66414 10 8.25C10 7.83584 10.3359 7.50009 10.75 7.5C11.0519 7.50007 11.3113 7.6789 11.4302 7.93604L12.1118 7.62158C11.9739 7.32286 11.7416 7.07756 11.4507 6.92383ZM6 8.5V9.5H7.5V8.5H6ZM6 8H8.5V7H6V8Z" fill="url(#paint1_linear_13810_10945)" shape-rendering="crispEdges"/>
<path d="M14.3125 12.6875V13.3125H3.6875V12.6875H14.3125ZM4.49609 4.6875H13.5039C13.6718 4.6875 13.8125 4.82653 13.8125 5.00391V11.3125H4.1875V5.00391L4.19434 4.93945C4.22435 4.79493 4.35303 4.6875 4.49609 4.6875ZM11.5381 6.75781C11.211 6.58507 10.8357 6.52479 10.4707 6.58594C10.1059 6.64719 9.7705 6.82657 9.51758 7.09668C9.2648 7.36684 9.10737 7.71305 9.07031 8.08105C9.03334 8.44927 9.11945 8.81969 9.31348 9.13477C9.50759 9.44988 9.80008 9.69255 10.1455 9.8252C10.491 9.95774 10.8707 9.97329 11.2256 9.86914C11.5804 9.76485 11.8914 9.54649 12.1104 9.24805L12.2217 9.09668L12.0703 8.98633L11.4648 8.54199L11.3135 8.43066L11.2021 8.58203C11.099 8.72217 10.9351 8.81244 10.75 8.8125L10.6367 8.80078C10.3804 8.74827 10.1875 8.52173 10.1875 8.25L10.1992 8.13672C10.2442 7.91707 10.417 7.74422 10.6367 7.69922L10.75 7.6875C10.9757 7.68757 11.1702 7.82109 11.2598 8.01465L11.3389 8.18457L11.5088 8.10645L12.1904 7.79199L12.3604 7.71289L12.2822 7.54297C12.1271 7.20693 11.8654 6.93077 11.5381 6.75781ZM5.8125 9.6875H7.6875V8.3125H5.8125V9.6875ZM5.8125 8.1875H8.6875V6.8125H5.8125V8.1875Z" stroke="white" stroke-width="0.375" shape-rendering="crispEdges"/>
</g>
</g>
<defs>
<filter id="filter0_d_13810_10945" x="0.5" y="3" width="17" height="15" filterUnits="userSpaceOnUse" color-interpolation-filters="sRGB">
<feFlood flood-opacity="0" result="BackgroundImageFix"/>
<feColorMatrix in="SourceAlpha" type="matrix" values="0 0 0 0 0 0 0 0 0 0 0 0 0 0 0 0 0 0 127 0" result="hardAlpha"/>
<feOffset dy="1.5"/>
<feGaussianBlur stdDeviation="1.5"/>
<feComposite in2="hardAlpha" operator="out"/>
<feColorMatrix type="matrix" values="0 0 0 0 0 0 0 0 0 0 0 0 0 0 0 0 0 0 0.05 0"/>
<feBlend mode="normal" in2="BackgroundImageFix" result="effect1_dropShadow_13810_10945"/>
<feBlend mode="normal" in="SourceGraphic" in2="effect1_dropShadow_13810_10945" result="shape"/>
</filter>
<linearGradient id="paint0_linear_13810_10945" x1="9" y1="4.40982" x2="9" y2="13.5" gradientUnits="userSpaceOnUse">
<stop stop-color="white"/>
<stop offset="1" stop-color="white" stop-opacity="0.8"/>
</linearGradient>
<linearGradient id="paint1_linear_13810_10945" x1="9" y1="4.40982" x2="9" y2="13.5" gradientUnits="userSpaceOnUse">
<stop stop-color="white"/>
<stop offset="1" stop-color="white" stop-opacity="0.8"/>
</linearGradient>
<clipPath id="clip0_13810_10945">
<rect width="12" height="12" fill="white" transform="translate(3 3)"/>
</clipPath>
</defs>
</svg>
