<svg width="18" height="18" viewBox="0 0 18 18" fill="none" xmlns="http://www.w3.org/2000/svg">
<rect width="18" height="18" rx="4" fill="#009E9E"/>
<g clip-path="url(#clip0_13810_10924)">
<g filter="url(#filter0_d_13810_10924)">
<path d="M13 14H5C4.72386 14 4.5 13.7761 4.5 13.5V4.5C4.5 4.22386 4.72386 4 5 4H13C13.2761 4 13.5 4.22386 13.5 4.5V13.5C13.5 13.7761 13.2761 14 13 14ZM7 6.5V7.5H11V6.5H7ZM7 8.5V9.5H11V8.5H7ZM7 10.5V11.5H9.5V10.5H7Z" fill="url(#paint0_linear_13810_10924)" shape-rendering="crispEdges"/>
<path d="M5 4.1875H13C13.1726 4.1875 13.3125 4.32741 13.3125 4.5V13.5C13.3125 13.6726 13.1726 13.8125 13 13.8125H5C4.82741 13.8125 4.6875 13.6726 4.6875 13.5V4.5C4.6875 4.32741 4.82741 4.1875 5 4.1875ZM6.8125 11.6875H9.6875V10.3125H6.8125V11.6875ZM6.8125 9.6875H11.1875V8.3125H6.8125V9.6875ZM6.8125 7.6875H11.1875V6.3125H6.8125V7.6875Z" stroke="white" stroke-width="0.375" shape-rendering="crispEdges"/>
</g>
</g>
<defs>
<filter id="filter0_d_13810_10924" x="1.5" y="2.5" width="15" height="16" filterUnits="userSpaceOnUse" color-interpolation-filters="sRGB">
<feFlood flood-opacity="0" result="BackgroundImageFix"/>
<feColorMatrix in="SourceAlpha" type="matrix" values="0 0 0 0 0 0 0 0 0 0 0 0 0 0 0 0 0 0 127 0" result="hardAlpha"/>
<feOffset dy="1.5"/>
<feGaussianBlur stdDeviation="1.5"/>
<feComposite in2="hardAlpha" operator="out"/>
<feColorMatrix type="matrix" values="0 0 0 0 0 0 0 0 0 0 0 0 0 0 0 0 0 0 0.05 0"/>
<feBlend mode="normal" in2="BackgroundImageFix" result="effect1_dropShadow_13810_10924"/>
<feBlend mode="normal" in="SourceGraphic" in2="effect1_dropShadow_13810_10924" result="shape"/>
</filter>
<linearGradient id="paint0_linear_13810_10924" x1="9" y1="3.8998" x2="9" y2="14" gradientUnits="userSpaceOnUse">
<stop stop-color="white"/>
<stop offset="1" stop-color="white" stop-opacity="0.8"/>
</linearGradient>
<clipPath id="clip0_13810_10924">
<rect width="12" height="12" fill="white" transform="translate(3 3)"/>
</clipPath>
</defs>
</svg>
