<svg width="18" height="18" viewBox="0 0 18 18" fill="none" xmlns="http://www.w3.org/2000/svg">
<rect width="18" height="18" rx="4" fill="#1979FF"/>
<g clip-path="url(#clip0_13810_10934)">
<g filter="url(#filter0_d_13810_10934)">
<path d="M9.2071 5.5H13.5C13.7761 5.5 14 5.72386 14 6V13C14 13.2761 13.7761 13.5 13.5 13.5H4.5C4.22386 13.5 4 13.2761 4 13V5C4 4.72386 4.22386 4.5 4.5 4.5H8.2071L9.2071 5.5ZM8.5 9H7V10H8.5V11.5H9.5V10H11V9H9.5V7.5H8.5V9Z" fill="url(#paint0_linear_13810_10934)" shape-rendering="crispEdges"/>
<path d="M4.5 4.6875H8.12891L9.07422 5.63281L9.12988 5.6875H13.5C13.6726 5.6875 13.8125 5.82741 13.8125 6V13C13.8125 13.1726 13.6726 13.3125 13.5 13.3125H4.5C4.32741 13.3125 4.1875 13.1726 4.1875 13V5C4.1875 4.82741 4.32741 4.6875 4.5 4.6875ZM8.3125 8.8125H6.8125V10.1875H8.3125V11.6875H9.6875V10.1875H11.1875V8.8125H9.6875V7.3125H8.3125V8.8125Z" stroke="white" stroke-width="0.375" shape-rendering="crispEdges"/>
</g>
</g>
<defs>
<filter id="filter0_d_13810_10934" x="1" y="3" width="16" height="15" filterUnits="userSpaceOnUse" color-interpolation-filters="sRGB">
<feFlood flood-opacity="0" result="BackgroundImageFix"/>
<feColorMatrix in="SourceAlpha" type="matrix" values="0 0 0 0 0 0 0 0 0 0 0 0 0 0 0 0 0 0 127 0" result="hardAlpha"/>
<feOffset dy="1.5"/>
<feGaussianBlur stdDeviation="1.5"/>
<feComposite in2="hardAlpha" operator="out"/>
<feColorMatrix type="matrix" values="0 0 0 0 0 0 0 0 0 0 0 0 0 0 0 0 0 0 0.05 0"/>
<feBlend mode="normal" in2="BackgroundImageFix" result="effect1_dropShadow_13810_10934"/>
<feBlend mode="normal" in="SourceGraphic" in2="effect1_dropShadow_13810_10934" result="shape"/>
</filter>
<linearGradient id="paint0_linear_13810_10934" x1="9" y1="4.40982" x2="9" y2="13.5" gradientUnits="userSpaceOnUse">
<stop stop-color="white"/>
<stop offset="1" stop-color="white" stop-opacity="0.8"/>
</linearGradient>
<clipPath id="clip0_13810_10934">
<rect width="12" height="12" fill="white" transform="translate(3 3)"/>
</clipPath>
</defs>
</svg>
