<svg width="20" height="20" viewBox="0 0 20 20" fill="none" xmlns="http://www.w3.org/2000/svg">
<path d="M4.48788 13.9583C2.75783 14.4164 1.66667 15.0866 1.66667 15.8333C1.66667 17.214 5.39763 18.3333 10 18.3333C14.6024 18.3333 18.3333 17.214 18.3333 15.8333C18.3333 15.0866 17.2422 14.4164 15.5121 13.9583" stroke="#4FAE7B" stroke-width="2" stroke-linecap="round" stroke-linejoin="round"/>
<path d="M10 7.08331C14.6024 7.08331 18.3333 5.96402 18.3333 4.58331C18.3333 3.2026 14.6024 2.08331 10 2.08331C5.39763 2.08331 1.66667 3.2026 1.66667 4.58331C1.66667 5.96402 5.39763 7.08331 10 7.08331Z" stroke="#4FAE7B" stroke-width="2" stroke-linecap="round" stroke-linejoin="round"/>
<path d="M4.48788 10.2083C2.75783 10.6664 1.66667 11.3366 1.66667 12.0833C1.66667 13.464 5.39763 14.5833 10 14.5833C14.6024 14.5833 18.3333 13.464 18.3333 12.0833C18.3333 11.3366 17.2422 10.6664 15.5121 10.2083" stroke="#4FAE7B" stroke-width="2" stroke-linecap="round" stroke-linejoin="round"/>
<path d="M4.48788 6.45831C2.75783 6.9164 1.66667 7.58665 1.66667 8.33331C1.66667 9.71402 5.39763 10.8333 10 10.8333C14.6024 10.8333 18.3333 9.71402 18.3333 8.33331C18.3333 7.58665 17.2422 6.9164 15.5121 6.45831" stroke="#4FAE7B" stroke-width="2" stroke-linecap="round" stroke-linejoin="round"/>
<path d="M4.48788 10.2083C2.75783 10.6664 1.66667 11.3366 1.66667 12.0833C1.66667 13.464 5.39763 14.5833 10 14.5833C14.6024 14.5833 18.3333 13.464 18.3333 12.0833C18.3333 11.3366 17.2422 10.6664 15.5121 10.2083C14.0431 10.5973 12.1134 10.8333 10 10.8333C7.88659 10.8333 5.95688 10.5973 4.48788 10.2083Z" fill="#4FAE7B" stroke="#4FAE7B" stroke-width="2" stroke-linecap="round" stroke-linejoin="round"/>
</svg>
