<svg width="32" height="32" viewBox="0 0 32 32" fill="none" xmlns="http://www.w3.org/2000/svg">
<path d="M11.1051 12.7899C11.4518 14.0635 12.6165 15 14 15H18C20.4703 15 22.5222 16.7915 22.9274 19.1461C24.1303 19.5367 25 20.6668 25 22C25 23.6569 23.6569 25 22 25C20.3431 25 19 23.6569 19 22C19 20.7334 19.7849 19.6501 20.8949 19.2101C20.5482 17.9365 19.3835 17 18 17H14C12.8744 17 11.8357 16.6281 11 16.0004V19.1707C12.1652 19.5825 13 20.6938 13 22C13 23.6569 11.6568 25 10 25C8.34315 25 7 23.6569 7 22C7 20.6938 7.83481 19.5825 9 19.1707V12.8293C7.83481 12.4175 7 11.3062 7 10C7 8.34315 8.34315 7 10 7C11.6568 7 13 8.34315 13 10C13 11.2666 12.2151 12.3499 11.1051 12.7899ZM10 11C10.5523 11 11 10.5523 11 10C11 9.44772 10.5523 9 10 9C9.44772 9 9 9.44772 9 10C9 10.5523 9.44772 11 10 11ZM10 23C10.5523 23 11 22.5523 11 22C11 21.4477 10.5523 21 10 21C9.44772 21 9 21.4477 9 22C9 22.5523 9.44772 23 10 23ZM22 23C22.5523 23 23 22.5523 23 22C23 21.4477 22.5523 21 22 21C21.4477 21 21 21.4477 21 22C21 22.5523 21.4477 23 22 23Z" fill="#6B7785"/>
</svg>
