<svg width="300" height="358" viewBox="0 0 300 358" fill="none" xmlns="http://www.w3.org/2000/svg">
<g clip-path="url(#clip0_5256_16948)">
<path d="M271.001 219C242.687 167.781 265.973 175.097 280.001 159C293.44 143.585 300.931 133.5 294.501 109.5C282.979 66.5 250.104 50.2316 230.001 46.5C199.533 40.8427 197.555 72.4431 166.599 71.3375C150.84 70.7754 136.416 62.8884 121.412 58.0235C85.8908 46.4971 42.3703 54.3011 19.4778 83.8406C-0.607147 109.741 -1.21478 146.181 6.83026 177.96C15.041 210.374 23.4998 233.119 50.0006 253.5C76.4922 273.872 94.2869 279.923 125.501 268C147.776 259.496 184.67 253.448 207.001 261.787C231.001 270.748 253.58 270.905 268.501 253.5C274.926 246.009 276.689 229.292 271.001 219Z" fill="url(#paint0_linear_5256_16948)"/>
<g filter="url(#filter0_dd_5256_16948)">
<g filter="url(#filter1_dd_5256_16948)">
<path d="M242.301 95.4902H57.9688C44.7139 95.4902 33.9688 106.235 33.9688 119.49V202.585C33.9688 215.839 44.7139 226.585 57.9688 226.585H242.301C255.556 226.585 266.301 215.839 266.301 202.585V119.49C266.301 106.235 255.556 95.4902 242.301 95.4902Z" fill="url(#paint1_linear_5256_16948)"/>
</g>
<path d="M227.489 145.675H70.6394C70.5584 145.675 70.4807 145.643 70.4234 145.586C70.3662 145.528 70.334 145.451 70.334 145.37C70.334 145.289 70.3662 145.211 70.4234 145.154C70.4807 145.097 70.5584 145.064 70.6394 145.064H227.489C227.57 145.064 227.648 145.097 227.705 145.154C227.762 145.211 227.794 145.289 227.794 145.37C227.794 145.451 227.762 145.528 227.705 145.586C227.648 145.643 227.57 145.675 227.489 145.675Z" fill="#75D5D6"/>
<path d="M227.489 157.89H70.6394C70.5584 157.89 70.4807 157.858 70.4234 157.801C70.3662 157.743 70.334 157.666 70.334 157.585C70.334 157.504 70.3662 157.426 70.4234 157.369C70.4807 157.311 70.5584 157.279 70.6394 157.279H227.489C227.57 157.279 227.648 157.311 227.705 157.369C227.762 157.426 227.794 157.504 227.794 157.585C227.794 157.666 227.762 157.743 227.705 157.801C227.648 157.858 227.57 157.89 227.489 157.89Z" fill="#75D5D6"/>
<path d="M227.489 170.105H70.6394C70.5584 170.105 70.4807 170.073 70.4234 170.015C70.3662 169.958 70.334 169.88 70.334 169.8C70.334 169.719 70.3662 169.641 70.4234 169.584C70.4807 169.526 70.5584 169.494 70.6394 169.494H227.489C227.57 169.494 227.648 169.526 227.705 169.584C227.762 169.641 227.794 169.719 227.794 169.8C227.794 169.88 227.762 169.958 227.705 170.015C227.648 170.073 227.57 170.105 227.489 170.105Z" fill="#75D5D6"/>
<path d="M227.489 182.32H70.6394C70.5584 182.32 70.4807 182.288 70.4234 182.23C70.3662 182.173 70.334 182.095 70.334 182.014C70.334 181.933 70.3662 181.856 70.4234 181.798C70.4807 181.741 70.5584 181.709 70.6394 181.709H227.489C227.57 181.709 227.648 181.741 227.705 181.798C227.762 181.856 227.794 181.933 227.794 182.014C227.794 182.095 227.762 182.173 227.705 182.23C227.648 182.288 227.57 182.32 227.489 182.32Z" fill="#75D5D6"/>
<path d="M227.489 194.535H70.6394C70.5584 194.535 70.4807 194.502 70.4234 194.445C70.3662 194.388 70.334 194.31 70.334 194.229C70.334 194.148 70.3662 194.071 70.4234 194.013C70.4807 193.956 70.5584 193.924 70.6394 193.924H227.489C227.57 193.924 227.648 193.956 227.705 194.013C227.762 194.071 227.794 194.148 227.794 194.229C227.794 194.31 227.762 194.388 227.705 194.445C227.648 194.502 227.57 194.535 227.489 194.535Z" fill="#75D5D6"/>
<path d="M107.783 195.009C107.702 195.009 107.625 194.977 107.567 194.921C107.51 194.864 107.478 194.787 107.477 194.706L107.172 145.236C107.172 145.196 107.179 145.156 107.194 145.119C107.21 145.082 107.232 145.048 107.26 145.019C107.288 144.991 107.322 144.968 107.359 144.953C107.396 144.937 107.435 144.929 107.475 144.929H107.477C107.558 144.929 107.635 144.961 107.693 145.018C107.75 145.074 107.782 145.152 107.783 145.232L108.088 194.702C108.088 194.742 108.081 194.782 108.065 194.819C108.05 194.856 108.028 194.89 108 194.919C107.972 194.947 107.938 194.97 107.901 194.985C107.864 195.001 107.825 195.009 107.784 195.009H107.783Z" fill="#75D5D6"/>
<path d="M150.228 195.009C150.147 195.009 150.07 194.977 150.013 194.921C149.955 194.864 149.923 194.787 149.923 194.706L149.617 145.236C149.617 145.196 149.625 145.156 149.64 145.119C149.655 145.082 149.677 145.048 149.705 145.019C149.734 144.991 149.767 144.968 149.804 144.953C149.841 144.937 149.881 144.929 149.921 144.929H149.923C150.003 144.929 150.081 144.961 150.138 145.018C150.195 145.074 150.227 145.152 150.228 145.232L150.533 194.702C150.534 194.742 150.526 194.782 150.511 194.819C150.496 194.856 150.473 194.89 150.445 194.919C150.417 194.947 150.383 194.97 150.346 194.985C150.31 195.001 150.27 195.009 150.23 195.009H150.228Z" fill="#75D5D6"/>
<path d="M192.675 195.009C192.595 195.009 192.517 194.977 192.46 194.921C192.403 194.864 192.37 194.787 192.37 194.706L192.064 145.236C192.064 145.196 192.072 145.156 192.087 145.119C192.102 145.082 192.124 145.048 192.153 145.019C192.181 144.991 192.214 144.968 192.251 144.953C192.288 144.937 192.328 144.929 192.368 144.929H192.37C192.451 144.929 192.528 144.961 192.585 145.018C192.642 145.074 192.675 145.152 192.675 145.232L192.981 194.702C192.981 194.742 192.973 194.782 192.958 194.819C192.943 194.856 192.921 194.89 192.892 194.919C192.864 194.947 192.831 194.97 192.794 194.985C192.757 195.001 192.717 195.009 192.677 195.009H192.675Z" fill="#75D5D6"/>
<path d="M102.744 135.309H73.7338C72.6405 135.309 71.5919 134.875 70.8188 134.102C70.0457 133.329 69.6113 132.28 69.6113 131.187C69.6113 130.094 70.0457 129.045 70.8188 128.272C71.5919 127.499 72.6405 127.064 73.7338 127.064H102.744C103.837 127.064 104.886 127.499 105.659 128.272C106.432 129.045 106.866 130.094 106.866 131.187C106.866 132.28 106.432 133.329 105.659 134.102C104.886 134.875 103.837 135.309 102.744 135.309Z" fill="#47BCC2"/>
<path d="M94.0577 155.006H82.4207C81.9817 155.006 81.5471 154.92 81.1416 154.752C80.736 154.584 80.3675 154.338 80.0571 154.027C79.7468 153.717 79.5005 153.349 79.3326 152.943C79.1646 152.537 79.0781 152.103 79.0781 151.664C79.0781 151.225 79.1646 150.79 79.3326 150.385C79.5005 149.979 79.7468 149.611 80.0571 149.3C80.3675 148.99 80.736 148.744 81.1416 148.576C81.5471 148.408 81.9817 148.321 82.4207 148.321H94.0577C94.4967 148.321 94.9313 148.408 95.3369 148.576C95.7424 148.744 96.1109 148.99 96.4213 149.3C96.7317 149.611 96.9779 149.979 97.1459 150.385C97.3139 150.79 97.4003 151.225 97.4003 151.664C97.4003 152.103 97.3139 152.537 97.1459 152.943C96.9779 153.349 96.7317 153.717 96.4213 154.027C96.1109 154.338 95.7424 154.584 95.3369 154.752C94.9313 154.92 94.4967 155.006 94.0577 155.006Z" fill="#47BCC2"/>
<path d="M134.671 166.916H123.034C122.595 166.916 122.16 166.829 121.755 166.661C121.349 166.493 120.981 166.247 120.67 165.937C120.36 165.626 120.114 165.258 119.946 164.852C119.778 164.447 119.691 164.012 119.691 163.573C119.691 163.134 119.778 162.699 119.946 162.294C120.114 161.888 120.36 161.52 120.67 161.209C120.981 160.899 121.349 160.653 121.755 160.485C122.16 160.317 122.595 160.23 123.034 160.23H134.671C135.11 160.23 135.545 160.317 135.95 160.485C136.356 160.653 136.724 160.899 137.035 161.209C137.345 161.52 137.591 161.888 137.759 162.294C137.927 162.699 138.014 163.134 138.014 163.573C138.014 164.012 137.927 164.447 137.759 164.852C137.591 165.258 137.345 165.626 137.035 165.937C136.724 166.247 136.356 166.493 135.95 166.661C135.545 166.829 135.11 166.916 134.671 166.916Z" fill="#47BCC2"/>
<path d="M134.671 180.046H123.034C122.147 180.046 121.297 179.694 120.67 179.067C120.044 178.441 119.691 177.59 119.691 176.704C119.691 175.817 120.044 174.967 120.67 174.34C121.297 173.713 122.147 173.361 123.034 173.361H134.671C135.558 173.361 136.408 173.713 137.035 174.34C137.661 174.967 138.014 175.817 138.014 176.704C138.014 177.59 137.661 178.441 137.035 179.067C136.408 179.694 135.558 180.046 134.671 180.046Z" fill="#47BCC2"/>
<path d="M178.034 155.311H166.397C165.511 155.311 164.661 154.959 164.034 154.332C163.407 153.705 163.055 152.855 163.055 151.969C163.055 151.082 163.407 150.232 164.034 149.605C164.661 148.978 165.511 148.626 166.397 148.626H178.034C178.921 148.626 179.771 148.978 180.398 149.605C181.025 150.232 181.377 151.082 181.377 151.969C181.377 152.855 181.025 153.705 180.398 154.332C179.771 154.959 178.921 155.311 178.034 155.311Z" fill="#47BCC2"/>
<path d="M143.918 135.463H114.908C113.814 135.463 112.766 135.028 111.993 134.255C111.219 133.482 110.785 132.434 110.785 131.34C110.785 130.247 111.219 129.198 111.993 128.425C112.766 127.652 113.814 127.218 114.908 127.218H143.918C144.459 127.218 144.995 127.324 145.495 127.532C145.996 127.739 146.45 128.042 146.833 128.425C147.216 128.808 147.519 129.262 147.726 129.763C147.934 130.263 148.04 130.799 148.04 131.34C148.04 131.882 147.934 132.418 147.726 132.918C147.519 133.418 147.216 133.873 146.833 134.255C146.45 134.638 145.996 134.942 145.495 135.149C144.995 135.356 144.459 135.463 143.918 135.463Z" fill="#47BCC2"/>
<path d="M185.092 135.767H156.081C154.988 135.767 153.94 135.333 153.166 134.56C152.393 133.787 151.959 132.738 151.959 131.645C151.959 130.552 152.393 129.503 153.166 128.73C153.94 127.957 154.988 127.522 156.081 127.522H185.092C186.185 127.522 187.234 127.957 188.007 128.73C188.78 129.503 189.214 130.552 189.214 131.645C189.214 132.738 188.78 133.787 188.007 134.56C187.234 135.333 186.185 135.767 185.092 135.767Z" fill="#47BCC2"/>
<path d="M226.265 135.767H197.255C196.162 135.767 195.113 135.333 194.34 134.56C193.567 133.787 193.133 132.738 193.133 131.645C193.133 130.552 193.567 129.503 194.34 128.73C195.113 127.957 196.162 127.522 197.255 127.522H226.265C227.359 127.522 228.407 127.957 229.18 128.73C229.954 129.503 230.388 130.552 230.388 131.645C230.388 132.738 229.954 133.787 229.18 134.56C228.407 135.333 227.359 135.767 226.265 135.767Z" fill="#47BCC2"/>
<path d="M86.398 133.747L89.1769 129.216L88.3395 129.107L90.0313 133.364C90.0666 133.479 90.1447 133.576 90.2494 133.636C90.3542 133.695 90.4777 133.712 90.5947 133.684C90.7114 133.651 90.8104 133.573 90.8703 133.468C90.9302 133.362 90.9462 133.237 90.9147 133.12L89.223 128.863C89.1965 128.779 89.1463 128.703 89.0783 128.646C89.0103 128.589 88.9273 128.553 88.8393 128.541C88.7512 128.53 88.6617 128.543 88.5813 128.581C88.5009 128.619 88.433 128.679 88.3857 128.754L85.6074 133.285C85.2984 133.788 86.0899 134.249 86.398 133.747Z" fill="white"/>
<path d="M87.0264 132.222L89.4501 132.186C89.5716 132.186 89.6881 132.137 89.774 132.051C89.8599 131.966 89.9082 131.849 89.9082 131.728C89.9082 131.606 89.8599 131.49 89.774 131.404C89.6881 131.318 89.5716 131.27 89.4501 131.27L87.0264 131.306C86.9049 131.306 86.7884 131.354 86.7025 131.44C86.6166 131.526 86.5684 131.642 86.5684 131.764C86.5684 131.885 86.6166 132.002 86.7025 132.088C86.7884 132.174 86.9049 132.222 87.0264 132.222Z" fill="white"/>
<path d="M131.001 131.235C130.938 131.11 130.855 130.996 130.756 130.896C130.911 130.703 131.001 130.465 131.013 130.217C131.025 129.97 130.959 129.724 130.823 129.517C130.597 129.179 130.253 128.936 129.859 128.837C129.394 128.746 128.914 128.756 128.454 128.867C128.423 128.86 128.392 128.856 128.36 128.856C128.239 128.858 128.124 128.907 128.038 128.992C127.953 129.078 127.904 129.193 127.902 129.314L127.74 132.925C127.722 132.953 127.706 132.983 127.695 133.014C127.67 133.12 127.681 133.23 127.725 133.329C127.735 133.444 127.787 133.551 127.871 133.629C127.956 133.707 128.066 133.752 128.181 133.754C128.295 133.754 128.404 133.71 128.486 133.632C129.391 133.699 130.339 133.552 130.88 132.731C131.027 132.513 131.115 132.261 131.136 131.999C131.158 131.737 131.111 131.474 131.001 131.235ZM130.009 132.365C129.826 132.521 129.611 132.636 129.379 132.7C129.147 132.765 128.903 132.778 128.666 132.738L128.8 129.732C129.212 129.664 129.682 129.628 129.967 129.906C130.013 129.95 130.052 130.003 130.082 130.06C130.085 130.069 130.107 130.183 130.104 130.152C130.109 130.219 130.111 130.185 130.093 130.246C130.074 130.308 130.038 130.364 129.99 130.408C129.942 130.452 129.883 130.482 129.819 130.496C129.698 130.498 129.583 130.548 129.498 130.633C129.413 130.718 129.363 130.833 129.361 130.954C129.362 131.075 129.411 131.19 129.496 131.276C129.582 131.361 129.698 131.41 129.819 131.412C129.913 131.414 130.004 131.449 130.076 131.509C130.149 131.569 130.199 131.652 130.218 131.745C130.235 131.857 130.225 131.973 130.188 132.081C130.152 132.188 130.09 132.286 130.009 132.366L130.009 132.365Z" fill="white"/>
<path d="M171.405 129.099C170.741 129.223 170.139 129.57 169.7 130.083C169.262 130.596 169.012 131.244 168.992 131.919C168.964 132.636 169.217 133.335 169.698 133.867C170.245 134.427 171.002 134.433 171.726 134.336C171.846 134.332 171.96 134.282 172.045 134.197C172.131 134.112 172.18 133.998 172.184 133.878C172.184 133.656 171.973 133.387 171.726 133.42C171.254 133.483 170.682 133.585 170.323 133.195C170.015 132.816 169.868 132.333 169.912 131.847C169.947 131.385 170.138 130.949 170.454 130.61C170.77 130.272 171.192 130.05 171.65 129.983C171.766 129.95 171.865 129.872 171.925 129.766C171.985 129.661 172.001 129.536 171.97 129.419C171.935 129.304 171.857 129.206 171.752 129.146C171.647 129.086 171.523 129.07 171.406 129.099H171.405Z" fill="white"/>
<path d="M210.334 129.533L210.451 133.949C210.453 134.019 210.47 134.088 210.502 134.15C210.533 134.213 210.579 134.268 210.635 134.31C210.69 134.352 210.755 134.382 210.824 134.396C210.893 134.41 210.964 134.408 211.032 134.39C211.644 134.263 212.193 133.928 212.586 133.443C212.979 132.957 213.193 132.35 213.19 131.725C213.187 131.1 212.969 130.495 212.571 130.013C212.174 129.531 211.622 129.201 211.009 129.078C210.892 129.049 210.768 129.066 210.663 129.126C210.558 129.185 210.48 129.283 210.446 129.398C210.415 129.516 210.431 129.64 210.491 129.746C210.55 129.851 210.649 129.929 210.766 129.962C211.185 130.03 211.566 130.245 211.842 130.568C212.118 130.89 212.271 131.3 212.273 131.725C212.276 132.149 212.129 132.561 211.857 132.887C211.585 133.214 211.206 133.433 210.788 133.507L211.368 133.948L211.251 129.533C211.235 128.944 210.319 128.942 210.334 129.533Z" fill="white"/>
<path d="M220.334 220.777H221.869C221.923 220.777 221.975 220.799 222.013 220.837C222.051 220.875 222.072 220.927 222.072 220.981V221.654C222.072 221.708 222.051 221.76 222.013 221.798C221.975 221.836 221.923 221.858 221.869 221.858H221.615V222.868H220.589V221.859H220.334C220.308 221.859 220.281 221.853 220.256 221.843C220.232 221.833 220.209 221.818 220.19 221.799C220.172 221.78 220.157 221.758 220.146 221.733C220.136 221.708 220.131 221.682 220.131 221.655V220.981C220.131 220.954 220.136 220.928 220.146 220.903C220.157 220.878 220.172 220.856 220.19 220.837C220.209 220.818 220.232 220.803 220.256 220.793C220.281 220.783 220.308 220.777 220.334 220.777Z" fill="#E6E6E6"/>
<path opacity="0.2" d="M220.654 220.997C220.657 221.111 220.705 221.22 220.787 221.3C220.869 221.38 220.979 221.425 221.093 221.425C221.208 221.425 221.318 221.38 221.4 221.3C221.482 221.22 221.529 221.111 221.532 220.997" fill="black"/>
<path d="M250.009 194.461L246.165 194.112L243.719 188.171L248.087 185.725L250.009 194.461Z" fill="#FFC3B2"/>
<path d="M214.728 210.771C214.6 210.452 214.55 210.107 214.581 209.765C214.613 209.423 214.725 209.094 214.909 208.804C215.093 208.514 215.343 208.272 215.639 208.097C215.935 207.923 216.268 207.821 216.611 207.8L222.579 207.444L223.458 210.367L217.314 212.054C216.8 212.195 216.253 212.142 215.776 211.906C215.299 211.669 214.926 211.265 214.728 210.771Z" fill="#FFC3B2"/>
<path d="M221.137 212.102L221.202 206.618L234.46 204.503L244.674 192.789C245.205 192.18 245.94 191.784 246.74 191.674C247.541 191.565 248.355 191.749 249.03 192.193C249.439 192.463 249.784 192.818 250.04 193.235C250.297 193.652 250.459 194.121 250.514 194.607C250.57 195.093 250.518 195.586 250.362 196.05C250.206 196.514 249.95 196.939 249.612 197.293L241.186 207.663L221.137 212.102Z" fill="#E6E6E6"/>
<path d="M252.978 273.792H249.484L240.816 234.6L231.836 246.707L226.594 272.918H223.273L223.972 244.785L235.68 214.729H247.212C250.364 220.433 252.836 226.313 250.008 232.378L252.978 273.792Z" fill="#4E5969"/>
<path d="M228.736 276.173C228.775 276.296 228.787 276.427 228.771 276.555C228.755 276.684 228.712 276.808 228.645 276.918C228.578 277.029 228.488 277.124 228.381 277.197C228.274 277.271 228.152 277.32 228.025 277.343L219.475 278.86C219.137 278.922 218.788 278.858 218.494 278.681C218.2 278.503 217.981 278.224 217.878 277.896C217.779 277.583 217.793 277.244 217.918 276.94C218.043 276.636 218.271 276.386 218.562 276.233C220.442 275.268 222.06 273.861 223.277 272.133C224.217 273.008 225.267 272.927 226.383 272.281L227.566 272.428L228.736 276.173Z" fill="#2F2E41"/>
<path d="M254.597 276.172C254.636 276.296 254.648 276.426 254.632 276.555C254.616 276.684 254.574 276.807 254.506 276.918C254.439 277.029 254.349 277.124 254.242 277.197C254.135 277.27 254.014 277.32 253.886 277.342L245.336 278.86C244.998 278.922 244.649 278.858 244.355 278.68C244.061 278.503 243.842 278.224 243.74 277.896C243.64 277.582 243.654 277.244 243.779 276.94C243.904 276.636 244.132 276.386 244.424 276.233C246.304 275.268 247.922 273.861 249.14 272.133C250.08 273.008 251.13 272.927 252.246 272.281L253.429 272.428L254.597 276.172Z" fill="#2F2E41"/>
<path d="M243.631 190.354C246.333 190.354 248.524 188.163 248.524 185.461C248.524 182.759 246.333 180.568 243.631 180.568C240.929 180.568 238.738 182.759 238.738 185.461C238.738 188.163 240.929 190.354 243.631 190.354Z" fill="#FFC3B2"/>
<path d="M247.998 216.041L235.242 215.692L238.988 203.902C236.66 200.169 239.003 196.441 242.319 192.714L244.94 190.967L249.133 190.617C250.949 192.56 251.943 195.13 251.906 197.789C251.859 204.076 250.529 210.286 247.998 216.041Z" fill="#E6E6E6"/>
<path d="M251.669 183.539C251.669 185.443 250.432 188.391 248.873 189.655C247.824 190.505 246.437 190.469 245.902 189.305C245.353 188.111 243.463 185.305 240.136 183.539C235.701 181.185 241.709 177.159 245.902 177.773C249.054 178.235 251.669 180.354 251.669 183.539Z" fill="#4E5969"/>
<path d="M248.698 180.918C250.628 180.918 252.192 179.353 252.192 177.423C252.192 175.493 250.628 173.929 248.698 173.929C246.768 173.929 245.203 175.493 245.203 177.423C245.203 179.353 246.768 180.918 248.698 180.918Z" fill="#4E5969"/>
<path d="M244.678 176.2C244.679 175.319 245.012 174.471 245.612 173.825C246.211 173.18 247.033 172.785 247.911 172.719C247.824 172.713 247.737 172.706 247.649 172.706C246.722 172.706 245.833 173.074 245.178 173.73C244.522 174.385 244.154 175.274 244.154 176.201C244.154 177.128 244.522 178.017 245.178 178.672C245.833 179.327 246.722 179.696 247.649 179.696C247.738 179.696 247.824 179.689 247.911 179.683C247.032 179.617 246.211 179.222 245.611 178.576C245.012 177.93 244.679 177.082 244.678 176.2Z" fill="#4E5969"/>
<path d="M214.65 220.055L208.222 207.953C207.732 207.031 207.629 205.952 207.935 204.954C208.24 203.956 208.93 203.12 209.852 202.631C210.774 202.141 211.853 202.037 212.851 202.343C213.849 202.649 214.685 203.338 215.174 204.26L221.603 216.363C222.092 217.285 222.196 218.363 221.89 219.362C221.584 220.36 220.895 221.196 219.973 221.685C219.051 222.175 217.972 222.278 216.974 221.973C215.976 221.667 215.14 220.977 214.65 220.055Z" fill="#47BCC2"/>
<path d="M218.692 223.976C218.449 223.733 218.267 223.436 218.162 223.109C218.056 222.783 218.03 222.435 218.085 222.096C218.139 221.757 218.274 221.436 218.478 221.159C218.681 220.883 218.947 220.658 219.254 220.504L224.601 217.829L226.559 220.17L221.574 224.14C221.157 224.471 220.633 224.638 220.102 224.608C219.57 224.577 219.068 224.353 218.692 223.976Z" fill="#FFC3B2"/>
<path d="M225.109 222.681L223.012 217.614L234.368 210.454L239.151 195.666C239.399 194.897 239.919 194.244 240.612 193.828C241.306 193.412 242.126 193.261 242.922 193.404C243.404 193.491 243.861 193.682 244.261 193.964C244.66 194.247 244.993 194.614 245.236 195.039C245.478 195.464 245.624 195.938 245.663 196.425C245.703 196.913 245.635 197.404 245.464 197.863L241.796 210.711L225.109 222.681Z" fill="#E6E6E6"/>
</g>
<path d="M226 59.8L234.4 77.4L235.6 54.6L226 59.8Z" fill="#75D5D6"/>
<path d="M249.2 51L239.2 77.4L258.4 61L249.2 51Z" fill="#75D5D6"/>
<path d="M261.2 70.6L243.2 81.8H261.2V70.6Z" fill="#75D5D6"/>
</g>
<path d="M80.014 345.616V346.442C79.356 346.498 78.67 346.568 77.956 346.638V347.716H77.032V346.708C76.108 346.764 75.128 346.834 74.12 346.89L73.994 345.994C75.058 345.938 76.08 345.896 77.032 345.84V344.678H74.428L74.204 343.88C74.596 343.432 74.974 342.9 75.31 342.27H73.812V341.374H75.758C75.884 341.066 76.01 340.758 76.122 340.45L77.13 340.618C77.032 340.87 76.934 341.122 76.822 341.374H80.238V342.27H76.402C76.094 342.858 75.758 343.39 75.408 343.852H77.032V342.928H77.956V343.852H80.14V344.678H77.956V345.784C78.684 345.728 79.37 345.672 80.014 345.616ZM81.974 344.692C81.82 345.868 81.442 346.89 80.84 347.758L80.14 347.03C80.756 346.12 81.092 345.042 81.12 343.782V341.584C82.856 341.416 84.228 341.108 85.208 340.66L85.852 341.416C84.816 341.864 83.556 342.186 82.044 342.354V343.81H86.244V344.692H84.76V347.73H83.794V344.692H81.974ZM84.676 348.136V353.4H83.64V352.854H76.528V353.4H75.492V348.136H84.676ZM76.528 351.986H83.64V350.894H76.528V351.986ZM76.528 350.082H83.64V348.99H76.528V350.082ZM93.482 340.618H94.518V342.536H99.32V343.516H94.518V345.994H100.062V346.974H95.442C96.38 348.738 98.004 350.306 100.3 351.692L99.6 352.588C97.22 350.908 95.554 349.046 94.63 346.974H94.518V353.358H93.482V346.974H93.356C92.348 349.27 90.654 351.146 88.274 352.63L87.7 351.692C89.94 350.46 91.564 348.892 92.572 346.974H87.938V345.994H93.482V343.516H88.778V342.536H93.482V340.618ZM103.254 340.828C104.136 341.528 104.878 342.214 105.48 342.9L104.794 343.6C104.248 342.928 103.506 342.228 102.554 341.486L103.254 340.828ZM101.63 344.874H104.556V351.09C105.06 350.67 105.606 350.194 106.18 349.648L106.46 350.712C105.578 351.538 104.64 352.266 103.66 352.91L103.268 352.014C103.464 351.818 103.576 351.608 103.576 351.384V345.84H101.63V344.874ZM106.6 346.512H113.264V347.436C112.816 348.752 112.088 349.886 111.066 350.838C112.018 351.496 113.18 352.07 114.552 352.574L114.006 353.442C112.55 352.854 111.318 352.196 110.338 351.44C109.218 352.28 107.832 352.938 106.194 353.442L105.634 352.588C107.188 352.126 108.49 351.524 109.54 350.782C108.476 349.802 107.762 348.71 107.37 347.492H106.6V346.512ZM108.322 347.492C108.686 348.5 109.33 349.41 110.254 350.208C111.15 349.424 111.822 348.528 112.27 347.492H108.322ZM107.678 341.108H112.382V344.132C112.382 344.482 112.564 344.664 112.928 344.664H114.216V345.588H112.676C111.808 345.588 111.388 345.168 111.388 344.342V342.06H108.672V342.55C108.672 344.034 107.944 345.182 106.516 345.994L105.844 345.224C107.062 344.622 107.678 343.768 107.678 342.662V341.108ZM120.012 344.762H123.806V340.548H124.842V344.762H128.44V345.77H124.842V353.428H123.806V345.77H120.012V344.762ZM117.268 340.702C118.22 341.416 119.018 342.13 119.662 342.858L118.976 343.558C118.388 342.872 117.576 342.144 116.568 341.388L117.268 340.702ZM115.63 344.846H118.654V351.076C119.158 350.656 119.718 350.18 120.306 349.62L120.558 350.656C119.69 351.496 118.752 352.238 117.758 352.896L117.366 351.986C117.576 351.818 117.688 351.622 117.688 351.398V345.812H115.63V344.846ZM140.396 353.274H138.492L138.268 352.308C138.884 352.35 139.486 352.378 140.046 352.378C140.55 352.378 140.816 352.098 140.816 351.552V340.66H141.824V351.79C141.824 352.77 141.348 353.274 140.396 353.274ZM137.834 341.724H138.814V350.572H137.834V341.724ZM130.008 341.164H136.798V342.144H133.172C133.074 342.816 132.948 343.46 132.78 344.062H136.112V344.958C135.426 348.906 133.522 351.678 130.414 353.26L129.924 352.364C131.506 351.552 132.752 350.418 133.648 348.962C132.934 348.374 132.122 347.828 131.198 347.324C130.876 347.744 130.526 348.136 130.148 348.486L129.672 347.548C131.044 346.232 131.884 344.44 132.178 342.144H130.008V341.164ZM131.702 346.554C132.612 347.058 133.41 347.576 134.11 348.122C134.572 347.184 134.922 346.148 135.146 345.014H132.458C132.234 345.574 131.982 346.078 131.702 346.554ZM144.456 341.78H149.482V340.59H150.518V341.78H155.544V342.704H150.518V344.034H154.732V344.958H150.518V346.288H156.034V347.198H150.938C151.316 348.094 151.778 348.892 152.324 349.592C153.108 349.228 153.864 348.668 154.592 347.898L155.292 348.57C154.578 349.284 153.78 349.844 152.884 350.236C153.808 351.216 154.928 351.958 156.23 352.448L155.698 353.33C153.094 352.28 151.19 350.236 150.014 347.198H149.524C149.034 347.898 148.404 348.542 147.634 349.13V352.112C148.684 351.804 149.72 351.426 150.756 351.006L150.952 351.944C149.496 352.532 148.026 353.008 146.528 353.372L146.192 352.504C146.486 352.392 146.64 352.224 146.64 352V349.802C145.884 350.264 145.044 350.684 144.092 351.062L143.56 350.194C145.8 349.41 147.424 348.416 148.46 347.198H143.966V346.288H149.482V344.958H145.268V344.034H149.482V342.704H144.456V341.78ZM159.604 350.334C159.912 350.334 160.178 350.46 160.374 350.726C160.556 350.978 160.654 351.3 160.654 351.706C160.654 352.322 160.472 352.868 160.108 353.344C159.744 353.792 159.254 354.1 158.666 354.254V353.568C159.03 353.442 159.324 353.232 159.548 352.952C159.744 352.658 159.856 352.35 159.856 352.014C159.8 352.042 159.688 352.07 159.548 352.07C159.31 352.07 159.114 351.986 158.946 351.818C158.778 351.65 158.694 351.44 158.694 351.202C158.694 350.936 158.778 350.726 158.946 350.572C159.114 350.404 159.324 350.334 159.604 350.334ZM215.856 342.004H217.158L216.934 349.312H216.066L215.856 342.004ZM216.5 350.334C216.738 350.334 216.948 350.404 217.116 350.572C217.27 350.726 217.354 350.922 217.354 351.16C217.354 351.412 217.27 351.608 217.116 351.762C216.948 351.916 216.738 352 216.5 352C216.262 352 216.066 351.916 215.898 351.762C215.73 351.594 215.66 351.398 215.66 351.16C215.66 350.922 215.73 350.726 215.898 350.572C216.066 350.404 216.262 350.334 216.5 350.334Z" fill="#86909C"/>
<path d="M180.436 348.08C181.864 349.928 182.956 351.524 183.712 352.896L182.858 353.498C182.634 353.092 182.396 352.672 182.144 352.252C178.896 352.588 175.816 352.84 172.904 353.008L172.722 352.182C173.926 351.524 175.158 349.942 176.418 347.422H171.77V346.442H177.482V343.796H172.652V342.816H177.482V340.59H178.518V342.816H183.32V343.796H178.518V346.442H184.216V347.422H177.538C176.544 349.522 175.536 351.062 174.514 352.056C177.902 351.79 180.282 351.58 181.626 351.412C181.038 350.516 180.366 349.578 179.624 348.598L180.436 348.08ZM187.254 340.828C188.136 341.528 188.878 342.214 189.48 342.9L188.794 343.6C188.248 342.928 187.506 342.228 186.554 341.486L187.254 340.828ZM185.63 344.874H188.556V351.09C189.06 350.67 189.606 350.194 190.18 349.648L190.46 350.712C189.578 351.538 188.64 352.266 187.66 352.91L187.268 352.014C187.464 351.818 187.576 351.608 187.576 351.384V345.84H185.63V344.874ZM190.6 346.512H197.264V347.436C196.816 348.752 196.088 349.886 195.066 350.838C196.018 351.496 197.18 352.07 198.552 352.574L198.006 353.442C196.55 352.854 195.318 352.196 194.338 351.44C193.218 352.28 191.832 352.938 190.194 353.442L189.634 352.588C191.188 352.126 192.49 351.524 193.54 350.782C192.476 349.802 191.762 348.71 191.37 347.492H190.6V346.512ZM192.322 347.492C192.686 348.5 193.33 349.41 194.254 350.208C195.15 349.424 195.822 348.528 196.27 347.492H192.322ZM191.678 341.108H196.382V344.132C196.382 344.482 196.564 344.664 196.928 344.664H198.216V345.588H196.676C195.808 345.588 195.388 345.168 195.388 344.342V342.06H192.672V342.55C192.672 344.034 191.944 345.182 190.516 345.994L189.844 345.224C191.062 344.622 191.678 343.768 191.678 342.662V341.108ZM204.012 344.762H207.806V340.548H208.842V344.762H212.44V345.77H208.842V353.428H207.806V345.77H204.012V344.762ZM201.268 340.702C202.22 341.416 203.018 342.13 203.662 342.858L202.976 343.558C202.388 342.872 201.576 342.144 200.568 341.388L201.268 340.702ZM199.63 344.846H202.654V351.076C203.158 350.656 203.718 350.18 204.306 349.62L204.558 350.656C203.69 351.496 202.752 352.238 201.758 352.896L201.366 351.986C201.576 351.818 201.688 351.622 201.688 351.398V345.812H199.63V344.846Z" fill="#009E9E"/>
<defs>
<filter id="filter0_dd_5256_16948" x="12.7714" y="90" width="274.457" height="219.341" filterUnits="userSpaceOnUse" color-interpolation-filters="sRGB">
<feFlood flood-opacity="0" result="BackgroundImageFix"/>
<feColorMatrix in="SourceAlpha" type="matrix" values="0 0 0 0 0 0 0 0 0 0 0 0 0 0 0 0 0 0 127 0" result="hardAlpha"/>
<feMorphology radius="3.04573" operator="erode" in="SourceAlpha" result="effect1_dropShadow_5256_16948"/>
<feOffset dy="6.09145"/>
<feGaussianBlur stdDeviation="3.04573"/>
<feComposite in2="hardAlpha" operator="out"/>
<feColorMatrix type="matrix" values="0 0 0 0 0.0901961 0 0 0 0 0.219608 0 0 0 0 0.482353 0 0 0 0.03 0"/>
<feBlend mode="normal" in2="BackgroundImageFix" result="effect1_dropShadow_5256_16948"/>
<feColorMatrix in="SourceAlpha" type="matrix" values="0 0 0 0 0 0 0 0 0 0 0 0 0 0 0 0 0 0 127 0" result="hardAlpha"/>
<feMorphology radius="3.04573" operator="erode" in="SourceAlpha" result="effect2_dropShadow_5256_16948"/>
<feOffset dy="15.2286"/>
<feGaussianBlur stdDeviation="9.13718"/>
<feComposite in2="hardAlpha" operator="out"/>
<feColorMatrix type="matrix" values="0 0 0 0 0.0902477 0 0 0 0 0.2203 0 0 0 0 0.480404 0 0 0 0.08 0"/>
<feBlend mode="normal" in2="effect1_dropShadow_5256_16948" result="effect2_dropShadow_5256_16948"/>
<feBlend mode="normal" in="SourceGraphic" in2="effect2_dropShadow_5256_16948" result="shape"/>
</filter>
<filter id="filter1_dd_5256_16948" x="18.7401" y="95.4902" width="262.789" height="161.552" filterUnits="userSpaceOnUse" color-interpolation-filters="sRGB">
<feFlood flood-opacity="0" result="BackgroundImageFix"/>
<feColorMatrix in="SourceAlpha" type="matrix" values="0 0 0 0 0 0 0 0 0 0 0 0 0 0 0 0 0 0 127 0" result="hardAlpha"/>
<feMorphology radius="3.04573" operator="erode" in="SourceAlpha" result="effect1_dropShadow_5256_16948"/>
<feOffset dy="6.09145"/>
<feGaussianBlur stdDeviation="3.04573"/>
<feComposite in2="hardAlpha" operator="out"/>
<feColorMatrix type="matrix" values="0 0 0 0 0.0901961 0 0 0 0 0.219608 0 0 0 0 0.482353 0 0 0 0.03 0"/>
<feBlend mode="normal" in2="BackgroundImageFix" result="effect1_dropShadow_5256_16948"/>
<feColorMatrix in="SourceAlpha" type="matrix" values="0 0 0 0 0 0 0 0 0 0 0 0 0 0 0 0 0 0 127 0" result="hardAlpha"/>
<feMorphology radius="3.04573" operator="erode" in="SourceAlpha" result="effect2_dropShadow_5256_16948"/>
<feOffset dy="15.2286"/>
<feGaussianBlur stdDeviation="9.13718"/>
<feComposite in2="hardAlpha" operator="out"/>
<feColorMatrix type="matrix" values="0 0 0 0 0.0902477 0 0 0 0 0.2203 0 0 0 0 0.480404 0 0 0 0.08 0"/>
<feBlend mode="normal" in2="effect1_dropShadow_5256_16948" result="effect2_dropShadow_5256_16948"/>
<feBlend mode="normal" in="SourceGraphic" in2="effect2_dropShadow_5256_16948" result="shape"/>
</filter>
<linearGradient id="paint0_linear_5256_16948" x1="123.134" y1="327.527" x2="162.984" y2="36.3815" gradientUnits="userSpaceOnUse">
<stop stop-color="white"/>
<stop offset="0.1" stop-color="#F0FFFE"/>
<stop offset="0.24" stop-color="#CAF5F5"/>
<stop offset="0.25" stop-color="#CAF5F5"/>
<stop offset="0.26" stop-color="#D2F5F5"/>
<stop offset="0.45" stop-color="#E8FFFE"/>
<stop offset="0.64" stop-color="#ECFFFE"/>
<stop offset="0.82" stop-color="#EBFFFE"/>
<stop offset="1" stop-color="white"/>
</linearGradient>
<linearGradient id="paint1_linear_5256_16948" x1="33.9688" y1="161.037" x2="266.301" y2="161.037" gradientUnits="userSpaceOnUse">
<stop stop-color="white"/>
<stop offset="0.78" stop-color="#E8FFFE"/>
</linearGradient>
<clipPath id="clip0_5256_16948">
<rect width="300" height="300" fill="white"/>
</clipPath>
</defs>
</svg>
