<svg width="200" height="192" viewBox="0 0 200 192" fill="none" xmlns="http://www.w3.org/2000/svg">
<path opacity="0.2" d="M95.7584 148C129.983 148 157.728 147.182 157.728 146.173C157.728 145.164 129.983 144.346 95.7584 144.346C61.5337 144.346 33.7891 145.164 33.7891 146.173C33.7891 147.182 61.5337 148 95.7584 148Z" fill="#7C979E"/>
<path opacity="0.4" d="M133.336 7.05616C133.781 6.61365 134.311 6.26291 134.894 6.02415C135.477 5.78539 136.103 5.66333 136.734 5.66502H141.502C141.855 4.05999 142.752 2.62291 144.043 1.59241C145.335 0.561906 146.943 0 148.602 0C150.26 0 151.868 0.561906 153.16 1.59241C154.451 2.62291 155.348 4.05999 155.701 5.66502H156.983C157.613 5.66586 158.236 5.78957 158.818 6.02908C159.399 6.26858 159.927 6.6192 160.372 7.06091C160.817 7.50262 161.169 8.02677 161.41 8.60344C161.65 9.1801 161.773 9.79799 161.772 10.4218C161.772 11.6817 161.267 12.89 160.367 13.7809C159.468 14.6717 158.248 15.1722 156.976 15.1722H136.727C135.455 15.1722 134.235 14.6718 133.335 13.7809C132.436 12.8901 131.93 11.6818 131.93 10.4218C131.928 9.79666 132.052 9.1774 132.293 8.59974C132.534 8.02209 132.889 7.49747 133.336 7.05616Z" fill="#19BBFF" fill-opacity="0.3"/>
<path opacity="0.4" d="M97.954 18.9122C97.5359 18.497 97.0391 18.1676 96.4921 17.9432C95.9451 17.7188 95.3587 17.6036 94.7666 17.6044H90.2863C89.9535 16.0974 89.1106 14.7484 87.8973 13.7811C86.6841 12.8139 85.1735 12.2865 83.6161 12.2865C82.0587 12.2865 80.5481 12.8139 79.3349 13.7811C78.1217 14.7484 77.2788 16.0974 76.9459 17.6044H75.7405C74.5455 17.6048 73.3996 18.0752 72.5547 18.9122C71.7097 19.7492 71.2348 20.8843 71.2344 22.0679C71.2348 23.2516 71.7097 24.3867 72.5547 25.2236C73.3996 26.0606 74.5455 26.531 75.7405 26.5314H94.7666C95.3588 26.5323 95.9454 26.4174 96.4927 26.1935C97.0401 25.9695 97.5375 25.6409 97.9565 25.2263C98.3755 24.8117 98.7078 24.3193 98.9345 23.7774C99.1612 23.2354 99.2778 22.6545 99.2776 22.0679C99.2778 21.4815 99.161 20.9008 98.9339 20.3592C98.7067 19.8176 98.3737 19.3259 97.954 18.9122Z" fill="#19BBFF" fill-opacity="0.3"/>
<path opacity="0.8" d="M199.727 100.112C199.69 102.619 197.387 104.474 194.924 104.005C175.931 100.385 151.372 97.2739 123.022 97.2739C65.5033 97.2739 18.492 110.07 5.45014 113.987C3.41492 114.598 1.25994 113.548 0.883917 111.456C-1.61741 97.544 1.07798 63.0689 10.4038 56.9716C20.7125 50.2317 29.4271 61.7804 37.5697 56.9715C45.7124 52.1626 45.7388 20.3898 58.238 17.6538C70.7372 14.9178 73.3719 46.1054 88.6471 46.1054C103.922 46.1054 101.613 18.7491 119.472 17.6537C137.331 16.5584 136.861 45.6634 147.607 45.6634C158.352 45.6634 153.996 33.992 170.839 33.65C187.683 33.308 200.599 69.9361 199.979 83.0479L199.727 100.112Z" fill="url(#paint0_linear_10546_140152)"/>
<path d="M144.354 48.1617H52.4997C49.1646 48.1617 46.4609 50.8353 46.4609 54.1332V107.966C46.4609 111.264 49.1646 113.937 52.4997 113.937H144.354C147.689 113.937 150.393 111.264 150.393 107.966V54.1332C150.393 50.8353 147.689 48.1617 144.354 48.1617Z" fill="white"/>
<path d="M145.788 114.784H50.996C49.5534 114.782 48.1704 114.214 47.1503 113.203C46.1302 112.193 45.5564 110.823 45.5547 109.394V52.7658C45.556 51.3367 46.1297 49.9666 47.1498 48.956C48.17 47.9455 49.5533 47.3772 50.996 47.376H145.788C147.231 47.3777 148.614 47.9461 149.634 48.9565C150.654 49.9669 151.228 51.3369 151.229 52.7658V109.394C151.228 110.823 150.654 112.193 149.634 113.203C148.614 114.214 147.231 114.782 145.788 114.784ZM50.996 48.5299C49.8621 48.5308 48.7749 48.9773 47.9731 49.7715C47.1713 50.5657 46.7205 51.6427 46.7196 52.7658V109.394C46.7209 110.517 47.1719 111.594 47.9736 112.388C48.7753 113.182 49.8623 113.628 50.996 113.63H145.788C146.922 113.628 148.009 113.182 148.811 112.388C149.612 111.594 150.063 110.517 150.065 109.394V52.7658C150.063 51.6428 149.612 50.5661 148.811 49.772C148.009 48.9779 146.922 48.5312 145.788 48.5299H50.996Z" fill="#D7E2E5"/>
<path d="M89.3038 67.4308C91.5895 65.0171 94.73 63.8108 98.7254 63.8119C102.419 63.8119 105.376 64.8435 107.599 66.9067C109.821 68.9699 110.932 71.6074 110.932 74.8192C110.932 76.7627 110.529 78.3403 109.723 79.552C108.917 80.7636 107.266 82.5431 104.77 84.8905C102.954 86.6001 101.772 88.0452 101.224 89.2258C100.676 90.4065 100.402 92.1539 100.402 94.4682H95.4522C95.4522 91.8452 95.7672 89.7307 96.3971 88.1248C97.0271 86.5189 98.4293 84.6795 100.604 82.6067L102.869 80.4334C103.507 79.8591 104.064 79.2013 104.523 78.4781C105.265 77.3776 105.666 76.0864 105.678 74.7631C105.707 73.0594 105.117 71.4021 104.016 70.0929C102.91 68.7669 101.08 68.1039 98.5264 68.1039C95.3681 68.1039 93.1838 69.2413 91.9735 71.516C91.2918 72.7822 90.904 74.6076 90.8102 76.9924H85.8672C85.8672 73.0338 87.0127 69.8466 89.3038 67.4308ZM95.3454 99.0359H100.874V104.759H95.3406L95.3454 99.0359Z" fill="#91BD06"/>
<path d="M150.629 56.9016H46.1555C45.9962 56.9016 45.8434 56.8408 45.7307 56.7326C45.618 56.6244 45.5547 56.4777 45.5547 56.3247C45.5547 56.1716 45.618 56.0249 45.7307 55.9167C45.8434 55.8085 45.9962 55.7477 46.1555 55.7477H150.629C150.788 55.7477 150.941 55.8085 151.053 55.9167C151.166 56.0249 151.229 56.1716 151.229 56.3247C151.229 56.4777 151.166 56.6244 151.053 56.7326C150.941 56.8408 150.788 56.9016 150.629 56.9016Z" fill="#D7E2E5"/>
<path d="M52.8232 52.584C52.9272 51.9488 52.4918 51.3503 51.8505 51.2472C51.2093 51.1441 50.6051 51.5754 50.501 52.2106C50.3969 52.8458 50.8323 53.4443 51.4736 53.5474C52.1148 53.6505 52.7191 53.2192 52.8232 52.584Z" fill="#FF7052"/>
<path d="M57.552 52.6581C57.7013 52.0318 57.3097 51.4043 56.6774 51.2565C56.0452 51.1086 55.4116 51.4965 55.2624 52.1228C55.1132 52.7491 55.5047 53.3767 56.137 53.5245C56.7693 53.6723 57.4028 53.2844 57.552 52.6581Z" fill="#FFA901"/>
<path d="M62.3153 52.584C62.4194 51.9488 61.984 51.3503 61.3427 51.2472C60.7015 51.1441 60.0972 51.5754 59.9932 52.2106C59.8891 52.8458 60.3245 53.4443 60.9658 53.5474C61.607 53.6505 62.2113 53.2192 62.3153 52.584Z" fill="#2DC86D"/>
<path d="M17.865 104.297C15.5448 104.23 13.0256 103.429 13.087 99.7279C13.1485 96.0273 15.8376 95.4599 16.1192 92.6905C16.4007 89.921 16.4072 87.3567 17.865 87.3294C19.3228 87.3022 18.4006 88.4834 19.0785 89.7639C19.7564 91.0445 21.0719 92.6841 20.8178 95.0785C20.5638 97.4729 22.2838 98.388 22.1931 100.345C22.1025 102.302 20.868 104.39 17.865 104.297Z" fill="#19BBFF" fill-opacity="0.15"/>
<path d="M18.7267 94.869C18.7077 94.8506 18.6821 94.8403 18.6555 94.8403C18.6289 94.8403 18.6034 94.8506 18.5843 94.869C18.5656 94.8882 18.5552 94.9137 18.5552 94.9404C18.5552 94.967 18.5656 94.9925 18.5843 95.0117C18.5843 95.0117 19.1878 95.6143 19.1264 97.6561C19.0746 99.4191 18.1556 102.153 17.8578 102.979C17.5828 102.338 17.2284 101.626 16.9307 101.028C16.7285 100.626 16.5537 100.277 16.4599 100.057C16.1153 99.2556 16.6395 97.5664 16.6443 97.5503C16.6525 97.5251 16.6502 97.4976 16.6379 97.474C16.6256 97.4504 16.6044 97.4326 16.5788 97.4245C16.5533 97.4165 16.5256 97.4188 16.5017 97.4309C16.4779 97.4431 16.46 97.4641 16.4518 97.4894C16.4292 97.5616 15.9001 99.2652 16.2738 100.135C16.3709 100.361 16.5456 100.711 16.7495 101.118C17.2932 102.206 18.1151 103.843 18.1022 104.484C18.0844 105.371 17.976 106.644 17.976 106.657C17.9746 106.67 17.976 106.683 17.9799 106.696C17.9839 106.709 17.9903 106.72 17.9989 106.731C18.0075 106.741 18.018 106.749 18.0299 106.755C18.0418 106.761 18.0549 106.765 18.0682 106.766C18.0935 106.766 18.1178 106.757 18.1364 106.74C18.155 106.723 18.1665 106.699 18.1685 106.674C18.1685 106.662 18.2785 105.381 18.2963 104.488C18.2963 104.202 18.1669 103.756 17.9646 103.251C18.0973 102.887 19.259 99.6659 19.3221 97.6561C19.4014 95.5149 18.7542 94.8931 18.7267 94.869Z" fill="#19BBFF"/>
<path d="M190.064 94.7553C188.085 94.696 185.938 94.0068 185.985 90.8591C186.032 87.7114 188.339 87.221 188.574 84.8667C188.809 82.5123 188.82 80.3182 190.062 80.2958C191.305 80.2733 190.519 81.2782 191.096 82.3713C191.674 83.4643 192.795 84.8602 192.578 86.9005C192.362 88.9407 193.829 89.7228 193.752 91.388C193.674 93.0532 192.624 94.8306 190.064 94.7553Z" fill="#19BBFF" fill-opacity="0.15"/>
<path d="M190.795 86.7162C190.787 86.7083 190.777 86.702 190.767 86.6978C190.756 86.6935 190.745 86.6913 190.734 86.6913C190.723 86.6913 190.711 86.6935 190.701 86.6978C190.691 86.702 190.681 86.7083 190.673 86.7162C190.665 86.7241 190.659 86.7335 190.655 86.7438C190.65 86.7541 190.648 86.7651 190.648 86.7763C190.648 86.7875 190.65 86.7985 190.655 86.8088C190.659 86.8191 190.665 86.8285 190.673 86.8364C190.673 86.8364 191.188 87.3493 191.136 89.0914C191.091 90.5963 190.303 92.925 190.053 93.6286C189.821 93.0805 189.518 92.4747 189.264 91.9666C189.091 91.622 188.94 91.3255 188.863 91.138C188.568 90.4537 189.024 89.0145 189.024 89C189.031 88.9784 189.029 88.955 189.018 88.9349C189.008 88.9148 188.99 88.8997 188.968 88.8927C188.946 88.8861 188.922 88.8883 188.902 88.8988C188.882 88.9093 188.866 88.9272 188.859 88.9488C188.84 89.0113 188.389 90.4617 188.707 91.2053C188.79 91.3961 188.94 91.6958 189.113 92.042C189.578 92.9699 190.278 94.3723 190.267 94.9172C190.253 95.6737 190.16 96.7587 190.159 96.7699C190.157 96.7926 190.164 96.8151 190.179 96.8325C190.194 96.8499 190.215 96.8608 190.238 96.8629C190.26 96.863 190.281 96.8549 190.297 96.8404C190.313 96.8259 190.323 96.8059 190.325 96.7843C190.325 96.7731 190.418 95.6817 190.434 94.9204C190.4 94.5555 190.305 94.1989 190.151 93.8658C190.264 93.5565 191.256 90.8095 191.307 89.0962C191.367 87.2675 190.817 86.7386 190.795 86.7162Z" fill="#19BBFF"/>
<path d="M35.478 88.9499C34.1173 88.9082 32.64 88.4354 32.6724 86.2702C32.7048 84.1049 34.2904 83.7684 34.4522 82.1481C34.614 80.5277 34.614 79.0196 35.4764 79.0036C36.3388 78.9875 35.7903 79.6799 36.1883 80.4316C36.5863 81.1832 37.3565 82.1432 37.2077 83.5472C37.0588 84.9512 38.0668 85.4881 38.0167 86.6356C37.9665 87.7831 37.2384 89.0044 35.478 88.9499Z" fill="#19BBFF" fill-opacity="0.15"/>
<path d="M35.9854 83.4208C35.9741 83.4102 35.9589 83.4045 35.9433 83.4049C35.9277 83.4054 35.9128 83.412 35.9021 83.4232C35.8914 83.4345 35.8856 83.4495 35.8861 83.465C35.8865 83.4805 35.8932 83.4951 35.9045 83.5058C35.9045 83.5058 36.2589 83.86 36.2281 85.0572C36.1974 86.0925 35.6554 87.6952 35.4839 88.1776C35.3221 87.801 35.115 87.3763 34.9402 87.0349C34.8221 86.7977 34.7185 86.5942 34.6635 86.4643C34.4613 85.9947 34.7687 85.0043 34.7719 84.9947C34.7744 84.9873 34.7754 84.9795 34.7748 84.9718C34.7742 84.964 34.772 84.9565 34.7684 84.9496C34.7647 84.9427 34.7597 84.9367 34.7537 84.9317C34.7476 84.9268 34.7406 84.9231 34.7331 84.9209C34.7181 84.9164 34.7019 84.9179 34.6879 84.9251C34.674 84.9323 34.6635 84.9446 34.6587 84.9594C34.6457 85.0027 34.3351 86.0012 34.5551 86.5108C34.6118 86.6438 34.7169 86.849 34.8334 87.0878C35.157 87.7289 35.6343 88.6905 35.6263 89.0639C35.6165 89.5848 35.5534 90.3316 35.5518 90.3461C35.5509 90.3615 35.5562 90.3767 35.5665 90.3884C35.5767 90.4001 35.5912 90.4073 35.6068 90.4086C35.6217 90.4087 35.636 90.4033 35.647 90.3935C35.6581 90.3838 35.6651 90.3703 35.6667 90.3557C35.6667 90.3557 35.7298 89.5976 35.7411 89.0735C35.7186 88.8221 35.6524 88.5765 35.5454 88.3475C35.6246 88.1344 36.3058 86.2464 36.3414 85.0668C36.3835 83.7991 36.0016 83.4352 35.9854 83.4208Z" fill="#19BBFF"/>
<path d="M168.841 110.723C166.462 110.652 163.882 109.825 163.938 106.04C163.995 102.254 166.768 101.664 167.051 98.8276C167.335 95.9908 167.348 93.3608 168.841 93.3319C170.334 93.3031 169.389 94.5147 170.085 95.8273C170.781 97.1399 172.129 98.8212 171.865 101.276C171.601 103.732 173.367 104.669 173.274 106.676C173.182 108.683 171.92 110.816 168.841 110.723Z" fill="#19BBFF" fill-opacity="0.15"/>
<path d="M169.717 101.058C169.707 101.049 169.696 101.041 169.683 101.036C169.671 101.031 169.657 101.028 169.644 101.028C169.63 101.028 169.617 101.031 169.604 101.036C169.592 101.041 169.58 101.049 169.571 101.058C169.552 101.078 169.541 101.103 169.541 101.13C169.541 101.157 169.552 101.183 169.571 101.203C169.571 101.203 170.191 101.82 170.128 103.914C170.074 105.724 169.128 108.524 168.833 109.364C168.552 108.703 168.186 107.977 167.883 107.365C167.676 106.951 167.498 106.594 167.398 106.368C167.044 105.546 167.582 103.817 167.587 103.804C167.596 103.778 167.593 103.75 167.581 103.726C167.568 103.701 167.546 103.683 167.52 103.675C167.507 103.671 167.494 103.669 167.48 103.67C167.466 103.671 167.453 103.675 167.441 103.681C167.417 103.694 167.398 103.715 167.39 103.741C167.366 103.817 166.824 105.56 167.207 106.453C167.306 106.684 167.485 107.044 167.692 107.461C168.249 108.583 169.092 110.263 169.079 110.918C169.061 111.827 168.95 113.133 168.95 113.146C168.947 113.173 168.956 113.2 168.974 113.22C168.991 113.241 169.016 113.254 169.044 113.256H169.053C169.079 113.257 169.105 113.247 169.124 113.229C169.143 113.212 169.155 113.188 169.157 113.162C169.157 113.149 169.268 111.838 169.288 110.918C169.288 110.625 169.154 110.168 168.946 109.65C169.082 109.277 170.276 105.975 170.338 103.916C170.411 101.72 169.751 101.084 169.717 101.058Z" fill="#19BBFF"/>
<path d="M39.4057 113.825C38.0546 114.173 32.9337 113.97 33.9126 111.468C34.9998 108.685 37.9025 111.117 39.1468 112.659C38.7768 110.577 38.5997 108.466 38.6177 106.352C37.6971 105.256 35.7522 98.2968 39.5885 98.6414C44.6043 99.0934 40.1613 105.68 39.006 106.429C39.006 108.032 39.1144 111.215 39.8474 113.974C40.0092 112.221 41.7696 107.232 44.1157 108.992C47.5135 111.543 41.0075 114.623 40.0189 114.571C40.2895 115.52 40.7064 116.423 41.255 117.247C41.632 117.781 42.0511 118.399 42.4831 119.073L42.5057 119.098C42.7242 117.252 44.4635 112.51 46.7611 114.231C49.9388 116.614 44.4732 119.456 42.9297 119.779C43.9386 121.389 44.8422 123.061 45.635 124.785C45.7417 123.118 49.0457 119.709 50.3579 121.658C51.0892 122.744 47.2174 126.286 45.9408 125.493C46.6689 127.256 47.1073 128.9 46.9552 130.102C46.9002 130.545 46.8177 131.064 46.7239 131.634C47.6283 130.642 50.8951 127.32 51.8691 129.892C52.6781 132.024 49.9793 133.258 48.8467 133.258C47.9584 133.258 47.0183 132.428 46.6511 132.064C46.5971 132.372 46.5432 132.686 46.4893 133.008C46.033 135.632 45.4861 138.789 45.6463 140.688C46.4181 139.206 49.866 133.03 51.8707 137.002C52.8982 139.037 49.9809 140.744 48.8483 141.118C47.918 141.425 46.2595 141.15 45.6867 141.039C45.712 141.236 45.7548 141.431 45.8146 141.621C46.554 143.815 48.0458 146.044 48.0603 146.067C48.0881 146.108 48.0983 146.158 48.0886 146.207C48.0789 146.256 48.0501 146.299 48.0086 146.326C47.9773 146.347 47.9408 146.358 47.9034 146.358C47.8715 146.359 47.84 146.352 47.8117 146.337C47.7834 146.323 47.7593 146.301 47.7416 146.275C47.0051 145.143 46.3643 143.952 45.8259 142.715C44.936 142.603 41.5139 142.142 40.5302 141.493C39.3976 140.744 37.367 138.287 39.019 137.375C41.5754 135.968 44.2548 139.707 45.4279 141.651C44.991 140.209 45.3793 137.298 45.8324 134.572C44.9182 134.843 41.9492 134.317 40.9088 133.633C39.7762 132.885 37.8216 130.945 39.019 129.891C42.0236 127.245 45.1965 132.848 45.8971 134.192C45.9683 133.768 46.0411 133.349 46.1123 132.944C46.3016 131.857 46.4796 130.832 46.5766 130.059C46.7174 128.937 46.2983 127.334 45.5508 125.539C44.9538 125.727 42.9361 126.278 40.7195 125.966C38.074 125.591 36.7327 123.55 37.6971 122.6C39.3361 120.977 44.182 124.341 45.4327 125.259C44.5753 123.331 43.5714 121.471 42.4297 119.694C40.8878 120.049 34.7474 119.919 35.5791 117.504C36.4107 115.088 39.5529 116.713 41.4039 118.129C41.2518 117.906 41.0981 117.685 40.946 117.468C40.2405 116.473 39.7503 115.188 39.4057 113.825Z" fill="url(#paint1_linear_10546_140152)"/>
<path d="M50.3496 137.004C53.5209 135.746 54.2959 140.555 54.4642 142.132C55.1616 139.832 55.4593 137.036 55.1421 134.76C54.6567 134.749 52.7896 134.661 51.4822 134.013C49.971 133.265 49.0391 130.268 50.3496 129.897C52.5501 129.274 54.4869 133.053 55.0774 134.342C55.0256 134.052 54.9642 133.77 54.8897 133.502C54.3647 131.461 54.0359 129.376 53.9076 127.274C53.3106 127.264 51.6424 127.206 50.7266 126.904C49.594 126.529 47.6751 123.596 49.2154 123.16C51.3399 122.559 53.22 125.577 53.8769 126.79C53.7507 124.475 53.8461 122.249 54.2441 120.732C54.0743 120.065 53.749 118.648 53.749 117.547C53.749 116.049 55.5029 113.103 57.1468 114.552C60.1547 117.201 55.647 120.296 54.5661 120.975C54.2005 122.471 54.1212 124.628 54.2425 126.865C54.9189 125.182 57.6403 119.122 60.9168 122.038C62.174 123.16 59.4056 125.78 57.519 126.525C56.4821 126.94 55.3867 127.192 54.2717 127.274C54.4011 129.341 54.7261 131.392 55.2425 133.399C55.3315 133.725 55.4023 134.055 55.4544 134.388C56.1712 132.955 59.4994 126.868 63.1836 129.519C64.7126 130.62 61.6724 133.261 60.1612 134.007C58.8668 134.648 56.223 134.683 55.5013 134.68C55.8152 136.949 55.5305 139.728 54.8541 142.052C55.9641 140.389 59.2098 136.122 61.6756 138.868C63.1318 140.499 59.3506 141.881 58.2778 142.233C57.3297 142.554 55.3039 142.639 54.6632 142.661C54.126 144.264 53.3947 145.602 52.542 146.306C52.5085 146.335 52.4653 146.351 52.4207 146.351C52.393 146.35 52.3656 146.344 52.3405 146.333C52.3154 146.321 52.2931 146.304 52.2751 146.283C52.2432 146.245 52.2279 146.196 52.2325 146.146C52.237 146.097 52.261 146.051 52.2993 146.019C53.1083 145.347 53.8105 144.075 54.325 142.536C53.8396 142.333 52.4029 141.722 51.4758 141.11C50.3496 140.371 48.5957 137.698 50.3496 137.004Z" fill="#F8B02D" fill-opacity="0.6"/>
<path d="M42.2206 146.361H59.4118C59.462 146.361 59.5102 146.341 59.5457 146.306C59.5812 146.271 59.6011 146.223 59.6011 146.173C59.6011 146.124 59.5812 146.076 59.5457 146.041C59.5102 146.005 59.462 145.986 59.4118 145.986H42.2206C42.1704 145.986 42.1222 146.005 42.0867 146.041C42.0512 146.076 42.0312 146.124 42.0312 146.173C42.0312 146.223 42.0512 146.271 42.0867 146.306C42.1222 146.341 42.1704 146.361 42.2206 146.361Z" fill="#24515D"/>
<path d="M36.1815 146.361H40.1488C40.199 146.361 40.2472 146.341 40.2827 146.306C40.3182 146.271 40.3381 146.223 40.3381 146.173C40.3381 146.124 40.3182 146.076 40.2827 146.041C40.2472 146.005 40.199 145.986 40.1488 145.986H36.1815C36.1313 145.986 36.0831 146.005 36.0476 146.041C36.0121 146.076 35.9922 146.124 35.9922 146.173C35.9922 146.223 36.0121 146.271 36.0476 146.306C36.0831 146.341 36.1313 146.361 36.1815 146.361Z" fill="#24515D"/>
<path d="M138.58 144.897H141.609V116.101H143.086V127.48H145.377V116.101H146.853V128.937H143.086V144.897H146.115C146.305 144.906 146.484 144.987 146.615 145.123C146.746 145.259 146.82 145.44 146.82 145.629C146.82 145.817 146.746 145.998 146.615 146.134C146.484 146.27 146.305 146.351 146.115 146.36H138.58C138.39 146.351 138.211 146.27 138.079 146.134C137.948 145.998 137.875 145.817 137.875 145.629C137.875 145.44 137.948 145.259 138.079 145.123C138.211 144.987 138.39 144.906 138.58 144.897Z" fill="#547781"/>
<path d="M144.048 109.856C150.483 109.856 155.698 111.056 155.698 112.539V113.981C155.698 115.462 150.481 116.664 144.048 116.664C137.615 116.664 132.398 115.462 132.398 113.981V112.539C132.398 111.056 137.615 109.856 144.048 109.856Z" fill="url(#paint2_linear_10546_140152)"/>
<path opacity="0.1" d="M128.86 74.6996C131.06 71.1093 129.905 66.432 126.281 64.2526C122.656 62.0731 117.934 63.2167 115.734 66.807C113.534 70.3973 114.688 75.0746 118.313 77.254C121.937 79.4335 126.659 78.2898 128.86 74.6996Z" fill="white"/>
<path opacity="0.75" d="M127.123 68.4229C126.985 68.4235 126.849 68.3799 126.737 68.2985C126.626 68.2172 126.543 68.1023 126.502 67.9709C126.231 67.1121 125.627 66.395 124.822 65.9772C124.018 65.5595 123.078 65.4753 122.211 65.7432C122.046 65.794 121.868 65.7779 121.715 65.6984C121.562 65.6189 121.448 65.4825 121.397 65.3193C121.345 65.1561 121.362 64.9793 121.442 64.828C121.522 64.6767 121.66 64.5631 121.825 64.5123C123.021 64.1427 124.317 64.2588 125.427 64.8352C126.537 65.4117 127.371 66.4012 127.745 67.5863C127.795 67.7487 127.779 67.9243 127.699 68.0745C127.619 68.2248 127.482 68.3374 127.318 68.3876C127.255 68.4088 127.19 68.4207 127.123 68.4229Z" fill="url(#paint3_linear_10546_140152)"/>
<path opacity="0.75" d="M119.559 62.0631C117.824 62.6 116.289 63.6344 115.147 65.0356C114.006 66.4367 113.31 68.1416 113.147 69.9346C112.983 71.7277 113.361 73.5285 114.23 75.1092C115.1 76.69 116.424 77.9797 118.034 78.8153C119.644 79.651 121.468 79.995 123.275 79.804C125.082 79.6129 126.792 78.8953 128.187 77.7419C129.583 76.5885 130.602 75.0511 131.115 73.3241C131.629 71.5971 131.614 69.7581 131.072 68.0395C130.346 65.7347 128.724 63.8102 126.565 62.6894C124.406 61.5686 121.886 61.3433 119.559 62.0631ZM124.587 78.0131C123.138 78.461 121.587 78.473 120.13 78.0477C118.674 77.6223 117.377 76.7787 116.405 75.6234C115.432 74.4682 114.828 73.0533 114.667 71.5576C114.506 70.0619 114.797 68.5526 115.503 67.2206C116.208 65.8886 117.296 64.7937 118.63 64.0744C119.963 63.3551 121.482 63.0437 122.995 63.1796C124.507 63.3155 125.945 63.8925 127.126 64.8377C128.307 65.7829 129.179 67.0539 129.631 68.4899C130.237 70.4148 130.046 72.4993 129.101 74.2851C128.156 76.071 126.534 77.4119 124.591 78.0131H124.587Z" fill="url(#paint4_linear_10546_140152)"/>
<path opacity="0.75" d="M125.715 78.9183L124.188 79.391L126.36 86.2796L127.888 85.8069L125.715 78.9183Z" fill="url(#paint5_linear_10546_140152)"/>
<path opacity="0.75" d="M131.021 98.4138C130.789 98.4856 130.545 98.5114 130.304 98.4899C130.062 98.4683 129.826 98.3998 129.611 98.2881C129.396 98.1765 129.205 98.024 129.05 97.8393C128.894 97.6547 128.777 97.4414 128.704 97.2118L125.365 86.6228C125.326 86.5008 125.313 86.3726 125.324 86.2454C125.336 86.1182 125.373 85.9946 125.433 85.8816C125.494 85.7686 125.576 85.6684 125.675 85.5869C125.774 85.5053 125.889 85.444 126.012 85.4063L127.669 84.8935C127.792 84.8555 127.921 84.842 128.05 84.8537C128.178 84.8654 128.303 84.902 128.418 84.9616C128.532 85.0211 128.633 85.1023 128.715 85.2007C128.798 85.299 128.86 85.4124 128.898 85.5345L132.238 96.1252C132.382 96.5885 132.335 97.0895 132.107 97.5185C131.879 97.9475 131.488 98.2695 131.021 98.4138Z" fill="url(#paint6_linear_10546_140152)"/>
<path d="M131.662 93.763C131.662 93.763 128.223 91.6619 127.184 90.5753C126.145 89.4886 125.708 88.9934 125.975 88.7642C126.242 88.535 129.146 89.7996 129.426 89.5864C129.706 89.3732 129.462 88.8411 129.777 88.6023C130.093 88.3635 131.967 90.2756 132.412 90.1297C132.856 89.9839 132.18 93.4249 131.662 93.763Z" fill="#FFAA9D"/>
<path d="M117.945 132.896L115.422 135.314L109.031 129.455L111.135 126.067L117.945 132.896Z" fill="#F8CCA3"/>
<path d="M115.793 134.959C115.793 134.959 114.032 137.142 113.701 137.146C113.369 137.151 105.991 129.242 106.039 128.987C106.088 128.732 109.309 129.006 109.309 129.006L115.793 134.959Z" fill="url(#paint7_linear_10546_140152)"/>
<path d="M110.734 125.706C110.734 125.706 118.124 133.364 118.415 133.364C118.706 133.364 153.962 106.546 153.962 106.546L139.015 99.9751C139.015 99.9751 120.033 105.147 110.734 125.706Z" fill="url(#paint8_linear_10546_140152)"/>
<path d="M144.216 128.006L145.465 131.255L137.512 134.768L135.195 131.519L144.216 128.006Z" fill="#F8CCA3"/>
<path d="M137.847 99.9779C137.847 99.9779 125.366 102.558 124.285 106.743C123.204 110.928 124.188 115.505 127.626 120.858C131.064 126.211 134.564 132.035 135.284 132.223C135.284 132.223 144.526 128.557 144.735 128.099C144.943 127.64 139.557 115.042 139.557 115.042C139.557 115.042 150.53 114.327 153.09 107.916L137.847 99.9779Z" fill="url(#paint9_linear_10546_140152)"/>
<path d="M136.977 99.9411C136.864 100.669 150.496 109.126 152.908 108.719C155.321 108.312 158.442 98.4458 157.579 91.0798C156.717 83.7139 150.056 78.1878 147.019 78.4458C143.982 78.7038 142.356 81.5246 141.941 86.0105C141.336 92.5896 137.105 99.1286 136.977 99.9411Z" fill="url(#paint10_linear_10546_140152)"/>
<path d="M148.381 79.5792C149.989 79.4414 155.517 82.6515 156.809 92.1283C158.102 101.605 152.821 102.398 148.381 101.786C143.941 101.174 132.772 95.744 131.135 93.8047C131.135 93.8047 130.782 90.7516 131.97 89.6713C131.97 89.6713 142.744 90.7564 145.543 91.5946C148.342 92.4328 142.289 80.1033 148.381 79.5792Z" fill="url(#paint11_linear_10546_140152)"/>
<path d="M145.277 130.779C145.277 130.779 146.612 133.241 146.484 133.543C146.356 133.846 136.113 137.452 135.896 137.308C135.679 137.164 137.202 134.338 137.202 134.338L145.277 130.779Z" fill="url(#paint12_linear_10546_140152)"/>
<path d="M139.356 73.425L139.305 76.8115L139.816 76.7955C139.816 76.7955 140.225 79.597 142.222 79.1546C142.796 79.028 143.529 78.5472 143.74 78.6434C143.99 78.7572 144.099 79.5248 144.155 79.746C144.372 80.5938 147.37 79.7364 146.885 78.8677C146.424 78.0424 145.735 76.9157 145.88 76.6015C146.388 75.5101 146.527 72.7999 143.777 71.8928C141.583 71.1716 139.381 72.2646 139.356 73.425Z" fill="#F8CCA3"/>
<path d="M146.886 78.8675C146.425 78.0421 145.735 76.9154 145.881 76.6013C145.881 76.6013 144.724 78.3643 143.656 78.6303C143.686 78.6265 143.717 78.6298 143.745 78.64C143.996 78.7537 144.104 79.5214 144.161 79.7426C144.373 80.5936 147.371 79.7362 146.886 78.8675Z" fill="#F6C291"/>
<path d="M143.991 75.0854C145.285 74.8675 144.476 77.709 145.897 77.6145C147.317 77.5199 148.304 74.4476 147.264 72.0788C146.224 69.71 144.242 69.8431 142.355 70.1652C140.468 70.4873 138.148 71.3336 138.156 72.7471C138.156 76.1496 142.224 73.2952 142.493 74.3178C142.7 75.1095 143.018 77.3965 142.192 77.4494C141.365 77.5023 140.52 76.826 139.867 76.9991C139.49 77.1 138.454 81.5603 141.161 81.7094C143.84 81.8568 144.518 79.5153 143.954 77.6017C143.408 75.7826 143.355 75.1912 143.991 75.0854Z" fill="#14336A"/>
<path d="M79.014 180.616V181.442C78.356 181.498 77.67 181.568 76.956 181.638V182.716H76.032V181.708C75.108 181.764 74.128 181.834 73.12 181.89L72.994 180.994C74.058 180.938 75.08 180.896 76.032 180.84V179.678H73.428L73.204 178.88C73.596 178.432 73.974 177.9 74.31 177.27H72.812V176.374H74.758C74.884 176.066 75.01 175.758 75.122 175.45L76.13 175.618C76.032 175.87 75.934 176.122 75.822 176.374H79.238V177.27H75.402C75.094 177.858 74.758 178.39 74.408 178.852H76.032V177.928H76.956V178.852H79.14V179.678H76.956V180.784C77.684 180.728 78.37 180.672 79.014 180.616ZM80.974 179.692C80.82 180.868 80.442 181.89 79.84 182.758L79.14 182.03C79.756 181.12 80.092 180.042 80.12 178.782V176.584C81.856 176.416 83.228 176.108 84.208 175.66L84.852 176.416C83.816 176.864 82.556 177.186 81.044 177.354V178.81H85.244V179.692H83.76V182.73H82.794V179.692H80.974ZM83.676 183.136V188.4H82.64V187.854H75.528V188.4H74.492V183.136H83.676ZM75.528 186.986H82.64V185.894H75.528V186.986ZM75.528 185.082H82.64V183.99H75.528V185.082ZM87.862 176.318H97.914V177.298H92.902V178.236C92.874 179.104 92.818 179.93 92.72 180.686H99.048V181.652H94.708V186.538C94.708 186.986 94.932 187.224 95.38 187.224H97.158C97.494 187.224 97.746 187.126 97.9 186.944C98.096 186.72 98.222 186.076 98.292 184.984L99.244 185.292C99.132 186.664 98.922 187.49 98.614 187.798C98.348 188.05 97.928 188.176 97.34 188.176H95.072C94.148 188.176 93.7 187.7 93.7 186.748V181.652H92.566C92.342 182.87 91.992 183.92 91.516 184.816C90.648 186.328 89.248 187.518 87.302 188.358L86.742 187.462C88.674 186.594 90.004 185.46 90.76 184.032C91.096 183.332 91.348 182.534 91.53 181.652H86.924V180.686H91.698C91.81 179.93 91.866 179.104 91.88 178.236V177.298H87.862V176.318ZM109.212 178.67L109.03 179.398C109.38 181.036 109.828 182.45 110.388 183.626C110.934 182.212 111.228 180.56 111.284 178.67H109.212ZM109.926 184.634C109.38 183.556 108.918 182.324 108.54 180.924C108.288 181.568 108.008 182.142 107.714 182.646L107.084 181.876C107.91 180.308 108.47 178.194 108.75 175.534L109.73 175.702C109.646 176.416 109.534 177.088 109.422 177.704H113.118V178.67H112.208C112.138 181.008 111.704 183.01 110.92 184.662C111.648 185.922 112.502 186.888 113.51 187.574L112.964 188.4C111.984 187.7 111.144 186.748 110.444 185.572C109.772 186.692 108.904 187.63 107.854 188.386L107.336 187.546C108.428 186.79 109.282 185.824 109.926 184.634ZM103.29 182.072L104.228 182.184C104.13 182.45 104.032 182.702 103.948 182.954H106.874V183.78C106.566 184.704 106.048 185.502 105.32 186.174C105.992 186.482 106.636 186.79 107.252 187.126L106.706 187.91C106.09 187.546 105.376 187.168 104.55 186.804C103.626 187.448 102.464 187.966 101.064 188.358L100.588 187.518C101.736 187.21 102.73 186.832 103.542 186.37C102.926 186.104 102.282 185.838 101.596 185.586C101.96 184.97 102.282 184.396 102.562 183.836H100.91V182.954H102.954C103.08 182.646 103.192 182.352 103.29 182.072ZM104.396 185.782C105.096 185.222 105.628 184.564 105.964 183.836H103.556C103.332 184.312 103.08 184.76 102.8 185.18C103.36 185.376 103.892 185.572 104.396 185.782ZM102.016 175.828C102.352 176.374 102.632 176.962 102.884 177.578L102.156 177.914C101.862 177.228 101.554 176.626 101.218 176.094L102.016 175.828ZM106.272 175.786L107 176.122C106.72 176.738 106.37 177.34 105.922 177.928L105.208 177.564C105.656 176.962 106.02 176.374 106.272 175.786ZM100.938 178.25H103.668V175.576H104.606V178.25H107.154V179.132H104.606V179.286C105.362 179.664 106.146 180.098 106.93 180.574L106.412 181.358C105.712 180.798 105.11 180.35 104.606 180.014V181.834H103.668V179.174C103.206 180.28 102.366 181.232 101.162 182.044L100.672 181.232C101.75 180.602 102.506 179.902 102.926 179.132H100.938V178.25ZM116.296 188.274H115.106L114.896 187.322C115.26 187.364 115.624 187.392 115.96 187.392C116.31 187.392 116.492 187.182 116.492 186.79V183.36C115.932 183.57 115.386 183.766 114.84 183.934L114.588 182.954C115.232 182.8 115.876 182.604 116.492 182.38V179.216H114.812V178.25H116.492V175.604H117.472V178.25H118.816V179.216H117.472V181.974C117.92 181.778 118.354 181.568 118.774 181.344V182.338C118.34 182.562 117.906 182.758 117.472 182.954V187.042C117.472 187.854 117.08 188.274 116.296 188.274ZM120.482 182.086C120.314 184.48 119.768 186.58 118.844 188.4L118.06 187.7C119.054 185.852 119.558 183.444 119.572 180.504V176.122H126.95V179.524H124.318V181.176H127.314V182.086H124.318V183.808H126.67V188.4H125.732V187.714H121.938V188.4H121V183.808H123.338V182.086H120.482ZM123.338 179.524H120.552V180.504C120.552 180.728 120.538 180.952 120.538 181.176H123.338V179.524ZM121.938 186.818H125.732V184.704H121.938V186.818ZM125.97 177.06H120.552V178.614H125.97V177.06Z" fill="#24515D"/>
<defs>
<linearGradient id="paint0_linear_10546_140152" x1="100" y1="17.4838" x2="100" y2="115.112" gradientUnits="userSpaceOnUse">
<stop stop-color="#19BBFF" stop-opacity="0.2"/>
<stop offset="1" stop-color="#6FD4FF" stop-opacity="0"/>
</linearGradient>
<linearGradient id="paint1_linear_10546_140152" x1="42.9352" y1="124.77" x2="71.4804" y2="144.867" gradientUnits="userSpaceOnUse">
<stop stop-color="#0180CC"/>
<stop offset="0.96" stop-color="#1744B8"/>
</linearGradient>
<linearGradient id="paint2_linear_10546_140152" x1="143.81" y1="110.665" x2="144.523" y2="118.584" gradientUnits="userSpaceOnUse">
<stop stop-color="#B0C0C5"/>
<stop offset="0.97" stop-color="#547781"/>
</linearGradient>
<linearGradient id="paint3_linear_10546_140152" x1="121.367" y1="66.3617" x2="127.774" y2="66.3617" gradientUnits="userSpaceOnUse">
<stop stop-color="#B0C0C5"/>
<stop offset="0.96875" stop-color="#D3DCDF"/>
</linearGradient>
<linearGradient id="paint4_linear_10546_140152" x1="113.109" y1="70.7535" x2="131.49" y2="70.7535" gradientUnits="userSpaceOnUse">
<stop stop-color="#B0C0C5"/>
<stop offset="0.96875" stop-color="#D3DCDF"/>
</linearGradient>
<linearGradient id="paint5_linear_10546_140152" x1="125.274" y1="82.8358" x2="126.799" y2="82.3548" gradientUnits="userSpaceOnUse">
<stop stop-color="#0055CE"/>
<stop offset="0.96875" stop-color="#2292FB"/>
</linearGradient>
<linearGradient id="paint6_linear_10546_140152" x1="125.32" y1="91.6743" x2="132.32" y2="91.6743" gradientUnits="userSpaceOnUse">
<stop stop-color="#0055CE"/>
<stop offset="0.96875" stop-color="#2292FB"/>
</linearGradient>
<linearGradient id="paint7_linear_10546_140152" x1="111.404" y1="132.245" x2="109.831" y2="134.212" gradientUnits="userSpaceOnUse">
<stop stop-color="#14336D"/>
<stop offset="0.97" stop-color="#0E2253"/>
</linearGradient>
<linearGradient id="paint8_linear_10546_140152" x1="118.501" y1="123.778" x2="129.488" y2="114.842" gradientUnits="userSpaceOnUse">
<stop stop-color="#14336D"/>
<stop offset="0.97" stop-color="#0E2253"/>
</linearGradient>
<linearGradient id="paint9_linear_10546_140152" x1="134.367" y1="115.311" x2="153.752" y2="122.409" gradientUnits="userSpaceOnUse">
<stop stop-color="#14336D"/>
<stop offset="0.97" stop-color="#0E2253"/>
</linearGradient>
<linearGradient id="paint10_linear_10546_140152" x1="141.144" y1="83.0568" x2="150.773" y2="101.264" gradientUnits="userSpaceOnUse">
<stop stop-color="#0180CC"/>
<stop offset="0.96" stop-color="#00479A"/>
</linearGradient>
<linearGradient id="paint11_linear_10546_140152" x1="144.043" y1="91.8254" x2="154.981" y2="115.105" gradientUnits="userSpaceOnUse">
<stop stop-color="#0180CC"/>
<stop offset="0.96" stop-color="#1744B8"/>
</linearGradient>
<linearGradient id="paint12_linear_10546_140152" x1="140.056" y1="133.063" x2="141.233" y2="135.287" gradientUnits="userSpaceOnUse">
<stop stop-color="#14336D"/>
<stop offset="0.97" stop-color="#0E2253"/>
</linearGradient>
</defs>
</svg>
