<svg width="120" height="152" viewBox="0 0 120 152" fill="none" xmlns="http://www.w3.org/2000/svg">
<path opacity="0.8" d="M60 120C93.1371 120 120 93.1372 120 60.0001C120 26.863 93.1371 0.00012207 60 0.00012207C26.8629 0.00012207 0 26.863 0 60.0001C0 93.1372 26.8629 120 60 120Z" fill="url(#paint0_linear_10546_140197)"/>
<path d="M119.687 67.6288C113.075 64.7402 104.466 63.3572 99.0893 65.3714C94.044 67.2628 94.8549 71.015 89.6781 72.5645C81.3234 75.0653 75.5351 66.3971 63.1038 66.8091C52.0422 67.1751 48.209 74.3157 39.852 72.5645C34.6402 71.4731 33.6539 68.1768 29.9433 65.8514C23.7277 61.9545 11.7939 61.9962 0.320312 64.2251C1.36575 79.2383 7.93209 92.7304 18.0051 102.683C29.3362 104.778 41.6645 105.898 53.6926 105.451C74.8272 104.666 96.2028 99.0074 110.762 92.2679C115.422 84.9783 118.549 76.6148 119.689 67.6288H119.687Z" fill="url(#paint1_linear_10546_140197)" fill-opacity="0.15"/>
<path d="M102.821 42.9268H21.3814C18.4244 42.9268 16.0273 45.3196 16.0273 48.2713V96.4515C16.0273 99.4032 18.4244 101.796 21.3814 101.796H102.821C105.778 101.796 108.175 99.4032 108.175 96.4515V48.2713C108.175 45.3196 105.778 42.9268 102.821 42.9268Z" fill="white"/>
<path d="M103.893 102.308H20.3133C19.0413 102.306 17.8219 101.801 16.9225 100.903C16.0231 100.005 15.5171 98.7882 15.5156 97.5186V47.2022C15.5168 45.9324 16.0226 44.7149 16.9221 43.817C17.8216 42.9191 19.0412 42.4142 20.3133 42.4131H103.893C105.165 42.4146 106.384 42.9196 107.283 43.8175C108.183 44.7153 108.689 45.9325 108.69 47.2022V97.5186C108.689 98.7882 108.183 100.005 107.283 100.903C106.384 101.801 105.165 102.306 103.893 102.308ZM20.3133 43.4384C19.3135 43.4392 18.3549 43.8359 17.648 44.5416C16.941 45.2473 16.5435 46.2042 16.5428 47.2022V97.5186C16.5439 98.5164 16.9415 99.4731 17.6484 100.179C18.3553 100.884 19.3137 101.281 20.3133 101.282H103.893C104.892 101.281 105.851 100.884 106.558 100.179C107.264 99.4731 107.662 98.5164 107.663 97.5186V47.2022C107.662 46.2043 107.264 45.2476 106.558 44.542C105.851 43.8364 104.892 43.4395 103.893 43.4384H20.3133Z" fill="#B0C0C5"/>
<path d="M107.593 50.8769H16.551C16.4121 50.8769 16.2789 50.8229 16.1807 50.7267C16.0825 50.6306 16.0273 50.5002 16.0273 50.3642C16.0273 50.2283 16.0825 50.0979 16.1807 50.0017C16.2789 49.9056 16.4121 49.8516 16.551 49.8516H107.593C107.732 49.8516 107.865 49.9056 107.963 50.0017C108.061 50.0979 108.116 50.2283 108.116 50.3642C108.116 50.5002 108.061 50.6306 107.963 50.7267C107.865 50.8229 107.732 50.8769 107.593 50.8769Z" fill="#B0C0C5"/>
<path d="M21.9254 47.0419C22.0172 46.4775 21.6331 45.9457 21.0674 45.854C20.5018 45.7624 19.9689 46.1456 19.8771 46.71C19.7853 47.2744 20.1695 47.8062 20.7351 47.8979C21.3007 47.9895 21.8336 47.6063 21.9254 47.0419Z" fill="#FF7052"/>
<path d="M26.0938 47.1083C26.2253 46.5518 25.8799 45.9942 25.3222 45.8628C24.7645 45.7314 24.2058 46.076 24.0742 46.6325C23.9426 47.189 24.288 47.7467 24.8457 47.878C25.4034 48.0094 25.9622 47.6648 26.0938 47.1083Z" fill="#FFA901"/>
<path d="M30.3004 47.0419C30.3922 46.4775 30.0081 45.9457 29.4424 45.854C28.8768 45.7624 28.3439 46.1456 28.2521 46.71C28.1603 47.2744 28.5445 47.8062 29.1101 47.8979C29.6757 47.9895 30.2086 47.6063 30.3004 47.0419Z" fill="#2DC86D"/>
<path d="M54.7142 61.6888C56.5454 59.7401 59.0615 58.7662 62.2624 58.7671C65.2214 58.7671 67.5909 59.6 69.3712 61.2657C71.1514 62.9315 72.0415 65.0609 72.0415 67.654C72.0415 69.2231 71.7187 70.4968 71.0732 71.475C70.4276 72.4533 69.105 73.89 67.1053 75.7852C65.65 77.1654 64.7028 78.3321 64.2638 79.2854C63.8248 80.2386 63.6053 81.6494 63.6053 83.5179H59.64C59.64 81.4001 59.8924 79.693 60.3971 78.3964C60.9018 77.0999 62.0252 75.6148 63.7674 73.9413L65.5822 72.1867C66.0935 71.723 66.5392 71.1919 66.9069 70.6081C67.5014 69.7196 67.8231 68.6771 67.8325 67.6087C67.8557 66.2332 67.3833 64.8951 66.5012 63.8381C65.6146 62.7676 64.1485 62.2323 62.103 62.2323C59.5726 62.2323 57.8227 63.1506 56.8531 64.9871C56.3069 66.0094 55.9962 67.4832 55.921 69.4086H51.9609C51.9609 66.2125 52.8787 63.6393 54.7142 61.6888ZM59.5545 87.2057H63.9839V91.8264H59.5506L59.5545 87.2057Z" fill="#91BD06"/>
<path opacity="0.1" d="M80.6051 68.4557C81.9413 66.2585 81.2401 63.3961 79.039 62.0623C76.8379 60.7285 73.9704 61.4284 72.6342 63.6256C71.298 65.8227 71.9992 68.6851 74.2003 70.0189C76.4014 71.3527 79.2689 70.6528 80.6051 68.4557Z" fill="white"/>
<path d="M82.4142 111.357H96.9702C97.0127 111.357 97.0535 111.341 97.0835 111.311C97.1136 111.281 97.1305 111.24 97.1305 111.198C97.1305 111.155 97.1136 111.115 97.0835 111.085C97.0535 111.055 97.0127 111.038 96.9702 111.038H82.4142C82.3717 111.038 82.3309 111.055 82.3009 111.085C82.2708 111.115 82.2539 111.155 82.2539 111.198C82.2539 111.24 82.2708 111.281 82.3009 111.311C82.3309 111.341 82.3717 111.357 82.4142 111.357Z" fill="#24515D"/>
<path d="M77.2931 111.357H80.6523C80.6948 111.357 80.7356 111.34 80.7656 111.311C80.7957 111.281 80.8126 111.24 80.8126 111.198C80.8126 111.155 80.7957 111.115 80.7656 111.085C80.7356 111.055 80.6948 111.038 80.6523 111.038H77.2931C77.2506 111.038 77.2098 111.055 77.1798 111.085C77.1497 111.115 77.1328 111.155 77.1328 111.198C77.1328 111.24 77.1497 111.281 77.1798 111.311C77.2098 111.34 77.2506 111.357 77.2931 111.357Z" fill="#24515D"/>
<path d="M80.9939 83.5067C79.85 83.8028 75.514 83.6295 76.3428 81.4995C77.2635 79.1307 79.7212 81.2007 80.7747 82.5133C80.4615 80.7409 80.3115 78.9436 80.3267 77.144C79.5472 76.2107 77.9005 70.286 81.1487 70.5794C85.3956 70.9642 81.6337 76.5723 80.6555 77.2095C80.6555 78.574 80.7473 81.2839 81.3679 83.6336C81.5049 82.1408 82.9954 77.8931 84.9819 79.3913C87.8589 81.5636 82.3502 84.1862 81.5131 84.1412C81.7422 84.9498 82.0953 85.7184 82.5598 86.4199C82.879 86.8742 83.2338 87.4009 83.5996 87.974L83.6188 87.9959C83.8037 86.424 85.2765 82.3864 87.2218 83.8519C89.9125 85.8809 85.2847 88.3002 83.9777 88.5758C84.832 89.946 85.5971 91.3693 86.2683 92.8371C86.3587 91.418 89.1562 88.5157 90.2673 90.175C90.8865 91.1001 87.6082 94.1157 86.5272 93.4402C87.1437 94.9412 87.515 96.3412 87.3862 97.3645C87.3396 97.7411 87.2698 98.1832 87.1903 98.669C87.9561 97.8244 90.7221 94.9958 91.5468 97.1858C92.2318 99.0006 89.9467 100.051 88.9877 100.051C88.2356 100.051 87.4396 99.3444 87.1287 99.0347C87.083 99.2967 87.0373 99.5646 86.9917 99.8384C86.6053 102.072 86.1423 104.76 86.2779 106.377C86.9314 105.115 89.8508 99.8575 91.5482 103.239C92.4181 104.972 89.9481 106.425 88.9891 106.743C88.2014 107.005 86.7971 106.77 86.3122 106.676C86.3335 106.844 86.3697 107.01 86.4204 107.171C87.0465 109.039 88.3096 110.937 88.3219 110.956C88.3454 110.991 88.354 111.034 88.3458 111.076C88.3376 111.117 88.3132 111.154 88.2781 111.177C88.2516 111.195 88.2207 111.204 88.189 111.205C88.162 111.205 88.1353 111.199 88.1114 111.187C88.0874 111.174 88.067 111.156 88.052 111.134C87.4284 110.17 86.8859 109.156 86.43 108.103C85.6765 108.008 82.779 107.615 81.946 107.062C80.9871 106.425 79.2677 104.333 80.6665 103.557C82.831 102.359 85.0997 105.542 86.093 107.197C85.7231 105.969 86.0519 103.491 86.4355 101.17C85.6614 101.401 83.1475 100.953 82.2666 100.371C81.3076 99.7333 79.6527 98.0823 80.6665 97.1844C83.2105 94.9316 85.8971 99.7019 86.4903 100.847C86.5505 100.485 86.6122 100.129 86.6725 99.7838C86.8327 98.8587 86.9834 97.9854 87.0656 97.3277C87.1848 96.3725 86.83 95.008 86.1971 93.4798C85.6916 93.6394 83.9832 94.1088 82.1063 93.8428C79.8664 93.5235 78.7307 91.7865 79.5472 90.9773C80.935 89.5951 85.0381 92.4592 86.0971 93.241C85.3711 91.6 84.5211 90.0163 83.5544 88.5035C82.2488 88.805 77.0498 88.6945 77.7539 86.6382C78.4581 84.5819 81.1186 85.9655 82.6858 87.1703C82.5571 86.9807 82.4269 86.7924 82.2981 86.6082C81.7008 85.7608 81.2857 84.6665 80.9939 83.5067Z" fill="url(#paint2_linear_10546_140197)"/>
<path d="M90.2595 103.24C92.9447 102.169 93.6009 106.264 93.7434 107.606C94.3338 105.648 94.5859 103.267 94.3174 101.329C93.9064 101.32 92.3255 101.245 91.2185 100.694C89.939 100.056 89.1499 97.5048 90.2595 97.1896C92.1227 96.6588 93.7626 99.8763 94.2626 100.973C94.2188 100.726 94.1667 100.486 94.1037 100.258C93.6591 98.521 93.3807 96.7456 93.2721 94.9559C92.7666 94.9477 91.3541 94.8986 90.5787 94.6407C89.6198 94.3214 87.995 91.8244 89.2992 91.4532C91.098 90.9416 92.6899 93.5109 93.2461 94.5438C93.1392 92.5735 93.22 90.6782 93.5571 89.386C93.4132 88.8184 93.1378 87.6122 93.1378 86.6748C93.1378 85.399 94.6229 82.891 96.0148 84.1245C98.5616 86.38 94.7448 89.0149 93.8297 89.5934C93.5201 90.8665 93.4529 92.7031 93.5557 94.608C94.1283 93.1752 96.4326 88.0161 99.2068 90.4981C100.271 91.4532 97.9273 93.6842 96.3299 94.3187C95.452 94.6714 94.5244 94.8864 93.5804 94.9559C93.6899 96.7161 93.9651 98.4621 94.4023 100.171C94.4777 100.448 94.5376 100.729 94.5818 101.013C95.1887 99.7931 98.0067 94.6107 101.126 96.8676C102.421 97.805 99.8466 100.054 98.567 100.688C97.4711 101.234 95.2325 101.264 94.6215 101.261C94.8873 103.193 94.6462 105.559 94.0735 107.538C95.0133 106.122 97.7615 102.489 99.8493 104.827C101.082 106.216 97.8807 107.392 96.9724 107.692C96.1696 107.965 94.4544 108.037 93.9119 108.056C93.4571 109.421 92.8378 110.56 92.1159 111.159C92.0874 111.184 92.0509 111.198 92.0131 111.198C91.9896 111.197 91.9665 111.192 91.9452 111.182C91.924 111.172 91.9051 111.158 91.8898 111.14C91.8628 111.108 91.8499 111.066 91.8537 111.023C91.8576 110.981 91.8779 110.942 91.9104 110.915C92.5953 110.343 93.1899 109.26 93.6256 107.95C93.2146 107.777 91.998 107.257 91.213 106.736C90.2595 106.107 88.7745 103.831 90.2595 103.24Z" fill="#F8B02D" fill-opacity="0.6"/>
<path opacity="0.2" d="M100.316 111.205C100.316 112.041 83.3024 112.713 62.3121 112.713C41.3219 112.713 24.3086 112.036 24.3086 111.205C24.3086 110.373 41.3219 109.697 62.3121 109.697C83.3024 109.697 100.316 110.373 100.316 111.205Z" fill="#7C979E"/>
<path fill-rule="evenodd" clip-rule="evenodd" d="M24.885 19.4932H24.1086C23.3131 19.4932 22.592 19.8147 22.0704 20.3352C21.5487 20.8557 21.2266 21.5753 21.2266 22.3692C21.2266 23.2484 21.6211 24.0358 22.2435 24.5628C22.7476 24.9893 23.3985 25.2474 24.1108 25.2474H36.2879L36.2857 25.2452C37.0813 25.2452 37.8024 24.9237 38.324 24.4032C38.8456 23.8827 39.1678 23.1631 39.1678 22.3692C39.1678 21.5753 38.8456 20.8557 38.324 20.3352C37.8024 19.8147 37.0813 19.4932 36.2857 19.4932H33.4253C33.0776 17.909 31.8543 16.5822 30.1675 16.1812C27.8196 15.6231 25.4628 17.0699 24.9034 19.4129C24.897 19.4397 24.8909 19.4664 24.885 19.4932Z" fill="white" fill-opacity="0.6"/>
<path fill-rule="evenodd" clip-rule="evenodd" d="M73.4259 5.99584H72.0783C70.2854 5.99584 68.7118 6.92754 67.8176 8.33384C67.3223 9.11245 67.0352 10.0376 67.0352 11.0283C67.0352 12.4171 67.6006 13.6769 68.5124 14.5867C69.4241 15.4966 70.6865 16.0608 72.0783 16.0608H93.3706C94.8566 16.0608 96.1935 15.42 97.1162 14.3986C97.9228 13.5063 98.4137 12.3253 98.4137 11.0283C98.4137 9.63953 97.8483 8.37977 96.9365 7.46994C96.0248 6.56011 94.7624 5.99584 93.3706 5.99584H88.3557C88.055 4.6169 87.3676 3.30508 86.2933 2.23308C83.3096 -0.74436 78.472 -0.744358 75.4883 2.23308C74.414 3.30508 73.7266 4.6169 73.4259 5.99584Z" fill="white" fill-opacity="0.8"/>
<path d="M50.2036 27.5025H96.3017C96.534 27.5025 96.7422 27.3975 96.8825 27.2313C96.9921 27.1001 97.06 26.9317 97.06 26.7458V18.3583C97.06 18.1746 96.9943 18.004 96.8825 17.8728C96.7444 17.7065 96.5362 17.6016 96.3017 17.6016H50.2036C50.0327 17.6016 49.8727 17.6584 49.7456 17.7547C49.5637 17.8924 49.4453 18.1112 49.4453 18.3561V26.7436C49.4453 26.9383 49.5198 27.1176 49.6426 27.251C49.7806 27.4041 49.9801 27.4982 50.2036 27.4982V27.5025Z" fill="white"/>
<path d="M89.2911 25.5822H94.5425C94.663 25.5822 94.7704 25.5341 94.8493 25.4553C94.9282 25.3766 94.9764 25.2694 94.9764 25.1492V19.9089C94.9764 19.8214 94.9501 19.7405 94.9063 19.6749C94.8296 19.5568 94.6959 19.478 94.5425 19.478H89.2911C89.1859 19.478 89.0873 19.5152 89.0128 19.5786C88.9186 19.6574 88.8594 19.7755 88.8594 19.9089V25.1492C88.8594 25.2694 88.9076 25.3766 88.9865 25.4553C89.0654 25.5341 89.1728 25.5822 89.2933 25.5822H89.2911Z" fill="#D3DCDF"/>
<path d="M55.5419 20.8574H84.9633C85.154 20.8574 85.3272 20.7808 85.4521 20.6561C85.577 20.5315 85.6537 20.3587 85.6537 20.1684C85.6537 19.9847 85.5814 19.8163 85.463 19.6938C85.3359 19.5604 85.1584 19.4795 84.9611 19.4795H55.5419C55.3513 19.4795 55.1781 19.556 55.0532 19.6807C54.9283 19.8054 54.8516 19.9782 54.8516 20.1684C54.8516 20.304 54.891 20.4309 54.959 20.538C55.0817 20.7305 55.2987 20.8595 55.5441 20.8595L55.5419 20.8574Z" fill="#D3DCDF"/>
<path d="M55.5419 23.4318H84.9633C85.1869 23.4318 85.3863 23.3268 85.5135 23.1606C85.6033 23.0447 85.6559 22.8982 85.6559 22.7407C85.6559 22.6051 85.6165 22.4782 85.5485 22.3711C85.4258 22.1786 85.211 22.0518 84.9633 22.0518H55.5419C55.3535 22.0518 55.1825 22.1261 55.0598 22.2486C54.9305 22.3733 54.8516 22.5482 54.8516 22.7429C54.8516 22.9332 54.9283 23.1059 55.0532 23.2306C55.1781 23.3553 55.3513 23.4318 55.5419 23.4318Z" fill="#D3DCDF"/>
<path d="M71.165 39.4132H25.0669C24.8346 39.4132 24.6264 39.3082 24.4861 39.142C24.3765 39.0107 24.3086 38.8423 24.3086 38.6564V30.2689C24.3086 30.0852 24.3743 29.9146 24.4861 29.7834C24.6242 29.6172 24.8346 29.5122 25.0669 29.5122H71.165C71.3359 29.5122 71.4959 29.5691 71.623 29.6653C71.8049 29.8031 71.9233 30.0218 71.9233 30.2668V38.6542C71.9233 38.8489 71.8488 39.0282 71.726 39.1616C71.588 39.3147 71.3885 39.4088 71.165 39.4088V39.4132Z" fill="white"/>
<path d="M32.0759 37.4928H26.8246C26.704 37.4928 26.5966 37.4447 26.5177 37.366C26.4388 37.2873 26.3906 37.1801 26.3906 37.0598V31.8195C26.3906 31.732 26.4169 31.6511 26.4608 31.5855C26.5375 31.4674 26.6712 31.3887 26.8246 31.3887H32.0759C32.1811 31.3887 32.2797 31.4259 32.3542 31.4893C32.4485 31.568 32.5077 31.6861 32.5077 31.8195V37.0598C32.5077 37.1801 32.4594 37.2873 32.3805 37.366C32.3016 37.4447 32.1942 37.4928 32.0737 37.4928H32.0759Z" fill="#D3DCDF"/>
<path d="M65.8266 32.768H36.4052C36.2146 32.768 36.0414 32.6915 35.9165 32.5668C35.7916 32.4421 35.7148 32.2693 35.7148 32.0791C35.7148 31.8954 35.7872 31.727 35.9055 31.6045C36.0326 31.4711 36.2102 31.3901 36.4074 31.3901H65.8288C66.0195 31.3901 66.1927 31.4667 66.3176 31.5913C66.4425 31.716 66.5192 31.8888 66.5192 32.0791C66.5192 32.2147 66.4798 32.3415 66.4118 32.4487C66.2891 32.6412 66.0721 32.7702 65.8266 32.7702V32.768Z" fill="#D3DCDF"/>
<path d="M56.4247 35.3425H36.4035C36.18 35.3425 35.9805 35.2375 35.8534 35.0713C35.7635 34.9553 35.7109 34.8088 35.7109 34.6513C35.7109 34.5157 35.7504 34.3889 35.8183 34.2817C35.9411 34.0893 36.1559 33.9624 36.4035 33.9624H56.4247C56.6132 33.9624 56.7841 34.0368 56.9069 34.1592C57.0362 34.2839 57.1151 34.4589 57.1151 34.6535C57.1151 34.8438 57.0384 35.0166 56.9134 35.1412C56.7885 35.2659 56.6154 35.3425 56.4247 35.3425Z" fill="#D3DCDF"/>
<path d="M39.014 140.616V141.442C38.356 141.498 37.67 141.568 36.956 141.638V142.716H36.032V141.708C35.108 141.764 34.128 141.834 33.12 141.89L32.994 140.994C34.058 140.938 35.08 140.896 36.032 140.84V139.678H33.428L33.204 138.88C33.596 138.432 33.974 137.9 34.31 137.27H32.812V136.374H34.758C34.884 136.066 35.01 135.758 35.122 135.45L36.13 135.618C36.032 135.87 35.934 136.122 35.822 136.374H39.238V137.27H35.402C35.094 137.858 34.758 138.39 34.408 138.852H36.032V137.928H36.956V138.852H39.14V139.678H36.956V140.784C37.684 140.728 38.37 140.672 39.014 140.616ZM40.974 139.692C40.82 140.868 40.442 141.89 39.84 142.758L39.14 142.03C39.756 141.12 40.092 140.042 40.12 138.782V136.584C41.856 136.416 43.228 136.108 44.208 135.66L44.852 136.416C43.816 136.864 42.556 137.186 41.044 137.354V138.81H45.244V139.692H43.76V142.73H42.794V139.692H40.974ZM43.676 143.136V148.4H42.64V147.854H35.528V148.4H34.492V143.136H43.676ZM35.528 146.986H42.64V145.894H35.528V146.986ZM35.528 145.082H42.64V143.99H35.528V145.082ZM47.862 136.318H57.914V137.298H52.902V138.236C52.874 139.104 52.818 139.93 52.72 140.686H59.048V141.652H54.708V146.538C54.708 146.986 54.932 147.224 55.38 147.224H57.158C57.494 147.224 57.746 147.126 57.9 146.944C58.096 146.72 58.222 146.076 58.292 144.984L59.244 145.292C59.132 146.664 58.922 147.49 58.614 147.798C58.348 148.05 57.928 148.176 57.34 148.176H55.072C54.148 148.176 53.7 147.7 53.7 146.748V141.652H52.566C52.342 142.87 51.992 143.92 51.516 144.816C50.648 146.328 49.248 147.518 47.302 148.358L46.742 147.462C48.674 146.594 50.004 145.46 50.76 144.032C51.096 143.332 51.348 142.534 51.53 141.652H46.924V140.686H51.698C51.81 139.93 51.866 139.104 51.88 138.236V137.298H47.862V136.318ZM69.212 138.67L69.03 139.398C69.38 141.036 69.828 142.45 70.388 143.626C70.934 142.212 71.228 140.56 71.284 138.67H69.212ZM69.926 144.634C69.38 143.556 68.918 142.324 68.54 140.924C68.288 141.568 68.008 142.142 67.714 142.646L67.084 141.876C67.91 140.308 68.47 138.194 68.75 135.534L69.73 135.702C69.646 136.416 69.534 137.088 69.422 137.704H73.118V138.67H72.208C72.138 141.008 71.704 143.01 70.92 144.662C71.648 145.922 72.502 146.888 73.51 147.574L72.964 148.4C71.984 147.7 71.144 146.748 70.444 145.572C69.772 146.692 68.904 147.63 67.854 148.386L67.336 147.546C68.428 146.79 69.282 145.824 69.926 144.634ZM63.29 142.072L64.228 142.184C64.13 142.45 64.032 142.702 63.948 142.954H66.874V143.78C66.566 144.704 66.048 145.502 65.32 146.174C65.992 146.482 66.636 146.79 67.252 147.126L66.706 147.91C66.09 147.546 65.376 147.168 64.55 146.804C63.626 147.448 62.464 147.966 61.064 148.358L60.588 147.518C61.736 147.21 62.73 146.832 63.542 146.37C62.926 146.104 62.282 145.838 61.596 145.586C61.96 144.97 62.282 144.396 62.562 143.836H60.91V142.954H62.954C63.08 142.646 63.192 142.352 63.29 142.072ZM64.396 145.782C65.096 145.222 65.628 144.564 65.964 143.836H63.556C63.332 144.312 63.08 144.76 62.8 145.18C63.36 145.376 63.892 145.572 64.396 145.782ZM62.016 135.828C62.352 136.374 62.632 136.962 62.884 137.578L62.156 137.914C61.862 137.228 61.554 136.626 61.218 136.094L62.016 135.828ZM66.272 135.786L67 136.122C66.72 136.738 66.37 137.34 65.922 137.928L65.208 137.564C65.656 136.962 66.02 136.374 66.272 135.786ZM60.938 138.25H63.668V135.576H64.606V138.25H67.154V139.132H64.606V139.286C65.362 139.664 66.146 140.098 66.93 140.574L66.412 141.358C65.712 140.798 65.11 140.35 64.606 140.014V141.834H63.668V139.174C63.206 140.28 62.366 141.232 61.162 142.044L60.672 141.232C61.75 140.602 62.506 139.902 62.926 139.132H60.938V138.25ZM76.296 148.274H75.106L74.896 147.322C75.26 147.364 75.624 147.392 75.96 147.392C76.31 147.392 76.492 147.182 76.492 146.79V143.36C75.932 143.57 75.386 143.766 74.84 143.934L74.588 142.954C75.232 142.8 75.876 142.604 76.492 142.38V139.216H74.812V138.25H76.492V135.604H77.472V138.25H78.816V139.216H77.472V141.974C77.92 141.778 78.354 141.568 78.774 141.344V142.338C78.34 142.562 77.906 142.758 77.472 142.954V147.042C77.472 147.854 77.08 148.274 76.296 148.274ZM80.482 142.086C80.314 144.48 79.768 146.58 78.844 148.4L78.06 147.7C79.054 145.852 79.558 143.444 79.572 140.504V136.122H86.95V139.524H84.318V141.176H87.314V142.086H84.318V143.808H86.67V148.4H85.732V147.714H81.938V148.4H81V143.808H83.338V142.086H80.482ZM83.338 139.524H80.552V140.504C80.552 140.728 80.538 140.952 80.538 141.176H83.338V139.524ZM81.938 146.818H85.732V144.704H81.938V146.818ZM85.97 137.06H80.552V138.614H85.97V137.06Z" fill="#24515D"/>
<defs>
<linearGradient id="paint0_linear_10546_140197" x1="60" y1="0.00012207" x2="60" y2="120" gradientUnits="userSpaceOnUse">
<stop stop-color="#19BBFF" stop-opacity="0.2"/>
<stop offset="0.891132" stop-color="#6FD4FF" stop-opacity="0"/>
</linearGradient>
<linearGradient id="paint1_linear_10546_140197" x1="60.0047" y1="62.7021" x2="60.0047" y2="105.548" gradientUnits="userSpaceOnUse">
<stop stop-color="#19BBFF"/>
<stop offset="1" stop-color="#19BBFF" stop-opacity="0"/>
</linearGradient>
<linearGradient id="paint2_linear_10546_140197" x1="83.9824" y1="92.8247" x2="108.24" y2="109.809" gradientUnits="userSpaceOnUse">
<stop stop-color="#0180CC"/>
<stop offset="0.96" stop-color="#1744B8"/>
</linearGradient>
</defs>
</svg>
