<svg width="307" height="377" viewBox="0 0 307 377" fill="none" xmlns="http://www.w3.org/2000/svg">
<path d="M289.628 171.043C261.314 119.824 279.144 117.981 293.172 101.884C306.611 86.4698 308.783 62.9562 304.678 42.9161C300.564 22.8761 285.201 4.50382 265.097 0.772232C234.629 -4.88504 206.554 22.4431 175.598 21.3374C159.84 20.7754 145.416 12.8884 130.412 8.02349C94.8902 -3.50298 51.3697 4.30111 28.4772 33.8405C8.39221 59.7405 7.78458 96.1811 15.8296 127.96C24.0403 160.374 40.959 191.406 67.4597 211.787C93.9513 232.158 130.716 240.451 161.929 228.528C184.205 220.024 206.61 201.734 228.941 210.073C236.258 212.809 269.516 228.224 284.437 210.819C290.862 203.328 295.317 181.335 289.628 171.043Z" fill="url(#paint0_linear_2064_6923)"/>
<g filter="url(#filter0_dd_2064_6923)">
<path d="M178.482 126.127L178.447 59.0857L75.3479 117.606L133.35 157.188L178.482 126.127Z" fill="#D9FFEB"/>
<path d="M117.9 151.351L174.059 118.342L204.77 133.876L151.658 164.106L117.9 151.351Z" fill="#93EBBC"/>
<path d="M174.059 118.342L193.733 128.248L244.474 96.7107L178.447 59.0857L174.059 118.342Z" fill="#C2F7DA"/>
<path d="M65.3333 82.2927L75.348 117.606L178.447 59.0856L165.316 31.1245L65.3333 82.2927Z" fill="url(#paint1_linear_2064_6923)"/>
<path d="M178.447 59.0857L196.737 31.1592L262.244 70.109L244.093 96.7453L178.447 59.0857Z" fill="url(#paint2_linear_2064_6923)"/>
<path d="M73.5389 126.127C73.2879 126.958 72.959 181.2 72.959 181.2L143.937 223.432L143.729 156.478L73.5389 126.118V126.127Z" fill="url(#paint3_linear_2064_6923)"/>
<path d="M244.171 96.7017L245.391 166.669L143.937 223.432L143.729 156.477L244.171 96.7017Z" fill="url(#paint4_linear_2064_6923)"/>
<g filter="url(#filter1_dd_2064_6923)">
<path d="M143.729 156.477L173.6 161.249L279.677 97.6715L244.171 96.7017L143.729 156.477Z" fill="url(#paint5_linear_2064_6923)"/>
</g>
<g filter="url(#filter2_dd_2064_6923)">
<path d="M34.8909 115.77L101.679 157.188L143.729 156.478L75.3481 117.606L34.8909 115.77Z" fill="url(#paint6_linear_2064_6923)"/>
</g>
</g>
<path d="M116.248 175.537C116.219 175.537 116.189 175.537 116.16 175.532C113.869 175.261 111.679 174.036 110.154 172.174C108.633 170.324 107.804 167.886 107.883 165.483C107.895 165.075 108.236 164.757 108.641 164.77C109.048 164.782 109.367 165.124 109.352 165.53C109.286 167.579 109.992 169.66 111.289 171.237C112.577 172.809 114.414 173.84 116.332 174.066C116.736 174.113 117.023 174.482 116.977 174.885C116.933 175.261 116.614 175.537 116.246 175.537H116.248Z" fill="#4EB67E"/>
<path d="M88.152 166.034C86.8203 166.034 85.4788 165.726 84.2476 165.119C83.8822 164.939 83.7326 164.496 83.9141 164.13C84.0931 163.763 84.5346 163.613 84.9 163.795C86.6634 164.666 88.694 164.799 90.477 164.162C92.2649 163.522 93.7585 162.125 94.5752 160.332C94.7444 159.96 95.1809 159.798 95.5513 159.968C95.9216 160.137 96.0835 160.575 95.9143 160.947C94.9308 163.099 93.1306 164.779 90.9724 165.552C90.0699 165.877 89.1134 166.036 88.152 166.036V166.034Z" fill="#4EB67E"/>
<path d="M91.7158 186.904C91.5956 186.904 91.473 186.875 91.3577 186.811C91.0021 186.611 90.8746 186.164 91.0732 185.807C92.1867 183.8 94.134 182.287 96.4172 181.652C98.6883 181.022 101.229 181.281 103.39 182.361C103.753 182.543 103.9 182.985 103.721 183.35C103.539 183.714 103.098 183.864 102.735 183.682C100.896 182.762 98.7373 182.54 96.8121 183.074C94.9065 183.603 93.2829 184.86 92.3608 186.523C92.2259 186.766 91.9757 186.902 91.7182 186.902L91.7158 186.904Z" fill="#4EB67E"/>
<path d="M91.8114 173.355C93.4006 173.241 94.595 171.775 94.4748 170.075C94.3547 168.378 92.969 167.092 91.3798 167.205C89.7905 167.318 88.5962 168.784 88.7163 170.484C88.8365 172.181 90.2222 173.468 91.8114 173.355Z" fill="#4EB67E"/>
<path d="M92.6698 169.955C93.0762 169.955 93.4056 169.569 93.4056 169.094C93.4056 168.618 93.0762 168.233 92.6698 168.233C92.2635 168.233 91.9341 168.618 91.9341 169.094C91.9341 169.569 92.2635 169.955 92.6698 169.955Z" fill="#EDFFF5"/>
<path d="M106.036 176.799C107.625 176.686 108.82 175.22 108.699 173.52C108.579 171.822 107.194 170.536 105.604 170.649C104.015 170.762 102.821 172.228 102.941 173.928C103.061 175.626 104.447 176.912 106.036 176.799Z" fill="#4EB67E"/>
<path d="M106.894 173.399C107.301 173.399 107.63 173.014 107.63 172.538C107.63 172.062 107.301 171.677 106.894 171.677C106.488 171.677 106.158 172.062 106.158 172.538C106.158 173.014 106.488 173.399 106.894 173.399Z" fill="#EDFFF5"/>
<g filter="url(#filter3_dddd_2064_6923)">
<path d="M50.4185 89.1072C49.5558 89.599 43.9827 90.8096 38.6973 90.0691C37.871 89.9525 37.0547 89.7858 36.2594 89.5651C33.1651 88.7782 30.6004 87.8854 27.9554 85.9454C26.4331 84.664 25.0183 83.3192 23.7299 81.9292C19.6286 77.5151 16.8266 72.642 16.0648 67.9067L16.0622 67.8736C16.0392 67.6709 16.0217 67.5439 16.1631 67.5925C20.7817 70.671 28.2044 72.6867 35.2304 73.2134L33.5928 75.5858L36.1426 74.9644L32.9285 80.0532L38.1001 74.1179L35.9891 74.0333L36.8652 73.3103C38.93 73.3959 40.9384 73.3498 42.8069 73.1554C44.3727 72.9731 45.1173 73.8229 45.2643 75.299C45.7094 78.2313 46.0776 80.022 47.9846 83.755C48.6236 85.0116 49.4509 86.517 50.0983 87.6496C50.333 88.1579 50.9718 88.9029 50.4185 89.1072Z" fill="#52C085"/>
<path d="M38.6977 90.0687C37.8714 89.952 37.0551 89.7854 36.2598 89.5646C33.1656 88.7777 30.6009 87.8849 27.9559 85.9449C26.4335 84.6635 25.0187 83.3188 23.7304 81.9287C25.4715 82.6605 28.5487 83.5124 31.4928 82.1824C32.4074 85.4645 33.2277 87.3229 38.6977 90.0687Z" fill="url(#paint7_linear_2064_6923)"/>
</g>
<g filter="url(#filter4_dddd_2064_6923)">
<path d="M202.337 118.845L197.699 135.566C197.565 136.041 197.785 136.546 198.221 136.771C201.266 138.351 212.71 144.801 216.795 154.385C217.145 155.201 218.289 155.236 218.691 154.446C225.009 141.951 226.11 138.411 226.296 137.474C226.33 137.297 226.322 137.116 226.261 136.948C225.739 135.411 221.848 125.835 203.745 118.158C203.166 117.912 202.501 118.241 202.337 118.845Z" fill="#52C085"/>
</g>
<g filter="url(#filter5_dddd_2064_6923)">
<path d="M225.918 47.6475L221.993 30.7448C221.883 30.2637 221.448 29.9255 220.958 29.9369C217.528 30.0056 204.393 29.8153 196.221 23.3525C195.523 22.8032 194.502 23.3203 194.527 24.2062C194.955 38.2007 195.682 41.8364 195.967 42.7479C196.021 42.9199 196.115 43.075 196.249 43.194C197.443 44.2938 205.441 50.8419 225.01 48.9238C225.636 48.8631 226.063 48.2568 225.918 47.6475Z" fill="#52C085"/>
</g>
<path d="M160.18 21.2118C157.717 21.2189 155.26 20.2868 153.432 18.6346C152.6 17.8861 151.858 16.6716 152.437 15.7114C152.755 15.1818 153.411 14.9276 154.025 14.9417C154.639 14.9558 155.225 15.21 155.769 15.5137C157.872 16.6858 159.517 18.6628 160.173 21.2118H160.18Z" fill="#65D298"/>
<path d="M160.392 20.6049C159.411 18.3454 159.305 15.7187 160.103 13.3886C160.463 12.3295 161.288 11.1715 162.396 11.3268C163.01 11.4116 163.505 11.9129 163.73 12.4848C163.956 13.0568 163.956 13.6993 163.893 14.3136C163.646 16.7143 162.474 19.002 160.392 20.6119V20.6049Z" fill="#65D298"/>
<path d="M162.496 25.3372C165.101 24.1912 166.595 21.8557 165.832 20.1209C165.069 18.386 162.339 17.9087 159.734 19.0548C157.13 20.2008 155.636 22.5363 156.399 24.2711C157.162 26.006 159.892 26.4833 162.496 25.3372Z" fill="#D9FFEB"/>
<g filter="url(#filter6_dd_2064_6923)">
<path d="M119.025 147.369C121.841 147.439 124.664 147.319 127.452 147.009C127.565 146.994 127.671 147.079 127.685 147.192C127.699 147.305 127.614 147.411 127.502 147.425C124.685 147.672 121.848 147.729 119.025 147.588C118.968 147.588 118.919 147.538 118.926 147.475C118.926 147.418 118.982 147.376 119.039 147.376L119.025 147.369Z" fill="#6DD59E"/>
<path d="M135.745 145.547C138.469 144.891 141.151 144.051 143.763 143.055C143.953 142.984 144.172 143.076 144.243 143.267C144.313 143.457 144.222 143.676 144.031 143.747H144.024C141.363 144.714 138.639 145.505 135.879 146.119C135.717 146.155 135.561 146.056 135.526 145.893C135.491 145.738 135.589 145.583 135.745 145.54V145.547Z" fill="#6DD59E"/>
<path d="M151.386 139.567C153.849 138.246 156.22 136.778 158.493 135.161C158.726 134.991 159.058 135.048 159.227 135.281C159.397 135.514 159.34 135.846 159.107 136.015H159.1C156.764 137.618 154.329 139.072 151.809 140.357C151.59 140.47 151.322 140.386 151.209 140.16C151.096 139.941 151.181 139.68 151.393 139.56H151.4L151.386 139.567Z" fill="#6DD59E"/>
<path d="M164.972 129.915C167.019 128.036 168.939 126.024 170.71 123.892C170.936 123.623 171.339 123.581 171.607 123.807C171.875 124.033 171.917 124.435 171.691 124.704C169.856 126.864 167.873 128.898 165.77 130.783C165.53 131.002 165.156 130.981 164.937 130.741C164.718 130.501 164.739 130.134 164.979 129.915H164.972Z" fill="#6DD59E"/>
<path d="M175.426 117.141C176.752 114.755 177.825 112.227 178.468 109.621C178.566 109.226 178.962 108.993 179.357 109.085C179.752 109.183 179.985 109.579 179.893 109.974C179.18 112.735 178.03 115.355 176.618 117.819C176.428 118.144 176.011 118.264 175.687 118.073C175.362 117.89 175.249 117.473 175.426 117.148V117.141Z" fill="#6DD59E"/>
<path d="M178.814 101.805C178.327 99.2842 177.113 96.947 175.334 95.1324C175.016 94.8076 175.023 94.2851 175.348 93.9603C175.673 93.6425 176.195 93.6496 176.52 93.9744L176.534 93.9885C178.51 96.0574 179.844 98.7123 180.345 101.523C180.423 101.946 180.141 102.349 179.717 102.426C179.294 102.504 178.891 102.222 178.814 101.805Z" fill="#6DD59E"/>
<path d="M168.763 91.1569C166.264 90.3167 163.596 89.8719 160.893 89.7024C160.392 89.6742 160.018 89.2434 160.046 88.7421C160.074 88.2408 160.505 87.8666 161.006 87.8948C163.836 88.0784 166.659 88.5585 169.341 89.5047C169.8 89.6671 170.033 90.1684 169.878 90.6203C169.716 91.0722 169.229 91.3123 168.777 91.1569H168.763Z" fill="#6DD59E"/>
<path d="M152.727 89.9993C149.981 90.3029 147.242 90.7619 144.525 91.3267C144.017 91.4327 143.516 91.1079 143.41 90.5995C143.304 90.0911 143.629 89.5898 144.137 89.4838C146.911 88.919 149.706 88.4671 152.515 88.1635C153.023 88.107 153.475 88.4741 153.531 88.9825C153.588 89.4909 153.221 89.9428 152.713 89.9993H152.727Z" fill="#6DD59E"/>
<path d="M136.409 93.3244L128.37 95.7604H128.341C127.826 95.9228 127.283 95.6333 127.127 95.1179C126.972 94.6024 127.261 94.0588 127.777 93.9034L135.901 91.4745C136.409 91.3262 136.938 91.6086 137.093 92.117C137.242 92.6254 136.959 93.155 136.451 93.3103L136.409 93.3244Z" fill="#6DD59E"/>
<path d="M120.351 98.423L112.298 101.106C111.769 101.283 111.197 100.993 111.02 100.471C110.844 99.9411 111.133 99.3692 111.656 99.1927L111.677 99.1856L119.723 96.5448C120.245 96.3754 120.803 96.6578 120.972 97.1732C121.142 97.6957 120.866 98.2536 120.344 98.423H120.351Z" fill="#6DD59E"/>
<path d="M104.132 103.606L95.7959 105.689C95.2383 105.83 94.6736 105.491 94.5325 104.926C94.3913 104.368 94.7301 103.796 95.2948 103.662L95.3653 103.641L103.581 101.622L103.637 101.607C104.188 101.473 104.746 101.812 104.88 102.363C105.014 102.914 104.682 103.472 104.132 103.606Z" fill="#6DD59E"/>
<path d="M87.2626 107.101L82.936 107.433C82.2231 107.51 81.482 107.51 80.748 107.503H78.5388C77.9671 107.51 77.5012 107.044 77.5012 106.473C77.5012 105.901 77.96 105.435 78.5388 105.435H78.6093L80.7197 105.42C81.4255 105.42 82.1243 105.42 82.823 105.343L87.0297 105.004H87.1003C87.679 104.954 88.1872 105.385 88.2366 105.964C88.286 106.543 87.8484 107.052 87.2696 107.101H87.2626Z" fill="#6DD59E"/>
<path d="M69.7375 106.197C66.8507 105.378 63.9993 104.107 61.5431 102.151C61.1125 101.805 61.0349 101.177 61.3807 100.739C61.7266 100.301 62.3547 100.231 62.7923 100.577C64.9874 102.314 67.5989 103.472 70.2951 104.227C70.8386 104.382 71.1562 104.947 71.0009 105.484C70.8456 106.028 70.2881 106.345 69.7446 106.19L69.7375 106.197Z" fill="#6DD59E"/>
<path d="M56.1224 94.497C55.1131 91.4608 55.0708 88.2199 55.706 85.2049C55.8189 84.6753 56.3342 84.3434 56.8565 84.4494C57.3788 84.5553 57.7176 85.0707 57.6046 85.5932C57.04 88.3258 57.0965 91.2137 57.9928 93.8616C58.1693 94.377 57.887 94.9348 57.3717 95.1113C56.8565 95.2879 56.2989 95.0054 56.1224 94.49V94.497Z" fill="#6DD59E"/>
<path d="M59.4118 76.8589C60.3011 75.6162 61.3457 74.4582 62.4468 73.4414C63.5549 72.4105 64.7477 71.4856 65.997 70.6594C66.4276 70.377 67.0063 70.49 67.2957 70.9207C67.578 71.3514 67.4651 71.9304 67.0346 72.2128C64.7054 73.7733 62.5879 75.6798 60.9646 77.9604C60.6611 78.3911 60.0682 78.49 59.6377 78.1864C59.2071 77.8828 59.1083 77.2896 59.4118 76.8589Z" fill="#6DD59E"/>
<path d="M73.9722 66.776C76.739 65.8086 79.5834 65.1167 82.4279 64.6083C82.9149 64.5165 83.3877 64.8413 83.4724 65.3356C83.5642 65.8228 83.2395 66.2959 82.7455 66.3806C79.9716 66.889 77.2331 67.5668 74.5792 68.5059C74.0993 68.6754 73.577 68.4282 73.4076 67.9481C73.2382 67.468 73.4852 66.9455 73.9652 66.776H73.9722Z" fill="#6DD59E"/>
<path d="M90.9829 63.5771L99.5302 63.217C99.9819 63.1958 100.356 63.5488 100.377 63.9937C100.398 64.4385 100.053 64.8198 99.6079 64.841H99.5796L91.1311 65.2929H91.0676C90.5947 65.3211 90.1853 64.954 90.1641 64.4809C90.1359 64.0078 90.5029 63.5983 90.9758 63.5771H90.9829Z" fill="#6DD59E"/>
<path d="M108.021 63.1469L116.455 63.0269H116.484C116.879 63.0269 117.211 63.3375 117.211 63.7329C117.211 64.1284 116.9 64.4532 116.512 64.4602L108.042 64.6791C107.619 64.6932 107.266 64.3543 107.259 63.9307C107.252 63.507 107.583 63.154 108.007 63.1469H108.021Z" fill="#6DD59E"/>
<path d="M124.819 62.4972C127.593 62.2147 130.352 61.8052 133.07 61.2262C133.408 61.1556 133.74 61.3674 133.811 61.7063C133.881 62.0382 133.67 62.3701 133.338 62.4477C130.578 63.062 127.776 63.5069 124.967 63.8317C124.6 63.8741 124.268 63.6128 124.226 63.2386C124.183 62.8714 124.452 62.5395 124.819 62.4972C124.819 62.4972 124.819 62.4972 124.826 62.4972H124.819Z" fill="#6DD59E"/>
<path d="M141.06 58.9457C143.65 57.9854 146.177 56.8274 148.542 55.4011C148.782 55.2528 149.092 55.3305 149.233 55.5705C149.374 55.8106 149.304 56.1142 149.071 56.2625C146.671 57.7665 144.109 59.0092 141.469 60.026C141.173 60.139 140.834 59.9907 140.721 59.6941C140.608 59.3976 140.757 59.0586 141.053 58.9457H141.06Z" fill="#6DD59E"/>
<path d="M155.055 50.3456C156.989 48.3756 158.655 46.1373 160.003 43.7154C160.095 43.5389 160.314 43.4754 160.483 43.5742C160.653 43.666 160.716 43.8778 160.624 44.0473C159.29 46.5469 157.625 48.877 155.677 50.9317C155.514 51.1082 155.239 51.1153 155.07 50.9529C154.9 50.7905 154.893 50.5151 155.055 50.3456Z" fill="#6DD59E"/>
<path d="M162.983 35.9689C163.583 33.2576 163.78 30.4402 163.42 27.6724C163.406 27.5665 163.477 27.4747 163.583 27.4605C163.682 27.4464 163.773 27.517 163.795 27.6159C164.225 30.4261 164.098 33.307 163.533 36.0819C163.505 36.2373 163.357 36.3361 163.202 36.3008C163.053 36.2726 162.955 36.1243 162.983 35.9689Z" fill="#6DD59E"/>
</g>
<path d="M120.084 276.855H118.804L118.564 275.783C118.964 275.831 119.348 275.863 119.7 275.863C119.988 275.863 120.148 275.655 120.148 275.255V271.191H121.3V275.527C121.3 276.407 120.884 276.855 120.084 276.855ZM113.524 272.263C113.06 272.807 112.58 273.303 112.084 273.751L111.364 272.871C112.804 271.623 113.988 269.975 114.916 267.943L116.036 268.183C115.62 269.111 115.156 269.975 114.644 270.759V276.871H113.524V272.263ZM118.516 267.927L119.604 268.167C119.412 268.599 119.204 269.015 119.012 269.399H125.428V270.119C125.22 270.919 124.964 271.703 124.644 272.471L123.604 272.199C123.876 271.671 124.1 271.095 124.276 270.455H118.372C117.764 271.383 117.06 272.183 116.292 272.887L115.588 272.023C116.788 270.967 117.764 269.607 118.516 267.927ZM113.252 277.687L114.356 277.911C113.972 279.447 113.444 280.791 112.756 281.927L111.78 281.303C112.452 280.215 112.932 278.999 113.252 277.687ZM121.124 282.391H117.028C116.036 282.391 115.556 281.879 115.556 280.855V277.479H116.724V280.615C116.724 281.063 116.932 281.303 117.38 281.303H120.9C121.22 281.303 121.444 281.207 121.588 281.015C121.78 280.791 121.892 280.151 121.956 279.095L123.044 279.447C122.932 280.855 122.724 281.703 122.404 282.007C122.132 282.263 121.7 282.391 121.124 282.391ZM123.844 277.191C124.868 278.599 125.636 279.831 126.18 280.887L125.236 281.559C124.66 280.407 123.876 279.143 122.9 277.767L123.844 277.191ZM118.084 272.727L119.012 273.159C118.404 274.391 117.7 275.463 116.9 276.359L116.02 275.751C116.82 274.887 117.508 273.879 118.084 272.727ZM123.396 272.711C124.164 273.671 124.836 274.743 125.428 275.927L124.452 276.423C123.844 275.175 123.156 274.087 122.42 273.127L123.396 272.711ZM118.884 277.047C119.684 277.959 120.292 278.759 120.708 279.447L119.812 280.071C119.364 279.335 118.756 278.503 117.988 277.607L118.884 277.047ZM128.788 268.215C129.892 269.047 130.82 269.863 131.572 270.695L130.74 271.511C130.084 270.727 129.172 269.879 128.004 268.967L128.788 268.215ZM138.084 282.343C137.22 282.343 136.292 282.327 135.284 282.311C134.276 282.295 133.444 282.199 132.804 282.023C132.196 281.831 131.636 281.431 131.14 280.855C130.932 280.583 130.724 280.455 130.532 280.455C130.148 280.455 129.524 281.191 128.644 282.663L127.78 281.879C128.628 280.535 129.38 279.719 130.036 279.431V274.567H127.748V273.511H131.108V279.511C131.236 279.607 131.348 279.719 131.476 279.863C131.86 280.327 132.26 280.663 132.708 280.871C133.188 281.095 133.908 281.223 134.836 281.255C135.668 281.271 136.692 281.287 137.924 281.287C138.692 281.287 139.46 281.271 140.244 281.255C141.028 281.239 141.636 281.223 142.052 281.191L141.78 282.343H138.084ZM132.292 268.823H141.524V269.943H137.892C137.7 270.423 137.508 270.903 137.284 271.367V280.391H136.132V273.319C135.14 274.695 133.892 275.943 132.404 277.031L131.684 276.087C134.084 274.391 135.78 272.343 136.74 269.943H132.292V268.823ZM138.628 271.815C140.116 273.543 141.268 275.047 142.068 276.343L141.092 277.015C140.228 275.575 139.108 274.055 137.748 272.455L138.628 271.815ZM144.756 268.199C145.876 268.999 146.804 269.799 147.572 270.599L146.756 271.415C146.068 270.647 145.124 269.847 143.94 268.999L144.756 268.199ZM144.308 272.039C145.364 272.839 146.244 273.623 146.964 274.423L146.132 275.239C145.492 274.487 144.612 273.687 143.492 272.839L144.308 272.039ZM146.292 276.391L147.332 276.807C146.596 278.791 145.796 280.663 144.9 282.423L143.748 281.927C144.724 280.119 145.572 278.279 146.292 276.391ZM149.316 276.023H148.308V274.919H156.756V275.975C156.116 277.479 155.124 278.775 153.764 279.863C154.98 280.663 156.484 281.271 158.244 281.687L157.668 282.727C155.716 282.199 154.1 281.479 152.82 280.551C151.492 281.415 149.908 282.119 148.068 282.679L147.492 281.623C149.22 281.159 150.676 280.567 151.892 279.831C150.692 278.775 149.828 277.495 149.316 276.023ZM152.836 279.191C154.036 278.295 154.916 277.239 155.476 276.023H150.436C150.98 277.255 151.78 278.311 152.836 279.191ZM149.812 268.583H155.476V272.071C155.476 272.423 155.668 272.615 156.068 272.615H157.892V273.703H155.78C154.82 273.703 154.34 273.239 154.34 272.327V269.671H150.964V270.423C150.964 272.135 150.1 273.447 148.404 274.375L147.636 273.495C149.076 272.807 149.812 271.831 149.812 270.551V268.583ZM164.372 273.719V275.463H170.724V273.719H164.372ZM170.724 276.471H164.372V278.167H170.724V276.471ZM170.724 279.175H164.372V282.599H163.284V274.231C162.388 275.351 161.348 276.391 160.196 277.319L159.444 276.343C161.46 274.743 163.012 272.919 164.116 270.855H159.876V269.735H164.644C164.916 269.111 165.156 268.487 165.348 267.863L166.516 268.007C166.324 268.599 166.132 269.175 165.908 269.735H173.86V270.855H165.428C165.108 271.495 164.772 272.119 164.388 272.711H171.812V281.351C171.812 282.135 171.364 282.535 170.468 282.567H168.676L168.388 281.511C168.996 281.543 169.572 281.575 170.1 281.575C170.516 281.575 170.724 281.383 170.724 280.999V279.175ZM178.34 280.823H185.012C186.004 278.551 186.868 275.751 187.604 272.391L188.74 272.695C188.068 275.735 187.252 278.455 186.26 280.823H189.636V281.943H178.34V280.823ZM180.084 273.175C180.724 274.871 181.3 276.839 181.812 279.047L180.724 279.319C180.292 277.303 179.748 275.351 179.076 273.495L180.084 273.175ZM183.172 272.039C183.716 273.799 184.212 275.831 184.66 278.103L183.556 278.359C183.204 276.279 182.74 274.279 182.164 272.359L183.172 272.039ZM183.188 267.831C183.492 268.327 183.78 268.887 184.036 269.495H189.892V270.615H178.036V274.183C177.972 277.703 177.428 280.519 176.388 282.631L175.444 281.783C176.34 279.959 176.82 277.431 176.852 274.183V269.495H182.788C182.532 268.983 182.244 268.503 181.924 268.055L183.188 267.831ZM194.18 273.543V276.343H198.244V273.543H194.18ZM194.116 277.399C193.94 279.447 193.348 281.143 192.324 282.487L191.444 281.703C192.468 280.279 192.996 278.471 193.028 276.279V268.599H204.948V280.583C204.948 281.703 204.388 282.263 203.268 282.263H201.428L201.124 281.127C201.764 281.159 202.356 281.191 202.9 281.191C203.476 281.191 203.78 280.855 203.78 280.183V277.399H199.428V282.087H198.244V277.399H194.116ZM203.78 276.343V273.543H199.428V276.343H203.78ZM203.78 272.471V269.719H199.428V272.471H203.78ZM198.244 269.719H194.18V272.471H198.244V269.719Z" fill="#4E5969"/>
<rect x="105.772" y="336.031" width="106" height="40" rx="8" fill="#4FAE7B"/>
<path d="M131.904 356.991C133.74 359.367 135.144 361.419 136.116 363.183L135.018 363.957C134.73 363.435 134.424 362.895 134.1 362.355C129.924 362.787 125.964 363.111 122.22 363.327L121.986 362.265C123.534 361.419 125.118 359.385 126.738 356.145H120.762V354.885H128.106V351.483H121.896V350.223H128.106V347.361H129.438V350.223H135.612V351.483H129.438V354.885H136.764V356.145H128.178C126.9 358.845 125.604 360.825 124.29 362.103C128.646 361.761 131.706 361.491 133.434 361.275C132.678 360.123 131.814 358.917 130.86 357.657L131.904 356.991ZM145.494 354.255H141.66V361.689C141.66 362.103 141.876 362.319 142.344 362.319H145.782C146.394 362.319 146.79 362.157 146.934 361.869C147.096 361.527 147.222 360.861 147.294 359.871L148.518 360.267C148.392 361.797 148.158 362.733 147.834 363.093C147.546 363.381 146.97 363.525 146.124 363.525H141.84C140.832 363.525 140.346 363.057 140.346 362.139V353.103H146.754V357.891C146.736 358.863 146.232 359.367 145.242 359.403C144.558 359.403 143.892 359.385 143.262 359.349L142.938 358.125C143.622 358.197 144.234 358.233 144.774 358.233C145.242 358.233 145.494 357.981 145.494 357.495V354.255ZM143.208 347.487H144.162C145.728 349.143 147.24 350.889 148.68 352.725L147.834 353.625C146.286 351.573 144.936 349.935 143.784 348.711C142.452 350.691 140.922 352.509 139.158 354.165L138.402 353.121C140.166 351.519 141.768 349.647 143.208 347.487ZM149.742 348.909H151.002V360.123H149.742V348.909ZM152.748 363.669H149.958L149.67 362.427C150.588 362.481 151.47 362.517 152.298 362.517C152.748 362.517 152.982 362.247 152.982 361.707V347.379H154.278V362.031C154.278 363.111 153.756 363.669 152.748 363.669ZM171.504 354.705H167.652V356.145H171.864V357.207H167.652V358.701H172.386V359.799H167.652V361.581H166.392V359.799H162.306V358.701H166.392V357.207H162.864V356.145H166.392V354.705H163.242V353.625H166.392V352.185H162.36V351.105H166.392V349.683H163.242V348.603H166.392V347.289H167.652V348.603H171.504V351.105H172.71V352.185H171.504V354.705ZM167.652 349.683V351.105H170.244V349.683H167.652ZM167.652 352.185V353.625H170.244V352.185H167.652ZM166.806 362.229C168.786 362.229 170.82 362.193 172.908 362.139L172.692 363.381H167.364C164.124 363.381 161.802 362.913 160.398 361.977C160.164 361.797 159.966 361.635 159.786 361.455C159.21 362.301 158.49 363.039 157.662 363.669L156.816 362.571C157.662 361.959 158.364 361.239 158.94 360.411C158.238 359.403 157.662 358.125 157.23 356.577L158.31 356.181C158.67 357.459 159.102 358.503 159.57 359.295C160.182 358.017 160.542 356.523 160.65 354.813H157.32V353.805C158.364 352.473 159.336 351.033 160.2 349.485H157.248V348.261H161.658V349.323C160.758 350.979 159.858 352.401 158.994 353.625H161.82V354.399C161.748 356.775 161.262 358.791 160.398 360.447C160.686 360.753 160.974 360.987 161.28 361.167C162.504 361.851 164.358 362.193 166.806 362.229Z" fill="white"/>
<path fill-rule="evenodd" clip-rule="evenodd" d="M188.258 364.002L186.843 362.588L193.914 355.517L186.843 348.446L188.258 347.031L196.036 354.81C196.036 354.81 196.036 354.81 195.329 355.517L196.036 354.81L196.743 355.517L188.258 364.002Z" fill="white"/>
<defs>
<filter id="filter0_dd_2064_6923" x="19.6622" y="31.1245" width="275.243" height="222.765" filterUnits="userSpaceOnUse" color-interpolation-filters="sRGB">
<feFlood flood-opacity="0" result="BackgroundImageFix"/>
<feColorMatrix in="SourceAlpha" type="matrix" values="0 0 0 0 0 0 0 0 0 0 0 0 0 0 0 0 0 0 127 0" result="hardAlpha"/>
<feMorphology radius="3.04573" operator="erode" in="SourceAlpha" result="effect1_dropShadow_2064_6923"/>
<feOffset dy="6.09145"/>
<feGaussianBlur stdDeviation="3.04573"/>
<feComposite in2="hardAlpha" operator="out"/>
<feColorMatrix type="matrix" values="0 0 0 0 0.0628095 0 0 0 0 0.343333 0 0 0 0 0.207747 0 0 0 0.05 0"/>
<feBlend mode="normal" in2="BackgroundImageFix" result="effect1_dropShadow_2064_6923"/>
<feColorMatrix in="SourceAlpha" type="matrix" values="0 0 0 0 0 0 0 0 0 0 0 0 0 0 0 0 0 0 127 0" result="hardAlpha"/>
<feMorphology radius="3.04573" operator="erode" in="SourceAlpha" result="effect2_dropShadow_2064_6923"/>
<feOffset dy="15.2286"/>
<feGaussianBlur stdDeviation="9.13718"/>
<feComposite in2="hardAlpha" operator="out"/>
<feColorMatrix type="matrix" values="0 0 0 0 0.0926443 0 0 0 0 0.368979 0 0 0 0 0.230812 0 0 0 0.15 0"/>
<feBlend mode="normal" in2="effect1_dropShadow_2064_6923" result="effect2_dropShadow_2064_6923"/>
<feBlend mode="normal" in="SourceGraphic" in2="effect2_dropShadow_2064_6923" result="shape"/>
</filter>
<filter id="filter1_dd_2064_6923" x="128.5" y="96.7017" width="166.405" height="95.0041" filterUnits="userSpaceOnUse" color-interpolation-filters="sRGB">
<feFlood flood-opacity="0" result="BackgroundImageFix"/>
<feColorMatrix in="SourceAlpha" type="matrix" values="0 0 0 0 0 0 0 0 0 0 0 0 0 0 0 0 0 0 127 0" result="hardAlpha"/>
<feMorphology radius="3.04573" operator="erode" in="SourceAlpha" result="effect1_dropShadow_2064_6923"/>
<feOffset dy="6.09145"/>
<feGaussianBlur stdDeviation="3.04573"/>
<feComposite in2="hardAlpha" operator="out"/>
<feColorMatrix type="matrix" values="0 0 0 0 0.0901961 0 0 0 0 0.219608 0 0 0 0 0.482353 0 0 0 0.03 0"/>
<feBlend mode="normal" in2="BackgroundImageFix" result="effect1_dropShadow_2064_6923"/>
<feColorMatrix in="SourceAlpha" type="matrix" values="0 0 0 0 0 0 0 0 0 0 0 0 0 0 0 0 0 0 127 0" result="hardAlpha"/>
<feMorphology radius="3.04573" operator="erode" in="SourceAlpha" result="effect2_dropShadow_2064_6923"/>
<feOffset dy="15.2286"/>
<feGaussianBlur stdDeviation="9.13718"/>
<feComposite in2="hardAlpha" operator="out"/>
<feColorMatrix type="matrix" values="0 0 0 0 0.0902477 0 0 0 0 0.2203 0 0 0 0 0.480404 0 0 0 0.08 0"/>
<feBlend mode="normal" in2="effect1_dropShadow_2064_6923" result="effect2_dropShadow_2064_6923"/>
<feBlend mode="normal" in="SourceGraphic" in2="effect2_dropShadow_2064_6923" result="shape"/>
</filter>
<filter id="filter2_dd_2064_6923" x="19.6622" y="115.77" width="139.295" height="71.875" filterUnits="userSpaceOnUse" color-interpolation-filters="sRGB">
<feFlood flood-opacity="0" result="BackgroundImageFix"/>
<feColorMatrix in="SourceAlpha" type="matrix" values="0 0 0 0 0 0 0 0 0 0 0 0 0 0 0 0 0 0 127 0" result="hardAlpha"/>
<feMorphology radius="3.04573" operator="erode" in="SourceAlpha" result="effect1_dropShadow_2064_6923"/>
<feOffset dy="6.09145"/>
<feGaussianBlur stdDeviation="3.04573"/>
<feComposite in2="hardAlpha" operator="out"/>
<feColorMatrix type="matrix" values="0 0 0 0 0.0901961 0 0 0 0 0.219608 0 0 0 0 0.482353 0 0 0 0.03 0"/>
<feBlend mode="normal" in2="BackgroundImageFix" result="effect1_dropShadow_2064_6923"/>
<feColorMatrix in="SourceAlpha" type="matrix" values="0 0 0 0 0 0 0 0 0 0 0 0 0 0 0 0 0 0 127 0" result="hardAlpha"/>
<feMorphology radius="3.04573" operator="erode" in="SourceAlpha" result="effect2_dropShadow_2064_6923"/>
<feOffset dy="15.2286"/>
<feGaussianBlur stdDeviation="9.13718"/>
<feComposite in2="hardAlpha" operator="out"/>
<feColorMatrix type="matrix" values="0 0 0 0 0.0902477 0 0 0 0 0.2203 0 0 0 0 0.480404 0 0 0 0.08 0"/>
<feBlend mode="normal" in2="effect1_dropShadow_2064_6923" result="effect2_dropShadow_2064_6923"/>
<feBlend mode="normal" in="SourceGraphic" in2="effect2_dropShadow_2064_6923" result="shape"/>
</filter>
<filter id="filter3_dddd_2064_6923" x="0.817994" y="67.582" width="65.0486" height="53.1782" filterUnits="userSpaceOnUse" color-interpolation-filters="sRGB">
<feFlood flood-opacity="0" result="BackgroundImageFix"/>
<feColorMatrix in="SourceAlpha" type="matrix" values="0 0 0 0 0 0 0 0 0 0 0 0 0 0 0 0 0 0 127 0" result="hardAlpha"/>
<feMorphology radius="3.04573" operator="erode" in="SourceAlpha" result="effect1_dropShadow_2064_6923"/>
<feOffset dy="6.09145"/>
<feGaussianBlur stdDeviation="3.04573"/>
<feComposite in2="hardAlpha" operator="out"/>
<feColorMatrix type="matrix" values="0 0 0 0 0.0901961 0 0 0 0 0.219608 0 0 0 0 0.482353 0 0 0 0.03 0"/>
<feBlend mode="normal" in2="BackgroundImageFix" result="effect1_dropShadow_2064_6923"/>
<feColorMatrix in="SourceAlpha" type="matrix" values="0 0 0 0 0 0 0 0 0 0 0 0 0 0 0 0 0 0 127 0" result="hardAlpha"/>
<feMorphology radius="3.04573" operator="erode" in="SourceAlpha" result="effect2_dropShadow_2064_6923"/>
<feOffset dy="15.2286"/>
<feGaussianBlur stdDeviation="9.13718"/>
<feComposite in2="hardAlpha" operator="out"/>
<feColorMatrix type="matrix" values="0 0 0 0 0.0902477 0 0 0 0 0.2203 0 0 0 0 0.480404 0 0 0 0.08 0"/>
<feBlend mode="normal" in2="effect1_dropShadow_2064_6923" result="effect2_dropShadow_2064_6923"/>
<feColorMatrix in="SourceAlpha" type="matrix" values="0 0 0 0 0 0 0 0 0 0 0 0 0 0 0 0 0 0 127 0" result="hardAlpha"/>
<feMorphology radius="3.04573" operator="erode" in="SourceAlpha" result="effect3_dropShadow_2064_6923"/>
<feOffset dy="6.09145"/>
<feGaussianBlur stdDeviation="3.04573"/>
<feComposite in2="hardAlpha" operator="out"/>
<feColorMatrix type="matrix" values="0 0 0 0 0.0901961 0 0 0 0 0.219608 0 0 0 0 0.482353 0 0 0 0.03 0"/>
<feBlend mode="normal" in2="effect2_dropShadow_2064_6923" result="effect3_dropShadow_2064_6923"/>
<feColorMatrix in="SourceAlpha" type="matrix" values="0 0 0 0 0 0 0 0 0 0 0 0 0 0 0 0 0 0 127 0" result="hardAlpha"/>
<feMorphology radius="3.04573" operator="erode" in="SourceAlpha" result="effect4_dropShadow_2064_6923"/>
<feOffset dy="15.2286"/>
<feGaussianBlur stdDeviation="9.13718"/>
<feComposite in2="hardAlpha" operator="out"/>
<feColorMatrix type="matrix" values="0 0 0 0 0.0902477 0 0 0 0 0.2203 0 0 0 0 0.480404 0 0 0 0.08 0"/>
<feBlend mode="normal" in2="effect3_dropShadow_2064_6923" result="effect4_dropShadow_2064_6923"/>
<feBlend mode="normal" in="SourceGraphic" in2="effect4_dropShadow_2064_6923" result="shape"/>
</filter>
<filter id="filter4_dddd_2064_6923" x="182.431" y="118.076" width="59.1135" height="67.3997" filterUnits="userSpaceOnUse" color-interpolation-filters="sRGB">
<feFlood flood-opacity="0" result="BackgroundImageFix"/>
<feColorMatrix in="SourceAlpha" type="matrix" values="0 0 0 0 0 0 0 0 0 0 0 0 0 0 0 0 0 0 127 0" result="hardAlpha"/>
<feMorphology radius="3.04573" operator="erode" in="SourceAlpha" result="effect1_dropShadow_2064_6923"/>
<feOffset dy="6.09145"/>
<feGaussianBlur stdDeviation="3.04573"/>
<feComposite in2="hardAlpha" operator="out"/>
<feColorMatrix type="matrix" values="0 0 0 0 0.0901961 0 0 0 0 0.219608 0 0 0 0 0.482353 0 0 0 0.03 0"/>
<feBlend mode="normal" in2="BackgroundImageFix" result="effect1_dropShadow_2064_6923"/>
<feColorMatrix in="SourceAlpha" type="matrix" values="0 0 0 0 0 0 0 0 0 0 0 0 0 0 0 0 0 0 127 0" result="hardAlpha"/>
<feMorphology radius="3.04573" operator="erode" in="SourceAlpha" result="effect2_dropShadow_2064_6923"/>
<feOffset dy="15.2286"/>
<feGaussianBlur stdDeviation="9.13718"/>
<feComposite in2="hardAlpha" operator="out"/>
<feColorMatrix type="matrix" values="0 0 0 0 0.0902477 0 0 0 0 0.2203 0 0 0 0 0.480404 0 0 0 0.08 0"/>
<feBlend mode="normal" in2="effect1_dropShadow_2064_6923" result="effect2_dropShadow_2064_6923"/>
<feColorMatrix in="SourceAlpha" type="matrix" values="0 0 0 0 0 0 0 0 0 0 0 0 0 0 0 0 0 0 127 0" result="hardAlpha"/>
<feMorphology radius="3.04573" operator="erode" in="SourceAlpha" result="effect3_dropShadow_2064_6923"/>
<feOffset dy="6.09145"/>
<feGaussianBlur stdDeviation="3.04573"/>
<feComposite in2="hardAlpha" operator="out"/>
<feColorMatrix type="matrix" values="0 0 0 0 0.0901961 0 0 0 0 0.219608 0 0 0 0 0.482353 0 0 0 0.03 0"/>
<feBlend mode="normal" in2="effect2_dropShadow_2064_6923" result="effect3_dropShadow_2064_6923"/>
<feColorMatrix in="SourceAlpha" type="matrix" values="0 0 0 0 0 0 0 0 0 0 0 0 0 0 0 0 0 0 127 0" result="hardAlpha"/>
<feMorphology radius="3.04573" operator="erode" in="SourceAlpha" result="effect4_dropShadow_2064_6923"/>
<feOffset dy="15.2286"/>
<feGaussianBlur stdDeviation="9.13718"/>
<feComposite in2="hardAlpha" operator="out"/>
<feColorMatrix type="matrix" values="0 0 0 0 0.0902477 0 0 0 0 0.2203 0 0 0 0 0.480404 0 0 0 0.08 0"/>
<feBlend mode="normal" in2="effect3_dropShadow_2064_6923" result="effect4_dropShadow_2064_6923"/>
<feBlend mode="normal" in="SourceGraphic" in2="effect4_dropShadow_2064_6923" result="shape"/>
</filter>
<filter id="filter5_dddd_2064_6923" x="179.298" y="23.1265" width="61.8772" height="56.6042" filterUnits="userSpaceOnUse" color-interpolation-filters="sRGB">
<feFlood flood-opacity="0" result="BackgroundImageFix"/>
<feColorMatrix in="SourceAlpha" type="matrix" values="0 0 0 0 0 0 0 0 0 0 0 0 0 0 0 0 0 0 127 0" result="hardAlpha"/>
<feMorphology radius="3.04573" operator="erode" in="SourceAlpha" result="effect1_dropShadow_2064_6923"/>
<feOffset dy="6.09145"/>
<feGaussianBlur stdDeviation="3.04573"/>
<feComposite in2="hardAlpha" operator="out"/>
<feColorMatrix type="matrix" values="0 0 0 0 0.0901961 0 0 0 0 0.219608 0 0 0 0 0.482353 0 0 0 0.03 0"/>
<feBlend mode="normal" in2="BackgroundImageFix" result="effect1_dropShadow_2064_6923"/>
<feColorMatrix in="SourceAlpha" type="matrix" values="0 0 0 0 0 0 0 0 0 0 0 0 0 0 0 0 0 0 127 0" result="hardAlpha"/>
<feMorphology radius="3.04573" operator="erode" in="SourceAlpha" result="effect2_dropShadow_2064_6923"/>
<feOffset dy="15.2286"/>
<feGaussianBlur stdDeviation="9.13718"/>
<feComposite in2="hardAlpha" operator="out"/>
<feColorMatrix type="matrix" values="0 0 0 0 0.0902477 0 0 0 0 0.2203 0 0 0 0 0.480404 0 0 0 0.08 0"/>
<feBlend mode="normal" in2="effect1_dropShadow_2064_6923" result="effect2_dropShadow_2064_6923"/>
<feColorMatrix in="SourceAlpha" type="matrix" values="0 0 0 0 0 0 0 0 0 0 0 0 0 0 0 0 0 0 127 0" result="hardAlpha"/>
<feMorphology radius="3.04573" operator="erode" in="SourceAlpha" result="effect3_dropShadow_2064_6923"/>
<feOffset dy="6.09145"/>
<feGaussianBlur stdDeviation="3.04573"/>
<feComposite in2="hardAlpha" operator="out"/>
<feColorMatrix type="matrix" values="0 0 0 0 0.0901961 0 0 0 0 0.219608 0 0 0 0 0.482353 0 0 0 0.03 0"/>
<feBlend mode="normal" in2="effect2_dropShadow_2064_6923" result="effect3_dropShadow_2064_6923"/>
<feColorMatrix in="SourceAlpha" type="matrix" values="0 0 0 0 0 0 0 0 0 0 0 0 0 0 0 0 0 0 127 0" result="hardAlpha"/>
<feMorphology radius="3.04573" operator="erode" in="SourceAlpha" result="effect4_dropShadow_2064_6923"/>
<feOffset dy="15.2286"/>
<feGaussianBlur stdDeviation="9.13718"/>
<feComposite in2="hardAlpha" operator="out"/>
<feColorMatrix type="matrix" values="0 0 0 0 0.0902477 0 0 0 0 0.2203 0 0 0 0 0.480404 0 0 0 0.08 0"/>
<feBlend mode="normal" in2="effect3_dropShadow_2064_6923" result="effect4_dropShadow_2064_6923"/>
<feBlend mode="normal" in="SourceGraphic" in2="effect4_dropShadow_2064_6923" result="shape"/>
</filter>
<filter id="filter6_dd_2064_6923" x="40.0568" y="27.4587" width="155.53" height="150.662" filterUnits="userSpaceOnUse" color-interpolation-filters="sRGB">
<feFlood flood-opacity="0" result="BackgroundImageFix"/>
<feColorMatrix in="SourceAlpha" type="matrix" values="0 0 0 0 0 0 0 0 0 0 0 0 0 0 0 0 0 0 127 0" result="hardAlpha"/>
<feMorphology radius="3.04573" operator="erode" in="SourceAlpha" result="effect1_dropShadow_2064_6923"/>
<feOffset dy="6.09145"/>
<feGaussianBlur stdDeviation="3.04573"/>
<feComposite in2="hardAlpha" operator="out"/>
<feColorMatrix type="matrix" values="0 0 0 0 0.0901961 0 0 0 0 0.482353 0 0 0 0 0.345098 0 0 0 0.03 0"/>
<feBlend mode="normal" in2="BackgroundImageFix" result="effect1_dropShadow_2064_6923"/>
<feColorMatrix in="SourceAlpha" type="matrix" values="0 0 0 0 0 0 0 0 0 0 0 0 0 0 0 0 0 0 127 0" result="hardAlpha"/>
<feMorphology radius="3.04573" operator="erode" in="SourceAlpha" result="effect2_dropShadow_2064_6923"/>
<feOffset dy="15.2286"/>
<feGaussianBlur stdDeviation="9.13718"/>
<feComposite in2="hardAlpha" operator="out"/>
<feColorMatrix type="matrix" values="0 0 0 0 0.0679168 0 0 0 0 0.361359 0 0 0 0 0.253763 0 0 0 0.08 0"/>
<feBlend mode="normal" in2="effect1_dropShadow_2064_6923" result="effect2_dropShadow_2064_6923"/>
<feBlend mode="normal" in="SourceGraphic" in2="effect2_dropShadow_2064_6923" result="shape"/>
</filter>
<linearGradient id="paint0_linear_2064_6923" x1="132.133" y1="277.527" x2="171.983" y2="-13.6185" gradientUnits="userSpaceOnUse">
<stop stop-color="white"/>
<stop offset="0.1" stop-color="#F6FFFA"/>
<stop offset="0.24" stop-color="#E0FFEE"/>
<stop offset="0.25" stop-color="#DFFFEE"/>
<stop offset="0.26" stop-color="#DFFFEE"/>
<stop offset="0.45" stop-color="#EBFFF4"/>
<stop offset="0.64" stop-color="#EFFFF6"/>
<stop offset="0.82" stop-color="#F3FFF9"/>
<stop offset="1" stop-color="white"/>
</linearGradient>
<linearGradient id="paint1_linear_2064_6923" x1="65.3333" y1="74.3694" x2="178.447" y2="74.3694" gradientUnits="userSpaceOnUse">
<stop stop-color="white"/>
<stop offset="0.78" stop-color="#ECFFF5"/>
</linearGradient>
<linearGradient id="paint2_linear_2064_6923" x1="178.447" y1="63.9522" x2="262.244" y2="63.9522" gradientUnits="userSpaceOnUse">
<stop stop-color="white"/>
<stop offset="0.78" stop-color="#ECFFF5"/>
</linearGradient>
<linearGradient id="paint3_linear_2064_6923" x1="72.959" y1="174.775" x2="143.937" y2="174.775" gradientUnits="userSpaceOnUse">
<stop stop-color="white"/>
<stop offset="0.78" stop-color="#ECFFF5"/>
</linearGradient>
<linearGradient id="paint4_linear_2064_6923" x1="143.729" y1="160.062" x2="245.391" y2="160.062" gradientUnits="userSpaceOnUse">
<stop stop-color="white"/>
<stop offset="0.78" stop-color="#ECFFF5"/>
</linearGradient>
<linearGradient id="paint5_linear_2064_6923" x1="143.729" y1="128.975" x2="279.677" y2="128.975" gradientUnits="userSpaceOnUse">
<stop stop-color="white"/>
<stop offset="0.78" stop-color="#ECFFF5"/>
</linearGradient>
<linearGradient id="paint6_linear_2064_6923" x1="34.8909" y1="136.475" x2="143.729" y2="136.475" gradientUnits="userSpaceOnUse">
<stop stop-color="white"/>
<stop offset="0.78" stop-color="#ECFFF5"/>
</linearGradient>
<linearGradient id="paint7_linear_2064_6923" x1="23.9258" y1="81.5152" x2="39.3044" y2="88.7854" gradientUnits="userSpaceOnUse">
<stop stop-color="white"/>
<stop offset="0.78" stop-color="#ECFFF5"/>
</linearGradient>
</defs>
</svg>
