<svg width="16" height="55" viewBox="0 0 16 55" fill="none" xmlns="http://www.w3.org/2000/svg">
    <path
        d="M5.33333 12C5.33333 13.4728 6.52724 14.6667 8 14.6667C9.47276 14.6667 10.6667 13.4728 10.6667 12C10.6667 10.5272 9.47276 9.33333 8 9.33333C6.52724 9.33333 5.33333 10.5272 5.33333 12ZM7.64645 43.3536C7.84171 43.5488 8.15829 43.5488 8.35355 43.3536L11.5355 40.1716C11.7308 39.9763 11.7308 39.6597 11.5355 39.4645C11.3403 39.2692 11.0237 39.2692 10.8284 39.4645L8 42.2929L5.17157 39.4645C4.97631 39.2692 4.65973 39.2692 4.46447 39.4645C4.2692 39.6597 4.2692 39.9763 4.46447 40.1716L7.64645 43.3536ZM8 12H7.5V43H8H8.5V12H8Z"
        fill="#009E9E" />
</svg>