<svg xmlns="http://www.w3.org/2000/svg" width="24" height="24" viewBox="0 0 24 24" fill="none">
  <path fill-rule="evenodd" clip-rule="evenodd" d="M9 3C6.51472 3 4.5 5.01472 4.5 7.5C4.5 9.98528 6.51472 12 9 12C11.4853 12 13.5 9.98528 13.5 7.5C13.5 5.01472 11.4853 3 9 3ZM2 17C2 14.7909 3.79086 13 6 13H12C14.2091 13 16 14.7909 16 17V21H2V17Z" fill="#19BBFF"/>
  <path d="M22.0739 14V7.33331H15.4072V8.99998H19.228L15.3398 12.6096L16.5184 13.7881L20.4072 10.1775L20.4072 14H22.0739Z" fill="#0081CC"/>
</svg>