<svg width="18" height="18" viewBox="0 0 18 18" fill="none" xmlns="http://www.w3.org/2000/svg">
<path d="M9 9.75C10.6569 9.75 12 11.0931 12 12.75V15.75H1.5V12.75C1.5 11.0931 2.84315 9.75 4.5 9.75H9ZM4.5 11.25C3.67157 11.25 3 11.9216 3 12.75V14.25H10.5V12.75C10.5 11.9216 9.82843 11.25 9 11.25H4.5ZM16.5557 5.5V10.5H15.3057V7.63281L12.3887 10.3408L11.5049 9.45703L14.4209 6.75H11.5557V5.5H16.5557ZM6.75 2.25C8.61396 2.25 10.125 3.76104 10.125 5.625C10.125 7.48896 8.61396 9 6.75 9C4.88604 9 3.375 7.48896 3.375 5.625C3.375 3.76104 4.88604 2.25 6.75 2.25ZM6.75 3.75C5.71447 3.75 4.875 4.58947 4.875 5.625C4.875 6.66053 5.71447 7.5 6.75 7.5C7.78553 7.5 8.625 6.66053 8.625 5.625C8.625 4.58947 7.78553 3.75 6.75 3.75Z" fill="#4E5969"/>
</svg>
