<svg width="17" height="17" viewBox="0 0 17 17" fill="none" xmlns="http://www.w3.org/2000/svg">
<path d="M2.91667 16.4522C1.30583 16.4522 0 15.1464 0 13.5356C0 11.9247 1.30583 10.6189 2.91667 10.6189C4.23767 10.6189 5.35356 11.4971 5.71234 12.7015L10.4167 12.7016V11.0356L12.0833 11.035V6.23833L10.2142 4.36833H5.41667V6.03553H0.416667V1.03553H5.41667V2.70167H10.2142L12.9167 0L16.4522 3.53553L13.75 6.23667V11.035L15.4167 11.0356V16.0356H10.4167V14.3683L5.71249 14.3691C5.35387 15.5737 4.23786 16.4522 2.91667 16.4522ZM2.91667 12.2856C2.22631 12.2856 1.66667 12.8451 1.66667 13.5356C1.66667 14.2259 2.22631 14.7856 2.91667 14.7856C3.60702 14.7856 4.16667 14.2259 4.16667 13.5356C4.16667 12.8451 3.60702 12.2856 2.91667 12.2856ZM13.75 12.7022H12.0833V14.3689H13.75V12.7022ZM12.9167 2.35703L11.7382 3.53553L12.9167 4.71405L14.0952 3.53553L12.9167 2.35703ZM3.75 2.7022H2.08333V4.36887H3.75V2.7022Z" fill="#86909C"/>
</svg>
