<svg width="16" height="16" viewBox="0 0 16 16" fill="none" xmlns="http://www.w3.org/2000/svg">
    <g clip-path="url(#clip0_9889_30642)">
        <path
            d="M7.99967 14.6667C11.6817 14.6667 14.6663 11.682 14.6663 8C14.6663 4.318 11.6817 1.33333 7.99967 1.33333C4.31767 1.33333 1.33301 4.318 1.33301 8C1.33301 11.682 4.31767 14.6667 7.99967 14.6667Z"
            stroke="#272E3B" stroke-width="1.33333" stroke-linejoin="round" />
        <path d="M5 11L6.5 6.5L11 5L9.5 9.5L5 11Z" fill="#272E3B" stroke="#272E3B" stroke-width="1.33333"
            stroke-linejoin="round" />
        <path fill-rule="evenodd" clip-rule="evenodd"
            d="M7.99967 8.66666C8.17649 8.66666 8.34605 8.59642 8.47108 8.4714C8.5961 8.34638 8.66634 8.17681 8.66634 7.99999C8.66634 7.82318 8.5961 7.65361 8.47108 7.52859C8.34605 7.40357 8.17649 7.33333 7.99967 7.33333C7.82286 7.33333 7.65329 7.40357 7.52827 7.52859C7.40325 7.65361 7.33301 7.82318 7.33301 7.99999C7.33301 8.17681 7.40325 8.34638 7.52827 8.4714C7.65329 8.59642 7.82286 8.66666 7.99967 8.66666Z"
            fill="#272E3B" />
    </g>
    <defs>
        <clipPath id="clip0_9889_30642">
            <rect width="16" height="16" fill="white" />
        </clipPath>
    </defs>
</svg>