<svg width="14" height="14" viewBox="0 0 14 14" fill="none" xmlns="http://www.w3.org/2000/svg">
<path fill-rule="evenodd" clip-rule="evenodd" d="M5.59853 2.04198C5.99638 1.61761 6.70832 1.89915 6.70832 2.48085L6.70832 4.375C10.0911 4.375 12.8333 7.11726 12.8333 10.5C12.8333 10.5483 12.8328 10.5964 12.8316 10.6444C12.8198 11.1565 12.2048 11.4066 11.8382 11.0525C10.7358 9.98757 9.23656 9.33333 7.58332 9.33333C7.28597 9.33333 6.99385 9.35448 6.70832 9.39529V11.5192C6.70832 12.1009 5.99638 12.3824 5.59853 11.958L1.51144 7.59845C1.19589 7.26187 1.1959 6.73813 1.51144 6.40155L5.59853 2.04198ZM5.54165 3.80846L2.54958 7L5.54165 10.1915V8.44078L5.99874 8.33945C6.50942 8.22625 7.03975 8.16667 7.58332 8.16667C9.03574 8.16667 10.3895 8.59174 11.5263 9.32378C10.9982 7.15314 9.04146 5.54167 6.70832 5.54167C6.53161 5.54167 6.35725 5.55089 6.18568 5.56884L5.54165 5.63621V3.80846Z" fill="#4E5969"/>
</svg>
