<svg width="16" height="16" viewBox="0 0 16 16" fill="none" xmlns="http://www.w3.org/2000/svg">
<g clip-path="url(#clip0_197_3720)">
<path d="M11.9697 7.78507C11.4113 6.84179 10.5584 6.10814 9.54226 5.69703C8.52612 5.28591 7.40303 5.22011 6.34583 5.50975C5.28863 5.79939 4.35591 6.42843 3.6912 7.30005C3.02649 8.17167 2.66663 9.23758 2.667 10.3337C2.667 10.5106 2.59677 10.6801 2.47174 10.8051C2.34672 10.9302 2.17715 11.0004 2.00034 11.0004C1.82353 11.0004 1.65396 10.9302 1.52893 10.8051C1.40391 10.6801 1.33367 10.5106 1.33367 10.3337C1.33358 8.9929 1.75905 7.68662 2.5488 6.60303C3.33855 5.51945 4.45183 4.71447 5.72831 4.30402C7.00479 3.89358 8.3786 3.89885 9.65189 4.31907C10.9252 4.7393 12.0323 5.55279 12.8137 6.64241L13.1717 4.61241C13.2023 4.43825 13.301 4.28341 13.4458 4.18195C13.5906 4.0805 13.7698 4.04073 13.944 4.07141C14.1182 4.10208 14.273 4.20069 14.3745 4.34553C14.4759 4.49037 14.5157 4.66958 14.485 4.84374L13.7903 8.78307C13.7594 8.95716 13.6606 9.11183 13.5157 9.21307C13.4212 9.27642 13.3133 9.31692 13.2005 9.33139C13.0877 9.34585 12.9731 9.33387 12.8657 9.29641L9.07901 8.62907C8.90485 8.5984 8.75001 8.49979 8.64855 8.35495C8.54709 8.21011 8.50733 8.0309 8.53801 7.85674C8.56868 7.68258 8.66729 7.52774 8.81213 7.42629C8.95697 7.32483 9.13618 7.28506 9.31034 7.31574L11.9697 7.78507Z" fill="#272E3B"/>
</g>
<defs>
<clipPath id="clip0_197_3720">
<rect width="16" height="16" fill="white" transform="matrix(-1 0 0 1 16 0)"/>
</clipPath>
</defs>
</svg>
