<svg width="1207" height="703" viewBox="0 0 1207 703" fill="none" xmlns="http://www.w3.org/2000/svg">
<path d="M890.644 624.56H892.396C892.396 628.28 892.204 631.52 891.82 634.28C893.692 636.272 895.252 638.264 896.548 640.232L895.252 641.552C894.292 639.872 893.02 638.12 891.484 636.272C890.74 640.304 889.084 643.592 886.492 646.184L885.292 644.72C887.548 642.392 889.06 639.464 889.78 635.936C890.356 632.96 890.644 629.168 890.644 624.56ZM900.028 624.536H901.756C901.756 626.936 901.66 629.168 901.492 631.184C902.644 636.896 904.708 641.384 907.636 644.672L906.388 646.16C904.036 643.256 902.236 639.68 900.988 635.432C900.94 635.672 900.916 635.912 900.868 636.152C900.1 640.28 898.324 643.664 895.588 646.328L894.388 644.864C896.764 642.512 898.348 639.56 899.116 636.008C899.692 633.008 900.004 629.192 900.028 624.536ZM918.796 633.632H913.684V643.544C913.684 644.096 913.972 644.384 914.596 644.384H919.18C919.996 644.384 920.524 644.168 920.716 643.784C920.932 643.328 921.1 642.44 921.196 641.12L922.828 641.648C922.66 643.688 922.348 644.936 921.916 645.416C921.532 645.8 920.764 645.992 919.636 645.992H913.924C912.58 645.992 911.932 645.368 911.932 644.144V632.096H920.476V638.48C920.452 639.776 919.78 640.448 918.46 640.496C917.548 640.496 916.66 640.472 915.82 640.424L915.388 638.792C916.3 638.888 917.116 638.936 917.836 638.936C918.46 638.936 918.796 638.6 918.796 637.952V633.632ZM915.748 624.608H917.02C919.108 626.816 921.124 629.144 923.044 631.592L921.916 632.792C919.852 630.056 918.052 627.872 916.516 626.24C914.74 628.88 912.7 631.304 910.348 633.512L909.34 632.12C911.692 629.984 913.828 627.488 915.748 624.608ZM924.46 626.504H926.14V641.456H924.46V626.504ZM928.468 646.184H924.748L924.364 644.528C925.588 644.6 926.764 644.648 927.868 644.648C928.468 644.648 928.78 644.288 928.78 643.568V624.464H930.508V644C930.508 645.44 929.812 646.184 928.468 646.184ZM953.476 634.232H948.34V636.152H953.956V637.568H948.34V639.56H954.652V641.024H948.34V643.4H946.66V641.024H941.212V639.56H946.66V637.568H941.956V636.152H946.66V634.232H942.46V632.792H946.66V630.872H941.284V629.432H946.66V627.536H942.46V626.096H946.66V624.344H948.34V626.096H953.476V629.432H955.084V630.872H953.476V634.232ZM948.34 627.536V629.432H951.796V627.536H948.34ZM948.34 630.872V632.792H951.796V630.872H948.34ZM947.212 644.264C949.852 644.264 952.564 644.216 955.348 644.144L955.06 645.8H947.956C943.636 645.8 940.54 645.176 938.668 643.928C938.356 643.688 938.092 643.472 937.852 643.232C937.084 644.36 936.124 645.344 935.02 646.184L933.892 644.72C935.02 643.904 935.956 642.944 936.724 641.84C935.788 640.496 935.02 638.792 934.444 636.728L935.884 636.2C936.364 637.904 936.94 639.296 937.564 640.352C938.38 638.648 938.86 636.656 939.004 634.376H934.564V633.032C935.956 631.256 937.252 629.336 938.404 627.272H934.468V625.64H940.348V627.056C939.148 629.264 937.948 631.16 936.796 632.792H940.564V633.824C940.468 636.992 939.82 639.68 938.668 641.888C939.052 642.296 939.436 642.608 939.844 642.848C941.476 643.76 943.948 644.216 947.212 644.264ZM967.828 632.312H959.836V630.728H977.332V636.2H969.508V638.552H978.172C978.172 641.384 977.98 643.184 977.62 643.904C977.236 644.72 976.396 645.128 975.1 645.152C974.092 645.152 973.108 645.128 972.148 645.104L971.716 643.472C972.82 643.52 973.876 643.544 974.836 643.544C975.556 643.544 976.012 643.256 976.204 642.728C976.348 642.248 976.42 641.36 976.42 640.064H969.508V646.424H967.828V640.064H967.756C966.172 642.368 963.244 644.336 958.924 645.968L957.94 644.384C961.78 643.112 964.42 641.672 965.86 640.064H959.284L960.388 634.616H967.828V632.312ZM967.828 636.2H961.9L961.324 638.552H967.828V636.2ZM969.508 634.616H975.556V632.312H969.508V634.616ZM961.252 627.584C960.676 628.448 960.028 629.264 959.308 630.008L957.796 629.072C959.332 627.608 960.436 626 961.132 624.224L962.788 624.584C962.572 625.112 962.356 625.592 962.14 626.072H968.524V627.584H964.564C965.164 628.304 965.644 628.976 966.004 629.6L964.444 630.176C963.964 629.288 963.388 628.424 962.716 627.584H961.252ZM971.38 627.512C970.852 628.424 970.276 629.264 969.604 630.032L968.116 629.096C969.46 627.632 970.42 626 971.044 624.224L972.7 624.584C972.532 625.064 972.34 625.544 972.148 626H979.228V627.512H974.884C975.484 628.28 975.964 628.976 976.324 629.624L974.788 630.2C974.308 629.264 973.708 628.376 973.036 627.512H971.38ZM981.7 634.328H1003.28V636.056H981.7V634.328ZM1015.61 631.496H1017.39V646.376H1015.61V631.496ZM1015.73 624.416H1017.27C1019.28 627.728 1022.74 630.632 1027.64 633.152L1026.6 634.712C1022.09 632.36 1018.71 629.48 1016.5 626.024C1013.84 629.816 1010.48 632.744 1006.4 634.808L1005.36 633.248C1009.85 630.968 1013.31 628.016 1015.73 624.416ZM1047.92 629.648V641H1046.19V631.328H1034.72V641.048H1032.99V629.648H1039.06C1039.3 628.808 1039.47 627.944 1039.59 627.032H1029.94V625.4H1051.06V627.032H1041.41C1041.27 627.944 1041.1 628.832 1040.86 629.648H1047.92ZM1042.08 641.048C1045.18 642.104 1048.01 643.352 1050.56 644.84L1049.5 646.472C1046.76 644.768 1043.98 643.424 1041.12 642.464L1042.08 641.048ZM1039.61 632.768H1041.39V636.584C1041.29 639.224 1040.43 641.312 1038.84 642.896C1037.31 644.36 1034.79 645.488 1031.28 646.304L1030.3 644.768C1033.78 644 1036.2 642.992 1037.57 641.72C1038.87 640.4 1039.54 638.696 1039.61 636.584V632.768ZM1053.82 625.352H1075.18V627.032H1065.56C1065.36 628.088 1065.05 629.12 1064.67 630.104H1073.88V646.472H1072.23V645.272H1056.84V646.472H1055.19V630.104H1062.92C1063.3 629.096 1063.61 628.088 1063.8 627.032H1053.82V625.352ZM1056.84 643.688H1060.16V631.664H1056.84V643.688ZM1061.76 643.688H1067.24V640.616H1061.76V643.688ZM1068.84 643.688H1072.23V631.664H1068.84V643.688ZM1061.76 639.104H1067.24V636.176H1061.76V639.104ZM1061.76 634.64H1067.24V631.664H1061.76V634.64ZM1079.19 625.832H1097.88V627.512H1093.88V633.872H1099.13V635.528H1093.88V646.16H1092.12V635.528H1085.19C1084.97 638 1084.52 640.04 1083.8 641.672C1082.88 643.688 1081.37 645.248 1079.26 646.352L1078.32 644.864C1080.27 643.76 1081.64 642.296 1082.4 640.472C1082.91 639.08 1083.24 637.448 1083.44 635.528H1077.89V633.872H1083.53C1083.53 633.56 1083.56 633.272 1083.56 633.032V627.512H1079.19V625.832ZM1085.33 627.512V633.032C1085.33 633.32 1085.31 633.608 1085.31 633.872H1092.12V627.512H1085.33ZM1104.44 624.296L1106.14 624.44C1105.92 626.072 1105.71 627.584 1105.49 628.976H1109.04V629.984C1108.85 633.872 1108.18 637.208 1107.03 640.04C1108.16 641.216 1109.09 642.272 1109.81 643.232L1108.66 644.576C1107.99 643.688 1107.2 642.728 1106.26 641.72C1105.3 643.544 1104.12 645.128 1102.68 646.472L1101.6 645.104C1103.02 643.808 1104.17 642.272 1105.08 640.448C1104.12 639.464 1103.09 638.456 1101.99 637.4C1102.56 635.312 1103.07 633.056 1103.5 630.632H1101.58V628.976H1103.79C1104.03 627.464 1104.24 625.904 1104.44 624.296ZM1105.8 638.792C1106.72 636.392 1107.24 633.68 1107.41 630.632H1105.23C1104.77 633.152 1104.32 635.24 1103.84 636.896C1104.53 637.544 1105.18 638.168 1105.8 638.792ZM1121.72 636.2V646.424H1120.06V644.984H1112.72V646.424H1111.06V636.2H1121.72ZM1112.72 643.352H1120.06V637.784H1112.72V643.352ZM1110.12 634.04L1109.86 632.48C1111.25 631.76 1112.98 629.072 1115.04 624.368L1116.68 624.92C1115.24 628.04 1113.82 630.512 1112.38 632.36C1115.07 632.192 1117.64 631.904 1120.06 631.52C1119.39 630.2 1118.72 628.976 1118.02 627.872L1119.51 627.152C1120.83 629.264 1122.08 631.568 1123.23 634.088L1121.62 634.856C1121.33 634.208 1121.07 633.584 1120.78 632.984C1117.59 633.44 1114.04 633.8 1110.12 634.04ZM933.1 668.368L934.804 668.584C934.612 669.736 934.372 670.84 934.084 671.896H942.508C942.508 680.2 942.364 685.336 942.124 687.256C941.836 689.2 940.708 690.184 938.716 690.184C938.212 690.184 937.348 690.16 936.124 690.112L935.74 688.552C936.796 688.6 937.684 688.648 938.452 688.648C939.604 688.648 940.3 688 940.516 686.752C940.732 685.36 940.852 680.944 940.876 673.504H933.58C932.908 675.352 932.092 677.008 931.132 678.448L930.028 677.008C931.516 674.656 932.548 671.776 933.1 668.368ZM931.132 685.216L930.82 683.8C931.492 683.44 932.668 680.872 934.372 676.072L935.884 676.624C934.708 679.816 933.772 682.048 933.076 683.32C934.516 683.032 935.836 682.744 936.988 682.456C936.652 681.448 936.292 680.536 935.956 679.72L937.396 679.216C938.212 681.088 938.932 683.104 939.556 685.24L938.044 685.912C937.828 685.144 937.612 684.424 937.42 683.752C935.596 684.256 933.484 684.736 931.132 685.216ZM927.052 678.16V690.304H925.348V678.088C924.532 680.536 923.476 682.744 922.132 684.736L921.388 682.864C923.188 680.488 924.46 677.776 925.228 674.752H921.868V673.096H925.348V668.416H927.052V673.096H930.004V674.752H927.052V676.264C928.156 677.416 929.284 678.688 930.436 680.104L929.476 681.568C928.54 680.176 927.724 679.024 927.052 678.16ZM965.476 678.232H960.34V680.152H965.956V681.568H960.34V683.56H966.652V685.024H960.34V687.4H958.66V685.024H953.212V683.56H958.66V681.568H953.956V680.152H958.66V678.232H954.46V676.792H958.66V674.872H953.284V673.432H958.66V671.536H954.46V670.096H958.66V668.344H960.34V670.096H965.476V673.432H967.084V674.872H965.476V678.232ZM960.34 671.536V673.432H963.796V671.536H960.34ZM960.34 674.872V676.792H963.796V674.872H960.34ZM959.212 688.264C961.852 688.264 964.564 688.216 967.348 688.144L967.06 689.8H959.956C955.636 689.8 952.54 689.176 950.668 687.928C950.356 687.688 950.092 687.472 949.852 687.232C949.084 688.36 948.124 689.344 947.02 690.184L945.892 688.72C947.02 687.904 947.956 686.944 948.724 685.84C947.788 684.496 947.02 682.792 946.444 680.728L947.884 680.2C948.364 681.904 948.94 683.296 949.564 684.352C950.38 682.648 950.86 680.656 951.004 678.376H946.564V677.032C947.956 675.256 949.252 673.336 950.404 671.272H946.468V669.64H952.348V671.056C951.148 673.264 949.948 675.16 948.796 676.792H952.564V677.824C952.468 680.992 951.82 683.68 950.668 685.888C951.052 686.296 951.436 686.608 951.844 686.848C953.476 687.76 955.948 688.216 959.212 688.264ZM982.468 681.736H980.548L980.188 680.128C980.788 680.2 981.364 680.248 981.892 680.248C982.324 680.248 982.564 679.936 982.564 679.336V673.24H984.292V679.744C984.292 681.064 983.668 681.736 982.468 681.736ZM972.628 674.848C971.932 675.664 971.212 676.408 970.468 677.08L969.388 675.76C971.548 673.888 973.324 671.416 974.716 668.368L976.396 668.728C975.772 670.12 975.076 671.416 974.308 672.592V681.76H972.628V674.848ZM980.116 668.344L981.748 668.704C981.46 669.352 981.148 669.976 980.86 670.552H990.484V671.632C990.172 672.832 989.788 674.008 989.308 675.16L987.748 674.752C988.156 673.96 988.492 673.096 988.756 672.136H979.9C978.988 673.528 977.932 674.728 976.78 675.784L975.724 674.488C977.524 672.904 978.988 670.864 980.116 668.344ZM972.22 682.984L973.876 683.32C973.3 685.624 972.508 687.64 971.476 689.344L970.012 688.408C971.02 686.776 971.74 684.952 972.22 682.984ZM984.028 690.04H977.884C976.396 690.04 975.676 689.272 975.676 687.736V682.672H977.428V687.376C977.428 688.048 977.74 688.408 978.412 688.408H983.692C984.172 688.408 984.508 688.264 984.724 687.976C985.012 687.64 985.18 686.68 985.276 685.096L986.908 685.624C986.74 687.736 986.428 689.008 985.948 689.464C985.54 689.848 984.892 690.04 984.028 690.04ZM988.108 682.24C989.644 684.352 990.796 686.2 991.612 687.784L990.196 688.792C989.332 687.064 988.156 685.168 986.692 683.104L988.108 682.24ZM979.468 675.544L980.86 676.192C979.948 678.04 978.892 679.648 977.692 680.992L976.372 680.08C977.572 678.784 978.604 677.272 979.468 675.544ZM987.436 675.52C988.588 676.96 989.596 678.568 990.484 680.344L989.02 681.088C988.108 679.216 987.076 677.584 985.972 676.144L987.436 675.52ZM980.668 682.024C981.868 683.392 982.78 684.592 983.404 685.624L982.06 686.56C981.388 685.456 980.476 684.208 979.324 682.864L980.668 682.024ZM1002.2 672.544V688.912H1000.52V687.544H996.148V689.608H994.468V672.544H996.7C997.18 671.2 997.516 669.808 997.732 668.368L999.46 668.608C999.172 670.024 998.812 671.344 998.332 672.544H1002.2ZM996.148 685.936H1000.52V680.68H996.148V685.936ZM996.148 679.12H1000.52V674.176H996.148V679.12ZM1006.37 678.112C1008.1 680.104 1009.4 681.856 1010.31 683.344L1008.94 684.304C1007.96 682.72 1006.64 680.944 1004.98 678.976L1006.37 678.112ZM1014.6 672.568C1014.6 680.536 1014.48 685.48 1014.24 687.352C1014 689.176 1012.9 690.112 1010.88 690.112C1010.4 690.112 1009.59 690.064 1008.44 690.016L1008.03 688.432C1009.04 688.48 1009.9 688.504 1010.64 688.504C1011.77 688.504 1012.42 687.88 1012.61 686.656C1012.76 685.312 1012.85 681.16 1012.9 674.248H1006.3C1005.63 675.76 1004.84 677.128 1003.9 678.352L1002.87 676.984C1004.55 674.632 1005.68 671.752 1006.3 668.344L1008 668.56C1007.72 669.976 1007.38 671.32 1006.95 672.568H1014.6ZM1021.85 687.688H1031.86C1033.35 684.28 1034.64 680.08 1035.75 675.04L1037.45 675.496C1036.44 680.056 1035.22 684.136 1033.73 687.688H1038.8V689.368H1021.85V687.688ZM1024.47 676.216C1025.43 678.76 1026.29 681.712 1027.06 685.024L1025.43 685.432C1024.78 682.408 1023.96 679.48 1022.96 676.696L1024.47 676.216ZM1029.1 674.512C1029.92 677.152 1030.66 680.2 1031.33 683.608L1029.68 683.992C1029.15 680.872 1028.45 677.872 1027.59 674.992L1029.1 674.512ZM1029.12 668.2C1029.58 668.944 1030.01 669.784 1030.4 670.696H1039.18V672.376H1021.4V677.728C1021.3 683.008 1020.48 687.232 1018.92 690.4L1017.51 689.128C1018.85 686.392 1019.57 682.6 1019.62 677.728V670.696H1028.52C1028.14 669.928 1027.71 669.208 1027.23 668.536L1029.12 668.2ZM1045.61 676.768V680.968H1051.71V676.768H1045.61ZM1045.52 682.552C1045.25 685.624 1044.36 688.168 1042.83 690.184L1041.51 689.008C1043.04 686.872 1043.84 684.16 1043.88 680.872V669.352H1061.76V687.328C1061.76 689.008 1060.92 689.848 1059.24 689.848H1056.48L1056.03 688.144C1056.99 688.192 1057.88 688.24 1058.69 688.24C1059.56 688.24 1060.01 687.736 1060.01 686.728V682.552H1053.48V689.584H1051.71V682.552H1045.52ZM1060.01 680.968V676.768H1053.48V680.968H1060.01ZM1060.01 675.16V671.032H1053.48V675.16H1060.01ZM1051.71 671.032H1045.61V675.16H1051.71V671.032ZM1073.07 670.36V687.592H1071.39V686.296H1068.27V688.096H1066.54V670.36H1073.07ZM1068.27 684.616H1071.39V672.04H1068.27V684.616ZM1079.67 671.152H1076.74V678.688H1079.67V671.152ZM1081.28 678.688H1084.32V671.152H1081.28V678.688ZM1086 669.544V680.296H1076.74V686.728C1076.74 687.784 1077.2 688.336 1078.11 688.336H1083.94C1084.52 688.312 1084.92 688.024 1085.16 687.472C1085.36 687.016 1085.5 685.888 1085.62 684.112L1087.23 684.64C1087.08 686.32 1086.92 687.52 1086.68 688.264C1086.32 689.368 1085.57 689.944 1084.44 689.992H1077.46C1075.85 689.992 1075.06 689.104 1075.06 687.328V669.544H1086Z" fill="#4E5969"/>
<mask id="mask0_1972_9932" style="mask-type:alpha" maskUnits="userSpaceOnUse" x="851" y="323" width="356" height="276">
<path d="M1199.95 346.214C1229.22 390.684 1161.74 581.486 1100.23 595.112C1038.72 608.738 1027.69 575.188 944.206 589.742C889.838 599.22 852.918 548.667 851.02 497.626C850.003 470.294 887.276 378.969 909.048 360.501C957.367 329.435 1170.68 301.742 1199.95 346.214Z" fill="white"/>
</mask>
<g mask="url(#mask0_1972_9932)">
<mask id="mask1_1972_9932" style="mask-type:alpha" maskUnits="userSpaceOnUse" x="868" y="423" width="222" height="202">
<path d="M981.641 441.014C970.304 490.021 963.183 523.158 960.28 540.427C959.628 544.294 958.823 549.474 957.863 555.968C957.633 557.521 957.012 558.99 956.058 560.236C955.103 561.482 953.847 562.464 952.408 563.091C948.429 564.823 945.151 565.949 942.573 566.47C926.641 569.688 907.763 566.35 895.994 560.907C880.308 553.65 874.737 564.417 871.901 571.578C869.066 578.739 862.473 592.151 879.234 598.731C895.994 605.309 930.224 622.309 996.953 624.099C1063.68 625.888 1078.58 620.561 1085.07 596.542C1091.55 572.522 1088.86 544.998 1086.63 495.977C1085.53 471.786 1083.75 453.591 1081.3 441.392C1080.62 437.99 1078.99 434.848 1076.61 432.328C1074.22 429.807 1071.17 428.009 1067.82 427.138C1058.06 424.61 1046.19 423.346 1032.2 423.346C1018.03 423.346 1005.7 424.641 995.217 427.233C991.902 428.052 988.879 429.773 986.482 432.206C984.086 434.638 982.41 437.687 981.641 441.014Z" fill="white"/>
</mask>
<g mask="url(#mask1_1972_9932)">
<path d="M981.641 441.014C970.304 490.021 963.184 523.158 960.28 540.427C959.628 544.294 958.824 549.474 957.863 555.968C957.633 557.521 957.012 558.99 956.058 560.236C955.103 561.482 953.847 562.464 952.408 563.091C948.429 564.823 945.151 565.949 942.573 566.47C926.642 569.688 907.763 566.35 895.994 560.907C880.308 553.65 874.738 564.417 871.901 571.578C869.066 578.739 862.474 592.151 879.234 598.731C895.994 605.309 930.224 622.309 996.953 624.099C1063.68 625.888 1078.58 620.561 1085.07 596.542C1091.55 572.522 1088.86 544.998 1086.63 495.977C1085.53 471.786 1083.75 453.591 1081.3 441.392C1080.62 437.99 1078.99 434.848 1076.61 432.328C1074.22 429.807 1071.17 428.009 1067.82 427.138C1058.06 424.61 1046.19 423.346 1032.2 423.346C1018.03 423.346 1005.7 424.641 995.217 427.233C991.902 428.052 988.879 429.773 986.483 432.206C984.086 434.638 982.41 437.687 981.641 441.014Z" fill="#01133B"/>
<path fill-rule="evenodd" clip-rule="evenodd" d="M1078.76 435.106C1076.63 432.021 1074.11 430.478 1071.19 430.478C1066.82 430.478 1061.6 435.18 1061.6 450.711C1061.6 466.242 1068.09 567.151 1056.13 577.902C1044.17 588.653 1023.56 582.083 1010.46 579.544C997.35 577.004 989.091 577.902 974.036 577.902C958.98 577.902 909.208 568.742 897.469 561.133C897.719 552.977 906.341 532.005 923.333 498.216C948.487 457.878 961.064 436.842 961.064 435.106C961.064 433.371 978.083 426.175 1012.12 413.522L1080.18 419.37L1078.76 435.106Z" fill="#01133B" stroke="white" stroke-width="1.32"/>
<path fill-rule="evenodd" clip-rule="evenodd" d="M879.234 598.731C912.714 609.531 938.232 614.932 955.787 614.932C969.669 614.932 981.325 614.572 990.757 613.853C995.502 613.491 1000.27 613.754 1004.95 614.635C1028.32 619.035 1047.27 620.078 1061.79 617.764C1085.77 613.944 1088.75 590.768 1089.13 576.542C1095.91 574.887 1105.77 589.393 1118.72 620.057L1054.52 634.79L922.175 633.364L860.523 611.598L879.234 598.731Z" fill="#3351E5"/>
</g>
<path d="M1166.08 426.115C1166.89 420.713 1167.41 417.208 1167.63 415.599C1168 412.915 1168.53 408.98 1171.89 405.697C1177.73 399.988 1180.86 393.604 1181.13 385.818C1181.62 371.886 1170.72 360.197 1156.78 359.709C1142.85 359.221 1131.16 370.121 1130.67 384.052C1130.37 392.734 1133.95 399.376 1140 405.284C1143.32 408.53 1143.35 413.13 1143.66 415.838C1143.81 417.158 1144.1 420.339 1144.52 425.382C1144.68 427.353 1145.56 429.196 1147 430.56C1148.43 431.925 1150.31 432.717 1152.29 432.786L1157.81 432.979C1159.79 433.049 1161.72 432.388 1163.25 431.122C1164.77 429.856 1165.78 428.074 1166.08 426.115Z" stroke="#01133B" stroke-width="1.32" stroke-linecap="round" stroke-linejoin="round"/>
<path d="M1144.13 414.426L1167.3 415.235M1145.08 391.124L1152.18 414.707M1168.09 391.929L1159.37 414.957" stroke="#01133B" stroke-width="1.32" stroke-linecap="round" stroke-linejoin="round"/>
<path d="M1145.08 391.123C1148.37 391.673 1153.04 390.007 1153.22 384.9C1153.39 379.793 1150.8 377.766 1148.78 378.304C1146.75 378.843 1144.33 381.575 1147.57 386.448C1150.8 391.322 1159.8 392.598 1164.37 385.291C1168.93 377.983 1162.48 372.974 1158.66 377.623C1154.84 382.272 1155.24 392.806 1168.1 391.928" stroke="#4FAE7B" stroke-width="2.64" stroke-linecap="round" stroke-linejoin="round"/>
<path d="M1166.69 419.444L1144.76 421.947M1166.02 424.546L1145.04 426.941" stroke="#01133B" stroke-width="1.32" stroke-linecap="round" stroke-linejoin="round"/>
<path fill-rule="evenodd" clip-rule="evenodd" d="M1154.79 353.202C1157.99 353.313 1161.08 338.852 1161.19 335.645C1161.3 332.44 1158.81 329.751 1155.61 329.638C1152.42 329.527 1149.74 332.035 1149.63 335.241C1149.52 338.447 1151.6 353.09 1154.79 353.202ZM1128.53 364.689C1130.97 362.636 1123.6 349.815 1121.53 347.358C1119.47 344.9 1115.81 344.572 1113.37 346.624C1110.92 348.677 1110.61 352.334 1112.67 354.792C1114.73 357.25 1126.08 366.742 1128.53 364.689ZM1181.62 364.137C1179.32 361.917 1187.57 349.644 1189.8 347.337C1192.03 345.03 1195.7 344.958 1198 347.176C1200.3 349.396 1200.35 353.065 1198.12 355.373C1195.9 357.681 1183.92 366.355 1181.62 364.137Z" fill="#4FAE7B"/>
<path fill-rule="evenodd" clip-rule="evenodd" d="M1024.31 567.827C1026.57 556.243 1019.19 544.973 1007.67 542.409L905.434 519.639C893.22 516.92 881.111 524.618 878.39 536.835C878.349 537.017 878.312 537.199 878.275 537.382C875.801 549.936 883.97 562.118 896.522 564.59L896.58 564.601L999.461 584.594C1010.95 586.827 1022.08 579.32 1024.31 567.827Z" fill="white" stroke="#01133B" stroke-width="1.32" stroke-linecap="round" stroke-linejoin="round"/>
<path fill-rule="evenodd" clip-rule="evenodd" d="M1039.49 552.982L1037.55 569.514C1035.65 585.686 1021.15 597.366 1004.95 595.785L918.124 587.317L878.102 677.206C873.804 686.859 862.496 691.201 852.842 686.904C843.19 682.607 838.851 671.297 843.148 661.644L887.9 556.665C889.223 553.561 891.41 550.902 894.2 549.004C896.99 547.107 900.266 546.05 903.639 545.96L990.155 543.664L1039.49 552.982Z" fill="white" stroke="#01133B" stroke-width="1.32" stroke-linecap="round" stroke-linejoin="round"/>
<path d="M1025.05 551.168L1021.44 566.622C1019.1 576.642 1009.63 583.325 999.408 582.17L906.402 571.669L879.897 630.96" stroke="#01133B" stroke-width="1.32" stroke-linecap="round" stroke-linejoin="round"/>
<path d="M1019.35 570.443C1015.02 569.207 1011.22 566.551 1008.57 562.901C1005.93 559.251 1004.58 554.818 1004.75 550.312L1004.84 547.914" stroke="#01133B" stroke-width="1.32" stroke-linecap="round" stroke-linejoin="round"/>
<path d="M1018.37 573.899C1008.22 570.978 1001.42 561.475 1001.91 550.928L1002.09 547.128" stroke="#01133B" stroke-width="0.528" stroke-linecap="round" stroke-linejoin="round" stroke-dasharray="1.58 1.58"/>
<path fill-rule="evenodd" clip-rule="evenodd" d="M904.23 519.487C891.274 517.32 879.017 526.068 876.854 539.025C876.56 540.785 876.465 542.572 876.57 544.353L884.126 671.795L924.959 669.127L920.08 544.462" fill="white"/>
<path d="M904.23 519.487C891.274 517.32 879.017 526.068 876.854 539.025C876.56 540.785 876.465 542.572 876.57 544.353L884.126 671.795L924.959 669.127L920.08 544.462" stroke="#01133B" stroke-width="1.32" stroke-linecap="round" stroke-linejoin="round"/>
<path d="M939.615 544.462L907.957 536.117C906.821 535.817 905.631 535.79 904.483 536.037C903.334 536.283 902.26 536.797 901.348 537.536C900.435 538.276 899.71 539.22 899.231 540.292C898.751 541.364 898.531 542.534 898.589 543.707L902.508 624.149" stroke="#01133B" stroke-width="1.32" stroke-linecap="round" stroke-linejoin="round"/>
<path fill-rule="evenodd" clip-rule="evenodd" d="M1113.64 456.98L1087.48 530.087C1085.11 539.221 1067.57 543.146 1058.44 540.78C1052.82 539.326 1048.66 535.221 1046.19 529.642L1044.08 524.534L1039.48 552.992L978.491 541.609L972.651 533.285L952.051 522.654C943.793 519.484 932.622 483.202 935.792 474.943L962.044 443.253C963.454 441.551 965.242 440.2 967.264 439.309C969.287 438.417 971.49 438.009 973.698 438.116L1018.2 440.278L1048.9 447.011C1051.59 447.602 1054.06 448.964 1056 450.932L1067.58 462.711L1078 430.392" fill="white"/>
<path d="M1113.64 456.98L1087.48 530.087C1085.11 539.221 1067.57 543.146 1058.44 540.78C1052.82 539.326 1048.66 535.221 1046.19 529.642L1044.08 524.534L1039.48 552.992L978.491 541.609L972.651 533.285L952.051 522.654C943.793 519.484 932.622 483.202 935.792 474.943L962.044 443.253C963.454 441.551 965.242 440.2 967.264 439.309C969.287 438.417 971.49 438.009 973.698 438.116L1018.2 440.278L1048.9 447.011C1051.59 447.602 1054.06 448.964 1056 450.932L1067.58 462.711L1078 430.392M1043.9 525.95L1048.48 496.227" stroke="#01133B" stroke-width="1.32" stroke-linecap="round" stroke-linejoin="round"/>
<path d="M1002.12 446.891L1013.68 463.893L1034.29 452.066" stroke="#01133B" stroke-width="1.32" stroke-linecap="round" stroke-linejoin="round"/>
<path fill-rule="evenodd" clip-rule="evenodd" d="M1074.25 447.495L1112.9 457.307L1125.53 422.609L1086.65 408.456L1074.25 447.495Z" fill="white"/>
<path fill-rule="evenodd" clip-rule="evenodd" d="M1113.36 457.863L1139.67 387.802C1140.26 386.237 1140.2 384.503 1139.51 382.981C1138.82 381.459 1137.55 380.274 1135.98 379.686L1135.92 379.664C1134.31 379.078 1132.54 379.136 1130.97 379.827C1129.41 380.518 1128.17 381.787 1127.51 383.37L1113.36 417.659" fill="white"/>
<path d="M1113.36 457.863L1139.67 387.802C1140.26 386.237 1140.2 384.503 1139.51 382.981C1138.82 381.459 1137.55 380.274 1135.98 379.686L1135.92 379.664C1134.31 379.078 1132.54 379.136 1130.97 379.827C1129.41 380.518 1128.17 381.787 1127.51 383.37L1113.36 417.659" stroke="#01133B" stroke-width="1.32" stroke-linecap="round" stroke-linejoin="round"/>
<path fill-rule="evenodd" clip-rule="evenodd" d="M1120.05 440.157L1124.01 429.789C1127.48 420.692 1123.2 410.47 1114.27 406.57L1090.87 396.341C1089.56 395.768 1088.08 395.719 1086.74 396.203C1085.39 396.686 1084.28 397.667 1083.64 398.943C1083.33 399.554 1083.15 400.222 1083.1 400.906C1083.06 401.59 1083.15 402.276 1083.37 402.923C1083.6 403.57 1083.95 404.165 1084.41 404.672C1084.88 405.179 1085.43 405.588 1086.06 405.875L1105.56 414.859" fill="white"/>
<path d="M1120.05 440.157L1124.01 429.789C1127.48 420.692 1123.2 410.47 1114.27 406.57L1090.87 396.341C1089.56 395.768 1088.08 395.719 1086.74 396.203C1085.39 396.686 1084.28 397.667 1083.64 398.943C1083.33 399.554 1083.15 400.222 1083.1 400.906C1083.06 401.59 1083.15 402.276 1083.37 402.923C1083.6 403.57 1083.95 404.165 1084.41 404.672C1084.88 405.179 1085.43 405.588 1086.06 405.875L1105.56 414.859" stroke="#01133B" stroke-width="1.32" stroke-linecap="round" stroke-linejoin="round"/>
<path fill-rule="evenodd" clip-rule="evenodd" d="M1105.56 414.859L1085.97 405.838C1084.71 405.257 1083.27 405.192 1081.96 405.659C1080.65 406.125 1079.58 407.085 1078.97 408.333C1078.67 408.941 1078.5 409.601 1078.46 410.277C1078.43 410.952 1078.52 411.627 1078.75 412.264C1078.98 412.9 1079.33 413.485 1079.79 413.983C1080.25 414.48 1080.8 414.881 1081.42 415.162L1101.63 424.396" fill="white"/>
<path d="M1105.56 414.859L1085.97 405.838C1084.71 405.257 1083.27 405.192 1081.96 405.659C1080.65 406.125 1079.58 407.085 1078.97 408.333C1078.67 408.941 1078.5 409.601 1078.46 410.277C1078.43 410.952 1078.52 411.627 1078.75 412.264C1078.98 412.9 1079.33 413.485 1079.79 413.983C1080.25 414.48 1080.8 414.881 1081.42 415.162L1101.63 424.396" stroke="#01133B" stroke-width="1.32" stroke-linecap="round" stroke-linejoin="round"/>
<path fill-rule="evenodd" clip-rule="evenodd" d="M1101.63 424.397L1081.35 415.13C1080.74 414.851 1080.08 414.696 1079.41 414.672C1078.74 414.648 1078.07 414.756 1077.44 414.99C1076.81 415.224 1076.24 415.579 1075.75 416.036C1075.26 416.493 1074.86 417.041 1074.58 417.651L1074.58 417.666C1074.02 418.904 1073.97 420.314 1074.45 421.586C1074.92 422.859 1075.88 423.891 1077.12 424.456L1097.41 433.722" fill="white"/>
<path d="M1101.63 424.397L1081.35 415.13C1080.74 414.851 1080.08 414.696 1079.41 414.672C1078.74 414.648 1078.07 414.756 1077.44 414.99C1076.81 415.224 1076.24 415.579 1075.75 416.036C1075.26 416.493 1074.86 417.041 1074.58 417.651L1074.58 417.666C1074.02 418.904 1073.97 420.314 1074.45 421.586C1074.92 422.859 1075.88 423.891 1077.12 424.456L1097.41 433.722" stroke="#01133B" stroke-width="1.32" stroke-linecap="round" stroke-linejoin="round"/>
<path fill-rule="evenodd" clip-rule="evenodd" d="M1097.41 433.722L1077.78 424.756C1076.38 424.116 1074.78 424.059 1073.34 424.596C1071.9 425.134 1070.73 426.222 1070.09 427.622L1070.07 427.657L1068.09 432.079C1067.68 432.993 1067.45 433.981 1067.43 434.982C1067.41 435.984 1067.59 436.979 1067.97 437.91C1068.34 438.84 1068.89 439.685 1069.6 440.396C1070.31 441.106 1071.15 441.667 1072.08 442.045L1076.44 443.827C1076.93 444.026 1077.46 444.125 1077.99 444.119C1078.51 444.112 1079.04 443.999 1079.52 443.788C1080 443.576 1080.44 443.269 1080.8 442.886C1081.17 442.503 1081.45 442.05 1081.64 441.556C1082.02 440.537 1081.99 439.409 1081.55 438.412C1081.11 437.416 1080.31 436.628 1079.3 436.218L1077.05 435.305" fill="white"/>
<path d="M1097.41 433.722L1077.78 424.756C1076.38 424.116 1074.78 424.059 1073.34 424.596C1071.9 425.134 1070.73 426.222 1070.09 427.622L1070.07 427.657L1068.09 432.079C1067.68 432.993 1067.45 433.981 1067.43 434.982C1067.41 435.984 1067.59 436.979 1067.97 437.91C1068.34 438.84 1068.89 439.685 1069.6 440.396C1070.31 441.106 1071.15 441.667 1072.08 442.045L1076.44 443.827C1076.93 444.026 1077.46 444.125 1077.99 444.119C1078.51 444.112 1079.04 443.999 1079.52 443.788C1080 443.576 1080.44 443.269 1080.8 442.886C1081.17 442.503 1081.45 442.05 1081.64 441.556C1082.02 440.537 1081.99 439.409 1081.55 438.412C1081.11 437.416 1080.31 436.628 1079.3 436.218L1077.05 435.305" stroke="#01133B" stroke-width="1.32" stroke-linecap="round" stroke-linejoin="round"/>
<path fill-rule="evenodd" clip-rule="evenodd" d="M1028.28 444.137L1031.19 423.428L1012.24 420.768L1009.33 441.477" fill="white"/>
<path d="M1028.28 444.137L1031.19 423.428L1012.24 420.768L1009.33 441.477" stroke="#01133B" stroke-width="1.32" stroke-linecap="round" stroke-linejoin="round"/>
<mask id="mask2_1972_9932" style="mask-type:alpha" maskUnits="userSpaceOnUse" x="1009" y="420" width="23" height="31">
<path d="M1031.19 423.427L1012.25 420.768L1009.55 439.934C1008.81 445.166 1012.46 450.003 1017.69 450.738C1022.92 451.472 1027.75 447.825 1028.49 442.593L1031.19 423.427Z" fill="white"/>
</mask>
<g mask="url(#mask2_1972_9932)">
<path d="M1026.06 432.958C1014.25 431.298 1005.91 421.081 1007.45 410.139C1008.99 399.195 1019.82 391.67 1031.63 393.33C1043.45 394.988 1051.78 405.205 1050.24 416.149C1048.7 427.091 1037.88 434.617 1026.06 432.958Z" fill="#01133B"/>
</g>
<path fill-rule="evenodd" clip-rule="evenodd" d="M936.587 473.98L930.954 481.019C928.396 484.215 926.577 487.937 925.627 491.918C924.676 495.899 924.618 500.042 925.455 504.048L941.235 579.535C941.527 580.932 942.362 582.157 943.557 582.939C944.751 583.721 946.207 583.996 947.605 583.705L947.703 583.683C948.404 583.523 949.066 583.227 949.652 582.811C950.238 582.395 950.736 581.867 951.118 581.259C951.5 580.65 951.758 579.972 951.878 579.263C951.998 578.555 951.978 577.83 951.817 577.129L951.814 577.117L946.334 553.388" fill="white"/>
<path d="M936.587 473.98L930.954 481.019C928.396 484.215 926.577 487.937 925.627 491.918C924.676 495.899 924.618 500.042 925.455 504.048L941.235 579.535C941.527 580.932 942.362 582.157 943.557 582.939C944.751 583.721 946.207 583.996 947.605 583.705L947.703 583.683C948.404 583.523 949.066 583.227 949.652 582.811C950.238 582.395 950.736 581.867 951.118 581.259C951.5 580.65 951.758 579.972 951.878 579.263C951.998 578.555 951.978 577.83 951.817 577.129L951.814 577.117L946.334 553.388" stroke="#01133B" stroke-width="1.32" stroke-linecap="round" stroke-linejoin="round"/>
<path fill-rule="evenodd" clip-rule="evenodd" d="M974.025 543.423L979.782 549.918C980.256 550.453 980.834 550.885 981.48 551.19C982.127 551.494 982.829 551.664 983.543 551.689C984.257 551.713 984.969 551.593 985.635 551.334C986.301 551.075 986.907 550.683 987.417 550.183C988.484 549.134 989.108 547.716 989.159 546.22C989.211 544.725 988.686 543.267 987.693 542.147L973.032 525.609" fill="white"/>
<path d="M974.025 543.423L979.782 549.918C980.256 550.453 980.834 550.885 981.48 551.19C982.127 551.494 982.829 551.664 983.543 551.689C984.257 551.713 984.969 551.593 985.635 551.334C986.301 551.075 986.907 550.683 987.417 550.183C988.484 549.134 989.108 547.716 989.159 546.22C989.211 544.725 988.686 543.267 987.693 542.147L973.032 525.609" stroke="#01133B" stroke-width="1.32" stroke-linecap="round" stroke-linejoin="round"/>
<path fill-rule="evenodd" clip-rule="evenodd" d="M946.333 553.385L951.843 577.241C952 577.925 952.292 578.571 952.7 579.141C953.108 579.712 953.626 580.196 954.222 580.566C954.818 580.936 955.481 581.185 956.174 581.297C956.867 581.41 957.575 581.384 958.257 581.222C959.642 580.892 960.84 580.028 961.59 578.818C962.34 577.609 962.582 576.151 962.261 574.764L956.75 550.901" fill="white"/>
<path d="M946.333 553.385L951.843 577.241C952 577.925 952.292 578.571 952.7 579.141C953.108 579.712 953.626 580.196 954.222 580.566C954.818 580.936 955.481 581.185 956.174 581.297C956.867 581.41 957.575 581.384 958.257 581.222C959.642 580.892 960.84 580.028 961.59 578.818C962.34 577.609 962.582 576.151 962.261 574.764L956.75 550.901" stroke="#01133B" stroke-width="1.32" stroke-linecap="round" stroke-linejoin="round"/>
<path fill-rule="evenodd" clip-rule="evenodd" d="M956.753 550.898L962.242 574.668C962.563 576.059 963.424 577.265 964.634 578.022C965.844 578.779 967.306 579.024 968.697 578.703L968.764 578.687C970.174 578.342 971.393 577.456 972.154 576.219C972.916 574.982 973.159 573.496 972.832 572.081L967.331 548.262" fill="white"/>
<path d="M956.753 550.898L962.242 574.668C962.563 576.059 963.424 577.265 964.634 578.022C965.844 578.779 967.306 579.024 968.697 578.703L968.764 578.687C970.174 578.342 971.393 577.456 972.154 576.219C972.916 574.982 973.159 573.496 972.832 572.081L967.331 548.262" stroke="#01133B" stroke-width="1.32" stroke-linecap="round" stroke-linejoin="round"/>
<path fill-rule="evenodd" clip-rule="evenodd" d="M967.337 548.261L972.785 571.852C973.123 573.315 974.028 574.585 975.301 575.381C976.575 576.177 978.112 576.435 979.576 576.098L979.597 576.093C981.071 575.746 982.349 574.833 983.155 573.551C983.96 572.268 984.228 570.72 983.9 569.242L968.825 501.188" fill="white"/>
<path d="M967.337 548.261L972.785 571.852C973.123 573.315 974.028 574.585 975.301 575.381C976.575 576.177 978.112 576.435 979.576 576.098L979.597 576.093C981.071 575.746 982.349 574.833 983.155 573.551C983.96 572.268 984.228 570.72 983.9 569.242L968.825 501.188" stroke="#01133B" stroke-width="1.32" stroke-linecap="round" stroke-linejoin="round"/>
<path d="M926.742 497.88L964.206 490.602L974.824 545.199L937.361 552.476L926.742 497.88Z" fill="white"/>
<path fill-rule="evenodd" clip-rule="evenodd" d="M1035.55 444.114L1019.04 558.541C1018.43 562.736 1018.89 567.017 1020.36 570.991C1021.84 574.965 1024.29 578.505 1027.48 581.289L1050.95 601.719L1054.04 539.839C1062.77 549.594 1077.76 550.425 1087.51 541.697C1090.61 538.921 1092.93 535.377 1094.23 531.42L1115.62 466.208L1064.81 449.164V463.519L1064.56 459.128C1064.41 456.611 1063.45 454.211 1061.81 452.293C1060.18 450.375 1057.96 449.044 1055.5 448.502L1035.55 444.114Z" fill="#EDEEF2" stroke="#01133B" stroke-width="1.32" stroke-linecap="round" stroke-linejoin="round"/>
<path d="M1062.76 460.309L1058.43 480.306M1054.06 539.801L1047.02 533.014M1048.48 446.891L1035.48 470.535L1046.52 483.348C1047.7 484.721 1048.43 486.422 1048.62 488.224C1048.81 490.026 1048.45 491.842 1047.58 493.431L1021.59 540.856" stroke="#01133B" stroke-width="1.32" stroke-linecap="round" stroke-linejoin="round"/>
<path fill-rule="evenodd" clip-rule="evenodd" d="M1060.59 446.891L1055.33 464.289L1114.45 489.431L1118.72 466.208L1060.59 446.891ZM981.305 526.291L979.83 519.777L1004.03 439.909L975.377 437.441C971.689 437.124 967.979 437.679 964.547 439.061C961.114 440.443 958.054 442.614 955.616 445.398L927.593 477.394C924.514 480.909 922.254 485.062 920.975 489.556C919.695 494.049 919.428 498.771 920.193 503.38L926.416 540.856L981.305 526.291Z" fill="#EDEEF2" stroke="#01133B" stroke-width="1.32" stroke-linecap="round" stroke-linejoin="round"/>
<path d="M972.815 486.719L980.503 522.677" stroke="#01133B" stroke-width="1.32" stroke-linecap="round" stroke-linejoin="round"/>
<path fill-rule="evenodd" clip-rule="evenodd" d="M919.02 521.539L979.83 510.661L982.978 526.21L924.958 540.856L919.02 521.539Z" fill="#EDEEF2" stroke="#01133B" stroke-width="1.32" stroke-linecap="round" stroke-linejoin="round"/>
<path d="M990.903 438.451L992.078 462.939L979.697 468.168C978.046 468.866 976.643 470.046 975.674 471.554C974.704 473.062 974.213 474.827 974.264 476.619L974.824 496.227" stroke="#01133B" stroke-width="1.32" stroke-linecap="round" stroke-linejoin="round"/>
<path fill-rule="evenodd" clip-rule="evenodd" d="M1061.27 468.02L1107.35 490.602L1108.49 486.718L1061.69 467.138L1061.27 468.02ZM932.833 539.29L933.025 540.368L975.598 531.854L974.824 528.302L932.833 539.29ZM1027.18 381.534C1017.93 380.235 1009.38 386.681 1008.08 395.933C1008.05 396.146 1008.02 396.36 1008 396.575L1007.3 403.511C1006.35 412.836 1012.93 421.241 1022.21 422.544C1031.39 423.834 1039.88 417.436 1041.17 408.257L1042.14 401.382C1043.49 391.77 1036.79 382.885 1027.18 381.534Z" fill="#01133B"/>
<path fill-rule="evenodd" clip-rule="evenodd" d="M1009.28 399.639L1007.73 410.669C1006.55 419.044 1012.39 426.787 1020.76 427.963C1029.13 429.139 1036.88 423.303 1038.06 414.928L1039.61 403.898C1040.78 395.523 1034.95 387.78 1026.58 386.604C1018.2 385.428 1010.46 391.264 1009.28 399.639Z" fill="white" stroke="#01133B" stroke-width="1.32" stroke-linecap="round" stroke-linejoin="round"/>
<path d="M1022.08 419.818C1023.45 420.01 1024.83 419.651 1025.94 418.82C1027.04 417.989 1027.77 416.755 1027.96 415.388" stroke="#01133B" stroke-width="1.32" stroke-linecap="round" stroke-linejoin="round"/>
<path fill-rule="evenodd" clip-rule="evenodd" d="M1036.98 387.209C1041.28 385.712 1044.15 387.691 1045.59 393.144C1046.72 397.463 1045.86 404.441 1039.49 415.616C1039.22 416.079 1039.41 409.572 1039.08 409.014C1036.57 404.79 1034.97 400.219 1034.28 395.301C1033.5 389.734 1034.4 387.037 1036.98 387.209Z" fill="#01133B"/>
<path fill-rule="evenodd" clip-rule="evenodd" d="M1038.84 409.265L1040.64 409.242C1041.2 409.234 1041.76 409.356 1042.27 409.598C1042.78 409.84 1043.22 410.195 1043.57 410.637C1043.92 411.078 1044.16 411.594 1044.28 412.145C1044.4 412.695 1044.39 413.265 1044.26 413.811C1043.91 415.176 1043.17 416.406 1042.12 417.34C1041.07 418.274 1039.76 418.87 1038.36 419.048L1037.45 419.164L1038.84 409.265Z" fill="white" stroke="#01133B" stroke-width="1.32" stroke-linecap="round" stroke-linejoin="round"/>
<path d="M1040.49 412.533L1040.06 415.615M1040.22 414.472L1041.82 413.51M1021.44 409.314L1020.27 413.114L1022.35 413.779" stroke="#01133B" stroke-width="1.32" stroke-linecap="round" stroke-linejoin="round"/>
<path d="M1032.01 409.612C1030.36 409.38 1029.13 408.425 1029.27 407.477C1029.4 406.529 1030.84 405.949 1032.49 406.18C1034.14 406.412 1035.37 407.367 1035.24 408.316C1035.11 409.263 1033.66 409.844 1032.01 409.612Z" stroke="#01133B" stroke-width="0.918" stroke-linecap="round" stroke-linejoin="round"/>
<path d="M1032.01 409.612C1031.02 409.473 1030.33 408.592 1030.46 407.645C1030.59 406.697 1031.5 406.041 1032.49 406.181C1033.48 406.319 1034.18 407.2 1034.04 408.147C1033.91 409.096 1033 409.751 1032.01 409.612Z" fill="#01133B"/>
<path d="M1015.47 407.288C1013.82 407.055 1012.59 406.1 1012.72 405.152C1012.86 404.205 1014.3 403.623 1015.95 403.855C1017.6 404.088 1018.83 405.043 1018.7 405.991C1018.56 406.939 1017.12 407.519 1015.47 407.288Z" stroke="#01133B" stroke-width="0.918" stroke-linecap="round" stroke-linejoin="round"/>
<path d="M1015.47 407.287C1014.48 407.148 1013.78 406.267 1013.92 405.32C1014.05 404.372 1014.96 403.716 1015.95 403.855C1016.94 403.994 1017.63 404.875 1017.5 405.823C1017.37 406.77 1016.46 407.426 1015.47 407.287Z" fill="#01133B"/>
<path fill-rule="evenodd" clip-rule="evenodd" d="M1031.98 386.434C1020.6 382.014 1011.66 381.281 1005.15 384.238C995.38 388.672 1001.1 405.462 1021.58 403.113C1035.23 401.547 1038.7 395.987 1031.98 386.434Z" fill="#01133B"/>
<path fill-rule="evenodd" clip-rule="evenodd" d="M1040.21 390.257C1039.69 385.53 1027.18 376.074 1019.72 377.403C1014.74 378.289 1015.37 383.872 1021.58 394.153C1034.35 394.707 1040.56 393.409 1040.21 390.257Z" fill="#01133B"/>
</g>
<path d="M800.075 403.402C799.827 404.473 801.502 411.234 807.251 432.768C809.02 439.475 810.621 442.569 812.443 442.939C814 443.277 816.327 442.057 816.124 441.061C815.109 436.516 810.662 413.488 810.809 413.527C810.909 413.593 813.008 416.585 815.554 420.246C822.34 430.177 832.021 442.764 836.138 447.002C843.906 454.883 852.668 460.52 860.538 462.468L863.731 463.282L864.204 466.781C865.121 473.299 868.505 478.517 874.348 482.315C877.973 484.735 884.772 486.436 888.997 486.037C894.99 485.483 900.916 481.814 904.576 476.363C907 472.737 907.136 471.793 905.249 471.955C904.08 472.074 903.344 472.622 901.432 474.777C900.176 476.245 897.925 478.348 896.38 479.425C894.101 481.05 893.185 481.393 890.913 481.531C885.99 481.9 879.25 478.372 875.675 473.574C873.871 471.091 871.749 465.701 872.27 464.782C872.395 464.463 874.121 464.022 876.121 463.734C883.712 462.627 891.516 458.245 894.985 453.213C897.099 450.014 898.309 445.359 897.215 444.321C896.628 443.733 896.548 443.594 897.14 443.87C898.399 444.442 898.174 443.088 896.439 439.761C895.267 437.409 894.546 436.589 892.78 435.568C888.804 433.289 882.87 433.623 878.09 436.383C873.17 439.223 868.007 446.037 865.742 452.724C865.197 454.46 864.565 455.938 864.426 456.019C864.287 456.099 862.416 455.324 860.239 454.232C852.794 450.555 844.876 443.38 836.339 432.667C831.897 427.009 823.07 415.042 821.945 413.094C821.49 412.306 822.966 412.505 828.933 413.944C837.342 416.075 838.645 416.188 841.068 415.346C843.324 414.538 843.079 413.257 840.39 412.028C839.231 411.522 833.455 409.664 827.54 407.886C821.671 406.081 814.697 403.863 812.095 402.892C805.219 400.309 800.694 400.51 800.075 403.402ZM885.29 438.779C886.873 439.164 888.44 442.092 888.371 444.543C888.222 448.895 883.72 454.709 878.665 456.886C876.137 457.974 872.822 458.343 872.394 457.601C871.859 456.673 874.04 450.591 875.988 447.427C878.114 444.035 881.501 440.04 883.171 439.075C883.702 438.707 884.678 438.576 885.29 438.779ZM890.746 445.336C890.523 446.021 890.45 446.001 890.354 445.191C890.225 444.647 890.37 444.255 890.589 444.313C890.809 444.372 890.884 444.824 890.746 445.336Z" fill="url(#paint0_linear_1972_9932)"/>
<g filter="url(#filter0_dddd_1972_9932)">
<g clip-path="url(#clip0_1972_9932)">
<rect width="688" height="56" transform="translate(81 1)" fill="white"/>
<path fill-rule="evenodd" clip-rule="evenodd" d="M111 35C114.314 35 117 32.3137 117 29C117 25.6863 114.314 23 111 23C107.686 23 105 25.6863 105 29C105 32.3137 107.686 35 111 35Z" fill="#ED6A5E"/>
<path fill-rule="evenodd" clip-rule="evenodd" d="M131 35C134.314 35 137 32.3137 137 29C137 25.6863 134.314 23 131 23C127.686 23 125 25.6863 125 29C125 32.3137 127.686 35 131 35Z" fill="#F4BF4F"/>
<path fill-rule="evenodd" clip-rule="evenodd" d="M151 35C154.314 35 157 32.3137 157 29C157 25.6863 154.314 23 151 23C147.686 23 145 25.6863 145 29C145 32.3137 147.686 35 151 35Z" fill="#61C554"/>
<path fill-rule="evenodd" clip-rule="evenodd" d="M195.192 21.0575C195.251 21.1156 195.297 21.1845 195.328 21.2605C195.36 21.3364 195.376 21.4178 195.376 21.5C195.376 21.5822 195.36 21.6636 195.328 21.7396C195.297 21.8155 195.251 21.8845 195.192 21.9425L188.134 29L195.192 36.0575C195.31 36.1749 195.376 36.334 195.376 36.5C195.376 36.666 195.31 36.8252 195.192 36.9425C195.075 37.0599 194.916 37.1258 194.75 37.1258C194.584 37.1258 194.425 37.0599 194.307 36.9425L186.807 29.4425C186.749 29.3845 186.703 29.3155 186.672 29.2396C186.64 29.1636 186.624 29.0822 186.624 29C186.624 28.9178 186.64 28.8364 186.672 28.7605C186.703 28.6845 186.749 28.6156 186.807 28.5575L194.307 21.0575C194.366 20.9993 194.435 20.9531 194.51 20.9216C194.586 20.8901 194.668 20.8739 194.75 20.8739C194.832 20.8739 194.914 20.8901 194.99 20.9216C195.065 20.9531 195.134 20.9993 195.192 21.0575Z" fill="#8C8C8C"/>
<path fill-rule="evenodd" clip-rule="evenodd" d="M218.807 21.0575C218.866 20.9993 218.935 20.9531 219.01 20.9216C219.086 20.8901 219.168 20.8739 219.25 20.8739C219.332 20.8739 219.414 20.8901 219.49 20.9216C219.565 20.9531 219.634 20.9993 219.692 21.0575L227.192 28.5575C227.251 28.6156 227.297 28.6845 227.328 28.7605C227.36 28.8364 227.376 28.9178 227.376 29C227.376 29.0822 227.36 29.1636 227.328 29.2396C227.297 29.3155 227.251 29.3845 227.192 29.4425L219.692 36.9425C219.575 37.0599 219.416 37.1258 219.25 37.1258C219.084 37.1258 218.925 37.0599 218.807 36.9425C218.69 36.8252 218.624 36.666 218.624 36.5C218.624 36.334 218.69 36.1749 218.807 36.0575L225.866 29L218.807 21.9425C218.749 21.8845 218.703 21.8155 218.672 21.7396C218.64 21.6636 218.624 21.5822 218.624 21.5C218.624 21.4178 218.64 21.3364 218.672 21.2605C218.703 21.1845 218.749 21.1156 218.807 21.0575Z" fill="black" fill-opacity="0.1"/>
<path d="M219.25 20.9052C219.328 20.9052 219.405 20.9202 219.477 20.9501C219.55 20.98 219.616 21.0247 219.671 21.08L227.171 28.58C227.226 28.635 227.27 28.7004 227.3 28.7723C227.33 28.8444 227.345 28.9218 227.345 28.9999C227.345 29.0779 227.33 29.1553 227.3 29.2274C227.27 29.2996 227.226 29.3656 227.171 29.4208L219.671 36.9208C219.559 37.0323 219.408 37.0946 219.25 37.0946C219.092 37.0946 218.941 37.032 218.83 36.9208C218.718 36.8093 218.655 36.6576 218.655 36.4999C218.655 36.3422 218.718 36.1914 218.83 36.08L225.889 29.0223L225.91 28.9999L225.889 28.9784L218.83 21.9208C218.775 21.8656 218.73 21.7996 218.7 21.7274C218.67 21.6554 218.655 21.5779 218.655 21.4999C218.655 21.4218 218.67 21.3444 218.7 21.2723C218.73 21.2002 218.775 21.1351 218.83 21.08C218.885 21.0247 218.95 20.98 219.022 20.9501C219.094 20.9202 219.172 20.9052 219.25 20.9052Z" stroke="black" stroke-opacity="0.1" stroke-width="0.0625"/>
<path d="M256.5 27.8C256.5 23.3196 256.5 21.0794 257.372 19.3681C258.139 17.8628 259.363 16.6389 260.868 15.8719C262.579 15 264.82 15 269.3 15H648.7C653.18 15 655.421 15 657.132 15.8719C658.637 16.6389 659.861 17.8628 660.628 19.3681C661.5 21.0794 661.5 23.3196 661.5 27.8V30.2C661.5 34.6804 661.5 36.9206 660.628 38.6319C659.861 40.1372 658.637 41.3611 657.132 42.1281C655.421 43 653.18 43 648.7 43H269.3C264.82 43 262.579 43 260.868 42.1281C259.363 41.3611 258.139 40.1372 257.372 38.6319C256.5 36.9206 256.5 34.6804 256.5 30.2V27.8Z" fill="#F1F1F1"/>
<path d="M408 29C408 28.2015 408.057 27.1783 407.803 26.3311C407.68 25.9214 407.495 25.5973 407.229 25.375C406.971 25.1586 406.591 25 406 25C405.409 25 405.029 25.1585 404.771 25.375C404.505 25.5973 404.32 25.9214 404.197 26.3311C403.943 27.1783 404 28.2015 404 29H408ZM409 29C409.552 29 410 29.4477 410 30V34.5C410 35.0523 409.552 35.5 409 35.5H403C402.448 35.5 402 35.0523 402 34.5V30C402 29.4477 402.448 29 403 29C403 28.2985 402.932 27.0717 403.24 26.0439C403.399 25.5162 403.667 24.9964 404.128 24.6094C404.596 24.2165 405.216 24 406 24C406.784 24 407.404 24.2165 407.872 24.6094C408.334 24.9964 408.601 25.5162 408.76 26.0439C409.068 27.0717 409 28.2985 409 29Z" fill="#8C8C8C"/>
<path d="M427.336 29.2727C427.336 30.2699 427.156 31.1316 426.796 31.858C426.436 32.5843 425.942 33.1444 425.314 33.5384C424.686 33.9323 423.969 34.1293 423.163 34.1293C422.356 34.1293 421.639 33.9323 421.011 33.5384C420.384 33.1444 419.89 32.5843 419.53 31.858C419.169 31.1316 418.989 30.2699 418.989 29.2727C418.989 28.2756 419.169 27.4138 419.53 26.6875C419.89 25.9612 420.384 25.401 421.011 25.0071C421.639 24.6132 422.356 24.4162 423.163 24.4162C423.969 24.4162 424.686 24.6132 425.314 25.0071C425.942 25.401 426.436 25.9612 426.796 26.6875C427.156 27.4138 427.336 28.2756 427.336 29.2727ZM426.228 29.2727C426.228 28.4541 426.091 27.7631 425.817 27.1999C425.546 26.6367 425.179 26.2105 424.714 25.9212C424.252 25.6319 423.735 25.4872 423.163 25.4872C422.59 25.4872 422.072 25.6319 421.607 25.9212C421.145 26.2105 420.778 26.6367 420.504 27.1999C420.233 27.7631 420.097 28.4541 420.097 29.2727C420.097 30.0914 420.233 30.7823 420.504 31.3455C420.778 31.9087 421.145 32.335 421.607 32.6243C422.072 32.9136 422.59 33.0582 423.163 33.0582C423.735 33.0582 424.252 32.9136 424.714 32.6243C425.179 32.335 425.546 31.9087 425.817 31.3455C426.091 30.7823 426.228 30.0914 426.228 29.2727ZM430.203 29.7344V34H429.113V26.9091H430.166V28.017H430.258C430.424 27.657 430.677 27.3677 431.015 27.1491C431.354 26.9276 431.791 26.8168 432.326 26.8168C432.807 26.8168 433.227 26.9152 433.587 27.1122C433.947 27.3061 434.227 27.6016 434.427 27.9986C434.627 28.3925 434.727 28.8911 434.727 29.4943V34H433.638V29.5682C433.638 29.0111 433.493 28.5772 433.204 28.2663C432.914 27.9524 432.517 27.7955 432.013 27.7955C431.665 27.7955 431.354 27.8709 431.08 28.0217C430.809 28.1725 430.595 28.3925 430.438 28.6818C430.281 28.9711 430.203 29.322 430.203 29.7344ZM439.691 34.1477C439.008 34.1477 438.418 33.9969 437.923 33.6953C437.43 33.3906 437.05 32.9659 436.782 32.4212C436.518 31.8733 436.385 31.2363 436.385 30.5099C436.385 29.7836 436.518 29.1435 436.782 28.5895C437.05 28.0324 437.423 27.5985 437.9 27.2876C438.38 26.9737 438.94 26.8168 439.58 26.8168C439.949 26.8168 440.314 26.8783 440.674 27.0014C441.034 27.1245 441.362 27.3246 441.657 27.6016C441.953 27.8755 442.188 28.2386 442.364 28.6911C442.539 29.1435 442.627 29.7005 442.627 30.3622V30.8239H437.161V29.8821H441.519C441.519 29.482 441.439 29.125 441.279 28.8111C441.122 28.4972 440.897 28.2494 440.605 28.0678C440.316 27.8862 439.974 27.7955 439.58 27.7955C439.146 27.7955 438.771 27.9032 438.454 28.1186C438.14 28.331 437.898 28.608 437.729 28.9496C437.56 29.2912 437.475 29.6574 437.475 30.0483V30.6761C437.475 31.2116 437.567 31.6656 437.752 32.038C437.94 32.4073 438.2 32.6889 438.532 32.8828C438.865 33.0736 439.251 33.169 439.691 33.169C439.977 33.169 440.236 33.129 440.466 33.049C440.7 32.9659 440.902 32.8428 441.071 32.6797C441.24 32.5135 441.371 32.3073 441.464 32.0611L442.516 32.3565C442.405 32.7135 442.219 33.0275 441.958 33.2983C441.696 33.5661 441.373 33.7753 440.988 33.9261C440.603 34.0739 440.171 34.1477 439.691 34.1477ZM444.432 34V24.5455H447.737C448.396 24.5455 448.939 24.6593 449.367 24.8871C449.795 25.1117 450.113 25.4149 450.323 25.7965C450.532 26.1751 450.637 26.5952 450.637 27.0568C450.637 27.4631 450.564 27.7985 450.42 28.0632C450.278 28.3279 450.09 28.5372 449.856 28.6911C449.626 28.8449 449.375 28.9588 449.104 29.0327V29.125C449.393 29.1435 449.684 29.245 449.976 29.4297C450.269 29.6143 450.513 29.879 450.71 30.2237C450.907 30.5684 451.006 30.9901 451.006 31.4886C451.006 31.9626 450.898 32.3888 450.683 32.7674C450.467 33.146 450.127 33.446 449.662 33.6676C449.198 33.8892 448.593 34 447.848 34H444.432ZM445.577 32.9844H447.848C448.596 32.9844 449.127 32.8397 449.441 32.5504C449.758 32.258 449.916 31.9041 449.916 31.4886C449.916 31.1686 449.835 30.8731 449.672 30.6023C449.509 30.3284 449.276 30.1098 448.975 29.9467C448.673 29.7805 448.316 29.6974 447.904 29.6974H445.577V32.9844ZM445.577 28.7003H447.7C448.045 28.7003 448.356 28.6326 448.633 28.4972C448.913 28.3617 449.135 28.1709 449.298 27.9247C449.464 27.6785 449.547 27.3892 449.547 27.0568C449.547 26.6413 449.402 26.2889 449.113 25.9996C448.824 25.7073 448.365 25.5611 447.737 25.5611H445.577V28.7003ZM454.826 34.1662C454.377 34.1662 453.969 34.0816 453.603 33.9123C453.236 33.7399 452.946 33.4922 452.73 33.169C452.515 32.8428 452.407 32.4489 452.407 31.9872C452.407 31.581 452.487 31.2517 452.647 30.9993C452.807 30.7438 453.021 30.5438 453.289 30.3991C453.556 30.2545 453.852 30.1468 454.175 30.076C454.501 30.0021 454.829 29.9437 455.158 29.9006C455.589 29.8452 455.939 29.8036 456.206 29.7759C456.477 29.7451 456.674 29.6944 456.797 29.6236C456.923 29.5528 456.987 29.4297 456.987 29.2543V29.2173C456.987 28.7618 456.862 28.4079 456.613 28.1555C456.366 27.9032 455.992 27.777 455.491 27.777C454.971 27.777 454.563 27.8909 454.267 28.1186C453.972 28.3464 453.764 28.5895 453.644 28.848L452.61 28.4787C452.795 28.0478 453.041 27.7124 453.349 27.4723C453.66 27.2292 453.998 27.0599 454.364 26.9645C454.734 26.866 455.097 26.8168 455.454 26.8168C455.682 26.8168 455.943 26.8445 456.239 26.8999C456.537 26.9522 456.825 27.0614 457.102 27.2276C457.382 27.3938 457.614 27.6446 457.799 27.9801C457.984 28.3156 458.076 28.7649 458.076 29.3281V34H456.987V33.0398H456.931C456.857 33.1937 456.734 33.3583 456.562 33.5337C456.389 33.7092 456.16 33.8584 455.874 33.9815C455.588 34.1046 455.238 34.1662 454.826 34.1662ZM454.992 33.1875C455.423 33.1875 455.786 33.1029 456.082 32.9336C456.38 32.7643 456.605 32.5458 456.756 32.2781C456.91 32.0103 456.987 31.7287 456.987 31.4332V30.4361C456.94 30.4915 456.839 30.5423 456.682 30.5884C456.528 30.6315 456.349 30.67 456.146 30.7038C455.946 30.7346 455.751 30.7623 455.56 30.7869C455.372 30.8085 455.22 30.8269 455.103 30.8423C454.82 30.8793 454.555 30.9393 454.309 31.0224C454.066 31.1024 453.869 31.224 453.718 31.3871C453.57 31.5471 453.496 31.7656 453.496 32.0426C453.496 32.4212 453.636 32.7074 453.917 32.9013C454.2 33.0921 454.558 33.1875 454.992 33.1875ZM465.087 28.4972L464.109 28.7741C464.047 28.611 463.956 28.4525 463.836 28.2987C463.719 28.1417 463.559 28.0124 463.356 27.9109C463.153 27.8093 462.893 27.7585 462.576 27.7585C462.142 27.7585 461.78 27.8585 461.491 28.0586C461.205 28.2556 461.062 28.5064 461.062 28.8111C461.062 29.0819 461.16 29.2958 461.357 29.4528C461.554 29.6097 461.862 29.7405 462.28 29.8452L463.333 30.1037C463.967 30.2576 464.439 30.493 464.75 30.81C465.061 31.1239 465.217 31.5286 465.217 32.0241C465.217 32.4304 465.1 32.7936 464.866 33.1136C464.635 33.4337 464.312 33.6861 463.896 33.8707C463.481 34.0554 462.998 34.1477 462.447 34.1477C461.723 34.1477 461.125 33.9908 460.651 33.6768C460.177 33.3629 459.877 32.9044 459.751 32.3011L460.785 32.0426C460.883 32.4242 461.069 32.7105 461.343 32.9013C461.62 33.0921 461.982 33.1875 462.428 33.1875C462.936 33.1875 463.339 33.0798 463.638 32.8643C463.939 32.6458 464.09 32.3842 464.09 32.0795C464.09 31.8333 464.004 31.6271 463.832 31.4609C463.659 31.2917 463.395 31.1655 463.038 31.0824L461.856 30.8054C461.206 30.6515 460.729 30.413 460.425 30.0898C460.123 29.7636 459.972 29.3558 459.972 28.8665C459.972 28.4664 460.085 28.1125 460.309 27.8047C460.537 27.4969 460.846 27.2553 461.237 27.0799C461.631 26.9045 462.077 26.8168 462.576 26.8168C463.278 26.8168 463.829 26.9706 464.229 27.2784C464.632 27.5862 464.918 27.9924 465.087 28.4972ZM469.83 34.1477C469.146 34.1477 468.557 33.9969 468.061 33.6953C467.569 33.3906 467.189 32.9659 466.921 32.4212C466.656 31.8733 466.524 31.2363 466.524 30.5099C466.524 29.7836 466.656 29.1435 466.921 28.5895C467.189 28.0324 467.561 27.5985 468.038 27.2876C468.518 26.9737 469.079 26.8168 469.719 26.8168C470.088 26.8168 470.453 26.8783 470.813 27.0014C471.173 27.1245 471.501 27.3246 471.796 27.6016C472.092 27.8755 472.327 28.2386 472.502 28.6911C472.678 29.1435 472.766 29.7005 472.766 30.3622V30.8239H467.3V29.8821H471.658C471.658 29.482 471.578 29.125 471.418 28.8111C471.261 28.4972 471.036 28.2494 470.744 28.0678C470.454 27.8862 470.113 27.7955 469.719 27.7955C469.285 27.7955 468.909 27.9032 468.592 28.1186C468.278 28.331 468.037 28.608 467.868 28.9496C467.698 29.2912 467.614 29.6574 467.614 30.0483V30.6761C467.614 31.2116 467.706 31.6656 467.891 32.038C468.078 32.4073 468.338 32.6889 468.671 32.8828C469.003 33.0736 469.389 33.169 469.83 33.169C470.116 33.169 470.374 33.129 470.605 33.049C470.839 32.9659 471.041 32.8428 471.21 32.6797C471.379 32.5135 471.51 32.3073 471.602 32.0611L472.655 32.3565C472.544 32.7135 472.358 33.0275 472.096 33.2983C471.835 33.5661 471.511 33.7753 471.127 33.9261C470.742 34.0739 470.31 34.1477 469.83 34.1477ZM477.599 34.1293C476.99 34.1293 476.446 34.0246 475.969 33.8153C475.496 33.6061 475.118 33.3152 474.838 32.9428C474.561 32.5674 474.411 32.1319 474.386 31.6364H475.549C475.574 31.9411 475.679 32.2042 475.863 32.4258C476.048 32.6443 476.29 32.8136 476.588 32.9336C476.887 33.0536 477.217 33.1136 477.581 33.1136C477.987 33.1136 478.347 33.0429 478.661 32.9013C478.975 32.7597 479.221 32.5627 479.4 32.3104C479.578 32.058 479.667 31.7656 479.667 31.4332C479.667 31.0855 479.581 30.7792 479.409 30.5146C479.236 30.2468 478.984 30.0375 478.652 29.8867C478.319 29.7359 477.913 29.6605 477.433 29.6605H476.676V28.6449H477.433C477.808 28.6449 478.138 28.5772 478.421 28.4418C478.707 28.3063 478.93 28.1155 479.09 27.8693C479.253 27.6231 479.335 27.3338 479.335 27.0014C479.335 26.6813 479.264 26.4028 479.123 26.1658C478.981 25.9289 478.781 25.7442 478.522 25.6119C478.267 25.4795 477.965 25.4134 477.618 25.4134C477.291 25.4134 476.984 25.4734 476.694 25.5934C476.408 25.7103 476.174 25.8812 475.993 26.1058C475.811 26.3274 475.712 26.5952 475.697 26.9091H474.589C474.608 26.4136 474.757 25.9796 475.037 25.6072C475.317 25.2318 475.683 24.9394 476.136 24.7301C476.591 24.5208 477.091 24.4162 477.636 24.4162C478.221 24.4162 478.722 24.5347 479.141 24.7717C479.56 25.0056 479.881 25.3149 480.106 25.6996C480.33 26.0843 480.443 26.4998 480.443 26.946C480.443 27.4785 480.303 27.9324 480.023 28.3079C479.746 28.6834 479.369 28.9434 478.892 29.0881V29.1619C479.489 29.2604 479.955 29.5143 480.29 29.9237C480.626 30.3299 480.794 30.8331 480.794 31.4332C480.794 31.9472 480.654 32.4089 480.374 32.8182C480.097 33.2244 479.718 33.5445 479.238 33.7784C478.758 34.0123 478.212 34.1293 477.599 34.1293ZM483.202 34.0739C482.975 34.0739 482.779 33.9923 482.616 33.8292C482.453 33.6661 482.371 33.4706 482.371 33.2429C482.371 33.0152 482.453 32.8197 482.616 32.6566C482.779 32.4935 482.975 32.4119 483.202 32.4119C483.43 32.4119 483.626 32.4935 483.789 32.6566C483.952 32.8197 484.033 33.0152 484.033 33.2429C484.033 33.3937 483.995 33.5322 483.918 33.6584C483.844 33.7846 483.744 33.8861 483.618 33.9631C483.495 34.0369 483.356 34.0739 483.202 34.0739ZM488.724 34.1293C488.028 34.1293 487.436 33.94 486.946 33.5614C486.457 33.1798 486.083 32.6274 485.824 31.9041C485.566 31.1778 485.437 30.3007 485.437 29.2727C485.437 28.2509 485.566 27.3784 485.824 26.6552C486.086 25.9289 486.462 25.3749 486.951 24.9933C487.443 24.6085 488.034 24.4162 488.724 24.4162C489.413 24.4162 490.002 24.6085 490.492 24.9933C490.984 25.3749 491.36 25.9289 491.618 26.6552C491.88 27.3784 492.011 28.2509 492.011 29.2727C492.011 30.3007 491.881 31.1778 491.623 31.9041C491.364 32.6274 490.99 33.1798 490.501 33.5614C490.012 33.94 489.419 34.1293 488.724 34.1293ZM488.724 33.1136C489.413 33.1136 489.949 32.7812 490.33 32.1165C490.712 31.4517 490.903 30.5038 490.903 29.2727C490.903 28.4541 490.815 27.757 490.639 27.1815C490.467 26.6059 490.218 26.1674 489.892 25.8658C489.568 25.5642 489.179 25.4134 488.724 25.4134C488.04 25.4134 487.506 25.7504 487.122 26.4244C486.737 27.0953 486.545 28.0447 486.545 29.2727C486.545 30.0914 486.631 30.7869 486.803 31.3594C486.976 31.9318 487.223 32.3673 487.546 32.6658C487.873 32.9644 488.265 33.1136 488.724 33.1136Z" fill="#151515"/>
<g clip-path="url(#clip1_1972_9932)">
<path fill-rule="evenodd" clip-rule="evenodd" d="M637.67 27.706C637.863 26.9861 638.214 26.3185 638.698 25.7519C639.182 25.1852 639.787 24.734 640.467 24.431C641.148 24.1281 641.888 23.9813 642.633 24.0011C643.378 24.021 644.109 24.2072 644.773 24.546C644.832 24.5758 644.895 24.5938 644.961 24.5989C645.026 24.604 645.092 24.5962 645.155 24.5759C645.217 24.5555 645.275 24.5231 645.325 24.4804C645.375 24.4377 645.416 24.3855 645.446 24.327C645.476 24.2684 645.494 24.2045 645.499 24.139C645.504 24.0735 645.496 24.0076 645.476 23.9451C645.456 23.8826 645.423 23.8247 645.38 23.7748C645.338 23.7248 645.286 23.6838 645.227 23.654C643.964 23.0095 642.513 22.8332 641.133 23.1563C639.752 23.4794 638.53 24.2811 637.684 25.4191C636.839 26.5572 636.423 27.9581 636.512 29.3733C636.6 30.7885 637.187 32.1266 638.168 33.1503C639.15 34.174 640.462 34.8171 641.872 34.9655C643.282 35.1139 644.699 34.758 645.872 33.961C647.045 33.1641 647.898 31.9774 648.279 30.6117C648.66 29.2459 648.545 27.7892 647.955 26.5C647.9 26.3793 647.799 26.2855 647.674 26.2393C647.55 26.1931 647.412 26.1982 647.292 26.2535C647.171 26.3088 647.077 26.4097 647.031 26.5342C646.985 26.6586 646.99 26.7963 647.045 26.917C647.379 27.6464 647.533 28.4456 647.494 29.2471C647.454 30.0485 647.222 30.8286 646.817 31.5215C646.413 32.2144 645.847 32.7998 645.169 33.2281C644.49 33.6565 643.719 33.9152 642.919 33.9825C642.119 34.0498 641.315 33.9237 640.575 33.6148C639.834 33.3058 639.179 32.8232 638.664 32.2077C638.149 31.5922 637.79 30.8618 637.617 30.0782C637.444 29.2947 637.462 28.481 637.67 27.706Z" fill="#8C8C8C"/>
<path fill-rule="evenodd" clip-rule="evenodd" d="M642.647 21.146C642.741 21.0523 642.868 20.9996 643.001 20.9996C643.133 20.9996 643.26 21.0523 643.354 21.146L645.854 23.646C645.901 23.6925 645.938 23.7476 645.963 23.8084C645.988 23.8691 646.001 23.9343 646.001 24C646.001 24.0658 645.988 24.1309 645.963 24.1917C645.938 24.2524 645.901 24.3076 645.854 24.354L643.354 26.854C643.308 26.9004 643.252 26.9373 643.192 26.9624C643.131 26.9875 643.066 27.0004 643 27.0003C642.934 27.0003 642.869 26.9873 642.809 26.9621C642.748 26.9369 642.693 26.9 642.647 26.8535C642.553 26.7596 642.5 26.6324 642.5 26.4997C642.5 26.434 642.513 26.3689 642.538 26.3083C642.564 26.2476 642.601 26.1924 642.647 26.146L644.793 24L642.647 21.854C642.6 21.8076 642.564 21.7524 642.538 21.6917C642.513 21.6309 642.5 21.5658 642.5 21.5C642.5 21.4343 642.513 21.3691 642.538 21.3084C642.564 21.2476 642.6 21.1925 642.647 21.146Z" fill="#8C8C8C"/>
</g>
<path fill-rule="evenodd" clip-rule="evenodd" d="M690.808 24.4425C690.866 24.5007 690.935 24.5469 691.01 24.5784C691.086 24.6099 691.168 24.6261 691.25 24.6261C691.332 24.6261 691.414 24.6099 691.49 24.5784C691.565 24.5469 691.634 24.5007 691.693 24.4425L695 21.1338L698.308 24.4425C698.366 24.5006 698.435 24.5467 698.511 24.5782C698.586 24.6096 698.668 24.6258 698.75 24.6258C698.832 24.6258 698.914 24.6096 698.989 24.5782C699.065 24.5467 699.134 24.5006 699.193 24.4425C699.251 24.3844 699.297 24.3154 699.328 24.2395C699.36 24.1636 699.376 24.0822 699.376 24C699.376 23.9178 699.36 23.8365 699.328 23.7605C699.297 23.6846 699.251 23.6156 699.193 23.5575L695.443 19.8075C695.384 19.7493 695.315 19.7031 695.24 19.6716C695.164 19.6401 695.082 19.6239 695 19.6239C694.918 19.6239 694.836 19.6401 694.76 19.6716C694.685 19.7031 694.616 19.7493 694.558 19.8075L690.808 23.5575C690.749 23.6156 690.703 23.6845 690.672 23.7605C690.64 23.8364 690.624 23.9178 690.624 24C690.624 24.0822 690.64 24.1636 690.672 24.2396C690.703 24.3155 690.749 24.3845 690.808 24.4425Z" fill="#8C8C8C"/>
<path fill-rule="evenodd" clip-rule="evenodd" d="M695 33.375C695.166 33.375 695.325 33.3092 695.442 33.1919C695.559 33.0747 695.625 32.9158 695.625 32.75V21.5C695.625 21.3342 695.559 21.1753 695.442 21.0581C695.325 20.9408 695.166 20.875 695 20.875C694.834 20.875 694.675 20.9408 694.558 21.0581C694.441 21.1753 694.375 21.3342 694.375 21.5V32.75C694.375 32.9158 694.441 33.0747 694.558 33.1919C694.675 33.3092 694.834 33.375 695 33.375Z" fill="#8C8C8C"/>
<path fill-rule="evenodd" clip-rule="evenodd" d="M688.125 36.5C688.125 36.9973 688.323 37.4742 688.674 37.8258C689.026 38.1775 689.503 38.375 690 38.375H700C700.497 38.375 700.974 38.1775 701.326 37.8258C701.677 37.4742 701.875 36.9973 701.875 36.5V27.75C701.875 27.2527 701.677 26.7758 701.326 26.4242C700.974 26.0725 700.497 25.875 700 25.875H698.125C697.959 25.875 697.8 25.9408 697.683 26.0581C697.566 26.1753 697.5 26.3342 697.5 26.5C697.5 26.6658 697.566 26.8247 697.683 26.9419C697.8 27.0592 697.959 27.125 698.125 27.125H700C700.166 27.125 700.325 27.1908 700.442 27.3081C700.559 27.4253 700.625 27.5842 700.625 27.75V36.5C700.625 36.6658 700.559 36.8247 700.442 36.9419C700.325 37.0592 700.166 37.125 700 37.125H690C689.834 37.125 689.675 37.0592 689.558 36.9419C689.441 36.8247 689.375 36.6658 689.375 36.5V27.75C689.375 27.5842 689.441 27.4253 689.558 27.3081C689.675 27.1908 689.834 27.125 690 27.125H691.875C692.041 27.125 692.2 27.0592 692.317 26.9419C692.434 26.8247 692.5 26.6658 692.5 26.5C692.5 26.3342 692.434 26.1753 692.317 26.0581C692.2 25.9408 692.041 25.875 691.875 25.875H690C689.503 25.875 689.026 26.0725 688.674 26.4242C688.323 26.7758 688.125 27.2527 688.125 27.75V36.5Z" fill="#8C8C8C"/>
<path d="M735 22.25C735.199 22.25 735.39 22.3291 735.53 22.4697C735.671 22.6104 735.75 22.8011 735.75 23V28.25H741C741.199 28.25 741.39 28.3291 741.53 28.4697C741.671 28.6104 741.75 28.8011 741.75 29C741.75 29.1989 741.671 29.3896 741.53 29.5303C741.39 29.6709 741.199 29.75 741 29.75H735.75V35C735.75 35.1989 735.671 35.3896 735.53 35.5303C735.39 35.6709 735.199 35.75 735 35.75C734.801 35.75 734.61 35.6709 734.47 35.5303C734.329 35.3896 734.25 35.1989 734.25 35V29.75H729C728.801 29.75 728.61 29.6709 728.47 29.5303C728.329 29.3896 728.25 29.1989 728.25 29C728.25 28.8011 728.329 28.6104 728.47 28.4697C728.61 28.3291 728.801 28.25 729 28.25H734.25V23C734.25 22.8011 734.329 22.6104 734.47 22.4697C734.61 22.3291 734.801 22.25 735 22.25Z" fill="#8C8C8C"/>
<line x1="81" y1="56.5" x2="769" y2="56.5" stroke="black" stroke-opacity="0.1"/>
<rect x="81" y="57" width="688" height="380" fill="white"/>
</g>
<rect x="81" y="1" width="688" height="436" rx="16" stroke="black" stroke-opacity="0.1"/>
</g>
<rect x="365" y="483" width="126" height="48" rx="8" fill="#4FAE7B"/>
<path d="M395.138 498.168L396.398 498.6C396.02 499.32 395.606 499.968 395.174 500.544H400.034V501.804H383.924V500.544H388.856C388.496 499.788 388.118 499.122 387.686 498.51L389.054 498.276C389.45 498.942 389.846 499.698 390.242 500.544H393.752C394.274 499.788 394.742 498.996 395.138 498.168ZM390.17 514.692H388.748L388.406 513.414L389.756 513.468C390.224 513.468 390.458 513.162 390.458 512.568V510.894H386.444V514.836H385.184V503.262H391.718V512.856C391.718 514.08 391.196 514.692 390.17 514.692ZM386.444 509.742H390.458V507.69H386.444V509.742ZM386.444 506.538H390.458V504.468H386.444V506.538ZM397.172 514.638H394.778L394.508 513.396C395.264 513.45 396.002 513.486 396.722 513.486C397.226 513.486 397.478 513.198 397.478 512.658V502.758H398.774V512.982C398.774 514.08 398.234 514.638 397.172 514.638ZM393.734 504.108H394.994V511.866H393.734V504.108ZM405.47 498.33L406.604 498.87C405.686 500.796 404.174 502.506 402.086 504L401.708 502.722C403.436 501.426 404.678 499.968 405.47 498.33ZM405.938 502.902L407.054 503.406C406.622 504.324 406.064 505.188 405.416 505.998V514.692H404.156V507.366C403.58 507.906 402.932 508.446 402.248 508.95L401.87 507.708C403.724 506.304 405.074 504.702 405.938 502.902ZM407.252 501.408H412.058C411.662 500.454 411.212 499.536 410.69 498.654L411.95 498.312C412.526 499.338 412.958 500.274 413.246 501.138L412.544 501.408H417.782V502.65H413.192V507.042H417.314V508.248H413.192V513.108H418.142V514.35H406.64V513.108H411.878V508.248H407.702V507.042H411.878V502.65H407.252V501.408ZM426.71 505.224H422.876V512.658C422.876 513.072 423.092 513.288 423.56 513.288H426.998C427.61 513.288 428.006 513.126 428.15 512.838C428.312 512.496 428.438 511.83 428.51 510.84L429.734 511.236C429.608 512.766 429.374 513.702 429.05 514.062C428.762 514.35 428.186 514.494 427.34 514.494H423.056C422.048 514.494 421.562 514.026 421.562 513.108V504.072H427.97V508.86C427.952 509.832 427.448 510.336 426.458 510.372C425.774 510.372 425.108 510.354 424.478 510.318L424.154 509.094C424.838 509.166 425.45 509.202 425.99 509.202C426.458 509.202 426.71 508.95 426.71 508.464V505.224ZM424.424 498.456H425.378C426.944 500.112 428.456 501.858 429.896 503.694L429.05 504.594C427.502 502.542 426.152 500.904 425 499.68C423.668 501.66 422.138 503.478 420.374 505.134L419.618 504.09C421.382 502.488 422.984 500.616 424.424 498.456ZM430.958 499.878H432.218V511.092H430.958V499.878ZM433.964 514.638H431.174L430.886 513.396C431.804 513.45 432.686 513.486 433.514 513.486C433.964 513.486 434.198 513.216 434.198 512.676V498.348H435.494V513C435.494 514.08 434.972 514.638 433.964 514.638ZM452.72 505.674H448.868V507.114H453.08V508.176H448.868V509.67H453.602V510.768H448.868V512.55H447.608V510.768H443.522V509.67H447.608V508.176H444.08V507.114H447.608V505.674H444.458V504.594H447.608V503.154H443.576V502.074H447.608V500.652H444.458V499.572H447.608V498.258H448.868V499.572H452.72V502.074H453.926V503.154H452.72V505.674ZM448.868 500.652V502.074H451.46V500.652H448.868ZM448.868 503.154V504.594H451.46V503.154H448.868ZM448.022 513.198C450.002 513.198 452.036 513.162 454.124 513.108L453.908 514.35H448.58C445.34 514.35 443.018 513.882 441.614 512.946C441.38 512.766 441.182 512.604 441.002 512.424C440.426 513.27 439.706 514.008 438.878 514.638L438.032 513.54C438.878 512.928 439.58 512.208 440.156 511.38C439.454 510.372 438.878 509.094 438.446 507.546L439.526 507.15C439.886 508.428 440.318 509.472 440.786 510.264C441.398 508.986 441.758 507.492 441.866 505.782H438.536V504.774C439.58 503.442 440.552 502.002 441.416 500.454H438.464V499.23H442.874V500.292C441.974 501.948 441.074 503.37 440.21 504.594H443.036V505.368C442.964 507.744 442.478 509.76 441.614 511.416C441.902 511.722 442.19 511.956 442.496 512.136C443.72 512.82 445.574 513.162 448.022 513.198Z" fill="white"/>
<path fill-rule="evenodd" clip-rule="evenodd" d="M469.485 514.97L468.071 513.556L475.142 506.485L468.071 499.414L469.485 498L477.263 505.778C477.263 505.778 477.263 505.778 476.556 506.485L477.263 505.778L477.971 506.485L469.485 514.97Z" fill="white"/>
<rect x="157" y="179" width="363" height="28" rx="14" fill="#F2F3F5"/>
<rect x="157" y="343" width="539" height="28" rx="14" fill="#F2F3F5"/>
<g clip-path="url(#clip2_1972_9932)">
<path fill-rule="evenodd" clip-rule="evenodd" d="M677.254 355.714L676.546 355.007L673.011 358.543L669.475 355.007L668.768 355.714L672.657 359.603C672.657 359.603 672.657 359.603 673.011 359.25L672.657 359.603L673.011 359.957L677.254 355.714Z" fill="#4E5969"/>
</g>
<g clip-path="url(#clip3_1972_9932)">
<path fill-rule="evenodd" clip-rule="evenodd" d="M161.418 149.1C161.529 149.1 161.618 149.189 161.618 149.3L161.617 151.345L163.454 150.748C163.559 150.714 163.672 150.772 163.706 150.877L163.953 151.637C163.987 151.743 163.93 151.855 163.825 151.89L161.974 152.49L163.199 154.176C163.264 154.266 163.245 154.391 163.155 154.456L162.508 154.926C162.419 154.991 162.294 154.971 162.229 154.882L160.962 153.138L159.689 154.891C159.624 154.98 159.499 155 159.41 154.935L158.762 154.465C158.673 154.4 158.653 154.275 158.718 154.185L159.973 152.456L158.169 151.87C158.063 151.835 158.006 151.723 158.04 151.618L158.287 150.857C158.321 150.752 158.434 150.694 158.539 150.728L160.417 151.338L160.418 149.3C160.418 149.189 160.508 149.1 160.618 149.1H161.418Z" fill="#F53F3F"/>
<path d="M180.326 148.628V155.25H179.318V149.608H172.626V155.278H171.618V148.628H175.16C175.3 148.138 175.398 147.634 175.468 147.102H169.84V146.15H182.16V147.102H176.532C176.448 147.634 176.35 148.152 176.21 148.628H180.326ZM176.924 155.278C178.73 155.894 180.382 156.622 181.866 157.49L181.25 158.442C179.654 157.448 178.03 156.664 176.364 156.104L176.924 155.278ZM175.482 150.448H176.518V152.674C176.462 154.214 175.958 155.432 175.034 156.356C174.138 157.21 172.668 157.868 170.624 158.344L170.05 157.448C172.08 157 173.494 156.412 174.292 155.67C175.048 154.9 175.44 153.906 175.482 152.674V150.448ZM183.77 146.122H196.23V147.102H190.616C190.504 147.718 190.322 148.32 190.098 148.894H195.474V158.442H194.508V157.742H185.534V158.442H184.568V148.894H189.076C189.3 148.306 189.482 147.718 189.594 147.102H183.77V146.122ZM185.534 156.818H187.466V149.804H185.534V156.818ZM188.404 156.818H191.596V155.026H188.404V156.818ZM192.534 156.818H194.508V149.804H192.534V156.818ZM188.404 154.144H191.596V152.436H188.404V154.144ZM188.404 151.54H191.596V149.804H188.404V151.54ZM204.518 150.224V151.834H203.482V149.286H203.398C202.558 150.546 200.962 151.638 198.624 152.548L198.078 151.68C200.248 150.98 201.732 150.182 202.516 149.286H198.092V148.348H203.482V145.548H204.518V148.348H209.908V149.286H204.518V149.538C206.394 150.098 208.13 150.756 209.698 151.526L209.152 152.366C207.64 151.484 206.086 150.77 204.518 150.224ZM203.818 154.816C203.538 155.362 203.202 155.852 202.782 156.272C201.872 157.168 200.346 157.868 198.204 158.386L197.812 157.448C199.73 157.028 201.116 156.426 201.97 155.642C202.306 155.32 202.6 154.956 202.824 154.55H197.98V153.612H203.23C203.37 153.192 203.468 152.758 203.524 152.282H204.56C204.504 152.758 204.406 153.206 204.294 153.612H210.02V154.55H204.7C206.016 155.964 207.85 156.944 210.216 157.504L209.712 158.4C207.108 157.714 205.134 156.524 203.818 154.816ZM200.584 145.758C200.99 146.318 201.354 146.976 201.662 147.704L200.808 147.928C200.528 147.284 200.164 146.654 199.716 146.052L200.584 145.758ZM207.374 145.73L208.256 145.954C207.962 146.71 207.57 147.368 207.094 147.956L206.254 147.648C206.688 147.144 207.066 146.5 207.374 145.73ZM212.302 146.192H218.882V147.088H217.468V149.188H219.19V150.112H217.468V153.192H216.488V150.112H214.654C214.5 151.554 213.968 152.632 213.044 153.36L212.288 152.702C213.072 152.114 213.534 151.26 213.674 150.112H211.938V149.188H213.73V147.088H212.302V146.192ZM214.696 147.088V149.188H216.488V147.088H214.696ZM220.016 146.514H220.982V151.33H220.016V146.514ZM212.638 154.564H217.552V153.346H218.56V154.564H223.376V155.488H218.56V157.126H224.146V158.05H211.854V157.126H217.552V155.488H212.638V154.564ZM222.396 153.318H220.52L220.31 152.366C220.926 152.408 221.5 152.436 222.06 152.436C222.382 152.436 222.55 152.212 222.55 151.792V145.744H223.516V152.03C223.516 152.884 223.138 153.318 222.396 153.318Z" fill="#4E5969"/>
</g>
<g clip-path="url(#clip4_1972_9932)">
<path fill-rule="evenodd" clip-rule="evenodd" d="M546.418 149.1C546.529 149.1 546.618 149.189 546.618 149.3L546.617 151.345L548.454 150.748C548.559 150.714 548.672 150.772 548.706 150.877L548.953 151.637C548.987 151.743 548.93 151.855 548.825 151.89L546.974 152.49L548.199 154.176C548.264 154.266 548.245 154.391 548.155 154.456L547.508 154.926C547.419 154.991 547.294 154.971 547.229 154.882L545.962 153.138L544.689 154.891C544.624 154.98 544.499 155 544.41 154.935L543.762 154.465C543.673 154.4 543.653 154.275 543.718 154.185L544.973 152.456L543.169 151.87C543.063 151.835 543.006 151.723 543.04 151.618L543.287 150.857C543.321 150.752 543.434 150.694 543.539 150.728L545.417 151.338L545.418 149.3C545.418 149.189 545.508 149.1 545.618 149.1H546.418Z" fill="#F53F3F"/>
<path d="M554.924 146.486H558.144V145.576H559.124V146.486H562.876V145.562H563.856V146.486H567.034V147.382H563.856V148.348H562.876V147.382H559.124V148.418H558.144V147.382H554.924V146.486ZM564.85 150L565.69 150.406C565.2 151.274 564.626 152.044 563.954 152.688L563.212 152.142C563.842 151.54 564.388 150.826 564.85 150ZM560.916 150.322C561.196 150.826 561.434 151.4 561.644 152.058L560.748 152.282C560.566 151.694 560.342 151.12 560.076 150.588L560.916 150.322ZM557.318 150.504C557.696 151.148 558.032 151.848 558.312 152.59L557.486 152.954C557.178 152.142 556.828 151.414 556.464 150.784L557.318 150.504ZM565.62 148.446L566.11 149.272C563.576 149.748 560.216 150 556.016 150L555.708 149.062C559.684 149.062 562.988 148.852 565.62 148.446ZM555.134 153.528H560.51V152.632H561.49V153.528H566.866V154.466H562.456C563.464 155.488 565.088 156.398 567.328 157.196L566.642 158.078C564.262 156.986 562.568 155.782 561.588 154.466H561.49V158.4H560.51V154.466H560.412C559.348 155.922 557.64 157.126 555.274 158.078L554.714 157.14C556.898 156.44 558.494 155.544 559.53 154.466H555.134V153.528ZM570.114 147.746H576.148C576.596 147.046 577.002 146.276 577.352 145.464L578.332 145.814C577.996 146.528 577.618 147.172 577.198 147.746H579.886V153.5H575.504V154.83H581.216V155.782H575.504V158.442H574.496V155.782H568.784V154.83H574.496V153.5H570.114V147.746ZM578.906 152.604V151.036H575.504V152.604H578.906ZM574.496 152.604V151.036H571.094V152.604H574.496ZM571.094 150.168H574.496V148.628H571.094V150.168ZM575.504 148.628V150.168H578.906V148.628H575.504ZM572.592 145.534C573.054 146.066 573.488 146.668 573.908 147.312L573.068 147.732C572.648 147.06 572.214 146.472 571.738 145.94L572.592 145.534ZM587.656 147.382L588.552 147.494C588.44 147.76 588.328 148.012 588.188 148.264H591.884V148.964C591.492 149.706 590.904 150.364 590.106 150.924C591.044 151.372 592.108 151.75 593.312 152.03L592.78 152.786C591.422 152.422 590.26 151.974 589.28 151.428C588.202 152.002 586.872 152.464 585.276 152.814L584.828 152.002C586.27 151.75 587.488 151.386 588.468 150.924C587.922 150.56 587.446 150.168 587.054 149.748C586.634 150.14 586.158 150.504 585.626 150.84L585.066 150.112C586.34 149.356 587.208 148.446 587.656 147.382ZM589.28 150.49C589.966 150.07 590.498 149.58 590.876 149.02H587.698C587.642 149.076 587.6 149.132 587.572 149.188C588.062 149.664 588.636 150.098 589.28 150.49ZM586.508 154.256C588.37 154.606 590.162 155.11 591.87 155.754L591.534 156.566C589.798 155.894 587.992 155.376 586.116 155.012L586.508 154.256ZM587.964 152.296C589.056 152.66 590.064 153.108 590.974 153.612L590.498 154.34C589.532 153.752 588.538 153.304 587.502 152.968L587.964 152.296ZM594.712 146.178V158.4H593.732V157.826H584.268V158.4H583.288V146.178H594.712ZM584.268 156.93H593.732V147.074H584.268V156.93ZM598.674 145.604H599.668V148.25H601.292V149.216H599.668V150.294C600.354 150.994 601.04 151.778 601.726 152.632L601.152 153.486C600.578 152.604 600.088 151.904 599.668 151.372V158.386H598.674V151.414C598.226 152.73 597.652 153.934 596.952 155.026L596.518 153.934C597.526 152.562 598.24 150.98 598.674 149.216H596.966V148.25H598.674V145.604ZM602.804 151.932L603.728 152.142C603.28 154.102 602.622 155.782 601.782 157.21L600.914 156.65C601.782 155.236 602.412 153.668 602.804 151.932ZM607.872 151.862C608.46 153.444 608.964 155.138 609.384 156.93L608.474 157.336C608.012 155.39 607.508 153.668 606.962 152.156L607.872 151.862ZM604.736 158.246H603.308L603.112 157.308C603.56 157.336 603.98 157.364 604.386 157.364C604.764 157.364 604.96 157.154 604.96 156.748V150.77H601.544V149.804H609.398V150.77H605.968V157C605.968 157.826 605.548 158.246 604.736 158.246ZM602.286 146.402H608.67V147.354H602.286V146.402Z" fill="#4E5969"/>
</g>
<rect x="157" y="261" width="539" height="28" rx="14" fill="#F2F3F5"/>
<g clip-path="url(#clip5_1972_9932)">
<path fill-rule="evenodd" clip-rule="evenodd" d="M161.418 231.1C161.529 231.1 161.618 231.189 161.618 231.3L161.617 233.345L163.454 232.748C163.559 232.714 163.672 232.772 163.706 232.877L163.953 233.637C163.987 233.743 163.93 233.855 163.825 233.89L161.974 234.49L163.199 236.176C163.264 236.266 163.245 236.391 163.155 236.456L162.508 236.926C162.419 236.991 162.294 236.971 162.229 236.882L160.962 235.138L159.689 236.891C159.624 236.98 159.499 237 159.41 236.935L158.762 236.465C158.673 236.4 158.653 236.275 158.718 236.185L159.973 234.456L158.169 233.87C158.063 233.835 158.006 233.723 158.04 233.618L158.287 232.857C158.321 232.752 158.434 232.694 158.539 232.728L160.417 233.338L160.418 231.3C160.418 231.189 160.508 231.1 160.618 231.1H161.418Z" fill="#F53F3F"/>
<path d="M180.326 230.628V237.25H179.318V231.608H172.626V237.278H171.618V230.628H175.16C175.3 230.138 175.398 229.634 175.468 229.102H169.84V228.15H182.16V229.102H176.532C176.448 229.634 176.35 230.152 176.21 230.628H180.326ZM176.924 237.278C178.73 237.894 180.382 238.622 181.866 239.49L181.25 240.442C179.654 239.448 178.03 238.664 176.364 238.104L176.924 237.278ZM175.482 232.448H176.518V234.674C176.462 236.214 175.958 237.432 175.034 238.356C174.138 239.21 172.668 239.868 170.624 240.344L170.05 239.448C172.08 239 173.494 238.412 174.292 237.67C175.048 236.9 175.44 235.906 175.482 234.674V232.448ZM183.77 228.122H196.23V229.102H190.616C190.504 229.718 190.322 230.32 190.098 230.894H195.474V240.442H194.508V239.742H185.534V240.442H184.568V230.894H189.076C189.3 230.306 189.482 229.718 189.594 229.102H183.77V228.122ZM185.534 238.818H187.466V231.804H185.534V238.818ZM188.404 238.818H191.596V237.026H188.404V238.818ZM192.534 238.818H194.508V231.804H192.534V238.818ZM188.404 236.144H191.596V234.436H188.404V236.144ZM188.404 233.54H191.596V231.804H188.404V233.54ZM201.97 239.532V240.358H200.962V235.416C200.094 235.696 199.184 235.948 198.204 236.186L197.672 235.22C200.094 234.716 202.11 234.072 203.72 233.26C203.104 232.742 202.264 232.182 201.2 231.58L202.068 231.034C203.132 231.692 203.972 232.28 204.574 232.798C206.002 231.944 207.038 230.95 207.696 229.802H202.516C201.564 230.684 200.36 231.468 198.876 232.168L198.204 231.3C200.598 230.278 202.208 229.018 203.048 227.534L204.154 227.66C203.93 228.08 203.678 228.472 203.398 228.85H208.858V229.746C207.85 231.664 206.044 233.232 203.412 234.45H209.25V240.358H208.228V239.532H201.97ZM208.228 238.552V235.388H201.97V238.552H208.228ZM211.812 231.398H213.856V229.396C213.268 229.48 212.68 229.564 212.064 229.62L211.868 228.668C213.604 228.514 215.13 228.234 216.474 227.814L216.824 228.766C216.208 228.934 215.536 229.102 214.822 229.242V231.398H216.544V232.364H214.822V233.134C215.522 233.75 216.208 234.422 216.908 235.178L216.348 236.018C215.76 235.178 215.242 234.52 214.822 234.03V240.358H213.856V234.002C213.38 235.374 212.722 236.62 211.91 237.74L211.476 236.62C212.54 235.374 213.296 233.96 213.744 232.364H211.812V231.398ZM219.764 240.33H218.42L218.21 239.364C218.63 239.406 219.036 239.434 219.414 239.434C219.75 239.434 219.932 239.224 219.932 238.818V231.664H220.968V239.07C220.968 239.91 220.562 240.33 219.764 240.33ZM218 233.68L218.938 233.862C218.532 235.724 217.958 237.334 217.216 238.692L216.348 238.146C217.104 236.802 217.65 235.304 218 233.68ZM222.788 233.582C223.418 235.094 223.964 236.704 224.426 238.426L223.502 238.832C223.012 236.97 222.466 235.318 221.878 233.876L222.788 233.582ZM218.952 230.474C218.56 231.356 218.07 232.154 217.496 232.854L216.88 232.056C217.832 230.824 218.49 229.312 218.826 227.52L219.82 227.646C219.694 228.29 219.526 228.906 219.33 229.494H223.964V230.152C223.796 231.104 223.586 232.042 223.306 232.966L222.326 232.672C222.578 232.014 222.788 231.286 222.956 230.474H218.952Z" fill="#4E5969"/>
</g>
<g clip-path="url(#clip6_1972_9932)">
<path fill-rule="evenodd" clip-rule="evenodd" d="M161.418 313.1C161.529 313.1 161.618 313.189 161.618 313.3L161.617 315.345L163.454 314.748C163.559 314.714 163.672 314.772 163.706 314.877L163.953 315.637C163.987 315.743 163.93 315.855 163.825 315.89L161.974 316.49L163.199 318.176C163.264 318.266 163.245 318.391 163.155 318.456L162.508 318.926C162.419 318.991 162.294 318.971 162.229 318.882L160.962 317.138L159.689 318.891C159.624 318.98 159.499 319 159.41 318.935L158.762 318.465C158.673 318.4 158.653 318.275 158.718 318.185L159.973 316.456L158.169 315.87C158.063 315.835 158.006 315.723 158.04 315.618L158.287 314.857C158.321 314.752 158.434 314.694 158.539 314.728L160.417 315.338L160.418 313.3C160.418 313.189 160.508 313.1 160.618 313.1H161.418Z" fill="#F53F3F"/>
<path d="M173.97 309.702H174.992V320.832H176.98V309.702H178.002V320.832H182.202V321.812H169.798V320.832H173.97V309.702ZM180.928 312.25L181.824 312.502C181.264 314.938 180.564 317.066 179.71 318.9L178.8 318.578C179.612 316.926 180.326 314.812 180.928 312.25ZM171.002 312.222C171.73 314.112 172.388 316.282 172.962 318.732L172.038 318.97C171.534 316.73 170.904 314.574 170.148 312.502L171.002 312.222ZM187.816 309.52L188.838 309.66C188.684 310.038 188.502 310.388 188.306 310.724H194.41V311.536C193.514 312.572 192.422 313.454 191.134 314.182C192.716 314.854 194.48 315.288 196.426 315.484L195.964 316.422C193.752 316.17 191.778 315.61 190.042 314.742C188.334 315.526 186.332 316.1 184.064 316.45L183.602 315.498C185.632 315.218 187.41 314.77 188.95 314.154C188.166 313.692 187.438 313.16 186.766 312.572C186.234 313.048 185.66 313.482 185.016 313.874L184.4 313.062C186.08 312.096 187.228 310.92 187.816 309.52ZM190.028 313.664C191.162 313.104 192.142 312.432 192.968 311.676H187.62L187.438 311.9C188.222 312.586 189.09 313.174 190.028 313.664ZM189.174 315.75H190.168C190.168 316.31 190.112 316.842 190.028 317.346H194.956C194.928 319.712 194.718 321.126 194.312 321.588C193.906 322.05 193.206 322.288 192.212 322.288C191.764 322.288 191.218 322.26 190.574 322.232L190.322 321.322L191.974 321.392C192.814 321.378 193.332 321.196 193.556 320.86C193.766 320.524 193.892 319.656 193.934 318.256H189.79C189.678 318.62 189.524 318.97 189.342 319.306C188.628 320.566 186.99 321.616 184.414 322.428L183.742 321.602C186.038 320.93 187.564 320.076 188.292 319.054C188.46 318.802 188.614 318.536 188.726 318.256H184.554V317.346H189.006C189.118 316.842 189.174 316.31 189.174 315.75ZM204.07 319.6C202.936 320.804 201.088 321.742 198.526 322.414L197.966 321.56C200.57 320.888 202.39 319.978 203.426 318.858C203.594 318.662 203.734 318.452 203.874 318.228H198.092V317.276H204.364C204.728 316.408 204.924 315.414 204.966 314.308V312.656H205.946V314.308C205.904 315.414 205.736 316.408 205.428 317.276H209.922V318.228H205.008C204.882 318.452 204.756 318.662 204.63 318.858C206.618 319.642 208.452 320.552 210.104 321.616L209.558 322.484C207.766 321.28 205.946 320.328 204.07 319.6ZM199.954 314.574C200.976 315.008 201.914 315.526 202.754 316.114L202.236 316.912C201.34 316.24 200.402 315.708 199.45 315.33L199.954 314.574ZM201.214 312.572C202.264 313.006 203.23 313.538 204.098 314.168L203.58 314.966C202.642 314.266 201.676 313.72 200.696 313.328L201.214 312.572ZM209.684 310.934V313.622H208.704V311.872H199.268V313.622H198.288V310.934H203.608C203.44 310.458 203.244 310.038 203.034 309.646L204.07 309.478C204.252 309.898 204.434 310.388 204.616 310.934H209.684ZM213.254 314.854C212.82 315.484 212.344 316.086 211.84 316.66L211.546 315.652C213.002 313.86 214.052 311.816 214.696 309.506L215.606 309.926C215.242 311.088 214.794 312.194 214.248 313.23V322.414H213.254V314.854ZM215.368 311.956H219.078V309.548H220.072V311.956H223.894V312.936H221.038C221.682 315.246 222.816 317.304 224.44 319.11L223.782 319.936C222.074 317.864 220.884 315.526 220.24 312.936H220.072V318.55H222.242V319.516H220.072V322.4H219.078V319.516H216.936V318.55H219.078V312.936H218.91C218.21 315.848 216.992 318.242 215.27 320.104L214.752 319.236C216.32 317.612 217.426 315.512 218.098 312.936H215.368V311.956Z" fill="#4E5969"/>
</g>
<g clip-path="url(#clip7_1972_9932)">
<path d="M123.64 98.296H120.664V104.392C120.664 104.776 120.872 104.984 121.304 104.984H124.088C124.568 104.984 124.872 104.856 124.984 104.616C125.112 104.36 125.208 103.816 125.272 103L126.696 103.48C126.568 104.872 126.376 105.72 126.088 106.008C125.832 106.264 125.304 106.392 124.536 106.392H120.648C119.64 106.392 119.144 105.912 119.144 104.952V97.352L118.376 98.12L117.48 96.888C119 95.496 120.392 93.848 121.656 91.96H122.776C124.184 93.432 125.528 94.968 126.776 96.568L125.784 97.608C124.408 95.784 123.272 94.376 122.344 93.4C121.512 94.632 120.584 95.816 119.528 96.952H125.128V101.368C125.112 102.248 124.632 102.712 123.672 102.776C123.048 102.776 122.456 102.76 121.896 102.728L121.528 101.304C122.12 101.368 122.632 101.4 123.08 101.4C123.448 101.4 123.64 101.208 123.64 100.856V98.296ZM127.496 93.288H128.984V103.16H127.496V93.288ZM130.264 106.504H127.848L127.496 105.048C128.28 105.112 129.032 105.144 129.736 105.144C130.12 105.144 130.312 104.904 130.312 104.44V91.928H131.832V104.824C131.832 105.944 131.304 106.504 130.264 106.504ZM147.128 98.616H143.736V99.592H147.352V100.84H143.736V101.832H147.816V103.096H143.736V104.392H142.264V103.096H138.76V101.832H142.264V100.84H139.256V99.592H142.264V98.616H139.592V97.352H142.264V96.36H138.808V95.128H142.264V94.168H139.592V92.92H142.264V91.848H143.736V92.92H147.128V95.128H148.088V96.36H147.128V98.616ZM143.736 94.168V95.128H145.672V94.168H143.736ZM143.736 96.36V97.352H145.672V96.36H143.736ZM142.664 104.936C144.472 104.936 146.344 104.888 148.264 104.824L148.008 106.28H143.32C140.376 106.28 138.28 105.848 137.016 105.016C136.856 104.904 136.728 104.792 136.632 104.696C136.12 105.4 135.528 106.008 134.856 106.536L133.864 105.24C134.568 104.76 135.144 104.184 135.608 103.512C135.016 102.616 134.536 101.512 134.152 100.2L135.432 99.736C135.704 100.696 136.008 101.512 136.36 102.168C136.792 101.16 137.048 100.008 137.144 98.728H134.264V97.576C135.128 96.456 135.912 95.272 136.648 94.024H134.264V92.584H138.344V93.832C137.624 95.176 136.92 96.344 136.216 97.352H138.536V98.264C138.472 100.312 138.072 102.072 137.336 103.544C137.528 103.736 137.736 103.896 137.96 104.024C139 104.6 140.568 104.904 142.664 104.936ZM162.12 95.272V103.032H160.584V96.76H153.352V103.048H151.816V95.272H155.896C155.992 94.808 156.088 94.344 156.152 93.864H149.912V92.424H164.088V93.864H157.8C157.704 94.344 157.608 94.824 157.48 95.272H162.12ZM158.168 102.856C160.216 103.512 162.088 104.312 163.768 105.256L162.824 106.696C161.032 105.608 159.208 104.744 157.336 104.12L158.168 102.856ZM156.232 97.528H157.768V100.072C157.672 101.848 157.096 103.272 156.04 104.344C155.016 105.336 153.32 106.088 150.984 106.632L150.12 105.272C152.456 104.76 154.04 104.12 154.872 103.336C155.704 102.504 156.152 101.416 156.232 100.072V97.528ZM165.832 92.424H180.168V93.88H173.864C173.736 94.456 173.576 95.016 173.368 95.56H179.416V106.696H177.944V106.024H168.104V106.696H166.632V95.56H171.832C172.04 95.016 172.2 94.456 172.312 93.88H165.832V92.424ZM168.104 104.616H169.928V96.952H168.104V104.616ZM171.352 104.616H174.648V102.888H171.352V104.616ZM176.072 104.616H177.944V96.952H176.072V104.616ZM171.352 101.592H174.648V99.928H171.352V101.592ZM171.352 98.616H174.648V96.952H171.352V98.616Z" fill="#4E5969"/>
</g>
<rect x="543" y="179" width="28" height="28" rx="2" fill="#F2F3F5"/>
<path d="M563 187.75H551C550.823 187.75 550.654 187.811 550.529 187.921C550.404 188.03 550.333 188.179 550.333 188.333V197.667C550.333 197.821 550.404 197.97 550.529 198.079C550.654 198.189 550.823 198.25 551 198.25H563C563.177 198.25 563.346 198.189 563.471 198.079C563.596 197.97 563.667 197.821 563.667 197.667V188.333C563.667 188.179 563.596 188.03 563.471 187.921C563.346 187.811 563.177 187.75 563 187.75Z" stroke="#666666" stroke-width="1.33333" stroke-linejoin="round"/>
<path d="M550.333 191.25H563.667M554.833 191.25V198.25M559.167 191.25V198.25M550.333 194.75H563.667M563.667 188.333V197.667C563.667 197.821 563.596 197.97 563.471 198.079C563.346 198.189 563.177 198.25 563 198.25H551C550.823 198.25 550.654 198.189 550.529 198.079C550.404 197.97 550.333 197.821 550.333 197.667V188.333" stroke="#666666" stroke-width="1.33333" stroke-linecap="round" stroke-linejoin="round"/>
<path d="M581.6 202.404V199.858L587.105 194.36C587.225 194.24 587.36 194.15 587.51 194.09C587.66 194.03 587.81 194 587.96 194C588.12 194 588.273 194.03 588.418 194.09C588.563 194.15 588.695 194.24 588.815 194.36L589.655 195.213C589.765 195.333 589.85 195.466 589.91 195.611C589.97 195.756 590 195.903 590 196.052C590 196.202 589.973 196.349 589.918 196.495C589.863 196.64 589.775 196.772 589.655 196.891L584.15 202.404H581.6ZM587.96 196.891L588.815 196.052L587.975 195.213L587.12 196.052L587.96 196.891ZM579.2 206C578.87 206 578.588 205.883 578.353 205.648C578.118 205.414 578 205.131 578 204.801V196.412C578 196.082 578.118 195.8 578.353 195.566C578.588 195.331 578.87 195.214 579.2 195.213H584.555L580.4 199.363V203.603H584.63L588.8 199.438V204.801C588.8 205.131 588.683 205.413 588.448 205.648C588.213 205.883 587.93 206 587.6 206H579.2Z" fill="#E5E6EB"/>
<defs>
<filter id="filter0_dddd_1972_9932" x="0.5" y="0.5" width="849" height="617" filterUnits="userSpaceOnUse" color-interpolation-filters="sRGB">
<feFlood flood-opacity="0" result="BackgroundImageFix"/>
<feColorMatrix in="SourceAlpha" type="matrix" values="0 0 0 0 0 0 0 0 0 0 0 0 0 0 0 0 0 0 127 0" result="hardAlpha"/>
<feOffset dy="2.76726"/>
<feGaussianBlur stdDeviation="1.1069"/>
<feColorMatrix type="matrix" values="0 0 0 0 0 0 0 0 0 0 0 0 0 0 0 0 0 0 0.0196802 0"/>
<feBlend mode="normal" in2="BackgroundImageFix" result="effect1_dropShadow_1972_9932"/>
<feColorMatrix in="SourceAlpha" type="matrix" values="0 0 0 0 0 0 0 0 0 0 0 0 0 0 0 0 0 0 127 0" result="hardAlpha"/>
<feOffset dy="6.6501"/>
<feGaussianBlur stdDeviation="2.66004"/>
<feColorMatrix type="matrix" values="0 0 0 0 0 0 0 0 0 0 0 0 0 0 0 0 0 0 0.0282725 0"/>
<feBlend mode="normal" in2="effect1_dropShadow_1972_9932" result="effect2_dropShadow_1972_9932"/>
<feColorMatrix in="SourceAlpha" type="matrix" values="0 0 0 0 0 0 0 0 0 0 0 0 0 0 0 0 0 0 127 0" result="hardAlpha"/>
<feOffset dy="12.5216"/>
<feGaussianBlur stdDeviation="5.00862"/>
<feColorMatrix type="matrix" values="0 0 0 0 0 0 0 0 0 0 0 0 0 0 0 0 0 0 0.035 0"/>
<feBlend mode="normal" in2="effect2_dropShadow_1972_9932" result="effect3_dropShadow_1972_9932"/>
<feColorMatrix in="SourceAlpha" type="matrix" values="0 0 0 0 0 0 0 0 0 0 0 0 0 0 0 0 0 0 127 0" result="hardAlpha"/>
<feOffset dy="100"/>
<feGaussianBlur stdDeviation="40"/>
<feColorMatrix type="matrix" values="0 0 0 0 0 0 0 0 0 0 0 0 0 0 0 0 0 0 0.07 0"/>
<feBlend mode="normal" in2="effect3_dropShadow_1972_9932" result="effect4_dropShadow_1972_9932"/>
<feBlend mode="normal" in="SourceGraphic" in2="effect4_dropShadow_1972_9932" result="shape"/>
</filter>
<linearGradient id="paint0_linear_1972_9932" x1="823.609" y1="388.827" x2="882.922" y2="491.559" gradientUnits="userSpaceOnUse">
<stop stop-color="#4FAE7B"/>
<stop offset="1" stop-color="#008699"/>
</linearGradient>
<clipPath id="clip0_1972_9932">
<rect x="81" y="1" width="688" height="436" rx="16" fill="white"/>
</clipPath>
<clipPath id="clip1_1972_9932">
<rect width="16" height="16" fill="white" transform="translate(634.5 21)"/>
</clipPath>
<clipPath id="clip2_1972_9932">
<rect width="12" height="12" fill="white" transform="translate(667 351)"/>
</clipPath>
<clipPath id="clip3_1972_9932">
<rect width="68" height="22" fill="white" transform="translate(157 141)"/>
</clipPath>
<clipPath id="clip4_1972_9932">
<rect width="68" height="22" fill="white" transform="translate(542 141)"/>
</clipPath>
<clipPath id="clip5_1972_9932">
<rect width="68" height="22" fill="white" transform="translate(157 223)"/>
</clipPath>
<clipPath id="clip6_1972_9932">
<rect width="68" height="22" fill="white" transform="translate(157 305)"/>
</clipPath>
<clipPath id="clip7_1972_9932">
<rect width="64" height="22" fill="white" transform="translate(117 88)"/>
</clipPath>
</defs>
</svg>
