<svg width="1126" height="702" viewBox="0 0 1126 702" fill="none" xmlns="http://www.w3.org/2000/svg">
<g filter="url(#filter0_dddd_1972_9932)">
<g clip-path="url(#clip0_1972_9932)">
<rect width="631.193" height="51.3761" transform="translate(175.404 104)" fill="white"/>
<path fill-rule="evenodd" clip-rule="evenodd" d="M202.927 135.193C205.967 135.193 208.431 132.728 208.431 129.688C208.431 126.648 205.967 124.183 202.927 124.183C199.887 124.183 197.422 126.648 197.422 129.688C197.422 132.728 199.887 135.193 202.927 135.193Z" fill="#ED6A5E"/>
<path fill-rule="evenodd" clip-rule="evenodd" d="M221.275 135.193C224.315 135.193 226.78 132.728 226.78 129.688C226.78 126.648 224.315 124.183 221.275 124.183C218.235 124.183 215.771 126.648 215.771 129.688C215.771 132.728 218.235 135.193 221.275 135.193Z" fill="#F4BF4F"/>
<path fill-rule="evenodd" clip-rule="evenodd" d="M239.624 135.193C242.664 135.193 245.128 132.728 245.128 129.688C245.128 126.648 242.664 124.183 239.624 124.183C236.584 124.183 234.119 126.648 234.119 129.688C234.119 132.728 236.584 135.193 239.624 135.193Z" fill="#61C554"/>
<path fill-rule="evenodd" clip-rule="evenodd" d="M280.167 122.401C280.221 122.455 280.263 122.518 280.292 122.588C280.321 122.657 280.336 122.732 280.336 122.807C280.336 122.883 280.321 122.957 280.292 123.027C280.263 123.097 280.221 123.16 280.167 123.213L273.692 129.688L280.167 136.163C280.275 136.271 280.336 136.417 280.336 136.569C280.336 136.721 280.275 136.867 280.167 136.975C280.06 137.082 279.914 137.143 279.761 137.143C279.609 137.143 279.463 137.082 279.356 136.975L272.475 130.094C272.421 130.041 272.379 129.977 272.35 129.908C272.321 129.838 272.306 129.763 272.306 129.688C272.306 129.613 272.321 129.538 272.35 129.468C272.379 129.399 272.421 129.335 272.475 129.282L279.356 122.401C279.409 122.348 279.472 122.306 279.542 122.277C279.611 122.248 279.686 122.233 279.761 122.233C279.837 122.233 279.912 122.248 279.981 122.277C280.051 122.306 280.114 122.348 280.167 122.401Z" fill="#8C8C8C"/>
<path fill-rule="evenodd" clip-rule="evenodd" d="M301.833 122.401C301.886 122.348 301.949 122.306 302.019 122.277C302.088 122.248 302.163 122.233 302.239 122.233C302.314 122.233 302.389 122.248 302.458 122.277C302.528 122.306 302.591 122.348 302.645 122.401L309.525 129.282C309.579 129.335 309.621 129.399 309.65 129.468C309.679 129.538 309.694 129.613 309.694 129.688C309.694 129.763 309.679 129.838 309.65 129.908C309.621 129.977 309.579 130.041 309.525 130.094L302.645 136.975C302.537 137.082 302.391 137.143 302.239 137.143C302.086 137.143 301.94 137.082 301.833 136.975C301.725 136.867 301.664 136.721 301.664 136.569C301.664 136.417 301.725 136.271 301.833 136.163L308.308 129.688L301.833 123.213C301.779 123.16 301.737 123.097 301.708 123.027C301.679 122.957 301.664 122.883 301.664 122.807C301.664 122.732 301.679 122.657 301.708 122.588C301.737 122.518 301.779 122.455 301.833 122.401Z" fill="black" fill-opacity="0.1"/>
<path d="M302.238 122.261C302.31 122.261 302.381 122.276 302.447 122.303C302.513 122.331 302.574 122.371 302.624 122.421L309.505 129.302C309.556 129.353 309.596 129.413 309.623 129.479C309.651 129.545 309.665 129.616 309.665 129.688C309.665 129.76 309.651 129.831 309.623 129.897C309.609 129.93 309.593 129.961 309.573 129.991L309.505 130.074L302.624 136.955C302.522 137.057 302.383 137.114 302.238 137.114C302.094 137.114 301.955 137.057 301.853 136.955C301.75 136.852 301.693 136.713 301.693 136.569C301.693 136.424 301.75 136.285 301.853 136.183L308.329 129.708L308.349 129.688L308.329 129.667L301.853 123.193C301.802 123.142 301.762 123.082 301.734 123.016C301.707 122.95 301.692 122.879 301.692 122.807C301.692 122.736 301.707 122.664 301.734 122.598C301.762 122.532 301.802 122.472 301.853 122.421C301.903 122.371 301.963 122.331 302.029 122.303C302.095 122.276 302.167 122.261 302.238 122.261Z" stroke="black" stroke-opacity="0.1" stroke-width="0.0573394"/>
<path d="M336.413 128.587C336.413 124.477 336.413 122.421 337.213 120.851C337.916 119.47 339.039 118.348 340.42 117.644C341.99 116.844 344.045 116.844 348.156 116.844H696.229C700.34 116.844 702.395 116.844 703.965 117.644C705.346 118.348 706.469 119.47 707.173 120.851C707.972 122.421 707.972 124.477 707.972 128.587V130.789C707.972 134.899 707.972 136.955 707.173 138.525C706.469 139.906 705.346 141.028 703.965 141.732C702.395 142.532 700.34 142.532 696.229 142.532H348.156C344.045 142.532 341.99 142.532 340.42 141.732C339.039 141.028 337.916 139.906 337.213 138.525C336.413 136.955 336.413 134.899 336.413 130.789V128.587Z" fill="#F1F1F1"/>
<path d="M473.473 125.101C474.191 125.101 474.761 125.299 475.19 125.66C475.614 126.015 475.86 126.492 476.005 126.976C476.288 127.918 476.226 129.044 476.226 129.688C476.732 129.688 477.143 130.099 477.143 130.606V134.734C477.143 135.24 476.731 135.652 476.225 135.652H470.72C470.213 135.652 469.803 135.24 469.803 134.734V130.606C469.803 130.099 470.213 129.688 470.72 129.688H470.721C470.721 129.044 470.658 127.918 470.94 126.976C471.086 126.492 471.332 126.015 471.755 125.66C472.185 125.299 472.754 125.101 473.473 125.101ZM473.473 126.019C472.93 126.019 472.582 126.164 472.345 126.363C472.102 126.567 471.932 126.864 471.819 127.24C471.586 128.017 471.638 128.955 471.638 129.688H475.308C475.308 128.956 475.359 128.017 475.126 127.24C475.013 126.864 474.844 126.567 474.601 126.363C474.364 126.164 474.015 126.019 473.473 126.019Z" fill="#8C8C8C"/>
<path d="M493.143 129.351C493.143 130.266 492.978 131.057 492.648 131.723C492.317 132.389 491.864 132.903 491.288 133.265C490.712 133.626 490.054 133.807 489.314 133.807C488.575 133.807 487.917 133.626 487.341 133.265C486.765 132.903 486.312 132.389 485.981 131.723C485.651 131.057 485.486 130.266 485.486 129.351C485.486 128.436 485.651 127.646 485.981 126.979C486.312 126.313 486.765 125.799 487.341 125.438C487.917 125.076 488.575 124.896 489.314 124.896C490.054 124.896 490.712 125.076 491.288 125.438C491.864 125.799 492.317 126.313 492.648 126.979C492.978 127.646 493.143 128.436 493.143 129.351ZM492.127 129.351C492.127 128.6 492.001 127.966 491.75 127.45C491.501 126.933 491.164 126.542 490.738 126.276C490.314 126.011 489.84 125.878 489.314 125.878C488.789 125.878 488.314 126.011 487.887 126.276C487.464 126.542 487.126 126.933 486.875 127.45C486.626 127.966 486.502 128.6 486.502 129.351C486.502 130.102 486.626 130.736 486.875 131.253C487.126 131.77 487.464 132.161 487.887 132.426C488.314 132.691 488.789 132.824 489.314 132.824C489.84 132.824 490.314 132.691 490.738 132.426C491.164 132.161 491.501 131.77 491.75 131.253C492.001 130.736 492.127 130.102 492.127 129.351ZM495.773 129.775V133.688H494.774V127.183H495.739V128.199H495.824C495.977 127.869 496.208 127.603 496.519 127.403C496.829 127.2 497.23 127.098 497.722 127.098C498.162 127.098 498.547 127.188 498.878 127.369C499.208 127.547 499.465 127.818 499.649 128.182C499.832 128.544 499.924 129.001 499.924 129.554V133.688H498.924V129.622C498.924 129.111 498.792 128.713 498.526 128.428C498.261 128.14 497.897 127.996 497.434 127.996C497.114 127.996 496.829 128.065 496.578 128.203C496.33 128.342 496.133 128.544 495.989 128.809C495.845 129.074 495.773 129.396 495.773 129.775ZM504.478 133.824C503.851 133.824 503.31 133.685 502.856 133.409C502.404 133.129 502.055 132.739 501.81 132.24C501.567 131.737 501.445 131.153 501.445 130.486C501.445 129.82 501.567 129.233 501.81 128.724C502.055 128.213 502.397 127.815 502.835 127.53C503.275 127.242 503.789 127.098 504.376 127.098C504.715 127.098 505.05 127.154 505.38 127.267C505.71 127.38 506.011 127.564 506.282 127.818C506.553 128.069 506.769 128.402 506.93 128.818C507.091 129.233 507.172 129.744 507.172 130.351V130.774H502.157V129.91H506.155C506.155 129.543 506.082 129.216 505.935 128.928C505.791 128.64 505.585 128.412 505.316 128.246C505.051 128.079 504.738 127.996 504.376 127.996C503.978 127.996 503.634 128.095 503.343 128.292C503.055 128.487 502.833 128.741 502.678 129.055C502.523 129.368 502.445 129.704 502.445 130.063V130.639C502.445 131.13 502.53 131.546 502.699 131.888C502.871 132.227 503.11 132.485 503.415 132.663C503.72 132.838 504.074 132.926 504.478 132.926C504.74 132.926 504.978 132.889 505.189 132.816C505.404 132.739 505.589 132.626 505.744 132.477C505.9 132.324 506.02 132.135 506.104 131.909L507.07 132.18C506.968 132.508 506.797 132.796 506.557 133.044C506.317 133.29 506.021 133.482 505.668 133.62C505.315 133.756 504.918 133.824 504.478 133.824ZM508.828 133.688V125.014H511.86C512.464 125.014 512.963 125.119 513.355 125.328C513.748 125.534 514.04 125.812 514.232 126.162C514.424 126.509 514.52 126.895 514.52 127.318C514.52 127.691 514.453 127.999 514.321 128.242C514.191 128.484 514.019 128.676 513.804 128.818C513.592 128.959 513.362 129.063 513.114 129.131V129.216C513.379 129.233 513.646 129.326 513.914 129.495C514.182 129.665 514.407 129.907 514.588 130.224C514.768 130.54 514.859 130.927 514.859 131.384C514.859 131.819 514.76 132.21 514.562 132.557C514.365 132.905 514.053 133.18 513.626 133.383C513.2 133.586 512.645 133.688 511.962 133.688H508.828ZM509.878 132.756H511.962C512.648 132.756 513.135 132.624 513.423 132.358C513.714 132.09 513.859 131.765 513.859 131.384C513.859 131.09 513.784 130.819 513.635 130.571C513.485 130.32 513.272 130.119 512.995 129.97C512.718 129.817 512.391 129.741 512.013 129.741H509.878V132.756ZM509.878 128.826H511.826C512.142 128.826 512.428 128.764 512.682 128.64C512.939 128.515 513.142 128.34 513.292 128.114C513.444 127.889 513.52 127.623 513.52 127.318C513.52 126.937 513.388 126.614 513.122 126.348C512.857 126.08 512.436 125.946 511.86 125.946H509.878V128.826ZM518.363 133.841C517.951 133.841 517.577 133.763 517.241 133.608C516.905 133.45 516.638 133.222 516.441 132.926C516.243 132.626 516.144 132.265 516.144 131.842C516.144 131.469 516.217 131.167 516.364 130.935C516.511 130.701 516.707 130.517 516.953 130.385C517.199 130.252 517.47 130.153 517.766 130.088C518.065 130.02 518.366 129.967 518.668 129.927C519.064 129.876 519.384 129.838 519.63 129.813C519.878 129.785 520.059 129.738 520.172 129.673C520.288 129.608 520.345 129.495 520.345 129.334V129.3C520.345 128.882 520.231 128.558 520.002 128.326C519.777 128.095 519.433 127.979 518.973 127.979C518.496 127.979 518.122 128.083 517.851 128.292C517.58 128.501 517.389 128.724 517.279 128.962L516.33 128.623C516.5 128.227 516.726 127.92 517.008 127.699C517.293 127.476 517.604 127.321 517.94 127.234C518.279 127.143 518.612 127.098 518.939 127.098C519.148 127.098 519.388 127.123 519.659 127.174C519.933 127.222 520.197 127.322 520.451 127.475C520.708 127.627 520.921 127.858 521.091 128.165C521.26 128.473 521.345 128.885 521.345 129.402V133.688H520.345V132.807H520.295C520.227 132.948 520.114 133.099 519.956 133.26C519.798 133.421 519.587 133.558 519.325 133.671C519.062 133.784 518.742 133.841 518.363 133.841ZM518.516 132.943C518.911 132.943 519.244 132.865 519.515 132.71C519.789 132.554 519.995 132.354 520.134 132.108C520.275 131.863 520.345 131.604 520.345 131.333V130.418C520.303 130.469 520.21 130.516 520.066 130.558C519.925 130.598 519.761 130.633 519.575 130.664C519.391 130.692 519.212 130.718 519.037 130.74C518.865 130.76 518.725 130.777 518.617 130.791C518.358 130.825 518.115 130.88 517.889 130.956C517.666 131.03 517.485 131.141 517.347 131.291C517.211 131.438 517.144 131.638 517.144 131.892C517.144 132.24 517.272 132.502 517.529 132.68C517.789 132.855 518.118 132.943 518.516 132.943ZM527.777 128.64L526.879 128.894C526.823 128.744 526.74 128.599 526.63 128.458C526.522 128.314 526.375 128.195 526.189 128.102C526.003 128.009 525.764 127.962 525.473 127.962C525.075 127.962 524.743 128.054 524.478 128.237C524.215 128.418 524.084 128.648 524.084 128.928C524.084 129.176 524.175 129.372 524.355 129.516C524.536 129.66 524.818 129.78 525.202 129.876L526.168 130.114C526.75 130.255 527.183 130.471 527.468 130.762C527.753 131.05 527.896 131.421 527.896 131.875C527.896 132.248 527.789 132.581 527.574 132.875C527.362 133.169 527.066 133.4 526.685 133.57C526.303 133.739 525.86 133.824 525.355 133.824C524.691 133.824 524.142 133.68 523.707 133.392C523.272 133.104 522.997 132.683 522.881 132.13L523.83 131.892C523.92 132.242 524.091 132.505 524.343 132.68C524.597 132.855 524.928 132.943 525.338 132.943C525.804 132.943 526.174 132.844 526.447 132.646C526.724 132.446 526.863 132.206 526.863 131.926C526.863 131.7 526.783 131.511 526.625 131.359C526.467 131.203 526.224 131.088 525.897 131.011L524.813 130.757C524.217 130.616 523.779 130.397 523.5 130.101C523.223 129.802 523.085 129.427 523.085 128.978C523.085 128.611 523.188 128.287 523.394 128.004C523.603 127.722 523.887 127.5 524.245 127.339C524.607 127.178 525.016 127.098 525.473 127.098C526.117 127.098 526.623 127.239 526.99 127.522C527.359 127.804 527.622 128.177 527.777 128.64ZM532.128 133.824C531.501 133.824 530.961 133.685 530.506 133.409C530.054 133.129 529.705 132.739 529.46 132.24C529.217 131.737 529.096 131.153 529.096 130.486C529.096 129.82 529.217 129.233 529.46 128.724C529.705 128.213 530.047 127.815 530.485 127.53C530.925 127.242 531.439 127.098 532.026 127.098C532.365 127.098 532.7 127.154 533.03 127.267C533.361 127.38 533.661 127.564 533.932 127.818C534.203 128.069 534.419 128.402 534.58 128.818C534.741 129.233 534.822 129.744 534.822 130.351V130.774H529.807V129.91H533.805C533.805 129.543 533.732 129.216 533.585 128.928C533.441 128.64 533.235 128.412 532.967 128.246C532.701 128.079 532.388 127.996 532.026 127.996C531.628 127.996 531.284 128.095 530.993 128.292C530.705 128.487 530.483 128.741 530.328 129.055C530.173 129.368 530.095 129.704 530.095 130.063V130.639C530.095 131.13 530.18 131.546 530.349 131.888C530.521 132.227 530.76 132.485 531.065 132.663C531.37 132.838 531.724 132.926 532.128 132.926C532.391 132.926 532.628 132.889 532.84 132.816C533.054 132.739 533.239 132.626 533.394 132.477C533.55 132.324 533.67 132.135 533.754 131.909L534.72 132.18C534.618 132.508 534.448 132.796 534.208 133.044C533.968 133.29 533.671 133.482 533.318 133.62C532.965 133.756 532.569 133.824 532.128 133.824ZM539.256 133.807C538.697 133.807 538.199 133.711 537.761 133.519C537.326 133.327 536.98 133.06 536.723 132.718C536.469 132.374 536.331 131.974 536.308 131.52H537.376C537.398 131.799 537.494 132.041 537.664 132.244C537.833 132.444 538.055 132.6 538.329 132.71C538.602 132.82 538.906 132.875 539.239 132.875C539.612 132.875 539.942 132.81 540.23 132.68C540.518 132.55 540.744 132.37 540.908 132.138C541.072 131.906 541.153 131.638 541.153 131.333C541.153 131.014 541.074 130.733 540.916 130.49C540.758 130.245 540.527 130.053 540.222 129.914C539.917 129.776 539.544 129.707 539.104 129.707H538.409V128.775H539.104C539.448 128.775 539.75 128.713 540.01 128.589C540.273 128.465 540.477 128.29 540.624 128.064C540.774 127.838 540.849 127.572 540.849 127.267C540.849 126.974 540.784 126.718 540.654 126.501C540.524 126.283 540.34 126.114 540.103 125.993C539.869 125.871 539.592 125.81 539.273 125.81C538.974 125.81 538.691 125.866 538.426 125.976C538.163 126.083 537.949 126.24 537.782 126.446C537.616 126.649 537.525 126.895 537.511 127.183H536.495C536.512 126.728 536.649 126.33 536.905 125.988C537.162 125.644 537.498 125.376 537.913 125.184C538.331 124.992 538.79 124.896 539.29 124.896C539.826 124.896 540.287 125.004 540.671 125.222C541.055 125.436 541.35 125.72 541.556 126.073C541.762 126.426 541.865 126.807 541.865 127.217C541.865 127.705 541.737 128.122 541.48 128.466C541.225 128.81 540.88 129.049 540.442 129.182V129.25C540.99 129.34 541.417 129.573 541.725 129.948C542.033 130.321 542.187 130.783 542.187 131.333C542.187 131.805 542.058 132.228 541.801 132.604C541.547 132.977 541.2 133.27 540.76 133.485C540.319 133.699 539.818 133.807 539.256 133.807ZM544.397 133.756C544.188 133.756 544.008 133.681 543.859 133.531C543.709 133.382 543.634 133.202 543.634 132.994C543.634 132.785 543.709 132.605 543.859 132.456C544.008 132.306 544.188 132.231 544.397 132.231C544.606 132.231 544.785 132.306 544.935 132.456C545.084 132.605 545.159 132.785 545.159 132.994C545.159 133.132 545.124 133.259 545.053 133.375C544.985 133.49 544.894 133.584 544.778 133.654C544.665 133.722 544.538 133.756 544.397 133.756ZM549.462 133.807C548.824 133.807 548.28 133.633 547.831 133.286C547.383 132.936 547.039 132.429 546.802 131.765C546.565 131.099 546.447 130.294 546.447 129.351C546.447 128.414 546.565 127.613 546.802 126.95C547.042 126.283 547.387 125.775 547.836 125.425C548.287 125.072 548.83 124.896 549.462 124.896C550.095 124.896 550.635 125.072 551.084 125.425C551.536 125.775 551.88 126.283 552.118 126.95C552.358 127.613 552.478 128.414 552.478 129.351C552.478 130.294 552.359 131.099 552.122 131.765C551.885 132.429 551.542 132.936 551.093 133.286C550.644 133.633 550.1 133.807 549.462 133.807ZM549.462 132.875C550.095 132.875 550.586 132.57 550.936 131.96C551.286 131.35 551.461 130.481 551.461 129.351C551.461 128.6 551.381 127.961 551.22 127.433C551.062 126.905 550.833 126.502 550.534 126.226C550.237 125.949 549.88 125.81 549.462 125.81C548.835 125.81 548.345 126.12 547.992 126.738C547.639 127.354 547.463 128.225 547.463 129.351C547.463 130.102 547.542 130.74 547.7 131.266C547.858 131.791 548.086 132.19 548.382 132.464C548.681 132.738 549.041 132.875 549.462 132.875Z" fill="#151515"/>
<g clip-path="url(#clip1_1972_9932)">
<path fill-rule="evenodd" clip-rule="evenodd" d="M686.11 128.501C686.287 127.84 686.609 127.228 687.053 126.708C687.497 126.188 688.052 125.774 688.677 125.496C689.301 125.218 689.98 125.084 690.664 125.102C691.347 125.12 692.018 125.291 692.627 125.602C692.68 125.629 692.739 125.646 692.799 125.65C692.859 125.655 692.92 125.648 692.977 125.629C693.034 125.611 693.087 125.581 693.133 125.542C693.179 125.502 693.217 125.455 693.244 125.401C693.271 125.347 693.288 125.289 693.293 125.228C693.297 125.168 693.29 125.108 693.271 125.051C693.253 124.993 693.223 124.94 693.184 124.894C693.145 124.848 693.097 124.811 693.043 124.783C691.884 124.192 690.554 124.03 689.287 124.327C688.02 124.623 686.899 125.359 686.123 126.403C685.347 127.447 684.966 128.732 685.047 130.031C685.129 131.329 685.667 132.557 686.567 133.496C687.468 134.435 688.671 135.025 689.965 135.161C691.259 135.297 692.559 134.971 693.635 134.239C694.711 133.508 695.493 132.42 695.843 131.167C696.193 129.914 696.088 128.577 695.546 127.394C695.495 127.284 695.402 127.198 695.288 127.155C695.174 127.113 695.048 127.118 694.937 127.168C694.826 127.219 694.74 127.312 694.698 127.426C694.656 127.54 694.66 127.666 694.711 127.777C695.018 128.446 695.159 129.179 695.122 129.915C695.086 130.65 694.873 131.366 694.502 132.001C694.131 132.637 693.612 133.174 692.99 133.567C692.367 133.96 691.659 134.197 690.926 134.259C690.192 134.321 689.454 134.205 688.775 133.922C688.096 133.638 687.494 133.196 687.022 132.631C686.55 132.066 686.22 131.396 686.062 130.677C685.903 129.958 685.92 129.212 686.11 128.501Z" fill="#8C8C8C"/>
<path fill-rule="evenodd" clip-rule="evenodd" d="M690.676 122.483C690.762 122.397 690.879 122.348 691 122.348C691.122 122.348 691.239 122.397 691.325 122.483L693.618 124.776C693.661 124.819 693.695 124.869 693.718 124.925C693.741 124.981 693.753 125.041 693.753 125.101C693.753 125.161 693.741 125.221 693.718 125.277C693.695 125.332 693.661 125.383 693.618 125.426L691.325 127.719C691.282 127.762 691.232 127.796 691.176 127.819C691.12 127.842 691.06 127.854 691 127.853C690.94 127.853 690.88 127.842 690.825 127.818C690.769 127.795 690.718 127.761 690.676 127.719C690.59 127.633 690.541 127.516 690.541 127.394C690.542 127.334 690.553 127.274 690.577 127.219C690.6 127.163 690.633 127.112 690.676 127.07L692.645 125.101L690.676 123.132C690.633 123.09 690.6 123.039 690.576 122.983C690.553 122.927 690.541 122.868 690.541 122.807C690.541 122.747 690.553 122.687 690.576 122.632C690.6 122.576 690.633 122.525 690.676 122.483Z" fill="#8C8C8C"/>
</g>
<g clip-path="url(#clip2_1972_9932)">
<path fill-rule="evenodd" clip-rule="evenodd" d="M734.86 125.507C734.913 125.56 734.977 125.603 735.046 125.632C735.116 125.661 735.191 125.675 735.266 125.675C735.341 125.675 735.416 125.661 735.486 125.632C735.555 125.603 735.619 125.56 735.672 125.507L738.706 122.471L741.741 125.507C741.794 125.56 741.857 125.603 741.927 125.631C741.997 125.66 742.071 125.675 742.147 125.675C742.222 125.675 742.297 125.66 742.367 125.631C742.436 125.603 742.499 125.56 742.553 125.507C742.606 125.454 742.648 125.39 742.677 125.321C742.706 125.251 742.721 125.176 742.721 125.101C742.721 125.026 742.706 124.951 742.677 124.881C742.648 124.812 742.606 124.748 742.553 124.695L739.112 121.255C739.059 121.201 738.996 121.159 738.926 121.13C738.857 121.101 738.782 121.086 738.706 121.086C738.631 121.086 738.556 121.101 738.487 121.13C738.417 121.159 738.354 121.201 738.3 121.255L734.86 124.695C734.807 124.748 734.764 124.812 734.735 124.881C734.707 124.951 734.692 125.026 734.692 125.101C734.692 125.176 734.707 125.251 734.735 125.321C734.764 125.39 734.807 125.454 734.86 125.507Z" fill="#8C8C8C"/>
<path fill-rule="evenodd" clip-rule="evenodd" d="M738.706 133.702C738.859 133.702 739.004 133.641 739.112 133.534C739.219 133.426 739.28 133.28 739.28 133.128V122.807C739.28 122.655 739.219 122.509 739.112 122.402C739.004 122.294 738.859 122.234 738.706 122.234C738.554 122.234 738.409 122.294 738.301 122.402C738.193 122.509 738.133 122.655 738.133 122.807V133.128C738.133 133.28 738.193 133.426 738.301 133.534C738.409 133.641 738.554 133.702 738.706 133.702Z" fill="#8C8C8C"/>
<path fill-rule="evenodd" clip-rule="evenodd" d="M732.399 136.569C732.399 137.025 732.58 137.463 732.903 137.785C733.226 138.108 733.663 138.289 734.119 138.289H743.294C743.75 138.289 744.187 138.108 744.51 137.785C744.833 137.463 745.014 137.025 745.014 136.569V128.541C745.014 128.085 744.833 127.647 744.51 127.325C744.187 127.002 743.75 126.821 743.294 126.821H741.573C741.421 126.821 741.276 126.881 741.168 126.989C741.06 127.097 741 127.242 741 127.394C741 127.547 741.06 127.692 741.168 127.8C741.276 127.907 741.421 127.968 741.573 127.968H743.294C743.446 127.968 743.592 128.028 743.699 128.136C743.807 128.243 743.867 128.389 743.867 128.541V136.569C743.867 136.721 743.807 136.867 743.699 136.974C743.592 137.082 743.446 137.142 743.294 137.142H734.119C733.967 137.142 733.821 137.082 733.714 136.974C733.606 136.867 733.546 136.721 733.546 136.569V128.541C733.546 128.389 733.606 128.243 733.714 128.136C733.821 128.028 733.967 127.968 734.119 127.968H735.839C735.992 127.968 736.137 127.907 736.245 127.8C736.352 127.692 736.413 127.547 736.413 127.394C736.413 127.242 736.352 127.097 736.245 126.989C736.137 126.881 735.992 126.821 735.839 126.821H734.119C733.663 126.821 733.226 127.002 732.903 127.325C732.58 127.647 732.399 128.085 732.399 128.541V136.569Z" fill="#8C8C8C"/>
</g>
<path d="M775.403 123.495C775.586 123.495 775.762 123.567 775.891 123.697C776.02 123.826 776.092 124.001 776.092 124.184V129H780.908C781.091 129 781.266 129.072 781.395 129.201C781.524 129.33 781.597 129.505 781.597 129.688C781.597 129.87 781.524 130.046 781.395 130.175C781.266 130.304 781.091 130.376 780.908 130.376H776.092V135.193C776.092 135.375 776.019 135.55 775.89 135.679C775.761 135.808 775.586 135.881 775.403 135.881C775.221 135.881 775.046 135.808 774.917 135.679C774.788 135.55 774.716 135.375 774.716 135.193V130.376H769.9C769.717 130.376 769.541 130.304 769.412 130.175C769.283 130.046 769.211 129.87 769.211 129.688C769.211 129.505 769.283 129.33 769.412 129.201C769.541 129.072 769.717 129 769.9 129H774.716V124.184C774.716 124.001 774.788 123.826 774.917 123.697C775.046 123.568 775.221 123.495 775.403 123.495Z" fill="#8C8C8C"/>
<line x1="175.404" y1="154.917" x2="806.596" y2="154.917" stroke="black" stroke-opacity="0.1" stroke-width="0.917431"/>
<rect x="175.404" y="155.376" width="631.193" height="348.624" fill="white"/>
</g>
<rect x="175.404" y="104" width="631.193" height="400" rx="14.6789" stroke="black" stroke-opacity="0.1" stroke-width="0.917431"/>
</g>
<rect x="245.128" y="267.303" width="333.028" height="25.6881" rx="12.844" fill="#F2F3F5"/>
<rect x="245.128" y="417.761" width="494.495" height="25.6881" rx="12.844" fill="#F2F3F5"/>
<g clip-path="url(#clip3_1972_9932)">
<path fill-rule="evenodd" clip-rule="evenodd" d="M722.425 429.426L721.777 428.777L718.533 432.021L715.289 428.777L714.641 429.426L718.209 432.994C718.209 432.994 718.209 432.994 718.533 432.67L718.209 432.994L718.533 433.318L722.425 429.426Z" fill="#4E5969"/>
</g>
<rect x="245.128" y="232.44" width="81.6514" height="20.1835" rx="3.66972" fill="#C9CDD4"/>
<rect x="245.128" y="342.532" width="494.495" height="25.6881" rx="12.844" fill="#F2F3F5"/>
<rect x="245.128" y="307.67" width="81.6514" height="20.1835" rx="3.66972" fill="#C9CDD4"/>
<rect x="245.128" y="382.899" width="81.6514" height="20.1835" rx="3.66972" fill="#C9CDD4"/>
<g clip-path="url(#clip4_1972_9932)">
<path d="M214.807 192.258H212.077V197.851C212.077 198.203 212.268 198.394 212.664 198.394H215.218C215.659 198.394 215.938 198.276 216.04 198.056C216.158 197.821 216.246 197.322 216.305 196.573L217.611 197.014C217.494 198.291 217.317 199.069 217.053 199.333C216.818 199.568 216.334 199.685 215.629 199.685H212.062C211.138 199.685 210.683 199.245 210.683 198.364V191.392L209.978 192.096L209.156 190.966C210.55 189.689 211.828 188.177 212.987 186.445H214.015C215.306 187.795 216.539 189.205 217.684 190.673L216.774 191.627C215.512 189.953 214.47 188.662 213.618 187.766C212.855 188.896 212.004 189.983 211.035 191.025H216.172V195.076C216.158 195.884 215.717 196.309 214.837 196.368C214.264 196.368 213.721 196.353 213.207 196.324L212.87 195.017C213.413 195.076 213.883 195.106 214.294 195.106C214.631 195.106 214.807 194.929 214.807 194.606V192.258ZM218.345 187.663H219.71V196.72H218.345V187.663ZM220.884 199.788H218.668L218.345 198.452C219.064 198.511 219.754 198.54 220.4 198.54C220.752 198.54 220.928 198.32 220.928 197.895V186.416H222.323V198.247C222.323 199.274 221.839 199.788 220.884 199.788ZM236.356 192.551H233.244V193.447H236.561V194.592H233.244V195.502H236.987V196.662H233.244V197.851H231.894V196.662H228.679V195.502H231.894V194.592H229.134V193.447H231.894V192.551H229.442V191.392H231.894V190.482H228.723V189.351H231.894V188.471H229.442V187.326H231.894V186.342H233.244V187.326H236.356V189.351H237.237V190.482H236.356V192.551ZM233.244 188.471V189.351H235.02V188.471H233.244ZM233.244 190.482V191.392H235.02V190.482H233.244ZM232.261 198.35C233.919 198.35 235.637 198.306 237.398 198.247L237.163 199.583H232.862C230.161 199.583 228.239 199.186 227.079 198.423C226.932 198.32 226.815 198.217 226.727 198.129C226.257 198.775 225.714 199.333 225.097 199.817L224.187 198.629C224.833 198.188 225.361 197.66 225.787 197.043C225.244 196.221 224.804 195.208 224.451 194.005L225.626 193.579C225.875 194.46 226.154 195.208 226.477 195.81C226.873 194.885 227.108 193.829 227.196 192.654H224.554V191.597C225.347 190.57 226.066 189.484 226.741 188.339H224.554V187.017H228.297V188.162C227.637 189.395 226.991 190.467 226.345 191.392H228.473V192.229C228.415 194.107 228.048 195.722 227.372 197.073C227.549 197.249 227.739 197.395 227.945 197.513C228.899 198.041 230.338 198.32 232.261 198.35ZM250.11 189.484V196.603H248.701V190.849H242.066V196.617H240.657V189.484H244.4C244.488 189.058 244.576 188.632 244.635 188.192H238.91V186.871H251.916V188.192H246.147C246.059 188.632 245.971 189.073 245.853 189.484H250.11ZM246.484 196.441C248.363 197.043 250.081 197.777 251.622 198.643L250.756 199.964C249.112 198.966 247.439 198.173 245.721 197.601L246.484 196.441ZM244.708 191.553H246.117V193.887C246.029 195.517 245.501 196.823 244.532 197.806C243.593 198.717 242.037 199.406 239.894 199.906L239.101 198.658C241.244 198.188 242.697 197.601 243.461 196.882C244.224 196.118 244.635 195.12 244.708 193.887V191.553ZM253.516 186.871H266.668V188.206H260.884C260.767 188.735 260.62 189.249 260.429 189.748H265.978V199.964H264.628V199.348H255.6V199.964H254.25V189.748H259.02C259.211 189.249 259.358 188.735 259.461 188.206H253.516V186.871ZM255.6 198.056H257.273V191.025H255.6V198.056ZM258.58 198.056H261.604V196.471H258.58V198.056ZM262.91 198.056H264.628V191.025H262.91V198.056ZM258.58 195.282H261.604V193.755H258.58V195.282ZM258.58 192.551H261.604V191.025H258.58V192.551Z" fill="#4E5969"/>
</g>
<rect x="431" y="280" width="126" height="48" rx="8" fill="#4FAE7B"/>
<path d="M461.138 295.168L462.398 295.6C462.02 296.32 461.606 296.968 461.174 297.544H466.034V298.804H449.924V297.544H454.856C454.496 296.788 454.118 296.122 453.686 295.51L455.054 295.276C455.45 295.942 455.846 296.698 456.242 297.544H459.752C460.274 296.788 460.742 295.996 461.138 295.168ZM456.17 311.692H454.748L454.406 310.414L455.756 310.468C456.224 310.468 456.458 310.162 456.458 309.568V307.894H452.444V311.836H451.184V300.262H457.718V309.856C457.718 311.08 457.196 311.692 456.17 311.692ZM452.444 306.742H456.458V304.69H452.444V306.742ZM452.444 303.538H456.458V301.468H452.444V303.538ZM463.172 311.638H460.778L460.508 310.396C461.264 310.45 462.002 310.486 462.722 310.486C463.226 310.486 463.478 310.198 463.478 309.658V299.758H464.774V309.982C464.774 311.08 464.234 311.638 463.172 311.638ZM459.734 301.108H460.994V308.866H459.734V301.108ZM471.47 295.33L472.604 295.87C471.686 297.796 470.174 299.506 468.086 301L467.708 299.722C469.436 298.426 470.678 296.968 471.47 295.33ZM471.938 299.902L473.054 300.406C472.622 301.324 472.064 302.188 471.416 302.998V311.692H470.156V304.366C469.58 304.906 468.932 305.446 468.248 305.95L467.87 304.708C469.724 303.304 471.074 301.702 471.938 299.902ZM473.252 298.408H478.058C477.662 297.454 477.212 296.536 476.69 295.654L477.95 295.312C478.526 296.338 478.958 297.274 479.246 298.138L478.544 298.408H483.782V299.65H479.192V304.042H483.314V305.248H479.192V310.108H484.142V311.35H472.64V310.108H477.878V305.248H473.702V304.042H477.878V299.65H473.252V298.408ZM492.71 302.224H488.876V309.658C488.876 310.072 489.092 310.288 489.56 310.288H492.998C493.61 310.288 494.006 310.126 494.15 309.838C494.312 309.496 494.438 308.83 494.51 307.84L495.734 308.236C495.608 309.766 495.374 310.702 495.05 311.062C494.762 311.35 494.186 311.494 493.34 311.494H489.056C488.048 311.494 487.562 311.026 487.562 310.108V301.072H493.97V305.86C493.952 306.832 493.448 307.336 492.458 307.372C491.774 307.372 491.108 307.354 490.478 307.318L490.154 306.094C490.838 306.166 491.45 306.202 491.99 306.202C492.458 306.202 492.71 305.95 492.71 305.464V302.224ZM490.424 295.456H491.378C492.944 297.112 494.456 298.858 495.896 300.694L495.05 301.594C493.502 299.542 492.152 297.904 491 296.68C489.668 298.66 488.138 300.478 486.374 302.134L485.618 301.09C487.382 299.488 488.984 297.616 490.424 295.456ZM496.958 296.878H498.218V308.092H496.958V296.878ZM499.964 311.638H497.174L496.886 310.396C497.804 310.45 498.686 310.486 499.514 310.486C499.964 310.486 500.198 310.216 500.198 309.676V295.348H501.494V310C501.494 311.08 500.972 311.638 499.964 311.638ZM518.72 302.674H514.868V304.114H519.08V305.176H514.868V306.67H519.602V307.768H514.868V309.55H513.608V307.768H509.522V306.67H513.608V305.176H510.08V304.114H513.608V302.674H510.458V301.594H513.608V300.154H509.576V299.074H513.608V297.652H510.458V296.572H513.608V295.258H514.868V296.572H518.72V299.074H519.926V300.154H518.72V302.674ZM514.868 297.652V299.074H517.46V297.652H514.868ZM514.868 300.154V301.594H517.46V300.154H514.868ZM514.022 310.198C516.002 310.198 518.036 310.162 520.124 310.108L519.908 311.35H514.58C511.34 311.35 509.018 310.882 507.614 309.946C507.38 309.766 507.182 309.604 507.002 309.424C506.426 310.27 505.706 311.008 504.878 311.638L504.032 310.54C504.878 309.928 505.58 309.208 506.156 308.38C505.454 307.372 504.878 306.094 504.446 304.546L505.526 304.15C505.886 305.428 506.318 306.472 506.786 307.264C507.398 305.986 507.758 304.492 507.866 302.782H504.536V301.774C505.58 300.442 506.552 299.002 507.416 297.454H504.464V296.23H508.874V297.292C507.974 298.948 507.074 300.37 506.21 301.594H509.036V302.368C508.964 304.744 508.478 306.76 507.614 308.416C507.902 308.722 508.19 308.956 508.496 309.136C509.72 309.82 511.574 310.162 514.022 310.198Z" fill="white"/>
<path fill-rule="evenodd" clip-rule="evenodd" d="M535.485 311.971L534.071 310.556L541.142 303.485L534.071 296.414L535.485 295L543.263 302.778C543.263 302.778 543.263 302.778 542.556 303.485L543.263 302.778L543.971 303.485L535.485 311.971Z" fill="white"/>
<mask id="mask0_1972_9932" style="mask-type:alpha" maskUnits="userSpaceOnUse" x="808" y="372" width="264" height="203">
<path d="M1066.07 389.105C1087.64 421.872 1037.92 562.463 992.591 572.503C947.265 582.544 939.139 557.822 877.625 568.547C837.565 575.531 810.361 538.281 808.962 500.672C808.213 480.532 835.677 413.24 851.719 399.632C887.323 376.742 1044.5 356.337 1066.07 389.105Z" fill="white"/>
</mask>
<g mask="url(#mask0_1972_9932)">
<mask id="mask1_1972_9932" style="mask-type:alpha" maskUnits="userSpaceOnUse" x="821" y="445" width="164" height="150">
<path d="M905.209 458.957C896.855 495.068 891.609 519.485 889.469 532.209C888.989 535.058 888.396 538.875 887.689 543.661C887.519 544.805 887.062 545.887 886.358 546.805C885.655 547.723 884.73 548.447 883.669 548.909C880.737 550.185 878.322 551.015 876.422 551.399C864.683 553.77 850.773 551.311 842.101 547.299C830.543 541.952 826.438 549.886 824.348 555.163C822.259 560.439 817.402 570.322 829.751 575.17C842.101 580.017 867.323 592.543 916.492 593.862C965.66 595.181 976.64 591.255 981.417 573.557C986.195 555.858 984.21 535.577 982.568 499.457C981.758 481.632 980.45 468.225 978.644 459.236C978.14 456.729 976.941 454.415 975.184 452.557C973.426 450.7 971.181 449.375 968.706 448.733C961.52 446.871 952.771 445.939 942.462 445.939C932.023 445.939 922.939 446.894 915.212 448.803C912.77 449.407 910.542 450.675 908.777 452.467C907.011 454.26 905.776 456.506 905.209 458.957Z" fill="white"/>
</mask>
<g mask="url(#mask1_1972_9932)">
<path d="M905.209 458.957C896.855 495.068 891.609 519.485 889.469 532.209C888.989 535.058 888.396 538.875 887.689 543.661C887.519 544.805 887.062 545.887 886.358 546.805C885.655 547.723 884.73 548.447 883.669 548.909C880.737 550.185 878.322 551.015 876.422 551.399C864.683 553.77 850.773 551.311 842.101 547.299C830.543 541.952 826.438 549.886 824.348 555.163C822.259 560.439 817.402 570.322 829.751 575.17C842.101 580.017 867.323 592.543 916.492 593.862C965.66 595.181 976.64 591.255 981.417 573.557C986.195 555.858 984.21 535.577 982.568 499.457C981.758 481.632 980.45 468.225 978.644 459.236C978.14 456.729 976.941 454.415 975.184 452.557C973.426 450.7 971.181 449.375 968.706 448.733C961.52 446.871 952.771 445.939 942.462 445.939C932.023 445.939 922.939 446.894 915.212 448.803C912.77 449.407 910.542 450.675 908.777 452.467C907.011 454.26 905.776 456.506 905.209 458.957Z" fill="#01133B"/>
<path fill-rule="evenodd" clip-rule="evenodd" d="M976.768 454.604C975.199 452.331 973.341 451.194 971.193 451.194C967.972 451.194 964.127 454.659 964.127 466.103C964.127 477.547 968.91 551.901 960.095 559.822C951.28 567.744 936.097 562.903 926.441 561.032C916.785 559.161 910.699 559.822 899.605 559.822C888.512 559.822 851.837 553.073 843.187 547.467C843.372 541.457 849.725 526.004 862.245 501.107C880.78 471.384 890.047 455.884 890.047 454.604C890.047 453.326 902.588 448.024 927.669 438.701L977.815 443.009L976.768 454.604Z" fill="#01133B" stroke="white" stroke-width="0.972632"/>
<path fill-rule="evenodd" clip-rule="evenodd" d="M829.751 575.17C854.421 583.129 873.224 587.108 886.159 587.108C896.388 587.108 904.976 586.843 911.926 586.313C915.423 586.046 918.939 586.24 922.386 586.889C939.604 590.131 953.565 590.899 964.268 589.195C981.937 586.38 984.129 569.303 984.41 558.82C989.409 557.601 996.676 568.29 1006.21 590.884L958.909 601.74L861.392 600.689L815.964 584.651L829.751 575.17Z" fill="#3351E5"/>
</g>
<path d="M1041.11 447.979C1041.71 443.999 1042.09 441.416 1042.25 440.231C1042.53 438.253 1042.92 435.354 1045.39 432.935C1049.7 428.728 1052 424.024 1052.2 418.287C1052.56 408.021 1044.53 399.408 1034.26 399.049C1023.99 398.689 1015.38 406.72 1015.02 416.986C1014.8 423.383 1017.44 428.277 1021.89 432.63C1024.34 435.022 1024.37 438.411 1024.59 440.407C1024.7 441.38 1024.91 443.723 1025.22 447.439C1025.34 448.892 1025.99 450.249 1027.05 451.255C1028.1 452.261 1029.49 452.844 1030.95 452.895L1035.01 453.037C1036.47 453.089 1037.9 452.602 1039.02 451.669C1040.15 450.736 1040.89 449.423 1041.11 447.979Z" stroke="#01133B" stroke-width="0.972632" stroke-linecap="round" stroke-linejoin="round"/>
<path d="M1024.94 439.367L1042.01 439.963M1025.64 422.197L1030.87 439.574M1042.6 422.79L1036.17 439.758" stroke="#01133B" stroke-width="0.972632" stroke-linecap="round" stroke-linejoin="round"/>
<path d="M1025.64 422.196C1028.07 422.601 1031.5 421.374 1031.63 417.611C1031.76 413.848 1029.85 412.354 1028.36 412.75C1026.87 413.147 1025.09 415.16 1027.47 418.751C1029.85 422.343 1036.48 423.283 1039.85 417.898C1043.21 412.514 1038.46 408.823 1035.64 412.249C1032.83 415.674 1033.12 423.436 1042.6 422.789" stroke="#4FAE7B" stroke-width="1.94526" stroke-linecap="round" stroke-linejoin="round"/>
<path d="M1041.56 443.064L1025.41 444.908M1041.07 446.824L1025.61 448.588" stroke="#01133B" stroke-width="0.972632" stroke-linecap="round" stroke-linejoin="round"/>
<path fill-rule="evenodd" clip-rule="evenodd" d="M1032.8 394.254C1035.15 394.336 1037.43 383.68 1037.51 381.318C1037.59 378.956 1035.75 376.974 1033.4 376.891C1031.05 376.809 1029.07 378.657 1028.99 381.02C1028.91 383.382 1030.44 394.172 1032.8 394.254ZM1013.44 402.718C1015.24 401.206 1009.81 391.759 1008.29 389.948C1006.77 388.137 1004.07 387.895 1002.27 389.407C1000.47 390.92 1000.24 393.614 1001.76 395.426C1003.28 397.237 1011.64 404.23 1013.44 402.718ZM1052.56 402.311C1050.87 400.676 1056.95 391.633 1058.59 389.932C1060.23 388.232 1062.94 388.179 1064.63 389.814C1066.32 391.449 1066.37 394.153 1064.72 395.854C1063.08 397.554 1054.26 403.946 1052.56 402.311Z" fill="#4FAE7B"/>
<path fill-rule="evenodd" clip-rule="evenodd" d="M936.652 552.398C938.311 543.863 932.874 535.559 924.39 533.67L849.057 516.892C840.057 514.888 831.135 520.561 829.129 529.562C829.099 529.696 829.072 529.83 829.045 529.965C827.222 539.216 833.241 548.192 842.49 550.014L842.532 550.022L918.34 564.753C926.807 566.398 935.005 560.867 936.652 552.398Z" fill="white" stroke="#01133B" stroke-width="0.972632" stroke-linecap="round" stroke-linejoin="round"/>
<path fill-rule="evenodd" clip-rule="evenodd" d="M947.833 541.46L946.402 553.642C945.002 565.558 934.324 574.164 922.384 573L858.407 566.76L828.918 632.994C825.75 640.107 817.418 643.306 810.305 640.14C803.193 636.973 799.995 628.64 803.162 621.527L836.137 544.174C837.112 541.887 838.723 539.928 840.779 538.529C842.835 537.131 845.249 536.353 847.734 536.286L911.483 534.594L947.833 541.46Z" fill="white" stroke="#01133B" stroke-width="0.972632" stroke-linecap="round" stroke-linejoin="round"/>
<path d="M937.195 540.124L934.535 551.511C932.811 558.895 925.834 563.818 918.301 562.968L849.77 555.23L830.24 598.918" stroke="#01133B" stroke-width="0.972632" stroke-linecap="round" stroke-linejoin="round"/>
<path d="M932.998 554.327C929.803 553.415 927.005 551.458 925.054 548.769C923.103 546.08 922.11 542.813 922.235 539.493L922.301 537.726" stroke="#01133B" stroke-width="0.972632" stroke-linecap="round" stroke-linejoin="round"/>
<path d="M932.269 556.873C924.796 554.721 919.78 547.718 920.145 539.947L920.276 537.147" stroke="#01133B" stroke-width="0.389053" stroke-linecap="round" stroke-linejoin="round" stroke-dasharray="1.16 1.16"/>
<path fill-rule="evenodd" clip-rule="evenodd" d="M848.169 516.78C838.623 515.183 829.592 521.629 827.997 531.176C827.781 532.473 827.711 533.79 827.789 535.102L833.356 629.007L863.443 627.041L859.848 535.182" fill="white"/>
<path d="M848.169 516.78C838.623 515.183 829.592 521.629 827.997 531.176C827.781 532.473 827.711 533.79 827.789 535.102L833.356 629.007L863.443 627.041L859.848 535.182" stroke="#01133B" stroke-width="0.972632" stroke-linecap="round" stroke-linejoin="round"/>
<path d="M874.243 535.182L850.916 529.033C850.079 528.813 849.202 528.793 848.356 528.974C847.51 529.156 846.718 529.535 846.046 530.08C845.374 530.624 844.839 531.32 844.486 532.11C844.133 532.9 843.971 533.762 844.013 534.626L846.901 593.9" stroke="#01133B" stroke-width="0.972632" stroke-linecap="round" stroke-linejoin="round"/>
<path fill-rule="evenodd" clip-rule="evenodd" d="M1002.47 470.722L983.194 524.59C981.45 531.321 968.524 534.213 961.794 532.47C957.66 531.398 954.59 528.373 952.773 524.262L951.218 520.498L947.831 541.468L902.888 533.081L898.585 526.947L883.406 519.113C877.321 516.778 869.09 490.043 871.426 483.958L890.769 460.608C891.808 459.353 893.125 458.358 894.616 457.701C896.106 457.044 897.73 456.743 899.357 456.822L932.144 458.415L954.767 463.376C956.753 463.812 958.571 464.816 959.997 466.266L968.535 474.945L976.21 451.131" fill="white"/>
<path d="M1002.47 470.722L983.194 524.59C981.45 531.321 968.524 534.213 961.794 532.47C957.66 531.398 954.59 528.373 952.773 524.262L951.218 520.498L947.831 541.468L902.888 533.081L898.585 526.947L883.406 519.113C877.321 516.778 869.09 490.043 871.426 483.958L890.769 460.608C891.808 459.353 893.125 458.358 894.616 457.701C896.106 457.044 897.73 456.743 899.357 456.822L932.144 458.415L954.767 463.376C956.753 463.812 958.571 464.816 959.997 466.266L968.535 474.945L976.21 451.131M951.087 521.542L954.463 499.641" stroke="#01133B" stroke-width="0.972632" stroke-linecap="round" stroke-linejoin="round"/>
<path d="M920.298 463.288L928.814 475.816L944 467.101" stroke="#01133B" stroke-width="0.972632" stroke-linecap="round" stroke-linejoin="round"/>
<path fill-rule="evenodd" clip-rule="evenodd" d="M973.444 463.733L1001.93 470.963L1011.23 445.396L982.581 434.968L973.444 463.733Z" fill="white"/>
<path fill-rule="evenodd" clip-rule="evenodd" d="M1002.27 471.373L1021.65 419.749C1022.08 418.596 1022.04 417.318 1021.53 416.196C1021.02 415.075 1020.09 414.201 1018.94 413.768L1018.89 413.752C1017.71 413.32 1016.4 413.363 1015.24 413.872C1014.09 414.381 1013.17 415.317 1012.69 416.483L1002.26 441.748" fill="white"/>
<path d="M1002.27 471.373L1021.65 419.749C1022.08 418.596 1022.04 417.318 1021.53 416.196C1021.02 415.075 1020.09 414.201 1018.94 413.768L1018.89 413.752C1017.71 413.32 1016.4 413.363 1015.24 413.872C1014.09 414.381 1013.17 415.317 1012.69 416.483L1002.26 441.748" stroke="#01133B" stroke-width="0.972632" stroke-linecap="round" stroke-linejoin="round"/>
<path fill-rule="evenodd" clip-rule="evenodd" d="M1007.2 458.326L1010.11 450.687C1012.67 443.984 1009.51 436.451 1002.94 433.578L985.696 426.041C984.731 425.619 983.64 425.582 982.649 425.939C981.658 426.295 980.841 427.018 980.365 427.958C980.137 428.408 980.002 428.9 979.969 429.404C979.935 429.908 980.004 430.414 980.17 430.89C980.336 431.367 980.597 431.806 980.937 432.179C981.276 432.553 981.688 432.855 982.147 433.066L996.519 439.685" fill="white"/>
<path d="M1007.2 458.326L1010.11 450.687C1012.67 443.984 1009.51 436.451 1002.94 433.578L985.696 426.041C984.731 425.619 983.64 425.582 982.649 425.939C981.658 426.295 980.841 427.018 980.365 427.958C980.137 428.408 980.002 428.9 979.969 429.404C979.935 429.908 980.004 430.414 980.17 430.89C980.336 431.367 980.597 431.806 980.937 432.179C981.276 432.553 981.688 432.855 982.147 433.066L996.519 439.685" stroke="#01133B" stroke-width="0.972632" stroke-linecap="round" stroke-linejoin="round"/>
<path fill-rule="evenodd" clip-rule="evenodd" d="M996.52 439.685L982.085 433.038C981.155 432.61 980.095 432.563 979.13 432.906C978.166 433.25 977.375 433.957 976.925 434.877C976.707 435.325 976.58 435.812 976.552 436.309C976.525 436.806 976.597 437.304 976.765 437.773C976.933 438.242 977.194 438.673 977.531 439.04C977.868 439.407 978.275 439.702 978.728 439.909L993.624 446.713" fill="white"/>
<path d="M996.52 439.685L982.085 433.038C981.155 432.61 980.095 432.563 979.13 432.906C978.166 433.25 977.375 433.957 976.925 434.877C976.707 435.325 976.58 435.812 976.552 436.309C976.525 436.806 976.597 437.304 976.765 437.773C976.933 438.242 977.194 438.673 977.531 439.04C977.868 439.407 978.275 439.702 978.728 439.909L993.624 446.713" stroke="#01133B" stroke-width="0.972632" stroke-linecap="round" stroke-linejoin="round"/>
<path fill-rule="evenodd" clip-rule="evenodd" d="M993.624 446.714L978.676 439.885C978.226 439.68 977.741 439.565 977.248 439.548C976.754 439.53 976.262 439.61 975.8 439.782C975.337 439.954 974.913 440.216 974.552 440.553C974.19 440.889 973.899 441.294 973.693 441.743L973.688 441.754C973.275 442.666 973.24 443.705 973.592 444.643C973.943 445.58 974.652 446.341 975.563 446.757L990.511 453.584" fill="white"/>
<path d="M993.624 446.714L978.676 439.885C978.226 439.68 977.741 439.565 977.248 439.548C976.754 439.53 976.262 439.61 975.8 439.782C975.337 439.954 974.913 440.216 974.552 440.553C974.19 440.889 973.899 441.294 973.693 441.743L973.688 441.754C973.275 442.666 973.24 443.705 973.592 444.643C973.943 445.58 974.652 446.341 975.563 446.757L990.511 453.584" stroke="#01133B" stroke-width="0.972632" stroke-linecap="round" stroke-linejoin="round"/>
<path fill-rule="evenodd" clip-rule="evenodd" d="M990.511 453.585L976.046 446.978C975.015 446.507 973.838 446.465 972.776 446.861C971.713 447.257 970.851 448.059 970.38 449.09L970.368 449.116L968.905 452.374C968.603 453.048 968.439 453.775 968.424 454.513C968.408 455.251 968.542 455.985 968.816 456.67C969.091 457.356 969.501 457.979 970.021 458.502C970.542 459.026 971.162 459.439 971.846 459.717L975.064 461.03C975.425 461.177 975.811 461.25 976.2 461.245C976.589 461.24 976.974 461.158 977.33 461.002C977.687 460.846 978.009 460.62 978.276 460.337C978.544 460.055 978.753 459.721 978.889 459.357C979.171 458.606 979.149 457.775 978.827 457.041C978.505 456.306 977.91 455.726 977.168 455.424L975.512 454.751" fill="white"/>
<path d="M990.511 453.585L976.046 446.978C975.015 446.507 973.838 446.465 972.776 446.861C971.713 447.257 970.851 448.059 970.38 449.09L970.368 449.116L968.905 452.374C968.603 453.048 968.439 453.775 968.424 454.513C968.408 455.251 968.542 455.985 968.816 456.67C969.091 457.356 969.501 457.979 970.021 458.502C970.542 459.026 971.162 459.439 971.846 459.717L975.064 461.03C975.425 461.177 975.811 461.25 976.2 461.245C976.589 461.24 976.974 461.158 977.33 461.002C977.687 460.846 978.009 460.62 978.276 460.337C978.544 460.055 978.753 459.721 978.889 459.357C979.171 458.606 979.149 457.775 978.827 457.041C978.505 456.306 977.91 455.726 977.168 455.424L975.512 454.751" stroke="#01133B" stroke-width="0.972632" stroke-linecap="round" stroke-linejoin="round"/>
<path fill-rule="evenodd" clip-rule="evenodd" d="M939.571 461.259L941.717 446L927.759 444.04L925.613 459.299" fill="white"/>
<path d="M939.571 461.259L941.717 446L927.759 444.04L925.613 459.299" stroke="#01133B" stroke-width="0.972632" stroke-linecap="round" stroke-linejoin="round"/>
<mask id="mask2_1972_9932" style="mask-type:alpha" maskUnits="userSpaceOnUse" x="925" y="444" width="17" height="23">
<path d="M941.717 445.999L927.76 444.04L925.774 458.162C925.232 462.017 927.916 465.582 931.77 466.122C935.624 466.663 939.188 463.977 939.73 460.121L941.717 445.999Z" fill="white"/>
</mask>
<g mask="url(#mask2_1972_9932)">
<path d="M937.94 453.021C929.233 451.798 923.094 444.27 924.228 436.207C925.362 428.144 933.339 422.599 942.046 423.822C950.752 425.044 956.891 432.572 955.757 440.636C954.623 448.699 946.646 454.244 937.94 453.021Z" fill="#01133B"/>
</g>
<path fill-rule="evenodd" clip-rule="evenodd" d="M872.011 483.249L867.861 488.435C865.976 490.79 864.636 493.532 863.935 496.466C863.235 499.4 863.192 502.452 863.809 505.404L875.436 561.026C875.651 562.055 876.267 562.958 877.147 563.534C878.027 564.11 879.1 564.313 880.13 564.098L880.202 564.082C880.718 563.964 881.206 563.746 881.638 563.439C882.07 563.133 882.437 562.744 882.718 562.296C883 561.847 883.19 561.348 883.279 560.826C883.367 560.304 883.352 559.769 883.234 559.253L883.232 559.244L879.194 541.76" fill="white"/>
<path d="M872.011 483.249L867.861 488.435C865.976 490.79 864.636 493.532 863.935 496.466C863.235 499.4 863.192 502.452 863.809 505.404L875.436 561.026C875.651 562.055 876.267 562.958 877.147 563.534C878.027 564.11 879.1 564.313 880.13 564.098L880.202 564.082C880.718 563.964 881.206 563.746 881.638 563.439C882.07 563.133 882.437 562.744 882.718 562.296C883 561.847 883.19 561.348 883.279 560.826C883.367 560.304 883.352 559.769 883.234 559.253L883.232 559.244L879.194 541.76" stroke="#01133B" stroke-width="0.972632" stroke-linecap="round" stroke-linejoin="round"/>
<path fill-rule="evenodd" clip-rule="evenodd" d="M899.597 534.417L903.839 539.202C904.189 539.596 904.614 539.915 905.091 540.14C905.567 540.364 906.084 540.489 906.61 540.507C907.137 540.526 907.661 540.437 908.152 540.246C908.643 540.055 909.089 539.767 909.465 539.398C910.252 538.625 910.711 537.58 910.749 536.478C910.787 535.376 910.4 534.302 909.669 533.477L898.865 521.291" fill="white"/>
<path d="M899.597 534.417L903.839 539.202C904.189 539.596 904.614 539.915 905.091 540.14C905.567 540.364 906.084 540.489 906.61 540.507C907.137 540.526 907.661 540.437 908.152 540.246C908.643 540.055 909.089 539.767 909.465 539.398C910.252 538.625 910.711 537.58 910.749 536.478C910.787 535.376 910.4 534.302 909.669 533.477L898.865 521.291" stroke="#01133B" stroke-width="0.972632" stroke-linecap="round" stroke-linejoin="round"/>
<path fill-rule="evenodd" clip-rule="evenodd" d="M879.193 541.757L883.252 559.336C883.369 559.84 883.583 560.315 883.884 560.736C884.185 561.156 884.566 561.513 885.006 561.786C885.445 562.058 885.934 562.241 886.444 562.324C886.954 562.407 887.476 562.388 887.979 562.269C888.999 562.026 889.882 561.389 890.435 560.498C890.988 559.606 891.165 558.532 890.929 557.51L886.868 539.927" fill="white"/>
<path d="M879.193 541.757L883.252 559.336C883.369 559.84 883.583 560.315 883.884 560.736C884.185 561.156 884.566 561.513 885.006 561.786C885.445 562.058 885.934 562.241 886.444 562.324C886.954 562.407 887.476 562.388 887.979 562.269C888.999 562.026 889.882 561.389 890.435 560.498C890.988 559.606 891.165 558.532 890.929 557.51L886.868 539.927" stroke="#01133B" stroke-width="0.972632" stroke-linecap="round" stroke-linejoin="round"/>
<path fill-rule="evenodd" clip-rule="evenodd" d="M886.87 539.925L890.915 557.44C891.152 558.464 891.786 559.353 892.678 559.911C893.57 560.469 894.646 560.649 895.672 560.413L895.721 560.401C896.76 560.147 897.658 559.494 898.219 558.582C898.78 557.671 898.96 556.576 898.719 555.533L894.665 537.983" fill="white"/>
<path d="M886.87 539.925L890.915 557.44C891.152 558.464 891.786 559.353 892.678 559.911C893.57 560.469 894.646 560.649 895.672 560.413L895.721 560.401C896.76 560.147 897.658 559.494 898.219 558.582C898.78 557.671 898.96 556.576 898.719 555.533L894.665 537.983" stroke="#01133B" stroke-width="0.972632" stroke-linecap="round" stroke-linejoin="round"/>
<path fill-rule="evenodd" clip-rule="evenodd" d="M894.669 537.982L898.684 555.365C898.933 556.443 899.6 557.378 900.538 557.965C901.476 558.551 902.609 558.741 903.687 558.493L903.703 558.489C904.789 558.234 905.731 557.561 906.324 556.616C906.918 555.672 907.115 554.531 906.874 553.442L895.766 503.297" fill="white"/>
<path d="M894.669 537.982L898.684 555.365C898.933 556.443 899.6 557.378 900.538 557.965C901.476 558.551 902.609 558.741 903.687 558.493L903.703 558.489C904.789 558.234 905.731 557.561 906.324 556.616C906.918 555.672 907.115 554.531 906.874 553.442L895.766 503.297" stroke="#01133B" stroke-width="0.972632" stroke-linecap="round" stroke-linejoin="round"/>
<path d="M864.758 500.859L892.362 495.496L900.186 535.725L872.582 541.087L864.758 500.859Z" fill="white"/>
<path fill-rule="evenodd" clip-rule="evenodd" d="M944.933 461.242L932.764 545.556C932.318 548.648 932.654 551.802 933.741 554.73C934.828 557.658 936.632 560.267 938.988 562.318L956.278 577.372L958.558 531.776C964.99 538.964 976.031 539.577 983.219 533.145C985.505 531.1 987.212 528.488 988.168 525.573L1003.93 477.522L966.494 464.963V475.54L966.306 472.305C966.199 470.45 965.488 468.682 964.282 467.268C963.077 465.855 961.443 464.874 959.629 464.475L944.933 461.242Z" fill="#EDEEF2" stroke="#01133B" stroke-width="0.972632" stroke-linecap="round" stroke-linejoin="round"/>
<path d="M964.982 473.175L961.787 487.909M958.573 531.748L953.381 526.747M954.462 463.288L944.88 480.71L953.011 490.151C953.882 491.163 954.424 492.416 954.563 493.744C954.703 495.071 954.434 496.41 953.793 497.581L934.643 532.525" stroke="#01133B" stroke-width="0.972632" stroke-linecap="round" stroke-linejoin="round"/>
<path fill-rule="evenodd" clip-rule="evenodd" d="M963.384 463.288L959.509 476.108L1003.07 494.634L1006.21 477.522L963.384 463.288ZM904.961 521.793L903.874 516.994L921.707 458.143L900.593 456.325C897.876 456.091 895.143 456.5 892.613 457.519C890.084 458.537 887.83 460.137 886.033 462.188L865.384 485.764C863.116 488.354 861.45 491.414 860.508 494.725C859.565 498.036 859.368 501.515 859.932 504.911L864.517 532.526L904.961 521.793Z" fill="#EDEEF2" stroke="#01133B" stroke-width="0.972632" stroke-linecap="round" stroke-linejoin="round"/>
<path d="M898.706 492.635L904.371 519.131" stroke="#01133B" stroke-width="0.972632" stroke-linecap="round" stroke-linejoin="round"/>
<path fill-rule="evenodd" clip-rule="evenodd" d="M859.067 518.292L903.874 510.276L906.194 521.734L863.443 532.525L859.067 518.292Z" fill="#EDEEF2" stroke="#01133B" stroke-width="0.972632" stroke-linecap="round" stroke-linejoin="round"/>
<path d="M912.034 457.07L912.9 475.113L903.777 478.966C902.56 479.48 901.527 480.35 900.812 481.461C900.098 482.572 899.736 483.873 899.774 485.193L900.186 499.641" stroke="#01133B" stroke-width="0.972632" stroke-linecap="round" stroke-linejoin="round"/>
<path fill-rule="evenodd" clip-rule="evenodd" d="M963.883 478.857L997.835 495.496L998.678 492.635L964.193 478.207L963.883 478.857ZM869.245 531.371L869.387 532.166L900.756 525.892L900.186 523.275L869.245 531.371ZM938.766 415.131C931.951 414.173 925.649 418.923 924.69 425.74C924.668 425.897 924.649 426.055 924.633 426.213L924.113 431.324C923.413 438.195 928.267 444.388 935.104 445.349C941.867 446.298 948.121 441.585 949.072 434.821L949.784 429.755C950.78 422.673 945.847 416.126 938.766 415.131Z" fill="#01133B"/>
<path fill-rule="evenodd" clip-rule="evenodd" d="M925.577 428.471L924.434 436.598C923.566 442.769 927.865 448.475 934.034 449.341C940.205 450.208 945.91 445.907 946.778 439.736L947.921 431.609C948.788 425.438 944.49 419.733 938.32 418.866C932.15 418 926.445 422.3 925.577 428.471Z" fill="white" stroke="#01133B" stroke-width="0.972632" stroke-linecap="round" stroke-linejoin="round"/>
<path d="M935.007 443.34C936.014 443.481 937.036 443.217 937.848 442.604C938.661 441.992 939.197 441.082 939.338 440.075" stroke="#01133B" stroke-width="0.972632" stroke-linecap="round" stroke-linejoin="round"/>
<path fill-rule="evenodd" clip-rule="evenodd" d="M945.988 419.312C949.155 418.209 951.268 419.667 952.326 423.685C953.165 426.868 952.525 432.009 947.832 440.244C947.637 440.585 947.774 435.79 947.53 435.378C945.684 432.266 944.505 428.898 943.995 425.274C943.419 421.173 944.083 419.185 945.988 419.312Z" fill="#01133B"/>
<path fill-rule="evenodd" clip-rule="evenodd" d="M947.356 435.564L948.682 435.547C949.097 435.541 949.507 435.631 949.882 435.809C950.256 435.987 950.585 436.249 950.843 436.575C951.1 436.9 951.279 437.28 951.367 437.686C951.454 438.091 951.447 438.511 951.346 438.914C951.095 439.919 950.546 440.825 949.772 441.514C948.998 442.202 948.033 442.641 947.005 442.772L946.33 442.858L947.356 435.564Z" fill="white" stroke="#01133B" stroke-width="0.972632" stroke-linecap="round" stroke-linejoin="round"/>
<path d="M948.571 437.972L948.251 440.243M948.37 439.4L949.551 438.692M934.537 435.6L933.674 438.4L935.208 438.89" stroke="#01133B" stroke-width="0.972632" stroke-linecap="round" stroke-linejoin="round"/>
<path d="M942.324 435.819C941.108 435.649 940.202 434.945 940.301 434.246C940.399 433.548 941.464 433.12 942.68 433.291C943.895 433.461 944.8 434.165 944.702 434.864C944.604 435.562 943.539 435.99 942.324 435.819Z" stroke="#01133B" stroke-width="0.676421" stroke-linecap="round" stroke-linejoin="round"/>
<path d="M942.324 435.82C941.594 435.717 941.083 435.068 941.181 434.37C941.28 433.672 941.95 433.188 942.68 433.291C943.408 433.393 943.92 434.042 943.822 434.74C943.724 435.439 943.053 435.922 942.324 435.82Z" fill="#01133B"/>
<path d="M930.135 434.107C928.919 433.936 928.014 433.231 928.112 432.533C928.21 431.835 929.275 431.407 930.49 431.577C931.705 431.749 932.611 432.453 932.513 433.151C932.415 433.85 931.35 434.278 930.135 434.107Z" stroke="#01133B" stroke-width="0.676421" stroke-linecap="round" stroke-linejoin="round"/>
<path d="M930.135 434.106C929.405 434.004 928.893 433.355 928.992 432.657C929.09 431.958 929.761 431.475 930.49 431.577C931.22 431.68 931.731 432.329 931.632 433.027C931.535 433.725 930.863 434.209 930.135 434.106Z" fill="#01133B"/>
<path fill-rule="evenodd" clip-rule="evenodd" d="M942.298 418.741C933.917 415.484 927.327 414.944 922.529 417.123C915.332 420.39 919.548 432.761 934.636 431.03C944.696 429.877 947.249 425.78 942.298 418.741Z" fill="#01133B"/>
<path fill-rule="evenodd" clip-rule="evenodd" d="M948.366 421.558C947.978 418.075 938.761 411.108 933.265 412.086C929.601 412.739 930.059 416.853 934.639 424.429C944.048 424.837 948.624 423.88 948.366 421.558Z" fill="#01133B"/>
</g>
<path d="M771.424 431.244C771.241 432.033 772.475 437.014 776.712 452.882C778.015 457.824 779.194 460.104 780.537 460.376C781.684 460.625 783.399 459.726 783.249 458.993C782.501 455.644 779.225 438.675 779.333 438.704C779.406 438.753 780.953 440.958 782.83 443.655C787.83 450.973 794.963 460.248 797.997 463.37C803.72 469.177 810.176 473.33 815.975 474.766L818.328 475.366L818.676 477.944C819.352 482.747 821.846 486.592 826.151 489.39C828.823 491.173 833.832 492.427 836.945 492.133C841.361 491.724 845.728 489.021 848.424 485.004C850.21 482.333 850.31 481.637 848.92 481.757C848.059 481.844 847.517 482.248 846.108 483.836C845.182 484.917 843.523 486.467 842.386 487.261C840.706 488.458 840.031 488.711 838.357 488.812C834.729 489.084 829.763 486.485 827.129 482.949C825.8 481.12 824.236 477.148 824.62 476.471C824.712 476.236 825.984 475.911 827.457 475.699C833.051 474.883 838.802 471.654 841.357 467.947C842.915 465.59 843.807 462.159 843.001 461.395C842.568 460.961 842.509 460.859 842.946 461.062C843.873 461.483 843.707 460.486 842.429 458.035C841.565 456.301 841.034 455.697 839.733 454.945C836.803 453.265 832.431 453.512 828.908 455.546C825.283 457.638 821.479 462.659 819.81 467.586C819.409 468.866 818.943 469.955 818.84 470.014C818.738 470.073 817.359 469.502 815.755 468.697C810.269 465.988 804.435 460.701 798.145 452.807C794.872 448.638 788.367 439.82 787.539 438.385C787.203 437.804 788.291 437.951 792.688 439.011C798.884 440.582 799.844 440.665 801.629 440.045C803.291 439.449 803.111 438.505 801.129 437.6C800.276 437.227 796.02 435.858 791.661 434.548C787.337 433.218 782.198 431.583 780.28 430.868C775.214 428.964 771.88 429.113 771.424 431.244ZM834.214 457.311C835.38 457.594 836.535 459.752 836.484 461.558C836.374 464.765 833.057 469.049 829.332 470.653C827.469 471.455 825.027 471.726 824.711 471.18C824.317 470.496 825.924 466.015 827.36 463.683C828.926 461.184 831.422 458.24 832.653 457.529C833.043 457.258 833.763 457.162 834.214 457.311ZM838.234 462.142C838.07 462.647 838.016 462.633 837.945 462.036C837.85 461.635 837.957 461.346 838.119 461.389C838.28 461.432 838.336 461.765 838.234 462.142Z" fill="url(#paint0_linear_1972_9932)"/>
<path d="M812.644 601.56H814.396C814.396 605.28 814.204 608.52 813.82 611.28C815.692 613.272 817.252 615.264 818.548 617.232L817.252 618.552C816.292 616.872 815.02 615.12 813.484 613.272C812.74 617.304 811.084 620.592 808.492 623.184L807.292 621.72C809.548 619.392 811.06 616.464 811.78 612.936C812.356 609.96 812.644 606.168 812.644 601.56ZM822.028 601.536H823.756C823.756 603.936 823.66 606.168 823.492 608.184C824.644 613.896 826.708 618.384 829.636 621.672L828.388 623.16C826.036 620.256 824.236 616.68 822.988 612.432C822.94 612.672 822.916 612.912 822.868 613.152C822.1 617.28 820.324 620.664 817.588 623.328L816.388 621.864C818.764 619.512 820.348 616.56 821.116 613.008C821.692 610.008 822.004 606.192 822.028 601.536ZM840.796 610.632H835.684V620.544C835.684 621.096 835.972 621.384 836.596 621.384H841.18C841.996 621.384 842.524 621.168 842.716 620.784C842.932 620.328 843.1 619.44 843.196 618.12L844.828 618.648C844.66 620.688 844.348 621.936 843.916 622.416C843.532 622.8 842.764 622.992 841.636 622.992H835.924C834.58 622.992 833.932 622.368 833.932 621.144V609.096H842.476V615.48C842.452 616.776 841.78 617.448 840.46 617.496C839.548 617.496 838.66 617.472 837.82 617.424L837.388 615.792C838.3 615.888 839.116 615.936 839.836 615.936C840.46 615.936 840.796 615.6 840.796 614.952V610.632ZM837.748 601.608H839.02C841.108 603.816 843.124 606.144 845.044 608.592L843.916 609.792C841.852 607.056 840.052 604.872 838.516 603.24C836.74 605.88 834.7 608.304 832.348 610.512L831.34 609.12C833.692 606.984 835.828 604.488 837.748 601.608ZM846.46 603.504H848.14V618.456H846.46V603.504ZM850.468 623.184H846.748L846.364 621.528C847.588 621.6 848.764 621.648 849.868 621.648C850.468 621.648 850.78 621.288 850.78 620.568V601.464H852.508V621C852.508 622.44 851.812 623.184 850.468 623.184ZM875.476 611.232H870.34V613.152H875.956V614.568H870.34V616.56H876.652V618.024H870.34V620.4H868.66V618.024H863.212V616.56H868.66V614.568H863.956V613.152H868.66V611.232H864.46V609.792H868.66V607.872H863.284V606.432H868.66V604.536H864.46V603.096H868.66V601.344H870.34V603.096H875.476V606.432H877.084V607.872H875.476V611.232ZM870.34 604.536V606.432H873.796V604.536H870.34ZM870.34 607.872V609.792H873.796V607.872H870.34ZM869.212 621.264C871.852 621.264 874.564 621.216 877.348 621.144L877.06 622.8H869.956C865.636 622.8 862.54 622.176 860.668 620.928C860.356 620.688 860.092 620.472 859.852 620.232C859.084 621.36 858.124 622.344 857.02 623.184L855.892 621.72C857.02 620.904 857.956 619.944 858.724 618.84C857.788 617.496 857.02 615.792 856.444 613.728L857.884 613.2C858.364 614.904 858.94 616.296 859.564 617.352C860.38 615.648 860.86 613.656 861.004 611.376H856.564V610.032C857.956 608.256 859.252 606.336 860.404 604.272H856.468V602.64H862.348V604.056C861.148 606.264 859.948 608.16 858.796 609.792H862.564V610.824C862.468 613.992 861.82 616.68 860.668 618.888C861.052 619.296 861.436 619.608 861.844 619.848C863.476 620.76 865.948 621.216 869.212 621.264ZM889.828 609.312H881.836V607.728H899.332V613.2H891.508V615.552H900.172C900.172 618.384 899.98 620.184 899.62 620.904C899.236 621.72 898.396 622.128 897.1 622.152C896.092 622.152 895.108 622.128 894.148 622.104L893.716 620.472C894.82 620.52 895.876 620.544 896.836 620.544C897.556 620.544 898.012 620.256 898.204 619.728C898.348 619.248 898.42 618.36 898.42 617.064H891.508V623.424H889.828V617.064H889.756C888.172 619.368 885.244 621.336 880.924 622.968L879.94 621.384C883.78 620.112 886.42 618.672 887.86 617.064H881.284L882.388 611.616H889.828V609.312ZM889.828 613.2H883.9L883.324 615.552H889.828V613.2ZM891.508 611.616H897.556V609.312H891.508V611.616ZM883.252 604.584C882.676 605.448 882.028 606.264 881.308 607.008L879.796 606.072C881.332 604.608 882.436 603 883.132 601.224L884.788 601.584C884.572 602.112 884.356 602.592 884.14 603.072H890.524V604.584H886.564C887.164 605.304 887.644 605.976 888.004 606.6L886.444 607.176C885.964 606.288 885.388 605.424 884.716 604.584H883.252ZM893.38 604.512C892.852 605.424 892.276 606.264 891.604 607.032L890.116 606.096C891.46 604.632 892.42 603 893.044 601.224L894.7 601.584C894.532 602.064 894.34 602.544 894.148 603H901.228V604.512H896.884C897.484 605.28 897.964 605.976 898.324 606.624L896.788 607.2C896.308 606.264 895.708 605.376 895.036 604.512H893.38ZM903.7 611.328H925.276V613.056H903.7V611.328ZM937.612 608.496H939.388V623.376H937.612V608.496ZM937.732 601.416H939.268C941.284 604.728 944.74 607.632 949.636 610.152L948.604 611.712C944.092 609.36 940.708 606.48 938.5 603.024C935.836 606.816 932.476 609.744 928.396 611.808L927.364 610.248C931.852 607.968 935.308 605.016 937.732 601.416ZM969.916 606.648V618H968.188V608.328H956.716V618.048H954.988V606.648H961.06C961.3 605.808 961.468 604.944 961.588 604.032H951.94V602.4H973.06V604.032H963.412C963.268 604.944 963.1 605.832 962.86 606.648H969.916ZM964.084 618.048C967.18 619.104 970.012 620.352 972.556 621.84L971.5 623.472C968.764 621.768 965.98 620.424 963.124 619.464L964.084 618.048ZM961.612 609.768H963.388V613.584C963.292 616.224 962.428 618.312 960.844 619.896C959.308 621.36 956.788 622.488 953.284 623.304L952.3 621.768C955.78 621 958.204 619.992 959.572 618.72C960.868 617.4 961.54 615.696 961.612 613.584V609.768ZM975.82 602.352H997.18V604.032H987.556C987.364 605.088 987.052 606.12 986.668 607.104H995.884V623.472H994.228V622.272H978.844V623.472H977.188V607.104H984.916C985.3 606.096 985.612 605.088 985.804 604.032H975.82V602.352ZM978.844 620.688H982.156V608.664H978.844V620.688ZM983.764 620.688H989.236V617.616H983.764V620.688ZM990.844 620.688H994.228V608.664H990.844V620.688ZM983.764 616.104H989.236V613.176H983.764V616.104ZM983.764 611.64H989.236V608.664H983.764V611.64ZM1001.19 602.832H1019.88V604.512H1015.88V610.872H1021.13V612.528H1015.88V623.16H1014.12V612.528H1007.19C1006.97 615 1006.52 617.04 1005.8 618.672C1004.88 620.688 1003.37 622.248 1001.26 623.352L1000.32 621.864C1002.27 620.76 1003.64 619.296 1004.4 617.472C1004.91 616.08 1005.24 614.448 1005.44 612.528H999.892V610.872H1005.53C1005.53 610.56 1005.56 610.272 1005.56 610.032V604.512H1001.19V602.832ZM1007.33 604.512V610.032C1007.33 610.32 1007.31 610.608 1007.31 610.872H1014.12V604.512H1007.33ZM1026.44 601.296L1028.14 601.44C1027.92 603.072 1027.71 604.584 1027.49 605.976H1031.04V606.984C1030.85 610.872 1030.18 614.208 1029.03 617.04C1030.16 618.216 1031.09 619.272 1031.81 620.232L1030.66 621.576C1029.99 620.688 1029.2 619.728 1028.26 618.72C1027.3 620.544 1026.12 622.128 1024.68 623.472L1023.6 622.104C1025.02 620.808 1026.17 619.272 1027.08 617.448C1026.12 616.464 1025.09 615.456 1023.99 614.4C1024.56 612.312 1025.07 610.056 1025.5 607.632H1023.58V605.976H1025.79C1026.03 604.464 1026.24 602.904 1026.44 601.296ZM1027.8 615.792C1028.72 613.392 1029.24 610.68 1029.41 607.632H1027.23C1026.77 610.152 1026.32 612.24 1025.84 613.896C1026.53 614.544 1027.18 615.168 1027.8 615.792ZM1043.72 613.2V623.424H1042.06V621.984H1034.72V623.424H1033.06V613.2H1043.72ZM1034.72 620.352H1042.06V614.784H1034.72V620.352ZM1032.12 611.04L1031.86 609.48C1033.25 608.76 1034.98 606.072 1037.04 601.368L1038.68 601.92C1037.24 605.04 1035.82 607.512 1034.38 609.36C1037.07 609.192 1039.64 608.904 1042.06 608.52C1041.39 607.2 1040.72 605.976 1040.02 604.872L1041.51 604.152C1042.83 606.264 1044.08 608.568 1045.23 611.088L1043.62 611.856C1043.33 611.208 1043.07 610.584 1042.78 609.984C1039.59 610.44 1036.04 610.8 1032.12 611.04ZM855.1 645.368L856.804 645.584C856.612 646.736 856.372 647.84 856.084 648.896H864.508C864.508 657.2 864.364 662.336 864.124 664.256C863.836 666.2 862.708 667.184 860.716 667.184C860.212 667.184 859.348 667.16 858.124 667.112L857.74 665.552C858.796 665.6 859.684 665.648 860.452 665.648C861.604 665.648 862.3 665 862.516 663.752C862.732 662.36 862.852 657.944 862.876 650.504H855.58C854.908 652.352 854.092 654.008 853.132 655.448L852.028 654.008C853.516 651.656 854.548 648.776 855.1 645.368ZM853.132 662.216L852.82 660.8C853.492 660.44 854.668 657.872 856.372 653.072L857.884 653.624C856.708 656.816 855.772 659.048 855.076 660.32C856.516 660.032 857.836 659.744 858.988 659.456C858.652 658.448 858.292 657.536 857.956 656.72L859.396 656.216C860.212 658.088 860.932 660.104 861.556 662.24L860.044 662.912C859.828 662.144 859.612 661.424 859.42 660.752C857.596 661.256 855.484 661.736 853.132 662.216ZM849.052 655.16V667.304H847.348V655.088C846.532 657.536 845.476 659.744 844.132 661.736L843.388 659.864C845.188 657.488 846.46 654.776 847.228 651.752H843.868V650.096H847.348V645.416H849.052V650.096H852.004V651.752H849.052V653.264C850.156 654.416 851.284 655.688 852.436 657.104L851.476 658.568C850.54 657.176 849.724 656.024 849.052 655.16ZM887.476 655.232H882.34V657.152H887.956V658.568H882.34V660.56H888.652V662.024H882.34V664.4H880.66V662.024H875.212V660.56H880.66V658.568H875.956V657.152H880.66V655.232H876.46V653.792H880.66V651.872H875.284V650.432H880.66V648.536H876.46V647.096H880.66V645.344H882.34V647.096H887.476V650.432H889.084V651.872H887.476V655.232ZM882.34 648.536V650.432H885.796V648.536H882.34ZM882.34 651.872V653.792H885.796V651.872H882.34ZM881.212 665.264C883.852 665.264 886.564 665.216 889.348 665.144L889.06 666.8H881.956C877.636 666.8 874.54 666.176 872.668 664.928C872.356 664.688 872.092 664.472 871.852 664.232C871.084 665.36 870.124 666.344 869.02 667.184L867.892 665.72C869.02 664.904 869.956 663.944 870.724 662.84C869.788 661.496 869.02 659.792 868.444 657.728L869.884 657.2C870.364 658.904 870.94 660.296 871.564 661.352C872.38 659.648 872.86 657.656 873.004 655.376H868.564V654.032C869.956 652.256 871.252 650.336 872.404 648.272H868.468V646.64H874.348V648.056C873.148 650.264 871.948 652.16 870.796 653.792H874.564V654.824C874.468 657.992 873.82 660.68 872.668 662.888C873.052 663.296 873.436 663.608 873.844 663.848C875.476 664.76 877.948 665.216 881.212 665.264ZM904.468 658.736H902.548L902.188 657.128C902.788 657.2 903.364 657.248 903.892 657.248C904.324 657.248 904.564 656.936 904.564 656.336V650.24H906.292V656.744C906.292 658.064 905.668 658.736 904.468 658.736ZM894.628 651.848C893.932 652.664 893.212 653.408 892.468 654.08L891.388 652.76C893.548 650.888 895.324 648.416 896.716 645.368L898.396 645.728C897.772 647.12 897.076 648.416 896.308 649.592V658.76H894.628V651.848ZM902.116 645.344L903.748 645.704C903.46 646.352 903.148 646.976 902.86 647.552H912.484V648.632C912.172 649.832 911.788 651.008 911.308 652.16L909.748 651.752C910.156 650.96 910.492 650.096 910.756 649.136H901.9C900.988 650.528 899.932 651.728 898.78 652.784L897.724 651.488C899.524 649.904 900.988 647.864 902.116 645.344ZM894.22 659.984L895.876 660.32C895.3 662.624 894.508 664.64 893.476 666.344L892.012 665.408C893.02 663.776 893.74 661.952 894.22 659.984ZM906.028 667.04H899.884C898.396 667.04 897.676 666.272 897.676 664.736V659.672H899.428V664.376C899.428 665.048 899.74 665.408 900.412 665.408H905.692C906.172 665.408 906.508 665.264 906.724 664.976C907.012 664.64 907.18 663.68 907.276 662.096L908.908 662.624C908.74 664.736 908.428 666.008 907.948 666.464C907.54 666.848 906.892 667.04 906.028 667.04ZM910.108 659.24C911.644 661.352 912.796 663.2 913.612 664.784L912.196 665.792C911.332 664.064 910.156 662.168 908.692 660.104L910.108 659.24ZM901.468 652.544L902.86 653.192C901.948 655.04 900.892 656.648 899.692 657.992L898.372 657.08C899.572 655.784 900.604 654.272 901.468 652.544ZM909.436 652.52C910.588 653.96 911.596 655.568 912.484 657.344L911.02 658.088C910.108 656.216 909.076 654.584 907.972 653.144L909.436 652.52ZM902.668 659.024C903.868 660.392 904.78 661.592 905.404 662.624L904.06 663.56C903.388 662.456 902.476 661.208 901.324 659.864L902.668 659.024ZM924.196 649.544V665.912H922.516V664.544H918.148V666.608H916.468V649.544H918.7C919.18 648.2 919.516 646.808 919.732 645.368L921.46 645.608C921.172 647.024 920.812 648.344 920.332 649.544H924.196ZM918.148 662.936H922.516V657.68H918.148V662.936ZM918.148 656.12H922.516V651.176H918.148V656.12ZM928.372 655.112C930.1 657.104 931.396 658.856 932.308 660.344L930.94 661.304C929.956 659.72 928.636 657.944 926.98 655.976L928.372 655.112ZM936.604 649.568C936.604 657.536 936.484 662.48 936.244 664.352C936.004 666.176 934.9 667.112 932.884 667.112C932.404 667.112 931.588 667.064 930.436 667.016L930.028 665.432C931.036 665.48 931.9 665.504 932.644 665.504C933.772 665.504 934.42 664.88 934.612 663.656C934.756 662.312 934.852 658.16 934.9 651.248H928.3C927.628 652.76 926.836 654.128 925.9 655.352L924.868 653.984C926.548 651.632 927.676 648.752 928.3 645.344L930.004 645.56C929.716 646.976 929.38 648.32 928.948 649.568H936.604ZM943.852 664.688H953.86C955.348 661.28 956.644 657.08 957.748 652.04L959.452 652.496C958.444 657.056 957.22 661.136 955.732 664.688H960.796V666.368H943.852V664.688ZM946.468 653.216C947.428 655.76 948.292 658.712 949.06 662.024L947.428 662.432C946.78 659.408 945.964 656.48 944.956 653.696L946.468 653.216ZM951.1 651.512C951.916 654.152 952.66 657.2 953.332 660.608L951.676 660.992C951.148 657.872 950.452 654.872 949.588 651.992L951.1 651.512ZM951.124 645.2C951.58 645.944 952.012 646.784 952.396 647.696H961.18V649.376H943.396V654.728C943.3 660.008 942.484 664.232 940.924 667.4L939.508 666.128C940.852 663.392 941.572 659.6 941.62 654.728V647.696H950.524C950.14 646.928 949.708 646.208 949.228 645.536L951.124 645.2ZM967.612 653.768V657.968H973.708V653.768H967.612ZM967.516 659.552C967.252 662.624 966.364 665.168 964.828 667.184L963.508 666.008C965.044 663.872 965.836 661.16 965.884 657.872V646.352H983.764V664.328C983.764 666.008 982.924 666.848 981.244 666.848H978.484L978.028 665.144C978.988 665.192 979.876 665.24 980.692 665.24C981.556 665.24 982.012 664.736 982.012 663.728V659.552H975.484V666.584H973.708V659.552H967.516ZM982.012 657.968V653.768H975.484V657.968H982.012ZM982.012 652.16V648.032H975.484V652.16H982.012ZM973.708 648.032H967.612V652.16H973.708V648.032ZM995.068 647.36V664.592H993.388V663.296H990.268V665.096H988.54V647.36H995.068ZM990.268 661.616H993.388V649.04H990.268V661.616ZM1001.67 648.152H998.74V655.688H1001.67V648.152ZM1003.28 655.688H1006.32V648.152H1003.28V655.688ZM1008 646.544V657.296H998.74V663.728C998.74 664.784 999.196 665.336 1000.11 665.336H1005.94C1006.52 665.312 1006.92 665.024 1007.16 664.472C1007.36 664.016 1007.5 662.888 1007.62 661.112L1009.23 661.64C1009.08 663.32 1008.92 664.52 1008.68 665.264C1008.32 666.368 1007.57 666.944 1006.44 666.992H999.46C997.852 666.992 997.06 666.104 997.06 664.328V646.544H1008Z" fill="#4E5969"/>
<defs>
<filter id="filter0_dddd_1972_9932" x="101.55" y="103.541" width="778.899" height="566.055" filterUnits="userSpaceOnUse" color-interpolation-filters="sRGB">
<feFlood flood-opacity="0" result="BackgroundImageFix"/>
<feColorMatrix in="SourceAlpha" type="matrix" values="0 0 0 0 0 0 0 0 0 0 0 0 0 0 0 0 0 0 127 0" result="hardAlpha"/>
<feOffset dy="2.53877"/>
<feGaussianBlur stdDeviation="1.01551"/>
<feColorMatrix type="matrix" values="0 0 0 0 0 0 0 0 0 0 0 0 0 0 0 0 0 0 0.0196802 0"/>
<feBlend mode="normal" in2="BackgroundImageFix" result="effect1_dropShadow_1972_9932"/>
<feColorMatrix in="SourceAlpha" type="matrix" values="0 0 0 0 0 0 0 0 0 0 0 0 0 0 0 0 0 0 127 0" result="hardAlpha"/>
<feOffset dy="6.10101"/>
<feGaussianBlur stdDeviation="2.4404"/>
<feColorMatrix type="matrix" values="0 0 0 0 0 0 0 0 0 0 0 0 0 0 0 0 0 0 0.0282725 0"/>
<feBlend mode="normal" in2="effect1_dropShadow_1972_9932" result="effect2_dropShadow_1972_9932"/>
<feColorMatrix in="SourceAlpha" type="matrix" values="0 0 0 0 0 0 0 0 0 0 0 0 0 0 0 0 0 0 127 0" result="hardAlpha"/>
<feOffset dy="11.4877"/>
<feGaussianBlur stdDeviation="4.59506"/>
<feColorMatrix type="matrix" values="0 0 0 0 0 0 0 0 0 0 0 0 0 0 0 0 0 0 0.035 0"/>
<feBlend mode="normal" in2="effect2_dropShadow_1972_9932" result="effect3_dropShadow_1972_9932"/>
<feColorMatrix in="SourceAlpha" type="matrix" values="0 0 0 0 0 0 0 0 0 0 0 0 0 0 0 0 0 0 127 0" result="hardAlpha"/>
<feOffset dy="91.7431"/>
<feGaussianBlur stdDeviation="36.6972"/>
<feColorMatrix type="matrix" values="0 0 0 0 0 0 0 0 0 0 0 0 0 0 0 0 0 0 0.07 0"/>
<feBlend mode="normal" in2="effect3_dropShadow_1972_9932" result="effect4_dropShadow_1972_9932"/>
<feBlend mode="normal" in="SourceGraphic" in2="effect4_dropShadow_1972_9932" result="shape"/>
</filter>
<linearGradient id="paint0_linear_1972_9932" x1="788.764" y1="420.504" x2="832.469" y2="496.202" gradientUnits="userSpaceOnUse">
<stop stop-color="#4FAE7B"/>
<stop offset="1" stop-color="#008699"/>
</linearGradient>
<clipPath id="clip0_1972_9932">
<rect x="175.404" y="104" width="631.193" height="400" rx="14.6789" fill="white"/>
</clipPath>
<clipPath id="clip1_1972_9932">
<rect width="14.6789" height="14.6789" fill="white" transform="translate(683.202 122.349)"/>
</clipPath>
<clipPath id="clip2_1972_9932">
<rect width="18.3486" height="18.3486" fill="white" transform="translate(729.532 120.514)"/>
</clipPath>
<clipPath id="clip3_1972_9932">
<rect width="11.0092" height="11.0092" fill="white" transform="translate(713.018 425.101)"/>
</clipPath>
<clipPath id="clip4_1972_9932">
<rect width="59" height="21" fill="white" transform="translate(208.431 183.408)"/>
</clipPath>
</defs>
</svg>
