<svg width="16" height="16" viewBox="0 0 16 16" fill="none" xmlns="http://www.w3.org/2000/svg">
<path d="M12.6667 2C13.0203 2 13.3594 2.14048 13.6095 2.39052C13.8595 2.64057 14 2.97971 14 3.33333V10.6667C14 11.0203 13.8595 11.3594 13.6095 11.6095C13.3594 11.8595 13.0203 12 12.6667 12H10V12.6667H10.6667C10.8435 12.6667 11.013 12.7369 11.1381 12.8619C11.2631 12.987 11.3333 13.1565 11.3333 13.3333C11.3333 13.5101 11.2631 13.6797 11.1381 13.8047C11.013 13.9298 10.8435 14 10.6667 14H5.33333C5.15652 14 4.98695 13.9298 4.86193 13.8047C4.7369 13.6797 4.66667 13.5101 4.66667 13.3333C4.66667 13.1565 4.7369 12.987 4.86193 12.8619C4.98695 12.7369 5.15652 12.6667 5.33333 12.6667H6V12H3.33333C2.97971 12 2.64057 11.8595 2.39052 11.6095C2.14048 11.3594 2 11.0203 2 10.6667V3.33333C2 2.97971 2.14048 2.64057 2.39052 2.39052C2.64057 2.14048 2.97971 2 3.33333 2H12.6667ZM8.66667 12H7.33333V12.6667H8.66667V12ZM12.6667 3.33333H3.33333V10.6667H12.6667V3.33333Z" fill="#86909C"/>
<path d="M10.4746 5.35325C10.6698 5.158 10.9864 5.15803 11.1817 5.35325C11.3769 5.54851 11.3769 5.8651 11.1817 6.06036L9.06034 8.18168C8.86507 8.3769 8.54848 8.37693 8.35323 8.18168C8.15802 7.98643 8.15802 7.66982 8.35323 7.47457L10.4746 5.35325ZM6.76777 6.06036C6.96304 5.86521 7.27965 5.86513 7.47487 6.06036C7.66998 6.25559 7.66998 6.57223 7.47487 6.76746L6.06066 8.18168C5.86544 8.3769 5.54882 8.37683 5.35355 8.18168C5.15829 7.98642 5.15829 7.66983 5.35355 7.47457L6.76777 6.06036Z" fill="#86909C"/>
</svg>
