<svg width="18" height="18" viewBox="0 0 18 18" fill="none" xmlns="http://www.w3.org/2000/svg">
<path d="M10.7198 2.46979C11.0127 2.17689 11.4874 2.17689 11.7803 2.46979C12.0732 2.76269 12.0732 3.23746 11.7803 3.53033L9.60455 5.70514L12.294 8.39459L14.4698 6.21979C14.7627 5.92689 15.2374 5.92689 15.5303 6.21979C15.8232 6.51269 15.8232 6.98746 15.5303 7.28033L13.3545 9.45514L14.0303 10.1309C14.1709 10.2715 14.25 10.4624 14.2501 10.6612C14.25 10.8601 14.1709 11.0508 14.0303 11.1915L12.4903 12.7325L12.4893 12.7315C12.0207 13.2161 11.4609 13.604 10.8419 13.8712C10.2184 14.1401 9.54719 14.2825 8.86822 14.2891C8.18925 14.2957 7.51537 14.167 6.88678 13.9102C6.49083 13.7485 6.11829 13.537 5.77642 13.2833L3.53033 15.5303C3.23746 15.8232 2.76268 15.8232 2.46978 15.5303C2.17689 15.2374 2.17689 14.7627 2.46978 14.4698L4.71588 12.2227C4.46243 11.8811 4.25149 11.5089 4.0899 11.1133C3.83313 10.4847 3.70439 9.81088 3.71099 9.1319C3.71765 8.45292 3.85997 7.78172 4.12896 7.15826C4.39613 6.53919 4.78301 5.97849 5.26764 5.50983L6.80865 3.96979L6.92291 3.87604C7.04519 3.79455 7.18981 3.75006 7.33892 3.75006C7.53777 3.75011 7.72859 3.82918 7.8692 3.96979L8.544 4.64459L10.7198 2.46979ZM6.31842 6.58112C5.97264 6.91359 5.69599 7.31159 5.50592 7.75201C5.31585 8.19244 5.2157 8.66688 5.21099 9.14655C5.20634 9.6261 5.29722 10.102 5.47857 10.546C5.65997 10.99 5.92846 11.3933 6.26764 11.7325C6.60681 12.0716 7.01012 12.3402 7.45416 12.5215C7.89812 12.7029 8.37402 12.7938 8.85357 12.7891C9.33323 12.7844 9.80769 12.6843 10.2481 12.4942C10.6885 12.3041 11.0865 12.0275 11.419 11.6817L12.4395 10.6612L7.33892 5.56061L6.31842 6.58112Z" fill="#4E5969"/>
</svg>
