<svg width="16" height="16" viewBox="0 0 16 16" fill="none" xmlns="http://www.w3.org/2000/svg">
<path d="M11.6547 10.001C11.8246 10.0095 11.9892 10.0616 12.1302 10.1514L14.9213 11.9336C15.0482 12.0147 15.1522 12.1242 15.224 12.252C15.2958 12.3797 15.3334 12.5224 15.3334 12.667C15.3333 12.8114 15.2956 12.9535 15.224 13.0811C15.1522 13.2087 15.0481 13.3183 14.9213 13.3994L12.1302 15.1816C11.9891 15.2716 11.8247 15.3235 11.6547 15.332C11.4845 15.3405 11.3149 15.3049 11.1644 15.2295C11.0141 15.1541 10.8879 15.042 10.8002 14.9043C10.7124 14.7665 10.6663 14.608 10.6664 14.4473V10.8857C10.6663 10.7251 10.7126 10.5674 10.8002 10.4297C10.8287 10.3849 10.8627 10.3437 10.8988 10.3047C10.9738 10.2236 11.063 10.1544 11.1644 10.1035C11.3148 10.0281 11.4846 9.99253 11.6547 10.001ZM12.0004 2C13.473 2.00018 14.6664 3.19434 14.6664 4.66699V10.584L12.6683 9.30859L12.557 9.24316C12.3318 9.11971 12.0848 9.04169 11.8314 9.0127L11.7045 9.00293L11.5765 9C11.2793 9.00425 10.9843 9.07554 10.7162 9.20996C10.4479 9.34456 10.2112 9.53986 10.0306 9.78418L9.95642 9.89258C9.79188 10.1512 9.69328 10.4468 9.67126 10.7539L9.66638 10.8857V14H4.00037C2.52761 14 1.33337 12.8058 1.33337 11.333V4.66699C1.33337 3.19423 2.52761 2 4.00037 2H12.0004ZM3.66638 9.33301C3.48236 9.3331 3.33337 9.48295 3.33337 9.66699V11C3.33337 11.184 3.48236 11.3329 3.66638 11.333H8.33337C8.51739 11.3329 8.66638 11.184 8.66638 11V9.66699C8.66638 9.48295 8.51739 9.3331 8.33337 9.33301H3.66638ZM3.66638 4.66699C3.48236 4.66708 3.33337 4.81596 3.33337 5V7C3.33337 7.18404 3.48236 7.33292 3.66638 7.33301H5.66638C5.85048 7.33301 6.00037 7.18409 6.00037 7V5C6.00037 4.81591 5.85048 4.66699 5.66638 4.66699H3.66638ZM7.66638 4.66699C7.48236 4.66708 7.33337 4.81596 7.33337 5V7C7.33337 7.18404 7.48236 7.33292 7.66638 7.33301H12.3334C12.5174 7.33292 12.6664 7.18404 12.6664 7V5C12.6664 4.81596 12.5174 4.66708 12.3334 4.66699H7.66638Z" fill="#272E3B"/>
</svg>
