<svg width="16" height="20" viewBox="0 0 16 20" fill="none" xmlns="http://www.w3.org/2000/svg">
    <path fill-rule="evenodd" clip-rule="evenodd"
        d="M7.99802 20L3.10893 15.2101L4.52315 13.8246L6.99814 16.2494L6.99855 7.83763L8.99855 7.83772L8.99814 16.2491L11.4729 13.8246L12.8871 15.2101L7.99802 20ZM14 10.7768H11V12.7362H14.5C15.3284 12.7362 16 12.0783 16 11.2667V1.46956C16 0.657948 15.3284 0 14.5 0H1.5C0.671573 0 0 0.657948 0 1.46956V11.2667C0 12.0783 0.671573 12.7362 1.5 12.7362H5V10.7768H2V1.95942H14V10.7768Z"
        fill="#4E5969" />
</svg>