<svg width="16" height="20" viewBox="0 0 16 20" fill="none" xmlns="http://www.w3.org/2000/svg">
    <path fill-rule="evenodd" clip-rule="evenodd"
        d="M8.00198 0L12.8911 4.78989L11.4769 6.17541L9.00186 3.75063L9.00145 12.1624L7.00145 12.1623L7.00186 3.75086L4.52711 6.17541L3.11289 4.78989L8.00198 0ZM2 9.22319H5V7.26377H1.5C0.671572 7.26377 0 7.92172 0 8.73334V18.5304C0 19.3421 0.671572 20 1.5 20H14.5C15.3284 20 16 19.3421 16 18.5304V8.73334C16 7.92172 15.3284 7.26377 14.5 7.26377H11V9.22319H14V18.0406H2V9.22319Z"
        fill="white" />
</svg>