<svg width="48" height="48" viewBox="0 0 48 48" fill="none" xmlns="http://www.w3.org/2000/svg">
<g filter="url(#filter0_d_739_6532)">
<rect x="8" y="4" width="32" height="32" rx="8" fill="url(#paint0_linear_739_6532)"/>
</g>
<path d="M23.9666 11C19.0145 11 15 15.0146 15 19.9666C15 24.9187 19.0145 28.9333 23.9666 28.9333C28.9187 28.9333 32.9332 24.9187 32.9332 19.9666C32.9332 15.0145 28.9187 11 23.9666 11ZM23.4721 24.0581L22.9331 24.5799C22.4433 25.0539 21.7997 25.2905 21.1566 25.2905C20.5133 25.2905 19.8702 25.0538 19.3807 24.5801C18.9046 24.1195 18.6427 23.5069 18.6427 22.8552C18.6427 22.2031 18.9046 21.5904 19.3804 21.1295L21.3638 19.2108C22.5968 18.0181 24.0124 17.8467 24.9706 18.7735C25.2289 19.0237 25.2305 19.4311 24.9738 19.6831C24.7172 19.9354 24.2996 19.937 24.0407 19.6864C23.4774 19.1415 22.7043 19.7266 22.2933 20.1242L20.31 22.043C20.0855 22.2597 19.9624 22.5484 19.9624 22.8552C19.9624 23.1617 20.0855 23.4501 20.31 23.667C20.7768 24.1188 21.5364 24.1182 22.0032 23.667L22.5422 23.1451C22.8008 22.8952 23.2187 22.8964 23.4754 23.1484C23.7321 23.4005 23.7307 23.808 23.4721 24.0581ZM28.5525 19.143L26.4368 21.1895C25.7829 21.8223 25.0959 22.1418 24.4451 22.1418C23.9137 22.1418 23.4065 21.9287 22.9626 21.499C22.7038 21.2485 22.7021 20.8412 22.9593 20.5893C23.216 20.3372 23.6336 20.3355 23.8921 20.5859C24.0857 20.7733 24.54 21.2127 25.5069 20.2766L27.6233 18.2299C27.8473 18.0128 27.9707 17.7241 27.9707 17.4174C27.9707 17.1109 27.8474 16.8225 27.6227 16.6052C27.2014 16.1978 26.5554 15.9997 26.0619 16.4774L25.3907 17.1274C25.1321 17.3775 24.7145 17.3761 24.4575 17.1241C24.2006 16.8718 24.2023 16.4646 24.4611 16.2142L25.1326 15.5643C26.0848 14.6427 27.5236 14.6969 28.5525 15.6924C29.0283 16.1532 29.2905 16.7656 29.2905 17.4174C29.2905 18.0695 29.0283 18.6822 28.5525 19.143Z" fill="white"/>
<defs>
<filter id="filter0_d_739_6532" x="0" y="0" width="48" height="48" filterUnits="userSpaceOnUse" color-interpolation-filters="sRGB">
<feFlood flood-opacity="0" result="BackgroundImageFix"/>
<feColorMatrix in="SourceAlpha" type="matrix" values="0 0 0 0 0 0 0 0 0 0 0 0 0 0 0 0 0 0 127 0" result="hardAlpha"/>
<feOffset dy="4"/>
<feGaussianBlur stdDeviation="4"/>
<feComposite in2="hardAlpha" operator="out"/>
<feColorMatrix type="matrix" values="0 0 0 0 0 0 0 0 0 0.223529 0 0 0 0 0.301961 0 0 0 0.15 0"/>
<feBlend mode="normal" in2="BackgroundImageFix" result="effect1_dropShadow_739_6532"/>
<feBlend mode="normal" in="SourceGraphic" in2="effect1_dropShadow_739_6532" result="shape"/>
</filter>
<linearGradient id="paint0_linear_739_6532" x1="24" y1="4" x2="24" y2="36" gradientUnits="userSpaceOnUse">
<stop stop-color="#24B28F"/>
<stop offset="1" stop-color="#009E9E"/>
</linearGradient>
</defs>
</svg>
