<svg width="18" height="18" viewBox="0 0 18 18" fill="none" xmlns="http://www.w3.org/2000/svg">
<g clip-path="url(#clip0_739_6518)">
<path d="M12.708 17.505H2.205C1.035 17.505 0.0899963 16.56 0.0899963 15.39V5.15699C0.0899963 3.98699 1.035 3.04199 2.205 3.04199H12.708C13.878 3.04199 14.823 3.98699 14.823 5.15699V15.39C14.823 16.56 13.878 17.505 12.708 17.505Z" fill="#B8F0DA"/>
<path d="M15.894 12.0151H8.38801C7.21801 12.0151 6.27301 11.0701 6.27301 9.90012V2.61012C6.27301 1.44012 7.21801 0.495117 8.38801 0.495117H15.894C17.064 0.495117 18.009 1.44012 18.009 2.61012V9.90012C18.009 11.0611 17.064 12.0151 15.894 12.0151Z" fill="#F7F8FA"/>
</g>
<defs>
<clipPath id="clip0_739_6518">
<rect width="18" height="18" fill="white"/>
</clipPath>
</defs>
</svg>
