<svg xmlns="http://www.w3.org/2000/svg" xmlns:xlink="http://www.w3.org/1999/xlink" width="32" height="32" viewBox="0 0 32 32" fill="none">
<path d="M9.25 14.8754C9.25 11.769 11.769 9.25 14.8753 9.25C17.9817 9.25 20.4994 11.769 20.4994 14.8754C20.4994 17.9818 17.9817 20.4995 14.8753 20.4995C11.769 20.4995 9.25 17.9818 9.25 14.8754ZM10.9372 14.8754C10.9372 12.7007 12.7006 10.9372 14.8753 10.9372C17.05 10.9372 18.8121 12.7007 18.8121 14.8754C18.8121 17.0501 17.05 18.8122 14.8753 18.8122C12.7006 18.8122 10.9372 17.0501 10.9372 14.8754Z" fill-rule="evenodd"  fill="#4E5969" >
</path>
<path     fill="#4E5969"  d="M19.3745 18.1815L18.1814 19.3747L21.0328 22.2261C21.2523 22.4456 21.6084 22.4456 21.8278 22.2261L22.226 21.828C22.4454 21.6085 22.4454 21.2524 22.226 21.033L19.3745 18.1815Z">
</path>
<path fill-rule="evenodd"  fill="rgba(242, 243, 245, 1)"  d="M16 32C24.8366 32 32 24.8366 32 16C32 7.16344 24.8366 0 16 0C7.16344 0 0 7.16344 0 16C0 24.8366 7.16344 32 16 32ZM16 1C24.2843 1 31 7.71573 31 16C31 24.2843 24.2843 31 16 31C7.71573 31 1 24.2843 1 16C1 7.71573 7.71573 1 16 1Z">
</path>
</svg>
