<svg xmlns="http://www.w3.org/2000/svg" xmlns:xlink="http://www.w3.org/1999/xlink" width="16" height="16" viewBox="0 0 16 16" fill="none">
<path    stroke="rgba(78, 89, 105, 1)" stroke-width="1.3300000429153442" stroke-linejoin="round" stroke-linecap="round" style="mix-blend-mode:normal" d="M11.3335 4L11.3335 6.66667L11.3335 7C10.3485 7 9.46323 7.42727 8.853 8.1066C8.32276 8.69687 8.00016 9.47743 8.00016 10.3333C8.00016 10.5263 8.01656 10.7154 8.04803 10.8994C8.21946 11.9015 8.83826 12.751 9.69153 13.2349C8.80403 13.5032 7.62603 13.6667 6.3335 13.6667C3.57206 13.6667 1.3335 12.9205 1.3335 12L1.3335 9.33333L1.3335 6.66667L1.3335 4">
</path>
<path d="M14.6667 10.3333C14.6667 12.1743 13.1743 13.6667 11.3333 13.6667C10.7364 13.6667 10.176 13.5097 9.69137 13.2349C8.8381 12.751 8.2193 11.9015 8.04787 10.8994C8.0164 10.7154 8 10.5263 8 10.3333C8 9.47743 8.3226 8.69687 8.85283 8.1066C9.46307 7.42727 10.3483 7 11.3333 7C13.1743 7 14.6667 8.4924 14.6667 10.3333Z" stroke="rgba(78, 89, 105, 1)" stroke-width="1.3300000429153442" stroke-linejoin="round" stroke-linecap="round" style="mix-blend-mode:normal">
</path>
<path d="M11.3335 4.00004C11.3335 4.92051 9.09493 5.66671 6.3335 5.66671C3.57206 5.66671 1.3335 4.92051 1.3335 4.00004C1.3335 3.07957 3.57206 2.33337 6.3335 2.33337C9.09493 2.33337 11.3335 3.07957 11.3335 4.00004Z" stroke="rgba(78, 89, 105, 1)" stroke-width="1.3300000429153442" stroke-linejoin="round" stroke-linecap="round" style="mix-blend-mode:normal">
</path>
<path    stroke="rgba(78, 89, 105, 1)" stroke-width="1.3300000429153442" stroke-linejoin="round" stroke-linecap="round" style="mix-blend-mode:normal" d="M1.3335 9.33337C1.3335 10.2538 3.57206 11 6.3335 11C6.93583 11 7.51326 10.9645 8.04803 10.8995">
</path>
<path    stroke="rgba(78, 89, 105, 1)" stroke-width="1.3300000429153442" stroke-linejoin="round" stroke-linecap="round" style="mix-blend-mode:normal" d="M1.3335 6.66663C1.3335 7.58709 3.57206 8.33329 6.3335 8.33329C7.25226 8.33329 8.11316 8.25069 8.853 8.10656">
</path>
<path d="M11.3334 9L12.4881 9.66667L12.4881 11L11.3334 11.6667L10.1787 11L10.1787 9.66667L11.3334 9Z" stroke="rgba(78, 89, 105, 1)" stroke-width="1.3300000429153442" stroke-linejoin="round" stroke-linecap="round" style="mix-blend-mode:normal">
</path>
</svg>
