<svg width="18" height="18" viewBox="0 0 18 18" fill="none" xmlns="http://www.w3.org/2000/svg">
<g clip-path="url(#clip0_8718_39414)">
<path d="M1.1799 7.46475C5.07442 5.00241 9.4615 3.63302 13.9039 3.35662C14.0255 3.34904 14.1774 3.34143 14.3595 3.33378C14.6906 3.31991 14.9703 3.57706 14.9841 3.90812C14.9848 3.9249 14.9848 3.94167 14.9841 3.95841C14.9764 4.14273 14.9687 4.29635 14.961 4.41921C14.6839 8.8598 13.3146 13.245 10.8532 17.138C9.4782 16.2417 8.15524 15.2324 6.89767 14.1101L3.57456 15.2178C3.37808 15.2833 3.16568 15.177 3.10018 14.9805C3.07457 14.9036 3.07452 14.8204 3.10018 14.7434L4.20789 11.4203C3.08554 10.1627 2.07624 8.83977 1.1799 7.46475ZM5.32703 10.4215L5.90579 11.0701L5.23471 13.0832L7.2479 12.4122L7.89644 12.9909C8.69336 13.7021 9.52168 14.3693 10.3788 14.9913C12.0903 11.8735 13.1218 8.43534 13.4219 4.89595C9.8826 5.1961 6.44448 6.22759 3.32664 7.93915C3.94862 8.79627 4.61583 9.6246 5.32703 10.4215ZM7.63599 10.6819C6.75734 9.80325 6.75731 8.37865 7.63601 7.49994C8.51466 6.62129 9.93929 6.6213 10.8179 7.49995C11.6966 8.37865 11.6966 9.80325 10.818 10.6819C9.93927 11.5606 8.51469 11.5606 7.63599 10.6819ZM8.69665 9.62124C8.98955 9.91415 9.46441 9.91415 9.75731 9.62124C10.0502 9.3284 10.0502 8.85348 9.75731 8.56058C9.46446 8.26774 8.9895 8.26774 8.69665 8.56058C8.40375 8.85348 8.4038 9.3284 8.69665 9.62124Z" fill="#4E5969"/>
</g>
<defs>
<clipPath id="clip0_8718_39414">
<rect width="18" height="18" fill="white"/>
</clipPath>
</defs>
</svg>
