<svg width="16" height="16" viewBox="0 0 16 16" fill="none" xmlns="http://www.w3.org/2000/svg">
<g clip-path="url(#clip0_4392_30227)">
<path d="M1.0488 6.6353C4.51059 4.44655 8.41023 3.22931 12.359 2.98363C12.4671 2.97689 12.6021 2.97012 12.764 2.96332C13.0583 2.95099 13.3069 3.17957 13.3192 3.47385C13.3199 3.48876 13.3199 3.50367 13.3192 3.51854C13.3123 3.68239 13.3055 3.81894 13.2987 3.92815C13.0523 7.87534 11.8352 11.7733 9.64728 15.2338C8.42507 14.437 7.2491 13.5399 6.13126 12.5422L3.17739 13.5269C3.00274 13.5851 2.81394 13.4907 2.75572 13.316C2.73295 13.2476 2.7329 13.1736 2.75572 13.1052L3.74035 10.1513C2.7427 9.03347 1.84555 7.85753 1.0488 6.6353ZM4.73514 9.26352L5.24959 9.84001L4.65307 11.6295L6.44257 11.033L7.01905 11.5474C7.72743 12.1796 8.46372 12.7727 9.2256 13.3256C10.7469 10.5542 11.6638 7.49804 11.9306 4.35192C8.78453 4.61871 5.72842 5.53559 2.95702 7.05699C3.50988 7.81887 4.10296 8.55516 4.73514 9.26352ZM6.78755 9.49499C6.00652 8.71396 6.0065 7.44765 6.78757 6.66658C7.56859 5.88556 8.83493 5.88556 9.61595 6.66658C10.397 7.44765 10.397 8.71396 9.61597 9.49499C8.8349 10.2761 7.56862 10.2761 6.78755 9.49499ZM7.73036 8.55218C7.99071 8.81253 8.41281 8.81253 8.67317 8.55218C8.93348 8.29187 8.93352 7.86973 8.67317 7.60937C8.41286 7.34906 7.99067 7.34906 7.73036 7.60937C7.47 7.86973 7.47005 8.29187 7.73036 8.55218Z" fill="#272E3B"/>
</g>
<defs>
<clipPath id="clip0_4392_30227">
<rect width="16" height="16" fill="white"/>
</clipPath>
</defs>
</svg>
