<svg xmlns="http://www.w3.org/2000/svg" width="24" height="24" viewBox="0 0 24 24" fill="none">
  <path fill-rule="evenodd" clip-rule="evenodd" d="M19.1465 4.44456C19.588 4.42608 19.961 4.76975 19.9795 5.21116C19.9804 5.23331 19.9804 5.25547 19.9795 5.27757C19.9692 5.52312 19.9585 5.72808 19.9482 5.89183C19.5787 11.8126 17.7536 17.6602 14.4717 22.8508C12.6384 21.6557 10.874 20.3101 9.19727 18.8137L4.7666 20.2903C4.50462 20.3776 4.22112 20.2358 4.13379 19.9739C4.09973 19.8713 4.0996 19.76 4.13379 19.6574L5.61133 15.2268C4.11487 13.55 2.76835 11.7867 1.57324 9.95335C6.76593 6.67023 12.6159 4.84434 18.5391 4.47581C18.7012 4.4657 18.9037 4.45476 19.1465 4.44456ZM15.0146 9.4094C13.5169 7.91164 11.0886 7.91164 9.59082 9.4094C8.09304 10.9073 8.09308 13.3355 9.59082 14.8332C11.0887 16.331 13.5168 16.331 15.0146 14.8332C16.5124 13.3355 16.5124 10.9073 15.0146 9.4094Z" fill="#547781"/>
  <path d="M10.8885 13.5355C10.1075 12.7544 10.1075 11.4881 10.8885 10.707C11.6696 9.92602 12.9359 9.92602 13.7169 10.7071C14.498 11.4881 14.498 12.7544 13.717 13.5355C12.9359 14.3165 11.6696 14.3165 10.8885 13.5355Z" fill="#B0C0C5"/>
</svg>