<svg width="88" height="40" viewBox="0 0 88 40" fill="none" xmlns="http://www.w3.org/2000/svg">
<path d="M0 8C0 3.58172 3.58172 0 8 0L76.7538 0C80.4247 0 83.6246 2.49838 84.5149 6.05972L87.5149 18.0597C87.8334 19.3336 87.8334 20.6664 87.5149 21.9403L84.5149 33.9403C83.6246 37.5016 80.4247 40 76.7538 40H8C3.58172 40 0 36.4183 0 32V8Z" fill="#009E9E"/>
<path d="M4 8C4 5.79086 5.79086 4 8 4H76.8769C78.7124 4 80.3123 5.24919 80.7575 7.02986L83.7575 19.0299C83.9167 19.6668 83.9167 20.3332 83.7575 20.9701L80.7575 32.9701C80.3123 34.7508 78.7124 36 76.8769 36H8C5.79086 36 4 34.2091 4 32V8Z" fill="white"/>
</svg>
