<?xml version="1.0" standalone="no"?><!DOCTYPE svg PUBLIC "-//W3C//DTD SVG 1.1//EN" "http://www.w3.org/Graphics/SVG/1.1/DTD/svg11.dtd"><svg t="1776342621998" class="icon" viewBox="0 0 3261 1024" version="1.1" xmlns="http://www.w3.org/2000/svg" p-id="12374" xmlns:xlink="http://www.w3.org/1999/xlink" width="636.9140625" height="200"><path d="M1288.343704 771.109926c0-54.613333 43.804444-98.759111 97.735111-98.759111 36.408889 0 68.039111 20.29037 84.840296 49.98637h39.10163a132.816593 132.816593 0 0 0-123.524741-85.143704 133.12 133.12 0 0 0-132.968296 133.537186c0 75.358815 59.429926 133.916444 132.968296 133.916444a132.096 132.096 0 0 0 124.321185-85.902222h-38.684444c-16.459852 31.250963-48.924444 50.782815-86.053926 50.782815a97.393778 97.393778 0 0 1-97.735111-98.417778z m1870.127407-58.55763c-20.707556 0-40.277333 8.988444-52.754963 19.531852-19.569778 17.180444-25.78963 42.932148-25.789629 42.932148-16.459852 63.260444 12.894815 102.324148 12.894814 102.324148 14.411852 19.493926 43.387259 27.306667 66.066963 27.306667 39.442963 3.90637 68.41837-11.719111 68.418371-11.719111v-31.213037c-115.332741 42.932148-116.508444-42.970074-116.508445-42.970074H3235.081481c1.137778-38.646519-7.433481-63.639704-19.152592-79.644445-21.504-29.278815-57.495704-26.548148-57.495704-26.548148z m0 32.009482c36.408889 0 37.925926 42.970074 37.925926 42.970074h-82.488889s7.812741-42.970074 44.562963-42.970074z m-378.500741-14.411852v-106.192593h-37.50874v280.689778h28.558222l5.082074-19.531852c16.421926 19.531852 45.738667 23.438222 45.738667 23.438222 25.41037 0 44.942222-11.719111 58.633481-27.306666 16.042667-15.625481 24.272593-42.970074 25.41037-54.689185 3.527111-27.685926 2.768593-83.171556-45.738666-106.571852a71.035259 71.035259 0 0 0-80.137482 10.126222z m-0.379259 123.752296v-90.605037s16.421926-18.318222 44.183704-18.318222c27.382519 0 40.277333 21.466074 43.804444 53.475556 3.527111 32.009481-4.702815 74.979556-43.008 74.979555-33.640296 0-44.980148-19.531852-44.980148-19.531852z m-159.137185-140.970666a96.786963 96.786963 0 0 0-96.559407 96.862814c0 51.920593 43.387259 94.852741 96.559407 94.852741 53.210074 0 96.597333-42.932148 96.597333-94.852741a96.786963 96.786963 0 0 0-96.597333-96.862814z m-63.715556 96.862814c0-35.536593 28.558222-64.056889 63.715556-64.056889 35.195259 0 63.715556 28.520296 63.715555 64.056889a62.957037 62.957037 0 0 1-63.715555 63.639704 62.957037 62.957037 0 0 1-63.715556-63.639704z m-265.481481-165.167407h-50.062222v260.020148h37.546666v-198.731852l82.488889 198.731852h18.394074l82.488889-197.176889v197.214815h37.925926v-260.058074h-49.682963L2370.673778 834.37037l-79.378963-189.743407z m-290.512593 79.265185v33.943704s97.735111-43.728593 97.735111 33.185185l-0.379259 1.972148s-53.551407-16.004741-82.906074 1.934222c0 0-46.117926 23.817481-25.41037 78.506667 0 0 16.042667 35.119407 57.874963 35.119407 14.449778 0 31.668148-7.812741 51.996444-19.531851l3.147852 15.625481h31.668148v-119.845926s3.90637-49.607111-42.249481-66.749629c-44.183704-16.042667-91.477333 5.840593-91.477334 5.840592z m46.914371 149.541926s-30.113185 0-25.410371-31.250963c4.28563-31.250963 43.008-27.306667 74.676148-19.531852v35.157334s-16.801185 15.625481-49.265777 15.625481z m-207.22726-135.092148l-5.878518-21.883259h-28.141037v184.32h35.574518v-123.790223c7.054222-11.339852 26.168889-37.091556 59.847111-31.630222 0 0 19.531852 3.109926 19.531852 35.536593v119.845926h37.167408v-118.708148s5.044148-55.409778-44.22163-67.508149c0 0-44.942222-11.757037-73.879704 23.817482z m-263.926518-1.972148v-113.208889h-37.167408v277.617778h37.167408v-124.965926c6.257778-12.136296 24.272593-37.470815 59.429926-30.454519 0 0 19.569778 3.109926 19.569778 35.536593v119.845926h37.129481v-118.708148s4.702815-55.409778-44.183704-67.508149c0 0-43.387259-11.339852-71.945481 21.845334z m1357.558518-51.541334h37.167408v-40.58074h-37.167408v40.58074z m112.602074 219.818667v-281.486222h-35.195259v281.486222h35.195259z m-75.472592 0v-186.595555h-37.167408v186.595555h37.167408z m-1239.836445-219.818667h36.750223v-40.58074h-36.788148v40.58074z m36.750223 219.818667v-186.595555h-36.788148v186.595555h36.788148zM3117.435259 77.027556h-48.886518s0 42.970074 0.379259 96.06637h-60.188444v43.728593h60.605629c0.758519 33.564444-0.379259 67.925333-2.351407 91.742814-4.28563 54.651259-12.894815 76.913778-12.894815 76.913778-23.893333 90.453333-94.625185 130.313481-94.625185 130.313482l35.195259 33.185185c125.914074-80.820148 118.442667-260.323556 118.442667-260.323556l1.592889-71.831703h78.203259l-9.40563 237.264592c0 29.658074-28.937481 28.103111-28.937481 28.103111h-54.347852l8.988444 46.876445h51.617186c66.484148 0 68.835556-67.546074 68.835555-67.546074l10.164148-288.426667h-124.359111l1.972148-96.06637z m-105.168592 379.410963c-9.40563-23.058963-53.968593-121.325037-53.968593-121.325038l-41.073778 17.559704c11.377778 24.234667 22.679704 51.048296 31.668148 73.310815-20.328296 4.664889-73.879704 17.180444-100.086518 25.78963 0 0 12.894815-21.124741 36.370963-86.584889 19.531852-53.475556 23.058963-69.518222 30.871704-79.644445h106.382222V241.815704h-231.499852v43.728592h74.714074c-3.527111 13.653333-16.042667 62.843259-35.991704 110.364445-11.339852 26.927407-23.476148 52.717037-39.063703 72.248889l10.922666 34.360889s116.887704-35.536593 161.867852-39.822223l4.28563 10.922667 44.600889-17.180444z m-201.386667-291.953778h195.508148V120.376889h-195.508148v44.107852z m-186.898963 126.103703l-43.008-7.016296c6.637037-3.489185 12.894815-7.395556 18.773333-11.301926 85.636741-56.244148 113.777778-119.087407 113.777778-119.087407V115.674074h-147.418074a257.137778 257.137778 0 0 0 15.663407-28.48237l-42.62874-16.421926s-34.778074 75.776-103.234371 127.317333l37.167408 28.48237s32.426667-30.075259 64.094815-69.897481h125.914074c-17.180444 27.344593-42.211556 49.98637-68.79763 68.721778L2538.761481 179.313778l-29.31674 30.454518 46.91437 39.063704a535.589926 535.589926 0 0 1-111.047111 45.662815l28.141037 35.953778c40.656593-15.625481 71.149037-27.723852 97.735111-41.415112-7.016296 12.136296-25.031111 39.822222-57.837037 69.897482a390.257778 390.257778 0 0 1-78.203259 54.954667l33.60237 33.564444s66.863407-34.360889 116.129185-93.980444h94.625186c-10.164148 45.169778-39.063704 77.179259-73.879704 99.062518l-50.820741-49.607111-32.085333 26.168889s28.558222 26.927407 43.804444 43.728593c-68.41837 28.520296-141.160296 30.454519-141.160296 30.454518l19.152593 37.888c91.894519-7.054222 154.055111-32.426667 197.44237-65.232593 71.945481-54.613333 89.163852-123.638519 89.163852-123.638518V312.13037h-117.684148c3.90637-7.054222 7.433481-14.032593 10.543407-21.504z m-159.895704 56.623408l-76.231111-64.815408V259.792593h64.094815V218.832593h-64.094815v-65.991112c29.696-7.054222 65.649778-14.070519 65.649778-14.070518l-9.367704-43.728593c-38.684444 12.515556-167.74637 26.168889-167.74637 26.168889l6.637037 43.311408 59.847111-9.746963v64.018963h-72.362667V259.792593h67.659852c-5.461333 17.180444-28.558222 86.698667-75.851852 152.538074l33.223112 35.953777s27.382519-44.145778 47.331555-88.936296v183.409778h44.942222V338.223407l46.155852 44.145778 30.113185-35.157333z m-369.891555 28.103111c-18.773333-21.845333-52.792889-60.112593-52.792889-60.112593l-33.223111 24.993186c28.937481 31.630222 50.441481 63.146667 50.441481 63.146666l35.574519-28.027259zM1997.179259 313.268148h99.328V272.270222H1997.179259V212.119704h107.89926v-40.96h-259.602963v40.96h108.316444V272.308148h-100.124444v40.96h100.124444v95.573333h-115.749926v40.96h274.090667v-40.96h-114.915556v-95.573333z m-225.621333-220.99437v436.375703h411.723852V92.273778H1771.595852z m366.364444 394.998518h-322.18074V134.826667h322.18074v352.445629z m-476.99437-322.749629h-179.882667V77.368889h-47.293629v87.077926h-178.289778v245.494518h178.289778v133.878519h47.293629v-133.878519h179.882667V164.484741z m-227.176296 202.221037H1301.617778V207.834074h132.171852v158.90963z m47.293629 0V207.834074h133.726815v158.90963h-133.726815z" fill="#0085D0" p-id="12375"></path><path d="M815.407407 572.529778l-65.080888-61.970963s-15.094519-10.998519-32.161186 4.93037c0 0-62.767407 60.074667-116.242963 108.354371-50.744889 45.24563-101.489778 92.008296-120.490666 105.320296 0 0-82.147556 82.488889-186.216297 1.896296 0 0-141.767111-109.112889-282.055111-296.542815l-4.551111 22.072889s-5.271704 18.204444 7.205926 35.346963c0 0 109.492148 158.53037 244.280889 272.194371 0 0 67.204741 70.314667 153.144889 85.522963 0 0 70.921481 19.000889 138.315852-34.209186 32.95763-24.727704 104.63763-90.491259 164.67437-146.394074 55.409778-51.655111 99.214222-96.521481 99.214222-96.521481z" fill="#0085D0" p-id="12376"></path><path d="M944.734815 709.518222l-57.571556-64.625778s-7.016296-9.481481-20.631703 2.389334c-13.615407 11.908741-190.919111 187.960889-258.616889 235.52a224.331852 224.331852 0 0 1-126.748445 51.579259c-34.62637 3.982222-71.945481-3.982222-111.767703-19.835259-43.349333-19.835259-109.492148-75.320889-171.425186-139.567408a1635.934815 1635.934815 0 0 1-123.941926-147.152592C49.303704 594.185481 25.41037 560.469333 7.471407 531.152593c0 0 0 40.808296 17.521778 75.320888 0 0 72.476444 141.160296 213.902222 272.421926 13.842963 15.853037 134.447407 138.808889 251.600593 134.826667 0 0 109.264593 7.964444 208.820148-75.320889 16.308148-15.890963 190.957037-168.542815 245.380741-228.845037zM201.386667 457.765926l65.232592 61.819259s14.980741 10.998519 32.161185-4.93037c0 0 62.577778-59.922963 115.939556-108.088889 50.744889-45.018074 101.489778-91.666963 120.490667-104.941037 0 0 82.147556-83.057778 186.368-1.896296 0 0 142.222222 108.73363 282.093037 295.74637l4.664889-21.997037s5.044148-18.204444-7.35763-35.271111c0 0-109.264593-158.075259-244.129185-271.473778 0 0-67.432296-69.783704-153.448297-87.22963 0 0-70.921481-16.308148-137.936592 35.271112-32.919704 25.41037-104.903111 91.022222-164.712296 146.773333-55.561481 51.465481-99.365926 96.218074-99.365926 96.218074z" fill="#0085D0" p-id="12377"></path><path d="M72.135111 320.625778l57.495704 64.625778s7.205926 9.481481 20.745481-2.389334c13.463704-11.870815 191.032889-187.467852 258.616889-237.037037 38.874074-28.141037 80.478815-46.383407 126.369185-49.531259a228.16237 228.16237 0 0 1 111.957334 19.418074c43.576889 19.797333 109.681778 74.107259 171.501037 139.946667 43.538963 45.966222 87.495111 97.09037 124.017778 146.507852 24.500148 33.716148 48.621037 67.39437 66.522074 96.711111 0 0 0-40.808296-17.521778-75.282963 0 0-72.704-141.008593-213.864296-274.204445-13.994667-12.667259-134.523259-135.964444-251.562667-133.195852 0 0-109.264593-6.33363-208.896 76.913778-16.156444 13.880889-190.843259 167.253333-245.380741 227.555556z" fill="#0085D0" p-id="12378"></path><path d="M54.727111 361.396148s99.441778 129.175704 209.009778 214.736593c0 0 41.490963 35.043556 85.978074-4.551111l227.896889-203.396741s68.608-67.508148 146.014815-0.758519c0 0 162.095407 141.994667 251.031703 261.12 0 0 5.347556 4.133926 0 11.681186a562.820741 562.820741 0 0 0-13.046518 28.634074s-97.355852-124.017778-209.995852-215.608889c0 0-43.690667-32.805926-81.654519 1.896296-37.546667 34.664296-216.139852 195.242667-244.508444 215.608889-28.368593 20.328296-75.320889 41.832296-141.805037-16.611556-51.958519-45.586963-187.885037-171.880296-241.398519-251.410963 0 0-4.816593-4.551111-0.948148-13.084444 5.537185-10.164148 13.425778-28.254815 13.425778-28.254815z" fill="#80C400" p-id="12379"></path></svg>