<svg width="18" height="18" viewBox="0 0 18 18" fill="none" xmlns="http://www.w3.org/2000/svg">
<path fill-rule="evenodd" clip-rule="evenodd" d="M1.5 3.75C1.5 2.92157 2.17157 2.25 3 2.25H15C15.8284 2.25 16.5 2.92157 16.5 3.75V14.25C16.5 15.0784 15.8284 15.75 15 15.75H3C2.17157 15.75 1.5 15.0784 1.5 14.25V3.75ZM15 3.75L3 3.75V14.25H15V3.75ZM7.5 7.125H4.125V5.625H7.5V7.125ZM7.5 9.75H4.125V8.25H7.5V9.75ZM6 12.375H4.125V10.875H6V12.375ZM10.875 10.5C9.83947 10.5 9 11.3395 9 12.375H7.5C7.5 10.9973 8.3255 9.81238 9.50886 9.28793C8.97155 8.87675 8.625 8.22885 8.625 7.5C8.625 6.25736 9.63236 5.25 10.875 5.25C12.1176 5.25 13.125 6.25736 13.125 7.5C13.125 8.22885 12.7784 8.87675 12.2411 9.28793C13.4245 9.81238 14.25 10.9973 14.25 12.375H12.75C12.75 11.3395 11.9105 10.5 10.875 10.5ZM10.125 7.5C10.125 7.08579 10.4608 6.75 10.875 6.75C11.2892 6.75 11.625 7.08579 11.625 7.5C11.625 7.91421 11.2892 8.25 10.875 8.25C10.4608 8.25 10.125 7.91421 10.125 7.5Z" fill="#4E5969"/>
</svg>
