<svg width="18" height="18" viewBox="0 0 18 18" fill="none" xmlns="http://www.w3.org/2000/svg">
<path fill-rule="evenodd" clip-rule="evenodd" d="M6.75 5.625C6.75 4.38236 7.75736 3.375 9 3.375C10.2426 3.375 11.25 4.38236 11.25 5.625C11.25 6.86764 10.2426 7.875 9 7.875C7.75736 7.875 6.75 6.86764 6.75 5.625ZM9 1.875C6.92893 1.875 5.25 3.55393 5.25 5.625C5.25 7.69607 6.92893 9.375 9 9.375C11.0711 9.375 12.75 7.69607 12.75 5.625C12.75 3.55393 11.0711 1.875 9 1.875ZM6 10.125C4.92059 10.125 3.8964 10.4539 3.12894 11.1036C2.34959 11.7633 1.875 12.7228 1.875 13.875V15C1.875 15.6213 2.37868 16.125 3 16.125H15C15.6213 16.125 16.125 15.6213 16.125 15V13.875C16.125 12.7228 15.6504 11.7633 14.8711 11.1036C14.1036 10.4539 13.0794 10.125 12 10.125H6ZM3.375 13.875C3.375 13.1632 3.65593 12.6227 4.09809 12.2485C4.55214 11.8641 5.21545 11.625 6 11.625H12C12.7845 11.625 13.4479 11.8641 13.9019 12.2485C14.3441 12.6227 14.625 13.1632 14.625 13.875V14.625H3.375V13.875Z" fill="#4E5969"/>
</svg>
