<svg xmlns="http://www.w3.org/2000/svg" width="24" height="24" viewBox="0 0 24 24" fill="none">
  <path fill-rule="evenodd" clip-rule="evenodd" d="M17 6.5C15.3431 6.5 14 7.84315 14 9.5C14 11.1569 15.3431 12.5 17 12.5C18.6569 12.5 20 11.1569 20 9.5C20 7.84315 18.6569 6.5 17 6.5ZM22 17C22 15.3431 20.6569 14 19 14H17C17 17.2852 17 16.0754 17 20H22V17Z" fill="#B0C0C5"/>
  <path fill-rule="evenodd" clip-rule="evenodd" d="M9 3C6.51472 3 4.5 5.01472 4.5 7.5C4.5 9.98528 6.51472 12 9 12C11.4853 12 13.5 9.98528 13.5 7.5C13.5 5.01472 11.4853 3 9 3ZM2 17C2 14.7909 3.79086 13 6 13H12C14.2091 13 16 14.7909 16 17V21H2V17Z" fill="#547781"/>
</svg>