<svg width="20" height="20" viewBox="0 0 20 20" fill="none" xmlns="http://www.w3.org/2000/svg">
<path d="M15.0054 5.83577V10.0024L13.5112 8.5083L10.291 11.7285L8.52344 9.96094L6.16667 12.3177L4.98828 11.1393L8.52344 7.60335L10.291 9.37093L12.3328 7.32992L10.8387 5.83577H15.0054Z" fill="#86909C"/>
<path fill-rule="evenodd" clip-rule="evenodd" d="M17.5868 2.50407C18.0069 2.54685 18.3346 2.90194 18.3346 3.33333V15C18.3346 15.4314 18.0069 15.7865 17.5868 15.8293L17.5013 15.8333H13.1287L14.5016 17.6636C14.6397 17.8477 14.6019 18.109 14.4178 18.2471C14.3457 18.3012 14.2581 18.3309 14.168 18.3309H5.83464C5.60461 18.3309 5.41811 18.1442 5.41797 17.9142C5.41797 17.8241 5.44688 17.7357 5.50098 17.6636L6.87386 15.8333H2.5013C2.04106 15.8333 1.66797 15.4602 1.66797 15V3.33333C1.66797 2.8731 2.04106 2.5 2.5013 2.5H17.5013L17.5868 2.50407ZM3.33464 14.1667H16.668V4.16667H3.33464V14.1667Z" fill="#86909C"/>
</svg>
