<svg width="24" height="24" viewBox="0 0 24 24" fill="none" xmlns="http://www.w3.org/2000/svg">
<path fill-rule="evenodd" clip-rule="evenodd" d="M12 1.5C17.7991 1.5 22.5 6.20087 22.5 12C22.5 17.7991 17.7991 22.5 12 22.5C6.20087 22.5 1.5 17.7991 1.5 12C1.5 6.20087 6.20087 1.5 12 1.5ZM12 3.5C7.30544 3.5 3.5 7.30544 3.5 12C3.5 16.6946 7.30544 20.5 12 20.5C16.6946 20.5 20.5 16.6946 20.5 12C20.5 7.30544 16.6946 3.5 12 3.5Z" fill="#B0C0C5"/>
<path d="M12.9102 6.51659C13.5495 6.2518 14.2537 6.18233 14.9326 6.31737C15.6115 6.45243 16.2352 6.78591 16.7246 7.27538C17.2141 7.76484 17.5476 8.38847 17.6826 9.06737C17.8176 9.7463 17.7482 10.4505 17.4834 11.0898C17.2185 11.7292 16.7696 12.2757 16.1943 12.6601C15.6205 13.0435 14.8446 12.8891 14.461 12.3154C14.0774 11.7415 14.2318 10.9656 14.8057 10.582C14.9701 10.4721 15.0982 10.3154 15.1738 10.1328C15.2495 9.95006 15.269 9.74846 15.2305 9.55468C15.2015 9.4093 15.1412 9.27236 15.0537 9.15428L14.957 9.04296C14.8174 8.90324 14.6391 8.80815 14.4453 8.76952C14.2514 8.73094 14.05 8.75049 13.8672 8.82616C13.6847 8.90179 13.5288 9.02999 13.419 9.19432C13.3091 9.35865 13.25 9.55218 13.25 9.74999V14.25C13.25 14.8555 13.0927 15.4491 12.7959 15.9736L12.6602 16.1943C12.2757 16.7695 11.7293 17.2184 11.0899 17.4834C10.4506 17.7482 9.74632 17.8176 9.0674 17.6826C8.3885 17.5476 7.76486 17.214 7.2754 16.7246C6.78593 16.2352 6.45245 15.6115 6.3174 14.9326C6.18235 14.2536 6.25182 13.5495 6.51662 12.9101C6.78155 12.2708 7.23022 11.7243 7.80568 11.3398C8.37959 10.9565 9.15552 11.1108 9.53908 11.6846C9.92242 12.2585 9.76826 13.0354 9.19435 13.4189C9.03002 13.5288 8.90181 13.6846 8.82619 13.8672C8.7505 14.0499 8.73097 14.2514 8.76954 14.4453C8.80817 14.6391 8.90327 14.8173 9.04298 14.957L9.15431 15.0537C9.27239 15.1412 9.40933 15.2015 9.5547 15.2305C9.74849 15.269 9.95009 15.2495 10.1328 15.1738L10.2647 15.1074C10.3906 15.0318 10.4987 14.9288 10.5811 14.8057L10.6543 14.6767C10.717 14.5439 10.75 14.3981 10.75 14.25V9.74999C10.75 9.05789 10.9552 8.38124 11.3399 7.80565C11.7243 7.2302 12.2708 6.78152 12.9102 6.51659Z" fill="#547781"/>
</svg>
