<svg width="24" height="24" viewBox="0 0 24 24" fill="none" xmlns="http://www.w3.org/2000/svg">
<path fill-rule="evenodd" clip-rule="evenodd" d="M12 1.5C17.7991 1.5 22.5 6.20087 22.5 12C22.5 17.7991 17.7991 22.5 12 22.5C6.20087 22.5 1.5 17.7991 1.5 12C1.5 6.20087 6.20087 1.5 12 1.5ZM12 3.5C7.30544 3.5 3.5 7.30544 3.5 12C3.5 16.6946 7.30544 20.5 12 20.5C16.6946 20.5 20.5 16.6946 20.5 12C20.5 7.30544 16.6946 3.5 12 3.5Z" fill="#0081CC"/>
<path d="M12.9103 6.51677C13.5496 6.25197 14.2538 6.18251 14.9328 6.31755C15.6116 6.4526 16.2353 6.78608 16.7247 7.27556C17.2142 7.76501 17.5477 8.38865 17.6828 9.06755C17.8178 9.74648 17.7483 10.4507 17.4835 11.09C17.2186 11.7293 16.7697 12.2759 16.1945 12.6603C15.6206 13.0437 14.8447 12.8893 14.4611 12.3156C14.0775 11.7417 14.2319 10.9658 14.8058 10.5822C14.9703 10.4723 15.0983 10.3155 15.174 10.133C15.2496 9.95024 15.2691 9.74864 15.2306 9.55485C15.2017 9.40948 15.1413 9.27254 15.0538 9.15446L14.9572 9.04313C14.8175 8.90342 14.6392 8.80832 14.4454 8.7697C14.2516 8.73112 14.0501 8.75066 13.8673 8.82634C13.6848 8.90196 13.5289 9.03017 13.4191 9.1945C13.3093 9.35883 13.2501 9.55236 13.2501 9.75016V14.2502C13.2501 14.8557 13.0928 15.4493 12.796 15.9738L12.6603 16.1945C12.2759 16.7697 11.7294 17.2186 11.09 17.4836C10.4507 17.7484 9.74645 17.8178 9.06752 17.6828C8.38862 17.5478 7.76498 17.2142 7.27553 16.7248C6.78605 16.2353 6.45257 15.6116 6.31752 14.9328C6.18248 14.2538 6.25194 13.5497 6.51674 12.9103C6.78167 12.2709 7.23034 11.7245 7.8058 11.34C8.37972 10.9566 9.15563 11.111 9.5392 11.6847C9.92255 12.2587 9.7684 13.0356 9.19447 13.4191C9.03014 13.529 8.90193 13.6848 8.82631 13.8674C8.75063 14.0501 8.73109 14.2516 8.76967 14.4455C8.80829 14.6393 8.90339 14.8175 9.0431 14.9572L9.15443 15.0539C9.27251 15.1414 9.40945 15.2017 9.55482 15.2306C9.74861 15.2692 9.95021 15.2497 10.1329 15.174L10.2648 15.1076C10.3907 15.032 10.4988 14.929 10.5812 14.8058L10.6544 14.6769C10.7171 14.5441 10.7501 14.3983 10.7501 14.2502V9.75016C10.7501 9.05807 10.9554 8.38142 11.34 7.80583C11.7245 7.23037 12.2709 6.7817 12.9103 6.51677Z" fill="#19BBFF"/>
</svg>
