<svg width="16" height="16" viewBox="0 0 16 16" fill="none" xmlns="http://www.w3.org/2000/svg">
<g clip-path="url(#clip0_3101_88297)">
<path d="M8.00001 14.6663C11.682 14.6663 14.6667 11.6817 14.6667 7.99967C14.6667 4.31767 11.682 1.33301 8.00001 1.33301C4.31801 1.33301 1.33334 4.31767 1.33334 7.99967C1.33334 11.6817 4.31801 14.6663 8.00001 14.6663Z" stroke="#4E5969" stroke-width="1.33333" stroke-linecap="round" stroke-linejoin="round"/>
<path d="M9.66669 7.99935C9.99632 7.99935 10.3186 7.9016 10.5926 7.71847C10.8667 7.53533 11.0803 7.27503 11.2065 6.97049C11.3326 6.66595 11.3656 6.33083 11.3013 6.00753C11.237 5.68423 11.0783 5.38726 10.8452 5.15417C10.6121 4.92108 10.3151 4.76235 9.99184 4.69804C9.66854 4.63373 9.33343 4.66674 9.02888 4.79288C8.72434 4.91903 8.46404 5.13265 8.28091 5.40673C8.09777 5.68081 8.00002 6.00305 8.00002 6.33268V9.66602C8.00002 9.99565 7.90227 10.3179 7.71914 10.592C7.536 10.866 7.2757 11.0797 6.97116 11.2058C6.66662 11.332 6.33151 11.365 6.0082 11.3007C5.6849 11.2364 5.38793 11.0776 5.15484 10.8445C4.92176 10.6114 4.76302 10.3145 4.69871 9.99117C4.6344 9.66787 4.66741 9.33275 4.79356 9.02821C4.9197 8.72367 5.13332 8.46337 5.4074 8.28023C5.68149 8.0971 6.00372 7.99935 6.33335 7.99935" stroke="#4E5969" stroke-width="1.33333" stroke-linecap="round" stroke-linejoin="round"/>
</g>
<defs>
<clipPath id="clip0_3101_88297">
<rect width="16" height="16" fill="white"/>
</clipPath>
</defs>
</svg>
