<?xml version="1.0" encoding="UTF-8"?>
<svg width="14px" height="12px" viewBox="0 0 14 12" version="1.1" xmlns="http://www.w3.org/2000/svg" xmlns:xlink="http://www.w3.org/1999/xlink">
    <g id="需求四" stroke="none" stroke-width="1" fill="none" fill-rule="evenodd">
        <g id="5、浮层设计02备份" transform="translate(-162, -775)" fill-rule="nonzero" stroke="#666666">
            <g id="编组-4备份-3" transform="translate(131, 555)">
                <g id="编组-26备份-4" transform="translate(31, 220)">
                    <path d="M1.5,5.1737445 L1.5,11.5 L1.05249884,11.5 C0.893082313,11.5 0.746895345,11.4456268 0.641820433,11.3514926 C0.557740936,11.2761676 0.5,11.1737471 0.5,11.05709 L0.5,5.61240092 C0.5,5.49578546 0.557823199,5.39339763 0.641903046,5.3180724 L1.5,5.1737445 Z M6.42151278,0.508096965 C6.80803366,0.457799989 7.18649959,0.640539731 7.47505466,0.913962589 C7.7870335,1.20958084 8.00649066,1.62432673 8.00649066,2.04905234 C8.00649066,2.6538664 7.82935597,3.37015928 7.49978385,4.20777776 L12.3949869,4.17999542 C12.7292768,4.17999505 13.0494856,4.30822943 13.2638377,4.54002097 C13.4544723,4.74616533 13.5387431,5.01708519 13.4828141,5.28179651 L12.3308221,10.726454 C12.2841783,10.9468361 12.1497421,11.1337889 11.968891,11.2679669 C11.7704384,11.4152039 11.5158562,11.5 11.2429877,11.5 L3.49999671,11.5 L3.49999671,5.12047853 C4.07949371,4.99869368 4.58700953,4.7373896 4.97438576,4.3895955 C5.49953892,3.91810253 5.80599418,3.28963379 5.80599418,2.61703801 L5.80599418,1.78745642 C5.80599418,1.38314121 5.80624866,1.013935 5.95972487,0.754707537 C6.04440914,0.611672409 6.19785176,0.537190174 6.42151278,0.508096965 Z" id="形状" transform="translate(7, 6) scale(1, -1) translate(-7, -6)"></path>
                </g>
            </g>
        </g>
    </g>
</svg>
