<?xml version="1.0" encoding="UTF-8"?>
<svg width="14px" height="12px" viewBox="0 0 14 12" version="1.1" xmlns="http://www.w3.org/2000/svg" xmlns:xlink="http://www.w3.org/1999/xlink">
    <g id="需求四" stroke="none" stroke-width="1" fill="none" fill-rule="evenodd">
        <g id="5、浮层设计02备份" transform="translate(-140, -774)" fill="#61BA68" fill-rule="nonzero" stroke="#61BA68">
            <g id="编组-4备份-3" transform="translate(131, 555)">
                <path d="M10.5,224.173744 L10.5,230.5 L10.0524988,230.5 C9.89308231,230.5 9.74689534,230.445627 9.64182043,230.351493 C9.55774094,230.276168 9.5,230.173747 9.5,230.05709 L9.5,224.612401 C9.5,224.495785 9.5578232,224.393398 9.64190305,224.318072 L10.5,224.173744 Z M15.4215128,219.508097 C15.8080337,219.4578 16.1864996,219.64054 16.4750547,219.913963 C16.7870335,220.209581 17.0064907,220.624327 17.0064907,221.049052 C17.0064907,221.653866 16.829356,222.370159 16.4997838,223.207778 L21.3949869,223.179995 C21.7292768,223.179995 22.0494856,223.308229 22.2638377,223.540021 C22.4544723,223.746165 22.5387431,224.017085 22.4828141,224.281797 L21.3308221,229.726454 C21.2841783,229.946836 21.1497421,230.133789 20.968891,230.267967 C20.7704384,230.415204 20.5158562,230.5 20.2429877,230.5 L12.4999967,230.5 L12.4999967,224.120479 C13.0794937,223.998694 13.5870095,223.73739 13.9743858,223.389596 C14.4995389,222.918103 14.8059942,222.289634 14.8059942,221.617038 L14.8059942,220.787456 C14.8059942,220.383141 14.8062487,220.013935 14.9597249,219.754708 C15.0444091,219.611672 15.1978518,219.53719 15.4215128,219.508097 Z" id="icon_dianzang"></path>
            </g>
        </g>
    </g>
</svg>
