<?xml version="1.0" encoding="UTF-8"?>
<svg width="20px" height="20px" viewBox="0 0 20 20" version="1.1" xmlns="http://www.w3.org/2000/svg" xmlns:xlink="http://www.w3.org/1999/xlink">
  <title>编组 10</title>
  <g id="1、浮层和签入" transform="translate(-1030, -616)" fill="#409EFE" fill-rule="nonzero">
    <g id="编组-19" transform="translate(1015, 547)">
      <g id="编组-16" transform="translate(0, 62)">
        <g id="编组-10" transform="translate(15, 7)">
          <g id="编组" transform="translate(2, 2)">
            <path d="M15.2011924,13.8882602 L9.89370886,13.8882602 L15.2581216,8.56024743 C16.2472928,7.57621989 16.2472928,5.98300194 15.2581216,4.9989744 L10.9650982,0.737305317 C9.97393631,-0.245768439 8.36785244,-0.245768439 7.37669055,0.737305317 L0.743036069,7.3206576 C0.267280297,7.79289749 0,8.43341695 0,9.10129412 C0,9.76917129 0.267280297,10.4096907 0.743036069,10.8819306 L3.77148413,13.8882602 L0.605845972,13.8882602 C0.296588849,13.8882603 0.0458864261,14.1371317 0.0458864261,14.4441301 C0.0458864261,14.7511286 0.296588849,15 0.605845972,15 L15.2011924,15 C15.5104495,15 15.761152,14.7511286 15.761152,14.4441301 C15.761152,14.1371317 15.5104495,13.8882603 15.2011924,13.8882602 L15.2011924,13.8882602 Z M1.53911194,8.10628703 L8.16996663,1.5201554 C8.43524545,1.25610295 8.79569403,1.10804115 9.17136101,1.10880869 L9.2292235,1.10880869 L7.65293728,7.40403808 C7.63607758,7.47414718 7.58205254,7.52955349 7.51201412,7.54856425 L1.12566922,9.12352891 L1.12566922,9.09944122 C1.12458979,8.72691148 1.27342557,8.36937953 1.53911194,8.10628703 Z M1.59790769,10.1546675 L7.78079472,8.62787827 C8.25533709,8.51159473 8.62585286,8.14378504 8.74299193,7.67270853 L10.2632822,1.60538878 L14.473245,5.78460383 C15.0256102,6.33426443 15.0256102,7.22403095 14.473245,7.77369155 L8.31368958,13.8882602 L5.35523647,13.8882602 L1.59790769,10.1546675 Z" id="形状"></path>
          </g>
        </g>
      </g>
    </g>
  </g>
</svg>
