<?xml version="1.0" standalone="no"?><!DOCTYPE svg PUBLIC "-//W3C//DTD SVG 1.1//EN" "http://www.w3.org/Graphics/SVG/1.1/DTD/svg11.dtd"><svg t="1769413520891" class="icon" viewBox="0 0 1024 1024" version="1.1" xmlns="http://www.w3.org/2000/svg" p-id="8781" xmlns:xlink="http://www.w3.org/1999/xlink" width="20" height="20"><path d="M699.733333 328.533333H324.266667c-21.333333 0-34.133333 12.8-34.133334 34.133334s12.8 34.133333 34.133334 34.133333h371.2c21.333333 0 34.133333-12.8 34.133333-34.133333 4.266667-17.066667-12.8-34.133333-29.866667-34.133334zM699.733333 516.266667H324.266667c-21.333333 0-34.133333 12.8-34.133334 34.133333s12.8 34.133333 34.133334 34.133333h371.2c21.333333 0 34.133333-12.8 34.133333-34.133333 4.266667-21.333333-12.8-34.133333-29.866667-34.133333zM435.2 221.866667h157.866667c51.2 0 89.6-38.4 89.6-89.6S640 42.666667 588.8 42.666667h-157.866667c-46.933333 0-85.333333 38.4-85.333333 89.6s38.4 89.6 89.6 89.6z m-4.266667-89.6c0-8.533333 4.266667-12.8 12.8-12.8h140.8c8.533333 0 12.8 4.266667 12.8 12.8 0 8.533333-4.266667 12.8-12.8 12.8h-140.8c-8.533333 0-12.8-4.266667-12.8-12.8zM699.733333 704H324.266667c-21.333333 0-34.133333 12.8-34.133334 34.133333s12.8 34.133333 34.133334 34.133334h371.2c21.333333 0 34.133333-12.8 34.133333-34.133334 4.266667-21.333333-12.8-34.133333-29.866667-34.133333z" p-id="8782" fill="#666666"></path><path d="M768 98.133333h-46.933333c-21.333333 0-34.133333 12.8-34.133334 34.133334s12.8 34.133333 34.133334 34.133333H768c34.133333 0 59.733333 25.6 59.733333 59.733333V853.333333c0 34.133333-25.6 59.733333-59.733333 59.733334H256c-34.133333 0-59.733333-25.6-59.733333-59.733334V226.133333c0-34.133333 25.6-59.733333 59.733333-59.733333h46.933333c21.333333 0 34.133333-12.8 34.133334-34.133333s-12.8-34.133333-34.133334-34.133334H256c-72.533333 0-128 55.466667-128 128V853.333333c0 72.533333 55.466667 128 128 128h512c72.533333 0 128-55.466667 128-128V226.133333c0-72.533333-55.466667-128-128-128z" p-id="8783" fill="#666666"></path></svg>