<svg width="16" height="16" viewBox="0 0 16 16" fill="none" xmlns="http://www.w3.org/2000/svg">
<path d="M11.335 1C11.7022 1.00002 12 1.29778 12 1.66504V2.5H13.5C14.0523 2.5 14.5 2.94772 14.5 3.5V13.5C14.5 14.0523 14.0523 14.5 13.5 14.5H2.5L2.39746 14.4951C1.89333 14.4438 1.5 14.0177 1.5 13.5V3.5C1.5 2.94772 1.94772 2.5 2.5 2.5H4V1.66504C4 1.29777 4.29777 1 4.66504 1C5.03229 1.00002 5.33008 1.29778 5.33008 1.66504V2.5H10.6699V1.66504C10.6699 1.29777 10.9677 1 11.335 1ZM2.83008 13.1699H13.1699V5H2.83008V13.1699ZM5.40039 10C5.7869 10.0001 6.10059 10.3137 6.10059 10.7002C6.10048 11.0866 5.78684 11.4003 5.40039 11.4004H4.7998C4.41345 11.4002 4.10069 11.0866 4.10059 10.7002C4.10059 10.3137 4.41338 10.0002 4.7998 10H5.40039ZM8.2998 10C8.68631 10.0001 9 10.3137 9 10.7002C8.99989 11.0866 8.68625 11.4003 8.2998 11.4004H7.69922C7.31286 11.4002 7.00011 11.0866 7 10.7002C7 10.3137 7.3128 10.0002 7.69922 10H8.2998ZM11.2002 10C11.5867 10.0001 11.9004 10.3137 11.9004 10.7002C11.9003 11.0866 11.5866 11.4003 11.2002 11.4004H10.5996C10.2133 11.4002 9.9005 11.0866 9.90039 10.7002C9.90039 10.3137 10.2132 10.0002 10.5996 10H11.2002ZM5.40039 7C5.7869 7.00011 6.10059 7.31366 6.10059 7.7002C6.10048 8.08664 5.78684 8.40029 5.40039 8.40039H4.7998C4.41345 8.40018 4.10069 8.08657 4.10059 7.7002C4.10059 7.31373 4.41338 7.00021 4.7998 7H5.40039ZM8.2998 7C8.68631 7.00011 9 7.31366 9 7.7002C8.99989 8.08664 8.68625 8.40029 8.2998 8.40039H7.69922C7.31286 8.40018 7.00011 8.08657 7 7.7002C7 7.31373 7.3128 7.00021 7.69922 7H8.2998ZM11.2002 7C11.5867 7.00011 11.9004 7.31366 11.9004 7.7002C11.9003 8.08664 11.5866 8.40028 11.2002 8.40039H10.5996C10.2133 8.40018 9.9005 8.08658 9.90039 7.7002C9.90039 7.31373 10.2132 7.00021 10.5996 7H11.2002Z" fill="#4E5969"/>
</svg>
