<svg width="16" height="16" viewBox="0 0 16 16" fill="none" xmlns="http://www.w3.org/2000/svg">
    <path
        d="M11.333 1.33301C12.0693 1.33301 12.6668 1.92979 12.667 2.66602V13.333L12.6592 13.4688C12.5955 14.0964 12.0974 14.5955 11.4697 14.6592L11.333 14.666H4.66699L4.53027 14.6592C3.9028 14.5953 3.40444 14.0963 3.34082 13.4688L3.33301 13.333V2.66602C3.33318 1.92979 3.93072 1.33301 4.66699 1.33301H11.333ZM8.71191 11.6543L7.33301 10.2754L4.66699 12.9414V13.333H11.333V8.50879L8.71191 11.6543ZM3 5.33301H2.33301V10.667H3V12H2.33301C1.59689 11.9998 1.00018 11.4031 1 10.667V5.33301C1.00018 4.59689 1.59689 4.00018 2.33301 4H3V5.33301ZM13.667 4C14.4031 4.00018 14.9998 4.59689 15 5.33301V10.667C14.9998 11.4031 14.4031 11.9998 13.667 12H13V10.667H13.667V5.33301H13V4H13.667ZM4.66699 11.0566L7.33301 8.39062L8.62109 9.67773L11.333 6.42383V2.66602H4.66699V11.0566ZM7 4.66699C7.55228 4.66699 8 5.11471 8 5.66699C8 6.21928 7.55228 6.66699 7 6.66699C6.44772 6.66699 6 6.21928 6 5.66699C6 5.11471 6.44772 4.66699 7 4.66699Z"
        fill="#4E5969" />
</svg>