<svg width="16" height="16" viewBox="0 0 16 16" fill="none" xmlns="http://www.w3.org/2000/svg">
<path d="M2 4.83496C2.36727 4.83496 2.66504 5.13273 2.66504 5.5V13C2.66504 13.185 2.81498 13.335 3 13.335H10.5C10.8673 13.335 11.165 13.6327 11.165 14C11.165 14.3673 10.8673 14.665 10.5 14.665H3C2.08045 14.665 1.33496 13.9196 1.33496 13V5.5C1.33496 5.13273 1.63273 4.83496 2 4.83496ZM14 1C14.5523 1 15 1.44772 15 2V11C15 11.5177 14.6067 11.9438 14.1025 11.9951L14 12H5L4.89746 11.9951C4.42703 11.9472 4.05278 11.573 4.00488 11.1025L4 11V2C4 1.44772 4.44772 1 5 1H14ZM9.51074 9.42578C9.39117 9.56922 9.21682 9.65556 9.03027 9.66406C8.84363 9.67253 8.66141 9.60282 8.5293 9.4707L7.44922 8.39062L5.41504 10.0195C5.38823 10.0409 5.35892 10.0576 5.33008 10.0742V10.6699H13.6699V9.57422C13.6035 9.53605 13.5412 9.48807 13.4893 9.42578L11.5 7.03809L9.51074 9.42578ZM5.33008 8.38379L7.08496 6.98047L7.18848 6.91211C7.44205 6.7775 7.761 6.81959 7.9707 7.0293L8.95508 8.01367L10.9893 5.57422L11.0391 5.52051C11.1622 5.40208 11.3273 5.33496 11.5 5.33496C11.6973 5.33496 11.8844 5.42266 12.0107 5.57422L13.6699 7.56445V2.33008H5.33008V8.38379ZM7.5 3.66699C8.05228 3.66699 8.5 4.11471 8.5 4.66699C8.5 5.21928 8.05228 5.66699 7.5 5.66699C6.94772 5.66699 6.5 5.21928 6.5 4.66699C6.5 4.11471 6.94772 3.66699 7.5 3.66699Z" fill="#4E5969"/>
</svg>
