<svg width="68" height="48" viewBox="0 0 68 48" fill="none" xmlns="http://www.w3.org/2000/svg">
<rect x="0.5" y="0.5" width="67" height="47" rx="3.5" fill="#F2F3F5"/>
<rect x="0.5" y="0.5" width="67" height="47" rx="3.5" stroke="#E5E6EB"/>
<rect x="4" y="6" width="60" height="36" rx="1.71429" fill="white"/>
<g clip-path="url(#clip0_741_2053)">
<path d="M8.71428 7.44C8.71428 6.64471 9.35899 6 10.1543 6H57.6743C58.4696 6 59.1143 6.64471 59.1143 7.44V40.56C59.1143 41.3553 58.4696 42 57.6743 42H10.1543C9.35899 42 8.71428 41.3553 8.71428 40.56V7.44Z" fill="white"/>
<path d="M13.7543 12.4798C13.7543 11.6845 14.399 11.0398 15.1943 11.0398H52.6343C53.4296 11.0398 54.0743 11.6845 54.0743 12.4798V21.1198C54.0743 21.9151 53.4296 22.5598 52.6343 22.5598H15.1943C14.399 22.5598 13.7543 21.9151 13.7543 21.1198V12.4798Z" fill="#A2DFB8" fill-opacity="0.5"/>
<path fill-rule="evenodd" clip-rule="evenodd" d="M14.9132 22.5324L14.9831 22.1792C15.0511 22.1927 15.1217 22.1998 15.1943 22.1998H15.5543V22.5598H15.1943C15.0981 22.5598 15.0041 22.5504 14.9132 22.5324ZM52.2743 22.5598V22.1998H52.6343C52.7069 22.1998 52.7774 22.1927 52.8454 22.1792L52.9153 22.5324C52.8244 22.5504 52.7304 22.5598 52.6343 22.5598H52.2743ZM53.4344 22.3172L53.2341 22.0181C53.352 21.9391 53.4536 21.8375 53.5326 21.7196L53.8317 21.9199C53.7266 22.0769 53.5914 22.2121 53.4344 22.3172ZM54.0743 12.8398H53.7143V12.4798C53.7143 12.4072 53.7072 12.3366 53.6937 12.2686L54.0469 12.1988C54.0648 12.2897 54.0743 12.3836 54.0743 12.4798V12.8398ZM53.8317 11.6797L53.5326 11.88C53.4536 11.7621 53.352 11.6604 53.2341 11.5815L53.4344 11.2823C53.5914 11.3875 53.7266 11.5227 53.8317 11.6797ZM15.5543 11.0398H15.1943C15.0981 11.0398 15.0041 11.0492 14.9132 11.0672L14.9831 11.4204C15.0511 11.4069 15.1217 11.3998 15.1943 11.3998H15.5543V11.0398ZM14.3942 11.2823L14.5945 11.5815C14.4765 11.6604 14.3749 11.7621 14.296 11.88L13.9968 11.6797C14.102 11.5227 14.2372 11.3875 14.3942 11.2823ZM13.7543 20.7598H14.1143V21.1198C14.1143 21.1924 14.1214 21.263 14.1348 21.331L13.7817 21.4008C13.7637 21.3099 13.7543 21.216 13.7543 21.1198V20.7598ZM14.3942 22.3172L14.5945 22.0181C14.4765 21.9391 14.3749 21.8375 14.296 21.7196L13.9968 21.9199C14.1019 22.0769 14.2372 22.2121 14.3942 22.3172ZM13.7543 20.0398H14.1143V19.3198H13.7543V20.0398ZM13.7543 18.5998H14.1143V17.8798H13.7543V18.5998ZM13.7543 17.1598H14.1143V16.4398H13.7543V17.1598ZM13.7543 15.7198H14.1143V14.9998H13.7543V15.7198ZM13.7543 14.2798H14.1143V13.5598H13.7543V14.2798ZM13.7543 12.8398H14.1143V12.4798C14.1143 12.4072 14.1214 12.3366 14.1348 12.2686L13.7817 12.1988C13.7637 12.2897 13.7543 12.3836 13.7543 12.4798V12.8398ZM16.2743 11.0398V11.3998H16.9943V11.0398H16.2743ZM17.7143 11.0398V11.3998H18.4343V11.0398H17.7143ZM19.1543 11.0398V11.3998H19.8743V11.0398H19.1543ZM20.5943 11.0398V11.3998H21.3143V11.0398H20.5943ZM22.0343 11.0398V11.3998H22.7543V11.0398H22.0343ZM23.4743 11.0398V11.3998H24.1943V11.0398H23.4743ZM24.9143 11.0398V11.3998H25.6343V11.0398H24.9143ZM26.3543 11.0398V11.3998H27.0743V11.0398H26.3543ZM27.7943 11.0398V11.3998H28.5143V11.0398H27.7943ZM29.2343 11.0398V11.3998H29.9543V11.0398H29.2343ZM30.6743 11.0398V11.3998H31.3943V11.0398H30.6743ZM32.1143 11.0398V11.3998H32.8343V11.0398H32.1143ZM33.5543 11.0398V11.3998H34.2743V11.0398H33.5543ZM34.9943 11.0398V11.3998H35.7143V11.0398H34.9943ZM36.4343 11.0398V11.3998H37.1543V11.0398H36.4343ZM37.8743 11.0398V11.3998H38.5943V11.0398H37.8743ZM39.3143 11.0398V11.3998H40.0343V11.0398H39.3143ZM40.7543 11.0398V11.3998H41.4743V11.0398H40.7543ZM42.1943 11.0398V11.3998H42.9143V11.0398H42.1943ZM43.6343 11.0398V11.3998H44.3543V11.0398H43.6343ZM45.0743 11.0398V11.3998H45.7943V11.0398H45.0743ZM46.5143 11.0398V11.3998H47.2343V11.0398H46.5143ZM47.9543 11.0398V11.3998H48.6743V11.0398H47.9543ZM49.3943 11.0398V11.3998H50.1143V11.0398H49.3943ZM50.8343 11.0398V11.3998H51.5543V11.0398H50.8343ZM52.2743 11.0398V11.3998H52.6343C52.7069 11.3998 52.7774 11.4069 52.8454 11.4204L52.9153 11.0672C52.8244 11.0492 52.7304 11.0398 52.6343 11.0398H52.2743ZM54.0743 13.5598H53.7143V14.2798H54.0743V13.5598ZM54.0743 14.9998H53.7143V15.7198H54.0743V14.9998ZM54.0743 16.4398H53.7143V17.1598H54.0743V16.4398ZM54.0743 17.8798H53.7143V18.5998H54.0743V17.8798ZM54.0743 19.3198H53.7143V20.0398H54.0743V19.3198ZM54.0743 20.7598H53.7143V21.1198C53.7143 21.1924 53.7072 21.263 53.6937 21.331L54.0469 21.4008C54.0648 21.3099 54.0743 21.216 54.0743 21.1198V20.7598ZM51.5543 22.5598V22.1998H50.8343V22.5598H51.5543ZM50.1143 22.5598V22.1998H49.3943V22.5598H50.1143ZM48.6743 22.5598V22.1998H47.9543V22.5598H48.6743ZM47.2343 22.5598V22.1998H46.5143V22.5598H47.2343ZM45.7943 22.5598V22.1998H45.0743V22.5598H45.7943ZM44.3543 22.5598V22.1998H43.6343V22.5598H44.3543ZM42.9143 22.5598V22.1998H42.1943V22.5598H42.9143ZM41.4743 22.5598V22.1998H40.7543V22.5598H41.4743ZM40.0343 22.5598V22.1998H39.3143V22.5598H40.0343ZM38.5943 22.5598V22.1998H37.8743V22.5598H38.5943ZM37.1543 22.5598V22.1998H36.4343V22.5598H37.1543ZM35.7143 22.5598V22.1998H34.9943V22.5598H35.7143ZM34.2743 22.5598V22.1998H33.5543V22.5598H34.2743ZM32.8343 22.5598V22.1998H32.1143V22.5598H32.8343ZM31.3943 22.5598V22.1998H30.6743V22.5598H31.3943ZM29.9543 22.5598V22.1998H29.2343V22.5598H29.9543ZM28.5143 22.5598V22.1998H27.7943V22.5598H28.5143ZM27.0743 22.5598V22.1998H26.3543V22.5598H27.0743ZM25.6343 22.5598V22.1998H24.9143V22.5598H25.6343ZM24.1943 22.5598V22.1998H23.4743V22.5598H24.1943ZM22.7543 22.5598V22.1998H22.0343V22.5598H22.7543ZM21.3143 22.5598V22.1998H20.5943V22.5598H21.3143ZM19.8743 22.5598V22.1998H19.1543V22.5598H19.8743ZM18.4343 22.5598V22.1998H17.7143V22.5598H18.4343ZM16.9943 22.5598V22.1998H16.2743V22.5598H16.9943Z" fill="#4FAE7B"/>
<path d="M16.6343 15.3599C16.6343 14.5646 17.279 13.9199 18.0743 13.9199H26.7143C27.5096 13.9199 28.1543 14.5646 28.1543 15.3599V18.2399C28.1543 19.0352 27.5096 19.6799 26.7143 19.6799H18.0743C17.279 19.6799 16.6343 19.0352 16.6343 18.2399V15.3599Z" fill="#83CEA1"/>
<path d="M29.2343 15.3599C29.2343 14.5646 29.879 13.9199 30.6743 13.9199H39.3143C40.1096 13.9199 40.7543 14.5646 40.7543 15.3599V18.2399C40.7543 19.0352 40.1096 19.6799 39.3143 19.6799H30.6743C29.879 19.6799 29.2343 19.0352 29.2343 18.2399V15.3599Z" fill="#83CEA1"/>
<path fill-rule="evenodd" clip-rule="evenodd" d="M17.7932 19.6525L17.8631 19.2994C17.9311 19.3128 18.0017 19.3199 18.0743 19.3199H18.4343V19.6799H18.0743C17.9781 19.6799 17.8841 19.6705 17.7932 19.6525ZM26.3543 19.6799V19.3199H26.7143C26.7869 19.3199 26.8574 19.3128 26.9254 19.2994L26.9953 19.6525C26.9044 19.6705 26.8104 19.6799 26.7143 19.6799H26.3543ZM27.5144 19.4374L27.3141 19.1382C27.432 19.0593 27.5336 18.9577 27.6126 18.8397L27.9117 19.04C27.8066 19.197 27.6714 19.3322 27.5144 19.4374ZM28.1543 15.7199H27.7943V15.3599C27.7943 15.2873 27.7872 15.2168 27.7737 15.1488L28.1269 15.0789C28.1448 15.1698 28.1543 15.2638 28.1543 15.3599V15.7199ZM27.9117 14.5598L27.6126 14.7601C27.5336 14.6422 27.432 14.5406 27.3141 14.4616L27.5144 14.1625C27.6714 14.2676 27.8066 14.4028 27.9117 14.5598ZM18.4343 13.9199H18.0743C17.9781 13.9199 17.8841 13.9293 17.7932 13.9473L17.8631 14.3005C17.9311 14.287 18.0017 14.2799 18.0743 14.2799H18.4343V13.9199ZM17.2742 14.1625L17.4745 14.4616C17.3565 14.5406 17.2549 14.6422 17.176 14.7601L16.8768 14.5598C16.982 14.4028 17.1172 14.2676 17.2742 14.1625ZM16.6343 17.8799H16.9943V18.2399C16.9943 18.3125 17.0014 18.3831 17.0148 18.4511L16.6617 18.521C16.6437 18.4301 16.6343 18.3361 16.6343 18.2399V17.8799ZM17.2742 19.4374L17.4745 19.1382C17.3565 19.0593 17.2549 18.9577 17.176 18.8397L16.8768 19.04C16.982 19.197 17.1172 19.3322 17.2742 19.4374ZM16.6343 17.1599H16.9943V16.4399H16.6343V17.1599ZM16.6343 15.7199H16.9943V15.3599C16.9943 15.2873 17.0014 15.2168 17.0148 15.1488L16.6617 15.0789C16.6437 15.1698 16.6343 15.2638 16.6343 15.3599V15.7199ZM19.1543 13.9199V14.2799H19.8743V13.9199H19.1543ZM20.5943 13.9199V14.2799H21.3143V13.9199H20.5943ZM22.0343 13.9199V14.2799H22.7543V13.9199H22.0343ZM23.4743 13.9199V14.2799H24.1943V13.9199H23.4743ZM24.9143 13.9199V14.2799H25.6343V13.9199H24.9143ZM26.3543 13.9199V14.2799H26.7143C26.7869 14.2799 26.8574 14.287 26.9254 14.3005L26.9953 13.9473C26.9044 13.9293 26.8104 13.9199 26.7143 13.9199H26.3543ZM28.1543 16.4399H27.7943V17.1599H28.1543V16.4399ZM28.1543 17.8799H27.7943V18.2399C27.7943 18.3125 27.7872 18.3831 27.7737 18.4511L28.1269 18.521C28.1448 18.4301 28.1543 18.3361 28.1543 18.2399V17.8799ZM25.6343 19.6799V19.3199H24.9143V19.6799H25.6343ZM24.1943 19.6799V19.3199H23.4743V19.6799H24.1943ZM22.7543 19.6799V19.3199H22.0343V19.6799H22.7543ZM21.3143 19.6799V19.3199H20.5943V19.6799H21.3143ZM19.8743 19.6799V19.3199H19.1543V19.6799H19.8743Z" fill="#4FAE7B"/>
<path d="M13.7543 26.8802C13.7543 26.0849 14.399 25.4402 15.1943 25.4402H52.6343C53.4296 25.4402 54.0743 26.0849 54.0743 26.8802V35.5202C54.0743 36.3155 53.4296 36.9602 52.6343 36.9602H15.1943C14.399 36.9602 13.7543 36.3155 13.7543 35.5202V26.8802Z" fill="#E5E6EB"/>
</g>
<defs>
<clipPath id="clip0_741_2053">
<rect width="50.4" height="36" fill="white" transform="translate(8.71428 6)"/>
</clipPath>
</defs>
</svg>
