<svg width="16" height="16" viewBox="0 0 16 16" fill="none" xmlns="http://www.w3.org/2000/svg">
<path d="M13.3184 10.66C13.6366 10.4768 14.0443 10.5869 14.2275 10.9051C14.4104 11.2232 14.3005 11.6301 13.9824 11.8133L8.82422 14.783C8.31007 15.0789 7.67721 15.0789 7.16309 14.783L2.00488 11.8133C1.68673 11.63 1.57759 11.2233 1.76074 10.9051C1.94399 10.587 2.35074 10.4769 2.66895 10.66L7.82617 13.6307C7.9296 13.6902 8.0577 13.6902 8.16113 13.6307L13.3184 10.66ZM13.3213 7.78007C13.6395 7.59688 14.0472 7.70701 14.2305 8.02518C14.4133 8.34335 14.3034 8.7502 13.9854 8.93339L8.82715 11.9031C8.31303 12.199 7.68012 12.199 7.16602 11.9031L2.00781 8.93339C1.68968 8.75013 1.58057 8.3434 1.76367 8.02518C1.94693 7.70704 2.35365 7.59695 2.67188 7.78007L7.8291 10.7498C7.93253 10.8093 8.06063 10.8093 8.16406 10.7498L13.3213 7.78007ZM7.50098 1.13749C7.80983 0.959672 8.19114 0.959689 8.5 1.13749L13.5674 4.05448C14.1929 4.41519 14.2319 5.28454 13.6846 5.70878L13.5674 5.78788L8.5 8.70487C8.22991 8.86031 7.90484 8.87994 7.62109 8.76347L7.50098 8.70487L2.43457 5.78788C1.76709 5.40316 1.76709 4.4392 2.43457 4.05448L7.50098 1.13749ZM3.59473 4.92069L8 7.4578L12.4053 4.92069L8 2.38456L3.59473 4.92069Z" fill="#4E5969"/>
</svg>
