<svg width="16" height="16" viewBox="0 0 16 16" fill="none" xmlns="http://www.w3.org/2000/svg">
<path d="M3.23081 1.19629C3.82548 1.19629 4.30725 1.67896 4.30725 2.27362V2.31807H11.0077V3.3954H4.30725V3.47096C4.30725 4.06562 3.82548 4.5474 3.23081 4.5474H2.99081V10.7696H3.23081C3.82548 10.7696 4.30725 11.2523 4.30725 11.847V11.9207H11.0077V12.9981H4.30725V13.0434C4.30725 13.639 3.82548 14.1207 3.23081 14.1207H2.03348C1.43881 14.1207 0.957031 13.6381 0.957031 13.0434V11.847C0.957031 11.2514 1.43881 10.7696 2.03348 10.7696H1.91436V4.5474H2.03348C1.43881 4.5474 0.957031 4.06562 0.957031 3.47096V2.27362C0.957031 1.67807 1.43881 1.19629 2.03348 1.19629H3.23081ZM12.085 4.5474C11.4904 4.5474 11.0086 4.06473 11.0086 3.47007V2.27362C11.0086 1.67807 11.4904 1.19629 12.085 1.19629H13.2815C13.877 1.19629 14.3588 1.67896 14.3588 2.27362V3.47007C14.3588 4.06473 13.8761 4.54651 13.2815 4.54651H13.4015V10.7687H13.2815C13.877 10.7687 14.3588 11.2514 14.3588 11.8461V13.0425C14.3588 13.6381 13.8761 14.1198 13.2815 14.1198H12.085C11.4904 14.1198 11.0086 13.6372 11.0086 13.0425V11.8461C11.0086 11.2505 11.4904 10.7687 12.085 10.7687H12.3241V4.54651H12.085V4.5474ZM3.23081 11.8452H2.03348V13.0425H3.23081V11.8461V11.8452ZM13.2815 11.8452H12.085V13.0425H13.2815V11.8461V11.8452ZM9.51259 5.20518C9.65155 5.21083 9.78294 5.27 9.87926 5.37032C9.97559 5.47064 10.0294 5.60432 10.0294 5.7434C10.0294 5.88248 9.97559 6.01616 9.87926 6.11648C9.78294 6.2168 9.65155 6.27597 9.51259 6.28162H8.18814V9.99096C8.18025 10.1282 8.12015 10.2573 8.02016 10.3517C7.92017 10.4461 7.78787 10.4987 7.65036 10.4987C7.51286 10.4987 7.38055 10.4461 7.28057 10.3517C7.18058 10.2573 7.12048 10.1282 7.11259 9.99096L7.11081 6.28162H5.80325C5.66429 6.27597 5.5329 6.2168 5.43658 6.11648C5.34025 6.01616 5.28646 5.88248 5.28646 5.7434C5.28646 5.60432 5.34025 5.47064 5.43658 5.37032C5.5329 5.27 5.66429 5.21083 5.80325 5.20518H9.51259ZM3.23081 2.27362H2.03348V3.47007H3.23081V2.27362ZM13.2815 2.27362H12.085V3.47007H13.2815V2.27362Z" fill="#4E5969" stroke="#4E5969" stroke-width="0.2"/>
</svg>
