<svg width="16" height="16" viewBox="0 0 16 16" fill="none" xmlns="http://www.w3.org/2000/svg">
<path d="M13.5 1.75C14.0523 1.75 14.5 2.19772 14.5 2.75V13.25C14.5 13.7677 14.1067 14.1938 13.6025 14.2451L13.5 14.25H2.5L2.39746 14.2451C1.89333 14.1938 1.5 13.7677 1.5 13.25V2.75C1.5 2.19772 1.94772 1.75 2.5 1.75H13.5ZM8.66504 12.9199H13.1699V9.92871H8.66504V12.9199ZM2.83008 12.9199H7.33496V9.92871H2.83008V12.9199ZM8.66504 8.59961H13.1699V5.91504H8.66504V8.59961ZM2.83008 8.59961H7.33496V5.91504H2.83008V8.59961ZM2.83008 4.58496H13.1699V3.08008H2.83008V4.58496Z" fill="#4E5969"/>
</svg>
