<svg width="16" height="16" viewBox="0 0 16 16" fill="none" xmlns="http://www.w3.org/2000/svg">
<path d="M11.3333 8C12.2174 8 13.0652 8.35119 13.6904 8.97631C14.3155 9.60143 14.6667 10.4493 14.6667 11.3333C14.6667 12.2174 14.3155 13.0652 13.6904 13.6904C13.0652 14.3155 12.2174 14.6667 11.3333 14.6667C10.4493 14.6667 9.60143 14.3155 8.97631 13.6904C8.35119 13.0652 8 12.2174 8 11.3333C8 10.4493 8.35119 9.60143 8.97631 8.97631C9.60143 8.35119 10.4493 8 11.3333 8ZM10.6667 2C10.8435 2 11.013 2.07024 11.1381 2.19526C11.2631 2.32029 11.3333 2.48986 11.3333 2.66667V3.33333H12.6667C13.0203 3.33333 13.3594 3.47381 13.6095 3.72386C13.8595 3.97391 14 4.31304 14 4.66667V6.66667H12.6667V4.66667H3.33333V12.6667H6.66667V14H3.33333C2.97971 14 2.64057 13.8595 2.39052 13.6095C2.14048 13.3594 2 13.0203 2 12.6667V4.66667C2 4.31304 2.14048 3.97391 2.39052 3.72386C2.64057 3.47381 2.97971 3.33333 3.33333 3.33333H4.66667V2.66667C4.66667 2.48986 4.7369 2.32029 4.86193 2.19526C4.98695 2.07024 5.15652 2 5.33333 2C5.51014 2 5.67971 2.07024 5.80474 2.19526C5.92976 2.32029 6 2.48986 6 2.66667V3.33333H10V2.66667C10 2.48986 10.0702 2.32029 10.1953 2.19526C10.3203 2.07024 10.4899 2 10.6667 2ZM11.3333 9.33333C10.8029 9.33333 10.2942 9.54405 9.91912 9.91912C9.54405 10.2942 9.33333 10.8029 9.33333 11.3333C9.33333 11.8638 9.54405 12.3725 9.91912 12.7475C10.2942 13.1226 10.8029 13.3333 11.3333 13.3333C11.8638 13.3333 12.3725 13.1226 12.7475 12.7475C13.1226 12.3725 13.3333 11.8638 13.3333 11.3333C13.3333 10.8029 13.1226 10.2942 12.7475 9.91912C12.3725 9.54405 11.8638 9.33333 11.3333 9.33333ZM11.3333 9.66667C11.5101 9.66667 11.6797 9.73691 11.8047 9.86193C11.9298 9.98695 12 10.1565 12 10.3333V10.6667C12.1768 10.6667 12.3464 10.7369 12.4714 10.8619C12.5964 10.987 12.6667 11.1565 12.6667 11.3333C12.6667 11.5101 12.5964 11.6797 12.4714 11.8047C12.3464 11.9298 12.1768 12 12 12H11.3333C11.1565 12 10.987 11.9298 10.8619 11.8047C10.7369 11.6797 10.6667 11.5101 10.6667 11.3333V10.3333C10.6667 10.1565 10.7369 9.98695 10.8619 9.86193C10.987 9.73691 11.1565 9.66667 11.3333 9.66667ZM5.66667 9.33333C5.83659 9.33352 6.00002 9.39859 6.12358 9.51523C6.24714 9.63188 6.32149 9.7913 6.33145 9.96093C6.34141 10.1306 6.28622 10.2976 6.17716 10.4279C6.0681 10.5582 5.9134 10.6419 5.74467 10.662L5.66667 10.6667H5.33333C5.16341 10.6665 4.99998 10.6014 4.87642 10.4848C4.75286 10.3681 4.67851 10.2087 4.66855 10.0391C4.65859 9.86944 4.71378 9.70241 4.82284 9.57211C4.9319 9.44181 5.0866 9.35807 5.25533 9.338L5.33333 9.33333H5.66667ZM7.33333 6.66667C7.51014 6.66667 7.67971 6.7369 7.80474 6.86193C7.92976 6.98695 8 7.15652 8 7.33333C8 7.51014 7.92976 7.67971 7.80474 7.80474C7.67971 7.92976 7.51014 8 7.33333 8H5.33333C5.15652 8 4.98695 7.92976 4.86193 7.80474C4.7369 7.67971 4.66667 7.51014 4.66667 7.33333C4.66667 7.15652 4.7369 6.98695 4.86193 6.86193C4.98695 6.7369 5.15652 6.66667 5.33333 6.66667H7.33333Z" fill="#4E5969"/>
</svg>
