<svg width="16" height="16" viewBox="0 0 16 16" fill="none" xmlns="http://www.w3.org/2000/svg">
<path d="M14.8535 9.6465L13.3535 8.1465C13.2597 8.05276 13.1326 8.00011 13 8.00011C12.8674 8.00011 12.7403 8.05276 12.6465 8.1465L8 12.793V15H10.207L14.8535 10.3535C14.9472 10.2597 14.9999 10.1326 14.9999 10C14.9999 9.86742 14.9472 9.74026 14.8535 9.6465ZM9.793 14H9V13.207L11.5 10.707L12.293 11.5L9.793 14ZM13 10.793L12.207 10L13 9.207L13.793 10L13 10.793ZM4 8H9V9H4V8ZM4 5H10V6H4V5Z" fill="#4E5969"/>
<path d="M13 2C13 1.73478 12.8946 1.48043 12.7071 1.29289C12.5196 1.10536 12.2652 1 12 1H2C1.73479 1 1.48043 1.10536 1.2929 1.29289C1.10536 1.48043 1 1.73478 1 2V8.5C0.998835 9.49718 1.26929 10.4759 1.78232 11.3309C2.29536 12.186 3.0316 12.8852 3.912 13.3535L6.5 14.7335V13.6L4.383 12.471C3.66282 12.0877 3.06054 11.5156 2.64074 10.816C2.22094 10.1165 1.99945 9.31585 2 8.5V2H12V6.5H13V2Z" fill="#4E5969"/>
</svg>
