<svg width="32" height="32" viewBox="0 0 32 32" fill="none" xmlns="http://www.w3.org/2000/svg">
<rect width="32" height="32" rx="8" fill="#F2F3F5"/>
<path d="M7.01562 18C7.28262 19.8398 11.2024 21.2998 16 21.2998C20.7976 21.2998 24.7174 19.8398 24.9844 18H25V22.2998C24.9993 24.5087 20.9701 26.2998 16 26.2998C11.0299 26.2998 7.00071 24.5087 7 22.2998V18H7.01562ZM7.01562 12.4004C7.28286 14.2401 11.2025 15.7002 16 15.7002C20.7975 15.7002 24.7171 14.2401 24.9844 12.4004H25V15.7002C24.9993 17.9091 20.9701 19.7002 16 19.7002C11.0299 19.7002 7.00071 17.9091 7 15.7002V12.4004H7.01562ZM16 7C20.9706 7 25 8.567 25 10.5C25 12.433 20.9706 14 16 14C11.0294 14 7 12.433 7 10.5C7 8.567 11.0294 7 16 7Z" fill="#272E3B"/>
</svg>
