<svg width="140" height="140" viewBox="0 0 140 140" fill="none" xmlns="http://www.w3.org/2000/svg">
<rect width="140" height="140" fill="#F7F8FA"/>
<path d="M93.4661 77.27L90.8341 87.098L90.7601 87.118L88.9192 93.9886C88.3475 96.1223 86.1544 97.3887 84.0206 96.8172L69.2921 92.872L69.0701 92.93L49.4941 87.686L49.4601 87.558L47.9316 87.1479C45.8981 86.6022 44.6915 84.5118 45.2361 82.478L45.3001 82.496L54.9581 46.452L54.8941 46.434C55.4564 44.3385 57.6107 43.0952 59.7064 43.6569L90.1221 51.808L90.1541 51.696L95.7117 53.1848C97.8458 53.7565 99.1123 55.9502 98.5402 58.0843L93.4321 77.14L93.4661 77.27ZM94.7641 56.996L58.7181 47.338L51.6021 73.898L87.6441 83.554L94.7641 56.996ZM62.4681 64.784L64.8561 68.874L71.0701 63.024L74.2361 68.556L82.6061 61.178L84.7001 78.296L57.0561 70.884L62.4681 64.784ZM64.2541 60.76C62.6841 60.338 61.7501 58.722 62.1721 57.152C62.5941 55.582 64.2081 54.646 65.7801 55.068C67.3501 55.49 68.2841 57.106 67.8621 58.676C67.4401 60.246 65.8261 61.182 64.2541 60.76ZM81.4101 47.434L80.4521 47.18L72.8621 45.146L80.1947 43.1812C82.3284 42.6095 84.5217 43.8757 85.0936 46.0094L85.7901 48.608L81.4101 47.434ZM45.2341 56.618L47.7181 65.888L45.6841 73.476L41.459 57.7034C40.8874 55.5696 42.1537 53.3765 44.2873 52.8047L51.7601 50.802L50.5861 55.182L45.2341 56.618ZM55.9792 96.4374C53.8455 97.0088 51.6526 95.7427 51.0807 93.6092L50.0801 89.876L65.2741 93.948L55.9792 96.4374Z" fill="#C9CDD4"/>
</svg>
