<svg width="16" height="16" viewBox="0 0 16 16" fill="none" xmlns="http://www.w3.org/2000/svg">
<path d="M10.4 7.7V9.5H11.6V10.7H9.2V7.7H10.4Z" fill="#4E5969"/>
<path fill-rule="evenodd" clip-rule="evenodd" d="M9.86152 2.00293C10.164 2.03373 10.4 2.28939 10.4 2.6V5.64336C10.351 5.63635 10.3018 5.62999 10.2523 5.62461C12.3592 5.85025 14 7.63325 14 9.8C14 12.1196 12.1196 14 9.8 14H2.6C2.28939 14 2.03373 13.764 2.00293 13.4615L2 13.4V2.6C2 2.26863 2.2736 2 2.61111 2H9.8L9.86152 2.00293ZM3.2 12.8H6.86152C6.08332 12.0377 5.6 10.9754 5.6 9.8C5.6 7.65017 7.21534 5.87841 9.29844 5.63047C9.26551 5.63443 9.23269 5.63868 9.2 5.64336V3.2H3.2V12.8ZM9.8 6.8C8.14315 6.8 6.8 8.14315 6.8 9.8C6.8 11.4569 8.14315 12.8 9.8 12.8C11.4569 12.8 12.8 11.4569 12.8 9.8C12.8 8.14315 11.4569 6.8 9.8 6.8Z" fill="#4E5969"/>
</svg>