<svg width="16" height="16" viewBox="0 0 16 16" fill="none" xmlns="http://www.w3.org/2000/svg">
<path d="M8.00045 2.86621C9.5516 2.86628 11.0678 3.32767 12.3569 4.19043C13.5653 4.99923 14.5231 6.12702 15.1255 7.44629L15.2417 7.71289L15.2505 7.73535C15.3615 8.03457 15.3615 8.36387 15.2505 8.66309C15.2477 8.67053 15.2447 8.67821 15.2417 8.68555C14.6503 10.1195 13.6459 11.3452 12.3569 12.208C11.0678 13.0708 9.5516 13.5322 8.00045 13.5322C6.44919 13.5322 4.9322 13.0708 3.64303 12.208C2.35417 11.3453 1.35063 10.1193 0.759241 8.68555C0.756214 8.67821 0.753215 8.67053 0.750452 8.66309C0.639336 8.36374 0.639334 8.0347 0.750452 7.73535L0.759241 7.71289C1.35063 6.2791 2.35417 5.05318 3.64303 4.19043C4.9322 3.32761 6.44919 2.86621 8.00045 2.86621ZM8.00045 4.2002C6.71335 4.2002 5.45489 4.582 4.38522 5.29785C3.32213 6.00936 2.49239 7.01876 2.00045 8.19922C2.49239 9.37968 3.32213 10.3891 4.38522 11.1006C5.45489 11.8164 6.71334 12.1982 8.00045 12.1982C9.28754 12.1982 10.5461 11.8165 11.6157 11.1006C12.6785 10.3892 13.5066 9.37941 13.9985 8.19922C13.5066 7.01903 12.6785 6.00926 11.6157 5.29785C10.5461 4.58196 9.28754 4.20026 8.00045 4.2002Z" fill="#4E5969"/>
<path d="M9.33297 8.19922C9.33297 7.46293 8.73624 6.86627 7.99996 6.86621C7.26364 6.86621 6.66696 7.46289 6.66696 8.19922C6.66701 8.9355 7.26367 9.53223 7.99996 9.53223C8.73621 9.53217 9.33292 8.93546 9.33297 8.19922ZM10.666 8.19922C10.6659 9.67184 9.47259 10.8652 7.99996 10.8652C6.52729 10.8652 5.33303 9.67188 5.33297 8.19922C5.33297 6.72652 6.52726 5.53223 7.99996 5.53223C9.47262 5.53228 10.666 6.72655 10.666 8.19922Z" fill="#4E5969"/>
</svg>