<svg width="16" height="16" viewBox="0 0 16 16" fill="none" xmlns="http://www.w3.org/2000/svg">
<path fill-rule="evenodd" clip-rule="evenodd" d="M7.5 6.55977C7.7079 6.55982 7.90202 6.66403 8.01443 6.83574L8.71864 7.9127L9.98025 8.23789C10.1812 8.28982 10.3415 8.43878 10.4058 8.63281C10.47 8.82697 10.4293 9.04019 10.2977 9.19824L9.47179 10.1885L9.54698 11.467C9.55891 11.6708 9.4639 11.8667 9.29574 11.9867C9.12752 12.1066 8.90876 12.1346 8.71506 12.0605L7.5 11.5953L6.28494 12.0605C6.09122 12.1346 5.87247 12.1066 5.70426 11.9867C5.53604 11.8667 5.44109 11.6709 5.45302 11.467L5.52762 10.1885L4.70226 9.19824C4.57064 9.04019 4.53 8.82699 4.59424 8.63281C4.65854 8.43882 4.81881 8.28983 5.01975 8.23789L6.28076 7.9127L6.98557 6.83574C7.09799 6.66407 7.29212 6.55981 7.5 6.55977ZM7.18072 8.75762C7.09804 8.88396 6.96994 8.97543 6.82205 9.01367L6.25033 9.16074L6.62451 9.61016C6.72139 9.72645 6.77049 9.87442 6.76177 10.0244L6.72776 10.6033L7.27799 10.393L7.3323 10.3748C7.46005 10.3391 7.59725 10.3453 7.72201 10.393L8.27165 10.6033L8.23823 10.0244C8.22951 9.87445 8.27864 9.72644 8.37549 9.61016L8.74908 9.16074L8.17795 9.01367C8.03 8.97543 7.90197 8.88401 7.81928 8.75762L7.5 8.26953L7.18072 8.75762Z" fill="#4E5969"/>
<path d="M9.94444 5.42012H5.05556V4.22012H9.94444V5.42012Z" fill="#4E5969"/>
<path fill-rule="evenodd" clip-rule="evenodd" d="M12.4516 2.00293C12.7596 2.03373 13 2.28939 13 2.6V13.4L12.997 13.4615C12.9677 13.7438 12.739 13.9683 12.4516 13.9971L12.3889 14H2.61111C2.29475 14 2.03435 13.764 2.00298 13.4615L2 13.4V2.6C2 2.26863 2.2736 2 2.61111 2H12.3889L12.4516 2.00293ZM3.22222 12.8H11.7778V3.2H3.22222V12.8Z" fill="#4E5969"/>
</svg>