<svg width="16" height="16" viewBox="0 0 16 16" fill="none" xmlns="http://www.w3.org/2000/svg">
<g clip-path="url(#clip0_174_3517)">
<path d="M7.33398 4C7.70186 4.00037 8 4.29903 8 4.66699V11.334C7.99972 11.6246 7.81135 11.8822 7.53418 11.9697C7.25681 12.0572 6.95403 11.9539 6.78711 11.7158L3.33398 6.78125V11.334C3.33363 11.7018 3.0348 11.9998 2.66699 12C2.29902 12 2.00035 11.7019 2 11.334V4.66699C2 4.37601 2.18928 4.11873 2.4668 4.03125C2.7442 3.94401 3.04611 4.0469 3.21289 4.28516L6.66699 9.21875V4.66699C6.66699 4.2988 6.96579 4 7.33398 4ZM13.333 10.666C13.7011 10.666 13.9998 10.965 14 11.333C14 11.7012 13.7012 12 13.333 12H10C9.63181 12 9.33301 11.7012 9.33301 11.333C9.33319 10.965 9.63192 10.666 10 10.666H13.333ZM11.667 4C13.0641 4.0002 14 5.31331 14 6.66699C13.9999 8.02056 13.064 9.33378 11.667 9.33398C10.2698 9.33398 9.33316 8.02066 9.33301 6.66699C9.33301 5.31321 10.2697 4 11.667 4ZM11.667 5.33398C11.2234 5.33398 10.667 5.81164 10.667 6.66699C10.6671 7.52214 11.2234 8 11.667 8C12.1105 7.99977 12.6669 7.52193 12.667 6.66699C12.667 5.81185 12.1106 5.33422 11.667 5.33398Z" fill="#4E5969"/>
</g>
<defs>
<clipPath id="clip0_174_3517">
<rect width="16" height="16" fill="white"/>
</clipPath>
</defs>
</svg>
