<svg width="16" height="16" viewBox="0 0 16 16" fill="none" xmlns="http://www.w3.org/2000/svg">
<g clip-path="url(#clip0_174_3555)">
<path d="M1.52832 1.52832C1.78867 1.26797 2.21133 1.26797 2.47168 1.52832L14.4717 13.5283C14.732 13.7887 14.732 14.2113 14.4717 14.4717C14.2113 14.732 13.7887 14.732 13.5283 14.4717L8.66699 9.61035V11.334C8.66718 11.6874 8.80774 12.0265 9.05762 12.2764C9.30763 12.5262 9.64656 12.667 10 12.667C10.3682 12.667 10.667 12.9658 10.667 13.334C10.6666 13.7018 10.3679 14 10 14C9.29294 14 8.61432 13.7196 8.11426 13.2197C8.07393 13.1794 8.03745 13.1353 8 13.0928C7.96254 13.1354 7.92609 13.1794 7.88574 13.2197C7.38569 13.7196 6.70707 14 6 14C5.63205 14 5.33339 13.7018 5.33301 13.334C5.33301 12.9658 5.63181 12.667 6 12.667C6.35345 12.667 6.69238 12.5262 6.94238 12.2764C7.16099 12.0578 7.29569 11.7707 7.32617 11.4658L7.33301 11.334V8.27637L1.52832 2.47168C1.26797 2.21133 1.26797 1.78867 1.52832 1.52832ZM10 2C10.3682 2.00003 10.667 2.29882 10.667 2.66699C10.6668 3.03499 10.368 3.33396 10 3.33398C9.64638 3.33398 9.30767 3.47456 9.05762 3.72461C8.80767 3.97464 8.66699 4.31345 8.66699 4.66699V5.33398C8.66661 5.70183 8.36793 5.99997 8 6C7.63205 6 7.33339 5.70185 7.33301 5.33398V4.66699C7.33301 4.31347 7.19229 3.97464 6.94238 3.72461C6.69235 3.47457 6.3536 3.334 6 3.33398C5.63194 3.33398 5.33322 3.035 5.33301 2.66699C5.33301 2.2988 5.63181 2 6 2C6.70723 2.00001 7.38566 2.28117 7.88574 2.78125C7.92597 2.82149 7.96264 2.86476 8 2.90723C8.03737 2.86476 8.07402 2.82149 8.11426 2.78125C8.61435 2.28115 9.29276 2 10 2Z" fill="#4E5969"/>
</g>
<defs>
<clipPath id="clip0_174_3555">
<rect width="16" height="16" fill="white"/>
</clipPath>
</defs>
</svg>
