<svg width="16" height="16" viewBox="0 0 16 16" fill="none" xmlns="http://www.w3.org/2000/svg">
<path d="M14.1025 2.00488C14.6067 2.05621 15 2.48232 15 3V13C15 13.5177 14.6067 13.9438 14.1025 13.9951L14 14H2C1.48232 14 1.05621 13.6067 1.00488 13.1025L1 13V3C1 2.44772 1.44772 2 2 2H14L14.1025 2.00488ZM2.33008 12.6699H13.6699V3.33008H2.33008V12.6699ZM5.45117 8.13477C6.45332 8.13498 7.26552 8.94802 7.26562 9.9502C7.26541 10.9523 6.45326 11.7644 5.45117 11.7646C4.44891 11.7646 3.63595 10.9524 3.63574 9.9502C3.63585 8.94789 4.44884 8.13477 5.45117 8.13477ZM11.4062 9.58008C11.7733 9.58021 12.071 9.87813 12.0713 10.2451C12.0713 10.6123 11.7734 10.91 11.4062 10.9102H8.59375C8.22648 10.9102 7.92871 10.6124 7.92871 10.2451C7.92895 9.87805 8.22663 9.58008 8.59375 9.58008H11.4062ZM5.45117 9.46484C5.18338 9.46484 4.96593 9.68243 4.96582 9.9502C4.96603 10.2179 5.18344 10.4346 5.45117 10.4346C5.71872 10.4344 5.93534 10.2177 5.93555 9.9502C5.93544 9.68256 5.71879 9.46505 5.45117 9.46484ZM6.33105 4.64062C6.58228 4.37322 7.00277 4.35948 7.27051 4.61035C7.5383 4.86159 7.55192 5.28293 7.30078 5.55078L5.7041 7.25195C5.45527 7.51686 5.04003 7.53305 4.77148 7.28809L3.72363 6.33203C3.45248 6.08447 3.43317 5.66384 3.68066 5.39258C3.9282 5.12146 4.34886 5.10221 4.62012 5.34961L5.18262 5.86328L6.33105 4.64062ZM11.4062 5.51562C11.7734 5.51575 12.0713 5.81347 12.0713 6.18066C12.0712 6.54781 11.7734 6.84557 11.4062 6.8457H8.59375C8.22651 6.8457 7.92876 6.54789 7.92871 6.18066C7.92871 5.81339 8.22648 5.51562 8.59375 5.51562H11.4062Z" fill="#4E5969"/>
</svg>
