<svg width="18" height="18" viewBox="0 0 18 18" fill="none" xmlns="http://www.w3.org/2000/svg">
    <g clip-path="url(#clip0_8441_33898)">
        <path
            d="M7.86328 8.2793L6.72656 9.41602L8.58301 11.2725L9.71973 10.1357L10.7803 11.1963L9.64355 12.333L9.94629 12.6357C10.239 12.9286 10.2389 13.4034 9.94629 13.6963L8.69629 14.9463C8.25875 15.3837 7.3772 15.866 6.37695 16.0176C5.52448 16.1467 4.53338 16.0399 3.63184 15.4258L2.0293 17.0293L0.96875 15.9688L2.57129 14.3652C1.95833 13.4643 1.85253 12.4739 1.98145 11.6221C2.133 10.6218 2.61535 9.74028 3.05273 9.30273L4.30273 8.05273L4.41699 7.95898C4.53922 7.87758 4.68398 7.83302 4.83301 7.83301C5.03178 7.83311 5.22272 7.91217 5.36328 8.05273L5.66602 8.35547L6.80273 7.21875L7.86328 8.2793ZM4.11328 10.3633C3.92567 10.5511 3.57364 11.1286 3.46484 11.8467C3.36213 12.5255 3.48461 13.2571 4.11328 13.8857C4.74201 14.5144 5.47348 14.637 6.15234 14.5342C6.87041 14.4254 7.44799 14.0733 7.63574 13.8857L8.35547 13.166L4.83301 9.64355L4.11328 10.3633ZM17.0293 2.0293L15.4258 3.63184C16.0399 4.53339 16.1466 5.52448 16.0176 6.37695C15.885 7.25199 15.4995 8.03626 15.1123 8.51172L14.9463 8.69629L13.6963 9.94629C13.4034 10.2389 12.9286 10.239 12.6357 9.94629L8.05273 5.36328C7.91217 5.22272 7.83311 5.03179 7.83301 4.83301C7.83302 4.63421 7.91221 4.44335 8.05273 4.30273L9.30273 3.05273C9.74027 2.6153 10.6218 2.133 11.6221 1.98145C12.4739 1.85253 13.4643 1.95834 14.3652 2.57129L15.9688 0.96875L17.0293 2.0293ZM13.8857 4.11328C13.2571 3.4846 12.5255 3.36213 11.8467 3.46484C11.1286 3.57364 10.551 3.92569 10.3633 4.11328L9.64355 4.83301L13.166 8.35547L13.8857 7.63574C14.0734 7.44796 14.4254 6.87041 14.5342 6.15234C14.637 5.47347 14.5144 4.742 13.8857 4.11328Z"
            fill="#009E9E" />
    </g>
    <defs>
        <clipPath id="clip0_8441_33898">
            <rect width="18" height="18" fill="white" />
        </clipPath>
    </defs>
</svg>