<svg width="17" height="17" viewBox="0 0 17 17" fill="none" xmlns="http://www.w3.org/2000/svg">
<path d="M9.83325 5.16659V3.83325H15.1666V5.16659H9.83325ZM9.83325 7.83325V6.49992H15.1666V7.83325H9.83325ZM9.83325 10.4999V9.16659H15.1666V10.4999H9.83325ZM5.83325 9.83325C5.2777 9.83325 4.80547 9.63881 4.41659 9.24992C4.0277 8.86103 3.83325 8.38881 3.83325 7.83325C3.83325 7.2777 4.0277 6.80547 4.41659 6.41659C4.80547 6.0277 5.2777 5.83325 5.83325 5.83325C6.38881 5.83325 6.86103 6.0277 7.24992 6.41659C7.63881 6.80547 7.83325 7.2777 7.83325 7.83325C7.83325 8.38881 7.63881 8.86103 7.24992 9.24992C6.86103 9.63881 6.38881 9.83325 5.83325 9.83325ZM1.83325 13.8333V12.5666C1.83325 12.3333 1.88881 12.111 1.99992 11.8999C2.11103 11.6888 2.26659 11.5221 2.46659 11.3999C2.96659 11.0999 3.49725 10.875 4.05859 10.7253C4.61992 10.5755 5.21147 10.5004 5.83325 10.4999C6.45503 10.4995 7.04681 10.5746 7.60859 10.7253C8.17036 10.8759 8.70081 11.1008 9.19992 11.3999C9.39992 11.5221 9.55547 11.6888 9.66659 11.8999C9.7777 12.111 9.83325 12.3333 9.83325 12.5666V13.8333H1.83325Z" fill="white"/>
</svg>
