<svg width="18" height="18" viewBox="0 0 18 18" fill="none" xmlns="http://www.w3.org/2000/svg">
<rect width="18" height="18" rx="4" fill="#7E5AEA"/>
<path d="M8.5 4C9.32843 4 10 4.67157 10 5.5C10 6.32843 9.32843 7 8.5 7C8.30681 7 8.12273 6.96202 7.95312 6.89551L7.1543 7.95996C7.27396 8.12127 7.36703 8.30281 7.42578 8.5H10.5742C10.7895 7.77737 11.4574 7.25 12.25 7.25C13.2165 7.25 14 8.0335 14 9C14 9.9665 13.2165 10.75 12.25 10.75C11.4574 10.75 10.7895 10.2226 10.5742 9.5H7.42578C7.36711 9.69693 7.27374 9.87791 7.1543 10.0391L7.95312 11.1035C8.12263 11.0371 8.30694 11 8.5 11C9.32843 11 10 11.6716 10 12.5C10 13.3284 9.32843 14 8.5 14C7.67157 14 7 13.3284 7 12.5C7 12.2311 7.07137 11.979 7.19531 11.7607L6.35449 10.6396C6.16581 10.7092 5.96285 10.75 5.75 10.75C4.7835 10.75 4 9.9665 4 9C4 8.0335 4.7835 7.25 5.75 7.25C5.96273 7.25 6.1659 7.28986 6.35449 7.35938L7.19531 6.23828C7.07163 6.02019 7 5.76863 7 5.5C7 4.67157 7.67157 4 8.5 4ZM8.5 12C8.22386 12 8 12.2239 8 12.5C8 12.7761 8.22386 13 8.5 13C8.77614 13 9 12.7761 9 12.5C9 12.2239 8.77614 12 8.5 12ZM5.75 8.25C5.33579 8.25 5 8.58579 5 9C5 9.41421 5.33579 9.75 5.75 9.75C6.16421 9.75 6.5 9.41421 6.5 9C6.5 8.58579 6.16421 8.25 5.75 8.25ZM12.25 8.25C11.8358 8.25 11.5 8.58579 11.5 9C11.5 9.41421 11.8358 9.75 12.25 9.75C12.6642 9.75 13 9.41421 13 9C13 8.58579 12.6642 8.25 12.25 8.25ZM8.5 5C8.22386 5 8 5.22386 8 5.5C8 5.77614 8.22386 6 8.5 6C8.77614 6 9 5.77614 9 5.5C9 5.22386 8.77614 5 8.5 5Z" fill="white"/>
</svg>
