<svg width="18" height="18" viewBox="0 0 18 18" fill="none" xmlns="http://www.w3.org/2000/svg">
    <rect width="18" height="18" rx="4" fill="#1D2129" />
    <path
        d="M14.5 10.5L13 11.5L14.5 13L13 14.5L11.5 13L10.5 14.5L9.5 9.5L14.5 10.5ZM13 9.14258L12 9V7.5H5V13H9.14258L9.28613 14H4V4H13V9.14258ZM10.9053 12.4492L11.376 11.7441L12.0654 12.4346L13 13.3691L13.3691 13L12.4346 12.0654L11.7441 11.376L12.4492 10.9053L10.5195 10.5195L10.9053 12.4492ZM5 6.5H12V5H5V6.5Z"
        fill="white" />
</svg>