<svg width="18" height="18" viewBox="0 0 18 18" fill="none" xmlns="http://www.w3.org/2000/svg">
    <rect width="18" height="18" rx="4" fill="#1D2129" />
    <path
        d="M11 4.75H9.5V5.5293C10.261 5.61849 10.9604 5.90892 11.5439 6.3457L12.4639 5.25L13.2305 5.89258L12.2695 7.03613C12.8813 7.77239 13.25 8.71791 13.25 9.75C13.25 12.0972 11.3472 14 9 14C6.65279 14 4.75 12.0972 4.75 9.75C4.75 7.57195 6.38843 5.77677 8.5 5.5293V4.75H7V3.75H11V4.75ZM9 6.5C7.20507 6.5 5.75 7.95507 5.75 9.75C5.75 11.5449 7.20507 13 9 13C10.7949 13 12.25 11.5449 12.25 9.75C12.25 7.95507 10.7949 6.5 9 6.5ZM9.40039 9.65039H11V10.4502H8.59961V7.9502H9.40039V9.65039Z"
        fill="white" />
</svg>