<svg width="280" height="96" viewBox="0 0 280 96" fill="none" xmlns="http://www.w3.org/2000/svg">
<g clip-path="url(#clip0_11560_14365)">
<path d="M0 8C0 3.58172 3.58172 0 8 0H272C276.418 0 280 3.58172 280 8V88C280 92.4183 276.418 96 272 96H8C3.58172 96 0 92.4183 0 88V8Z" fill="url(#paint0_linear_11560_14365)"/>
<g filter="url(#filter0_f_11560_14365)">
<circle cx="15.5" cy="-4.5" r="32.5" fill="#3AFFCE"/>
</g>
<path d="M266.222 13.9446L266.111 13.8335C262.749 10.4684 258.291 8.41975 253.548 8.05898C253.037 8.01992 252.522 8.00026 252.001 8C246.5 8 241.445 10.2223 237.833 13.8335C234.222 17.4991 232 22.4991 232 28C232 33.5558 234.222 38.5558 237.833 42.167C241.5 45.7781 246.5 48 252 48H266.945C267.149 48.0004 267.351 47.9605 267.54 47.8824C267.729 47.8044 267.901 47.6899 268.045 47.5454C268.19 47.4009 268.304 47.2292 268.382 47.0403C268.46 46.8514 268.5 46.649 268.5 46.4446V39.391C269.611 37.7803 270.445 36.058 271.056 34.2245C271.684 32.2103 272.002 30.1122 272 28.0022C272 22.4991 269.778 17.5558 266.222 13.9446ZM249.945 35.6112L251.167 29.2223H245.557L244.333 35.6112H241L243.946 20.3879H247.224L246.111 26.3335H251.778L252.945 20.3888H256.278L253.332 35.6121L249.945 35.6112ZM260.222 36.167H256.778L259 24.8888H262.445L260.222 36.167ZM263 21.667C263 22.2223 262.777 22.7781 262.389 23.2223C262.187 23.424 261.942 23.5784 261.673 23.6745C261.405 23.7706 261.118 23.806 260.833 23.7781C260.333 23.7781 259.889 23.6112 259.556 23.2781C259.223 22.9451 259.056 22.4446 259.056 21.9446C259.053 21.6665 259.105 21.3905 259.21 21.1329C259.315 20.8753 259.47 20.6413 259.667 20.4446C259.864 20.248 260.098 20.0926 260.355 19.9876C260.613 19.8827 260.889 19.8302 261.167 19.8335C261.667 19.7781 262.111 20 262.5 20.3335C262.833 20.6687 263 21.167 263 21.667Z" fill="url(#paint1_linear_11560_14365)"/>
</g>
<defs>
<filter id="filter0_f_11560_14365" x="-77" y="-97" width="185" height="185" filterUnits="userSpaceOnUse" color-interpolation-filters="sRGB">
<feFlood flood-opacity="0" result="BackgroundImageFix"/>
<feBlend mode="normal" in="SourceGraphic" in2="BackgroundImageFix" result="shape"/>
<feGaussianBlur stdDeviation="30" result="effect1_foregroundBlur_11560_14365"/>
</filter>
<linearGradient id="paint0_linear_11560_14365" x1="125" y1="-1.13145e-05" x2="126.746" y2="95.9682" gradientUnits="userSpaceOnUse">
<stop stop-color="#D0FFFD"/>
<stop offset="0.800921" stop-color="white" stop-opacity="0.8"/>
</linearGradient>
<linearGradient id="paint1_linear_11560_14365" x1="252" y1="8" x2="260" y2="48" gradientUnits="userSpaceOnUse">
<stop stop-color="#8FFFE8"/>
<stop offset="1" stop-color="#E7FFFE"/>
</linearGradient>
<clipPath id="clip0_11560_14365">
<path d="M0 8C0 3.58172 3.58172 0 8 0H272C276.418 0 280 3.58172 280 8V88C280 92.4183 276.418 96 272 96H8C3.58172 96 0 92.4183 0 88V8Z" fill="white"/>
</clipPath>
</defs>
</svg>
