<svg width="28" height="28" viewBox="0 0 28 28" fill="none" xmlns="http://www.w3.org/2000/svg">
<g clip-path="url(#clip0_7545_29537)">
<g filter="url(#filter0_d_7545_29537)">
<mask id="path-1-inside-1_7545_29537" fill="white">
<path d="M23.1396 7.77734C24.1058 7.77765 24.8895 8.56114 24.8896 9.52734V23.1387C24.8896 24.1049 24.1059 24.8884 23.1396 24.8887H4.86133C3.89507 24.8884 3.11139 24.105 3.11133 23.1387V9.52734C3.11146 8.5611 3.89511 7.77758 4.86133 7.77734H23.1396ZM12.835 15.166H9.33691V17.5H12.835V21H15.1689V17.5H18.6699V15.166H15.1689V11.667H12.835V15.166ZM19.6738 3.11133C21.4413 3.11142 23.0572 4.11049 23.8477 5.69141L24.1133 6.22266H3.89062L4.15723 5.69141C4.94772 4.11041 6.56345 3.11133 8.33105 3.11133H19.6738Z"/>
</mask>
<path d="M23.1396 7.77734C24.1058 7.77765 24.8895 8.56114 24.8896 9.52734V23.1387C24.8896 24.1049 24.1059 24.8884 23.1396 24.8887H4.86133C3.89507 24.8884 3.11139 24.105 3.11133 23.1387V9.52734C3.11146 8.5611 3.89511 7.77758 4.86133 7.77734H23.1396ZM12.835 15.166H9.33691V17.5H12.835V21H15.1689V17.5H18.6699V15.166H15.1689V11.667H12.835V15.166ZM19.6738 3.11133C21.4413 3.11142 23.0572 4.11049 23.8477 5.69141L24.1133 6.22266H3.89062L4.15723 5.69141C4.94772 4.11041 6.56345 3.11133 8.33105 3.11133H19.6738Z" fill="url(#paint0_linear_7545_29537)" shape-rendering="crispEdges"/>
<path d="M23.1396 7.77734L23.14 6.61068H23.1396V7.77734ZM24.8896 9.52734H26.0563V9.52719L24.8896 9.52734ZM24.8896 23.1387L26.0563 23.1387V23.1387H24.8896ZM23.1396 24.8887V26.0553H23.14L23.1396 24.8887ZM4.86133 24.8887L4.86104 26.0553H4.86133V24.8887ZM3.11133 23.1387H1.94466V23.1387L3.11133 23.1387ZM3.11133 9.52734L1.94466 9.52719V9.52734H3.11133ZM4.86133 7.77734V6.61068L4.86105 6.61068L4.86133 7.77734ZM12.835 15.166V16.3327H14.0016V15.166H12.835ZM9.33691 15.166V13.9993H8.17025V15.166H9.33691ZM9.33691 17.5H8.17025V18.6667H9.33691V17.5ZM12.835 17.5H14.0016V16.3333H12.835V17.5ZM12.835 21H11.6683V22.1667H12.835V21ZM15.1689 21V22.1667H16.3356V21H15.1689ZM15.1689 17.5V16.3333H14.0023V17.5H15.1689ZM18.6699 17.5V18.6667H19.8366V17.5H18.6699ZM18.6699 15.166H19.8366V13.9993H18.6699V15.166ZM15.1689 15.166H14.0023V16.3327H15.1689V15.166ZM15.1689 11.667H16.3356V10.5003H15.1689V11.667ZM12.835 11.667V10.5003H11.6683V11.667H12.835ZM19.6738 3.11133L19.6739 1.94466H19.6738V3.11133ZM23.8477 5.69141L24.8912 5.16966L23.8477 5.69141ZM24.1133 6.22266V7.38932H26.001L25.1568 5.70091L24.1133 6.22266ZM3.89062 6.22266L2.84789 5.69937L1.99981 7.38932H3.89062V6.22266ZM4.15723 5.69141L5.19996 6.21469L5.20072 6.21316L4.15723 5.69141ZM23.1396 7.77734L23.1393 8.94401C23.4616 8.94411 23.7229 9.20572 23.723 9.5275L24.8896 9.52734L26.0563 9.52719C26.0561 7.91657 24.75 6.61119 23.14 6.61068L23.1396 7.77734ZM24.8896 9.52734H23.723V23.1387H24.8896H26.0563V9.52734H24.8896ZM24.8896 23.1387L23.723 23.1386C23.723 23.4603 23.4617 23.7219 23.1393 23.722L23.1396 24.8887L23.14 26.0553C24.75 26.0548 26.0562 24.7496 26.0563 23.1387L24.8896 23.1387ZM23.1396 24.8887V23.722H4.86133V24.8887V26.0553H23.1396V24.8887ZM4.86133 24.8887L4.86161 23.722C4.53925 23.7219 4.27801 23.4604 4.27799 23.1386L3.11133 23.1387L1.94466 23.1387C1.94476 24.7495 3.25088 26.0549 4.86104 26.0553L4.86133 24.8887ZM3.11133 23.1387H4.27799V9.52734H3.11133H1.94466V23.1387H3.11133ZM3.11133 9.52734L4.27799 9.5275C4.27804 9.20559 4.53938 8.94409 4.86161 8.94401L4.86133 7.77734L4.86105 6.61068C3.25084 6.61107 1.94488 7.91661 1.94466 9.52719L3.11133 9.52734ZM4.86133 7.77734V8.94401H23.1396V7.77734V6.61068H4.86133V7.77734ZM12.835 15.166V13.9993H9.33691V15.166V16.3327H12.835V15.166ZM9.33691 15.166H8.17025V17.5H9.33691H10.5036V15.166H9.33691ZM9.33691 17.5V18.6667H12.835V17.5V16.3333H9.33691V17.5ZM12.835 17.5H11.6683V21H12.835H14.0016V17.5H12.835ZM12.835 21V22.1667H15.1689V21V19.8333H12.835V21ZM15.1689 21H16.3356V17.5H15.1689H14.0023V21H15.1689ZM15.1689 17.5V18.6667H18.6699V17.5V16.3333H15.1689V17.5ZM18.6699 17.5H19.8366V15.166H18.6699H17.5033V17.5H18.6699ZM18.6699 15.166V13.9993H15.1689V15.166V16.3327H18.6699V15.166ZM15.1689 15.166H16.3356V11.667H15.1689H14.0023V15.166H15.1689ZM15.1689 11.667V10.5003H12.835V11.667V12.8337H15.1689V11.667ZM12.835 11.667H11.6683V15.166H12.835H14.0016V11.667H12.835ZM19.6738 3.11133L19.6738 4.27799C20.9992 4.27806 22.2112 5.02732 22.8042 6.21316L23.8477 5.69141L24.8912 5.16966C23.9032 3.19365 21.8834 1.94478 19.6739 1.94466L19.6738 3.11133ZM23.8477 5.69141L22.8042 6.21316L23.0698 6.74441L24.1133 6.22266L25.1568 5.70091L24.8912 5.16966L23.8477 5.69141ZM24.1133 6.22266V5.05599H3.89062V6.22266V7.38932H24.1133V6.22266ZM3.89062 6.22266L4.93336 6.74594L5.19996 6.21469L4.15723 5.69141L3.1145 5.16812L2.84789 5.69937L3.89062 6.22266ZM4.15723 5.69141L5.20072 6.21316C5.7937 5.0272 7.00559 4.27799 8.33105 4.27799V3.11133V1.94466C6.12132 1.94466 4.10174 3.19363 3.11373 5.16966L4.15723 5.69141ZM8.33105 3.11133V4.27799H19.6738V3.11133V1.94466H8.33105V3.11133Z" fill="white" mask="url(#path-1-inside-1_7545_29537)"/>
</g>
</g>
<defs>
<filter id="filter0_d_7545_29537" x="-1.55534" y="0.777995" width="31.1126" height="31.1107" filterUnits="userSpaceOnUse" color-interpolation-filters="sRGB">
<feFlood flood-opacity="0" result="BackgroundImageFix"/>
<feColorMatrix in="SourceAlpha" type="matrix" values="0 0 0 0 0 0 0 0 0 0 0 0 0 0 0 0 0 0 127 0" result="hardAlpha"/>
<feOffset dy="2.33333"/>
<feGaussianBlur stdDeviation="2.33333"/>
<feComposite in2="hardAlpha" operator="out"/>
<feColorMatrix type="matrix" values="0 0 0 0 0 0 0 0 0 0 0 0 0 0 0 0 0 0 0.05 0"/>
<feBlend mode="normal" in2="BackgroundImageFix" result="effect1_dropShadow_7545_29537"/>
<feBlend mode="normal" in="SourceGraphic" in2="effect1_dropShadow_7545_29537" result="shape"/>
</filter>
<linearGradient id="paint0_linear_7545_29537" x1="14.0005" y1="2.89313" x2="14.0005" y2="24.8887" gradientUnits="userSpaceOnUse">
<stop stop-color="white"/>
<stop offset="1" stop-color="white" stop-opacity="0.8"/>
</linearGradient>
<clipPath id="clip0_7545_29537">
<rect width="28" height="28" fill="white"/>
</clipPath>
</defs>
</svg>
