<svg width="28" height="28" viewBox="0 0 28 28" fill="none" xmlns="http://www.w3.org/2000/svg">
<g clip-path="url(#clip0_7545_29501)">
<g filter="url(#filter0_d_7545_29501)">
<mask id="path-1-inside-1_7545_29501" fill="white">
<path d="M19.8311 2.33301C20.4752 2.33327 20.9971 2.85584 20.9971 3.5V11.666H25.6641V22.166C25.6641 24.099 24.097 25.6659 22.1641 25.666H5.83105C3.89806 25.666 2.33105 24.0991 2.33105 22.166V3.5C2.33105 2.85573 2.85282 2.3331 3.49707 2.33301H19.8311ZM20.9971 22.166C20.9971 22.8104 21.5197 23.333 22.1641 23.333C22.8083 23.3329 23.3311 22.8103 23.3311 22.166V14H20.9971V22.166ZM10.7588 14.1025L8.38379 11.7285L6.71875 13.3623L10.7588 17.4023L16.9951 11.166L15.332 9.5293L10.7588 14.1025Z"/>
</mask>
<path d="M19.8311 2.33301C20.4752 2.33327 20.9971 2.85584 20.9971 3.5V11.666H25.6641V22.166C25.6641 24.099 24.097 25.6659 22.1641 25.666H5.83105C3.89806 25.666 2.33105 24.0991 2.33105 22.166V3.5C2.33105 2.85573 2.85282 2.3331 3.49707 2.33301H19.8311ZM20.9971 22.166C20.9971 22.8104 21.5197 23.333 22.1641 23.333C22.8083 23.3329 23.3311 22.8103 23.3311 22.166V14H20.9971V22.166ZM10.7588 14.1025L8.38379 11.7285L6.71875 13.3623L10.7588 17.4023L16.9951 11.166L15.332 9.5293L10.7588 14.1025Z" fill="url(#paint0_linear_7545_29501)" shape-rendering="crispEdges"/>
<path d="M19.8311 2.33301L19.8315 1.16634H19.8311V2.33301ZM20.9971 11.666H19.8304V12.8327H20.9971V11.666ZM25.6641 11.666H26.8307V10.4993H25.6641V11.666ZM22.1641 25.666V26.8327H22.1641L22.1641 25.666ZM3.49707 2.33301V1.16634H3.49691L3.49707 2.33301ZM22.1641 23.333V24.4997H22.1642L22.1641 23.333ZM23.3311 14H24.4977V12.8333H23.3311V14ZM20.9971 14V12.8333H19.8304V14H20.9971ZM10.7588 14.1025L9.934 14.9277L10.759 15.7523L11.5837 14.9275L10.7588 14.1025ZM8.38379 11.7285L9.20858 10.9034L8.3914 10.0865L7.56668 10.8958L8.38379 11.7285ZM6.71875 13.3623L5.90164 12.5296L5.06098 13.3545L5.89379 14.1873L6.71875 13.3623ZM10.7588 17.4023L9.93383 18.2273L10.7588 19.0523L11.5837 18.2273L10.7588 17.4023ZM16.9951 11.166L17.8201 11.991L18.6517 11.1594L17.8135 10.3345L16.9951 11.166ZM15.332 9.5293L16.1504 8.69777L15.3255 7.88595L14.5071 8.70434L15.332 9.5293ZM19.8311 2.33301L19.8306 3.49967L19.8304 3.5H20.9971H22.1637C22.1637 2.21232 21.1204 1.16687 19.8315 1.16634L19.8311 2.33301ZM20.9971 3.5H19.8304V11.666H20.9971H22.1637V3.5H20.9971ZM20.9971 11.666V12.8327H25.6641V11.666V10.4993H20.9971V11.666ZM25.6641 11.666H24.4974V22.166H25.6641H26.8307V11.666H25.6641ZM25.6641 22.166H24.4974C24.4974 23.4546 23.4527 24.4993 22.164 24.4993L22.1641 25.666L22.1641 26.8327C24.7413 26.8326 26.8307 24.7434 26.8307 22.166H25.6641ZM22.1641 25.666V24.4993H5.83105V25.666V26.8327H22.1641V25.666ZM5.83105 25.666V24.4993C4.54238 24.4993 3.49772 23.4547 3.49772 22.166H2.33105H1.16439C1.16439 24.7434 3.25374 26.8327 5.83105 26.8327V25.666ZM2.33105 22.166H3.49772V3.5H2.33105H1.16439V22.166H2.33105ZM2.33105 3.5H3.49772L3.49723 3.49967L3.49707 2.33301L3.49691 1.16634C2.20734 1.16652 1.16439 2.21251 1.16439 3.5H2.33105ZM3.49707 2.33301V3.49967H19.8311V2.33301V1.16634H3.49707V2.33301ZM20.9971 22.166H19.8304C19.8304 23.4547 20.8754 24.4997 22.1641 24.4997V23.333V22.1663L22.1637 22.166H20.9971ZM22.1641 23.333L22.1642 24.4997C23.4525 24.4995 24.4977 23.4548 24.4977 22.166H23.3311H22.1644L22.1639 22.1663L22.1641 23.333ZM23.3311 22.166H24.4977V14H23.3311H22.1644V22.166H23.3311ZM23.3311 14V12.8333H20.9971V14V15.1667H23.3311V14ZM20.9971 14H19.8304V22.166H20.9971H22.1637V14H20.9971ZM10.7588 14.1025L11.5836 13.2774L9.20858 10.9034L8.38379 11.7285L7.559 12.5536L9.934 14.9277L10.7588 14.1025ZM8.38379 11.7285L7.56668 10.8958L5.90164 12.5296L6.71875 13.3623L7.53586 14.195L9.2009 12.5613L8.38379 11.7285ZM6.71875 13.3623L5.89379 14.1873L9.93383 18.2273L10.7588 17.4023L11.5837 16.5774L7.54371 12.5373L6.71875 13.3623ZM10.7588 17.4023L11.5837 18.2273L17.8201 11.991L16.9951 11.166L16.1702 10.3411L9.93383 16.5774L10.7588 17.4023ZM16.9951 11.166L17.8135 10.3345L16.1504 8.69777L15.332 9.5293L14.5137 10.3608L16.1768 11.9975L16.9951 11.166ZM15.332 9.5293L14.5071 8.70434L9.93383 13.2776L10.7588 14.1025L11.5837 14.9275L16.157 10.3543L15.332 9.5293Z" fill="white" mask="url(#path-1-inside-1_7545_29501)"/>
</g>
</g>
<defs>
<filter id="filter0_d_7545_29501" x="-2.33464" y="-0.000325441" width="32.6654" height="32.6663" filterUnits="userSpaceOnUse" color-interpolation-filters="sRGB">
<feFlood flood-opacity="0" result="BackgroundImageFix"/>
<feColorMatrix in="SourceAlpha" type="matrix" values="0 0 0 0 0 0 0 0 0 0 0 0 0 0 0 0 0 0 127 0" result="hardAlpha"/>
<feOffset dy="2.33333"/>
<feGaussianBlur stdDeviation="2.33333"/>
<feComposite in2="hardAlpha" operator="out"/>
<feColorMatrix type="matrix" values="0 0 0 0 0 0 0 0 0 0 0 0 0 0 0 0 0 0 0.05 0"/>
<feBlend mode="normal" in2="BackgroundImageFix" result="effect1_dropShadow_7545_29501"/>
<feBlend mode="normal" in="SourceGraphic" in2="effect1_dropShadow_7545_29501" result="shape"/>
</filter>
<linearGradient id="paint0_linear_7545_29501" x1="13.9971" y1="2.09922" x2="13.9971" y2="25.666" gradientUnits="userSpaceOnUse">
<stop stop-color="white"/>
<stop offset="1" stop-color="white" stop-opacity="0.8"/>
</linearGradient>
<clipPath id="clip0_7545_29501">
<rect width="28" height="28" fill="white"/>
</clipPath>
</defs>
</svg>
