<svg width="28" height="28" viewBox="0 0 28 28" fill="none" xmlns="http://www.w3.org/2000/svg">
<g filter="url(#filter0_d_7570_7085)">
<path d="M14.0007 25.6666C7.55733 25.6666 2.33398 20.4432 2.33398 13.9999C2.33398 7.55659 7.55733 2.33325 14.0007 2.33325C20.4439 2.33325 25.6673 7.55659 25.6673 13.9999C25.6673 20.4432 20.4439 25.6666 14.0007 25.6666ZM15.1673 13.9999V8.16658H12.834V16.3333H19.834V13.9999H15.1673Z" fill="url(#paint0_linear_7570_7085)" shape-rendering="crispEdges"/>
<path d="M14.001 2.91626C20.1219 2.91644 25.084 7.8792 25.084 14.0002C25.0838 20.1211 20.1218 25.0831 14.001 25.0833C7.87993 25.0833 2.91717 20.1212 2.91699 14.0002C2.91699 7.87909 7.87982 2.91626 14.001 2.91626ZM12.251 16.9163H20.417V13.4163H15.751V7.58325H12.251V16.9163Z" stroke="white" stroke-width="1.16667" shape-rendering="crispEdges"/>
</g>
<defs>
<filter id="filter0_d_7570_7085" x="-2.33268" y="-8.13007e-05" width="32.6673" height="32.6666" filterUnits="userSpaceOnUse" color-interpolation-filters="sRGB">
<feFlood flood-opacity="0" result="BackgroundImageFix"/>
<feColorMatrix in="SourceAlpha" type="matrix" values="0 0 0 0 0 0 0 0 0 0 0 0 0 0 0 0 0 0 127 0" result="hardAlpha"/>
<feOffset dy="2.33333"/>
<feGaussianBlur stdDeviation="2.33333"/>
<feComposite in2="hardAlpha" operator="out"/>
<feColorMatrix type="matrix" values="0 0 0 0 0 0 0 0 0 0 0 0 0 0 0 0 0 0 0.05 0"/>
<feBlend mode="normal" in2="BackgroundImageFix" result="effect1_dropShadow_7570_7085"/>
<feBlend mode="normal" in="SourceGraphic" in2="effect1_dropShadow_7570_7085" result="shape"/>
</filter>
<linearGradient id="paint0_linear_7570_7085" x1="14.0007" y1="2.09946" x2="14.0007" y2="25.6666" gradientUnits="userSpaceOnUse">
<stop stop-color="white"/>
<stop offset="1" stop-color="white" stop-opacity="0.8"/>
</linearGradient>
</defs>
</svg>
