<svg width="28" height="28" viewBox="0 0 28 28" fill="none" xmlns="http://www.w3.org/2000/svg">
<g clip-path="url(#clip0_7545_29511)">
<g filter="url(#filter0_d_7545_29511)">
<mask id="path-1-inside-1_7545_29511" fill="white">
<path d="M13.4658 20.8669C13.4658 20.7494 13.5843 20.6688 13.6934 20.7126L16.0898 21.6804C16.2024 21.7259 16.2294 21.873 16.1406 21.9558L13.7441 24.1892C13.638 24.288 13.4658 24.2131 13.4658 24.0681V20.8669ZM24.7549 1.76831C25.3667 1.42859 26.0981 1.9526 25.9736 2.64136L22.582 21.4089C22.5462 21.6066 22.3444 21.7268 22.1533 21.6648L13.8408 18.9617L20.959 8.48218L11.2012 17.8132L2.13574 14.9812C1.8573 14.8942 1.81826 14.5155 2.07324 14.3738L24.7549 1.76831Z"/>
</mask>
<path d="M13.4658 20.8669C13.4658 20.7494 13.5843 20.6688 13.6934 20.7126L16.0898 21.6804C16.2024 21.7259 16.2294 21.873 16.1406 21.9558L13.7441 24.1892C13.638 24.288 13.4658 24.2131 13.4658 24.0681V20.8669ZM24.7549 1.76831C25.3667 1.42859 26.0981 1.9526 25.9736 2.64136L22.582 21.4089C22.5462 21.6066 22.3444 21.7268 22.1533 21.6648L13.8408 18.9617L20.959 8.48218L11.2012 17.8132L2.13574 14.9812C1.8573 14.8942 1.81826 14.5155 2.07324 14.3738L24.7549 1.76831Z" fill="url(#paint0_linear_7545_29511)" shape-rendering="crispEdges"/>
<path d="M13.6934 20.7126L14.1302 19.6309L14.1291 19.6304L13.6934 20.7126ZM16.0898 21.6804L16.5267 20.5986L16.5267 20.5986L16.0898 21.6804ZM16.1406 21.9558L16.936 22.8093L16.9361 22.8092L16.1406 21.9558ZM13.7441 24.1892L14.5392 25.0431L14.5395 25.0427L13.7441 24.1892ZM24.7549 1.76831L24.1885 0.748337L24.1881 0.748547L24.7549 1.76831ZM25.9736 2.64136L24.8256 2.43386L24.8256 2.43388L25.9736 2.64136ZM22.582 21.4089L23.73 21.6172L23.7301 21.6164L22.582 21.4089ZM22.1533 21.6648L21.7925 22.7743L21.7932 22.7745L22.1533 21.6648ZM13.8408 18.9617L12.8757 18.3061L12.0031 19.5909L13.48 20.0711L13.8408 18.9617ZM20.959 8.48218L21.9241 9.13771L20.1527 7.63899L20.959 8.48218ZM11.2012 17.8132L10.8533 18.9268L11.5101 19.132L12.0075 18.6564L11.2012 17.8132ZM2.13574 14.9812L1.78783 16.0948L1.78786 16.0948L2.13574 14.9812ZM2.07324 14.3738L1.5065 13.354L1.50649 13.354L2.07324 14.3738ZM13.4658 20.8669H14.6325C14.6325 21.5693 13.9214 22.0621 13.2577 21.7949L13.6934 20.7126L14.1291 19.6304C13.2473 19.2754 12.2992 19.9294 12.2992 20.8669H13.4658ZM13.6934 20.7126L13.2565 21.7944L15.653 22.7622L16.0898 21.6804L16.5267 20.5986L14.1302 19.6309L13.6934 20.7126ZM16.0898 21.6804L15.6529 22.7622C14.971 22.4868 14.8119 21.5994 15.3452 21.1024L16.1406 21.9558L16.9361 22.8092C17.6469 22.1467 17.4338 20.965 16.5267 20.5986L16.0898 21.6804ZM16.1406 21.9558L15.3452 21.1023L12.9487 23.3357L13.7441 24.1892L14.5395 25.0427L16.936 22.8093L16.1406 21.9558ZM13.7441 24.1892L12.9491 23.3354C13.5885 22.7401 14.6325 23.1928 14.6325 24.0681H13.4658H12.2992C12.2992 25.2335 13.6876 25.8359 14.5392 25.0431L13.7441 24.1892ZM13.4658 24.0681H14.6325V20.8669H13.4658H12.2992V24.0681H13.4658ZM24.7549 1.76831L25.3212 2.78828C25.0717 2.92683 24.7752 2.71264 24.8256 2.43386L25.9736 2.64136L27.1217 2.84885C27.421 1.19257 25.6617 -0.0696605 24.1885 0.748337L24.7549 1.76831ZM25.9736 2.64136L24.8256 2.43388L21.434 21.2015L22.582 21.4089L23.7301 21.6164L27.1217 2.84883L25.9736 2.64136ZM22.582 21.4089L21.4341 21.2007C21.5247 20.7011 22.0348 20.3998 22.5134 20.5551L22.1533 21.6648L21.7932 22.7745C22.6541 23.0538 23.5676 22.5122 23.73 21.6172L22.582 21.4089ZM22.1533 21.6648L22.5141 20.5553L14.2016 17.8522L13.8408 18.9617L13.48 20.0711L21.7925 22.7743L22.1533 21.6648ZM13.8408 18.9617L14.8059 19.6172L21.9241 9.13771L20.959 8.48218L19.9939 7.82665L12.8757 18.3061L13.8408 18.9617ZM20.959 8.48218L20.1527 7.63899L10.3949 16.97L11.2012 17.8132L12.0075 18.6564L21.7653 9.32537L20.959 8.48218ZM11.2012 17.8132L11.5491 16.6996L2.48363 13.8676L2.13574 14.9812L1.78786 16.0948L10.8533 18.9268L11.2012 17.8132ZM2.13574 14.9812L2.48366 13.8676C3.18267 14.086 3.28276 15.0363 2.63999 15.3935L2.07324 14.3738L1.50649 13.354C0.353765 13.9947 0.531934 15.7024 1.78783 16.0948L2.13574 14.9812ZM2.07324 14.3738L2.63998 15.3935L25.3216 2.78807L24.7549 1.76831L24.1881 0.748547L1.5065 13.354L2.07324 14.3738Z" fill="white" mask="url(#path-1-inside-1_7545_29511)"/>
</g>
</g>
<defs>
<filter id="filter0_d_7545_29511" x="-2.76432" y="-0.671224" width="33.4193" height="31.9054" filterUnits="userSpaceOnUse" color-interpolation-filters="sRGB">
<feFlood flood-opacity="0" result="BackgroundImageFix"/>
<feColorMatrix in="SourceAlpha" type="matrix" values="0 0 0 0 0 0 0 0 0 0 0 0 0 0 0 0 0 0 127 0" result="hardAlpha"/>
<feOffset dy="2.33333"/>
<feGaussianBlur stdDeviation="2.33333"/>
<feComposite in2="hardAlpha" operator="out"/>
<feColorMatrix type="matrix" values="0 0 0 0 0 0 0 0 0 0 0 0 0 0 0 0 0 0 0.05 0"/>
<feBlend mode="normal" in2="BackgroundImageFix" result="effect1_dropShadow_7545_29511"/>
<feBlend mode="normal" in="SourceGraphic" in2="effect1_dropShadow_7545_29511" result="shape"/>
</filter>
<linearGradient id="paint0_linear_7545_29511" x1="13.9453" y1="1.4357" x2="13.9453" y2="24.2341" gradientUnits="userSpaceOnUse">
<stop stop-color="white"/>
<stop offset="1" stop-color="white" stop-opacity="0.8"/>
</linearGradient>
<clipPath id="clip0_7545_29511">
<rect width="28" height="28" fill="white"/>
</clipPath>
</defs>
</svg>
