<svg width="16" height="16" viewBox="0 0 16 16" fill="none" xmlns="http://www.w3.org/2000/svg">
<path d="M13.333 2C13.8634 2 14.373 2.21086 14.748 2.58594C15.1229 2.96098 15.333 3.4697 15.333 4V12C15.333 12.5303 15.1229 13.039 14.748 13.4141C14.373 13.7891 13.8634 14 13.333 14H2.66699C2.13662 14 1.62799 13.7891 1.25293 13.4141C0.877857 13.039 0.666992 12.5304 0.666992 12V4C0.666992 3.46957 0.877857 2.96101 1.25293 2.58594C1.62799 2.21094 2.13662 2 2.66699 2H13.333ZM2 12C2 12.1768 2.07029 12.3467 2.19531 12.4717C2.32033 12.5966 2.49024 12.667 2.66699 12.667H13.333C13.5097 12.667 13.6797 12.5966 13.8047 12.4717C13.9297 12.3467 14 12.1768 14 12V8.66699H2V12ZM4.66699 11.333H3.33301V10H4.66699V11.333ZM12.667 11.333H6V10H12.667V11.333ZM2.66699 3.33301C2.49024 3.33301 2.32033 3.40337 2.19531 3.52832C2.07029 3.65334 2 3.82319 2 4V7.33301H14V4C14 3.82319 13.9297 3.65334 13.8047 3.52832C13.6797 3.40342 13.5097 3.33301 13.333 3.33301H2.66699ZM4.66699 6H3.33301V4.66699H4.66699V6ZM12.667 6H6V4.66699H12.667V6Z" fill="#009E9E"/>
</svg>
