<svg width="16" height="16" viewBox="0 0 16 16" fill="none" xmlns="http://www.w3.org/2000/svg">
<path d="M13.5 2.33496C13.9656 2.33496 14.3956 2.54139 14.7012 2.88086C15.0046 3.21801 15.165 3.66159 15.165 4.11133V11.8887C15.165 12.3384 15.0046 12.782 14.7012 13.1191C14.3956 13.4586 13.9656 13.665 13.5 13.665H2.5C2.03445 13.665 1.60435 13.4586 1.29883 13.1191C0.995412 12.782 0.834961 12.3384 0.834961 11.8887V4.11133C0.834961 3.66159 0.995412 3.21801 1.29883 2.88086C1.60435 2.54139 2.03445 2.33496 2.5 2.33496H13.5ZM2.5 3.66504C2.43512 3.66504 2.35666 3.69323 2.28711 3.77051C2.21555 3.8501 2.16504 3.97181 2.16504 4.11133V11.8887C2.16504 12.0282 2.21555 12.1499 2.28711 12.2295C2.35666 12.3068 2.43512 12.335 2.5 12.335H13.5C13.5649 12.335 13.6433 12.3068 13.7129 12.2295C13.7844 12.1499 13.835 12.0282 13.835 11.8887V4.11133C13.835 3.97181 13.7844 3.8501 13.7129 3.77051C13.6607 3.71255 13.6035 3.6824 13.5508 3.6709L13.5 3.66504H2.5ZM12 9.04883C12.3673 9.04883 12.665 9.3466 12.665 9.71387C12.665 10.0811 12.3672 10.3789 12 10.3789H9.5C9.13278 10.3789 8.83504 10.0811 8.83496 9.71387C8.83496 9.3466 9.13273 9.04883 9.5 9.04883H12ZM5.5 5.83496C5.78422 5.83496 6.06553 5.89127 6.32812 6C6.59079 6.1088 6.83021 6.26771 7.03125 6.46875C7.23229 6.66979 7.3912 6.90921 7.5 7.17188C7.60873 7.43447 7.66504 7.71578 7.66504 8C7.66504 8.28422 7.60873 8.56553 7.5 8.82812C7.3912 9.09079 7.23229 9.33021 7.03125 9.53125C6.83021 9.73229 6.59079 9.8912 6.32812 10C6.06553 10.1087 5.78422 10.165 5.5 10.165C4.92581 10.165 4.37477 9.93727 3.96875 9.53125C3.56273 9.12523 3.33496 8.57419 3.33496 8C3.33496 7.42581 3.56273 6.87477 3.96875 6.46875C4.37477 6.06273 4.92581 5.83496 5.5 5.83496ZM5.5 7.16504C5.27854 7.16504 5.06577 7.25259 4.90918 7.40918C4.75259 7.56577 4.66504 7.77854 4.66504 8C4.66504 8.22146 4.75259 8.43423 4.90918 8.59082C5.06577 8.74741 5.27854 8.83496 5.5 8.83496C5.60958 8.83496 5.71808 8.8134 5.81934 8.77148C5.92064 8.72952 6.01328 8.66836 6.09082 8.59082C6.16836 8.51328 6.22952 8.42064 6.27148 8.31934C6.3134 8.21808 6.33496 8.10958 6.33496 8C6.33496 7.89041 6.3134 7.78192 6.27148 7.68066C6.22952 7.57936 6.16836 7.48672 6.09082 7.40918C6.01328 7.33164 5.92064 7.27048 5.81934 7.22852C5.71808 7.1866 5.60959 7.16504 5.5 7.16504ZM12 5.62012C12.3673 5.62012 12.665 5.91789 12.665 6.28516C12.665 6.65243 12.3673 6.9502 12 6.9502H9.5C9.13273 6.9502 8.83496 6.65243 8.83496 6.28516C8.83496 5.91789 9.13273 5.62012 9.5 5.62012H12Z" fill="#009E9E"/>
</svg>
