<svg width="14" height="14" viewBox="0 0 14 14" fill="none" xmlns="http://www.w3.org/2000/svg">
<path d="M10.3477 8.06689C10.5023 7.97764 10.693 7.97764 10.8477 8.06689L12.9453 9.27783C13.1 9.36712 13.1952 9.53286 13.1953 9.71143V12.1333C13.1953 12.3119 13.1 12.4776 12.9453 12.5669L10.8477 13.7778L10.7881 13.8071C10.6661 13.8574 10.5292 13.8574 10.4072 13.8071L10.3477 13.7778L8.25 12.5669C8.11462 12.4887 8.0242 12.3523 8.00391 12.1997L8 12.1333V11.1724H5.19531V12.1333C5.19531 12.3119 5.09997 12.4776 4.94531 12.5669L2.84766 13.7778L2.78809 13.8071C2.66614 13.8574 2.52918 13.8574 2.40723 13.8071L2.34766 13.7778L0.25 12.5669C0.114618 12.4887 0.024202 12.3523 0.00390625 12.1997L0 12.1333V9.71143C6.61157e-05 9.53286 0.0953532 9.36712 0.25 9.27783L2.34766 8.06689C2.50232 7.97764 2.693 7.97764 2.84766 8.06689L4.94531 9.27783C5.09996 9.36712 5.19525 9.53286 5.19531 9.71143V9.84229H8V9.71143C8.00007 9.53286 8.09535 9.36712 8.25 9.27783L10.3477 8.06689ZM1.2998 10.1724V11.6714L2.59766 12.4204L3.89551 11.6714V10.1724L2.59766 9.42334L1.2998 10.1724ZM9.2998 10.1724V11.6714L10.5977 12.4204L11.8955 11.6714V10.1724L10.5977 9.42334L9.2998 10.1724ZM6.54102 5.88916L4.80566 9.19678L3.65332 8.53174L5.38867 5.22412L6.54102 5.88916ZM6.34766 0.0668945C6.50232 -0.0223601 6.693 -0.0223601 6.84766 0.0668945L8.94531 1.27783C9.09996 1.36712 9.19525 1.53286 9.19531 1.71143V4.1333C9.19531 4.3119 9.09997 4.47757 8.94531 4.56689L7.80566 5.22412L9.54102 8.53174L8.38867 9.19678L6.65332 5.88916L6.83789 5.78174L6.78809 5.80713C6.66614 5.8574 6.52918 5.8574 6.40723 5.80713L6.34766 5.77783L4.25 4.56689C4.11462 4.4887 4.0242 4.35225 4.00391 4.19971L4 4.1333V1.71143C4.00007 1.53286 4.09535 1.36712 4.25 1.27783L6.34766 0.0668945ZM5.2998 2.17236V3.67139L6.59766 4.42041L7.89551 3.67139V2.17236L6.59766 1.42334L5.2998 2.17236Z" fill="#009E9E"/>
</svg>
