<svg width="18" height="18" viewBox="0 0 18 18" fill="none" xmlns="http://www.w3.org/2000/svg">
<path fill-rule="evenodd" clip-rule="evenodd" d="M5.76563 0.988681C5.92922 0.404374 6.46546 0 7.0767 0H10.9229C11.5342 0 12.0704 0.404372 12.234 0.98868L12.6978 2.64535L14.376 2.21552C14.9678 2.06393 15.5889 2.32248 15.8946 2.84766L17.8177 6.15235C18.1233 6.67753 18.0384 7.34045 17.6102 7.77317L16.396 9L17.6102 10.2268C18.0384 10.6596 18.1233 11.3225 17.8177 11.8477L15.8946 15.1523C15.5889 15.6775 14.9678 15.9361 14.376 15.7845L12.6978 15.3547L12.234 17.0113C12.0704 17.5956 11.5342 18 10.9229 18H7.0767C6.46546 18 5.92922 17.5956 5.76563 17.0113L5.30181 15.3547L3.624 15.7845C3.03216 15.9361 2.41106 15.6775 2.10544 15.1523L0.182331 11.8477C-0.123291 11.3225 -0.0384319 10.6596 0.389813 10.2268L1.60397 9L0.389815 7.77317C-0.0384284 7.34045 -0.123291 6.67753 0.182332 6.15234L2.10544 2.84766C2.41107 2.32247 3.03216 2.06393 3.624 2.21552L5.30181 2.64526L5.76563 0.988681ZM5.18262 14.929L5.18278 14.9296L5.18262 14.929ZM7.42146 1.8L6.93072 3.55274C6.73218 4.26185 5.99775 4.68254 5.2795 4.49857L3.50429 4.04387L1.92593 6.75613L3.21057 8.05418C3.73028 8.57932 3.73028 9.42068 3.21057 9.94582L1.92593 11.2439L3.50429 13.9561L5.2795 13.5014C5.99776 13.3175 6.73218 13.7382 6.93072 14.4473L7.42146 16.2H10.5782L11.0689 14.4472C11.2675 13.7381 12.0019 13.3174 12.7202 13.5013L14.4957 13.9561L16.0741 11.2439L14.7894 9.94582C14.2697 9.42068 14.2697 8.57932 14.7894 8.05418L16.0741 6.75613L14.4957 4.04387L12.7202 4.49866C12.0019 4.68263 11.2675 4.26194 11.0689 3.55283L10.5782 1.8H7.42146ZM8.99981 7.2C7.99781 7.2 7.18552 8.00589 7.18552 9C7.18552 9.99411 7.99781 10.8 8.99981 10.8C10.0018 10.8 10.8141 9.99411 10.8141 9C10.8141 8.00589 10.0018 7.2 8.99981 7.2ZM5.37123 9C5.37123 7.01178 6.9958 5.4 8.99981 5.4C11.0038 5.4 12.6284 7.01178 12.6284 9C12.6284 10.9882 11.0038 12.6 8.99981 12.6C6.9958 12.6 5.37123 10.9882 5.37123 9Z" fill="#000D4D"/>
</svg>
