<svg viewBox="0 0 1024 1024" xmlns="http://www.w3.org/2000/svg" width="48" height="48">
<path fill-rule="evenodd" clip-rule="evenodd" d="M0 109.714286A109.714286 109.714286 0 0 1 109.714286 0h804.571428A109.714286 109.714286 0 0 1 1024 109.714286v804.571428a109.714286 109.714286 0 0 1-109.714286 109.714286h-804.571428A109.714286 109.714286 0 0 1 0 914.285714v-804.571428zM109.714286 73.142857a36.571429 36.571429 0 0 0-36.571429 36.571429v804.571428a36.571429 36.571429 0 0 0 36.571429 36.571429h804.571428a36.571429 36.571429 0 0 0 36.571429-36.571429v-804.571428a36.571429 36.571429 0 0 0-36.571429-36.571429h-804.571428z" fill="#4e5969"></path>
<path fill-rule="evenodd" clip-rule="evenodd" d="M0 256A36.571429 36.571429 0 0 1 36.571429 219.428571h950.857142a36.571429 36.571429 0 0 1 0 73.142858H36.571429a36.571429 36.571429 0 0 1-36.571429-36.571429z" fill="#4e5969"></path>
<path fill-rule="evenodd" clip-rule="evenodd" d="M329.142857 219.428571a36.571429 36.571429 0 0 1 36.571429 36.571429v731.428571a36.571429 36.571429 0 0 1-73.142857 0v-731.428571a36.571429 36.571429 0 0 1 36.571428-36.571429z" fill="#4e5969"></path>
<path fill-rule="evenodd" clip-rule="evenodd" d="M292.571429 621.714286a36.571429 36.571429 0 0 1 36.571428-36.571429h658.285714a36.571429 36.571429 0 0 1 0 73.142857h-658.285714a36.571429 36.571429 0 0 1-36.571428-36.571428z" fill="#4e5969"></path>
</svg>