<svg width="16" height="16" viewBox="0 0 16 16" fill="none" xmlns="http://www.w3.org/2000/svg">
<path d="M11.9998 8.66699C13.8406 8.66699 15.3336 10.1592 15.3337 12L15.3289 12.1719C15.2396 13.9331 13.7832 15.334 11.9998 15.334L11.8289 15.3291C10.0675 15.24 8.66675 13.7835 8.66675 12C8.66692 10.1593 10.1591 8.66717 11.9998 8.66699ZM11.9998 9.66699C10.7113 9.66717 9.66692 10.7116 9.66675 12C9.66675 13.2886 10.7112 14.3338 11.9998 14.334C13.2884 14.334 14.3337 13.2887 14.3337 12C14.3336 10.7115 13.2883 9.66699 11.9998 9.66699ZM12.5007 11.501H13.6667V12.501H12.5007V13.667H11.5007V12.501H10.3337V11.501H11.5007V10.334H12.5007V11.501Z" fill="#4E5969"/>
<path d="M8.27563 3.33301H14.0002C14.3683 3.33318 14.6663 3.63192 14.6663 4V8.16992C14.2637 7.8891 13.8147 7.6707 13.3333 7.52734V7.33301H2.66626V12.667H7.3811C7.44852 13.1378 7.58646 13.5855 7.78345 14H2.00024C1.63206 14 1.33325 13.7012 1.33325 13.333V2.66699C1.33325 2.29881 1.63206 2 2.00024 2H6.94263L8.27563 3.33301ZM2.66626 6H13.3333V4.66699H7.72388L6.39087 3.33301H2.66626V6Z" fill="#4E5969"/>
</svg>
