<svg width="16" height="16" viewBox="0 0 16 16" fill="none" xmlns="http://www.w3.org/2000/svg">
<path d="M13.333 1.33301C13.7012 1.33301 14 1.63181 14 2V7.78223C13.5856 7.58537 13.1376 7.44822 12.667 7.38086V5.33301H3.33301V13.333H7.52734C7.67073 13.8147 7.88996 14.2633 8.1709 14.666H2.66699C2.29891 14.666 2.00018 14.368 2 14V2C2 1.63181 2.29881 1.33301 2.66699 1.33301H13.333ZM7.52734 10.666C7.40153 11.0886 7.33301 11.5365 7.33301 12H4.66699V10.666H7.52734ZM7.33301 9.33301H4.66699V6.66602H7.33301V9.33301ZM11.333 7.38086C10.3284 7.52465 9.42792 7.98883 8.73633 8.66602H8.66699V7.33301H11.333V7.38086ZM3.33301 4H12.667V2.66602H3.33301V4Z" fill="#4E5969"/>
<path d="M11.9998 8.66699C13.8406 8.66699 15.3336 10.1592 15.3337 12L15.3289 12.1719C15.2396 13.9331 13.7832 15.334 11.9998 15.334L11.8289 15.3291C10.0675 15.24 8.66675 13.7835 8.66675 12C8.66692 10.1593 10.1591 8.66717 11.9998 8.66699ZM11.9998 9.66699C10.7113 9.66717 9.66692 10.7116 9.66675 12C9.66675 13.2886 10.7112 14.3338 11.9998 14.334C13.2884 14.334 14.3337 13.2887 14.3337 12C14.3336 10.7115 13.2883 9.66699 11.9998 9.66699ZM12.5007 11.501H13.6667V12.501H12.5007V13.667H11.5007V12.501H10.3337V11.501H11.5007V10.334H12.5007V11.501Z" fill="#4E5969"/>
</svg>
