<svg width="24" height="24" viewBox="0 0 24 24" fill="none" xmlns="http://www.w3.org/2000/svg">
<path d="M16.6426 4.5C17.1532 4.5 17.5911 4.68339 17.9551 5.05078C18.3191 5.41828 18.5006 5.86 18.5 6.375V17.625C18.5 18.1405 18.3183 18.5818 17.9551 18.9492C17.5917 19.3167 17.1539 19.5006 16.6426 19.5H7.35742C6.84671 19.5 6.40928 19.3161 6.0459 18.9492C5.68271 18.5824 5.50062 18.1411 5.5 17.625V6.375C5.5 5.85938 5.6819 5.41766 6.0459 5.05078C6.40986 4.68403 6.84741 4.50062 7.35742 4.5H16.6426ZM9 14V16H15V14H9ZM9 11V13H15V11H9ZM9 8V10H15V8H9Z" fill="#19BBFF"/>
<path d="M2 6V1H7V3H4V6H2ZM20 6V3H17V1H22V6H20ZM2 23V18H4V21H7V23H2ZM17 23V21H20V18H22V23H17Z" fill="#0081CC"/>
</svg>
