<svg width="24" height="24" viewBox="0 0 24 24" fill="none" xmlns="http://www.w3.org/2000/svg">
<path d="M7.25 12.5H11.5V16.75C11.5 19.0972 9.59721 21 7.25 21C4.90279 21 3 19.0972 3 16.75C3 14.4028 4.90279 12.5 7.25 12.5Z" fill="#4297FF"/>
<path d="M17.75 12.5H13.5V16.75C13.5 19.0972 15.4028 21 17.75 21C20.0972 21 22 19.0972 22 16.75C22 14.4028 20.0972 12.5 17.75 12.5Z" fill="#9775EE"/>
<path d="M22 6.25C22 3.90279 20.0972 2 17.75 2C15.4028 2 13.5 3.90279 13.5 6.25V10.5H17.75C20.0972 10.5 22 8.59721 22 6.25Z" fill="#42C19D"/>
<path d="M11.5 6.25C11.5 3.90279 9.59721 2 7.25 2C4.90279 2 3 3.90279 3 6.25C3 8.59721 4.90279 10.5 7.25 10.5H11.5V6.25Z" fill="#47BCC2"/>
</svg>
