<svg width="16" height="16" viewBox="0 0 16 16" fill="none" xmlns="http://www.w3.org/2000/svg">
<path fill-rule="evenodd" clip-rule="evenodd" d="M9.26619 1.63005C9.65671 1.23953 10.2899 1.23953 10.6804 1.63005L12.5423 3.49195C12.9328 3.88247 12.9328 4.51564 12.5423 4.90616L5.72567 11.7228C5.56654 11.8819 5.35838 11.9827 5.13485 12.0089L3.1192 12.2449C2.49458 12.318 1.9583 11.8033 2.00577 11.1762L2.16498 9.07285C2.18303 8.8344 2.28593 8.61031 2.45502 8.44122L9.26619 1.63005ZM8.76913 4.01273L10.1596 5.40322L11.3638 4.19905L9.9733 2.80856L8.76913 4.01273ZM9.21681 6.34603L7.82632 4.95554L3.48518 9.29667L3.36582 10.8736L4.86477 10.6981L9.21681 6.34603ZM13.9999 14.6666L1.99994 14.6666V13.3333L13.9999 13.3333V14.6666Z" fill="#4E5969"/>
</svg>
