<svg width="300" height="300" viewBox="0 0 300 300" fill="none" xmlns="http://www.w3.org/2000/svg">
<path d="M280.628 221.043C252.314 169.824 270.144 167.981 284.172 151.884C297.611 136.47 299.783 112.956 295.678 92.9161C291.564 72.8761 276.201 54.5038 256.097 50.7722C225.629 45.115 197.554 72.4431 166.598 71.3374C150.84 70.7754 136.416 62.8884 121.412 58.0235C85.8902 46.497 42.3697 54.3011 19.4772 83.8405C-0.607788 109.741 -1.21542 146.181 6.82962 177.96C15.0403 210.374 31.959 241.406 58.4597 261.787C84.9513 282.158 121.716 290.451 152.929 278.528C175.205 270.024 197.61 251.734 219.941 260.073C227.258 262.809 260.516 278.224 275.437 260.819C281.862 253.328 286.317 231.335 280.628 221.043Z" fill="url(#paint0_linear_9378_29622)"/>
<g filter="url(#filter0_dd_9378_29622)">
<path d="M175.113 161.96L175.078 94.9192L71.9788 153.439L129.981 193.021L175.113 161.96Z" fill="#CDF8F7"/>
<path d="M114.531 187.185L170.69 154.175L201.4 169.71L148.288 199.94L114.531 187.185Z" fill="#ABEBEA"/>
<path d="M170.69 154.175L190.364 164.082L241.105 132.544L175.078 94.9192L170.69 154.175Z" fill="#CDF8F7"/>
<path d="M61.9641 118.126L71.9789 153.439L175.078 94.9191L161.947 66.958L61.9641 118.126Z" fill="url(#paint1_linear_9378_29622)"/>
<path d="M175.078 94.9192L193.368 66.9927L258.875 105.943L240.724 132.579L175.078 94.9192Z" fill="url(#paint2_linear_9378_29622)"/>
<path d="M70.1698 161.96C69.9188 162.791 69.5898 217.034 69.5898 217.034L140.567 259.265L140.36 192.311L70.1698 161.951V161.96Z" fill="url(#paint3_linear_9378_29622)"/>
<path d="M240.802 132.535L242.022 202.503L140.568 259.265L140.36 192.311L240.802 132.535Z" fill="url(#paint4_linear_9378_29622)"/>
<g filter="url(#filter1_dd_9378_29622)">
<path d="M140.36 192.311L170.231 197.082L276.308 133.505L240.802 132.535L140.36 192.311Z" fill="url(#paint5_linear_9378_29622)"/>
</g>
<g filter="url(#filter2_dd_9378_29622)">
<path d="M31.5217 151.604L98.3099 193.021L140.36 192.311L71.979 153.439L31.5217 151.604Z" fill="url(#paint6_linear_9378_29622)"/>
</g>
</g>
<path d="M112.879 211.37C112.85 211.37 112.821 211.37 112.791 211.366C110.5 211.095 108.31 209.87 106.785 208.008C105.264 206.158 104.435 203.72 104.514 201.317C104.526 200.908 104.867 200.591 105.272 200.603C105.679 200.615 105.998 200.957 105.983 201.363C105.917 203.412 106.623 205.494 107.92 207.07C109.208 208.642 111.045 209.673 112.963 209.899C113.367 209.946 113.654 210.315 113.608 210.719C113.564 211.095 113.245 211.37 112.877 211.37H112.879Z" fill="#75D5D6"/>
<path d="M84.7831 201.867C83.4514 201.867 82.1099 201.56 80.8787 200.952C80.5133 200.773 80.3637 200.33 80.5452 199.963C80.7242 199.597 81.1657 199.447 81.5311 199.629C83.2945 200.5 85.3251 200.633 87.1081 199.995C88.896 199.356 90.3896 197.959 91.2063 196.165C91.3755 195.794 91.8121 195.631 92.1824 195.801C92.5527 195.971 92.7146 196.409 92.5454 196.78C91.5619 198.933 89.7617 200.613 87.6035 201.385C86.701 201.71 85.7445 201.87 84.7831 201.87V201.867Z" fill="#75D5D6"/>
<path d="M88.3469 222.738C88.2267 222.738 88.1041 222.708 87.9888 222.644C87.6332 222.445 87.5057 221.997 87.7043 221.641C88.8178 219.633 90.7651 218.12 93.0483 217.486C95.3194 216.856 97.8602 217.114 100.021 218.194C100.384 218.376 100.531 218.819 100.352 219.183C100.17 219.547 99.729 219.697 99.366 219.515C97.5266 218.595 95.3684 218.374 93.4432 218.908C91.5376 219.436 89.914 220.693 88.9919 222.356C88.857 222.6 88.6068 222.735 88.3493 222.735L88.3469 222.738Z" fill="#75D5D6"/>
<path d="M88.4425 209.188C90.0317 209.075 91.2261 207.609 91.1059 205.909C90.9858 204.212 89.6001 202.925 88.0109 203.038C86.4216 203.151 85.2273 204.617 85.3474 206.317C85.4676 208.015 86.8533 209.301 88.4425 209.188Z" fill="#75D5D6"/>
<path d="M89.3009 205.788C89.7073 205.788 90.0367 205.403 90.0367 204.927C90.0367 204.452 89.7073 204.066 89.3009 204.066C88.8946 204.066 88.5652 204.452 88.5652 204.927C88.5652 205.403 88.8946 205.788 89.3009 205.788Z" fill="#E8FFFE"/>
<path d="M102.667 212.632C104.257 212.519 105.451 211.053 105.331 209.353C105.211 207.656 103.825 206.369 102.236 206.483C100.646 206.596 99.4521 208.062 99.5723 209.762C99.6925 211.459 101.078 212.746 102.667 212.632Z" fill="#75D5D6"/>
<path d="M103.525 209.232C103.932 209.232 104.261 208.847 104.261 208.371C104.261 207.896 103.932 207.51 103.525 207.51C103.119 207.51 102.79 207.896 102.79 208.371C102.79 208.847 103.119 209.232 103.525 209.232Z" fill="#E8FFFE"/>
<path d="M156.811 57.0453C154.348 57.0524 151.891 56.1203 150.063 54.4681C149.23 53.7196 148.489 52.5051 149.068 51.5449C149.386 51.0153 150.042 50.7611 150.656 50.7752C151.27 50.7893 151.856 51.0435 152.4 51.3471C154.503 52.5193 156.147 54.4963 156.804 57.0453H156.811Z" fill="#47BCC2"/>
<path d="M157.023 56.4384C156.042 54.1789 155.936 51.5522 156.733 49.2221C157.093 48.163 157.919 47.005 159.027 47.1603C159.641 47.2451 160.135 47.7464 160.361 48.3183C160.587 48.8903 160.587 49.5328 160.524 50.1471C160.277 52.5478 159.105 54.8355 157.023 56.4454V56.4384Z" fill="#47BCC2"/>
<path d="M159.127 61.1707C161.732 60.0247 163.225 57.6892 162.463 55.9544C161.7 54.2195 158.97 53.7422 156.365 54.8883C153.761 56.0343 152.267 58.3698 153.03 60.1046C153.793 61.8395 156.522 62.3168 159.127 61.1707Z" fill="#ABEBEA"/>
<g filter="url(#filter3_dd_9378_29622)">
<path d="M115.656 183.202C118.472 183.273 121.295 183.153 124.083 182.842C124.196 182.828 124.302 182.913 124.316 183.026C124.33 183.139 124.245 183.245 124.132 183.259C121.316 183.506 118.479 183.562 115.656 183.421C115.599 183.421 115.55 183.372 115.557 183.308C115.557 183.252 115.613 183.209 115.67 183.209L115.656 183.202Z" fill="#75D5D6"/>
<path d="M132.376 181.381C135.1 180.724 137.782 179.884 140.394 178.888C140.584 178.818 140.803 178.91 140.874 179.1C140.944 179.291 140.852 179.51 140.662 179.58H140.655C137.994 180.548 135.269 181.339 132.51 181.953C132.347 181.988 132.192 181.889 132.157 181.727C132.122 181.572 132.22 181.416 132.376 181.374V181.381Z" fill="#75D5D6"/>
<path d="M148.016 175.4C150.48 174.08 152.851 172.611 155.124 170.994C155.357 170.825 155.689 170.881 155.858 171.114C156.027 171.347 155.971 171.679 155.738 171.848H155.731C153.395 173.451 150.96 174.906 148.44 176.191C148.221 176.304 147.953 176.219 147.84 175.993C147.727 175.774 147.812 175.513 148.023 175.393H148.031L148.016 175.4Z" fill="#75D5D6"/>
<path d="M161.603 165.748C163.65 163.87 165.57 161.858 167.341 159.725C167.567 159.457 167.969 159.414 168.238 159.64C168.506 159.866 168.548 160.269 168.322 160.537C166.487 162.698 164.504 164.731 162.401 166.617C162.161 166.835 161.786 166.814 161.568 166.574C161.349 166.334 161.37 165.967 161.61 165.748H161.603Z" fill="#75D5D6"/>
<path d="M172.056 152.975C173.383 150.588 174.456 148.06 175.098 145.455C175.197 145.059 175.593 144.826 175.988 144.918C176.383 145.017 176.616 145.412 176.524 145.808C175.811 148.569 174.661 151.188 173.249 153.652C173.059 153.977 172.642 154.097 172.318 153.907C171.993 153.723 171.88 153.307 172.056 152.982V152.975Z" fill="#75D5D6"/>
<path d="M175.444 137.638C174.957 135.118 173.743 132.781 171.965 130.966C171.647 130.641 171.654 130.119 171.979 129.794C172.304 129.476 172.826 129.483 173.151 129.808L173.165 129.822C175.141 131.891 176.475 134.546 176.976 137.356C177.054 137.78 176.771 138.182 176.348 138.26C175.924 138.337 175.522 138.055 175.444 137.638Z" fill="#75D5D6"/>
<path d="M165.394 126.99C162.895 126.15 160.227 125.705 157.524 125.536C157.023 125.508 156.649 125.077 156.677 124.576C156.705 124.074 157.136 123.7 157.637 123.728C160.467 123.912 163.29 124.392 165.972 125.338C166.431 125.501 166.664 126.002 166.509 126.454C166.346 126.906 165.859 127.146 165.408 126.99H165.394Z" fill="#75D5D6"/>
<path d="M149.357 125.833C146.612 126.136 143.873 126.595 141.156 127.16C140.648 127.266 140.147 126.941 140.041 126.433C139.935 125.925 140.26 125.423 140.768 125.317C143.542 124.752 146.337 124.301 149.146 123.997C149.654 123.94 150.106 124.308 150.162 124.816C150.219 125.324 149.852 125.776 149.343 125.833H149.357Z" fill="#75D5D6"/>
<path d="M133.04 129.158L125 131.594H124.972C124.457 131.756 123.914 131.467 123.758 130.951C123.603 130.436 123.892 129.892 124.408 129.737L132.531 127.308C133.04 127.16 133.569 127.442 133.724 127.95C133.873 128.459 133.59 128.988 133.082 129.144L133.04 129.158Z" fill="#75D5D6"/>
<path d="M116.982 134.257L108.929 136.94C108.399 137.116 107.828 136.827 107.651 136.304C107.475 135.775 107.764 135.203 108.286 135.026L108.308 135.019L116.354 132.378C116.876 132.209 117.434 132.491 117.603 133.007C117.773 133.529 117.497 134.087 116.975 134.257H116.982Z" fill="#75D5D6"/>
<path d="M100.762 139.439L92.4268 141.522C91.8692 141.663 91.3045 141.324 91.1633 140.76C91.0222 140.202 91.361 139.63 91.9256 139.496L91.9962 139.474L100.212 137.455L100.268 137.441C100.819 137.307 101.376 137.646 101.511 138.196C101.645 138.747 101.313 139.305 100.762 139.439Z" fill="#75D5D6"/>
<path d="M83.8935 142.934L79.5668 143.266C78.854 143.344 78.1129 143.344 77.3788 143.337H75.1696C74.5979 143.344 74.1321 142.878 74.1321 142.306C74.1321 141.734 74.5909 141.268 75.1696 141.268H75.2402L77.3506 141.254C78.0564 141.254 78.7551 141.254 79.4539 141.176L83.6605 140.837H83.7311C84.3099 140.788 84.8181 141.219 84.8675 141.798C84.9169 142.377 84.4793 142.885 83.9005 142.934H83.8935Z" fill="#75D5D6"/>
<path d="M66.3684 142.031C63.4816 141.212 60.6301 139.941 58.1739 137.985C57.7434 137.639 57.6657 137.01 58.0116 136.573C58.3574 136.135 58.9856 136.064 59.4232 136.41C61.6183 138.147 64.2298 139.305 66.926 140.061C67.4694 140.216 67.7871 140.781 67.6318 141.317C67.4765 141.861 66.9189 142.179 66.3754 142.024L66.3684 142.031Z" fill="#75D5D6"/>
<path d="M52.7533 130.331C51.744 127.294 51.7016 124.053 52.3368 121.038C52.4498 120.509 52.965 120.177 53.4873 120.283C54.0096 120.389 54.3484 120.904 54.2355 121.427C53.6708 124.159 53.7273 127.047 54.6237 129.695C54.8001 130.21 54.5178 130.768 54.0026 130.945C53.4873 131.121 52.9297 130.839 52.7533 130.323V130.331Z" fill="#75D5D6"/>
<path d="M56.0426 112.692C56.932 111.45 57.9766 110.292 59.0776 109.275C60.1858 108.244 61.3786 107.319 62.6279 106.493C63.0584 106.21 63.6372 106.323 63.9266 106.754C64.2089 107.185 64.096 107.764 63.6654 108.046C61.3362 109.607 59.2188 111.513 57.5954 113.794C57.2919 114.225 56.6991 114.323 56.2685 114.02C55.838 113.716 55.7391 113.123 56.0426 112.692Z" fill="#75D5D6"/>
<path d="M70.6031 102.609C73.3699 101.642 76.2143 100.95 79.0587 100.442C79.5457 100.35 80.0186 100.675 80.1033 101.169C80.1951 101.656 79.8704 102.129 79.3763 102.214C76.6025 102.722 73.8639 103.4 71.2101 104.339C70.7301 104.509 70.2078 104.262 70.0384 103.782C69.8691 103.301 70.1161 102.779 70.596 102.609H70.6031Z" fill="#75D5D6"/>
<path d="M87.6137 99.4106L96.1611 99.0505C96.6128 99.0293 96.9869 99.3823 97.0081 99.8272C97.0292 100.272 96.6834 100.653 96.2387 100.674H96.2105L87.7619 101.126H87.6984C87.2255 101.155 86.8162 100.787 86.795 100.314C86.7668 99.8413 87.1338 99.4318 87.6067 99.4106H87.6137Z" fill="#75D5D6"/>
<path d="M104.652 98.9804L113.086 98.8604H113.114C113.51 98.8604 113.841 99.171 113.841 99.5664C113.841 99.9619 113.531 100.287 113.143 100.294L104.673 100.513C104.249 100.527 103.897 100.188 103.89 99.7641C103.882 99.3405 104.214 98.9874 104.638 98.9804H104.652Z" fill="#75D5D6"/>
<path d="M121.45 98.3307C124.223 98.0482 126.983 97.6387 129.701 97.0597C130.039 96.9891 130.371 97.2009 130.442 97.5398C130.512 97.8717 130.3 98.2036 129.969 98.2812C127.209 98.8955 124.407 99.3404 121.598 99.6652C121.231 99.7075 120.899 99.4463 120.857 99.0721C120.814 98.7049 121.083 98.373 121.45 98.3307C121.45 98.3307 121.45 98.3307 121.457 98.3307H121.45Z" fill="#75D5D6"/>
<path d="M137.691 94.7792C140.281 93.8189 142.808 92.6609 145.172 91.2346C145.412 91.0863 145.723 91.164 145.864 91.404C146.005 91.6441 145.935 91.9477 145.702 92.096C143.302 93.6 140.74 94.8427 138.1 95.8595C137.804 95.9725 137.465 95.8242 137.352 95.5276C137.239 95.2311 137.387 94.8921 137.684 94.7792H137.691Z" fill="#75D5D6"/>
<path d="M151.686 86.1791C153.62 84.2091 155.286 81.9708 156.634 79.5489C156.726 79.3724 156.945 79.3089 157.114 79.4077C157.283 79.4995 157.347 79.7113 157.255 79.8808C155.921 82.3804 154.255 84.7105 152.307 86.7652C152.145 86.9417 151.87 86.9488 151.7 86.7864C151.531 86.624 151.524 86.3486 151.686 86.1791Z" fill="#75D5D6"/>
<path d="M159.614 71.8024C160.214 69.091 160.411 66.2737 160.051 63.5059C160.037 63.4 160.108 63.3082 160.214 63.294C160.312 63.2799 160.404 63.3505 160.425 63.4494C160.856 66.2596 160.729 69.1405 160.164 71.9154C160.136 72.0708 159.988 72.1696 159.833 72.1343C159.684 72.1061 159.585 71.9578 159.614 71.8024Z" fill="#75D5D6"/>
</g>
<path d="M216 80.8L224.4 98.4L225.6 75.6L216 80.8Z" fill="#75D5D6"/>
<path d="M239.2 72L229.2 98.4L248.4 82L239.2 72Z" fill="#75D5D6"/>
<path d="M251.2 91.6L233.2 102.8H251.2V91.6Z" fill="#75D5D6"/>
<defs>
<filter id="filter0_dd_9378_29622" x="16.2931" y="66.958" width="275.243" height="222.765" filterUnits="userSpaceOnUse" color-interpolation-filters="sRGB">
<feFlood flood-opacity="0" result="BackgroundImageFix"/>
<feColorMatrix in="SourceAlpha" type="matrix" values="0 0 0 0 0 0 0 0 0 0 0 0 0 0 0 0 0 0 127 0" result="hardAlpha"/>
<feMorphology radius="3.04573" operator="erode" in="SourceAlpha" result="effect1_dropShadow_9378_29622"/>
<feOffset dy="6.09145"/>
<feGaussianBlur stdDeviation="3.04573"/>
<feComposite in2="hardAlpha" operator="out"/>
<feColorMatrix type="matrix" values="0 0 0 0 0.0901961 0 0 0 0 0.219608 0 0 0 0 0.482353 0 0 0 0.03 0"/>
<feBlend mode="normal" in2="BackgroundImageFix" result="effect1_dropShadow_9378_29622"/>
<feColorMatrix in="SourceAlpha" type="matrix" values="0 0 0 0 0 0 0 0 0 0 0 0 0 0 0 0 0 0 127 0" result="hardAlpha"/>
<feMorphology radius="3.04573" operator="erode" in="SourceAlpha" result="effect2_dropShadow_9378_29622"/>
<feOffset dy="15.2286"/>
<feGaussianBlur stdDeviation="9.13718"/>
<feComposite in2="hardAlpha" operator="out"/>
<feColorMatrix type="matrix" values="0 0 0 0 0.0902477 0 0 0 0 0.2203 0 0 0 0 0.480404 0 0 0 0.08 0"/>
<feBlend mode="normal" in2="effect1_dropShadow_9378_29622" result="effect2_dropShadow_9378_29622"/>
<feBlend mode="normal" in="SourceGraphic" in2="effect2_dropShadow_9378_29622" result="shape"/>
</filter>
<filter id="filter1_dd_9378_29622" x="125.131" y="132.535" width="166.405" height="95.0041" filterUnits="userSpaceOnUse" color-interpolation-filters="sRGB">
<feFlood flood-opacity="0" result="BackgroundImageFix"/>
<feColorMatrix in="SourceAlpha" type="matrix" values="0 0 0 0 0 0 0 0 0 0 0 0 0 0 0 0 0 0 127 0" result="hardAlpha"/>
<feMorphology radius="3.04573" operator="erode" in="SourceAlpha" result="effect1_dropShadow_9378_29622"/>
<feOffset dy="6.09145"/>
<feGaussianBlur stdDeviation="3.04573"/>
<feComposite in2="hardAlpha" operator="out"/>
<feColorMatrix type="matrix" values="0 0 0 0 0.0901961 0 0 0 0 0.219608 0 0 0 0 0.482353 0 0 0 0.03 0"/>
<feBlend mode="normal" in2="BackgroundImageFix" result="effect1_dropShadow_9378_29622"/>
<feColorMatrix in="SourceAlpha" type="matrix" values="0 0 0 0 0 0 0 0 0 0 0 0 0 0 0 0 0 0 127 0" result="hardAlpha"/>
<feMorphology radius="3.04573" operator="erode" in="SourceAlpha" result="effect2_dropShadow_9378_29622"/>
<feOffset dy="15.2286"/>
<feGaussianBlur stdDeviation="9.13718"/>
<feComposite in2="hardAlpha" operator="out"/>
<feColorMatrix type="matrix" values="0 0 0 0 0.0902477 0 0 0 0 0.2203 0 0 0 0 0.480404 0 0 0 0.08 0"/>
<feBlend mode="normal" in2="effect1_dropShadow_9378_29622" result="effect2_dropShadow_9378_29622"/>
<feBlend mode="normal" in="SourceGraphic" in2="effect2_dropShadow_9378_29622" result="shape"/>
</filter>
<filter id="filter2_dd_9378_29622" x="16.2931" y="151.604" width="139.295" height="71.875" filterUnits="userSpaceOnUse" color-interpolation-filters="sRGB">
<feFlood flood-opacity="0" result="BackgroundImageFix"/>
<feColorMatrix in="SourceAlpha" type="matrix" values="0 0 0 0 0 0 0 0 0 0 0 0 0 0 0 0 0 0 127 0" result="hardAlpha"/>
<feMorphology radius="3.04573" operator="erode" in="SourceAlpha" result="effect1_dropShadow_9378_29622"/>
<feOffset dy="6.09145"/>
<feGaussianBlur stdDeviation="3.04573"/>
<feComposite in2="hardAlpha" operator="out"/>
<feColorMatrix type="matrix" values="0 0 0 0 0.0901961 0 0 0 0 0.219608 0 0 0 0 0.482353 0 0 0 0.03 0"/>
<feBlend mode="normal" in2="BackgroundImageFix" result="effect1_dropShadow_9378_29622"/>
<feColorMatrix in="SourceAlpha" type="matrix" values="0 0 0 0 0 0 0 0 0 0 0 0 0 0 0 0 0 0 127 0" result="hardAlpha"/>
<feMorphology radius="3.04573" operator="erode" in="SourceAlpha" result="effect2_dropShadow_9378_29622"/>
<feOffset dy="15.2286"/>
<feGaussianBlur stdDeviation="9.13718"/>
<feComposite in2="hardAlpha" operator="out"/>
<feColorMatrix type="matrix" values="0 0 0 0 0.0902477 0 0 0 0 0.2203 0 0 0 0 0.480404 0 0 0 0.08 0"/>
<feBlend mode="normal" in2="effect1_dropShadow_9378_29622" result="effect2_dropShadow_9378_29622"/>
<feBlend mode="normal" in="SourceGraphic" in2="effect2_dropShadow_9378_29622" result="shape"/>
</filter>
<filter id="filter3_dd_9378_29622" x="36.6876" y="63.2922" width="155.53" height="150.662" filterUnits="userSpaceOnUse" color-interpolation-filters="sRGB">
<feFlood flood-opacity="0" result="BackgroundImageFix"/>
<feColorMatrix in="SourceAlpha" type="matrix" values="0 0 0 0 0 0 0 0 0 0 0 0 0 0 0 0 0 0 127 0" result="hardAlpha"/>
<feMorphology radius="3.04573" operator="erode" in="SourceAlpha" result="effect1_dropShadow_9378_29622"/>
<feOffset dy="6.09145"/>
<feGaussianBlur stdDeviation="3.04573"/>
<feComposite in2="hardAlpha" operator="out"/>
<feColorMatrix type="matrix" values="0 0 0 0 0.0901961 0 0 0 0 0.219608 0 0 0 0 0.482353 0 0 0 0.03 0"/>
<feBlend mode="normal" in2="BackgroundImageFix" result="effect1_dropShadow_9378_29622"/>
<feColorMatrix in="SourceAlpha" type="matrix" values="0 0 0 0 0 0 0 0 0 0 0 0 0 0 0 0 0 0 127 0" result="hardAlpha"/>
<feMorphology radius="3.04573" operator="erode" in="SourceAlpha" result="effect2_dropShadow_9378_29622"/>
<feOffset dy="15.2286"/>
<feGaussianBlur stdDeviation="9.13718"/>
<feComposite in2="hardAlpha" operator="out"/>
<feColorMatrix type="matrix" values="0 0 0 0 0.0902477 0 0 0 0 0.2203 0 0 0 0 0.480404 0 0 0 0.08 0"/>
<feBlend mode="normal" in2="effect1_dropShadow_9378_29622" result="effect2_dropShadow_9378_29622"/>
<feBlend mode="normal" in="SourceGraphic" in2="effect2_dropShadow_9378_29622" result="shape"/>
</filter>
<linearGradient id="paint0_linear_9378_29622" x1="123.133" y1="327.527" x2="162.983" y2="36.3815" gradientUnits="userSpaceOnUse">
<stop stop-color="white"/>
<stop offset="0.1" stop-color="#F0FFFE"/>
<stop offset="0.24" stop-color="#CAF5F5"/>
<stop offset="0.25" stop-color="#CAF5F5"/>
<stop offset="0.26" stop-color="#D2F5F5"/>
<stop offset="0.45" stop-color="#E8FFFE"/>
<stop offset="0.64" stop-color="#ECFFFE"/>
<stop offset="0.82" stop-color="#EBFFFE"/>
<stop offset="1" stop-color="white"/>
</linearGradient>
<linearGradient id="paint1_linear_9378_29622" x1="61.9641" y1="110.203" x2="175.078" y2="110.203" gradientUnits="userSpaceOnUse">
<stop stop-color="white"/>
<stop offset="0.78" stop-color="#E8FFFE"/>
</linearGradient>
<linearGradient id="paint2_linear_9378_29622" x1="175.078" y1="99.7857" x2="258.875" y2="99.7857" gradientUnits="userSpaceOnUse">
<stop stop-color="white"/>
<stop offset="0.78" stop-color="#E8FFFE"/>
</linearGradient>
<linearGradient id="paint3_linear_9378_29622" x1="69.5898" y1="210.608" x2="140.567" y2="210.608" gradientUnits="userSpaceOnUse">
<stop stop-color="white"/>
<stop offset="0.78" stop-color="#E8FFFE"/>
</linearGradient>
<linearGradient id="paint4_linear_9378_29622" x1="140.36" y1="195.896" x2="242.022" y2="195.896" gradientUnits="userSpaceOnUse">
<stop stop-color="white"/>
<stop offset="0.78" stop-color="#E8FFFE"/>
</linearGradient>
<linearGradient id="paint5_linear_9378_29622" x1="140.36" y1="164.809" x2="276.308" y2="164.809" gradientUnits="userSpaceOnUse">
<stop stop-color="white"/>
<stop offset="0.78" stop-color="#E8FFFE"/>
</linearGradient>
<linearGradient id="paint6_linear_9378_29622" x1="31.5217" y1="172.308" x2="140.36" y2="172.308" gradientUnits="userSpaceOnUse">
<stop stop-color="white"/>
<stop offset="0.78" stop-color="#E8FFFE"/>
</linearGradient>
</defs>
</svg>
