<svg width="32" height="32" viewBox="0 0 32 32" fill="none" xmlns="http://www.w3.org/2000/svg">
<rect width="32" height="32" rx="8" fill="url(#paint0_linear_1099_5745)"/>
<path d="M15.9666 7C11.0145 7 7 11.0146 7 15.9666C7 20.9187 11.0145 24.9333 15.9666 24.9333C20.9187 24.9333 24.9332 20.9187 24.9332 15.9666C24.9332 11.0145 20.9187 7 15.9666 7ZM15.4721 20.0581L14.9331 20.5799C14.4433 21.0539 13.7997 21.2905 13.1566 21.2905C12.5133 21.2905 11.8702 21.0538 11.3807 20.5801C10.9046 20.1195 10.6427 19.5069 10.6427 18.8552C10.6427 18.2031 10.9046 17.5904 11.3804 17.1295L13.3638 15.2108C14.5968 14.0181 16.0124 13.8467 16.9706 14.7735C17.2289 15.0237 17.2305 15.4311 16.9738 15.6831C16.7172 15.9354 16.2996 15.937 16.0407 15.6864C15.4774 15.1415 14.7043 15.7266 14.2933 16.1242L12.31 18.043C12.0855 18.2597 11.9624 18.5484 11.9624 18.8552C11.9624 19.1617 12.0855 19.4501 12.31 19.667C12.7768 20.1188 13.5364 20.1182 14.0032 19.667L14.5422 19.1451C14.8008 18.8952 15.2187 18.8964 15.4754 19.1484C15.7321 19.4005 15.7307 19.808 15.4721 20.0581ZM20.5525 15.143L18.4368 17.1895C17.7829 17.8223 17.0959 18.1418 16.4451 18.1418C15.9137 18.1418 15.4065 17.9287 14.9626 17.499C14.7038 17.2485 14.7021 16.8412 14.9593 16.5893C15.216 16.3372 15.6336 16.3355 15.8921 16.5859C16.0857 16.7733 16.54 17.2127 17.5069 16.2766L19.6233 14.2299C19.8473 14.0128 19.9707 13.7241 19.9707 13.4174C19.9707 13.1109 19.8474 12.8225 19.6227 12.6052C19.2014 12.1978 18.5554 11.9997 18.0619 12.4774L17.3907 13.1274C17.1321 13.3775 16.7145 13.3761 16.4575 13.1241C16.2006 12.8718 16.2023 12.4646 16.4611 12.2142L17.1326 11.5643C18.0848 10.6427 19.5236 10.6969 20.5525 11.6924C21.0283 12.1532 21.2905 12.7656 21.2905 13.4174C21.2905 14.0695 21.0283 14.6822 20.5525 15.143Z" fill="white"/>
<defs>
<linearGradient id="paint0_linear_1099_5745" x1="16" y1="0" x2="16" y2="32" gradientUnits="userSpaceOnUse">
<stop stop-color="#24B28F"/>
<stop offset="1" stop-color="#009E9E"/>
</linearGradient>
</defs>
</svg>
