<svg width="256" height="64" viewBox="0 0 256 64" fill="none" xmlns="http://www.w3.org/2000/svg">
    <rect width="256" height="64" rx="2" fill="#F7F8FA" />
    <g clip-path="url(#clip0_3944_8737)">
        <path
            d="M10 12.68C10 11.7522 10.7522 11 11.68 11H67.12C68.0478 11 68.8 11.7522 68.8 12.68V51.32C68.8 52.2478 68.0478 53 67.12 53H11.68C10.7522 53 10 52.2478 10 51.32V12.68Z"
            fill="white" />
        <rect x="15.88" y="32" width="47.04" height="15.12" rx="1.68" fill="#F2F3F5" />
        <path
            d="M15.88 18.56C15.88 17.6322 16.6322 16.88 17.56 16.88H36.46C37.3878 16.88 38.14 17.6322 38.14 18.56V27.8C38.14 28.7278 37.3878 29.48 36.46 29.48H17.56C16.6322 29.48 15.88 28.7278 15.88 27.8V18.56Z"
            fill="#009E9E" />
        <rect x="40.66" y="16.88" width="22.26" height="12.6" rx="1.68" fill="#F2F3F5" />
        <path
            d="M25.547 19.0684C24.6787 18.6235 23.6919 18.4648 22.7279 18.6152C21.7639 18.7656 20.8723 19.2173 20.1808 19.9056C19.4893 20.5938 19.0335 21.4834 18.8786 22.4466C18.7237 23.4099 18.8778 24.3975 19.3187 25.2678C19.7596 26.1382 20.4647 26.8466 21.333 27.2915C22.2013 27.7365 23.1881 27.8951 24.1521 27.7448C25.1161 27.5944 26.0077 27.1427 26.6992 26.4544C27.3907 25.7661 27.8466 24.8766 28.0014 23.9133L23.44 23.18L25.547 19.0684Z"
            fill="#75D5D6" />
        <path fill-rule="evenodd" clip-rule="evenodd"
            d="M27.6297 23.475C27.6817 22.7356 27.5373 21.9929 27.2075 21.3235C26.8776 20.6542 26.3766 20.0871 25.7586 19.6779L24.081 22.8641L27.6297 23.475Z"
            fill="#75D5D6" />
        <rect x="30.16" y="19.8199" width="5.46" height="2.52" rx="0.84" fill="#ABEBEA" />
        <rect x="31.42" y="24.02" width="4.2" height="2.52" rx="0.84" fill="#ABEBEA" />
        <rect x="22.1801" y="39.9801" width="4.2" height="2.52" rx="0.84" transform="rotate(90 22.1801 39.9801)"
            fill="#C9CDD4" />
        <rect x="28.3401" y="35.3601" width="8.82" height="2.52" rx="0.84" transform="rotate(90 28.3401 35.3601)"
            fill="#C9CDD4" />
        <rect x="34.5" y="39.5602" width="4.62" height="2.52" rx="0.84" transform="rotate(90 34.5 39.5602)"
            fill="#C9CDD4" />
        <rect x="40.66" y="37.4601" width="6.72" height="2.52" rx="0.84" transform="rotate(90 40.66 37.4601)"
            fill="#C9CDD4" />
        <rect x="46.8201" y="41.6602" width="2.52" height="2.52" rx="0.84" transform="rotate(90 46.8201 41.6602)"
            fill="#C9CDD4" />
        <rect x="52.98" y="35.3601" width="8.82" height="2.52" rx="0.84" transform="rotate(90 52.98 35.3601)"
            fill="#C9CDD4" />
        <rect x="59.14" y="39.5602" width="4.62" height="2.52" rx="0.84" transform="rotate(90 59.14 39.5602)"
            fill="#C9CDD4" />
        <path
            d="M43.1799 22.7171C43.1799 22.7171 43.6043 22.8249 43.6967 22.9979C44.0268 23.6164 44.3537 24.2587 44.566 23.8458C44.9736 23.0533 45.1275 22.0713 45.7739 22.2959C46.3877 22.5093 46.3877 24.2447 47.033 24.2447C47.6036 24.2447 47.9777 22.683 48.3744 22.7171C49.0263 22.7731 49.5428 24.0361 49.89 23.6877C50.6528 22.9224 50.6088 22.0713 51.808 22.0713C52.6429 22.0713 52.5397 18.8873 53.3708 18.9821C53.9237 19.0451 53.8003 20.0148 54.8343 20.0148C55.5519 20.0148 55.3391 21.9455 55.8951 21.9455C56.2714 21.9455 56.9043 19.505 57.2586 19.4314C57.7989 19.3191 57.6768 20.3294 58.0985 20.3294C58.5201 20.3294 58.6104 19.4827 59.1399 19.6561V27.8H43.1799V22.7171Z"
            fill="#E5E6EB" />
        <path
            d="M43.1799 26.96C43.1799 26.96 43.8847 27.28 44.345 25.8446C44.8053 24.4091 44.8502 22.2343 46.1862 24.0655C46.7986 24.9048 47.6656 23.3443 48.3828 23.4511C49.2302 23.5773 49.8424 25.6627 50.4732 24.6477C51.3345 23.2615 51.7072 23.0467 52.4772 22.7093C53.4295 22.2921 53.3658 20.7016 54.3043 20.8732C54.9286 20.9874 55.3148 23.6351 56.3897 23.8123C57.2413 23.9527 57.6356 22.0949 57.8374 21.4014C58.3384 19.6802 58.7949 20.3313 59.1399 20.5078"
            stroke="#C9CDD4" stroke-width="0.42" stroke-linecap="round" />
    </g>
    <path
        d="M80.564 14.786C81.53 15.514 82.342 16.242 83 16.97L82.286 17.67C81.698 16.97 80.9 16.228 79.878 15.444L80.564 14.786ZM88.754 27.148C87.984 27.148 87.144 27.134 86.248 27.12C85.338 27.106 84.596 27.022 84.036 26.868C83.476 26.7 82.972 26.35 82.538 25.846C82.342 25.608 82.16 25.496 81.992 25.496C81.656 25.496 81.096 26.14 80.326 27.428L79.57 26.742C80.312 25.566 80.97 24.852 81.544 24.6V20.344H79.556V19.42H82.482V24.656C82.594 24.74 82.706 24.838 82.832 24.978C83.168 25.384 83.532 25.678 83.924 25.86C84.372 26.056 85.002 26.168 85.842 26.196C86.584 26.21 87.508 26.224 88.614 26.224C89.258 26.224 89.93 26.21 90.616 26.196C91.288 26.182 91.806 26.168 92.17 26.14L91.932 27.148H88.754ZM86.248 16.13C86.836 16.48 87.382 16.83 87.858 17.18C88.586 16.802 89.258 16.382 89.874 15.906H83.658V15.052H91.232V15.78C90.392 16.508 89.482 17.138 88.502 17.67L88.726 17.852H91.498V24.11C91.498 24.824 91.106 25.188 90.322 25.188H89.16L88.936 24.334L90.042 24.376C90.378 24.376 90.546 24.208 90.546 23.9V22.85H88.194V25.258H87.256V22.85H84.918V25.3H83.966V17.852H87.466C86.934 17.474 86.318 17.096 85.632 16.732L86.248 16.13ZM84.918 20.792V22.024H87.256V20.792H84.918ZM88.194 20.792V22.024H90.546V20.792H88.194ZM90.546 19.952V18.692H88.194V19.952H90.546ZM87.256 19.952V18.692H84.918V19.952H87.256ZM95.782 19.448V21.898H99.338V19.448H95.782ZM95.726 22.822C95.572 24.614 95.054 26.098 94.158 27.274L93.388 26.588C94.284 25.342 94.746 23.76 94.774 21.842V15.122H105.204V25.608C105.204 26.588 104.714 27.078 103.734 27.078H102.124L101.858 26.084C102.418 26.112 102.936 26.14 103.412 26.14C103.916 26.14 104.182 25.846 104.182 25.258V22.822H100.374V26.924H99.338V22.822H95.726ZM104.182 21.898V19.448H100.374V21.898H104.182ZM104.182 18.51V16.102H100.374V18.51H104.182ZM99.338 16.102H95.782V18.51H99.338V16.102ZM111.686 15.724H113.73V14.604H114.668V15.724H116.922V14.604H117.874V15.724H120.044V16.62H117.874V17.67H116.922V16.62H114.668V17.67H113.73V16.62H111.686V15.724ZM115.62 24.516C115.452 24.866 115.242 25.188 115.018 25.468C114.374 26.28 113.254 26.91 111.644 27.372L111.28 26.532C112.68 26.154 113.674 25.608 114.29 24.894C114.43 24.712 114.57 24.53 114.682 24.334H111.42V23.41H115.102C115.214 23.074 115.298 22.71 115.368 22.346H112.428V18.104H119.134V22.346H116.264C116.208 22.738 116.124 23.088 116.04 23.41H120.072V24.334H116.53C117.342 25.286 118.574 26.056 120.226 26.644L119.554 27.442C117.734 26.658 116.432 25.692 115.62 24.516ZM110.328 20.232V27.358H109.376V20.386C108.942 21.702 108.396 22.906 107.724 23.984L107.29 22.892C108.256 21.548 108.956 20.036 109.376 18.328V18.244H107.752V17.334H109.376V14.618H110.328V17.334H111.798V18.244H110.328V19.168C110.93 19.896 111.546 20.736 112.19 21.674L111.658 22.472C111.14 21.548 110.692 20.806 110.328 20.232ZM118.224 21.562V20.61H113.338V21.562H118.224ZM113.338 19.854H118.224V18.916H113.338V19.854ZM121.556 17.278H123.544V14.576H124.566V17.278H126.232V18.258H124.566V18.986C125.182 19.644 125.798 20.386 126.428 21.198L125.854 22.052C125.35 21.184 124.93 20.484 124.566 19.952V27.33H123.544V20.33C123.082 21.702 122.48 22.948 121.752 24.068L121.318 22.976C122.354 21.59 123.082 20.022 123.53 18.258H121.556V17.278ZM133.232 14.674L133.736 15.612C131.972 16.116 130.026 16.41 127.884 16.494V18.622H133.414V19.378C133.274 21.254 132.672 22.906 131.608 24.32C132.336 25.146 133.232 25.86 134.296 26.448L133.778 27.344C132.658 26.728 131.72 25.972 130.964 25.104C130.166 25.972 129.186 26.742 128.038 27.414L127.38 26.644C128.584 25.972 129.564 25.188 130.348 24.32C129.396 22.976 128.794 21.408 128.514 19.602H127.884V21.03C127.814 23.69 127.24 25.818 126.162 27.4L125.434 26.644C126.33 25.3 126.82 23.424 126.904 21.03V15.64C129.242 15.598 131.356 15.276 133.232 14.674ZM130.978 23.522C131.79 22.36 132.28 21.058 132.476 19.602H129.41C129.662 21.086 130.18 22.402 130.978 23.522Z"
        fill="#4E5969" />
    <g clip-path="url(#clip1_3944_8737)">
        <path
            d="M86.8001 47C90.482 47 93.4668 43 93.4668 43C93.4668 43 90.482 39 86.8001 39C83.1182 39 80.1334 43 80.1334 43C80.1334 43 83.1182 47 86.8001 47Z"
            stroke="#009E9E" stroke-width="1.33333" stroke-linejoin="round" />
        <path
            d="M86.8001 44.6666C87.7206 44.6666 88.4668 43.9204 88.4668 43C88.4668 42.0795 87.7206 41.3333 86.8001 41.3333C85.8796 41.3333 85.1334 42.0795 85.1334 43C85.1334 43.9204 85.8796 44.6666 86.8001 44.6666Z"
            stroke="#009E9E" stroke-width="1.33333" stroke-linejoin="round" />
    </g>
    <path
        d="M101.02 39.848L101.764 40.22C101.248 41.324 100.648 42.272 99.964 43.088L99.268 42.584C99.94 41.828 100.528 40.916 101.02 39.848ZM104.176 42.08C103.624 41.384 103.084 40.796 102.544 40.292L103.072 39.776C103.552 40.16 104.104 40.736 104.74 41.504L104.176 42.08ZM100.972 42.8C101.464 43.184 101.932 43.592 102.388 44.012C102.664 43.46 102.904 42.872 103.096 42.248L103.84 42.56C103.624 43.304 103.348 44 103.024 44.624C103.528 45.116 104.008 45.62 104.464 46.148L103.852 46.832C103.42 46.316 102.988 45.848 102.58 45.416C101.836 46.544 100.9 47.444 99.748 48.104L99.22 47.336C100.336 46.724 101.248 45.872 101.956 44.78C101.452 44.276 100.936 43.82 100.432 43.412L100.972 42.8ZM102.208 37.112C102.388 37.52 102.568 37.964 102.748 38.468H105.004V39.296H99.448V38.468H101.908C101.728 38.036 101.524 37.628 101.308 37.256L102.208 37.112ZM106.588 39.98C106.492 40.268 106.408 40.556 106.312 40.82C106.6 42.044 106.972 43.112 107.428 44.024C108.004 42.848 108.328 41.504 108.376 39.98H106.588ZM106.96 44.84C106.516 43.976 106.144 43.016 105.844 41.96C105.628 42.392 105.388 42.776 105.148 43.136L104.596 42.476C105.436 41.156 106.012 39.38 106.3 37.136L107.164 37.28C107.068 37.952 106.948 38.564 106.816 39.14H110.188V39.98H109.168C109.096 41.888 108.676 43.52 107.896 44.888C108.58 45.992 109.408 46.844 110.368 47.432L109.864 48.188C108.904 47.576 108.088 46.724 107.416 45.644C106.66 46.676 105.676 47.54 104.476 48.224L103.984 47.444C105.256 46.772 106.252 45.908 106.96 44.84ZM112.768 37.676H120.772V42.32H117.244V43.412H122.02V44.228H118.012C118.864 45.308 120.292 46.28 122.284 47.12L121.696 47.876C119.608 46.784 118.144 45.572 117.304 44.228H117.244V48.188H116.356V44.228H116.308C115.396 45.704 113.908 46.916 111.82 47.864L111.328 47.072C113.284 46.328 114.7 45.38 115.576 44.228H111.58V43.412H116.356V42.32H112.768V37.676ZM119.92 41.564V40.4H117.244V41.564H119.92ZM116.356 41.564V40.4H113.632V41.564H116.356ZM113.632 39.644H116.356V38.444H113.632V39.644ZM117.244 38.444V39.644H119.92V38.444H117.244ZM128.296 37.688H134.248V38.504H131.812C131.752 38.972 131.668 39.416 131.572 39.848H133.84V45.5H133.024V40.616H129.556V45.5H128.74V39.848H130.744C130.84 39.416 130.912 38.96 130.96 38.504H128.296V37.688ZM132.136 45.5C133.024 46.196 133.768 46.892 134.368 47.588L133.768 48.188C133.24 47.516 132.508 46.796 131.584 46.04L132.136 45.5ZM130.84 41.3H131.68V43.46C131.644 44.744 131.356 45.764 130.816 46.52C130.288 47.228 129.436 47.78 128.248 48.188L127.78 47.456C128.92 47.084 129.724 46.592 130.18 45.968C130.588 45.32 130.816 44.492 130.84 43.46V41.3ZM124.612 39.2C124.936 39.512 125.236 39.812 125.5 40.1C125.932 39.632 126.328 39.092 126.688 38.492H123.664V37.688H127.612V38.372C127.12 39.26 126.58 40.016 126.004 40.652C126.232 40.916 126.424 41.156 126.592 41.372H127.96V41.9C127.768 42.836 127.528 43.568 127.264 44.096L126.556 43.82C126.772 43.364 126.976 42.824 127.144 42.176H125.872V47.192C125.872 47.816 125.56 48.14 124.96 48.14H123.808L123.64 47.36C124 47.396 124.348 47.42 124.684 47.42C124.924 47.42 125.056 47.276 125.056 46.988V42.176H123.328V41.372H125.656C125.188 40.82 124.624 40.22 123.976 39.596L124.612 39.2ZM143.932 41.6V45.872H143.08V42.392H138.34V45.896H137.476V41.6H143.932ZM140.188 43.16H141.04V43.988C140.992 45.152 140.584 46.088 139.816 46.784C139.06 47.42 137.824 47.924 136.108 48.284L135.616 47.516C137.32 47.18 138.508 46.748 139.192 46.208C139.816 45.632 140.14 44.9 140.188 43.988V43.16ZM144.604 48.008H142.276C141.532 48.008 141.16 47.624 141.16 46.868V44.564H141.988V46.688C141.988 47.036 142.168 47.216 142.528 47.216H144.448C144.7 47.216 144.88 47.144 145 47.012C145.144 46.844 145.24 46.376 145.288 45.584L146.08 45.836C146.008 46.868 145.84 47.492 145.6 47.72C145.384 47.912 145.06 48.008 144.604 48.008ZM138.58 37.196H139.432V41.096H138.58V37.196ZM136.228 37.7H137.056V40.796H136.228V37.7ZM142.084 38.888C141.7 39.62 141.244 40.232 140.728 40.712L140.08 40.112C140.896 39.308 141.508 38.3 141.904 37.1L142.732 37.316C142.636 37.592 142.54 37.856 142.444 38.108H145.984V38.888H142.084ZM143.152 39.26C143.848 39.668 144.496 40.16 145.096 40.736L144.568 41.348C143.956 40.736 143.308 40.208 142.612 39.764L143.152 39.26Z"
        fill="#009E9E" />
    <g clip-path="url(#clip2_3944_8737)">
        <path fill-rule="evenodd" clip-rule="evenodd"
            d="M243.054 30.7145L242.346 30.0074L238.811 33.5429L235.275 30.0074L234.568 30.7145L238.457 34.6035C238.457 34.6035 238.457 34.6036 238.811 34.25L238.457 34.6035L238.811 34.9571L243.054 30.7145Z"
            fill="#4E5969" />
    </g>
    <defs>
        <clipPath id="clip0_3944_8737">
            <rect width="58.8" height="42" fill="white" transform="translate(10 11)" />
        </clipPath>
        <clipPath id="clip1_3944_8737">
            <rect width="16" height="16" fill="white" transform="translate(78.8 35)" />
        </clipPath>
        <clipPath id="clip2_3944_8737">
            <rect width="12" height="12" fill="white" transform="translate(232.8 26)" />
        </clipPath>
    </defs>
</svg>