<svg width="16" height="16" viewBox="0 0 16 16" fill="none" xmlns="http://www.w3.org/2000/svg">
  <g clip-path="url(#clip0_1384_2241)">
    <path d="M8.00028 13.9998C4.4055 13.9998 1.41485 11.4133 0.787842 7.99981C1.07896 6.41489 1.87963 5.00828 3.01373 3.95606C4.4055 2.66645 6.12848 1.99978 8.00028 1.99978C11.595 1.99978 14.5857 4.58629 15.2127 7.99981C14.5857 11.4133 11.595 13.9998 8.00028 13.9998ZM8.00028 12.6665C10.824 12.6665 13.2403 10.7011 13.8519 7.99981C13.2403 5.29846 10.824 3.33312 8.00028 3.33312C5.17648 3.33312 2.76023 5.29846 2.1486 7.99981C2.76023 10.7011 5.17648 12.6665 8.00028 12.6665ZM8.00028 10.9998C6.3434 10.9998 5.00026 9.65661 5.00026 7.99981C5.00026 6.34293 6.3434 4.99978 8.00028 4.99978C9.65708 4.99978 11.0003 6.34293 11.0003 7.99981C11.0003 9.65661 9.65708 10.9998 8.00028 10.9998ZM8.00028 9.66648C8.92068 9.66648 9.66648 8.92028 9.66648 7.99981C9.66648 7.07934 8.92068 6.33312 8.00028 6.33312C7.07982 6.33312 6.33359 7.07934 6.33359 7.99981C6.33359 8.92028 7.07982 9.66648 8.00028 9.66648Z" fill="#4E5969"/>
  </g>
  <defs>
    <clipPath id="clip0_1384_2241">
      <rect width="16" height="16" fill="white"/>
    </clipPath>
  </defs>
</svg>
