<svg xmlns="http://www.w3.org/2000/svg" xmlns:xlink="http://www.w3.org/1999/xlink" width="35" height="35" viewBox="0 0 35 35" fill="none">
<path d="M17.5 32.0834C21.527 32.0834 25.1728 30.451 27.8119 27.812C30.451 25.1729 32.0833 21.5271 32.0833 17.5C32.0833 13.473 30.451 9.82715 27.8119 7.18804C25.1728 4.54899 21.527 2.91669 17.5 2.91669C13.4729 2.91669 9.82709 4.54899 7.18798 7.18804C4.54892 9.82715 2.91663 13.473 2.91663 17.5C2.91663 21.5271 4.54892 25.1729 7.18798 27.812C9.82709 30.451 13.4729 32.0834 17.5 32.0834Z" stroke="rgba(134, 144, 156, 1.00)" stroke-width="2" stroke-linejoin="round"  >
</path>
<path    stroke="rgba(134, 144, 156, 1.00)" stroke-width="2" stroke-linejoin="round" stroke-linecap="round"  d="M17.495 20.8756L17.495 17.9556C19.9112 17.9556 21.875 16.0018 21.875 13.5856C21.875 11.1693 19.9112 9.20557 17.495 9.20557C15.0788 9.20557 13.125 11.1693 13.125 13.5856">
</path>
<path d="M17.5 27.4348C18.5068 27.4348 19.323 26.6186 19.323 25.6119C19.323 24.6051 18.5068 23.7889 17.5 23.7889C16.4933 23.7889 15.6771 24.6051 15.6771 25.6119C15.6771 26.6186 16.4933 27.4348 17.5 27.4348Z" fill-rule="evenodd"  fill="#86909C" >
</path>
</svg>
