<svg width="14" height="14" viewBox="0 0 14 14" fill="none" xmlns="http://www.w3.org/2000/svg">
<g clip-path="url(#clip0_6886_21745)">
<path d="M7 13.8426L3.28767 10.1303C2.55345 9.39603 2.05344 8.46057 1.85087 7.44217C1.64831 6.42377 1.75228 5.36817 2.14964 4.40887C2.547 3.44956 3.21991 2.62962 4.08327 2.05275C4.94662 1.47587 5.96165 1.16797 7 1.16797C8.03835 1.16797 9.05338 1.47587 9.91674 2.05275C10.7801 2.62962 11.453 3.44956 11.8504 4.40887C12.2477 5.36817 12.3517 6.42377 12.1491 7.44217C11.9466 8.46057 11.4466 9.39603 10.7123 10.1303L7 13.8426ZM9.8875 9.30542C10.4585 8.73434 10.8474 8.00676 11.0049 7.21468C11.1624 6.42261 11.0815 5.6016 10.7725 4.8555C10.4634 4.10939 9.94003 3.47169 9.26854 3.02302C8.59705 2.57436 7.80759 2.33488 7 2.33488C6.19241 2.33488 5.40296 2.57436 4.73147 3.02302C4.05998 3.47169 3.5366 4.10939 3.22753 4.8555C2.91846 5.6016 2.83758 6.42261 2.9951 7.21468C3.15262 8.00676 3.54148 8.73434 4.1125 9.30542L7 12.1929L9.8875 9.30542V9.30542ZM7 7.58459C6.69058 7.58459 6.39384 7.46167 6.17504 7.24288C5.95625 7.02409 5.83334 6.72734 5.83334 6.41792C5.83334 6.1085 5.95625 5.81176 6.17504 5.59297C6.39384 5.37417 6.69058 5.25126 7 5.25126C7.30942 5.25126 7.60617 5.37417 7.82496 5.59297C8.04375 5.81176 8.16667 6.1085 8.16667 6.41792C8.16667 6.72734 8.04375 7.02409 7.82496 7.24288C7.60617 7.46167 7.30942 7.58459 7 7.58459Z" fill="#547781"/>
</g>
<defs>
<clipPath id="clip0_6886_21745">
<rect width="14" height="14" fill="white"/>
</clipPath>
</defs>
</svg>
