<svg width="20" height="20" viewBox="0 0 20 20" fill="none" xmlns="http://www.w3.org/2000/svg">
<path d="M13.3333 1.66699L17.5 5.83366V17.5072C17.5 17.9637 17.1292 18.3337 16.6722 18.3337H3.32783C2.87063 18.3337 2.5 17.9542 2.5 17.5072V2.49349C2.5 2.03703 2.87079 1.66699 3.32783 1.66699H13.3333ZM7.16213 10.6766L6.33576 11.1537L7.16914 12.5971L7.9961 12.1196C8.3237 12.4295 8.72308 12.6642 9.16675 12.7962V13.7503H10.8334V12.7962C11.2771 12.6642 11.6764 12.4294 12.004 12.1195L12.831 12.597L13.6643 11.1536L12.8379 10.6765C12.8894 10.4595 12.9167 10.2331 12.9167 10.0003C12.9167 9.76758 12.8894 9.54116 12.8378 9.32408L13.6643 8.84699L12.8309 7.4036L12.0039 7.88107C11.6763 7.57121 11.277 7.33647 10.8333 7.20444V6.25033H9.16667V7.20444C8.723 7.33648 8.32362 7.57123 7.99603 7.88111L7.16909 7.40368L6.33576 8.84708L7.16212 9.32416C7.1106 9.54116 7.08333 9.76758 7.08333 10.0003C7.08333 10.2332 7.11061 10.4596 7.16213 10.6766ZM10 11.2503C9.30967 11.2503 8.75 10.6907 8.75 10.0003C8.75 9.30999 9.30967 8.75033 10 8.75033C10.6903 8.75033 11.25 9.30999 11.25 10.0003C11.25 10.6907 10.6903 11.2503 10 11.2503Z" fill="#4E5969"/>
</svg>
