<svg width="20" height="20" viewBox="0 0 20 20" fill="none" xmlns="http://www.w3.org/2000/svg">
<path d="M7.16213 10.6766C7.11061 10.4596 7.08333 10.2332 7.08333 10.0003C7.08333 9.76758 7.1106 9.54116 7.16212 9.32416L6.33576 8.84708L7.16909 7.40368L7.99603 7.88111C8.32362 7.57123 8.723 7.33648 9.16667 7.20444V6.25033H10.8333V7.20444C11.277 7.33647 11.6763 7.57121 12.0039 7.88108L12.8309 7.4036L13.6643 8.84699L12.8378 9.32408C12.8894 9.54116 12.9167 9.76758 12.9167 10.0003C12.9167 10.2331 12.8894 10.4595 12.8379 10.6765L13.6643 11.1536L12.831 12.597L12.004 12.1195C11.6764 12.4294 11.2771 12.6642 10.8334 12.7962V13.7503H9.16675V12.7962C8.72308 12.6642 8.3237 12.4295 7.9961 12.1196L7.16914 12.5971L6.33576 11.1537L7.16213 10.6766ZM10 11.2503C10.6903 11.2503 11.25 10.6907 11.25 10.0003C11.25 9.30999 10.6903 8.75033 10 8.75033C9.30967 8.75033 8.75 9.30999 8.75 10.0003C8.75 10.6907 9.30967 11.2503 10 11.2503ZM12.5 3.33366H4.16667V16.667H15.8333V6.66699H12.5V3.33366ZM2.5 2.49349C2.5 2.03703 2.87291 1.66699 3.33208 1.66699H13.3333L17.4998 5.83366L17.5 17.4941C17.5 17.9577 17.1293 18.3337 16.6722 18.3337H3.32783C2.87063 18.3337 2.5 17.9542 2.5 17.5072V2.49349Z" fill="#86909C"/>
</svg>
