<svg xmlns="http://www.w3.org/2000/svg" width="24" height="24" viewBox="0 0 24 24" fill="none">
  <path fill-rule="evenodd" clip-rule="evenodd" d="M19.2929 8.29302C19.6834 7.90249 20.3164 7.90249 20.707 8.29302C21.0974 8.68355 21.0975 9.31658 20.707 9.70708L17.207 13.2071C16.8165 13.5976 16.1834 13.5975 15.7929 13.2071C15.4024 12.8166 15.4024 12.1835 15.7929 11.793L19.2929 8.29302ZM14.2929 3.29302C14.6834 2.90249 15.3164 2.90249 15.707 3.29302C16.0974 3.68355 16.0975 4.31658 15.707 4.70708L12.207 8.20708C11.8165 8.59758 11.1834 8.59753 10.7929 8.20708C10.4024 7.81655 10.4024 7.18354 10.7929 6.79302L14.2929 3.29302Z" fill="#B0C0C5"/>
  <path fill-rule="evenodd" clip-rule="evenodd" d="M9.78508 5C10.0501 5.00011 10.3047 5.10558 10.4921 5.29297L18.707 13.5078C18.8943 13.6953 18.9999 13.9498 18.9999 14.2148C18.9999 14.48 18.8944 14.7344 18.707 14.9219L16.6532 16.9766L16.6523 16.9756C16.0276 17.6215 15.282 18.139 14.457 18.4951C13.6257 18.8539 12.7304 19.0428 11.8251 19.0518C10.9197 19.0606 10.0207 18.8892 9.18254 18.5469C8.65465 18.3312 8.15714 18.0502 7.7011 17.7119L4.70696 20.707C4.31644 21.0975 3.68342 21.0975 3.29289 20.707C2.90237 20.3165 2.90237 19.6835 3.29289 19.293L6.28703 16.2979C5.94943 15.8421 5.66949 15.3448 5.45403 14.8174C5.1116 13.9791 4.93929 13.0803 4.94817 12.1748C4.95711 11.2695 5.14707 10.3752 5.50578 9.54395C5.86459 8.71258 6.3853 7.9606 7.03801 7.33301L9.07805 5.29297C9.26553 5.1056 9.52002 5.00004 9.78508 5Z" fill="#547781"/>
</svg>