<svg width="24" height="24" viewBox="0 0 24 24" fill="none" xmlns="http://www.w3.org/2000/svg">
<path d="M21 12.4737V11.0526C21 10.3516 20.7963 10.1053 20.0526 10.1053H13.8947V3.94737C13.8947 3.24632 13.6626 3 12.9474 3H11.5263C10.7921 3 10.5789 3.24632 10.5789 3.94737V10.1053H3.94737C3.24632 10.1053 3 10.3374 3 11.0526V12.4737C3 13.2079 3.24632 13.4211 3.94737 13.4211H10.5789V20.0526C10.5789 20.7679 10.8063 21 11.5263 21H12.9474C13.6484 21 13.8947 20.7963 13.8947 20.0526V13.4211H20.0526C20.7679 13.4211 21 13.1937 21 12.4737Z" fill="#4FAE7B"/>
</svg>
