<svg width="16" height="16" viewBox="0 0 16 16" fill="none" xmlns="http://www.w3.org/2000/svg">
<g clip-path="url(#clip0_197_3823)">
<path d="M4.03033 7.78507C4.58871 6.84179 5.44159 6.10814 6.45774 5.69703C7.47388 5.28591 8.59697 5.22011 9.65417 5.50975C10.7114 5.79939 11.6441 6.42843 12.3088 7.30005C12.9735 8.17167 13.3334 9.23758 13.333 10.3337C13.333 10.5106 13.4032 10.6801 13.5283 10.8051C13.6533 10.9302 13.8229 11.0004 13.9997 11.0004C14.1765 11.0004 14.346 10.9302 14.4711 10.8051C14.5961 10.6801 14.6663 10.5106 14.6663 10.3337C14.6664 8.9929 14.2409 7.68662 13.4512 6.60303C12.6614 5.51945 11.5482 4.71447 10.2717 4.30402C8.99521 3.89358 7.6214 3.89885 6.34811 4.31907C5.07481 4.7393 3.96774 5.55279 3.18633 6.64241L2.82833 4.61241C2.79765 4.43825 2.69905 4.28341 2.55421 4.18195C2.40937 4.0805 2.23015 4.04073 2.05599 4.07141C1.88184 4.10208 1.727 4.20069 1.62554 4.34553C1.52408 4.49037 1.48432 4.66958 1.51499 4.84374L2.20966 8.78307C2.24057 8.95716 2.33937 9.11183 2.48433 9.21307C2.57879 9.27642 2.68669 9.31692 2.7995 9.33139C2.91231 9.34585 3.02694 9.33387 3.13433 9.29641L6.92099 8.62907C7.09515 8.5984 7.24999 8.49979 7.35145 8.35495C7.45291 8.21011 7.49267 8.0309 7.46199 7.85674C7.43132 7.68258 7.33271 7.52774 7.18787 7.42629C7.04303 7.32483 6.86382 7.28506 6.68966 7.31574L4.03033 7.78507Z" fill="#86909C"/>
</g>
<defs>
<clipPath id="clip0_197_3823">
<rect width="16" height="16" fill="white"/>
</clipPath>
</defs>
</svg>
