<svg xmlns="http://www.w3.org/2000/svg" width="24" height="24" viewBox="0 0 24 24" fill="none">
  <path d="M12 1L20.217 2.826C20.674 2.928 21 3.333 21 3.802V13.789C21 15.795 19.997 17.669 18.328 18.781L12 23L5.672 18.781C4.002 17.668 3 15.795 3 13.79V3.802C3 3.333 3.326 2.928 3.783 2.826L12 1ZM16.452 8.222L11.502 13.171L8.674 10.343L7.26 11.757L11.503 16L17.867 9.636L16.452 8.222Z" fill="#B0C0C5"/>
  <path d="M20.2168 2.82617C20.6737 2.92815 20.9999 3.33286 21 3.80176V13.7891C21 15.795 19.9971 17.6693 18.3281 18.7812L12 23V15.5029L17.8672 9.63574L16.4521 8.22168L12 12.6729V1L20.2168 2.82617Z" fill="#547781"/>
</svg>