<svg xmlns="http://www.w3.org/2000/svg" width="24" height="24" viewBox="0 0 24 24" fill="none">
  <path fill-rule="evenodd" clip-rule="evenodd" d="M19.1465 4.44462C19.588 4.42614 19.961 4.76981 19.9795 5.21122C19.9804 5.23338 19.9804 5.25553 19.9795 5.27763C19.9692 5.52318 19.9585 5.72814 19.9482 5.89189C19.5787 11.8127 17.7536 17.6602 14.4717 22.8509C12.6384 21.6558 10.874 20.3102 9.19727 18.8138L4.7666 20.2903C4.50462 20.3777 4.22112 20.2359 4.13379 19.9739C4.09973 19.8714 4.0996 19.7601 4.13379 19.6575L5.61133 15.2268C4.11487 13.5501 2.76835 11.7867 1.57324 9.95341C6.76593 6.67029 12.6159 4.8444 18.5391 4.47587C18.7012 4.46576 18.9037 4.45482 19.1465 4.44462ZM15.0146 9.40946C13.5169 7.9117 11.0886 7.9117 9.59082 9.40946C8.09304 10.9073 8.09308 13.3356 9.59082 14.8333C11.0887 16.3311 13.5168 16.3311 15.0146 14.8333C16.5124 13.3356 16.5124 10.9073 15.0146 9.40946Z" fill="#19BBFF"/>
  <path d="M10.8885 13.5355C10.1075 12.7544 10.1075 11.4881 10.8885 10.707C11.6696 9.92602 12.9359 9.92602 13.7169 10.7071C14.498 11.4881 14.498 12.7544 13.717 13.5355C12.9359 14.3165 11.6696 14.3165 10.8885 13.5355Z" fill="#0081CC"/>
</svg>