<svg width="90" height="40" viewBox="0 0 90 40" fill="none" xmlns="http://www.w3.org/2000/svg">
<path d="M0.724981 10.6428C-1.09551 5.4414 2.76506 0 8.27585 0H82C86.4183 0 90 3.58172 90 8V32C90 36.4183 86.4183 40 82 40H8.27585C2.76506 40 -1.09551 34.5586 0.724982 29.3572L3.07502 22.6428C3.67386 20.9318 3.67386 19.0682 3.07502 17.3572L0.724981 10.6428Z" fill="#009E9E"/>
<path d="M4.02668 9.40449C3.04606 6.78949 4.97918 4 7.772 4H82C84.2091 4 86 5.79086 86 8V32C86 34.2091 84.2091 36 82 36H7.772C4.97918 36 3.04606 33.2105 4.02668 30.5955L7.47332 21.4045C7.81289 20.499 7.81289 19.501 7.47331 18.5955L4.02668 9.40449Z" fill="white"/>
</svg>
