<svg width="90" height="40" viewBox="0 0 90 40" fill="none" xmlns="http://www.w3.org/2000/svg">
<path d="M0.724981 10.6428C-1.09551 5.4414 2.76506 0 8.27585 0H78.7538C82.4247 0 85.6246 2.49838 86.5149 6.05972L89.5149 18.0597C89.8334 19.3336 89.8334 20.6664 89.5149 21.9403L86.5149 33.9403C85.6246 37.5016 82.4247 40 78.7538 40H8.27585C2.76507 40 -1.09551 34.5586 0.724982 29.3572L3.07502 22.6428C3.67386 20.9318 3.67386 19.0682 3.07502 17.3572L0.724981 10.6428Z" fill="#009E9E"/>
<path d="M4.02668 9.40449C3.04606 6.78949 4.97918 4 7.772 4H78.8769C80.7124 4 82.3123 5.24919 82.7575 7.02986L85.7575 19.0299C85.9167 19.6668 85.9167 20.3332 85.7575 20.9701L82.7575 32.9701C82.3123 34.7508 80.7124 36 78.8769 36H7.772C4.97918 36 3.04606 33.2105 4.02668 30.5955L7.47332 21.4045C7.81289 20.499 7.81289 19.501 7.47331 18.5955L4.02668 9.40449Z" fill="white"/>
</svg>
