<svg width="300" height="300" viewBox="0 0 300 300" fill="none" xmlns="http://www.w3.org/2000/svg">
<path d="M17.1713 222.482C45.9123 170.831 27.8137 168.973 13.574 152.741C-0.0677077 137.197 -2.2728 113.485 1.89446 93.2769C6.07106 73.0683 21.6656 54.5415 42.0721 50.7785C72.9995 45.0736 101.498 72.6316 132.92 71.5167C148.916 70.9499 163.558 62.9965 178.788 58.0907C214.845 46.4673 259.022 54.337 282.259 84.1249C302.647 110.243 303.264 146.99 295.098 179.036C286.763 211.722 269.589 243.015 242.689 263.568C215.798 284.111 178.48 292.473 146.795 280.45C124.184 271.874 101.441 253.431 78.7738 261.84C71.3456 264.599 37.5871 280.143 22.4411 262.592C15.9192 255.038 11.3969 232.86 17.1713 222.482Z" fill="url(#paint0_linear_344_5346)"/>
<g filter="url(#filter0_dd_344_5346)">
<path d="M269.524 112.615V225.898C269.524 231.819 264.728 236.617 258.807 236.617H56.7803C50.8623 236.617 46.0629 231.819 46.0629 225.898V112.615C46.0629 110.709 46.5595 108.921 47.4315 107.37C49.2684 104.102 52.7671 101.893 56.7803 101.893H258.807C262.82 101.893 266.319 104.098 268.156 107.37C269.028 108.921 269.524 110.709 269.524 112.615Z" fill="url(#paint1_linear_344_5346)"/>
<path d="M261.873 123.758H53.7141V230.06H261.873V123.758Z" fill="url(#paint2_linear_344_5346)"/>
<path d="M268.156 107.37H47.4351C49.2719 104.102 52.7706 101.893 56.7838 101.893H258.81C262.824 101.893 266.322 104.099 268.159 107.37H268.156Z" fill="#47BCC2"/>
<path d="M253 104.5C253 105.33 252.33 106 251.5 106C250.67 106 250 105.33 250 104.5C250 103.67 250.67 103 251.5 103C252.33 103 253 103.67 253 104.5Z" fill="url(#paint3_linear_344_5346)"/>
<path d="M246 104.5C246 105.33 245.33 106 244.5 106C243.67 106 243 105.33 243 104.5C243 103.67 243.67 103 244.5 103C245.33 103 246 103.67 246 104.5Z" fill="url(#paint4_linear_344_5346)"/>
<path d="M239 104.5C239 105.33 238.33 106 237.5 106C236.67 106 236 105.33 236 104.5C236 103.67 236.67 103 237.5 103C238.33 103 239 103.67 239 104.5Z" fill="url(#paint5_linear_344_5346)"/>
<path d="M261.1 116.741C261.1 118.843 259.395 120.548 257.294 120.548C255.193 120.548 253.488 118.843 253.488 116.741C253.488 114.638 255.193 112.933 257.294 112.933C259.395 112.933 261.1 114.638 261.1 116.741Z" fill="#47BCC2"/>
<path d="M248.61 116.741C248.61 118.843 246.905 120.548 244.804 120.548C242.703 120.548 240.998 118.843 240.998 116.741C240.998 114.638 242.703 112.933 244.804 112.933C246.905 112.933 248.61 114.638 248.61 116.741Z" fill="#47BCC2"/>
<path d="M218.989 119.776H66.6184C64.9423 119.776 63.5844 118.417 63.5844 116.74C63.5844 115.064 64.9423 113.705 66.6184 113.705H218.989C220.665 113.705 222.023 115.064 222.023 116.74C222.023 118.417 220.665 119.776 218.989 119.776Z" fill="#47BCC2"/>
</g>
<rect x="81.8052" y="148.006" width="54" height="54" rx="8" fill="url(#paint6_linear_344_5346)"/>
<path d="M96.8052 163.006H107.472V173.673H96.8052V163.006ZM96.8052 176.34H107.472V187.006H96.8052V176.34ZM110.139 163.006H120.805V173.673H110.139V163.006ZM110.139 176.34H120.805V187.006H110.139V176.34Z" fill="url(#paint7_linear_344_5346)"/>
<rect x="161.805" y="149.006" width="52" height="52" rx="7" stroke="#ABEBEA" stroke-width="2" stroke-dasharray="4 4"/>
<path d="M186.472 173.673V165.673H189.139V173.673H197.139V176.34H189.139V184.34H186.472V176.34H178.472V173.673H186.472Z" fill="#ABEBEA"/>
<path d="M238.543 177.006C261.543 170.506 279.719 146.341 272.043 125.506C265.043 106.506 225.991 102.943 232.543 76.0063C237.043 57.5063 259.21 59.8397 265.043 59.0063" stroke="#75D5D6" stroke-width="1.5" stroke-dasharray="4 4"/>
<g filter="url(#filter1_dd_344_5346)">
<path d="M222.816 221.428C237.181 223.014 250.021 212.762 251.495 198.528C252.968 184.295 242.517 171.47 228.152 169.884C213.787 168.298 200.947 178.551 199.473 192.784C198 207.018 208.451 219.842 222.816 221.428Z" fill="#75D5D6"/>
<path d="M239.823 193.489L228.071 193.199L228.26 181.545C228.285 180.151 227.175 178.987 225.751 178.957C224.345 178.921 223.188 180.029 223.164 181.423L222.974 193.077L211.221 192.786C209.815 192.75 208.658 193.858 208.633 195.252C208.608 196.57 209.621 197.681 210.922 197.824C210.998 197.833 211.065 197.84 211.142 197.84L222.895 198.13L222.705 209.784C222.68 211.102 223.693 212.213 224.994 212.356C225.07 212.365 225.137 212.372 225.214 212.372C226.62 212.409 227.777 211.301 227.802 209.907L227.992 198.253L239.744 198.543C241.15 198.58 242.308 197.472 242.332 196.078C242.357 194.683 241.23 193.518 239.823 193.489Z" fill="url(#paint8_linear_344_5346)"/>
</g>
<path d="M269.59 58.0998C270.51 55.713 272.359 53.7084 274.685 52.5995C275.74 52.0926 277.223 51.8607 277.957 52.8046C278.362 53.3236 278.367 54.0605 278.122 54.6491C277.877 55.2377 277.404 55.7031 276.898 56.1077C274.945 57.6749 272.366 58.4763 269.592 58.0929L269.59 58.0998Z" fill="#47BCC2"/>
<path d="M270.054 58.6046C272.644 58.5585 275.268 59.497 277.262 61.1844C278.17 61.949 279 63.1994 278.433 64.2004C278.12 64.7557 277.443 65.031 276.795 65.0211C276.148 65.0112 275.516 64.7568 274.935 64.4526C272.666 63.2652 270.853 61.2358 270.047 58.6018L270.054 58.6046Z" fill="#47BCC2"/>
<path d="M264.731 58.793C264.882 61.8117 266.587 64.2222 268.539 64.1769C270.491 64.1316 271.951 61.6477 271.8 58.629C271.65 55.6103 269.945 53.1998 267.993 53.2451C266.04 53.2904 264.58 55.7743 264.731 58.793Z" fill="#ABEBEA"/>
<defs>
<filter id="filter0_dd_344_5346" x="30.8342" y="101.893" width="253.919" height="165.181" filterUnits="userSpaceOnUse" color-interpolation-filters="sRGB">
<feFlood flood-opacity="0" result="BackgroundImageFix"/>
<feColorMatrix in="SourceAlpha" type="matrix" values="0 0 0 0 0 0 0 0 0 0 0 0 0 0 0 0 0 0 127 0" result="hardAlpha"/>
<feMorphology radius="3.04573" operator="erode" in="SourceAlpha" result="effect1_dropShadow_344_5346"/>
<feOffset dy="6.09145"/>
<feGaussianBlur stdDeviation="3.04573"/>
<feComposite in2="hardAlpha" operator="out"/>
<feColorMatrix type="matrix" values="0 0 0 0 0.0901961 0 0 0 0 0.219608 0 0 0 0 0.482353 0 0 0 0.03 0"/>
<feBlend mode="normal" in2="BackgroundImageFix" result="effect1_dropShadow_344_5346"/>
<feColorMatrix in="SourceAlpha" type="matrix" values="0 0 0 0 0 0 0 0 0 0 0 0 0 0 0 0 0 0 127 0" result="hardAlpha"/>
<feMorphology radius="3.04573" operator="erode" in="SourceAlpha" result="effect2_dropShadow_344_5346"/>
<feOffset dy="15.2286"/>
<feGaussianBlur stdDeviation="9.13718"/>
<feComposite in2="hardAlpha" operator="out"/>
<feColorMatrix type="matrix" values="0 0 0 0 0.0902477 0 0 0 0 0.2203 0 0 0 0 0.480404 0 0 0 0.08 0"/>
<feBlend mode="normal" in2="effect1_dropShadow_344_5346" result="effect2_dropShadow_344_5346"/>
<feBlend mode="normal" in="SourceGraphic" in2="effect2_dropShadow_344_5346" result="shape"/>
</filter>
<filter id="filter1_dd_344_5346" x="185.8" y="169.722" width="79.3674" height="78.9368" filterUnits="userSpaceOnUse" color-interpolation-filters="sRGB">
<feFlood flood-opacity="0" result="BackgroundImageFix"/>
<feColorMatrix in="SourceAlpha" type="matrix" values="0 0 0 0 0 0 0 0 0 0 0 0 0 0 0 0 0 0 127 0" result="hardAlpha"/>
<feMorphology radius="2.70691" operator="erode" in="SourceAlpha" result="effect1_dropShadow_344_5346"/>
<feOffset dy="5.41381"/>
<feGaussianBlur stdDeviation="2.70691"/>
<feComposite in2="hardAlpha" operator="out"/>
<feColorMatrix type="matrix" values="0 0 0 0 0 0 0 0 0 0.294118 0 0 0 0 0.376471 0 0 0 0.03 0"/>
<feBlend mode="normal" in2="BackgroundImageFix" result="effect1_dropShadow_344_5346"/>
<feColorMatrix in="SourceAlpha" type="matrix" values="0 0 0 0 0 0 0 0 0 0 0 0 0 0 0 0 0 0 127 0" result="hardAlpha"/>
<feMorphology radius="2.70691" operator="erode" in="SourceAlpha" result="effect2_dropShadow_344_5346"/>
<feOffset dy="13.5345"/>
<feGaussianBlur stdDeviation="8.12072"/>
<feComposite in2="hardAlpha" operator="out"/>
<feColorMatrix type="matrix" values="0 0 0 0 0 0 0 0 0 0.294118 0 0 0 0 0.376471 0 0 0 0.08 0"/>
<feBlend mode="normal" in2="effect1_dropShadow_344_5346" result="effect2_dropShadow_344_5346"/>
<feBlend mode="normal" in="SourceGraphic" in2="effect2_dropShadow_344_5346" result="shape"/>
</filter>
<linearGradient id="paint0_linear_344_5346" x1="177.041" y1="329.861" x2="137.11" y2="36.196" gradientUnits="userSpaceOnUse">
<stop stop-color="white"/>
<stop offset="0.1" stop-color="#F0FFFE"/>
<stop offset="0.24" stop-color="#CAF5F5"/>
<stop offset="0.25" stop-color="#CAF5F5"/>
<stop offset="0.26" stop-color="#D2F5F5"/>
<stop offset="0.45" stop-color="#E8FFFE"/>
<stop offset="0.64" stop-color="#ECFFFE"/>
<stop offset="0.82" stop-color="#EBFFFE"/>
<stop offset="1" stop-color="white"/>
</linearGradient>
<linearGradient id="paint1_linear_344_5346" x1="46.0664" y1="169.256" x2="269.524" y2="169.256" gradientUnits="userSpaceOnUse">
<stop stop-color="white"/>
<stop offset="0.78" stop-color="#D9FBFB"/>
<stop offset="0.81" stop-color="#D9FBFB" stop-opacity="0.996078"/>
<stop offset="1" stop-color="#D9FBFB"/>
</linearGradient>
<linearGradient id="paint2_linear_344_5346" x1="203.248" y1="109.736" x2="192.055" y2="237.886" gradientUnits="userSpaceOnUse">
<stop stop-color="white"/>
<stop offset="0.78" stop-color="#D9FBFB"/>
<stop offset="0.81" stop-color="#D9FBFB"/>
<stop offset="1" stop-color="#D9FBFB"/>
</linearGradient>
<linearGradient id="paint3_linear_344_5346" x1="249.996" y1="104.5" x2="253" y2="104.5" gradientUnits="userSpaceOnUse">
<stop stop-color="white"/>
<stop offset="0.78" stop-color="#D9FBFB"/>
</linearGradient>
<linearGradient id="paint4_linear_344_5346" x1="242.996" y1="104.5" x2="246" y2="104.5" gradientUnits="userSpaceOnUse">
<stop stop-color="white"/>
<stop offset="0.78" stop-color="#D9FBFB"/>
</linearGradient>
<linearGradient id="paint5_linear_344_5346" x1="235.996" y1="104.5" x2="239" y2="104.5" gradientUnits="userSpaceOnUse">
<stop stop-color="white"/>
<stop offset="0.78" stop-color="#D9FBFB"/>
</linearGradient>
<linearGradient id="paint6_linear_344_5346" x1="108.805" y1="148.006" x2="108.805" y2="202.006" gradientUnits="userSpaceOnUse">
<stop stop-color="#C8F4F4"/>
<stop offset="1" stop-color="#ABEBEA"/>
</linearGradient>
<linearGradient id="paint7_linear_344_5346" x1="108.805" y1="163.006" x2="116.025" y2="187.914" gradientUnits="userSpaceOnUse">
<stop stop-color="white"/>
<stop offset="0.78" stop-color="#E8FFFE"/>
</linearGradient>
<linearGradient id="paint8_linear_344_5346" x1="208.776" y1="193.805" x2="242.259" y2="197.272" gradientUnits="userSpaceOnUse">
<stop stop-color="white"/>
<stop offset="0.78" stop-color="#E8FFFE"/>
</linearGradient>
</defs>
</svg>
