<svg xmlns="http://www.w3.org/2000/svg" width="24" height="24" viewBox="0 0 24 24" fill="none">
  <path fill-rule="evenodd" clip-rule="evenodd" d="M2 5C2 3.89543 2.89543 3 4 3H20C21.1046 3 22 3.89543 22 5V19C22 20.1046 21.1046 21 20 21H4C2.89543 21 2 20.1046 2 19V5ZM20 5L4 5V19H20V5ZM10 9.5H5.5V7.5H10V9.5ZM10 13H5.5V11H10V13ZM8 16.5H5.5V14.5H8V16.5Z" fill="#19BBFF"/>
  <path d="M12 16.5H10C10 14.6631 11.1007 13.0832 12.6785 12.3839C11.9621 11.8357 11.5 10.9718 11.5 10C11.5 8.34315 12.8431 7 14.5 7C16.1569 7 17.5 8.34315 17.5 10C17.5 10.9718 17.0379 11.8357 16.3215 12.3839C17.8993 13.0832 19 14.6631 19 16.5H17H12Z" fill="#0081CC"/>
</svg>