<svg width="16" height="16" viewBox="0 0 16 16" fill="none" xmlns="http://www.w3.org/2000/svg">
    <g clip-path="url(#clip0_2770_15687)">
        <path
            d="M8.00016 14.6663C11.6822 14.6663 14.6668 11.6817 14.6668 7.99967C14.6668 4.31767 11.6822 1.33301 8.00016 1.33301C4.31816 1.33301 1.3335 4.31767 1.3335 7.99967C1.3335 11.6817 4.31816 14.6663 8.00016 14.6663Z"
            stroke="#4E5969" stroke-width="1.33333" stroke-linejoin="round" />
        <path d="M5 11L6.5 6.5L11 5L9.5 9.5L5 11Z" fill="#4E5969" stroke="#4E5969" stroke-width="1.33333"
            stroke-linejoin="round" />
        <path fill-rule="evenodd" clip-rule="evenodd"
            d="M8.00016 8.66634C8.17697 8.66634 8.34654 8.5961 8.47157 8.47108C8.59659 8.34605 8.66683 8.17649 8.66683 7.99967C8.66683 7.82286 8.59659 7.65329 8.47157 7.52827C8.34654 7.40325 8.17697 7.33301 8.00016 7.33301C7.82335 7.33301 7.65378 7.40325 7.52876 7.52827C7.40373 7.65329 7.3335 7.82286 7.3335 7.99967C7.3335 8.17649 7.40373 8.34605 7.52876 8.47108C7.65378 8.5961 7.82335 8.66634 8.00016 8.66634Z"
            fill="#4E5969" />
    </g>
    <defs>
        <clipPath id="clip0_2770_15687">
            <rect width="16" height="16" fill="white" />
        </clipPath>
    </defs>
</svg>