<svg width="20" height="20" viewBox="0 0 20 20" fill="none" xmlns="http://www.w3.org/2000/svg">
<path fill-rule="evenodd" clip-rule="evenodd" d="M17.4993 2.5C17.9596 2.5 18.3327 2.8731 18.3327 3.33333V15C18.3327 15.4602 17.9596 15.8333 17.4993 15.8333H13.1268L14.4997 17.6636C14.6378 17.8477 14.5999 18.109 14.4159 18.2471C14.3438 18.3012 14.2562 18.3309 14.166 18.3309H5.83268C5.60265 18.3309 5.41616 18.1442 5.41602 17.9142C5.41602 17.8241 5.44493 17.7357 5.49902 17.6636L6.87191 15.8333H2.49935C2.03911 15.8333 1.66602 15.4602 1.66602 15V3.33333C1.66602 2.8731 2.03911 2.5 2.49935 2.5H17.4993ZM12.3309 7.32992L10.2891 9.37093L8.52148 7.60335L4.98633 11.1393L6.16471 12.3177L8.52148 9.96094L10.2891 11.7285L13.5093 8.5083L15.0034 10.0024V5.83577H10.8368L12.3309 7.32992Z" fill="#4E5969"/>
</svg>
