<svg width="232" height="130" viewBox="0 0 232 130" fill="none" xmlns="http://www.w3.org/2000/svg">
<rect width="232" height="130" rx="8" fill="white"/>
<path d="M23.248 23.004H24.48V33H22.842V24.978C22.24 25.524 21.484 25.93 20.56 26.196V24.572C21.008 24.46 21.484 24.264 21.988 23.984C22.492 23.676 22.912 23.354 23.248 23.004ZM27.6742 30.886C28.0522 30.886 28.3742 31.04 28.6262 31.348C28.8642 31.656 28.9902 32.062 28.9902 32.552C28.9902 33.294 28.7662 33.938 28.3462 34.498C27.9122 35.044 27.3242 35.422 26.5962 35.632V34.708C26.9742 34.568 27.2962 34.344 27.5622 34.036C27.8142 33.7 27.9262 33.378 27.9262 33.042C27.8422 33.07 27.7302 33.098 27.5762 33.098C27.2682 33.098 27.0162 32.986 26.8062 32.776C26.5962 32.566 26.4982 32.3 26.4982 31.992C26.4982 31.656 26.6102 31.39 26.8342 31.194C27.0442 30.984 27.3242 30.886 27.6742 30.886ZM33.9517 22.808C34.9177 22.808 35.7157 23.088 36.3457 23.648C36.9617 24.208 37.2697 24.922 37.2697 25.818C37.2697 26.686 36.9337 27.47 36.2897 28.184C35.8977 28.604 35.1977 29.136 34.2177 29.794C33.1957 30.466 32.5797 31.054 32.3557 31.558H37.2837V33H30.3117C30.3117 31.978 30.6337 31.096 31.3057 30.34C31.6697 29.92 32.4397 29.304 33.6017 28.506C34.2457 28.058 34.6937 27.68 34.9737 27.386C35.4077 26.896 35.6317 26.364 35.6317 25.804C35.6317 25.258 35.4777 24.852 35.1977 24.586C34.9037 24.32 34.4697 24.194 33.8957 24.194C33.2797 24.194 32.8177 24.404 32.5097 24.824C32.2017 25.216 32.0337 25.818 32.0057 26.602H30.3677C30.3817 25.482 30.7037 24.586 31.3477 23.9C32.0057 23.172 32.8737 22.808 33.9517 22.808ZM39.2802 23.004H45.3702V24.446H40.5962L40.3162 27.19H40.3582C40.6662 26.882 41.0162 26.658 41.4222 26.518C41.7862 26.378 42.1922 26.308 42.6402 26.308C43.5782 26.308 44.3482 26.616 44.9362 27.232C45.5242 27.848 45.8322 28.702 45.8322 29.78C45.8322 30.816 45.4402 31.656 44.6562 32.314C43.9282 32.902 43.0742 33.196 42.0802 33.196C41.1702 33.196 40.3862 32.944 39.7422 32.454C39.0142 31.908 38.6222 31.166 38.5522 30.242H40.1622C40.2322 30.788 40.4422 31.194 40.8062 31.46C41.1142 31.684 41.5482 31.81 42.0942 31.81C42.6822 31.81 43.1862 31.628 43.5922 31.264C43.9842 30.9 44.1942 30.41 44.1942 29.794C44.1942 29.122 44.0122 28.59 43.6762 28.212C43.3402 27.82 42.8362 27.638 42.1922 27.638C41.7582 27.638 41.3802 27.708 41.0722 27.862C40.7222 28.03 40.4562 28.282 40.2602 28.632H38.7342L39.2802 23.004ZM50.7267 22.808C52.6867 22.808 53.7927 23.718 54.0447 25.538H52.4487C52.2527 24.614 51.6647 24.152 50.7127 24.152C50.0407 24.152 49.5087 24.474 49.1167 25.132C48.7247 25.748 48.5427 26.518 48.5427 27.442V27.568H48.6127C48.8927 27.148 49.2427 26.854 49.6627 26.658C50.0547 26.462 50.5027 26.378 51.0067 26.378C51.9867 26.378 52.7707 26.686 53.3587 27.316C53.9467 27.946 54.2407 28.758 54.2407 29.738C54.2407 30.746 53.8907 31.572 53.2187 32.216C52.5467 32.86 51.7067 33.196 50.7127 33.196C49.4807 33.196 48.5427 32.748 47.8987 31.866C47.2547 30.998 46.9467 29.808 46.9467 28.282C46.9467 26.644 47.2827 25.328 47.9687 24.32C48.6407 23.312 49.5647 22.808 50.7267 22.808ZM50.6567 27.708C50.0407 27.708 49.5647 27.89 49.2287 28.268C48.8787 28.632 48.7107 29.15 48.7107 29.794C48.7107 30.424 48.8927 30.928 49.2567 31.292C49.6207 31.656 50.0827 31.838 50.6567 31.838C51.2447 31.838 51.7067 31.642 52.0707 31.25C52.4347 30.858 52.6167 30.354 52.6167 29.738C52.6167 29.122 52.4347 28.632 52.0987 28.268C51.7347 27.89 51.2587 27.708 50.6567 27.708Z" fill="#1D2129"/>
<path d="M25.08 43.9V44.52C25.08 44.76 25.21 44.88 25.47 44.88H28C28.22 44.88 28.38 44.83 28.48 44.73C28.6 44.6 28.69 44.22 28.73 43.58L29.39 43.79C29.32 44.63 29.18 45.13 28.98 45.31C28.8 45.47 28.51 45.55 28.13 45.55H25.26C24.68 45.55 24.39 45.25 24.39 44.67V41.89H25.08V43.26C26.29 43.02 27.47 42.66 28.63 42.18L29.03 42.75C27.65 43.27 26.33 43.65 25.08 43.9ZM21.81 50.91H20.75L20.6 50.22C20.94 50.25 21.26 50.27 21.56 50.27C21.82 50.27 21.95 50.12 21.95 49.84V47.45C21.51 47.6 21.06 47.74 20.61 47.86L20.44 47.14C20.95 47.03 21.45 46.89 21.95 46.73V44.44H20.6V43.75H21.95V41.87H22.64V43.75H23.75V44.44H22.64V46.49C23.06 46.32 23.46 46.14 23.86 45.95V46.68C23.46 46.86 23.05 47.04 22.64 47.2V50.02C22.64 50.61 22.36 50.91 21.81 50.91ZM29.03 46.32V51H28.31V50.49H25.18V51H24.47V46.32H29.03ZM25.18 49.85H28.31V48.71H25.18V49.85ZM25.18 48.07H28.31V46.95H25.18V48.07ZM31.91 41.86H32.62V43.75H33.78V44.44H32.62V45.21C33.11 45.71 33.6 46.27 34.09 46.88L33.68 47.49C33.27 46.86 32.92 46.36 32.62 45.98V50.99H31.91V46.01C31.59 46.95 31.18 47.81 30.68 48.59L30.37 47.81C31.09 46.83 31.6 45.7 31.91 44.44H30.69V43.75H31.91V41.86ZM34.86 46.38L35.52 46.53C35.2 47.93 34.73 49.13 34.13 50.15L33.51 49.75C34.13 48.74 34.58 47.62 34.86 46.38ZM38.48 46.33C38.9 47.46 39.26 48.67 39.56 49.95L38.91 50.24C38.58 48.85 38.22 47.62 37.83 46.54L38.48 46.33ZM36.24 50.89H35.22L35.08 50.22C35.4 50.24 35.7 50.26 35.99 50.26C36.26 50.26 36.4 50.11 36.4 49.82V45.55H33.96V44.86H39.57V45.55H37.12V50C37.12 50.59 36.82 50.89 36.24 50.89ZM34.49 42.43H39.05V43.11H34.49V42.43ZM41.91 41.86H42.62V43.75H43.78V44.44H42.62V45.21C43.11 45.71 43.6 46.27 44.09 46.88L43.68 47.49C43.27 46.86 42.92 46.36 42.62 45.98V50.99H41.91V46.01C41.59 46.95 41.18 47.81 40.68 48.59L40.37 47.81C41.09 46.83 41.6 45.7 41.91 44.44H40.69V43.75H41.91V41.86ZM44.86 46.38L45.52 46.53C45.2 47.93 44.73 49.13 44.13 50.15L43.51 49.75C44.13 48.74 44.58 47.62 44.86 46.38ZM48.48 46.33C48.9 47.46 49.26 48.67 49.56 49.95L48.91 50.24C48.58 48.85 48.22 47.62 47.83 46.54L48.48 46.33ZM46.24 50.89H45.22L45.08 50.22C45.4 50.24 45.7 50.26 45.99 50.26C46.26 50.26 46.4 50.11 46.4 49.82V45.55H43.96V44.86H49.57V45.55H47.12V50C47.12 50.59 46.82 50.89 46.24 50.89ZM44.49 42.43H49.05V43.11H44.49V42.43ZM57.35 50.16C58.35 50.16 59.1 50.14 59.6 50.12L59.48 50.84H57.51C55.11 50.84 53.62 50.71 53.02 50.45C52.49 50.23 52.02 49.82 51.61 49.24C51.43 49.88 51.18 50.47 50.86 51.01L50.34 50.55C50.88 49.64 51.17 48.62 51.22 47.48L51.86 47.56C51.84 47.9 51.81 48.21 51.76 48.51C52.02 48.92 52.31 49.24 52.62 49.47V47.04H50.64V46.38H54.88V47.04H53.26V48.1H54.63V48.74H53.26V49.83C53.32 49.85 53.37 49.87 53.41 49.89C53.99 50.07 55.3 50.16 57.35 50.16ZM51.09 42.22H54.5V45.71H51.09V42.22ZM53.8 45.11V44.26H51.79V45.11H53.8ZM51.79 43.7H53.8V42.82H51.79V43.7ZM55.02 42.23H59.34V42.89H57.54C57.51 43.17 57.47 43.43 57.41 43.69H59.06V47.73H58.39V44.31H55.97V47.73H55.33V43.69H56.76C56.82 43.43 56.86 43.16 56.89 42.89H55.02V42.23ZM57.9 47.76C58.52 48.24 59.04 48.72 59.46 49.2L58.95 49.7C58.58 49.24 58.07 48.74 57.42 48.22L57.9 47.76ZM56.85 44.78H57.51V46.19C57.49 47.14 57.3 47.9 56.96 48.47C56.62 49 56.06 49.41 55.3 49.71L54.91 49.09C55.63 48.83 56.13 48.47 56.42 48.02C56.68 47.55 56.83 46.94 56.85 46.19V44.78Z" fill="#4E5969"/>
<mask id="path-5-outside-1_12239_22184" maskUnits="userSpaceOnUse" x="69.001" y="23.4258" width="14" height="9" fill="black">
<rect fill="white" x="69.001" y="23.4258" width="14" height="9"/>
<path d="M82 28.8662H81.1934V25.8047L81.1885 25.7998L77.0303 29.959L76.7441 30.2441L74.3223 27.8223L70.5713 31.5732L70.001 31.0029L74.0371 26.9658L74.3223 26.6807L74.6084 26.9658L76.7441 29.1016L80.6143 25.2334H77.5605V24.4258H82V28.8662Z"/>
</mask>
<path d="M82 28.8662H81.1934V25.8047L81.1885 25.7998L77.0303 29.959L76.7441 30.2441L74.3223 27.8223L70.5713 31.5732L70.001 31.0029L74.0371 26.9658L74.3223 26.6807L74.6084 26.9658L76.7441 29.1016L80.6143 25.2334H77.5605V24.4258H82V28.8662Z" fill="#F53F3F"/>
<path d="M82 28.8662V29.0662H82.2V28.8662H82ZM81.1934 28.8662H80.9934V29.0662H81.1934V28.8662ZM81.1934 25.8047H81.3934V25.7218L81.3348 25.6633L81.1934 25.8047ZM81.1885 25.7998L81.3299 25.6584L81.1885 25.5169L81.047 25.6584L81.1885 25.7998ZM77.0303 29.959L77.1715 30.1006L77.1717 30.1004L77.0303 29.959ZM76.7441 30.2441L76.6027 30.3856L76.7439 30.5267L76.8853 30.3858L76.7441 30.2441ZM74.3223 27.8223L74.4637 27.6808L74.3223 27.5394L74.1808 27.6808L74.3223 27.8223ZM70.5713 31.5732L70.4299 31.7147L70.5713 31.8561L70.7127 31.7147L70.5713 31.5732ZM70.001 31.0029L69.8595 30.8615L69.7182 31.0029L69.8596 31.1444L70.001 31.0029ZM74.0371 26.9658L73.8957 26.8244L73.8957 26.8244L74.0371 26.9658ZM74.3223 26.6807L74.4634 26.539L74.322 26.3981L74.1808 26.5392L74.3223 26.6807ZM74.6084 26.9658L74.7498 26.8244L74.7496 26.8242L74.6084 26.9658ZM76.7441 29.1016L76.6027 29.243L76.7441 29.3844L76.8855 29.243L76.7441 29.1016ZM80.6143 25.2334L80.7556 25.3749L81.0973 25.0334H80.6143V25.2334ZM77.5605 25.2334H77.3605V25.4334H77.5605V25.2334ZM77.5605 24.4258V24.2258H77.3605V24.4258H77.5605ZM82 24.4258H82.2V24.2258H82V24.4258ZM82 28.8662V28.6662H81.1934V28.8662V29.0662H82V28.8662ZM81.1934 28.8662H81.3934V25.8047H81.1934H80.9934V28.8662H81.1934ZM81.1934 25.8047L81.3348 25.6633L81.3299 25.6584L81.1885 25.7998L81.0471 25.9412L81.0519 25.9461L81.1934 25.8047ZM81.1885 25.7998L81.047 25.6584L76.8888 29.8176L77.0303 29.959L77.1717 30.1004L81.3299 25.9412L81.1885 25.7998ZM77.0303 29.959L76.8891 29.8173L76.603 30.1025L76.7441 30.2441L76.8853 30.3858L77.1715 30.1006L77.0303 29.959ZM76.7441 30.2441L76.8856 30.1027L74.4637 27.6808L74.3223 27.8223L74.1808 27.9637L76.6027 30.3856L76.7441 30.2441ZM74.3223 27.8223L74.1808 27.6808L70.4299 31.4318L70.5713 31.5732L70.7127 31.7147L74.4637 27.9637L74.3223 27.8223ZM70.5713 31.5732L70.7127 31.4318L70.1424 30.8615L70.001 31.0029L69.8596 31.1444L70.4299 31.7147L70.5713 31.5732ZM70.001 31.0029L70.1424 31.1443L74.1785 27.1072L74.0371 26.9658L73.8957 26.8244L69.8595 30.8615L70.001 31.0029ZM74.0371 26.9658L74.1785 27.1072L74.4637 26.8221L74.3223 26.6807L74.1808 26.5392L73.8957 26.8244L74.0371 26.9658ZM74.3223 26.6807L74.1811 26.8223L74.4672 27.1075L74.6084 26.9658L74.7496 26.8242L74.4634 26.539L74.3223 26.6807ZM74.6084 26.9658L74.467 27.1072L76.6027 29.243L76.7441 29.1016L76.8856 28.9601L74.7498 26.8244L74.6084 26.9658ZM76.7441 29.1016L76.8855 29.243L80.7556 25.3749L80.6143 25.2334L80.4729 25.0919L76.6028 28.9601L76.7441 29.1016ZM80.6143 25.2334V25.0334H77.5605V25.2334V25.4334H80.6143V25.2334ZM77.5605 25.2334H77.7605V24.4258H77.5605H77.3605V25.2334H77.5605ZM77.5605 24.4258V24.6258H82V24.4258V24.2258H77.5605V24.4258ZM82 24.4258H81.8V28.8662H82H82.2V24.4258H82Z" fill="#F53F3F" mask="url(#path-5-outside-1_12239_22184)"/>
<path d="M90.763 24.448C91.411 24.448 91.924 24.601 92.32 24.916C92.698 25.231 92.896 25.663 92.896 26.212C92.896 26.914 92.536 27.391 91.834 27.625C92.212 27.742 92.5 27.922 92.698 28.156C92.914 28.399 93.022 28.714 93.022 29.092C93.022 29.686 92.815 30.172 92.41 30.55C91.978 30.928 91.411 31.126 90.727 31.126C90.07 31.126 89.539 30.955 89.143 30.622C88.693 30.244 88.441 29.695 88.387 28.975H89.377C89.395 29.407 89.53 29.74 89.8 29.974C90.034 30.19 90.34 30.298 90.718 30.298C91.132 30.298 91.465 30.172 91.717 29.938C91.933 29.722 92.05 29.461 92.05 29.137C92.05 28.759 91.933 28.48 91.699 28.3C91.483 28.12 91.159 28.03 90.736 28.03H90.268V27.292H90.727C91.123 27.292 91.42 27.202 91.618 27.031C91.816 26.86 91.924 26.608 91.924 26.284C91.924 25.96 91.825 25.717 91.645 25.546C91.447 25.366 91.15 25.285 90.772 25.285C90.385 25.285 90.079 25.384 89.863 25.582C89.647 25.78 89.512 26.077 89.476 26.473H88.513C88.567 25.834 88.801 25.339 89.224 24.979C89.62 24.619 90.133 24.448 90.763 24.448ZM100.173 27.481C100.668 27.481 101.046 27.652 101.316 28.012C101.55 28.318 101.676 28.732 101.676 29.245C101.676 29.749 101.55 30.163 101.316 30.478C101.046 30.82 100.668 31 100.173 31C99.6695 31 99.2825 30.82 99.0125 30.478C98.7695 30.154 98.6525 29.749 98.6525 29.245C98.6525 28.732 98.7695 28.318 99.0125 28.012C99.2825 27.652 99.6695 27.481 100.173 27.481ZM99.2825 24.448H100.02L96.4115 31.126H95.6825L99.2825 24.448ZM95.5475 24.574C96.0425 24.574 96.4205 24.745 96.6905 25.105C96.9245 25.411 97.0505 25.825 97.0505 26.338C97.0505 26.842 96.9245 27.256 96.6905 27.571C96.4205 27.913 96.0425 28.093 95.5475 28.093C95.0435 28.093 94.6565 27.913 94.3865 27.571C94.1435 27.247 94.0265 26.842 94.0265 26.338C94.0265 25.825 94.1435 25.411 94.3865 25.105C94.6565 24.745 95.0435 24.574 95.5475 24.574ZM100.173 28.102C99.9395 28.102 99.7685 28.219 99.6605 28.453C99.5795 28.642 99.5435 28.903 99.5435 29.245C99.5435 29.569 99.5795 29.83 99.6605 30.028C99.7685 30.262 99.9395 30.379 100.173 30.379C100.398 30.379 100.56 30.253 100.668 30.01C100.74 29.821 100.785 29.569 100.785 29.245C100.785 28.912 100.74 28.651 100.659 28.462C100.56 28.219 100.398 28.102 100.173 28.102ZM95.5475 25.195C95.3135 25.195 95.1425 25.312 95.0345 25.546C94.9535 25.735 94.9175 25.996 94.9175 26.338C94.9175 26.662 94.9535 26.923 95.0345 27.121C95.1425 27.355 95.3135 27.472 95.5475 27.472C95.7725 27.472 95.9345 27.346 96.0425 27.103C96.1145 26.914 96.1595 26.662 96.1595 26.338C96.1595 26.005 96.1145 25.744 96.0335 25.555C95.9345 25.312 95.7725 25.195 95.5475 25.195Z" fill="#F53F3F"/>
<rect x="70.501" y="40.5" width="21" height="11" rx="1.5" stroke="#E5E6EB"/>
<path d="M79.513 49.768H78.449L78.289 49.192L79.329 49.216C79.529 49.216 79.633 49.096 79.633 48.856V43.336H74.369V49.792H73.793V42.776H80.209V48.984C80.209 49.504 79.977 49.768 79.513 49.768ZM74.953 44.256H79.057V44.792H74.953V44.256ZM75.401 45.656H78.609V48.232H75.401V45.656ZM78.049 47.72V46.176H75.961V47.72H78.049ZM85.809 45.64V48.672C85.809 48.904 85.921 49.024 86.161 49.024H87.361C87.513 49.024 87.641 48.976 87.737 48.88C87.865 48.744 87.953 48.272 87.985 47.456L88.537 47.632C88.465 48.56 88.345 49.128 88.177 49.32C88.017 49.48 87.793 49.568 87.505 49.576H85.993C85.481 49.576 85.225 49.304 85.225 48.776V42.56H85.809V45.096C86.593 44.872 87.353 44.56 88.097 44.152L88.441 44.624C87.521 45.08 86.641 45.416 85.809 45.64ZM81.977 49.68L81.801 49.144C81.929 49.064 81.993 48.952 81.993 48.8V42.6H82.569V44.832H84.625V45.392H82.569V48.976C83.273 48.816 83.969 48.616 84.665 48.384L84.817 48.928C83.937 49.208 82.985 49.456 81.977 49.68Z" fill="#6B7785"/>
<path d="M132.248 23.004H133.48V33H131.842V24.978C131.24 25.524 130.484 25.93 129.56 26.196V24.572C130.008 24.46 130.484 24.264 130.988 23.984C131.492 23.676 131.912 23.354 132.248 23.004ZM136.674 30.886C137.052 30.886 137.374 31.04 137.626 31.348C137.864 31.656 137.99 32.062 137.99 32.552C137.99 33.294 137.766 33.938 137.346 34.498C136.912 35.044 136.324 35.422 135.596 35.632V34.708C135.974 34.568 136.296 34.344 136.562 34.036C136.814 33.7 136.926 33.378 136.926 33.042C136.842 33.07 136.73 33.098 136.576 33.098C136.268 33.098 136.016 32.986 135.806 32.776C135.596 32.566 135.498 32.3 135.498 31.992C135.498 31.656 135.61 31.39 135.834 31.194C136.044 30.984 136.324 30.886 136.674 30.886ZM142.952 22.808C143.918 22.808 144.716 23.088 145.346 23.648C145.962 24.208 146.27 24.922 146.27 25.818C146.27 26.686 145.934 27.47 145.29 28.184C144.898 28.604 144.198 29.136 143.218 29.794C142.196 30.466 141.58 31.054 141.356 31.558H146.284V33H139.312C139.312 31.978 139.634 31.096 140.306 30.34C140.67 29.92 141.44 29.304 142.602 28.506C143.246 28.058 143.694 27.68 143.974 27.386C144.408 26.896 144.632 26.364 144.632 25.804C144.632 25.258 144.478 24.852 144.198 24.586C143.904 24.32 143.47 24.194 142.896 24.194C142.28 24.194 141.818 24.404 141.51 24.824C141.202 25.216 141.034 25.818 141.006 26.602H139.368C139.382 25.482 139.704 24.586 140.348 23.9C141.006 23.172 141.874 22.808 142.952 22.808ZM148.28 23.004H154.37V24.446H149.596L149.316 27.19H149.358C149.666 26.882 150.016 26.658 150.422 26.518C150.786 26.378 151.192 26.308 151.64 26.308C152.578 26.308 153.348 26.616 153.936 27.232C154.524 27.848 154.832 28.702 154.832 29.78C154.832 30.816 154.44 31.656 153.656 32.314C152.928 32.902 152.074 33.196 151.08 33.196C150.17 33.196 149.386 32.944 148.742 32.454C148.014 31.908 147.622 31.166 147.552 30.242H149.162C149.232 30.788 149.442 31.194 149.806 31.46C150.114 31.684 150.548 31.81 151.094 31.81C151.682 31.81 152.186 31.628 152.592 31.264C152.984 30.9 153.194 30.41 153.194 29.794C153.194 29.122 153.012 28.59 152.676 28.212C152.34 27.82 151.836 27.638 151.192 27.638C150.758 27.638 150.38 27.708 150.072 27.862C149.722 28.03 149.456 28.282 149.26 28.632H147.734L148.28 23.004ZM159.727 22.808C161.687 22.808 162.793 23.718 163.045 25.538H161.449C161.253 24.614 160.665 24.152 159.713 24.152C159.041 24.152 158.509 24.474 158.117 25.132C157.725 25.748 157.543 26.518 157.543 27.442V27.568H157.613C157.893 27.148 158.243 26.854 158.663 26.658C159.055 26.462 159.503 26.378 160.007 26.378C160.987 26.378 161.771 26.686 162.359 27.316C162.947 27.946 163.241 28.758 163.241 29.738C163.241 30.746 162.891 31.572 162.219 32.216C161.547 32.86 160.707 33.196 159.713 33.196C158.481 33.196 157.543 32.748 156.899 31.866C156.255 30.998 155.947 29.808 155.947 28.282C155.947 26.644 156.283 25.328 156.969 24.32C157.641 23.312 158.565 22.808 159.727 22.808ZM159.657 27.708C159.041 27.708 158.565 27.89 158.229 28.268C157.879 28.632 157.711 29.15 157.711 29.794C157.711 30.424 157.893 30.928 158.257 31.292C158.621 31.656 159.083 31.838 159.657 31.838C160.245 31.838 160.707 31.642 161.071 31.25C161.435 30.858 161.617 30.354 161.617 29.738C161.617 29.122 161.435 28.632 161.099 28.268C160.735 27.89 160.259 27.708 159.657 27.708Z" fill="#1D2129"/>
<path d="M134.08 43.9V44.52C134.08 44.76 134.21 44.88 134.47 44.88H137C137.22 44.88 137.38 44.83 137.48 44.73C137.6 44.6 137.69 44.22 137.73 43.58L138.39 43.79C138.32 44.63 138.18 45.13 137.98 45.31C137.8 45.47 137.51 45.55 137.13 45.55H134.26C133.68 45.55 133.39 45.25 133.39 44.67V41.89H134.08V43.26C135.29 43.02 136.47 42.66 137.63 42.18L138.03 42.75C136.65 43.27 135.33 43.65 134.08 43.9ZM130.81 50.91H129.75L129.6 50.22C129.94 50.25 130.26 50.27 130.56 50.27C130.82 50.27 130.95 50.12 130.95 49.84V47.45C130.51 47.6 130.06 47.74 129.61 47.86L129.44 47.14C129.95 47.03 130.45 46.89 130.95 46.73V44.44H129.6V43.75H130.95V41.87H131.64V43.75H132.75V44.44H131.64V46.49C132.06 46.32 132.46 46.14 132.86 45.95V46.68C132.46 46.86 132.05 47.04 131.64 47.2V50.02C131.64 50.61 131.36 50.91 130.81 50.91ZM138.03 46.32V51H137.31V50.49H134.18V51H133.47V46.32H138.03ZM134.18 49.85H137.31V48.71H134.18V49.85ZM134.18 48.07H137.31V46.95H134.18V48.07ZM140.91 41.86H141.62V43.75H142.78V44.44H141.62V45.21C142.11 45.71 142.6 46.27 143.09 46.88L142.68 47.49C142.27 46.86 141.92 46.36 141.62 45.98V50.99H140.91V46.01C140.59 46.95 140.18 47.81 139.68 48.59L139.37 47.81C140.09 46.83 140.6 45.7 140.91 44.44H139.69V43.75H140.91V41.86ZM143.86 46.38L144.52 46.53C144.2 47.93 143.73 49.13 143.13 50.15L142.51 49.75C143.13 48.74 143.58 47.62 143.86 46.38ZM147.48 46.33C147.9 47.46 148.26 48.67 148.56 49.95L147.91 50.24C147.58 48.85 147.22 47.62 146.83 46.54L147.48 46.33ZM145.24 50.89H144.22L144.08 50.22C144.4 50.24 144.7 50.26 144.99 50.26C145.26 50.26 145.4 50.11 145.4 49.82V45.55H142.96V44.86H148.57V45.55H146.12V50C146.12 50.59 145.82 50.89 145.24 50.89ZM143.49 42.43H148.05V43.11H143.49V42.43ZM150.91 41.86H151.62V43.75H152.78V44.44H151.62V45.21C152.11 45.71 152.6 46.27 153.09 46.88L152.68 47.49C152.27 46.86 151.92 46.36 151.62 45.98V50.99H150.91V46.01C150.59 46.95 150.18 47.81 149.68 48.59L149.37 47.81C150.09 46.83 150.6 45.7 150.91 44.44H149.69V43.75H150.91V41.86ZM153.86 46.38L154.52 46.53C154.2 47.93 153.73 49.13 153.13 50.15L152.51 49.75C153.13 48.74 153.58 47.62 153.86 46.38ZM157.48 46.33C157.9 47.46 158.26 48.67 158.56 49.95L157.91 50.24C157.58 48.85 157.22 47.62 156.83 46.54L157.48 46.33ZM155.24 50.89H154.22L154.08 50.22C154.4 50.24 154.7 50.26 154.99 50.26C155.26 50.26 155.4 50.11 155.4 49.82V45.55H152.96V44.86H158.57V45.55H156.12V50C156.12 50.59 155.82 50.89 155.24 50.89ZM153.49 42.43H158.05V43.11H153.49V42.43ZM166.35 50.16C167.35 50.16 168.1 50.14 168.6 50.12L168.48 50.84H166.51C164.11 50.84 162.62 50.71 162.02 50.45C161.49 50.23 161.02 49.82 160.61 49.24C160.43 49.88 160.18 50.47 159.86 51.01L159.34 50.55C159.88 49.64 160.17 48.62 160.22 47.48L160.86 47.56C160.84 47.9 160.81 48.21 160.76 48.51C161.02 48.92 161.31 49.24 161.62 49.47V47.04H159.64V46.38H163.88V47.04H162.26V48.1H163.63V48.74H162.26V49.83C162.32 49.85 162.37 49.87 162.41 49.89C162.99 50.07 164.3 50.16 166.35 50.16ZM160.09 42.22H163.5V45.71H160.09V42.22ZM162.8 45.11V44.26H160.79V45.11H162.8ZM160.79 43.7H162.8V42.82H160.79V43.7ZM164.02 42.23H168.34V42.89H166.54C166.51 43.17 166.47 43.43 166.41 43.69H168.06V47.73H167.39V44.31H164.97V47.73H164.33V43.69H165.76C165.82 43.43 165.86 43.16 165.89 42.89H164.02V42.23ZM166.9 47.76C167.52 48.24 168.04 48.72 168.46 49.2L167.95 49.7C167.58 49.24 167.07 48.74 166.42 48.22L166.9 47.76ZM165.85 44.78H166.51V46.19C166.49 47.14 166.3 47.9 165.96 48.47C165.62 49 165.06 49.41 164.3 49.71L163.91 49.09C164.63 48.83 165.13 48.47 165.42 48.02C165.68 47.55 165.83 46.94 165.85 46.19V44.78Z" fill="#4E5969"/>
<mask id="path-13-outside-2_12239_22184" maskUnits="userSpaceOnUse" x="178.001" y="23.4258" width="14" height="9" fill="black">
<rect fill="white" x="178.001" y="23.4258" width="14" height="9"/>
<path d="M191 28.8662H190.193V25.8047L190.188 25.7998L186.03 29.959L185.744 30.2441L183.322 27.8223L179.571 31.5732L179.001 31.0029L183.037 26.9658L183.322 26.6807L183.608 26.9658L185.744 29.1016L189.614 25.2334H186.561V24.4258H191V28.8662Z"/>
</mask>
<path d="M191 28.8662H190.193V25.8047L190.188 25.7998L186.03 29.959L185.744 30.2441L183.322 27.8223L179.571 31.5732L179.001 31.0029L183.037 26.9658L183.322 26.6807L183.608 26.9658L185.744 29.1016L189.614 25.2334H186.561V24.4258H191V28.8662Z" fill="#F53F3F"/>
<path d="M191 28.8662V29.0662H191.2V28.8662H191ZM190.193 28.8662H189.993V29.0662H190.193V28.8662ZM190.193 25.8047H190.393V25.7218L190.335 25.6633L190.193 25.8047ZM190.188 25.7998L190.33 25.6584L190.188 25.5169L190.047 25.6584L190.188 25.7998ZM186.03 29.959L186.171 30.1006L186.172 30.1004L186.03 29.959ZM185.744 30.2441L185.603 30.3856L185.744 30.5267L185.885 30.3858L185.744 30.2441ZM183.322 27.8223L183.464 27.6808L183.322 27.5394L183.181 27.6808L183.322 27.8223ZM179.571 31.5732L179.43 31.7147L179.571 31.8561L179.713 31.7147L179.571 31.5732ZM179.001 31.0029L178.86 30.8615L178.718 31.0029L178.86 31.1444L179.001 31.0029ZM183.037 26.9658L182.896 26.8244L182.896 26.8244L183.037 26.9658ZM183.322 26.6807L183.463 26.539L183.322 26.3981L183.181 26.5392L183.322 26.6807ZM183.608 26.9658L183.75 26.8244L183.75 26.8242L183.608 26.9658ZM185.744 29.1016L185.603 29.243L185.744 29.3844L185.886 29.243L185.744 29.1016ZM189.614 25.2334L189.756 25.3749L190.097 25.0334H189.614V25.2334ZM186.561 25.2334H186.361V25.4334H186.561V25.2334ZM186.561 24.4258V24.2258H186.361V24.4258H186.561ZM191 24.4258H191.2V24.2258H191V24.4258ZM191 28.8662V28.6662H190.193V28.8662V29.0662H191V28.8662ZM190.193 28.8662H190.393V25.8047H190.193H189.993V28.8662H190.193ZM190.193 25.8047L190.335 25.6633L190.33 25.6584L190.188 25.7998L190.047 25.9412L190.052 25.9461L190.193 25.8047ZM190.188 25.7998L190.047 25.6584L185.889 29.8176L186.03 29.959L186.172 30.1004L190.33 25.9412L190.188 25.7998ZM186.03 29.959L185.889 29.8173L185.603 30.1025L185.744 30.2441L185.885 30.3858L186.171 30.1006L186.03 29.959ZM185.744 30.2441L185.886 30.1027L183.464 27.6808L183.322 27.8223L183.181 27.9637L185.603 30.3856L185.744 30.2441ZM183.322 27.8223L183.181 27.6808L179.43 31.4318L179.571 31.5732L179.713 31.7147L183.464 27.9637L183.322 27.8223ZM179.571 31.5732L179.713 31.4318L179.142 30.8615L179.001 31.0029L178.86 31.1444L179.43 31.7147L179.571 31.5732ZM179.001 31.0029L179.142 31.1443L183.179 27.1072L183.037 26.9658L182.896 26.8244L178.86 30.8615L179.001 31.0029ZM183.037 26.9658L183.179 27.1072L183.464 26.8221L183.322 26.6807L183.181 26.5392L182.896 26.8244L183.037 26.9658ZM183.322 26.6807L183.181 26.8223L183.467 27.1075L183.608 26.9658L183.75 26.8242L183.463 26.539L183.322 26.6807ZM183.608 26.9658L183.467 27.1072L185.603 29.243L185.744 29.1016L185.886 28.9601L183.75 26.8244L183.608 26.9658ZM185.744 29.1016L185.886 29.243L189.756 25.3749L189.614 25.2334L189.473 25.0919L185.603 28.9601L185.744 29.1016ZM189.614 25.2334V25.0334H186.561V25.2334V25.4334H189.614V25.2334ZM186.561 25.2334H186.761V24.4258H186.561H186.361V25.2334H186.561ZM186.561 24.4258V24.6258H191V24.4258V24.2258H186.561V24.4258ZM191 24.4258H190.8V28.8662H191H191.2V24.4258H191Z" fill="#F53F3F" mask="url(#path-13-outside-2_12239_22184)"/>
<path d="M199.763 24.448C200.411 24.448 200.924 24.601 201.32 24.916C201.698 25.231 201.896 25.663 201.896 26.212C201.896 26.914 201.536 27.391 200.834 27.625C201.212 27.742 201.5 27.922 201.698 28.156C201.914 28.399 202.022 28.714 202.022 29.092C202.022 29.686 201.815 30.172 201.41 30.55C200.978 30.928 200.411 31.126 199.727 31.126C199.07 31.126 198.539 30.955 198.143 30.622C197.693 30.244 197.441 29.695 197.387 28.975H198.377C198.395 29.407 198.53 29.74 198.8 29.974C199.034 30.19 199.34 30.298 199.718 30.298C200.132 30.298 200.465 30.172 200.717 29.938C200.933 29.722 201.05 29.461 201.05 29.137C201.05 28.759 200.933 28.48 200.699 28.3C200.483 28.12 200.159 28.03 199.736 28.03H199.268V27.292H199.727C200.123 27.292 200.42 27.202 200.618 27.031C200.816 26.86 200.924 26.608 200.924 26.284C200.924 25.96 200.825 25.717 200.645 25.546C200.447 25.366 200.15 25.285 199.772 25.285C199.385 25.285 199.079 25.384 198.863 25.582C198.647 25.78 198.512 26.077 198.476 26.473H197.513C197.567 25.834 197.801 25.339 198.224 24.979C198.62 24.619 199.133 24.448 199.763 24.448ZM209.173 27.481C209.668 27.481 210.046 27.652 210.316 28.012C210.55 28.318 210.676 28.732 210.676 29.245C210.676 29.749 210.55 30.163 210.316 30.478C210.046 30.82 209.668 31 209.173 31C208.669 31 208.282 30.82 208.012 30.478C207.769 30.154 207.652 29.749 207.652 29.245C207.652 28.732 207.769 28.318 208.012 28.012C208.282 27.652 208.669 27.481 209.173 27.481ZM208.282 24.448H209.02L205.411 31.126H204.682L208.282 24.448ZM204.547 24.574C205.042 24.574 205.42 24.745 205.69 25.105C205.924 25.411 206.05 25.825 206.05 26.338C206.05 26.842 205.924 27.256 205.69 27.571C205.42 27.913 205.042 28.093 204.547 28.093C204.043 28.093 203.656 27.913 203.386 27.571C203.143 27.247 203.026 26.842 203.026 26.338C203.026 25.825 203.143 25.411 203.386 25.105C203.656 24.745 204.043 24.574 204.547 24.574ZM209.173 28.102C208.939 28.102 208.768 28.219 208.66 28.453C208.579 28.642 208.543 28.903 208.543 29.245C208.543 29.569 208.579 29.83 208.66 30.028C208.768 30.262 208.939 30.379 209.173 30.379C209.398 30.379 209.56 30.253 209.668 30.01C209.74 29.821 209.785 29.569 209.785 29.245C209.785 28.912 209.74 28.651 209.659 28.462C209.56 28.219 209.398 28.102 209.173 28.102ZM204.547 25.195C204.313 25.195 204.142 25.312 204.034 25.546C203.953 25.735 203.917 25.996 203.917 26.338C203.917 26.662 203.953 26.923 204.034 27.121C204.142 27.355 204.313 27.472 204.547 27.472C204.772 27.472 204.934 27.346 205.042 27.103C205.114 26.914 205.159 26.662 205.159 26.338C205.159 26.005 205.114 25.744 205.033 25.555C204.934 25.312 204.772 25.195 204.547 25.195Z" fill="#F53F3F"/>
<rect x="179.501" y="40.5" width="21" height="11" rx="1.5" stroke="#E5E6EB"/>
<path d="M188.513 49.768H187.449L187.289 49.192L188.329 49.216C188.529 49.216 188.633 49.096 188.633 48.856V43.336H183.369V49.792H182.793V42.776H189.209V48.984C189.209 49.504 188.977 49.768 188.513 49.768ZM183.953 44.256H188.057V44.792H183.953V44.256ZM184.401 45.656H187.609V48.232H184.401V45.656ZM187.049 47.72V46.176H184.961V47.72H187.049ZM194.809 45.64V48.672C194.809 48.904 194.921 49.024 195.161 49.024H196.361C196.513 49.024 196.641 48.976 196.737 48.88C196.865 48.744 196.953 48.272 196.985 47.456L197.537 47.632C197.465 48.56 197.345 49.128 197.177 49.32C197.017 49.48 196.793 49.568 196.505 49.576H194.993C194.481 49.576 194.225 49.304 194.225 48.776V42.56H194.809V45.096C195.593 44.872 196.353 44.56 197.097 44.152L197.441 44.624C196.521 45.08 195.641 45.416 194.809 45.64ZM190.977 49.68L190.801 49.144C190.929 49.064 190.993 48.952 190.993 48.8V42.6H191.569V44.832H193.625V45.392H191.569V48.976C192.273 48.816 192.969 48.616 193.665 48.384L193.817 48.928C192.937 49.208 191.985 49.456 190.977 49.68Z" fill="#6B7785"/>
<path d="M23.248 81.004H24.48V91H22.842V82.978C22.24 83.524 21.484 83.93 20.56 84.196V82.572C21.008 82.46 21.484 82.264 21.988 81.984C22.492 81.676 22.912 81.354 23.248 81.004ZM27.6742 88.886C28.0522 88.886 28.3742 89.04 28.6262 89.348C28.8642 89.656 28.9902 90.062 28.9902 90.552C28.9902 91.294 28.7662 91.938 28.3462 92.498C27.9122 93.044 27.3242 93.422 26.5962 93.632V92.708C26.9742 92.568 27.2962 92.344 27.5622 92.036C27.8142 91.7 27.9262 91.378 27.9262 91.042C27.8422 91.07 27.7302 91.098 27.5762 91.098C27.2682 91.098 27.0162 90.986 26.8062 90.776C26.5962 90.566 26.4982 90.3 26.4982 89.992C26.4982 89.656 26.6102 89.39 26.8342 89.194C27.0442 88.984 27.3242 88.886 27.6742 88.886ZM33.9517 80.808C34.9177 80.808 35.7157 81.088 36.3457 81.648C36.9617 82.208 37.2697 82.922 37.2697 83.818C37.2697 84.686 36.9337 85.47 36.2897 86.184C35.8977 86.604 35.1977 87.136 34.2177 87.794C33.1957 88.466 32.5797 89.054 32.3557 89.558H37.2837V91H30.3117C30.3117 89.978 30.6337 89.096 31.3057 88.34C31.6697 87.92 32.4397 87.304 33.6017 86.506C34.2457 86.058 34.6937 85.68 34.9737 85.386C35.4077 84.896 35.6317 84.364 35.6317 83.804C35.6317 83.258 35.4777 82.852 35.1977 82.586C34.9037 82.32 34.4697 82.194 33.8957 82.194C33.2797 82.194 32.8177 82.404 32.5097 82.824C32.2017 83.216 32.0337 83.818 32.0057 84.602H30.3677C30.3817 83.482 30.7037 82.586 31.3477 81.9C32.0057 81.172 32.8737 80.808 33.9517 80.808ZM39.2802 81.004H45.3702V82.446H40.5962L40.3162 85.19H40.3582C40.6662 84.882 41.0162 84.658 41.4222 84.518C41.7862 84.378 42.1922 84.308 42.6402 84.308C43.5782 84.308 44.3482 84.616 44.9362 85.232C45.5242 85.848 45.8322 86.702 45.8322 87.78C45.8322 88.816 45.4402 89.656 44.6562 90.314C43.9282 90.902 43.0742 91.196 42.0802 91.196C41.1702 91.196 40.3862 90.944 39.7422 90.454C39.0142 89.908 38.6222 89.166 38.5522 88.242H40.1622C40.2322 88.788 40.4422 89.194 40.8062 89.46C41.1142 89.684 41.5482 89.81 42.0942 89.81C42.6822 89.81 43.1862 89.628 43.5922 89.264C43.9842 88.9 44.1942 88.41 44.1942 87.794C44.1942 87.122 44.0122 86.59 43.6762 86.212C43.3402 85.82 42.8362 85.638 42.1922 85.638C41.7582 85.638 41.3802 85.708 41.0722 85.862C40.7222 86.03 40.4562 86.282 40.2602 86.632H38.7342L39.2802 81.004ZM50.7267 80.808C52.6867 80.808 53.7927 81.718 54.0447 83.538H52.4487C52.2527 82.614 51.6647 82.152 50.7127 82.152C50.0407 82.152 49.5087 82.474 49.1167 83.132C48.7247 83.748 48.5427 84.518 48.5427 85.442V85.568H48.6127C48.8927 85.148 49.2427 84.854 49.6627 84.658C50.0547 84.462 50.5027 84.378 51.0067 84.378C51.9867 84.378 52.7707 84.686 53.3587 85.316C53.9467 85.946 54.2407 86.758 54.2407 87.738C54.2407 88.746 53.8907 89.572 53.2187 90.216C52.5467 90.86 51.7067 91.196 50.7127 91.196C49.4807 91.196 48.5427 90.748 47.8987 89.866C47.2547 88.998 46.9467 87.808 46.9467 86.282C46.9467 84.644 47.2827 83.328 47.9687 82.32C48.6407 81.312 49.5647 80.808 50.7267 80.808ZM50.6567 85.708C50.0407 85.708 49.5647 85.89 49.2287 86.268C48.8787 86.632 48.7107 87.15 48.7107 87.794C48.7107 88.424 48.8927 88.928 49.2567 89.292C49.6207 89.656 50.0827 89.838 50.6567 89.838C51.2447 89.838 51.7067 89.642 52.0707 89.25C52.4347 88.858 52.6167 88.354 52.6167 87.738C52.6167 87.122 52.4347 86.632 52.0987 86.268C51.7347 85.89 51.2587 85.708 50.6567 85.708Z" fill="#1D2129"/>
<path d="M25.08 101.9V102.52C25.08 102.76 25.21 102.88 25.47 102.88H28C28.22 102.88 28.38 102.83 28.48 102.73C28.6 102.6 28.69 102.22 28.73 101.58L29.39 101.79C29.32 102.63 29.18 103.13 28.98 103.31C28.8 103.47 28.51 103.55 28.13 103.55H25.26C24.68 103.55 24.39 103.25 24.39 102.67V99.89H25.08V101.26C26.29 101.02 27.47 100.66 28.63 100.18L29.03 100.75C27.65 101.27 26.33 101.65 25.08 101.9ZM21.81 108.91H20.75L20.6 108.22C20.94 108.25 21.26 108.27 21.56 108.27C21.82 108.27 21.95 108.12 21.95 107.84V105.45C21.51 105.6 21.06 105.74 20.61 105.86L20.44 105.14C20.95 105.03 21.45 104.89 21.95 104.73V102.44H20.6V101.75H21.95V99.87H22.64V101.75H23.75V102.44H22.64V104.49C23.06 104.32 23.46 104.14 23.86 103.95V104.68C23.46 104.86 23.05 105.04 22.64 105.2V108.02C22.64 108.61 22.36 108.91 21.81 108.91ZM29.03 104.32V109H28.31V108.49H25.18V109H24.47V104.32H29.03ZM25.18 107.85H28.31V106.71H25.18V107.85ZM25.18 106.07H28.31V104.95H25.18V106.07ZM31.91 99.86H32.62V101.75H33.78V102.44H32.62V103.21C33.11 103.71 33.6 104.27 34.09 104.88L33.68 105.49C33.27 104.86 32.92 104.36 32.62 103.98V108.99H31.91V104.01C31.59 104.95 31.18 105.81 30.68 106.59L30.37 105.81C31.09 104.83 31.6 103.7 31.91 102.44H30.69V101.75H31.91V99.86ZM34.86 104.38L35.52 104.53C35.2 105.93 34.73 107.13 34.13 108.15L33.51 107.75C34.13 106.74 34.58 105.62 34.86 104.38ZM38.48 104.33C38.9 105.46 39.26 106.67 39.56 107.95L38.91 108.24C38.58 106.85 38.22 105.62 37.83 104.54L38.48 104.33ZM36.24 108.89H35.22L35.08 108.22C35.4 108.24 35.7 108.26 35.99 108.26C36.26 108.26 36.4 108.11 36.4 107.82V103.55H33.96V102.86H39.57V103.55H37.12V108C37.12 108.59 36.82 108.89 36.24 108.89ZM34.49 100.43H39.05V101.11H34.49V100.43ZM41.91 99.86H42.62V101.75H43.78V102.44H42.62V103.21C43.11 103.71 43.6 104.27 44.09 104.88L43.68 105.49C43.27 104.86 42.92 104.36 42.62 103.98V108.99H41.91V104.01C41.59 104.95 41.18 105.81 40.68 106.59L40.37 105.81C41.09 104.83 41.6 103.7 41.91 102.44H40.69V101.75H41.91V99.86ZM44.86 104.38L45.52 104.53C45.2 105.93 44.73 107.13 44.13 108.15L43.51 107.75C44.13 106.74 44.58 105.62 44.86 104.38ZM48.48 104.33C48.9 105.46 49.26 106.67 49.56 107.95L48.91 108.24C48.58 106.85 48.22 105.62 47.83 104.54L48.48 104.33ZM46.24 108.89H45.22L45.08 108.22C45.4 108.24 45.7 108.26 45.99 108.26C46.26 108.26 46.4 108.11 46.4 107.82V103.55H43.96V102.86H49.57V103.55H47.12V108C47.12 108.59 46.82 108.89 46.24 108.89ZM44.49 100.43H49.05V101.11H44.49V100.43ZM57.35 108.16C58.35 108.16 59.1 108.14 59.6 108.12L59.48 108.84H57.51C55.11 108.84 53.62 108.71 53.02 108.45C52.49 108.23 52.02 107.82 51.61 107.24C51.43 107.88 51.18 108.47 50.86 109.01L50.34 108.55C50.88 107.64 51.17 106.62 51.22 105.48L51.86 105.56C51.84 105.9 51.81 106.21 51.76 106.51C52.02 106.92 52.31 107.24 52.62 107.47V105.04H50.64V104.38H54.88V105.04H53.26V106.1H54.63V106.74H53.26V107.83C53.32 107.85 53.37 107.87 53.41 107.89C53.99 108.07 55.3 108.16 57.35 108.16ZM51.09 100.22H54.5V103.71H51.09V100.22ZM53.8 103.11V102.26H51.79V103.11H53.8ZM51.79 101.7H53.8V100.82H51.79V101.7ZM55.02 100.23H59.34V100.89H57.54C57.51 101.17 57.47 101.43 57.41 101.69H59.06V105.73H58.39V102.31H55.97V105.73H55.33V101.69H56.76C56.82 101.43 56.86 101.16 56.89 100.89H55.02V100.23ZM57.9 105.76C58.52 106.24 59.04 106.72 59.46 107.2L58.95 107.7C58.58 107.24 58.07 106.74 57.42 106.22L57.9 105.76ZM56.85 102.78H57.51V104.19C57.49 105.14 57.3 105.9 56.96 106.47C56.62 107 56.06 107.41 55.3 107.71L54.91 107.09C55.63 106.83 56.13 106.47 56.42 106.02C56.68 105.55 56.83 104.94 56.85 104.19V102.78Z" fill="#4E5969"/>
<mask id="path-21-outside-3_12239_22184" maskUnits="userSpaceOnUse" x="69.001" y="81.5742" width="14" height="9" fill="black">
<rect fill="white" x="69.001" y="81.5742" width="14" height="9"/>
<path d="M82 85.1338H81.1934V88.1953L81.1885 88.2002L77.0303 84.041L76.7441 83.7559L74.3223 86.1777L70.5713 82.4268L70.001 82.9971L74.0371 87.0342L74.3223 87.3193L74.6084 87.0342L76.7441 84.8984L80.6143 88.7666H77.5605V89.5742H82V85.1338Z"/>
</mask>
<path d="M82 85.1338H81.1934V88.1953L81.1885 88.2002L77.0303 84.041L76.7441 83.7559L74.3223 86.1777L70.5713 82.4268L70.001 82.9971L74.0371 87.0342L74.3223 87.3193L74.6084 87.0342L76.7441 84.8984L80.6143 88.7666H77.5605V89.5742H82V85.1338Z" fill="#00B42A"/>
<path d="M82 85.1338V84.9338H82.2V85.1338H82ZM81.1934 85.1338H80.9934V84.9338H81.1934V85.1338ZM81.1934 88.1953H81.3934V88.2782L81.3348 88.3367L81.1934 88.1953ZM81.1885 88.2002L81.3299 88.3416L81.1885 88.4831L81.047 88.3416L81.1885 88.2002ZM77.0303 84.041L77.1715 83.8994L77.1717 83.8996L77.0303 84.041ZM76.7441 83.7559L76.6027 83.6144L76.7439 83.4733L76.8853 83.6142L76.7441 83.7559ZM74.3223 86.1777L74.4637 86.3192L74.3223 86.4606L74.1808 86.3192L74.3223 86.1777ZM70.5713 82.4268L70.4299 82.2853L70.5713 82.1439L70.7127 82.2853L70.5713 82.4268ZM70.001 82.9971L69.8595 83.1385L69.7182 82.9971L69.8596 82.8556L70.001 82.9971ZM74.0371 87.0342L73.8957 87.1756L73.8957 87.1756L74.0371 87.0342ZM74.3223 87.3193L74.4634 87.461L74.322 87.6019L74.1808 87.4608L74.3223 87.3193ZM74.6084 87.0342L74.7498 87.1756L74.7496 87.1758L74.6084 87.0342ZM76.7441 84.8984L76.6027 84.757L76.7441 84.6156L76.8855 84.757L76.7441 84.8984ZM80.6143 88.7666L80.7556 88.6251L81.0973 88.9666H80.6143V88.7666ZM77.5605 88.7666H77.3605V88.5666H77.5605V88.7666ZM77.5605 89.5742V89.7742H77.3605V89.5742H77.5605ZM82 89.5742H82.2V89.7742H82V89.5742ZM82 85.1338V85.3338H81.1934V85.1338V84.9338H82V85.1338ZM81.1934 85.1338H81.3934V88.1953H81.1934H80.9934V85.1338H81.1934ZM81.1934 88.1953L81.3348 88.3367L81.3299 88.3416L81.1885 88.2002L81.0471 88.0588L81.0519 88.0539L81.1934 88.1953ZM81.1885 88.2002L81.047 88.3416L76.8888 84.1824L77.0303 84.041L77.1717 83.8996L81.3299 88.0588L81.1885 88.2002ZM77.0303 84.041L76.8891 84.1827L76.603 83.8975L76.7441 83.7559L76.8853 83.6142L77.1715 83.8994L77.0303 84.041ZM76.7441 83.7559L76.8856 83.8973L74.4637 86.3192L74.3223 86.1777L74.1808 86.0363L76.6027 83.6144L76.7441 83.7559ZM74.3223 86.1777L74.1808 86.3192L70.4299 82.5682L70.5713 82.4268L70.7127 82.2853L74.4637 86.0363L74.3223 86.1777ZM70.5713 82.4268L70.7127 82.5682L70.1424 83.1385L70.001 82.9971L69.8596 82.8556L70.4299 82.2853L70.5713 82.4268ZM70.001 82.9971L70.1424 82.8557L74.1785 86.8928L74.0371 87.0342L73.8957 87.1756L69.8595 83.1385L70.001 82.9971ZM74.0371 87.0342L74.1785 86.8928L74.4637 87.1779L74.3223 87.3193L74.1808 87.4608L73.8957 87.1756L74.0371 87.0342ZM74.3223 87.3193L74.1811 87.1777L74.4672 86.8925L74.6084 87.0342L74.7496 87.1758L74.4634 87.461L74.3223 87.3193ZM74.6084 87.0342L74.467 86.8928L76.6027 84.757L76.7441 84.8984L76.8856 85.0399L74.7498 87.1756L74.6084 87.0342ZM76.7441 84.8984L76.8855 84.757L80.7556 88.6251L80.6143 88.7666L80.4729 88.9081L76.6028 85.0399L76.7441 84.8984ZM80.6143 88.7666V88.9666H77.5605V88.7666V88.5666H80.6143V88.7666ZM77.5605 88.7666H77.7605V89.5742H77.5605H77.3605V88.7666H77.5605ZM77.5605 89.5742V89.3742H82V89.5742V89.7742H77.5605V89.5742ZM82 89.5742H81.8V85.1338H82H82.2V89.5742H82Z" fill="#00B42A" mask="url(#path-21-outside-3_12239_22184)"/>
<path d="M90.763 82.448C91.411 82.448 91.924 82.601 92.32 82.916C92.698 83.231 92.896 83.663 92.896 84.212C92.896 84.914 92.536 85.391 91.834 85.625C92.212 85.742 92.5 85.922 92.698 86.156C92.914 86.399 93.022 86.714 93.022 87.092C93.022 87.686 92.815 88.172 92.41 88.55C91.978 88.928 91.411 89.126 90.727 89.126C90.07 89.126 89.539 88.955 89.143 88.622C88.693 88.244 88.441 87.695 88.387 86.975H89.377C89.395 87.407 89.53 87.74 89.8 87.974C90.034 88.19 90.34 88.298 90.718 88.298C91.132 88.298 91.465 88.172 91.717 87.938C91.933 87.722 92.05 87.461 92.05 87.137C92.05 86.759 91.933 86.48 91.699 86.3C91.483 86.12 91.159 86.03 90.736 86.03H90.268V85.292H90.727C91.123 85.292 91.42 85.202 91.618 85.031C91.816 84.86 91.924 84.608 91.924 84.284C91.924 83.96 91.825 83.717 91.645 83.546C91.447 83.366 91.15 83.285 90.772 83.285C90.385 83.285 90.079 83.384 89.863 83.582C89.647 83.78 89.512 84.077 89.476 84.473H88.513C88.567 83.834 88.801 83.339 89.224 82.979C89.62 82.619 90.133 82.448 90.763 82.448ZM100.173 85.481C100.668 85.481 101.046 85.652 101.316 86.012C101.55 86.318 101.676 86.732 101.676 87.245C101.676 87.749 101.55 88.163 101.316 88.478C101.046 88.82 100.668 89 100.173 89C99.6695 89 99.2825 88.82 99.0125 88.478C98.7695 88.154 98.6525 87.749 98.6525 87.245C98.6525 86.732 98.7695 86.318 99.0125 86.012C99.2825 85.652 99.6695 85.481 100.173 85.481ZM99.2825 82.448H100.02L96.4115 89.126H95.6825L99.2825 82.448ZM95.5475 82.574C96.0425 82.574 96.4205 82.745 96.6905 83.105C96.9245 83.411 97.0505 83.825 97.0505 84.338C97.0505 84.842 96.9245 85.256 96.6905 85.571C96.4205 85.913 96.0425 86.093 95.5475 86.093C95.0435 86.093 94.6565 85.913 94.3865 85.571C94.1435 85.247 94.0265 84.842 94.0265 84.338C94.0265 83.825 94.1435 83.411 94.3865 83.105C94.6565 82.745 95.0435 82.574 95.5475 82.574ZM100.173 86.102C99.9395 86.102 99.7685 86.219 99.6605 86.453C99.5795 86.642 99.5435 86.903 99.5435 87.245C99.5435 87.569 99.5795 87.83 99.6605 88.028C99.7685 88.262 99.9395 88.379 100.173 88.379C100.398 88.379 100.56 88.253 100.668 88.01C100.74 87.821 100.785 87.569 100.785 87.245C100.785 86.912 100.74 86.651 100.659 86.462C100.56 86.219 100.398 86.102 100.173 86.102ZM95.5475 83.195C95.3135 83.195 95.1425 83.312 95.0345 83.546C94.9535 83.735 94.9175 83.996 94.9175 84.338C94.9175 84.662 94.9535 84.923 95.0345 85.121C95.1425 85.355 95.3135 85.472 95.5475 85.472C95.7725 85.472 95.9345 85.346 96.0425 85.103C96.1145 84.914 96.1595 84.662 96.1595 84.338C96.1595 84.005 96.1145 83.744 96.0335 83.555C95.9345 83.312 95.7725 83.195 95.5475 83.195Z" fill="#00B42A"/>
<rect x="70.501" y="98.5" width="21" height="11" rx="1.5" stroke="#E5E6EB"/>
<path d="M79.513 107.768H78.449L78.289 107.192L79.329 107.216C79.529 107.216 79.633 107.096 79.633 106.856V101.336H74.369V107.792H73.793V100.776H80.209V106.984C80.209 107.504 79.977 107.768 79.513 107.768ZM74.953 102.256H79.057V102.792H74.953V102.256ZM75.401 103.656H78.609V106.232H75.401V103.656ZM78.049 105.72V104.176H75.961V105.72H78.049ZM85.809 103.64V106.672C85.809 106.904 85.921 107.024 86.161 107.024H87.361C87.513 107.024 87.641 106.976 87.737 106.88C87.865 106.744 87.953 106.272 87.985 105.456L88.537 105.632C88.465 106.56 88.345 107.128 88.177 107.32C88.017 107.48 87.793 107.568 87.505 107.576H85.993C85.481 107.576 85.225 107.304 85.225 106.776V100.56H85.809V103.096C86.593 102.872 87.353 102.56 88.097 102.152L88.441 102.624C87.521 103.08 86.641 103.416 85.809 103.64ZM81.977 107.68L81.801 107.144C81.929 107.064 81.993 106.952 81.993 106.8V100.6H82.569V102.832H84.625V103.392H82.569V106.976C83.273 106.816 83.969 106.616 84.665 106.384L84.817 106.928C83.937 107.208 82.985 107.456 81.977 107.68Z" fill="#6B7785"/>
<path d="M132.248 81.004H133.48V91H131.842V82.978C131.24 83.524 130.484 83.93 129.56 84.196V82.572C130.008 82.46 130.484 82.264 130.988 81.984C131.492 81.676 131.912 81.354 132.248 81.004ZM136.674 88.886C137.052 88.886 137.374 89.04 137.626 89.348C137.864 89.656 137.99 90.062 137.99 90.552C137.99 91.294 137.766 91.938 137.346 92.498C136.912 93.044 136.324 93.422 135.596 93.632V92.708C135.974 92.568 136.296 92.344 136.562 92.036C136.814 91.7 136.926 91.378 136.926 91.042C136.842 91.07 136.73 91.098 136.576 91.098C136.268 91.098 136.016 90.986 135.806 90.776C135.596 90.566 135.498 90.3 135.498 89.992C135.498 89.656 135.61 89.39 135.834 89.194C136.044 88.984 136.324 88.886 136.674 88.886ZM142.952 80.808C143.918 80.808 144.716 81.088 145.346 81.648C145.962 82.208 146.27 82.922 146.27 83.818C146.27 84.686 145.934 85.47 145.29 86.184C144.898 86.604 144.198 87.136 143.218 87.794C142.196 88.466 141.58 89.054 141.356 89.558H146.284V91H139.312C139.312 89.978 139.634 89.096 140.306 88.34C140.67 87.92 141.44 87.304 142.602 86.506C143.246 86.058 143.694 85.68 143.974 85.386C144.408 84.896 144.632 84.364 144.632 83.804C144.632 83.258 144.478 82.852 144.198 82.586C143.904 82.32 143.47 82.194 142.896 82.194C142.28 82.194 141.818 82.404 141.51 82.824C141.202 83.216 141.034 83.818 141.006 84.602H139.368C139.382 83.482 139.704 82.586 140.348 81.9C141.006 81.172 141.874 80.808 142.952 80.808ZM148.28 81.004H154.37V82.446H149.596L149.316 85.19H149.358C149.666 84.882 150.016 84.658 150.422 84.518C150.786 84.378 151.192 84.308 151.64 84.308C152.578 84.308 153.348 84.616 153.936 85.232C154.524 85.848 154.832 86.702 154.832 87.78C154.832 88.816 154.44 89.656 153.656 90.314C152.928 90.902 152.074 91.196 151.08 91.196C150.17 91.196 149.386 90.944 148.742 90.454C148.014 89.908 147.622 89.166 147.552 88.242H149.162C149.232 88.788 149.442 89.194 149.806 89.46C150.114 89.684 150.548 89.81 151.094 89.81C151.682 89.81 152.186 89.628 152.592 89.264C152.984 88.9 153.194 88.41 153.194 87.794C153.194 87.122 153.012 86.59 152.676 86.212C152.34 85.82 151.836 85.638 151.192 85.638C150.758 85.638 150.38 85.708 150.072 85.862C149.722 86.03 149.456 86.282 149.26 86.632H147.734L148.28 81.004ZM159.727 80.808C161.687 80.808 162.793 81.718 163.045 83.538H161.449C161.253 82.614 160.665 82.152 159.713 82.152C159.041 82.152 158.509 82.474 158.117 83.132C157.725 83.748 157.543 84.518 157.543 85.442V85.568H157.613C157.893 85.148 158.243 84.854 158.663 84.658C159.055 84.462 159.503 84.378 160.007 84.378C160.987 84.378 161.771 84.686 162.359 85.316C162.947 85.946 163.241 86.758 163.241 87.738C163.241 88.746 162.891 89.572 162.219 90.216C161.547 90.86 160.707 91.196 159.713 91.196C158.481 91.196 157.543 90.748 156.899 89.866C156.255 88.998 155.947 87.808 155.947 86.282C155.947 84.644 156.283 83.328 156.969 82.32C157.641 81.312 158.565 80.808 159.727 80.808ZM159.657 85.708C159.041 85.708 158.565 85.89 158.229 86.268C157.879 86.632 157.711 87.15 157.711 87.794C157.711 88.424 157.893 88.928 158.257 89.292C158.621 89.656 159.083 89.838 159.657 89.838C160.245 89.838 160.707 89.642 161.071 89.25C161.435 88.858 161.617 88.354 161.617 87.738C161.617 87.122 161.435 86.632 161.099 86.268C160.735 85.89 160.259 85.708 159.657 85.708Z" fill="#1D2129"/>
<path d="M134.08 101.9V102.52C134.08 102.76 134.21 102.88 134.47 102.88H137C137.22 102.88 137.38 102.83 137.48 102.73C137.6 102.6 137.69 102.22 137.73 101.58L138.39 101.79C138.32 102.63 138.18 103.13 137.98 103.31C137.8 103.47 137.51 103.55 137.13 103.55H134.26C133.68 103.55 133.39 103.25 133.39 102.67V99.89H134.08V101.26C135.29 101.02 136.47 100.66 137.63 100.18L138.03 100.75C136.65 101.27 135.33 101.65 134.08 101.9ZM130.81 108.91H129.75L129.6 108.22C129.94 108.25 130.26 108.27 130.56 108.27C130.82 108.27 130.95 108.12 130.95 107.84V105.45C130.51 105.6 130.06 105.74 129.61 105.86L129.44 105.14C129.95 105.03 130.45 104.89 130.95 104.73V102.44H129.6V101.75H130.95V99.87H131.64V101.75H132.75V102.44H131.64V104.49C132.06 104.32 132.46 104.14 132.86 103.95V104.68C132.46 104.86 132.05 105.04 131.64 105.2V108.02C131.64 108.61 131.36 108.91 130.81 108.91ZM138.03 104.32V109H137.31V108.49H134.18V109H133.47V104.32H138.03ZM134.18 107.85H137.31V106.71H134.18V107.85ZM134.18 106.07H137.31V104.95H134.18V106.07ZM140.91 99.86H141.62V101.75H142.78V102.44H141.62V103.21C142.11 103.71 142.6 104.27 143.09 104.88L142.68 105.49C142.27 104.86 141.92 104.36 141.62 103.98V108.99H140.91V104.01C140.59 104.95 140.18 105.81 139.68 106.59L139.37 105.81C140.09 104.83 140.6 103.7 140.91 102.44H139.69V101.75H140.91V99.86ZM143.86 104.38L144.52 104.53C144.2 105.93 143.73 107.13 143.13 108.15L142.51 107.75C143.13 106.74 143.58 105.62 143.86 104.38ZM147.48 104.33C147.9 105.46 148.26 106.67 148.56 107.95L147.91 108.24C147.58 106.85 147.22 105.62 146.83 104.54L147.48 104.33ZM145.24 108.89H144.22L144.08 108.22C144.4 108.24 144.7 108.26 144.99 108.26C145.26 108.26 145.4 108.11 145.4 107.82V103.55H142.96V102.86H148.57V103.55H146.12V108C146.12 108.59 145.82 108.89 145.24 108.89ZM143.49 100.43H148.05V101.11H143.49V100.43ZM150.91 99.86H151.62V101.75H152.78V102.44H151.62V103.21C152.11 103.71 152.6 104.27 153.09 104.88L152.68 105.49C152.27 104.86 151.92 104.36 151.62 103.98V108.99H150.91V104.01C150.59 104.95 150.18 105.81 149.68 106.59L149.37 105.81C150.09 104.83 150.6 103.7 150.91 102.44H149.69V101.75H150.91V99.86ZM153.86 104.38L154.52 104.53C154.2 105.93 153.73 107.13 153.13 108.15L152.51 107.75C153.13 106.74 153.58 105.62 153.86 104.38ZM157.48 104.33C157.9 105.46 158.26 106.67 158.56 107.95L157.91 108.24C157.58 106.85 157.22 105.62 156.83 104.54L157.48 104.33ZM155.24 108.89H154.22L154.08 108.22C154.4 108.24 154.7 108.26 154.99 108.26C155.26 108.26 155.4 108.11 155.4 107.82V103.55H152.96V102.86H158.57V103.55H156.12V108C156.12 108.59 155.82 108.89 155.24 108.89ZM153.49 100.43H158.05V101.11H153.49V100.43ZM166.35 108.16C167.35 108.16 168.1 108.14 168.6 108.12L168.48 108.84H166.51C164.11 108.84 162.62 108.71 162.02 108.45C161.49 108.23 161.02 107.82 160.61 107.24C160.43 107.88 160.18 108.47 159.86 109.01L159.34 108.55C159.88 107.64 160.17 106.62 160.22 105.48L160.86 105.56C160.84 105.9 160.81 106.21 160.76 106.51C161.02 106.92 161.31 107.24 161.62 107.47V105.04H159.64V104.38H163.88V105.04H162.26V106.1H163.63V106.74H162.26V107.83C162.32 107.85 162.37 107.87 162.41 107.89C162.99 108.07 164.3 108.16 166.35 108.16ZM160.09 100.22H163.5V103.71H160.09V100.22ZM162.8 103.11V102.26H160.79V103.11H162.8ZM160.79 101.7H162.8V100.82H160.79V101.7ZM164.02 100.23H168.34V100.89H166.54C166.51 101.17 166.47 101.43 166.41 101.69H168.06V105.73H167.39V102.31H164.97V105.73H164.33V101.69H165.76C165.82 101.43 165.86 101.16 165.89 100.89H164.02V100.23ZM166.9 105.76C167.52 106.24 168.04 106.72 168.46 107.2L167.95 107.7C167.58 107.24 167.07 106.74 166.42 106.22L166.9 105.76ZM165.85 102.78H166.51V104.19C166.49 105.14 166.3 105.9 165.96 106.47C165.62 107 165.06 107.41 164.3 107.71L163.91 107.09C164.63 106.83 165.13 106.47 165.42 106.02C165.68 105.55 165.83 104.94 165.85 104.19V102.78Z" fill="#4E5969"/>
<mask id="path-29-outside-4_12239_22184" maskUnits="userSpaceOnUse" x="178.001" y="81.5742" width="14" height="9" fill="black">
<rect fill="white" x="178.001" y="81.5742" width="14" height="9"/>
<path d="M191 85.1338H190.193V88.1953L190.188 88.2002L186.03 84.041L185.744 83.7559L183.322 86.1777L179.571 82.4268L179.001 82.9971L183.037 87.0342L183.322 87.3193L183.608 87.0342L185.744 84.8984L189.614 88.7666H186.561V89.5742H191V85.1338Z"/>
</mask>
<path d="M191 85.1338H190.193V88.1953L190.188 88.2002L186.03 84.041L185.744 83.7559L183.322 86.1777L179.571 82.4268L179.001 82.9971L183.037 87.0342L183.322 87.3193L183.608 87.0342L185.744 84.8984L189.614 88.7666H186.561V89.5742H191V85.1338Z" fill="#00B42A"/>
<path d="M191 85.1338V84.9338H191.2V85.1338H191ZM190.193 85.1338H189.993V84.9338H190.193V85.1338ZM190.193 88.1953H190.393V88.2782L190.335 88.3367L190.193 88.1953ZM190.188 88.2002L190.33 88.3416L190.188 88.4831L190.047 88.3416L190.188 88.2002ZM186.03 84.041L186.171 83.8994L186.172 83.8996L186.03 84.041ZM185.744 83.7559L185.603 83.6144L185.744 83.4733L185.885 83.6142L185.744 83.7559ZM183.322 86.1777L183.464 86.3192L183.322 86.4606L183.181 86.3192L183.322 86.1777ZM179.571 82.4268L179.43 82.2853L179.571 82.1439L179.713 82.2853L179.571 82.4268ZM179.001 82.9971L178.86 83.1385L178.718 82.9971L178.86 82.8556L179.001 82.9971ZM183.037 87.0342L182.896 87.1756L182.896 87.1756L183.037 87.0342ZM183.322 87.3193L183.463 87.461L183.322 87.6019L183.181 87.4608L183.322 87.3193ZM183.608 87.0342L183.75 87.1756L183.75 87.1758L183.608 87.0342ZM185.744 84.8984L185.603 84.757L185.744 84.6156L185.886 84.757L185.744 84.8984ZM189.614 88.7666L189.756 88.6251L190.097 88.9666H189.614V88.7666ZM186.561 88.7666H186.361V88.5666H186.561V88.7666ZM186.561 89.5742V89.7742H186.361V89.5742H186.561ZM191 89.5742H191.2V89.7742H191V89.5742ZM191 85.1338V85.3338H190.193V85.1338V84.9338H191V85.1338ZM190.193 85.1338H190.393V88.1953H190.193H189.993V85.1338H190.193ZM190.193 88.1953L190.335 88.3367L190.33 88.3416L190.188 88.2002L190.047 88.0588L190.052 88.0539L190.193 88.1953ZM190.188 88.2002L190.047 88.3416L185.889 84.1824L186.03 84.041L186.172 83.8996L190.33 88.0588L190.188 88.2002ZM186.03 84.041L185.889 84.1827L185.603 83.8975L185.744 83.7559L185.885 83.6142L186.171 83.8994L186.03 84.041ZM185.744 83.7559L185.886 83.8973L183.464 86.3192L183.322 86.1777L183.181 86.0363L185.603 83.6144L185.744 83.7559ZM183.322 86.1777L183.181 86.3192L179.43 82.5682L179.571 82.4268L179.713 82.2853L183.464 86.0363L183.322 86.1777ZM179.571 82.4268L179.713 82.5682L179.142 83.1385L179.001 82.9971L178.86 82.8556L179.43 82.2853L179.571 82.4268ZM179.001 82.9971L179.142 82.8557L183.179 86.8928L183.037 87.0342L182.896 87.1756L178.86 83.1385L179.001 82.9971ZM183.037 87.0342L183.179 86.8928L183.464 87.1779L183.322 87.3193L183.181 87.4608L182.896 87.1756L183.037 87.0342ZM183.322 87.3193L183.181 87.1777L183.467 86.8925L183.608 87.0342L183.75 87.1758L183.463 87.461L183.322 87.3193ZM183.608 87.0342L183.467 86.8928L185.603 84.757L185.744 84.8984L185.886 85.0399L183.75 87.1756L183.608 87.0342ZM185.744 84.8984L185.886 84.757L189.756 88.6251L189.614 88.7666L189.473 88.9081L185.603 85.0399L185.744 84.8984ZM189.614 88.7666V88.9666H186.561V88.7666V88.5666H189.614V88.7666ZM186.561 88.7666H186.761V89.5742H186.561H186.361V88.7666H186.561ZM186.561 89.5742V89.3742H191V89.5742V89.7742H186.561V89.5742ZM191 89.5742H190.8V85.1338H191H191.2V89.5742H191Z" fill="#00B42A" mask="url(#path-29-outside-4_12239_22184)"/>
<path d="M199.763 82.448C200.411 82.448 200.924 82.601 201.32 82.916C201.698 83.231 201.896 83.663 201.896 84.212C201.896 84.914 201.536 85.391 200.834 85.625C201.212 85.742 201.5 85.922 201.698 86.156C201.914 86.399 202.022 86.714 202.022 87.092C202.022 87.686 201.815 88.172 201.41 88.55C200.978 88.928 200.411 89.126 199.727 89.126C199.07 89.126 198.539 88.955 198.143 88.622C197.693 88.244 197.441 87.695 197.387 86.975H198.377C198.395 87.407 198.53 87.74 198.8 87.974C199.034 88.19 199.34 88.298 199.718 88.298C200.132 88.298 200.465 88.172 200.717 87.938C200.933 87.722 201.05 87.461 201.05 87.137C201.05 86.759 200.933 86.48 200.699 86.3C200.483 86.12 200.159 86.03 199.736 86.03H199.268V85.292H199.727C200.123 85.292 200.42 85.202 200.618 85.031C200.816 84.86 200.924 84.608 200.924 84.284C200.924 83.96 200.825 83.717 200.645 83.546C200.447 83.366 200.15 83.285 199.772 83.285C199.385 83.285 199.079 83.384 198.863 83.582C198.647 83.78 198.512 84.077 198.476 84.473H197.513C197.567 83.834 197.801 83.339 198.224 82.979C198.62 82.619 199.133 82.448 199.763 82.448ZM209.173 85.481C209.668 85.481 210.046 85.652 210.316 86.012C210.55 86.318 210.676 86.732 210.676 87.245C210.676 87.749 210.55 88.163 210.316 88.478C210.046 88.82 209.668 89 209.173 89C208.669 89 208.282 88.82 208.012 88.478C207.769 88.154 207.652 87.749 207.652 87.245C207.652 86.732 207.769 86.318 208.012 86.012C208.282 85.652 208.669 85.481 209.173 85.481ZM208.282 82.448H209.02L205.411 89.126H204.682L208.282 82.448ZM204.547 82.574C205.042 82.574 205.42 82.745 205.69 83.105C205.924 83.411 206.05 83.825 206.05 84.338C206.05 84.842 205.924 85.256 205.69 85.571C205.42 85.913 205.042 86.093 204.547 86.093C204.043 86.093 203.656 85.913 203.386 85.571C203.143 85.247 203.026 84.842 203.026 84.338C203.026 83.825 203.143 83.411 203.386 83.105C203.656 82.745 204.043 82.574 204.547 82.574ZM209.173 86.102C208.939 86.102 208.768 86.219 208.66 86.453C208.579 86.642 208.543 86.903 208.543 87.245C208.543 87.569 208.579 87.83 208.66 88.028C208.768 88.262 208.939 88.379 209.173 88.379C209.398 88.379 209.56 88.253 209.668 88.01C209.74 87.821 209.785 87.569 209.785 87.245C209.785 86.912 209.74 86.651 209.659 86.462C209.56 86.219 209.398 86.102 209.173 86.102ZM204.547 83.195C204.313 83.195 204.142 83.312 204.034 83.546C203.953 83.735 203.917 83.996 203.917 84.338C203.917 84.662 203.953 84.923 204.034 85.121C204.142 85.355 204.313 85.472 204.547 85.472C204.772 85.472 204.934 85.346 205.042 85.103C205.114 84.914 205.159 84.662 205.159 84.338C205.159 84.005 205.114 83.744 205.033 83.555C204.934 83.312 204.772 83.195 204.547 83.195Z" fill="#00B42A"/>
<rect x="179.501" y="98.5" width="21" height="11" rx="1.5" stroke="#E5E6EB"/>
<path d="M188.513 107.768H187.449L187.289 107.192L188.329 107.216C188.529 107.216 188.633 107.096 188.633 106.856V101.336H183.369V107.792H182.793V100.776H189.209V106.984C189.209 107.504 188.977 107.768 188.513 107.768ZM183.953 102.256H188.057V102.792H183.953V102.256ZM184.401 103.656H187.609V106.232H184.401V103.656ZM187.049 105.72V104.176H184.961V105.72H187.049ZM194.809 103.64V106.672C194.809 106.904 194.921 107.024 195.161 107.024H196.361C196.513 107.024 196.641 106.976 196.737 106.88C196.865 106.744 196.953 106.272 196.985 105.456L197.537 105.632C197.465 106.56 197.345 107.128 197.177 107.32C197.017 107.48 196.793 107.568 196.505 107.576H194.993C194.481 107.576 194.225 107.304 194.225 106.776V100.56H194.809V103.096C195.593 102.872 196.353 102.56 197.097 102.152L197.441 102.624C196.521 103.08 195.641 103.416 194.809 103.64ZM190.977 107.68L190.801 107.144C190.929 107.064 190.993 106.952 190.993 106.8V100.6H191.569V102.832H193.625V103.392H191.569V106.976C192.273 106.816 192.969 106.616 193.665 106.384L193.817 106.928C192.937 107.208 191.985 107.456 190.977 107.68Z" fill="#6B7785"/>
</svg>
