<svg width="244" height="158" viewBox="0 0 244 158" fill="none" xmlns="http://www.w3.org/2000/svg">
<rect width="232" height="158" rx="8" fill="white"/>
<rect x="20" y="31" width="24" height="24" rx="4" fill="url(#paint0_linear_12239_22037)"/>
<path d="M26.75 37.75H31.4167V42.4167H26.75V37.75ZM26.75 43.5833H31.4167V48.25H26.75V43.5833ZM32.5833 37.75H37.25V42.4167H32.5833V37.75ZM32.5833 43.5833H37.25V48.25H32.5833V43.5833Z" fill="white"/>
<path d="M57.08 23.9V24.52C57.08 24.76 57.21 24.88 57.47 24.88H60C60.22 24.88 60.38 24.83 60.48 24.73C60.6 24.6 60.69 24.22 60.73 23.58L61.39 23.79C61.32 24.63 61.18 25.13 60.98 25.31C60.8 25.47 60.51 25.55 60.13 25.55H57.26C56.68 25.55 56.39 25.25 56.39 24.67V21.89H57.08V23.26C58.29 23.02 59.47 22.66 60.63 22.18L61.03 22.75C59.65 23.27 58.33 23.65 57.08 23.9ZM53.81 30.91H52.75L52.6 30.22C52.94 30.25 53.26 30.27 53.56 30.27C53.82 30.27 53.95 30.12 53.95 29.84V27.45C53.51 27.6 53.06 27.74 52.61 27.86L52.44 27.14C52.95 27.03 53.45 26.89 53.95 26.73V24.44H52.6V23.75H53.95V21.87H54.64V23.75H55.75V24.44H54.64V26.49C55.06 26.32 55.46 26.14 55.86 25.95V26.68C55.46 26.86 55.05 27.04 54.64 27.2V30.02C54.64 30.61 54.36 30.91 53.81 30.91ZM61.03 26.32V31H60.31V30.49H57.18V31H56.47V26.32H61.03ZM57.18 29.85H60.31V28.71H57.18V29.85ZM57.18 28.07H60.31V26.95H57.18V28.07ZM63.91 21.86H64.62V23.75H65.78V24.44H64.62V25.21C65.11 25.71 65.6 26.27 66.09 26.88L65.68 27.49C65.27 26.86 64.92 26.36 64.62 25.98V30.99H63.91V26.01C63.59 26.95 63.18 27.81 62.68 28.59L62.37 27.81C63.09 26.83 63.6 25.7 63.91 24.44H62.69V23.75H63.91V21.86ZM66.86 26.38L67.52 26.53C67.2 27.93 66.73 29.13 66.13 30.15L65.51 29.75C66.13 28.74 66.58 27.62 66.86 26.38ZM70.48 26.33C70.9 27.46 71.26 28.67 71.56 29.95L70.91 30.24C70.58 28.85 70.22 27.62 69.83 26.54L70.48 26.33ZM68.24 30.89H67.22L67.08 30.22C67.4 30.24 67.7 30.26 67.99 30.26C68.26 30.26 68.4 30.11 68.4 29.82V25.55H65.96V24.86H71.57V25.55H69.12V30C69.12 30.59 68.82 30.89 68.24 30.89ZM66.49 22.43H71.05V23.11H66.49V22.43ZM73.91 21.86H74.62V23.75H75.78V24.44H74.62V25.21C75.11 25.71 75.6 26.27 76.09 26.88L75.68 27.49C75.27 26.86 74.92 26.36 74.62 25.98V30.99H73.91V26.01C73.59 26.95 73.18 27.81 72.68 28.59L72.37 27.81C73.09 26.83 73.6 25.7 73.91 24.44H72.69V23.75H73.91V21.86ZM76.86 26.38L77.52 26.53C77.2 27.93 76.73 29.13 76.13 30.15L75.51 29.75C76.13 28.74 76.58 27.62 76.86 26.38ZM80.48 26.33C80.9 27.46 81.26 28.67 81.56 29.95L80.91 30.24C80.58 28.85 80.22 27.62 79.83 26.54L80.48 26.33ZM78.24 30.89H77.22L77.08 30.22C77.4 30.24 77.7 30.26 77.99 30.26C78.26 30.26 78.4 30.11 78.4 29.82V25.55H75.96V24.86H81.57V25.55H79.12V30C79.12 30.59 78.82 30.89 78.24 30.89ZM76.49 22.43H81.05V23.11H76.49V22.43ZM89.35 30.16C90.35 30.16 91.1 30.14 91.6 30.12L91.48 30.84H89.51C87.11 30.84 85.62 30.71 85.02 30.45C84.49 30.23 84.02 29.82 83.61 29.24C83.43 29.88 83.18 30.47 82.86 31.01L82.34 30.55C82.88 29.64 83.17 28.62 83.22 27.48L83.86 27.56C83.84 27.9 83.81 28.21 83.76 28.51C84.02 28.92 84.31 29.24 84.62 29.47V27.04H82.64V26.38H86.88V27.04H85.26V28.1H86.63V28.74H85.26V29.83C85.32 29.85 85.37 29.87 85.41 29.89C85.99 30.07 87.3 30.16 89.35 30.16ZM83.09 22.22H86.5V25.71H83.09V22.22ZM85.8 25.11V24.26H83.79V25.11H85.8ZM83.79 23.7H85.8V22.82H83.79V23.7ZM87.02 22.23H91.34V22.89H89.54C89.51 23.17 89.47 23.43 89.41 23.69H91.06V27.73H90.39V24.31H87.97V27.73H87.33V23.69H88.76C88.82 23.43 88.86 23.16 88.89 22.89H87.02V22.23ZM89.9 27.76C90.52 28.24 91.04 28.72 91.46 29.2L90.95 29.7C90.58 29.24 90.07 28.74 89.42 28.22L89.9 27.76ZM88.85 24.78H89.51V26.19C89.49 27.14 89.3 27.9 88.96 28.47C88.62 29 88.06 29.41 87.3 29.71L86.91 29.09C87.63 28.83 88.13 28.47 88.42 28.02C88.68 27.55 88.83 26.94 88.85 26.19V24.78Z" fill="#1D2129"/>
<path d="M55.248 39.004H56.48V49H54.842V40.978C54.24 41.524 53.484 41.93 52.56 42.196V40.572C53.008 40.46 53.484 40.264 53.988 39.984C54.492 39.676 54.912 39.354 55.248 39.004ZM59.6742 46.886C60.0522 46.886 60.3742 47.04 60.6262 47.348C60.8642 47.656 60.9902 48.062 60.9902 48.552C60.9902 49.294 60.7662 49.938 60.3462 50.498C59.9122 51.044 59.3242 51.422 58.5962 51.632V50.708C58.9742 50.568 59.2962 50.344 59.5622 50.036C59.8142 49.7 59.9262 49.378 59.9262 49.042C59.8422 49.07 59.7302 49.098 59.5762 49.098C59.2682 49.098 59.0162 48.986 58.8062 48.776C58.5962 48.566 58.4982 48.3 58.4982 47.992C58.4982 47.656 58.6102 47.39 58.8342 47.194C59.0442 46.984 59.3242 46.886 59.6742 46.886ZM65.9517 38.808C66.9177 38.808 67.7157 39.088 68.3457 39.648C68.9617 40.208 69.2697 40.922 69.2697 41.818C69.2697 42.686 68.9337 43.47 68.2897 44.184C67.8977 44.604 67.1977 45.136 66.2177 45.794C65.1957 46.466 64.5797 47.054 64.3557 47.558H69.2837V49H62.3117C62.3117 47.978 62.6337 47.096 63.3057 46.34C63.6697 45.92 64.4397 45.304 65.6017 44.506C66.2457 44.058 66.6937 43.68 66.9737 43.386C67.4077 42.896 67.6317 42.364 67.6317 41.804C67.6317 41.258 67.4777 40.852 67.1977 40.586C66.9037 40.32 66.4697 40.194 65.8957 40.194C65.2797 40.194 64.8177 40.404 64.5097 40.824C64.2017 41.216 64.0337 41.818 64.0057 42.602H62.3677C62.3817 41.482 62.7037 40.586 63.3477 39.9C64.0057 39.172 64.8737 38.808 65.9517 38.808ZM71.2802 39.004H77.3702V40.446H72.5962L72.3162 43.19H72.3582C72.6662 42.882 73.0162 42.658 73.4222 42.518C73.7862 42.378 74.1922 42.308 74.6402 42.308C75.5782 42.308 76.3482 42.616 76.9362 43.232C77.5242 43.848 77.8322 44.702 77.8322 45.78C77.8322 46.816 77.4402 47.656 76.6562 48.314C75.9282 48.902 75.0742 49.196 74.0802 49.196C73.1702 49.196 72.3862 48.944 71.7422 48.454C71.0142 47.908 70.6222 47.166 70.5522 46.242H72.1622C72.2322 46.788 72.4422 47.194 72.8062 47.46C73.1142 47.684 73.5482 47.81 74.0942 47.81C74.6822 47.81 75.1862 47.628 75.5922 47.264C75.9842 46.9 76.1942 46.41 76.1942 45.794C76.1942 45.122 76.0122 44.59 75.6762 44.212C75.3402 43.82 74.8362 43.638 74.1922 43.638C73.7582 43.638 73.3802 43.708 73.0722 43.862C72.7222 44.03 72.4562 44.282 72.2602 44.632H70.7342L71.2802 39.004ZM82.7267 38.808C84.6867 38.808 85.7927 39.718 86.0447 41.538H84.4487C84.2527 40.614 83.6647 40.152 82.7127 40.152C82.0407 40.152 81.5087 40.474 81.1167 41.132C80.7247 41.748 80.5427 42.518 80.5427 43.442V43.568H80.6127C80.8927 43.148 81.2427 42.854 81.6627 42.658C82.0547 42.462 82.5027 42.378 83.0067 42.378C83.9867 42.378 84.7707 42.686 85.3587 43.316C85.9467 43.946 86.2407 44.758 86.2407 45.738C86.2407 46.746 85.8907 47.572 85.2187 48.216C84.5467 48.86 83.7067 49.196 82.7127 49.196C81.4807 49.196 80.5427 48.748 79.8987 47.866C79.2547 46.998 78.9467 45.808 78.9467 44.282C78.9467 42.644 79.2827 41.328 79.9687 40.32C80.6407 39.312 81.5647 38.808 82.7267 38.808ZM82.6567 43.708C82.0407 43.708 81.5647 43.89 81.2287 44.268C80.8787 44.632 80.7107 45.15 80.7107 45.794C80.7107 46.424 80.8927 46.928 81.2567 47.292C81.6207 47.656 82.0827 47.838 82.6567 47.838C83.2447 47.838 83.7067 47.642 84.0707 47.25C84.4347 46.858 84.6167 46.354 84.6167 45.738C84.6167 45.122 84.4347 44.632 84.0987 44.268C83.7347 43.89 83.2587 43.708 82.6567 43.708Z" fill="#1D2129"/>
<path d="M58.512 64.768H57.448L57.288 64.192L58.328 64.216C58.528 64.216 58.632 64.096 58.632 63.856V58.336H53.368V64.792H52.792V57.776H59.208V63.984C59.208 64.504 58.976 64.768 58.512 64.768ZM53.952 59.256H58.056V59.792H53.952V59.256ZM54.4 60.656H57.608V63.232H54.4V60.656ZM57.048 62.72V61.176H54.96V62.72H57.048ZM64.808 60.64V63.672C64.808 63.904 64.92 64.024 65.16 64.024H66.36C66.512 64.024 66.64 63.976 66.736 63.88C66.864 63.744 66.952 63.272 66.984 62.456L67.536 62.632C67.464 63.56 67.344 64.128 67.176 64.32C67.016 64.48 66.792 64.568 66.504 64.576H64.992C64.48 64.576 64.224 64.304 64.224 63.776V57.56H64.808V60.096C65.592 59.872 66.352 59.56 67.096 59.152L67.44 59.624C66.52 60.08 65.64 60.416 64.808 60.64ZM60.976 64.68L60.8 64.144C60.928 64.064 60.992 63.952 60.992 63.8V57.6H61.568V59.832H63.624V60.392H61.568V63.976C62.272 63.816 62.968 63.616 63.664 63.384L63.816 63.928C62.936 64.208 61.984 64.456 60.976 64.68Z" fill="#86909C"/>
<path d="M74.456 58.176C75 58.176 75.448 58.312 75.784 58.592C76.112 58.872 76.28 59.248 76.28 59.728C76.28 60.368 75.968 60.8 75.344 61.008C75.68 61.112 75.936 61.272 76.112 61.496C76.304 61.72 76.4 62 76.4 62.336C76.4 62.856 76.216 63.28 75.856 63.608C75.488 63.944 75.008 64.112 74.416 64.112C73.872 64.112 73.432 63.968 73.088 63.696C72.68 63.36 72.456 62.872 72.408 62.232H73.072C73.088 62.68 73.24 63.024 73.52 63.256C73.76 63.448 74.056 63.552 74.416 63.552C74.824 63.552 75.152 63.432 75.4 63.2C75.624 62.976 75.744 62.696 75.744 62.36C75.744 62.016 75.632 61.752 75.408 61.56C75.184 61.368 74.88 61.28 74.48 61.28H74.016V60.768H74.456C74.84 60.768 75.128 60.68 75.328 60.512C75.528 60.336 75.632 60.088 75.632 59.768C75.632 59.448 75.528 59.2 75.336 59.024C75.128 58.832 74.832 58.744 74.464 58.744C74.08 58.744 73.784 58.84 73.568 59.048C73.344 59.256 73.216 59.552 73.176 59.936H72.528C72.576 59.384 72.784 58.952 73.136 58.64C73.472 58.328 73.912 58.176 74.456 58.176ZM82.7089 60.872C83.1329 60.872 83.4609 61.024 83.6929 61.344C83.8929 61.616 83.9969 61.984 83.9969 62.44C83.9969 62.888 83.8929 63.256 83.6929 63.536C83.4609 63.84 83.1329 64 82.7089 64C82.2769 64 81.9489 63.84 81.7249 63.536C81.5169 63.248 81.4209 62.888 81.4209 62.44C81.4209 61.984 81.5169 61.616 81.7249 61.344C81.9489 61.024 82.2769 60.872 82.7089 60.872ZM82.0209 58.176H82.5329L79.3329 64.112H78.8129L82.0209 58.176ZM78.6449 58.288C79.0689 58.288 79.3969 58.44 79.6289 58.76C79.8289 59.032 79.9329 59.4 79.9329 59.856C79.9329 60.304 79.8289 60.672 79.6289 60.952C79.3969 61.256 79.0689 61.416 78.6449 61.416C78.2129 61.416 77.8849 61.256 77.6609 60.952C77.4529 60.664 77.3569 60.304 77.3569 59.856C77.3569 59.4 77.4529 59.032 77.6609 58.76C77.8849 58.44 78.2129 58.288 78.6449 58.288ZM82.7089 61.304C82.4609 61.304 82.2849 61.416 82.1729 61.64C82.0689 61.832 82.0209 62.096 82.0209 62.44C82.0209 62.768 82.0689 63.032 82.1729 63.224C82.2849 63.448 82.4609 63.568 82.7089 63.568C82.9489 63.568 83.1249 63.448 83.2449 63.216C83.3409 63.024 83.3969 62.768 83.3969 62.44C83.3969 62.104 83.3409 61.84 83.2449 61.648C83.1249 61.416 82.9489 61.304 82.7089 61.304ZM78.6449 58.72C78.3969 58.72 78.2209 58.832 78.1089 59.056C78.0049 59.248 77.9569 59.512 77.9569 59.856C77.9569 60.184 78.0049 60.448 78.1089 60.64C78.2209 60.864 78.3969 60.984 78.6449 60.984C78.8849 60.984 79.0609 60.864 79.1809 60.632C79.2769 60.44 79.3329 60.184 79.3329 59.856C79.3329 59.52 79.2769 59.256 79.1729 59.064C79.0609 58.832 78.8849 58.72 78.6449 58.72Z" fill="#F53F3F"/>
<path d="M92.7499 61.0003V61.8337C92.7499 63.2745 91.9373 64.5255 90.7455 65.1535C90.8569 65.1624 90.9695 65.167 91.0833 65.167C93.3844 65.167 95.2499 63.3015 95.2499 61.0003H97.3333L93.9999 56.8337L90.6666 61.0003H92.7499Z" fill="#F53F3F"/>
<rect x="129" y="31" width="24" height="24" rx="4" fill="url(#paint1_linear_12239_22037)"/>
<path d="M135.75 37.75H146.25C146.572 37.75 146.833 38.0112 146.833 38.3333V47.6667C146.833 47.9888 146.572 48.25 146.25 48.25H135.75C135.428 48.25 135.167 47.9888 135.167 47.6667V38.3333C135.167 38.0112 135.428 37.75 135.75 37.75ZM141.035 42.815L137.294 39.6387L136.539 40.528L141.043 44.3516L145.465 40.5244L144.702 39.6422L141.035 42.815Z" fill="white"/>
<path d="M166.08 23.9V24.52C166.08 24.76 166.21 24.88 166.47 24.88H169C169.22 24.88 169.38 24.83 169.48 24.73C169.6 24.6 169.69 24.22 169.73 23.58L170.39 23.79C170.32 24.63 170.18 25.13 169.98 25.31C169.8 25.47 169.51 25.55 169.13 25.55H166.26C165.68 25.55 165.39 25.25 165.39 24.67V21.89H166.08V23.26C167.29 23.02 168.47 22.66 169.63 22.18L170.03 22.75C168.65 23.27 167.33 23.65 166.08 23.9ZM162.81 30.91H161.75L161.6 30.22C161.94 30.25 162.26 30.27 162.56 30.27C162.82 30.27 162.95 30.12 162.95 29.84V27.45C162.51 27.6 162.06 27.74 161.61 27.86L161.44 27.14C161.95 27.03 162.45 26.89 162.95 26.73V24.44H161.6V23.75H162.95V21.87H163.64V23.75H164.75V24.44H163.64V26.49C164.06 26.32 164.46 26.14 164.86 25.95V26.68C164.46 26.86 164.05 27.04 163.64 27.2V30.02C163.64 30.61 163.36 30.91 162.81 30.91ZM170.03 26.32V31H169.31V30.49H166.18V31H165.47V26.32H170.03ZM166.18 29.85H169.31V28.71H166.18V29.85ZM166.18 28.07H169.31V26.95H166.18V28.07ZM172.91 21.86H173.62V23.75H174.78V24.44H173.62V25.21C174.11 25.71 174.6 26.27 175.09 26.88L174.68 27.49C174.27 26.86 173.92 26.36 173.62 25.98V30.99H172.91V26.01C172.59 26.95 172.18 27.81 171.68 28.59L171.37 27.81C172.09 26.83 172.6 25.7 172.91 24.44H171.69V23.75H172.91V21.86ZM175.86 26.38L176.52 26.53C176.2 27.93 175.73 29.13 175.13 30.15L174.51 29.75C175.13 28.74 175.58 27.62 175.86 26.38ZM179.48 26.33C179.9 27.46 180.26 28.67 180.56 29.95L179.91 30.24C179.58 28.85 179.22 27.62 178.83 26.54L179.48 26.33ZM177.24 30.89H176.22L176.08 30.22C176.4 30.24 176.7 30.26 176.99 30.26C177.26 30.26 177.4 30.11 177.4 29.82V25.55H174.96V24.86H180.57V25.55H178.12V30C178.12 30.59 177.82 30.89 177.24 30.89ZM175.49 22.43H180.05V23.11H175.49V22.43ZM182.91 21.86H183.62V23.75H184.78V24.44H183.62V25.21C184.11 25.71 184.6 26.27 185.09 26.88L184.68 27.49C184.27 26.86 183.92 26.36 183.62 25.98V30.99H182.91V26.01C182.59 26.95 182.18 27.81 181.68 28.59L181.37 27.81C182.09 26.83 182.6 25.7 182.91 24.44H181.69V23.75H182.91V21.86ZM185.86 26.38L186.52 26.53C186.2 27.93 185.73 29.13 185.13 30.15L184.51 29.75C185.13 28.74 185.58 27.62 185.86 26.38ZM189.48 26.33C189.9 27.46 190.26 28.67 190.56 29.95L189.91 30.24C189.58 28.85 189.22 27.62 188.83 26.54L189.48 26.33ZM187.24 30.89H186.22L186.08 30.22C186.4 30.24 186.7 30.26 186.99 30.26C187.26 30.26 187.4 30.11 187.4 29.82V25.55H184.96V24.86H190.57V25.55H188.12V30C188.12 30.59 187.82 30.89 187.24 30.89ZM185.49 22.43H190.05V23.11H185.49V22.43ZM198.35 30.16C199.35 30.16 200.1 30.14 200.6 30.12L200.48 30.84H198.51C196.11 30.84 194.62 30.71 194.02 30.45C193.49 30.23 193.02 29.82 192.61 29.24C192.43 29.88 192.18 30.47 191.86 31.01L191.34 30.55C191.88 29.64 192.17 28.62 192.22 27.48L192.86 27.56C192.84 27.9 192.81 28.21 192.76 28.51C193.02 28.92 193.31 29.24 193.62 29.47V27.04H191.64V26.38H195.88V27.04H194.26V28.1H195.63V28.74H194.26V29.83C194.32 29.85 194.37 29.87 194.41 29.89C194.99 30.07 196.3 30.16 198.35 30.16ZM192.09 22.22H195.5V25.71H192.09V22.22ZM194.8 25.11V24.26H192.79V25.11H194.8ZM192.79 23.7H194.8V22.82H192.79V23.7ZM196.02 22.23H200.34V22.89H198.54C198.51 23.17 198.47 23.43 198.41 23.69H200.06V27.73H199.39V24.31H196.97V27.73H196.33V23.69H197.76C197.82 23.43 197.86 23.16 197.89 22.89H196.02V22.23ZM198.9 27.76C199.52 28.24 200.04 28.72 200.46 29.2L199.95 29.7C199.58 29.24 199.07 28.74 198.42 28.22L198.9 27.76ZM197.85 24.78H198.51V26.19C198.49 27.14 198.3 27.9 197.96 28.47C197.62 29 197.06 29.41 196.3 29.71L195.91 29.09C196.63 28.83 197.13 28.47 197.42 28.02C197.68 27.55 197.83 26.94 197.85 26.19V24.78Z" fill="#1D2129"/>
<path d="M164.248 39.004H165.48V49H163.842V40.978C163.24 41.524 162.484 41.93 161.56 42.196V40.572C162.008 40.46 162.484 40.264 162.988 39.984C163.492 39.676 163.912 39.354 164.248 39.004ZM168.674 46.886C169.052 46.886 169.374 47.04 169.626 47.348C169.864 47.656 169.99 48.062 169.99 48.552C169.99 49.294 169.766 49.938 169.346 50.498C168.912 51.044 168.324 51.422 167.596 51.632V50.708C167.974 50.568 168.296 50.344 168.562 50.036C168.814 49.7 168.926 49.378 168.926 49.042C168.842 49.07 168.73 49.098 168.576 49.098C168.268 49.098 168.016 48.986 167.806 48.776C167.596 48.566 167.498 48.3 167.498 47.992C167.498 47.656 167.61 47.39 167.834 47.194C168.044 46.984 168.324 46.886 168.674 46.886ZM174.952 38.808C175.918 38.808 176.716 39.088 177.346 39.648C177.962 40.208 178.27 40.922 178.27 41.818C178.27 42.686 177.934 43.47 177.29 44.184C176.898 44.604 176.198 45.136 175.218 45.794C174.196 46.466 173.58 47.054 173.356 47.558H178.284V49H171.312C171.312 47.978 171.634 47.096 172.306 46.34C172.67 45.92 173.44 45.304 174.602 44.506C175.246 44.058 175.694 43.68 175.974 43.386C176.408 42.896 176.632 42.364 176.632 41.804C176.632 41.258 176.478 40.852 176.198 40.586C175.904 40.32 175.47 40.194 174.896 40.194C174.28 40.194 173.818 40.404 173.51 40.824C173.202 41.216 173.034 41.818 173.006 42.602H171.368C171.382 41.482 171.704 40.586 172.348 39.9C173.006 39.172 173.874 38.808 174.952 38.808ZM180.28 39.004H186.37V40.446H181.596L181.316 43.19H181.358C181.666 42.882 182.016 42.658 182.422 42.518C182.786 42.378 183.192 42.308 183.64 42.308C184.578 42.308 185.348 42.616 185.936 43.232C186.524 43.848 186.832 44.702 186.832 45.78C186.832 46.816 186.44 47.656 185.656 48.314C184.928 48.902 184.074 49.196 183.08 49.196C182.17 49.196 181.386 48.944 180.742 48.454C180.014 47.908 179.622 47.166 179.552 46.242H181.162C181.232 46.788 181.442 47.194 181.806 47.46C182.114 47.684 182.548 47.81 183.094 47.81C183.682 47.81 184.186 47.628 184.592 47.264C184.984 46.9 185.194 46.41 185.194 45.794C185.194 45.122 185.012 44.59 184.676 44.212C184.34 43.82 183.836 43.638 183.192 43.638C182.758 43.638 182.38 43.708 182.072 43.862C181.722 44.03 181.456 44.282 181.26 44.632H179.734L180.28 39.004ZM191.727 38.808C193.687 38.808 194.793 39.718 195.045 41.538H193.449C193.253 40.614 192.665 40.152 191.713 40.152C191.041 40.152 190.509 40.474 190.117 41.132C189.725 41.748 189.543 42.518 189.543 43.442V43.568H189.613C189.893 43.148 190.243 42.854 190.663 42.658C191.055 42.462 191.503 42.378 192.007 42.378C192.987 42.378 193.771 42.686 194.359 43.316C194.947 43.946 195.241 44.758 195.241 45.738C195.241 46.746 194.891 47.572 194.219 48.216C193.547 48.86 192.707 49.196 191.713 49.196C190.481 49.196 189.543 48.748 188.899 47.866C188.255 46.998 187.947 45.808 187.947 44.282C187.947 42.644 188.283 41.328 188.969 40.32C189.641 39.312 190.565 38.808 191.727 38.808ZM191.657 43.708C191.041 43.708 190.565 43.89 190.229 44.268C189.879 44.632 189.711 45.15 189.711 45.794C189.711 46.424 189.893 46.928 190.257 47.292C190.621 47.656 191.083 47.838 191.657 47.838C192.245 47.838 192.707 47.642 193.071 47.25C193.435 46.858 193.617 46.354 193.617 45.738C193.617 45.122 193.435 44.632 193.099 44.268C192.735 43.89 192.259 43.708 191.657 43.708Z" fill="#1D2129"/>
<path d="M167.512 64.768H166.448L166.288 64.192L167.328 64.216C167.528 64.216 167.632 64.096 167.632 63.856V58.336H162.368V64.792H161.792V57.776H168.208V63.984C168.208 64.504 167.976 64.768 167.512 64.768ZM162.952 59.256H167.056V59.792H162.952V59.256ZM163.4 60.656H166.608V63.232H163.4V60.656ZM166.048 62.72V61.176H163.96V62.72H166.048ZM173.808 60.64V63.672C173.808 63.904 173.92 64.024 174.16 64.024H175.36C175.512 64.024 175.64 63.976 175.736 63.88C175.864 63.744 175.952 63.272 175.984 62.456L176.536 62.632C176.464 63.56 176.344 64.128 176.176 64.32C176.016 64.48 175.792 64.568 175.504 64.576H173.992C173.48 64.576 173.224 64.304 173.224 63.776V57.56H173.808V60.096C174.592 59.872 175.352 59.56 176.096 59.152L176.44 59.624C175.52 60.08 174.64 60.416 173.808 60.64ZM169.976 64.68L169.8 64.144C169.928 64.064 169.992 63.952 169.992 63.8V57.6H170.568V59.832H172.624V60.392H170.568V63.976C171.272 63.816 171.968 63.616 172.664 63.384L172.816 63.928C171.936 64.208 170.984 64.456 169.976 64.68Z" fill="#86909C"/>
<path d="M183.456 58.176C184 58.176 184.448 58.312 184.784 58.592C185.112 58.872 185.28 59.248 185.28 59.728C185.28 60.368 184.968 60.8 184.344 61.008C184.68 61.112 184.936 61.272 185.112 61.496C185.304 61.72 185.4 62 185.4 62.336C185.4 62.856 185.216 63.28 184.856 63.608C184.488 63.944 184.008 64.112 183.416 64.112C182.872 64.112 182.432 63.968 182.088 63.696C181.68 63.36 181.456 62.872 181.408 62.232H182.072C182.088 62.68 182.24 63.024 182.52 63.256C182.76 63.448 183.056 63.552 183.416 63.552C183.824 63.552 184.152 63.432 184.4 63.2C184.624 62.976 184.744 62.696 184.744 62.36C184.744 62.016 184.632 61.752 184.408 61.56C184.184 61.368 183.88 61.28 183.48 61.28H183.016V60.768H183.456C183.84 60.768 184.128 60.68 184.328 60.512C184.528 60.336 184.632 60.088 184.632 59.768C184.632 59.448 184.528 59.2 184.336 59.024C184.128 58.832 183.832 58.744 183.464 58.744C183.08 58.744 182.784 58.84 182.568 59.048C182.344 59.256 182.216 59.552 182.176 59.936H181.528C181.576 59.384 181.784 58.952 182.136 58.64C182.472 58.328 182.912 58.176 183.456 58.176ZM191.709 60.872C192.133 60.872 192.461 61.024 192.693 61.344C192.893 61.616 192.997 61.984 192.997 62.44C192.997 62.888 192.893 63.256 192.693 63.536C192.461 63.84 192.133 64 191.709 64C191.277 64 190.949 63.84 190.725 63.536C190.517 63.248 190.421 62.888 190.421 62.44C190.421 61.984 190.517 61.616 190.725 61.344C190.949 61.024 191.277 60.872 191.709 60.872ZM191.021 58.176H191.533L188.333 64.112H187.813L191.021 58.176ZM187.645 58.288C188.069 58.288 188.397 58.44 188.629 58.76C188.829 59.032 188.933 59.4 188.933 59.856C188.933 60.304 188.829 60.672 188.629 60.952C188.397 61.256 188.069 61.416 187.645 61.416C187.213 61.416 186.885 61.256 186.661 60.952C186.453 60.664 186.357 60.304 186.357 59.856C186.357 59.4 186.453 59.032 186.661 58.76C186.885 58.44 187.213 58.288 187.645 58.288ZM191.709 61.304C191.461 61.304 191.285 61.416 191.173 61.64C191.069 61.832 191.021 62.096 191.021 62.44C191.021 62.768 191.069 63.032 191.173 63.224C191.285 63.448 191.461 63.568 191.709 63.568C191.949 63.568 192.125 63.448 192.245 63.216C192.341 63.024 192.397 62.768 192.397 62.44C192.397 62.104 192.341 61.84 192.245 61.648C192.125 61.416 191.949 61.304 191.709 61.304ZM187.645 58.72C187.397 58.72 187.221 58.832 187.109 59.056C187.005 59.248 186.957 59.512 186.957 59.856C186.957 60.184 187.005 60.448 187.109 60.64C187.221 60.864 187.397 60.984 187.645 60.984C187.885 60.984 188.061 60.864 188.181 60.632C188.277 60.44 188.333 60.184 188.333 59.856C188.333 59.52 188.277 59.256 188.173 59.064C188.061 58.832 187.885 58.72 187.645 58.72Z" fill="#F53F3F"/>
<path d="M201.75 61.0003V61.8337C201.75 63.2745 200.937 64.5255 199.745 65.1535C199.857 65.1624 199.97 65.167 200.083 65.167C202.384 65.167 204.25 63.3015 204.25 61.0003H206.333L203 56.8337L199.667 61.0003H201.75Z" fill="#F53F3F"/>
<rect x="20" y="103" width="24" height="24" rx="4" fill="url(#paint2_linear_12239_22037)"/>
<path d="M26.1667 114.416H37.8334V119.666C37.8334 119.989 37.5723 120.25 37.2501 120.25H26.7501C26.4279 120.25 26.1667 119.989 26.1667 119.666V114.416ZM34.9167 109.75H37.2501C37.5723 109.75 37.8334 110.011 37.8334 110.333V113.25H26.1667V110.333C26.1667 110.011 26.4279 109.75 26.7501 109.75H29.0834V108.583H30.2501V109.75H33.7501V108.583H34.9167V109.75Z" fill="white"/>
<path d="M57.08 95.9V96.52C57.08 96.76 57.21 96.88 57.47 96.88H60C60.22 96.88 60.38 96.83 60.48 96.73C60.6 96.6 60.69 96.22 60.73 95.58L61.39 95.79C61.32 96.63 61.18 97.13 60.98 97.31C60.8 97.47 60.51 97.55 60.13 97.55H57.26C56.68 97.55 56.39 97.25 56.39 96.67V93.89H57.08V95.26C58.29 95.02 59.47 94.66 60.63 94.18L61.03 94.75C59.65 95.27 58.33 95.65 57.08 95.9ZM53.81 102.91H52.75L52.6 102.22C52.94 102.25 53.26 102.27 53.56 102.27C53.82 102.27 53.95 102.12 53.95 101.84V99.45C53.51 99.6 53.06 99.74 52.61 99.86L52.44 99.14C52.95 99.03 53.45 98.89 53.95 98.73V96.44H52.6V95.75H53.95V93.87H54.64V95.75H55.75V96.44H54.64V98.49C55.06 98.32 55.46 98.14 55.86 97.95V98.68C55.46 98.86 55.05 99.04 54.64 99.2V102.02C54.64 102.61 54.36 102.91 53.81 102.91ZM61.03 98.32V103H60.31V102.49H57.18V103H56.47V98.32H61.03ZM57.18 101.85H60.31V100.71H57.18V101.85ZM57.18 100.07H60.31V98.95H57.18V100.07ZM63.91 93.86H64.62V95.75H65.78V96.44H64.62V97.21C65.11 97.71 65.6 98.27 66.09 98.88L65.68 99.49C65.27 98.86 64.92 98.36 64.62 97.98V102.99H63.91V98.01C63.59 98.95 63.18 99.81 62.68 100.59L62.37 99.81C63.09 98.83 63.6 97.7 63.91 96.44H62.69V95.75H63.91V93.86ZM66.86 98.38L67.52 98.53C67.2 99.93 66.73 101.13 66.13 102.15L65.51 101.75C66.13 100.74 66.58 99.62 66.86 98.38ZM70.48 98.33C70.9 99.46 71.26 100.67 71.56 101.95L70.91 102.24C70.58 100.85 70.22 99.62 69.83 98.54L70.48 98.33ZM68.24 102.89H67.22L67.08 102.22C67.4 102.24 67.7 102.26 67.99 102.26C68.26 102.26 68.4 102.11 68.4 101.82V97.55H65.96V96.86H71.57V97.55H69.12V102C69.12 102.59 68.82 102.89 68.24 102.89ZM66.49 94.43H71.05V95.11H66.49V94.43ZM73.91 93.86H74.62V95.75H75.78V96.44H74.62V97.21C75.11 97.71 75.6 98.27 76.09 98.88L75.68 99.49C75.27 98.86 74.92 98.36 74.62 97.98V102.99H73.91V98.01C73.59 98.95 73.18 99.81 72.68 100.59L72.37 99.81C73.09 98.83 73.6 97.7 73.91 96.44H72.69V95.75H73.91V93.86ZM76.86 98.38L77.52 98.53C77.2 99.93 76.73 101.13 76.13 102.15L75.51 101.75C76.13 100.74 76.58 99.62 76.86 98.38ZM80.48 98.33C80.9 99.46 81.26 100.67 81.56 101.95L80.91 102.24C80.58 100.85 80.22 99.62 79.83 98.54L80.48 98.33ZM78.24 102.89H77.22L77.08 102.22C77.4 102.24 77.7 102.26 77.99 102.26C78.26 102.26 78.4 102.11 78.4 101.82V97.55H75.96V96.86H81.57V97.55H79.12V102C79.12 102.59 78.82 102.89 78.24 102.89ZM76.49 94.43H81.05V95.11H76.49V94.43ZM89.35 102.16C90.35 102.16 91.1 102.14 91.6 102.12L91.48 102.84H89.51C87.11 102.84 85.62 102.71 85.02 102.45C84.49 102.23 84.02 101.82 83.61 101.24C83.43 101.88 83.18 102.47 82.86 103.01L82.34 102.55C82.88 101.64 83.17 100.62 83.22 99.48L83.86 99.56C83.84 99.9 83.81 100.21 83.76 100.51C84.02 100.92 84.31 101.24 84.62 101.47V99.04H82.64V98.38H86.88V99.04H85.26V100.1H86.63V100.74H85.26V101.83C85.32 101.85 85.37 101.87 85.41 101.89C85.99 102.07 87.3 102.16 89.35 102.16ZM83.09 94.22H86.5V97.71H83.09V94.22ZM85.8 97.11V96.26H83.79V97.11H85.8ZM83.79 95.7H85.8V94.82H83.79V95.7ZM87.02 94.23H91.34V94.89H89.54C89.51 95.17 89.47 95.43 89.41 95.69H91.06V99.73H90.39V96.31H87.97V99.73H87.33V95.69H88.76C88.82 95.43 88.86 95.16 88.89 94.89H87.02V94.23ZM89.9 99.76C90.52 100.24 91.04 100.72 91.46 101.2L90.95 101.7C90.58 101.24 90.07 100.74 89.42 100.22L89.9 99.76ZM88.85 96.78H89.51V98.19C89.49 99.14 89.3 99.9 88.96 100.47C88.62 101 88.06 101.41 87.3 101.71L86.91 101.09C87.63 100.83 88.13 100.47 88.42 100.02C88.68 99.55 88.83 98.94 88.85 98.19V96.78Z" fill="#1D2129"/>
<path d="M55.248 111.004H56.48V121H54.842V112.978C54.24 113.524 53.484 113.93 52.56 114.196V112.572C53.008 112.46 53.484 112.264 53.988 111.984C54.492 111.676 54.912 111.354 55.248 111.004ZM59.6742 118.886C60.0522 118.886 60.3742 119.04 60.6262 119.348C60.8642 119.656 60.9902 120.062 60.9902 120.552C60.9902 121.294 60.7662 121.938 60.3462 122.498C59.9122 123.044 59.3242 123.422 58.5962 123.632V122.708C58.9742 122.568 59.2962 122.344 59.5622 122.036C59.8142 121.7 59.9262 121.378 59.9262 121.042C59.8422 121.07 59.7302 121.098 59.5762 121.098C59.2682 121.098 59.0162 120.986 58.8062 120.776C58.5962 120.566 58.4982 120.3 58.4982 119.992C58.4982 119.656 58.6102 119.39 58.8342 119.194C59.0442 118.984 59.3242 118.886 59.6742 118.886ZM65.9517 110.808C66.9177 110.808 67.7157 111.088 68.3457 111.648C68.9617 112.208 69.2697 112.922 69.2697 113.818C69.2697 114.686 68.9337 115.47 68.2897 116.184C67.8977 116.604 67.1977 117.136 66.2177 117.794C65.1957 118.466 64.5797 119.054 64.3557 119.558H69.2837V121H62.3117C62.3117 119.978 62.6337 119.096 63.3057 118.34C63.6697 117.92 64.4397 117.304 65.6017 116.506C66.2457 116.058 66.6937 115.68 66.9737 115.386C67.4077 114.896 67.6317 114.364 67.6317 113.804C67.6317 113.258 67.4777 112.852 67.1977 112.586C66.9037 112.32 66.4697 112.194 65.8957 112.194C65.2797 112.194 64.8177 112.404 64.5097 112.824C64.2017 113.216 64.0337 113.818 64.0057 114.602H62.3677C62.3817 113.482 62.7037 112.586 63.3477 111.9C64.0057 111.172 64.8737 110.808 65.9517 110.808ZM71.2802 111.004H77.3702V112.446H72.5962L72.3162 115.19H72.3582C72.6662 114.882 73.0162 114.658 73.4222 114.518C73.7862 114.378 74.1922 114.308 74.6402 114.308C75.5782 114.308 76.3482 114.616 76.9362 115.232C77.5242 115.848 77.8322 116.702 77.8322 117.78C77.8322 118.816 77.4402 119.656 76.6562 120.314C75.9282 120.902 75.0742 121.196 74.0802 121.196C73.1702 121.196 72.3862 120.944 71.7422 120.454C71.0142 119.908 70.6222 119.166 70.5522 118.242H72.1622C72.2322 118.788 72.4422 119.194 72.8062 119.46C73.1142 119.684 73.5482 119.81 74.0942 119.81C74.6822 119.81 75.1862 119.628 75.5922 119.264C75.9842 118.9 76.1942 118.41 76.1942 117.794C76.1942 117.122 76.0122 116.59 75.6762 116.212C75.3402 115.82 74.8362 115.638 74.1922 115.638C73.7582 115.638 73.3802 115.708 73.0722 115.862C72.7222 116.03 72.4562 116.282 72.2602 116.632H70.7342L71.2802 111.004ZM82.7267 110.808C84.6867 110.808 85.7927 111.718 86.0447 113.538H84.4487C84.2527 112.614 83.6647 112.152 82.7127 112.152C82.0407 112.152 81.5087 112.474 81.1167 113.132C80.7247 113.748 80.5427 114.518 80.5427 115.442V115.568H80.6127C80.8927 115.148 81.2427 114.854 81.6627 114.658C82.0547 114.462 82.5027 114.378 83.0067 114.378C83.9867 114.378 84.7707 114.686 85.3587 115.316C85.9467 115.946 86.2407 116.758 86.2407 117.738C86.2407 118.746 85.8907 119.572 85.2187 120.216C84.5467 120.86 83.7067 121.196 82.7127 121.196C81.4807 121.196 80.5427 120.748 79.8987 119.866C79.2547 118.998 78.9467 117.808 78.9467 116.282C78.9467 114.644 79.2827 113.328 79.9687 112.32C80.6407 111.312 81.5647 110.808 82.7267 110.808ZM82.6567 115.708C82.0407 115.708 81.5647 115.89 81.2287 116.268C80.8787 116.632 80.7107 117.15 80.7107 117.794C80.7107 118.424 80.8927 118.928 81.2567 119.292C81.6207 119.656 82.0827 119.838 82.6567 119.838C83.2447 119.838 83.7067 119.642 84.0707 119.25C84.4347 118.858 84.6167 118.354 84.6167 117.738C84.6167 117.122 84.4347 116.632 84.0987 116.268C83.7347 115.89 83.2587 115.708 82.6567 115.708Z" fill="#1D2129"/>
<path d="M58.512 136.768H57.448L57.288 136.192L58.328 136.216C58.528 136.216 58.632 136.096 58.632 135.856V130.336H53.368V136.792H52.792V129.776H59.208V135.984C59.208 136.504 58.976 136.768 58.512 136.768ZM53.952 131.256H58.056V131.792H53.952V131.256ZM54.4 132.656H57.608V135.232H54.4V132.656ZM57.048 134.72V133.176H54.96V134.72H57.048ZM64.808 132.64V135.672C64.808 135.904 64.92 136.024 65.16 136.024H66.36C66.512 136.024 66.64 135.976 66.736 135.88C66.864 135.744 66.952 135.272 66.984 134.456L67.536 134.632C67.464 135.56 67.344 136.128 67.176 136.32C67.016 136.48 66.792 136.568 66.504 136.576H64.992C64.48 136.576 64.224 136.304 64.224 135.776V129.56H64.808V132.096C65.592 131.872 66.352 131.56 67.096 131.152L67.44 131.624C66.52 132.08 65.64 132.416 64.808 132.64ZM60.976 136.68L60.8 136.144C60.928 136.064 60.992 135.952 60.992 135.8V129.6H61.568V131.832H63.624V132.392H61.568V135.976C62.272 135.816 62.968 135.616 63.664 135.384L63.816 135.928C62.936 136.208 61.984 136.456 60.976 136.68Z" fill="#86909C"/>
<path d="M74.456 130.176C75 130.176 75.448 130.312 75.784 130.592C76.112 130.872 76.28 131.248 76.28 131.728C76.28 132.368 75.968 132.8 75.344 133.008C75.68 133.112 75.936 133.272 76.112 133.496C76.304 133.72 76.4 134 76.4 134.336C76.4 134.856 76.216 135.28 75.856 135.608C75.488 135.944 75.008 136.112 74.416 136.112C73.872 136.112 73.432 135.968 73.088 135.696C72.68 135.36 72.456 134.872 72.408 134.232H73.072C73.088 134.68 73.24 135.024 73.52 135.256C73.76 135.448 74.056 135.552 74.416 135.552C74.824 135.552 75.152 135.432 75.4 135.2C75.624 134.976 75.744 134.696 75.744 134.36C75.744 134.016 75.632 133.752 75.408 133.56C75.184 133.368 74.88 133.28 74.48 133.28H74.016V132.768H74.456C74.84 132.768 75.128 132.68 75.328 132.512C75.528 132.336 75.632 132.088 75.632 131.768C75.632 131.448 75.528 131.2 75.336 131.024C75.128 130.832 74.832 130.744 74.464 130.744C74.08 130.744 73.784 130.84 73.568 131.048C73.344 131.256 73.216 131.552 73.176 131.936H72.528C72.576 131.384 72.784 130.952 73.136 130.64C73.472 130.328 73.912 130.176 74.456 130.176ZM82.7089 132.872C83.1329 132.872 83.4609 133.024 83.6929 133.344C83.8929 133.616 83.9969 133.984 83.9969 134.44C83.9969 134.888 83.8929 135.256 83.6929 135.536C83.4609 135.84 83.1329 136 82.7089 136C82.2769 136 81.9489 135.84 81.7249 135.536C81.5169 135.248 81.4209 134.888 81.4209 134.44C81.4209 133.984 81.5169 133.616 81.7249 133.344C81.9489 133.024 82.2769 132.872 82.7089 132.872ZM82.0209 130.176H82.5329L79.3329 136.112H78.8129L82.0209 130.176ZM78.6449 130.288C79.0689 130.288 79.3969 130.44 79.6289 130.76C79.8289 131.032 79.9329 131.4 79.9329 131.856C79.9329 132.304 79.8289 132.672 79.6289 132.952C79.3969 133.256 79.0689 133.416 78.6449 133.416C78.2129 133.416 77.8849 133.256 77.6609 132.952C77.4529 132.664 77.3569 132.304 77.3569 131.856C77.3569 131.4 77.4529 131.032 77.6609 130.76C77.8849 130.44 78.2129 130.288 78.6449 130.288ZM82.7089 133.304C82.4609 133.304 82.2849 133.416 82.1729 133.64C82.0689 133.832 82.0209 134.096 82.0209 134.44C82.0209 134.768 82.0689 135.032 82.1729 135.224C82.2849 135.448 82.4609 135.568 82.7089 135.568C82.9489 135.568 83.1249 135.448 83.2449 135.216C83.3409 135.024 83.3969 134.768 83.3969 134.44C83.3969 134.104 83.3409 133.84 83.2449 133.648C83.1249 133.416 82.9489 133.304 82.7089 133.304ZM78.6449 130.72C78.3969 130.72 78.2209 130.832 78.1089 131.056C78.0049 131.248 77.9569 131.512 77.9569 131.856C77.9569 132.184 78.0049 132.448 78.1089 132.64C78.2209 132.864 78.3969 132.984 78.6449 132.984C78.8849 132.984 79.0609 132.864 79.1809 132.632C79.2769 132.44 79.3329 132.184 79.3329 131.856C79.3329 131.52 79.2769 131.256 79.1729 131.064C79.0609 130.832 78.8849 130.72 78.6449 130.72Z" fill="#00B42A"/>
<path d="M92.7499 133V132.166C92.7499 130.726 91.9373 129.474 90.7455 128.847C90.8569 128.838 90.9695 128.833 91.0833 128.833C93.3844 128.833 95.2499 130.698 95.2499 133H97.3333L93.9999 137.166L90.6666 133H92.7499Z" fill="#00B42A"/>
<rect x="129" y="103" width="24" height="24" rx="4" fill="url(#paint3_linear_12239_22037)"/>
<path d="M140.417 109.195V115.583H146.805C146.512 118.531 144.025 120.833 141 120.833C137.778 120.833 135.167 118.222 135.167 115C135.167 111.975 137.469 109.488 140.417 109.195ZM141.583 109.195C144.339 109.469 146.531 111.661 146.805 114.416H141.583V109.195Z" fill="white"/>
<path d="M166.08 95.9V96.52C166.08 96.76 166.21 96.88 166.47 96.88H169C169.22 96.88 169.38 96.83 169.48 96.73C169.6 96.6 169.69 96.22 169.73 95.58L170.39 95.79C170.32 96.63 170.18 97.13 169.98 97.31C169.8 97.47 169.51 97.55 169.13 97.55H166.26C165.68 97.55 165.39 97.25 165.39 96.67V93.89H166.08V95.26C167.29 95.02 168.47 94.66 169.63 94.18L170.03 94.75C168.65 95.27 167.33 95.65 166.08 95.9ZM162.81 102.91H161.75L161.6 102.22C161.94 102.25 162.26 102.27 162.56 102.27C162.82 102.27 162.95 102.12 162.95 101.84V99.45C162.51 99.6 162.06 99.74 161.61 99.86L161.44 99.14C161.95 99.03 162.45 98.89 162.95 98.73V96.44H161.6V95.75H162.95V93.87H163.64V95.75H164.75V96.44H163.64V98.49C164.06 98.32 164.46 98.14 164.86 97.95V98.68C164.46 98.86 164.05 99.04 163.64 99.2V102.02C163.64 102.61 163.36 102.91 162.81 102.91ZM170.03 98.32V103H169.31V102.49H166.18V103H165.47V98.32H170.03ZM166.18 101.85H169.31V100.71H166.18V101.85ZM166.18 100.07H169.31V98.95H166.18V100.07ZM172.91 93.86H173.62V95.75H174.78V96.44H173.62V97.21C174.11 97.71 174.6 98.27 175.09 98.88L174.68 99.49C174.27 98.86 173.92 98.36 173.62 97.98V102.99H172.91V98.01C172.59 98.95 172.18 99.81 171.68 100.59L171.37 99.81C172.09 98.83 172.6 97.7 172.91 96.44H171.69V95.75H172.91V93.86ZM175.86 98.38L176.52 98.53C176.2 99.93 175.73 101.13 175.13 102.15L174.51 101.75C175.13 100.74 175.58 99.62 175.86 98.38ZM179.48 98.33C179.9 99.46 180.26 100.67 180.56 101.95L179.91 102.24C179.58 100.85 179.22 99.62 178.83 98.54L179.48 98.33ZM177.24 102.89H176.22L176.08 102.22C176.4 102.24 176.7 102.26 176.99 102.26C177.26 102.26 177.4 102.11 177.4 101.82V97.55H174.96V96.86H180.57V97.55H178.12V102C178.12 102.59 177.82 102.89 177.24 102.89ZM175.49 94.43H180.05V95.11H175.49V94.43ZM182.91 93.86H183.62V95.75H184.78V96.44H183.62V97.21C184.11 97.71 184.6 98.27 185.09 98.88L184.68 99.49C184.27 98.86 183.92 98.36 183.62 97.98V102.99H182.91V98.01C182.59 98.95 182.18 99.81 181.68 100.59L181.37 99.81C182.09 98.83 182.6 97.7 182.91 96.44H181.69V95.75H182.91V93.86ZM185.86 98.38L186.52 98.53C186.2 99.93 185.73 101.13 185.13 102.15L184.51 101.75C185.13 100.74 185.58 99.62 185.86 98.38ZM189.48 98.33C189.9 99.46 190.26 100.67 190.56 101.95L189.91 102.24C189.58 100.85 189.22 99.62 188.83 98.54L189.48 98.33ZM187.24 102.89H186.22L186.08 102.22C186.4 102.24 186.7 102.26 186.99 102.26C187.26 102.26 187.4 102.11 187.4 101.82V97.55H184.96V96.86H190.57V97.55H188.12V102C188.12 102.59 187.82 102.89 187.24 102.89ZM185.49 94.43H190.05V95.11H185.49V94.43ZM198.35 102.16C199.35 102.16 200.1 102.14 200.6 102.12L200.48 102.84H198.51C196.11 102.84 194.62 102.71 194.02 102.45C193.49 102.23 193.02 101.82 192.61 101.24C192.43 101.88 192.18 102.47 191.86 103.01L191.34 102.55C191.88 101.64 192.17 100.62 192.22 99.48L192.86 99.56C192.84 99.9 192.81 100.21 192.76 100.51C193.02 100.92 193.31 101.24 193.62 101.47V99.04H191.64V98.38H195.88V99.04H194.26V100.1H195.63V100.74H194.26V101.83C194.32 101.85 194.37 101.87 194.41 101.89C194.99 102.07 196.3 102.16 198.35 102.16ZM192.09 94.22H195.5V97.71H192.09V94.22ZM194.8 97.11V96.26H192.79V97.11H194.8ZM192.79 95.7H194.8V94.82H192.79V95.7ZM196.02 94.23H200.34V94.89H198.54C198.51 95.17 198.47 95.43 198.41 95.69H200.06V99.73H199.39V96.31H196.97V99.73H196.33V95.69H197.76C197.82 95.43 197.86 95.16 197.89 94.89H196.02V94.23ZM198.9 99.76C199.52 100.24 200.04 100.72 200.46 101.2L199.95 101.7C199.58 101.24 199.07 100.74 198.42 100.22L198.9 99.76ZM197.85 96.78H198.51V98.19C198.49 99.14 198.3 99.9 197.96 100.47C197.62 101 197.06 101.41 196.3 101.71L195.91 101.09C196.63 100.83 197.13 100.47 197.42 100.02C197.68 99.55 197.83 98.94 197.85 98.19V96.78Z" fill="#1D2129"/>
<path d="M164.248 111.004H165.48V121H163.842V112.978C163.24 113.524 162.484 113.93 161.56 114.196V112.572C162.008 112.46 162.484 112.264 162.988 111.984C163.492 111.676 163.912 111.354 164.248 111.004ZM168.674 118.886C169.052 118.886 169.374 119.04 169.626 119.348C169.864 119.656 169.99 120.062 169.99 120.552C169.99 121.294 169.766 121.938 169.346 122.498C168.912 123.044 168.324 123.422 167.596 123.632V122.708C167.974 122.568 168.296 122.344 168.562 122.036C168.814 121.7 168.926 121.378 168.926 121.042C168.842 121.07 168.73 121.098 168.576 121.098C168.268 121.098 168.016 120.986 167.806 120.776C167.596 120.566 167.498 120.3 167.498 119.992C167.498 119.656 167.61 119.39 167.834 119.194C168.044 118.984 168.324 118.886 168.674 118.886ZM174.952 110.808C175.918 110.808 176.716 111.088 177.346 111.648C177.962 112.208 178.27 112.922 178.27 113.818C178.27 114.686 177.934 115.47 177.29 116.184C176.898 116.604 176.198 117.136 175.218 117.794C174.196 118.466 173.58 119.054 173.356 119.558H178.284V121H171.312C171.312 119.978 171.634 119.096 172.306 118.34C172.67 117.92 173.44 117.304 174.602 116.506C175.246 116.058 175.694 115.68 175.974 115.386C176.408 114.896 176.632 114.364 176.632 113.804C176.632 113.258 176.478 112.852 176.198 112.586C175.904 112.32 175.47 112.194 174.896 112.194C174.28 112.194 173.818 112.404 173.51 112.824C173.202 113.216 173.034 113.818 173.006 114.602H171.368C171.382 113.482 171.704 112.586 172.348 111.9C173.006 111.172 173.874 110.808 174.952 110.808ZM180.28 111.004H186.37V112.446H181.596L181.316 115.19H181.358C181.666 114.882 182.016 114.658 182.422 114.518C182.786 114.378 183.192 114.308 183.64 114.308C184.578 114.308 185.348 114.616 185.936 115.232C186.524 115.848 186.832 116.702 186.832 117.78C186.832 118.816 186.44 119.656 185.656 120.314C184.928 120.902 184.074 121.196 183.08 121.196C182.17 121.196 181.386 120.944 180.742 120.454C180.014 119.908 179.622 119.166 179.552 118.242H181.162C181.232 118.788 181.442 119.194 181.806 119.46C182.114 119.684 182.548 119.81 183.094 119.81C183.682 119.81 184.186 119.628 184.592 119.264C184.984 118.9 185.194 118.41 185.194 117.794C185.194 117.122 185.012 116.59 184.676 116.212C184.34 115.82 183.836 115.638 183.192 115.638C182.758 115.638 182.38 115.708 182.072 115.862C181.722 116.03 181.456 116.282 181.26 116.632H179.734L180.28 111.004ZM191.727 110.808C193.687 110.808 194.793 111.718 195.045 113.538H193.449C193.253 112.614 192.665 112.152 191.713 112.152C191.041 112.152 190.509 112.474 190.117 113.132C189.725 113.748 189.543 114.518 189.543 115.442V115.568H189.613C189.893 115.148 190.243 114.854 190.663 114.658C191.055 114.462 191.503 114.378 192.007 114.378C192.987 114.378 193.771 114.686 194.359 115.316C194.947 115.946 195.241 116.758 195.241 117.738C195.241 118.746 194.891 119.572 194.219 120.216C193.547 120.86 192.707 121.196 191.713 121.196C190.481 121.196 189.543 120.748 188.899 119.866C188.255 118.998 187.947 117.808 187.947 116.282C187.947 114.644 188.283 113.328 188.969 112.32C189.641 111.312 190.565 110.808 191.727 110.808ZM191.657 115.708C191.041 115.708 190.565 115.89 190.229 116.268C189.879 116.632 189.711 117.15 189.711 117.794C189.711 118.424 189.893 118.928 190.257 119.292C190.621 119.656 191.083 119.838 191.657 119.838C192.245 119.838 192.707 119.642 193.071 119.25C193.435 118.858 193.617 118.354 193.617 117.738C193.617 117.122 193.435 116.632 193.099 116.268C192.735 115.89 192.259 115.708 191.657 115.708Z" fill="#1D2129"/>
<path d="M167.512 136.768H166.448L166.288 136.192L167.328 136.216C167.528 136.216 167.632 136.096 167.632 135.856V130.336H162.368V136.792H161.792V129.776H168.208V135.984C168.208 136.504 167.976 136.768 167.512 136.768ZM162.952 131.256H167.056V131.792H162.952V131.256ZM163.4 132.656H166.608V135.232H163.4V132.656ZM166.048 134.72V133.176H163.96V134.72H166.048ZM173.808 132.64V135.672C173.808 135.904 173.92 136.024 174.16 136.024H175.36C175.512 136.024 175.64 135.976 175.736 135.88C175.864 135.744 175.952 135.272 175.984 134.456L176.536 134.632C176.464 135.56 176.344 136.128 176.176 136.32C176.016 136.48 175.792 136.568 175.504 136.576H173.992C173.48 136.576 173.224 136.304 173.224 135.776V129.56H173.808V132.096C174.592 131.872 175.352 131.56 176.096 131.152L176.44 131.624C175.52 132.08 174.64 132.416 173.808 132.64ZM169.976 136.68L169.8 136.144C169.928 136.064 169.992 135.952 169.992 135.8V129.6H170.568V131.832H172.624V132.392H170.568V135.976C171.272 135.816 171.968 135.616 172.664 135.384L172.816 135.928C171.936 136.208 170.984 136.456 169.976 136.68Z" fill="#86909C"/>
<path d="M183.456 130.176C184 130.176 184.448 130.312 184.784 130.592C185.112 130.872 185.28 131.248 185.28 131.728C185.28 132.368 184.968 132.8 184.344 133.008C184.68 133.112 184.936 133.272 185.112 133.496C185.304 133.72 185.4 134 185.4 134.336C185.4 134.856 185.216 135.28 184.856 135.608C184.488 135.944 184.008 136.112 183.416 136.112C182.872 136.112 182.432 135.968 182.088 135.696C181.68 135.36 181.456 134.872 181.408 134.232H182.072C182.088 134.68 182.24 135.024 182.52 135.256C182.76 135.448 183.056 135.552 183.416 135.552C183.824 135.552 184.152 135.432 184.4 135.2C184.624 134.976 184.744 134.696 184.744 134.36C184.744 134.016 184.632 133.752 184.408 133.56C184.184 133.368 183.88 133.28 183.48 133.28H183.016V132.768H183.456C183.84 132.768 184.128 132.68 184.328 132.512C184.528 132.336 184.632 132.088 184.632 131.768C184.632 131.448 184.528 131.2 184.336 131.024C184.128 130.832 183.832 130.744 183.464 130.744C183.08 130.744 182.784 130.84 182.568 131.048C182.344 131.256 182.216 131.552 182.176 131.936H181.528C181.576 131.384 181.784 130.952 182.136 130.64C182.472 130.328 182.912 130.176 183.456 130.176ZM191.709 132.872C192.133 132.872 192.461 133.024 192.693 133.344C192.893 133.616 192.997 133.984 192.997 134.44C192.997 134.888 192.893 135.256 192.693 135.536C192.461 135.84 192.133 136 191.709 136C191.277 136 190.949 135.84 190.725 135.536C190.517 135.248 190.421 134.888 190.421 134.44C190.421 133.984 190.517 133.616 190.725 133.344C190.949 133.024 191.277 132.872 191.709 132.872ZM191.021 130.176H191.533L188.333 136.112H187.813L191.021 130.176ZM187.645 130.288C188.069 130.288 188.397 130.44 188.629 130.76C188.829 131.032 188.933 131.4 188.933 131.856C188.933 132.304 188.829 132.672 188.629 132.952C188.397 133.256 188.069 133.416 187.645 133.416C187.213 133.416 186.885 133.256 186.661 132.952C186.453 132.664 186.357 132.304 186.357 131.856C186.357 131.4 186.453 131.032 186.661 130.76C186.885 130.44 187.213 130.288 187.645 130.288ZM191.709 133.304C191.461 133.304 191.285 133.416 191.173 133.64C191.069 133.832 191.021 134.096 191.021 134.44C191.021 134.768 191.069 135.032 191.173 135.224C191.285 135.448 191.461 135.568 191.709 135.568C191.949 135.568 192.125 135.448 192.245 135.216C192.341 135.024 192.397 134.768 192.397 134.44C192.397 134.104 192.341 133.84 192.245 133.648C192.125 133.416 191.949 133.304 191.709 133.304ZM187.645 130.72C187.397 130.72 187.221 130.832 187.109 131.056C187.005 131.248 186.957 131.512 186.957 131.856C186.957 132.184 187.005 132.448 187.109 132.64C187.221 132.864 187.397 132.984 187.645 132.984C187.885 132.984 188.061 132.864 188.181 132.632C188.277 132.44 188.333 132.184 188.333 131.856C188.333 131.52 188.277 131.256 188.173 131.064C188.061 130.832 187.885 130.72 187.645 130.72Z" fill="#00B42A"/>
<path d="M201.75 133V132.166C201.75 130.726 200.937 129.474 199.745 128.847C199.857 128.838 199.97 128.833 200.083 128.833C202.384 128.833 204.25 130.698 204.25 133H206.333L203 137.166L199.667 133H201.75Z" fill="#00B42A"/>
<defs>
<linearGradient id="paint0_linear_12239_22037" x1="32" y1="31" x2="32" y2="55" gradientUnits="userSpaceOnUse">
<stop stop-color="#24B28F" stop-opacity="0.6"/>
<stop offset="1" stop-color="#24B28F"/>
</linearGradient>
<linearGradient id="paint1_linear_12239_22037" x1="141" y1="31" x2="141" y2="55" gradientUnits="userSpaceOnUse">
<stop stop-color="#FF7D00" stop-opacity="0.6"/>
<stop offset="1" stop-color="#FF7D00"/>
</linearGradient>
<linearGradient id="paint2_linear_12239_22037" x1="32" y1="103" x2="32" y2="127" gradientUnits="userSpaceOnUse">
<stop stop-color="#1979FF" stop-opacity="0.6"/>
<stop offset="1" stop-color="#1979FF"/>
</linearGradient>
<linearGradient id="paint3_linear_12239_22037" x1="141" y1="103" x2="141" y2="127" gradientUnits="userSpaceOnUse">
<stop stop-color="#7E5AEA" stop-opacity="0.6"/>
<stop offset="1" stop-color="#7E5AEA"/>
</linearGradient>
</defs>
</svg>
