<svg width="232" height="158" viewBox="0 0 232 158" fill="none" xmlns="http://www.w3.org/2000/svg">
<rect width="232" height="158" rx="8" fill="white"/>
<rect x="12" y="12" width="99" height="62" rx="4" fill="#E8FFF5"/>
<path d="M25.08 23.9V24.52C25.08 24.76 25.21 24.88 25.47 24.88H28C28.22 24.88 28.38 24.83 28.48 24.73C28.6 24.6 28.69 24.22 28.73 23.58L29.39 23.79C29.32 24.63 29.18 25.13 28.98 25.31C28.8 25.47 28.51 25.55 28.13 25.55H25.26C24.68 25.55 24.39 25.25 24.39 24.67V21.89H25.08V23.26C26.29 23.02 27.47 22.66 28.63 22.18L29.03 22.75C27.65 23.27 26.33 23.65 25.08 23.9ZM21.81 30.91H20.75L20.6 30.22C20.94 30.25 21.26 30.27 21.56 30.27C21.82 30.27 21.95 30.12 21.95 29.84V27.45C21.51 27.6 21.06 27.74 20.61 27.86L20.44 27.14C20.95 27.03 21.45 26.89 21.95 26.73V24.44H20.6V23.75H21.95V21.87H22.64V23.75H23.75V24.44H22.64V26.49C23.06 26.32 23.46 26.14 23.86 25.95V26.68C23.46 26.86 23.05 27.04 22.64 27.2V30.02C22.64 30.61 22.36 30.91 21.81 30.91ZM29.03 26.32V31H28.31V30.49H25.18V31H24.47V26.32H29.03ZM25.18 29.85H28.31V28.71H25.18V29.85ZM25.18 28.07H28.31V26.95H25.18V28.07ZM31.91 21.86H32.62V23.75H33.78V24.44H32.62V25.21C33.11 25.71 33.6 26.27 34.09 26.88L33.68 27.49C33.27 26.86 32.92 26.36 32.62 25.98V30.99H31.91V26.01C31.59 26.95 31.18 27.81 30.68 28.59L30.37 27.81C31.09 26.83 31.6 25.7 31.91 24.44H30.69V23.75H31.91V21.86ZM34.86 26.38L35.52 26.53C35.2 27.93 34.73 29.13 34.13 30.15L33.51 29.75C34.13 28.74 34.58 27.62 34.86 26.38ZM38.48 26.33C38.9 27.46 39.26 28.67 39.56 29.95L38.91 30.24C38.58 28.85 38.22 27.62 37.83 26.54L38.48 26.33ZM36.24 30.89H35.22L35.08 30.22C35.4 30.24 35.7 30.26 35.99 30.26C36.26 30.26 36.4 30.11 36.4 29.82V25.55H33.96V24.86H39.57V25.55H37.12V30C37.12 30.59 36.82 30.89 36.24 30.89ZM34.49 22.43H39.05V23.11H34.49V22.43ZM41.91 21.86H42.62V23.75H43.78V24.44H42.62V25.21C43.11 25.71 43.6 26.27 44.09 26.88L43.68 27.49C43.27 26.86 42.92 26.36 42.62 25.98V30.99H41.91V26.01C41.59 26.95 41.18 27.81 40.68 28.59L40.37 27.81C41.09 26.83 41.6 25.7 41.91 24.44H40.69V23.75H41.91V21.86ZM44.86 26.38L45.52 26.53C45.2 27.93 44.73 29.13 44.13 30.15L43.51 29.75C44.13 28.74 44.58 27.62 44.86 26.38ZM48.48 26.33C48.9 27.46 49.26 28.67 49.56 29.95L48.91 30.24C48.58 28.85 48.22 27.62 47.83 26.54L48.48 26.33ZM46.24 30.89H45.22L45.08 30.22C45.4 30.24 45.7 30.26 45.99 30.26C46.26 30.26 46.4 30.11 46.4 29.82V25.55H43.96V24.86H49.57V25.55H47.12V30C47.12 30.59 46.82 30.89 46.24 30.89ZM44.49 22.43H49.05V23.11H44.49V22.43ZM57.35 30.16C58.35 30.16 59.1 30.14 59.6 30.12L59.48 30.84H57.51C55.11 30.84 53.62 30.71 53.02 30.45C52.49 30.23 52.02 29.82 51.61 29.24C51.43 29.88 51.18 30.47 50.86 31.01L50.34 30.55C50.88 29.64 51.17 28.62 51.22 27.48L51.86 27.56C51.84 27.9 51.81 28.21 51.76 28.51C52.02 28.92 52.31 29.24 52.62 29.47V27.04H50.64V26.38H54.88V27.04H53.26V28.1H54.63V28.74H53.26V29.83C53.32 29.85 53.37 29.87 53.41 29.89C53.99 30.07 55.3 30.16 57.35 30.16ZM51.09 22.22H54.5V25.71H51.09V22.22ZM53.8 25.11V24.26H51.79V25.11H53.8ZM51.79 23.7H53.8V22.82H51.79V23.7ZM55.02 22.23H59.34V22.89H57.54C57.51 23.17 57.47 23.43 57.41 23.69H59.06V27.73H58.39V24.31H55.97V27.73H55.33V23.69H56.76C56.82 23.43 56.86 23.16 56.89 22.89H55.02V22.23ZM57.9 27.76C58.52 28.24 59.04 28.72 59.46 29.2L58.95 29.7C58.58 29.24 58.07 28.74 57.42 28.22L57.9 27.76ZM56.85 24.78H57.51V26.19C57.49 27.14 57.3 27.9 56.96 28.47C56.62 29 56.06 29.41 55.3 29.71L54.91 29.09C55.63 28.83 56.13 28.47 56.42 28.02C56.68 27.55 56.83 26.94 56.85 26.19V24.78Z" fill="#1D2129"/>
<path d="M23.248 39.004H24.48V49H22.842V40.978C22.24 41.524 21.484 41.93 20.56 42.196V40.572C21.008 40.46 21.484 40.264 21.988 39.984C22.492 39.676 22.912 39.354 23.248 39.004ZM27.6742 46.886C28.0522 46.886 28.3742 47.04 28.6262 47.348C28.8642 47.656 28.9902 48.062 28.9902 48.552C28.9902 49.294 28.7662 49.938 28.3462 50.498C27.9122 51.044 27.3242 51.422 26.5962 51.632V50.708C26.9742 50.568 27.2962 50.344 27.5622 50.036C27.8142 49.7 27.9262 49.378 27.9262 49.042C27.8422 49.07 27.7302 49.098 27.5762 49.098C27.2682 49.098 27.0162 48.986 26.8062 48.776C26.5962 48.566 26.4982 48.3 26.4982 47.992C26.4982 47.656 26.6102 47.39 26.8342 47.194C27.0442 46.984 27.3242 46.886 27.6742 46.886ZM33.9517 38.808C34.9177 38.808 35.7157 39.088 36.3457 39.648C36.9617 40.208 37.2697 40.922 37.2697 41.818C37.2697 42.686 36.9337 43.47 36.2897 44.184C35.8977 44.604 35.1977 45.136 34.2177 45.794C33.1957 46.466 32.5797 47.054 32.3557 47.558H37.2837V49H30.3117C30.3117 47.978 30.6337 47.096 31.3057 46.34C31.6697 45.92 32.4397 45.304 33.6017 44.506C34.2457 44.058 34.6937 43.68 34.9737 43.386C35.4077 42.896 35.6317 42.364 35.6317 41.804C35.6317 41.258 35.4777 40.852 35.1977 40.586C34.9037 40.32 34.4697 40.194 33.8957 40.194C33.2797 40.194 32.8177 40.404 32.5097 40.824C32.2017 41.216 32.0337 41.818 32.0057 42.602H30.3677C30.3817 41.482 30.7037 40.586 31.3477 39.9C32.0057 39.172 32.8737 38.808 33.9517 38.808ZM39.2802 39.004H45.3702V40.446H40.5962L40.3162 43.19H40.3582C40.6662 42.882 41.0162 42.658 41.4222 42.518C41.7862 42.378 42.1922 42.308 42.6402 42.308C43.5782 42.308 44.3482 42.616 44.9362 43.232C45.5242 43.848 45.8322 44.702 45.8322 45.78C45.8322 46.816 45.4402 47.656 44.6562 48.314C43.9282 48.902 43.0742 49.196 42.0802 49.196C41.1702 49.196 40.3862 48.944 39.7422 48.454C39.0142 47.908 38.6222 47.166 38.5522 46.242H40.1622C40.2322 46.788 40.4422 47.194 40.8062 47.46C41.1142 47.684 41.5482 47.81 42.0942 47.81C42.6822 47.81 43.1862 47.628 43.5922 47.264C43.9842 46.9 44.1942 46.41 44.1942 45.794C44.1942 45.122 44.0122 44.59 43.6762 44.212C43.3402 43.82 42.8362 43.638 42.1922 43.638C41.7582 43.638 41.3802 43.708 41.0722 43.862C40.7222 44.03 40.4562 44.282 40.2602 44.632H38.7342L39.2802 39.004ZM50.7267 38.808C52.6867 38.808 53.7927 39.718 54.0447 41.538H52.4487C52.2527 40.614 51.6647 40.152 50.7127 40.152C50.0407 40.152 49.5087 40.474 49.1167 41.132C48.7247 41.748 48.5427 42.518 48.5427 43.442V43.568H48.6127C48.8927 43.148 49.2427 42.854 49.6627 42.658C50.0547 42.462 50.5027 42.378 51.0067 42.378C51.9867 42.378 52.7707 42.686 53.3587 43.316C53.9467 43.946 54.2407 44.758 54.2407 45.738C54.2407 46.746 53.8907 47.572 53.2187 48.216C52.5467 48.86 51.7067 49.196 50.7127 49.196C49.4807 49.196 48.5427 48.748 47.8987 47.866C47.2547 46.998 46.9467 45.808 46.9467 44.282C46.9467 42.644 47.2827 41.328 47.9687 40.32C48.6407 39.312 49.5647 38.808 50.7267 38.808ZM50.6567 43.708C50.0407 43.708 49.5647 43.89 49.2287 44.268C48.8787 44.632 48.7107 45.15 48.7107 45.794C48.7107 46.424 48.8927 46.928 49.2567 47.292C49.6207 47.656 50.0827 47.838 50.6567 47.838C51.2447 47.838 51.7067 47.642 52.0707 47.25C52.4347 46.858 52.6167 46.354 52.6167 45.738C52.6167 45.122 52.4347 44.632 52.0987 44.268C51.7347 43.89 51.2587 43.708 50.6567 43.708Z" fill="#1D2129"/>
<path d="M26.512 64.768H25.448L25.288 64.192L26.328 64.216C26.528 64.216 26.632 64.096 26.632 63.856V58.336H21.368V64.792H20.792V57.776H27.208V63.984C27.208 64.504 26.976 64.768 26.512 64.768ZM21.952 59.256H26.056V59.792H21.952V59.256ZM22.4 60.656H25.608V63.232H22.4V60.656ZM25.048 62.72V61.176H22.96V62.72H25.048ZM32.808 60.64V63.672C32.808 63.904 32.92 64.024 33.16 64.024H34.36C34.512 64.024 34.64 63.976 34.736 63.88C34.864 63.744 34.952 63.272 34.984 62.456L35.536 62.632C35.464 63.56 35.344 64.128 35.176 64.32C35.016 64.48 34.792 64.568 34.504 64.576H32.992C32.48 64.576 32.224 64.304 32.224 63.776V57.56H32.808V60.096C33.592 59.872 34.352 59.56 35.096 59.152L35.44 59.624C34.52 60.08 33.64 60.416 32.808 60.64ZM28.976 64.68L28.8 64.144C28.928 64.064 28.992 63.952 28.992 63.8V57.6H29.568V59.832H31.624V60.392H29.568V63.976C30.272 63.816 30.968 63.616 31.664 63.384L31.816 63.928C30.936 64.208 29.984 64.456 28.976 64.68Z" fill="#86909C"/>
<path d="M42.456 58.176C43 58.176 43.448 58.312 43.784 58.592C44.112 58.872 44.28 59.248 44.28 59.728C44.28 60.368 43.968 60.8 43.344 61.008C43.68 61.112 43.936 61.272 44.112 61.496C44.304 61.72 44.4 62 44.4 62.336C44.4 62.856 44.216 63.28 43.856 63.608C43.488 63.944 43.008 64.112 42.416 64.112C41.872 64.112 41.432 63.968 41.088 63.696C40.68 63.36 40.456 62.872 40.408 62.232H41.072C41.088 62.68 41.24 63.024 41.52 63.256C41.76 63.448 42.056 63.552 42.416 63.552C42.824 63.552 43.152 63.432 43.4 63.2C43.624 62.976 43.744 62.696 43.744 62.36C43.744 62.016 43.632 61.752 43.408 61.56C43.184 61.368 42.88 61.28 42.48 61.28H42.016V60.768H42.456C42.84 60.768 43.128 60.68 43.328 60.512C43.528 60.336 43.632 60.088 43.632 59.768C43.632 59.448 43.528 59.2 43.336 59.024C43.128 58.832 42.832 58.744 42.464 58.744C42.08 58.744 41.784 58.84 41.568 59.048C41.344 59.256 41.216 59.552 41.176 59.936H40.528C40.576 59.384 40.784 58.952 41.136 58.64C41.472 58.328 41.912 58.176 42.456 58.176ZM50.7089 60.872C51.1329 60.872 51.4609 61.024 51.6929 61.344C51.8929 61.616 51.9969 61.984 51.9969 62.44C51.9969 62.888 51.8929 63.256 51.6929 63.536C51.4609 63.84 51.1329 64 50.7089 64C50.2769 64 49.9489 63.84 49.7249 63.536C49.5169 63.248 49.4209 62.888 49.4209 62.44C49.4209 61.984 49.5169 61.616 49.7249 61.344C49.9489 61.024 50.2769 60.872 50.7089 60.872ZM50.0209 58.176H50.5329L47.3329 64.112H46.8129L50.0209 58.176ZM46.6449 58.288C47.0689 58.288 47.3969 58.44 47.6289 58.76C47.8289 59.032 47.9329 59.4 47.9329 59.856C47.9329 60.304 47.8289 60.672 47.6289 60.952C47.3969 61.256 47.0689 61.416 46.6449 61.416C46.2129 61.416 45.8849 61.256 45.6609 60.952C45.4529 60.664 45.3569 60.304 45.3569 59.856C45.3569 59.4 45.4529 59.032 45.6609 58.76C45.8849 58.44 46.2129 58.288 46.6449 58.288ZM50.7089 61.304C50.4609 61.304 50.2849 61.416 50.1729 61.64C50.0689 61.832 50.0209 62.096 50.0209 62.44C50.0209 62.768 50.0689 63.032 50.1729 63.224C50.2849 63.448 50.4609 63.568 50.7089 63.568C50.9489 63.568 51.1249 63.448 51.2449 63.216C51.3409 63.024 51.3969 62.768 51.3969 62.44C51.3969 62.104 51.3409 61.84 51.2449 61.648C51.1249 61.416 50.9489 61.304 50.7089 61.304ZM46.6449 58.72C46.3969 58.72 46.2209 58.832 46.1089 59.056C46.0049 59.248 45.9569 59.512 45.9569 59.856C45.9569 60.184 46.0049 60.448 46.1089 60.64C46.2209 60.864 46.3969 60.984 46.6449 60.984C46.8849 60.984 47.0609 60.864 47.1809 60.632C47.2769 60.44 47.3329 60.184 47.3329 59.856C47.3329 59.52 47.2769 59.256 47.1729 59.064C47.0609 58.832 46.8849 58.72 46.6449 58.72Z" fill="#F53F3F"/>
<path d="M60.7499 61.0003V61.8337C60.7499 63.2745 59.9373 64.5255 58.7455 65.1535C58.8569 65.1624 58.9695 65.167 59.0833 65.167C61.3844 65.167 63.2499 63.3015 63.2499 61.0003H65.3333L61.9999 56.8337L58.6666 61.0003H60.7499Z" fill="#F53F3F"/>
<path d="M84.5 46.9C84.5 46.1268 85.1268 45.5 85.9 45.5H92.4333C93.2065 45.5 93.8333 46.1268 93.8333 46.9V53.4333C93.8333 54.2065 93.2065 54.8333 92.4333 54.8333H85.9C85.1268 54.8333 84.5 54.2065 84.5 53.4333V46.9ZM84.5 58.5667C84.5 57.7935 85.1268 57.1667 85.9 57.1667H92.4333C93.2065 57.1667 93.8333 57.7935 93.8333 58.5667V65.1C93.8333 65.8732 93.2065 66.5 92.4333 66.5H85.9C85.1268 66.5 84.5 65.8732 84.5 65.1V58.5667ZM96.1667 46.9C96.1667 46.1268 96.7935 45.5 97.5667 45.5H104.1C104.873 45.5 105.5 46.1268 105.5 46.9V53.4333C105.5 54.2065 104.873 54.8333 104.1 54.8333H97.5667C96.7935 54.8333 96.1667 54.2065 96.1667 53.4333V46.9ZM96.1667 58.5667C96.1667 57.7935 96.7935 57.1667 97.5667 57.1667H104.1C104.873 57.1667 105.5 57.7935 105.5 58.5667V65.1C105.5 65.8732 104.873 66.5 104.1 66.5H97.5667C96.7935 66.5 96.1667 65.8732 96.1667 65.1V58.5667Z" fill="url(#paint0_linear_12239_22134)"/>
<rect x="121" y="12" width="99" height="62" rx="4" fill="#FFF7E8"/>
<path d="M134.08 23.9V24.52C134.08 24.76 134.21 24.88 134.47 24.88H137C137.22 24.88 137.38 24.83 137.48 24.73C137.6 24.6 137.69 24.22 137.73 23.58L138.39 23.79C138.32 24.63 138.18 25.13 137.98 25.31C137.8 25.47 137.51 25.55 137.13 25.55H134.26C133.68 25.55 133.39 25.25 133.39 24.67V21.89H134.08V23.26C135.29 23.02 136.47 22.66 137.63 22.18L138.03 22.75C136.65 23.27 135.33 23.65 134.08 23.9ZM130.81 30.91H129.75L129.6 30.22C129.94 30.25 130.26 30.27 130.56 30.27C130.82 30.27 130.95 30.12 130.95 29.84V27.45C130.51 27.6 130.06 27.74 129.61 27.86L129.44 27.14C129.95 27.03 130.45 26.89 130.95 26.73V24.44H129.6V23.75H130.95V21.87H131.64V23.75H132.75V24.44H131.64V26.49C132.06 26.32 132.46 26.14 132.86 25.95V26.68C132.46 26.86 132.05 27.04 131.64 27.2V30.02C131.64 30.61 131.36 30.91 130.81 30.91ZM138.03 26.32V31H137.31V30.49H134.18V31H133.47V26.32H138.03ZM134.18 29.85H137.31V28.71H134.18V29.85ZM134.18 28.07H137.31V26.95H134.18V28.07ZM140.91 21.86H141.62V23.75H142.78V24.44H141.62V25.21C142.11 25.71 142.6 26.27 143.09 26.88L142.68 27.49C142.27 26.86 141.92 26.36 141.62 25.98V30.99H140.91V26.01C140.59 26.95 140.18 27.81 139.68 28.59L139.37 27.81C140.09 26.83 140.6 25.7 140.91 24.44H139.69V23.75H140.91V21.86ZM143.86 26.38L144.52 26.53C144.2 27.93 143.73 29.13 143.13 30.15L142.51 29.75C143.13 28.74 143.58 27.62 143.86 26.38ZM147.48 26.33C147.9 27.46 148.26 28.67 148.56 29.95L147.91 30.24C147.58 28.85 147.22 27.62 146.83 26.54L147.48 26.33ZM145.24 30.89H144.22L144.08 30.22C144.4 30.24 144.7 30.26 144.99 30.26C145.26 30.26 145.4 30.11 145.4 29.82V25.55H142.96V24.86H148.57V25.55H146.12V30C146.12 30.59 145.82 30.89 145.24 30.89ZM143.49 22.43H148.05V23.11H143.49V22.43ZM150.91 21.86H151.62V23.75H152.78V24.44H151.62V25.21C152.11 25.71 152.6 26.27 153.09 26.88L152.68 27.49C152.27 26.86 151.92 26.36 151.62 25.98V30.99H150.91V26.01C150.59 26.95 150.18 27.81 149.68 28.59L149.37 27.81C150.09 26.83 150.6 25.7 150.91 24.44H149.69V23.75H150.91V21.86ZM153.86 26.38L154.52 26.53C154.2 27.93 153.73 29.13 153.13 30.15L152.51 29.75C153.13 28.74 153.58 27.62 153.86 26.38ZM157.48 26.33C157.9 27.46 158.26 28.67 158.56 29.95L157.91 30.24C157.58 28.85 157.22 27.62 156.83 26.54L157.48 26.33ZM155.24 30.89H154.22L154.08 30.22C154.4 30.24 154.7 30.26 154.99 30.26C155.26 30.26 155.4 30.11 155.4 29.82V25.55H152.96V24.86H158.57V25.55H156.12V30C156.12 30.59 155.82 30.89 155.24 30.89ZM153.49 22.43H158.05V23.11H153.49V22.43ZM166.35 30.16C167.35 30.16 168.1 30.14 168.6 30.12L168.48 30.84H166.51C164.11 30.84 162.62 30.71 162.02 30.45C161.49 30.23 161.02 29.82 160.61 29.24C160.43 29.88 160.18 30.47 159.86 31.01L159.34 30.55C159.88 29.64 160.17 28.62 160.22 27.48L160.86 27.56C160.84 27.9 160.81 28.21 160.76 28.51C161.02 28.92 161.31 29.24 161.62 29.47V27.04H159.64V26.38H163.88V27.04H162.26V28.1H163.63V28.74H162.26V29.83C162.32 29.85 162.37 29.87 162.41 29.89C162.99 30.07 164.3 30.16 166.35 30.16ZM160.09 22.22H163.5V25.71H160.09V22.22ZM162.8 25.11V24.26H160.79V25.11H162.8ZM160.79 23.7H162.8V22.82H160.79V23.7ZM164.02 22.23H168.34V22.89H166.54C166.51 23.17 166.47 23.43 166.41 23.69H168.06V27.73H167.39V24.31H164.97V27.73H164.33V23.69H165.76C165.82 23.43 165.86 23.16 165.89 22.89H164.02V22.23ZM166.9 27.76C167.52 28.24 168.04 28.72 168.46 29.2L167.95 29.7C167.58 29.24 167.07 28.74 166.42 28.22L166.9 27.76ZM165.85 24.78H166.51V26.19C166.49 27.14 166.3 27.9 165.96 28.47C165.62 29 165.06 29.41 164.3 29.71L163.91 29.09C164.63 28.83 165.13 28.47 165.42 28.02C165.68 27.55 165.83 26.94 165.85 26.19V24.78Z" fill="#1D2129"/>
<path d="M132.248 39.004H133.48V49H131.842V40.978C131.24 41.524 130.484 41.93 129.56 42.196V40.572C130.008 40.46 130.484 40.264 130.988 39.984C131.492 39.676 131.912 39.354 132.248 39.004ZM136.674 46.886C137.052 46.886 137.374 47.04 137.626 47.348C137.864 47.656 137.99 48.062 137.99 48.552C137.99 49.294 137.766 49.938 137.346 50.498C136.912 51.044 136.324 51.422 135.596 51.632V50.708C135.974 50.568 136.296 50.344 136.562 50.036C136.814 49.7 136.926 49.378 136.926 49.042C136.842 49.07 136.73 49.098 136.576 49.098C136.268 49.098 136.016 48.986 135.806 48.776C135.596 48.566 135.498 48.3 135.498 47.992C135.498 47.656 135.61 47.39 135.834 47.194C136.044 46.984 136.324 46.886 136.674 46.886ZM142.952 38.808C143.918 38.808 144.716 39.088 145.346 39.648C145.962 40.208 146.27 40.922 146.27 41.818C146.27 42.686 145.934 43.47 145.29 44.184C144.898 44.604 144.198 45.136 143.218 45.794C142.196 46.466 141.58 47.054 141.356 47.558H146.284V49H139.312C139.312 47.978 139.634 47.096 140.306 46.34C140.67 45.92 141.44 45.304 142.602 44.506C143.246 44.058 143.694 43.68 143.974 43.386C144.408 42.896 144.632 42.364 144.632 41.804C144.632 41.258 144.478 40.852 144.198 40.586C143.904 40.32 143.47 40.194 142.896 40.194C142.28 40.194 141.818 40.404 141.51 40.824C141.202 41.216 141.034 41.818 141.006 42.602H139.368C139.382 41.482 139.704 40.586 140.348 39.9C141.006 39.172 141.874 38.808 142.952 38.808ZM148.28 39.004H154.37V40.446H149.596L149.316 43.19H149.358C149.666 42.882 150.016 42.658 150.422 42.518C150.786 42.378 151.192 42.308 151.64 42.308C152.578 42.308 153.348 42.616 153.936 43.232C154.524 43.848 154.832 44.702 154.832 45.78C154.832 46.816 154.44 47.656 153.656 48.314C152.928 48.902 152.074 49.196 151.08 49.196C150.17 49.196 149.386 48.944 148.742 48.454C148.014 47.908 147.622 47.166 147.552 46.242H149.162C149.232 46.788 149.442 47.194 149.806 47.46C150.114 47.684 150.548 47.81 151.094 47.81C151.682 47.81 152.186 47.628 152.592 47.264C152.984 46.9 153.194 46.41 153.194 45.794C153.194 45.122 153.012 44.59 152.676 44.212C152.34 43.82 151.836 43.638 151.192 43.638C150.758 43.638 150.38 43.708 150.072 43.862C149.722 44.03 149.456 44.282 149.26 44.632H147.734L148.28 39.004ZM159.727 38.808C161.687 38.808 162.793 39.718 163.045 41.538H161.449C161.253 40.614 160.665 40.152 159.713 40.152C159.041 40.152 158.509 40.474 158.117 41.132C157.725 41.748 157.543 42.518 157.543 43.442V43.568H157.613C157.893 43.148 158.243 42.854 158.663 42.658C159.055 42.462 159.503 42.378 160.007 42.378C160.987 42.378 161.771 42.686 162.359 43.316C162.947 43.946 163.241 44.758 163.241 45.738C163.241 46.746 162.891 47.572 162.219 48.216C161.547 48.86 160.707 49.196 159.713 49.196C158.481 49.196 157.543 48.748 156.899 47.866C156.255 46.998 155.947 45.808 155.947 44.282C155.947 42.644 156.283 41.328 156.969 40.32C157.641 39.312 158.565 38.808 159.727 38.808ZM159.657 43.708C159.041 43.708 158.565 43.89 158.229 44.268C157.879 44.632 157.711 45.15 157.711 45.794C157.711 46.424 157.893 46.928 158.257 47.292C158.621 47.656 159.083 47.838 159.657 47.838C160.245 47.838 160.707 47.642 161.071 47.25C161.435 46.858 161.617 46.354 161.617 45.738C161.617 45.122 161.435 44.632 161.099 44.268C160.735 43.89 160.259 43.708 159.657 43.708Z" fill="#1D2129"/>
<path d="M135.512 64.768H134.448L134.288 64.192L135.328 64.216C135.528 64.216 135.632 64.096 135.632 63.856V58.336H130.368V64.792H129.792V57.776H136.208V63.984C136.208 64.504 135.976 64.768 135.512 64.768ZM130.952 59.256H135.056V59.792H130.952V59.256ZM131.4 60.656H134.608V63.232H131.4V60.656ZM134.048 62.72V61.176H131.96V62.72H134.048ZM141.808 60.64V63.672C141.808 63.904 141.92 64.024 142.16 64.024H143.36C143.512 64.024 143.64 63.976 143.736 63.88C143.864 63.744 143.952 63.272 143.984 62.456L144.536 62.632C144.464 63.56 144.344 64.128 144.176 64.32C144.016 64.48 143.792 64.568 143.504 64.576H141.992C141.48 64.576 141.224 64.304 141.224 63.776V57.56H141.808V60.096C142.592 59.872 143.352 59.56 144.096 59.152L144.44 59.624C143.52 60.08 142.64 60.416 141.808 60.64ZM137.976 64.68L137.8 64.144C137.928 64.064 137.992 63.952 137.992 63.8V57.6H138.568V59.832H140.624V60.392H138.568V63.976C139.272 63.816 139.968 63.616 140.664 63.384L140.816 63.928C139.936 64.208 138.984 64.456 137.976 64.68Z" fill="#86909C"/>
<path d="M151.456 58.176C152 58.176 152.448 58.312 152.784 58.592C153.112 58.872 153.28 59.248 153.28 59.728C153.28 60.368 152.968 60.8 152.344 61.008C152.68 61.112 152.936 61.272 153.112 61.496C153.304 61.72 153.4 62 153.4 62.336C153.4 62.856 153.216 63.28 152.856 63.608C152.488 63.944 152.008 64.112 151.416 64.112C150.872 64.112 150.432 63.968 150.088 63.696C149.68 63.36 149.456 62.872 149.408 62.232H150.072C150.088 62.68 150.24 63.024 150.52 63.256C150.76 63.448 151.056 63.552 151.416 63.552C151.824 63.552 152.152 63.432 152.4 63.2C152.624 62.976 152.744 62.696 152.744 62.36C152.744 62.016 152.632 61.752 152.408 61.56C152.184 61.368 151.88 61.28 151.48 61.28H151.016V60.768H151.456C151.84 60.768 152.128 60.68 152.328 60.512C152.528 60.336 152.632 60.088 152.632 59.768C152.632 59.448 152.528 59.2 152.336 59.024C152.128 58.832 151.832 58.744 151.464 58.744C151.08 58.744 150.784 58.84 150.568 59.048C150.344 59.256 150.216 59.552 150.176 59.936H149.528C149.576 59.384 149.784 58.952 150.136 58.64C150.472 58.328 150.912 58.176 151.456 58.176ZM159.709 60.872C160.133 60.872 160.461 61.024 160.693 61.344C160.893 61.616 160.997 61.984 160.997 62.44C160.997 62.888 160.893 63.256 160.693 63.536C160.461 63.84 160.133 64 159.709 64C159.277 64 158.949 63.84 158.725 63.536C158.517 63.248 158.421 62.888 158.421 62.44C158.421 61.984 158.517 61.616 158.725 61.344C158.949 61.024 159.277 60.872 159.709 60.872ZM159.021 58.176H159.533L156.333 64.112H155.813L159.021 58.176ZM155.645 58.288C156.069 58.288 156.397 58.44 156.629 58.76C156.829 59.032 156.933 59.4 156.933 59.856C156.933 60.304 156.829 60.672 156.629 60.952C156.397 61.256 156.069 61.416 155.645 61.416C155.213 61.416 154.885 61.256 154.661 60.952C154.453 60.664 154.357 60.304 154.357 59.856C154.357 59.4 154.453 59.032 154.661 58.76C154.885 58.44 155.213 58.288 155.645 58.288ZM159.709 61.304C159.461 61.304 159.285 61.416 159.173 61.64C159.069 61.832 159.021 62.096 159.021 62.44C159.021 62.768 159.069 63.032 159.173 63.224C159.285 63.448 159.461 63.568 159.709 63.568C159.949 63.568 160.125 63.448 160.245 63.216C160.341 63.024 160.397 62.768 160.397 62.44C160.397 62.104 160.341 61.84 160.245 61.648C160.125 61.416 159.949 61.304 159.709 61.304ZM155.645 58.72C155.397 58.72 155.221 58.832 155.109 59.056C155.005 59.248 154.957 59.512 154.957 59.856C154.957 60.184 155.005 60.448 155.109 60.64C155.221 60.864 155.397 60.984 155.645 60.984C155.885 60.984 156.061 60.864 156.181 60.632C156.277 60.44 156.333 60.184 156.333 59.856C156.333 59.52 156.277 59.256 156.173 59.064C156.061 58.832 155.885 58.72 155.645 58.72Z" fill="#F53F3F"/>
<path d="M169.75 61.0003V61.8337C169.75 63.2745 168.937 64.5255 167.745 65.1535C167.857 65.1624 167.97 65.167 168.083 65.167C170.384 65.167 172.25 63.3015 172.25 61.0003H174.333L171 56.8337L167.667 61.0003H169.75Z" fill="#F53F3F"/>
<path d="M193.5 45.5H214.5C215.144 45.5 215.667 46.0223 215.667 46.6667V65.3333C215.667 65.9777 215.144 66.5 214.5 66.5H193.5C192.856 66.5 192.333 65.9777 192.333 65.3333V46.6667C192.333 46.0223 192.856 45.5 193.5 45.5ZM204.071 55.63L196.588 49.2773L195.078 51.056L204.085 58.7033L212.93 51.0489L211.403 49.2845L204.071 55.63Z" fill="url(#paint1_linear_12239_22134)"/>
<rect x="12" y="84" width="99" height="62" rx="4" fill="#E8F5FF"/>
<path d="M25.08 95.9V96.52C25.08 96.76 25.21 96.88 25.47 96.88H28C28.22 96.88 28.38 96.83 28.48 96.73C28.6 96.6 28.69 96.22 28.73 95.58L29.39 95.79C29.32 96.63 29.18 97.13 28.98 97.31C28.8 97.47 28.51 97.55 28.13 97.55H25.26C24.68 97.55 24.39 97.25 24.39 96.67V93.89H25.08V95.26C26.29 95.02 27.47 94.66 28.63 94.18L29.03 94.75C27.65 95.27 26.33 95.65 25.08 95.9ZM21.81 102.91H20.75L20.6 102.22C20.94 102.25 21.26 102.27 21.56 102.27C21.82 102.27 21.95 102.12 21.95 101.84V99.45C21.51 99.6 21.06 99.74 20.61 99.86L20.44 99.14C20.95 99.03 21.45 98.89 21.95 98.73V96.44H20.6V95.75H21.95V93.87H22.64V95.75H23.75V96.44H22.64V98.49C23.06 98.32 23.46 98.14 23.86 97.95V98.68C23.46 98.86 23.05 99.04 22.64 99.2V102.02C22.64 102.61 22.36 102.91 21.81 102.91ZM29.03 98.32V103H28.31V102.49H25.18V103H24.47V98.32H29.03ZM25.18 101.85H28.31V100.71H25.18V101.85ZM25.18 100.07H28.31V98.95H25.18V100.07ZM31.91 93.86H32.62V95.75H33.78V96.44H32.62V97.21C33.11 97.71 33.6 98.27 34.09 98.88L33.68 99.49C33.27 98.86 32.92 98.36 32.62 97.98V102.99H31.91V98.01C31.59 98.95 31.18 99.81 30.68 100.59L30.37 99.81C31.09 98.83 31.6 97.7 31.91 96.44H30.69V95.75H31.91V93.86ZM34.86 98.38L35.52 98.53C35.2 99.93 34.73 101.13 34.13 102.15L33.51 101.75C34.13 100.74 34.58 99.62 34.86 98.38ZM38.48 98.33C38.9 99.46 39.26 100.67 39.56 101.95L38.91 102.24C38.58 100.85 38.22 99.62 37.83 98.54L38.48 98.33ZM36.24 102.89H35.22L35.08 102.22C35.4 102.24 35.7 102.26 35.99 102.26C36.26 102.26 36.4 102.11 36.4 101.82V97.55H33.96V96.86H39.57V97.55H37.12V102C37.12 102.59 36.82 102.89 36.24 102.89ZM34.49 94.43H39.05V95.11H34.49V94.43ZM41.91 93.86H42.62V95.75H43.78V96.44H42.62V97.21C43.11 97.71 43.6 98.27 44.09 98.88L43.68 99.49C43.27 98.86 42.92 98.36 42.62 97.98V102.99H41.91V98.01C41.59 98.95 41.18 99.81 40.68 100.59L40.37 99.81C41.09 98.83 41.6 97.7 41.91 96.44H40.69V95.75H41.91V93.86ZM44.86 98.38L45.52 98.53C45.2 99.93 44.73 101.13 44.13 102.15L43.51 101.75C44.13 100.74 44.58 99.62 44.86 98.38ZM48.48 98.33C48.9 99.46 49.26 100.67 49.56 101.95L48.91 102.24C48.58 100.85 48.22 99.62 47.83 98.54L48.48 98.33ZM46.24 102.89H45.22L45.08 102.22C45.4 102.24 45.7 102.26 45.99 102.26C46.26 102.26 46.4 102.11 46.4 101.82V97.55H43.96V96.86H49.57V97.55H47.12V102C47.12 102.59 46.82 102.89 46.24 102.89ZM44.49 94.43H49.05V95.11H44.49V94.43ZM57.35 102.16C58.35 102.16 59.1 102.14 59.6 102.12L59.48 102.84H57.51C55.11 102.84 53.62 102.71 53.02 102.45C52.49 102.23 52.02 101.82 51.61 101.24C51.43 101.88 51.18 102.47 50.86 103.01L50.34 102.55C50.88 101.64 51.17 100.62 51.22 99.48L51.86 99.56C51.84 99.9 51.81 100.21 51.76 100.51C52.02 100.92 52.31 101.24 52.62 101.47V99.04H50.64V98.38H54.88V99.04H53.26V100.1H54.63V100.74H53.26V101.83C53.32 101.85 53.37 101.87 53.41 101.89C53.99 102.07 55.3 102.16 57.35 102.16ZM51.09 94.22H54.5V97.71H51.09V94.22ZM53.8 97.11V96.26H51.79V97.11H53.8ZM51.79 95.7H53.8V94.82H51.79V95.7ZM55.02 94.23H59.34V94.89H57.54C57.51 95.17 57.47 95.43 57.41 95.69H59.06V99.73H58.39V96.31H55.97V99.73H55.33V95.69H56.76C56.82 95.43 56.86 95.16 56.89 94.89H55.02V94.23ZM57.9 99.76C58.52 100.24 59.04 100.72 59.46 101.2L58.95 101.7C58.58 101.24 58.07 100.74 57.42 100.22L57.9 99.76ZM56.85 96.78H57.51V98.19C57.49 99.14 57.3 99.9 56.96 100.47C56.62 101 56.06 101.41 55.3 101.71L54.91 101.09C55.63 100.83 56.13 100.47 56.42 100.02C56.68 99.55 56.83 98.94 56.85 98.19V96.78Z" fill="#1D2129"/>
<path d="M23.248 111.004H24.48V121H22.842V112.978C22.24 113.524 21.484 113.93 20.56 114.196V112.572C21.008 112.46 21.484 112.264 21.988 111.984C22.492 111.676 22.912 111.354 23.248 111.004ZM27.6742 118.886C28.0522 118.886 28.3742 119.04 28.6262 119.348C28.8642 119.656 28.9902 120.062 28.9902 120.552C28.9902 121.294 28.7662 121.938 28.3462 122.498C27.9122 123.044 27.3242 123.422 26.5962 123.632V122.708C26.9742 122.568 27.2962 122.344 27.5622 122.036C27.8142 121.7 27.9262 121.378 27.9262 121.042C27.8422 121.07 27.7302 121.098 27.5762 121.098C27.2682 121.098 27.0162 120.986 26.8062 120.776C26.5962 120.566 26.4982 120.3 26.4982 119.992C26.4982 119.656 26.6102 119.39 26.8342 119.194C27.0442 118.984 27.3242 118.886 27.6742 118.886ZM33.9517 110.808C34.9177 110.808 35.7157 111.088 36.3457 111.648C36.9617 112.208 37.2697 112.922 37.2697 113.818C37.2697 114.686 36.9337 115.47 36.2897 116.184C35.8977 116.604 35.1977 117.136 34.2177 117.794C33.1957 118.466 32.5797 119.054 32.3557 119.558H37.2837V121H30.3117C30.3117 119.978 30.6337 119.096 31.3057 118.34C31.6697 117.92 32.4397 117.304 33.6017 116.506C34.2457 116.058 34.6937 115.68 34.9737 115.386C35.4077 114.896 35.6317 114.364 35.6317 113.804C35.6317 113.258 35.4777 112.852 35.1977 112.586C34.9037 112.32 34.4697 112.194 33.8957 112.194C33.2797 112.194 32.8177 112.404 32.5097 112.824C32.2017 113.216 32.0337 113.818 32.0057 114.602H30.3677C30.3817 113.482 30.7037 112.586 31.3477 111.9C32.0057 111.172 32.8737 110.808 33.9517 110.808ZM39.2802 111.004H45.3702V112.446H40.5962L40.3162 115.19H40.3582C40.6662 114.882 41.0162 114.658 41.4222 114.518C41.7862 114.378 42.1922 114.308 42.6402 114.308C43.5782 114.308 44.3482 114.616 44.9362 115.232C45.5242 115.848 45.8322 116.702 45.8322 117.78C45.8322 118.816 45.4402 119.656 44.6562 120.314C43.9282 120.902 43.0742 121.196 42.0802 121.196C41.1702 121.196 40.3862 120.944 39.7422 120.454C39.0142 119.908 38.6222 119.166 38.5522 118.242H40.1622C40.2322 118.788 40.4422 119.194 40.8062 119.46C41.1142 119.684 41.5482 119.81 42.0942 119.81C42.6822 119.81 43.1862 119.628 43.5922 119.264C43.9842 118.9 44.1942 118.41 44.1942 117.794C44.1942 117.122 44.0122 116.59 43.6762 116.212C43.3402 115.82 42.8362 115.638 42.1922 115.638C41.7582 115.638 41.3802 115.708 41.0722 115.862C40.7222 116.03 40.4562 116.282 40.2602 116.632H38.7342L39.2802 111.004ZM50.7267 110.808C52.6867 110.808 53.7927 111.718 54.0447 113.538H52.4487C52.2527 112.614 51.6647 112.152 50.7127 112.152C50.0407 112.152 49.5087 112.474 49.1167 113.132C48.7247 113.748 48.5427 114.518 48.5427 115.442V115.568H48.6127C48.8927 115.148 49.2427 114.854 49.6627 114.658C50.0547 114.462 50.5027 114.378 51.0067 114.378C51.9867 114.378 52.7707 114.686 53.3587 115.316C53.9467 115.946 54.2407 116.758 54.2407 117.738C54.2407 118.746 53.8907 119.572 53.2187 120.216C52.5467 120.86 51.7067 121.196 50.7127 121.196C49.4807 121.196 48.5427 120.748 47.8987 119.866C47.2547 118.998 46.9467 117.808 46.9467 116.282C46.9467 114.644 47.2827 113.328 47.9687 112.32C48.6407 111.312 49.5647 110.808 50.7267 110.808ZM50.6567 115.708C50.0407 115.708 49.5647 115.89 49.2287 116.268C48.8787 116.632 48.7107 117.15 48.7107 117.794C48.7107 118.424 48.8927 118.928 49.2567 119.292C49.6207 119.656 50.0827 119.838 50.6567 119.838C51.2447 119.838 51.7067 119.642 52.0707 119.25C52.4347 118.858 52.6167 118.354 52.6167 117.738C52.6167 117.122 52.4347 116.632 52.0987 116.268C51.7347 115.89 51.2587 115.708 50.6567 115.708Z" fill="#1D2129"/>
<path d="M26.512 136.768H25.448L25.288 136.192L26.328 136.216C26.528 136.216 26.632 136.096 26.632 135.856V130.336H21.368V136.792H20.792V129.776H27.208V135.984C27.208 136.504 26.976 136.768 26.512 136.768ZM21.952 131.256H26.056V131.792H21.952V131.256ZM22.4 132.656H25.608V135.232H22.4V132.656ZM25.048 134.72V133.176H22.96V134.72H25.048ZM32.808 132.64V135.672C32.808 135.904 32.92 136.024 33.16 136.024H34.36C34.512 136.024 34.64 135.976 34.736 135.88C34.864 135.744 34.952 135.272 34.984 134.456L35.536 134.632C35.464 135.56 35.344 136.128 35.176 136.32C35.016 136.48 34.792 136.568 34.504 136.576H32.992C32.48 136.576 32.224 136.304 32.224 135.776V129.56H32.808V132.096C33.592 131.872 34.352 131.56 35.096 131.152L35.44 131.624C34.52 132.08 33.64 132.416 32.808 132.64ZM28.976 136.68L28.8 136.144C28.928 136.064 28.992 135.952 28.992 135.8V129.6H29.568V131.832H31.624V132.392H29.568V135.976C30.272 135.816 30.968 135.616 31.664 135.384L31.816 135.928C30.936 136.208 29.984 136.456 28.976 136.68Z" fill="#86909C"/>
<path d="M42.456 130.176C43 130.176 43.448 130.312 43.784 130.592C44.112 130.872 44.28 131.248 44.28 131.728C44.28 132.368 43.968 132.8 43.344 133.008C43.68 133.112 43.936 133.272 44.112 133.496C44.304 133.72 44.4 134 44.4 134.336C44.4 134.856 44.216 135.28 43.856 135.608C43.488 135.944 43.008 136.112 42.416 136.112C41.872 136.112 41.432 135.968 41.088 135.696C40.68 135.36 40.456 134.872 40.408 134.232H41.072C41.088 134.68 41.24 135.024 41.52 135.256C41.76 135.448 42.056 135.552 42.416 135.552C42.824 135.552 43.152 135.432 43.4 135.2C43.624 134.976 43.744 134.696 43.744 134.36C43.744 134.016 43.632 133.752 43.408 133.56C43.184 133.368 42.88 133.28 42.48 133.28H42.016V132.768H42.456C42.84 132.768 43.128 132.68 43.328 132.512C43.528 132.336 43.632 132.088 43.632 131.768C43.632 131.448 43.528 131.2 43.336 131.024C43.128 130.832 42.832 130.744 42.464 130.744C42.08 130.744 41.784 130.84 41.568 131.048C41.344 131.256 41.216 131.552 41.176 131.936H40.528C40.576 131.384 40.784 130.952 41.136 130.64C41.472 130.328 41.912 130.176 42.456 130.176ZM50.7089 132.872C51.1329 132.872 51.4609 133.024 51.6929 133.344C51.8929 133.616 51.9969 133.984 51.9969 134.44C51.9969 134.888 51.8929 135.256 51.6929 135.536C51.4609 135.84 51.1329 136 50.7089 136C50.2769 136 49.9489 135.84 49.7249 135.536C49.5169 135.248 49.4209 134.888 49.4209 134.44C49.4209 133.984 49.5169 133.616 49.7249 133.344C49.9489 133.024 50.2769 132.872 50.7089 132.872ZM50.0209 130.176H50.5329L47.3329 136.112H46.8129L50.0209 130.176ZM46.6449 130.288C47.0689 130.288 47.3969 130.44 47.6289 130.76C47.8289 131.032 47.9329 131.4 47.9329 131.856C47.9329 132.304 47.8289 132.672 47.6289 132.952C47.3969 133.256 47.0689 133.416 46.6449 133.416C46.2129 133.416 45.8849 133.256 45.6609 132.952C45.4529 132.664 45.3569 132.304 45.3569 131.856C45.3569 131.4 45.4529 131.032 45.6609 130.76C45.8849 130.44 46.2129 130.288 46.6449 130.288ZM50.7089 133.304C50.4609 133.304 50.2849 133.416 50.1729 133.64C50.0689 133.832 50.0209 134.096 50.0209 134.44C50.0209 134.768 50.0689 135.032 50.1729 135.224C50.2849 135.448 50.4609 135.568 50.7089 135.568C50.9489 135.568 51.1249 135.448 51.2449 135.216C51.3409 135.024 51.3969 134.768 51.3969 134.44C51.3969 134.104 51.3409 133.84 51.2449 133.648C51.1249 133.416 50.9489 133.304 50.7089 133.304ZM46.6449 130.72C46.3969 130.72 46.2209 130.832 46.1089 131.056C46.0049 131.248 45.9569 131.512 45.9569 131.856C45.9569 132.184 46.0049 132.448 46.1089 132.64C46.2209 132.864 46.3969 132.984 46.6449 132.984C46.8849 132.984 47.0609 132.864 47.1809 132.632C47.2769 132.44 47.3329 132.184 47.3329 131.856C47.3329 131.52 47.2769 131.256 47.1729 131.064C47.0609 130.832 46.8849 130.72 46.6449 130.72Z" fill="#00B42A"/>
<path d="M60.7499 133V132.166C60.7499 130.726 59.9373 129.474 58.7455 128.847C58.8569 128.838 58.9695 128.833 59.0833 128.833C61.3844 128.833 63.2499 130.698 63.2499 133H65.3333L61.9999 137.166L58.6666 133H60.7499Z" fill="#00B42A"/>
<path d="M83.3333 126.834H106.667V137.334C106.667 137.978 106.144 138.5 105.5 138.5H84.4999C83.8556 138.5 83.3333 137.978 83.3333 137.334V126.834ZM100.833 117.5H105.5C106.144 117.5 106.667 118.023 106.667 118.667V124.5H83.3333V118.667C83.3333 118.023 83.8556 117.5 84.4999 117.5H89.1666V115.167H91.4999V117.5H98.4999V115.167H100.833V117.5Z" fill="url(#paint2_linear_12239_22134)"/>
<rect x="121" y="84" width="99" height="62" rx="4" fill="#F2E8FF"/>
<path d="M134.08 95.9V96.52C134.08 96.76 134.21 96.88 134.47 96.88H137C137.22 96.88 137.38 96.83 137.48 96.73C137.6 96.6 137.69 96.22 137.73 95.58L138.39 95.79C138.32 96.63 138.18 97.13 137.98 97.31C137.8 97.47 137.51 97.55 137.13 97.55H134.26C133.68 97.55 133.39 97.25 133.39 96.67V93.89H134.08V95.26C135.29 95.02 136.47 94.66 137.63 94.18L138.03 94.75C136.65 95.27 135.33 95.65 134.08 95.9ZM130.81 102.91H129.75L129.6 102.22C129.94 102.25 130.26 102.27 130.56 102.27C130.82 102.27 130.95 102.12 130.95 101.84V99.45C130.51 99.6 130.06 99.74 129.61 99.86L129.44 99.14C129.95 99.03 130.45 98.89 130.95 98.73V96.44H129.6V95.75H130.95V93.87H131.64V95.75H132.75V96.44H131.64V98.49C132.06 98.32 132.46 98.14 132.86 97.95V98.68C132.46 98.86 132.05 99.04 131.64 99.2V102.02C131.64 102.61 131.36 102.91 130.81 102.91ZM138.03 98.32V103H137.31V102.49H134.18V103H133.47V98.32H138.03ZM134.18 101.85H137.31V100.71H134.18V101.85ZM134.18 100.07H137.31V98.95H134.18V100.07ZM140.91 93.86H141.62V95.75H142.78V96.44H141.62V97.21C142.11 97.71 142.6 98.27 143.09 98.88L142.68 99.49C142.27 98.86 141.92 98.36 141.62 97.98V102.99H140.91V98.01C140.59 98.95 140.18 99.81 139.68 100.59L139.37 99.81C140.09 98.83 140.6 97.7 140.91 96.44H139.69V95.75H140.91V93.86ZM143.86 98.38L144.52 98.53C144.2 99.93 143.73 101.13 143.13 102.15L142.51 101.75C143.13 100.74 143.58 99.62 143.86 98.38ZM147.48 98.33C147.9 99.46 148.26 100.67 148.56 101.95L147.91 102.24C147.58 100.85 147.22 99.62 146.83 98.54L147.48 98.33ZM145.24 102.89H144.22L144.08 102.22C144.4 102.24 144.7 102.26 144.99 102.26C145.26 102.26 145.4 102.11 145.4 101.82V97.55H142.96V96.86H148.57V97.55H146.12V102C146.12 102.59 145.82 102.89 145.24 102.89ZM143.49 94.43H148.05V95.11H143.49V94.43ZM150.91 93.86H151.62V95.75H152.78V96.44H151.62V97.21C152.11 97.71 152.6 98.27 153.09 98.88L152.68 99.49C152.27 98.86 151.92 98.36 151.62 97.98V102.99H150.91V98.01C150.59 98.95 150.18 99.81 149.68 100.59L149.37 99.81C150.09 98.83 150.6 97.7 150.91 96.44H149.69V95.75H150.91V93.86ZM153.86 98.38L154.52 98.53C154.2 99.93 153.73 101.13 153.13 102.15L152.51 101.75C153.13 100.74 153.58 99.62 153.86 98.38ZM157.48 98.33C157.9 99.46 158.26 100.67 158.56 101.95L157.91 102.24C157.58 100.85 157.22 99.62 156.83 98.54L157.48 98.33ZM155.24 102.89H154.22L154.08 102.22C154.4 102.24 154.7 102.26 154.99 102.26C155.26 102.26 155.4 102.11 155.4 101.82V97.55H152.96V96.86H158.57V97.55H156.12V102C156.12 102.59 155.82 102.89 155.24 102.89ZM153.49 94.43H158.05V95.11H153.49V94.43ZM166.35 102.16C167.35 102.16 168.1 102.14 168.6 102.12L168.48 102.84H166.51C164.11 102.84 162.62 102.71 162.02 102.45C161.49 102.23 161.02 101.82 160.61 101.24C160.43 101.88 160.18 102.47 159.86 103.01L159.34 102.55C159.88 101.64 160.17 100.62 160.22 99.48L160.86 99.56C160.84 99.9 160.81 100.21 160.76 100.51C161.02 100.92 161.31 101.24 161.62 101.47V99.04H159.64V98.38H163.88V99.04H162.26V100.1H163.63V100.74H162.26V101.83C162.32 101.85 162.37 101.87 162.41 101.89C162.99 102.07 164.3 102.16 166.35 102.16ZM160.09 94.22H163.5V97.71H160.09V94.22ZM162.8 97.11V96.26H160.79V97.11H162.8ZM160.79 95.7H162.8V94.82H160.79V95.7ZM164.02 94.23H168.34V94.89H166.54C166.51 95.17 166.47 95.43 166.41 95.69H168.06V99.73H167.39V96.31H164.97V99.73H164.33V95.69H165.76C165.82 95.43 165.86 95.16 165.89 94.89H164.02V94.23ZM166.9 99.76C167.52 100.24 168.04 100.72 168.46 101.2L167.95 101.7C167.58 101.24 167.07 100.74 166.42 100.22L166.9 99.76ZM165.85 96.78H166.51V98.19C166.49 99.14 166.3 99.9 165.96 100.47C165.62 101 165.06 101.41 164.3 101.71L163.91 101.09C164.63 100.83 165.13 100.47 165.42 100.02C165.68 99.55 165.83 98.94 165.85 98.19V96.78Z" fill="#1D2129"/>
<path d="M132.248 111.004H133.48V121H131.842V112.978C131.24 113.524 130.484 113.93 129.56 114.196V112.572C130.008 112.46 130.484 112.264 130.988 111.984C131.492 111.676 131.912 111.354 132.248 111.004ZM136.674 118.886C137.052 118.886 137.374 119.04 137.626 119.348C137.864 119.656 137.99 120.062 137.99 120.552C137.99 121.294 137.766 121.938 137.346 122.498C136.912 123.044 136.324 123.422 135.596 123.632V122.708C135.974 122.568 136.296 122.344 136.562 122.036C136.814 121.7 136.926 121.378 136.926 121.042C136.842 121.07 136.73 121.098 136.576 121.098C136.268 121.098 136.016 120.986 135.806 120.776C135.596 120.566 135.498 120.3 135.498 119.992C135.498 119.656 135.61 119.39 135.834 119.194C136.044 118.984 136.324 118.886 136.674 118.886ZM142.952 110.808C143.918 110.808 144.716 111.088 145.346 111.648C145.962 112.208 146.27 112.922 146.27 113.818C146.27 114.686 145.934 115.47 145.29 116.184C144.898 116.604 144.198 117.136 143.218 117.794C142.196 118.466 141.58 119.054 141.356 119.558H146.284V121H139.312C139.312 119.978 139.634 119.096 140.306 118.34C140.67 117.92 141.44 117.304 142.602 116.506C143.246 116.058 143.694 115.68 143.974 115.386C144.408 114.896 144.632 114.364 144.632 113.804C144.632 113.258 144.478 112.852 144.198 112.586C143.904 112.32 143.47 112.194 142.896 112.194C142.28 112.194 141.818 112.404 141.51 112.824C141.202 113.216 141.034 113.818 141.006 114.602H139.368C139.382 113.482 139.704 112.586 140.348 111.9C141.006 111.172 141.874 110.808 142.952 110.808ZM148.28 111.004H154.37V112.446H149.596L149.316 115.19H149.358C149.666 114.882 150.016 114.658 150.422 114.518C150.786 114.378 151.192 114.308 151.64 114.308C152.578 114.308 153.348 114.616 153.936 115.232C154.524 115.848 154.832 116.702 154.832 117.78C154.832 118.816 154.44 119.656 153.656 120.314C152.928 120.902 152.074 121.196 151.08 121.196C150.17 121.196 149.386 120.944 148.742 120.454C148.014 119.908 147.622 119.166 147.552 118.242H149.162C149.232 118.788 149.442 119.194 149.806 119.46C150.114 119.684 150.548 119.81 151.094 119.81C151.682 119.81 152.186 119.628 152.592 119.264C152.984 118.9 153.194 118.41 153.194 117.794C153.194 117.122 153.012 116.59 152.676 116.212C152.34 115.82 151.836 115.638 151.192 115.638C150.758 115.638 150.38 115.708 150.072 115.862C149.722 116.03 149.456 116.282 149.26 116.632H147.734L148.28 111.004ZM159.727 110.808C161.687 110.808 162.793 111.718 163.045 113.538H161.449C161.253 112.614 160.665 112.152 159.713 112.152C159.041 112.152 158.509 112.474 158.117 113.132C157.725 113.748 157.543 114.518 157.543 115.442V115.568H157.613C157.893 115.148 158.243 114.854 158.663 114.658C159.055 114.462 159.503 114.378 160.007 114.378C160.987 114.378 161.771 114.686 162.359 115.316C162.947 115.946 163.241 116.758 163.241 117.738C163.241 118.746 162.891 119.572 162.219 120.216C161.547 120.86 160.707 121.196 159.713 121.196C158.481 121.196 157.543 120.748 156.899 119.866C156.255 118.998 155.947 117.808 155.947 116.282C155.947 114.644 156.283 113.328 156.969 112.32C157.641 111.312 158.565 110.808 159.727 110.808ZM159.657 115.708C159.041 115.708 158.565 115.89 158.229 116.268C157.879 116.632 157.711 117.15 157.711 117.794C157.711 118.424 157.893 118.928 158.257 119.292C158.621 119.656 159.083 119.838 159.657 119.838C160.245 119.838 160.707 119.642 161.071 119.25C161.435 118.858 161.617 118.354 161.617 117.738C161.617 117.122 161.435 116.632 161.099 116.268C160.735 115.89 160.259 115.708 159.657 115.708Z" fill="#1D2129"/>
<path d="M135.512 136.768H134.448L134.288 136.192L135.328 136.216C135.528 136.216 135.632 136.096 135.632 135.856V130.336H130.368V136.792H129.792V129.776H136.208V135.984C136.208 136.504 135.976 136.768 135.512 136.768ZM130.952 131.256H135.056V131.792H130.952V131.256ZM131.4 132.656H134.608V135.232H131.4V132.656ZM134.048 134.72V133.176H131.96V134.72H134.048ZM141.808 132.64V135.672C141.808 135.904 141.92 136.024 142.16 136.024H143.36C143.512 136.024 143.64 135.976 143.736 135.88C143.864 135.744 143.952 135.272 143.984 134.456L144.536 134.632C144.464 135.56 144.344 136.128 144.176 136.32C144.016 136.48 143.792 136.568 143.504 136.576H141.992C141.48 136.576 141.224 136.304 141.224 135.776V129.56H141.808V132.096C142.592 131.872 143.352 131.56 144.096 131.152L144.44 131.624C143.52 132.08 142.64 132.416 141.808 132.64ZM137.976 136.68L137.8 136.144C137.928 136.064 137.992 135.952 137.992 135.8V129.6H138.568V131.832H140.624V132.392H138.568V135.976C139.272 135.816 139.968 135.616 140.664 135.384L140.816 135.928C139.936 136.208 138.984 136.456 137.976 136.68Z" fill="#86909C"/>
<path d="M151.456 130.176C152 130.176 152.448 130.312 152.784 130.592C153.112 130.872 153.28 131.248 153.28 131.728C153.28 132.368 152.968 132.8 152.344 133.008C152.68 133.112 152.936 133.272 153.112 133.496C153.304 133.72 153.4 134 153.4 134.336C153.4 134.856 153.216 135.28 152.856 135.608C152.488 135.944 152.008 136.112 151.416 136.112C150.872 136.112 150.432 135.968 150.088 135.696C149.68 135.36 149.456 134.872 149.408 134.232H150.072C150.088 134.68 150.24 135.024 150.52 135.256C150.76 135.448 151.056 135.552 151.416 135.552C151.824 135.552 152.152 135.432 152.4 135.2C152.624 134.976 152.744 134.696 152.744 134.36C152.744 134.016 152.632 133.752 152.408 133.56C152.184 133.368 151.88 133.28 151.48 133.28H151.016V132.768H151.456C151.84 132.768 152.128 132.68 152.328 132.512C152.528 132.336 152.632 132.088 152.632 131.768C152.632 131.448 152.528 131.2 152.336 131.024C152.128 130.832 151.832 130.744 151.464 130.744C151.08 130.744 150.784 130.84 150.568 131.048C150.344 131.256 150.216 131.552 150.176 131.936H149.528C149.576 131.384 149.784 130.952 150.136 130.64C150.472 130.328 150.912 130.176 151.456 130.176ZM159.709 132.872C160.133 132.872 160.461 133.024 160.693 133.344C160.893 133.616 160.997 133.984 160.997 134.44C160.997 134.888 160.893 135.256 160.693 135.536C160.461 135.84 160.133 136 159.709 136C159.277 136 158.949 135.84 158.725 135.536C158.517 135.248 158.421 134.888 158.421 134.44C158.421 133.984 158.517 133.616 158.725 133.344C158.949 133.024 159.277 132.872 159.709 132.872ZM159.021 130.176H159.533L156.333 136.112H155.813L159.021 130.176ZM155.645 130.288C156.069 130.288 156.397 130.44 156.629 130.76C156.829 131.032 156.933 131.4 156.933 131.856C156.933 132.304 156.829 132.672 156.629 132.952C156.397 133.256 156.069 133.416 155.645 133.416C155.213 133.416 154.885 133.256 154.661 132.952C154.453 132.664 154.357 132.304 154.357 131.856C154.357 131.4 154.453 131.032 154.661 130.76C154.885 130.44 155.213 130.288 155.645 130.288ZM159.709 133.304C159.461 133.304 159.285 133.416 159.173 133.64C159.069 133.832 159.021 134.096 159.021 134.44C159.021 134.768 159.069 135.032 159.173 135.224C159.285 135.448 159.461 135.568 159.709 135.568C159.949 135.568 160.125 135.448 160.245 135.216C160.341 135.024 160.397 134.768 160.397 134.44C160.397 134.104 160.341 133.84 160.245 133.648C160.125 133.416 159.949 133.304 159.709 133.304ZM155.645 130.72C155.397 130.72 155.221 130.832 155.109 131.056C155.005 131.248 154.957 131.512 154.957 131.856C154.957 132.184 155.005 132.448 155.109 132.64C155.221 132.864 155.397 132.984 155.645 132.984C155.885 132.984 156.061 132.864 156.181 132.632C156.277 132.44 156.333 132.184 156.333 131.856C156.333 131.52 156.277 131.256 156.173 131.064C156.061 130.832 155.885 130.72 155.645 130.72Z" fill="#00B42A"/>
<path d="M169.75 133V132.166C169.75 130.726 168.937 129.474 167.745 128.847C167.857 128.838 167.97 128.833 168.083 128.833C170.384 128.833 172.25 130.698 172.25 133H174.333L171 137.166L167.667 133H169.75Z" fill="#00B42A"/>
<path d="M202.833 116.391V129.166H215.609C215.024 135.062 210.049 139.666 204 139.666C197.557 139.666 192.333 134.443 192.333 128C192.333 121.95 196.938 116.976 202.833 116.391ZM205.167 116.391C210.678 116.938 215.062 121.321 215.609 126.833H205.167V116.391Z" fill="url(#paint3_linear_12239_22134)"/>
<defs>
<linearGradient id="paint0_linear_12239_22134" x1="95" y1="45.5" x2="95" y2="66.5" gradientUnits="userSpaceOnUse">
<stop stop-color="#24B28F" stop-opacity="0.6"/>
<stop offset="1" stop-color="#24B28F" stop-opacity="0.1"/>
</linearGradient>
<linearGradient id="paint1_linear_12239_22134" x1="204" y1="45.5" x2="204" y2="66.5" gradientUnits="userSpaceOnUse">
<stop stop-color="#FF7D00" stop-opacity="0.6"/>
<stop offset="1" stop-color="#FF7D00" stop-opacity="0.1"/>
</linearGradient>
<linearGradient id="paint2_linear_12239_22134" x1="94.9999" y1="115.167" x2="94.9999" y2="138.5" gradientUnits="userSpaceOnUse">
<stop stop-color="#1979FF" stop-opacity="0.6"/>
<stop offset="1" stop-color="#1979FF" stop-opacity="0.1"/>
</linearGradient>
<linearGradient id="paint3_linear_12239_22134" x1="203.971" y1="116.391" x2="203.971" y2="139.666" gradientUnits="userSpaceOnUse">
<stop stop-color="#7E5AEA" stop-opacity="0.6"/>
<stop offset="1" stop-color="#7E5AEA" stop-opacity="0.1"/>
</linearGradient>
</defs>
</svg>
