<svg width="280" height="96" viewBox="0 0 280 96" fill="none" xmlns="http://www.w3.org/2000/svg">
<g clip-path="url(#clip0_11560_14345)">
<path d="M0 8C0 3.58172 3.58172 0 8 0H272C276.418 0 280 3.58172 280 8V88C280 92.4183 276.418 96 272 96H8C3.58172 96 0 92.4183 0 88V8Z" fill="url(#paint0_linear_11560_14345)"/>
<circle cx="271" r="40" fill="url(#paint1_linear_11560_14345)"/>
</g>
<defs>
<linearGradient id="paint0_linear_11560_14345" x1="4.82759" y1="92.4878" x2="274.1" y2="0.369776" gradientUnits="userSpaceOnUse">
<stop stop-color="#DDFFFE"/>
<stop offset="0.800921" stop-color="white"/>
</linearGradient>
<linearGradient id="paint1_linear_11560_14345" x1="276.5" y1="-3" x2="244.968" y2="30.4762" gradientUnits="userSpaceOnUse">
<stop stop-color="white" stop-opacity="0"/>
<stop offset="1" stop-color="#00FF9D" stop-opacity="0.15"/>
</linearGradient>
<clipPath id="clip0_11560_14345">
<path d="M0 8C0 3.58172 3.58172 0 8 0H272C276.418 0 280 3.58172 280 8V88C280 92.4183 276.418 96 272 96H8C3.58172 96 0 92.4183 0 88V8Z" fill="white"/>
</clipPath>
</defs>
</svg>
