<svg width="200" height="200" viewBox="0 0 200 200" fill="none" xmlns="http://www.w3.org/2000/svg">
  <rect width="200" height="200" fill="transparent" />
  <g clip-path="url(#clip0_1816_70635)">
    <path fill-rule="evenodd" clip-rule="evenodd"
      d="M100 119C77.9086 119 60 101.091 60 79C60 56.9086 77.9086 39 100 39C109.911 39 113.679 50.8879 120.667 56.8579C129.254 64.1944 140 66.8199 140 79C140 101.091 122.091 119 100 119Z"
      fill="#F2F3F5" />
    <g filter="url(#filter0_f_1816_70635)">
      <path fill-rule="evenodd" clip-rule="evenodd"
        d="M100.5 110C86.4167 110 75 100.598 75 89C75 77.402 86.4167 68 100.5 68C106.818 68 109.22 74.2411 113.675 77.3754C119.15 81.2271 126 82.6055 126 89C126 100.598 114.583 110 100.5 110Z"
        fill="#E5E6EB" />
    </g>
    <path opacity="0.8" d="M91.5 87.5H79.5L85.5 76H113.86L120.5 87.5H108.964L105.5 93.5H96L91.5 87.5Z" fill="#F2F3F5" />
    <path
      d="M116.219 75.9851C115.867 75.3468 115.196 74.9504 114.467 74.9504H85.5359C84.8073 74.9504 84.1364 75.3467 83.7846 75.9847L78.4972 85.5736C78.1711 86.1651 78 86.8295 78 87.505V97.857C78 99.5139 79.3431 100.857 81 100.857H119C120.657 100.857 122 99.5139 122 97.857V87.5046C122 86.8294 121.829 86.1652 121.503 85.5739L116.219 75.9851ZM108.591 86.6042C106.934 86.6042 105.652 88.0383 104.805 89.4623C104.57 89.8581 104.285 90.2265 103.954 90.5577C102.905 91.6062 101.483 92.1953 100 92.1953C98.5171 92.1953 97.095 91.6062 96.0465 90.5577C95.7153 90.2265 95.43 89.8581 95.1946 89.4623C94.3477 88.0383 93.0657 86.6042 91.4089 86.6042H82.9529C82.5766 86.6042 82.3351 86.204 82.5106 85.8711L86.2187 78.8338C86.3917 78.5055 86.7323 78.3 87.1034 78.3H112.615C112.976 78.3 113.31 78.4949 113.487 78.8099L117.45 85.8591C117.638 86.1924 117.397 86.6042 117.015 86.6042H108.591Z"
      fill="white" />
    <path
      d="M110.006 63.4238C110.592 62.8381 111.541 62.8381 112.127 63.4238C112.713 64.0096 112.713 64.9592 112.127 65.5449L108.591 69.0801C108.005 69.6658 107.055 69.6658 106.47 69.0801C105.884 68.4943 105.884 67.5447 106.47 66.959L110.006 63.4238ZM87.8711 63.3857C88.4569 62.8 89.4064 62.8 89.9922 63.3857L93.5283 66.9209C94.114 67.5067 94.1141 68.4572 93.5283 69.043C92.9426 69.6287 91.992 69.6286 91.4062 69.043L87.8711 65.5068C87.2853 64.921 87.2853 63.9715 87.8711 63.3857ZM100 60C100.828 60.0001 101.5 60.6716 101.5 61.5V66.5C101.5 67.3284 100.828 67.9999 100 68C99.1716 68 98.5 67.3284 98.5 66.5V61.5C98.5 60.6716 99.1716 60 100 60Z"
      fill="#6B7785" />
  </g>
  <path
    d="M79.014 148.616V149.442C78.356 149.498 77.67 149.568 76.956 149.638V150.716H76.032V149.708C75.108 149.764 74.128 149.834 73.12 149.89L72.994 148.994C74.058 148.938 75.08 148.896 76.032 148.84V147.678H73.428L73.204 146.88C73.596 146.432 73.974 145.9 74.31 145.27H72.812V144.374H74.758C74.884 144.066 75.01 143.758 75.122 143.45L76.13 143.618C76.032 143.87 75.934 144.122 75.822 144.374H79.238V145.27H75.402C75.094 145.858 74.758 146.39 74.408 146.852H76.032V145.928H76.956V146.852H79.14V147.678H76.956V148.784C77.684 148.728 78.37 148.672 79.014 148.616ZM80.974 147.692C80.82 148.868 80.442 149.89 79.84 150.758L79.14 150.03C79.756 149.12 80.092 148.042 80.12 146.782V144.584C81.856 144.416 83.228 144.108 84.208 143.66L84.852 144.416C83.816 144.864 82.556 145.186 81.044 145.354V146.81H85.244V147.692H83.76V150.73H82.794V147.692H80.974ZM83.676 151.136V156.4H82.64V155.854H75.528V156.4H74.492V151.136H83.676ZM75.528 154.986H82.64V153.894H75.528V154.986ZM75.528 153.082H82.64V151.99H75.528V153.082ZM87.862 144.318H97.914V145.298H92.902V146.236C92.874 147.104 92.818 147.93 92.72 148.686H99.048V149.652H94.708V154.538C94.708 154.986 94.932 155.224 95.38 155.224H97.158C97.494 155.224 97.746 155.126 97.9 154.944C98.096 154.72 98.222 154.076 98.292 152.984L99.244 153.292C99.132 154.664 98.922 155.49 98.614 155.798C98.348 156.05 97.928 156.176 97.34 156.176H95.072C94.148 156.176 93.7 155.7 93.7 154.748V149.652H92.566C92.342 150.87 91.992 151.92 91.516 152.816C90.648 154.328 89.248 155.518 87.302 156.358L86.742 155.462C88.674 154.594 90.004 153.46 90.76 152.032C91.096 151.332 91.348 150.534 91.53 149.652H86.924V148.686H91.698C91.81 147.93 91.866 147.104 91.88 146.236V145.298H87.862V144.318ZM109.212 146.67L109.03 147.398C109.38 149.036 109.828 150.45 110.388 151.626C110.934 150.212 111.228 148.56 111.284 146.67H109.212ZM109.926 152.634C109.38 151.556 108.918 150.324 108.54 148.924C108.288 149.568 108.008 150.142 107.714 150.646L107.084 149.876C107.91 148.308 108.47 146.194 108.75 143.534L109.73 143.702C109.646 144.416 109.534 145.088 109.422 145.704H113.118V146.67H112.208C112.138 149.008 111.704 151.01 110.92 152.662C111.648 153.922 112.502 154.888 113.51 155.574L112.964 156.4C111.984 155.7 111.144 154.748 110.444 153.572C109.772 154.692 108.904 155.63 107.854 156.386L107.336 155.546C108.428 154.79 109.282 153.824 109.926 152.634ZM103.29 150.072L104.228 150.184C104.13 150.45 104.032 150.702 103.948 150.954H106.874V151.78C106.566 152.704 106.048 153.502 105.32 154.174C105.992 154.482 106.636 154.79 107.252 155.126L106.706 155.91C106.09 155.546 105.376 155.168 104.55 154.804C103.626 155.448 102.464 155.966 101.064 156.358L100.588 155.518C101.736 155.21 102.73 154.832 103.542 154.37C102.926 154.104 102.282 153.838 101.596 153.586C101.96 152.97 102.282 152.396 102.562 151.836H100.91V150.954H102.954C103.08 150.646 103.192 150.352 103.29 150.072ZM104.396 153.782C105.096 153.222 105.628 152.564 105.964 151.836H103.556C103.332 152.312 103.08 152.76 102.8 153.18C103.36 153.376 103.892 153.572 104.396 153.782ZM102.016 143.828C102.352 144.374 102.632 144.962 102.884 145.578L102.156 145.914C101.862 145.228 101.554 144.626 101.218 144.094L102.016 143.828ZM106.272 143.786L107 144.122C106.72 144.738 106.37 145.34 105.922 145.928L105.208 145.564C105.656 144.962 106.02 144.374 106.272 143.786ZM100.938 146.25H103.668V143.576H104.606V146.25H107.154V147.132H104.606V147.286C105.362 147.664 106.146 148.098 106.93 148.574L106.412 149.358C105.712 148.798 105.11 148.35 104.606 148.014V149.834H103.668V147.174C103.206 148.28 102.366 149.232 101.162 150.044L100.672 149.232C101.75 148.602 102.506 147.902 102.926 147.132H100.938V146.25ZM116.296 156.274H115.106L114.896 155.322C115.26 155.364 115.624 155.392 115.96 155.392C116.31 155.392 116.492 155.182 116.492 154.79V151.36C115.932 151.57 115.386 151.766 114.84 151.934L114.588 150.954C115.232 150.8 115.876 150.604 116.492 150.38V147.216H114.812V146.25H116.492V143.604H117.472V146.25H118.816V147.216H117.472V149.974C117.92 149.778 118.354 149.568 118.774 149.344V150.338C118.34 150.562 117.906 150.758 117.472 150.954V155.042C117.472 155.854 117.08 156.274 116.296 156.274ZM120.482 150.086C120.314 152.48 119.768 154.58 118.844 156.4L118.06 155.7C119.054 153.852 119.558 151.444 119.572 148.504V144.122H126.95V147.524H124.318V149.176H127.314V150.086H124.318V151.808H126.67V156.4H125.732V155.714H121.938V156.4H121V151.808H123.338V150.086H120.482ZM123.338 147.524H120.552V148.504C120.552 148.728 120.538 148.952 120.538 149.176H123.338V147.524ZM121.938 154.818H125.732V152.704H121.938V154.818ZM125.97 145.06H120.552V146.614H125.97V145.06Z"
    fill="#86909C" />
  <defs>
    <filter id="filter0_f_1816_70635" x="67" y="60" width="67" height="58" filterUnits="userSpaceOnUse"
      color-interpolation-filters="sRGB">
      <feFlood flood-opacity="0" result="BackgroundImageFix" />
      <feBlend mode="normal" in="SourceGraphic" in2="BackgroundImageFix" result="shape" />
      <feGaussianBlur stdDeviation="4" result="effect1_foregroundBlur_1816_70635" />
    </filter>
    <clipPath id="clip0_1816_70635">
      <rect width="80" height="80" fill="white" transform="translate(60 39)" />
    </clipPath>
  </defs>
</svg>