<svg width="380" height="380" viewBox="0 0 380 380" fill="none" xmlns="http://www.w3.org/2000/svg">
<rect width="380" height="380" rx="96" fill="url(#paint0_linear_4649_10603)"/>
<g clip-path="url(#clip0_4649_10603)">
<path d="M98.3506 207.576L90.8271 215.1C82.1639 223.763 70.0811 227.182 58.9102 225.131C58.4542 225.131 58.2255 224.902 57.7695 224.902C57.3136 224.675 56.6297 224.674 56.1738 224.446C53.4381 223.534 50.4744 222.395 47.5107 220.799C47.0549 220.571 46.8267 220.343 46.3711 220.115C45.9152 219.659 46.5983 219.203 47.2822 219.659C48.4221 220.343 49.7899 218.747 49.334 217.607C49.106 217.151 49.1066 216.467 50.0186 216.695C52.0702 217.151 52.5258 215.783 52.2979 214.644C52.0699 213.96 52.5261 213.504 53.21 213.731C55.0338 213.731 55.9461 212.592 55.4902 211.224C55.4902 211.224 54.8065 209.856 56.4023 210.54C56.6298 210.768 56.63 210.768 56.8574 210.768C65.0648 213.959 74.6406 212.363 81.252 205.752L88.5479 198.457L84.4434 194.353V194.125H108.382L98.3506 207.576ZM61.1895 221.938C60.5055 221.939 59.8213 222.623 59.8213 223.307C59.8213 223.991 60.5055 224.675 61.1895 224.675C61.8734 224.675 62.5576 223.991 62.5576 223.307C62.5576 222.623 61.8735 221.938 61.1895 221.938ZM66.2051 221.938C65.5212 221.939 64.8369 222.623 64.8369 223.307C64.8369 223.991 65.5212 224.675 66.2051 224.675C66.8888 224.675 67.5732 223.991 67.5732 223.307C67.5732 222.623 66.8888 221.938 66.2051 221.938ZM56.6299 220.571C55.718 220.571 55.0342 221.255 55.0342 222.167C55.0342 223.079 55.718 223.763 56.6299 223.763C57.5418 223.763 58.2255 223.079 58.2256 222.167C58.2256 221.255 57.5418 220.571 56.6299 220.571ZM52.2979 219.203C51.3861 219.203 50.7022 219.887 50.7021 220.799C50.7021 221.711 51.3861 222.394 52.2979 222.395C52.9818 222.395 53.6666 221.711 53.8945 220.799C53.8945 219.887 53.2098 219.203 52.2979 219.203ZM63.6973 217.835C63.0133 217.835 62.3301 218.519 62.3301 219.203C62.3302 219.887 63.0134 220.571 63.6973 220.571C64.3812 220.571 65.0653 219.887 65.0654 219.203C65.0654 218.519 64.3813 217.835 63.6973 217.835ZM144.176 200.051L148.279 159.698H161.958L155.574 220.569H142.124L119.781 180.444L115.678 220.569H101.999L103.822 204.155L112.714 192.3H104.963L108.382 159.698H121.833L144.176 200.051ZM210.519 172.01H180.881L179.741 184.093H207.099L205.731 196.403H178.373L177.233 208.259H210.062L208.694 220.569H162.414L163.782 208.259L164.922 196.403L165.378 190.932L168.798 159.698H211.659L210.519 172.01ZM317.729 210.062C317.062 210.152 315.928 210.259 314.326 210.403C314.344 210.835 314.399 211.411 314.471 212.113H318.358V214.345H314.812C315.01 215.227 315.245 216.001 315.551 216.631C315.803 217.153 316.055 217.441 316.289 217.459C316.505 217.459 316.613 217.279 316.811 216.793C316.937 216.451 317.027 216.091 317.099 215.713L318.791 216.991L318.593 217.675C318.485 218.017 318.377 218.324 318.269 218.558C317.819 219.601 317.171 220.123 316.307 220.123C315.317 220.123 314.56 219.655 313.786 218.359C313.192 217.351 312.761 216.145 312.455 214.345H309.7V216.631L312.364 215.695L312.742 217.819L311.969 218.089C312.185 218.431 312.437 218.845 312.707 219.331L310.727 220.411C310.565 220.069 310.295 219.565 309.881 218.881L308.98 219.241C308.638 219.349 308.206 219.529 307.702 219.781L306.694 217.657C307.216 217.279 307.324 216.973 307.324 216.487V208.478C310.996 208.424 314.291 208.207 317.207 207.829L317.729 210.062ZM59.3652 217.151C58.4536 217.152 57.7696 217.835 57.7695 218.747C57.7695 219.659 58.4536 220.343 59.3652 220.343C60.2771 220.343 60.9619 219.659 60.9619 218.747C60.9618 217.835 60.2771 217.151 59.3652 217.151ZM312.94 205.021H318.395V207.271H306.551V210.943C306.515 215.587 306.028 217.477 304.606 220.321L302.284 219.043C303.76 216.181 304.12 214.885 304.156 211.231V205.021H310.133L309.881 203.797L312.671 203.726L312.94 205.021ZM281.655 204.463C281.241 205.813 280.701 207.127 280.053 208.405V220.249H277.568V212.419C277.046 213.121 276.561 213.751 276.093 214.309L274.977 211.861C275.895 210.709 276.723 209.431 277.461 208.027C278.217 206.605 278.811 205.219 279.243 203.851L281.655 204.463ZM233.105 204.211C232.961 204.913 232.781 205.579 232.565 206.245H236.418V208.693H235.607C235.319 211.501 234.852 213.427 233.97 215.137C234.726 216.073 235.752 217.045 237.03 218.071L235.5 220.159C234.33 219.133 233.376 218.125 232.638 217.117C231.864 218.071 230.747 219.097 229.308 220.195L228.174 218.737L227.706 219.655C227.256 219.385 226.554 218.971 225.618 218.449C224.574 219.079 223.188 219.655 221.46 220.195L220.361 218.232C221.729 217.89 222.756 217.603 223.458 217.333C222.558 216.901 221.82 216.577 221.262 216.343C221.532 215.911 221.802 215.442 222.054 214.938H220.686V213.103H222.918C223.044 212.797 223.17 212.454 223.296 212.059L225.546 212.509L225.348 213.103H228.822V214.849C228.408 215.731 227.958 216.451 227.436 217.027L228.695 217.639C229.775 216.847 230.658 215.983 231.324 215.029C230.82 214.003 230.424 212.869 230.136 211.627C229.973 211.912 229.82 212.146 229.7 212.329C229.662 212.388 229.627 212.443 229.596 212.491L229.038 211.303L228.048 212.562C227.652 212.131 227.039 211.608 226.229 210.979V212.095H224.124V210.745C223.368 211.591 222.45 212.293 221.37 212.869L220.29 211.069C221.478 210.565 222.504 209.935 223.368 209.161H220.866V207.217H222.216C221.622 206.101 221.208 205.381 220.974 205.075L222.54 204.211C222.918 204.697 223.565 205.723 223.943 206.497L222.666 207.217H224.124V203.887L226.229 203.995V206.479C226.463 206.191 226.716 205.813 227.004 205.345C227.31 204.859 227.526 204.463 227.688 204.157L229.361 205.111C229.055 205.687 228.587 206.389 227.976 207.217H228.948V209.161H226.229V210.187L226.968 209.341C227.472 209.683 228.066 210.133 228.768 210.709L228.462 210.061C229.596 208.333 230.46 206.011 230.838 203.869L233.105 204.211ZM340.231 205.075H345.721V207.415H333.787V211.915C334.633 210.709 335.191 209.359 335.461 207.865L337.513 208.243C337.465 208.541 337.363 208.935 337.231 209.447L337.171 209.684C337.765 210.385 338.233 210.997 338.593 211.501V207.848L340.825 207.901V211.591C341.509 210.511 341.995 209.269 342.301 207.848L344.317 208.243C344.227 208.693 344.083 209.215 343.903 209.791C344.263 210.169 344.659 210.62 345.091 211.142C345.541 211.664 345.847 212.042 346.045 212.312L344.659 213.806C344.227 213.176 343.705 212.491 343.093 211.753C342.751 212.419 342.337 213.086 341.851 213.77L340.825 212.905V214.039H344.947V216.163H340.825V217.441H345.919V219.673H333.463V217.441H338.593V216.163H334.453V214.039H334.777L333.751 213.175C333.697 214.723 333.535 215.984 333.265 216.974C333.013 217.945 332.581 219.007 331.987 220.177L329.575 219.098C330.061 218.162 330.439 217.351 330.673 216.686C330.907 216.02 331.087 215.245 331.195 214.363C331.321 213.481 331.375 212.329 331.375 210.907V205.075H337.585L337.297 203.852L339.961 203.779L340.231 205.075ZM285.453 204.157V209.791C286.875 208.603 288.134 207.379 289.232 206.101L291.051 208.045C289.305 209.899 287.451 211.591 285.453 213.103V216.577C285.453 217.279 285.651 217.459 286.316 217.513L286.561 217.526C286.783 217.539 286.961 217.549 287.108 217.549C287.297 217.549 287.528 217.535 287.786 217.52L287.9 217.513C288.638 217.441 288.854 217.279 288.98 216.631C289.052 216.325 289.125 215.569 289.179 214.327L291.465 215.119C291.447 216.019 291.356 216.865 291.23 217.639C290.906 219.349 290.331 219.853 288.369 219.961C288.081 219.979 287.631 219.997 287.019 219.997C286.407 219.997 285.957 219.979 285.669 219.961C283.599 219.853 282.915 219.331 282.915 217.225V214.885C282.465 215.191 281.978 215.497 281.438 215.821L280.125 213.535C281.079 212.995 281.997 212.401 282.915 211.753V204.066L285.453 204.157ZM65.5215 154C85.3559 154 101.543 169.959 101.087 190.021C101.087 191.389 100.858 192.529 100.858 193.669H87.4082C87.4082 192.301 87.6357 191.161 87.6357 190.021C87.6357 177.483 77.6045 167.451 65.0654 167.451C52.5264 167.451 42.4951 177.482 42.4951 190.021C42.4952 198.685 47.5108 205.98 54.5781 209.855L54.3506 210.084C53.8947 210.768 54.3504 211.452 54.3506 211.68C54.3539 211.686 54.5769 212.138 54.3506 212.364C54.1226 212.364 53.8943 212.592 53.4385 212.592C53.4385 212.592 53.2104 212.592 52.9824 212.592C52.0705 212.592 51.8422 213.048 51.6143 213.275C51.3863 213.503 51.1589 214.187 51.3867 214.871C51.6147 215.099 51.6146 215.328 51.3867 215.556C51.1587 215.784 50.9301 215.783 50.7021 215.783H49.79C49.1065 215.783 48.6508 216.239 48.4229 216.695C48.1949 217.151 48.4224 217.835 48.6504 218.747C48.6471 218.75 48.4229 218.977 48.4229 219.203C48.4229 219.431 48.1947 219.432 47.9668 219.432C47.511 219.204 47.2828 218.976 46.8271 218.976C46.1434 218.976 45.687 219.431 45.459 219.887C35.8838 213.275 29.5001 202.332 29.5 190.021C29.5 170.187 45.687 154 65.5215 154ZM252.169 203.852L251.81 204.77H256.22V206.605H254.06V207.595H256.453V209.449H254.005C255.229 210.007 256.13 210.457 256.688 210.799L255.715 212.401H261.979V219.871H249.955V213.067C249.613 213.229 249.289 213.373 248.965 213.499L247.831 211.394C249.559 210.818 250.621 210.241 251.197 209.449H248.335V207.595H249.47L248.191 206.785C248.947 205.885 249.56 204.823 250.01 203.617L252.169 203.852ZM54.8057 215.783C53.894 215.783 53.2101 216.467 53.21 217.379C53.21 218.291 53.8939 218.975 54.8057 218.976C55.7176 218.976 56.4023 218.291 56.4023 217.379C56.4022 216.467 55.7175 215.783 54.8057 215.783ZM45.915 215.556C45.0031 215.556 44.3193 216.24 44.3193 217.151C44.3194 218.063 45.0032 218.747 45.915 218.747C46.8268 218.747 47.7385 218.063 47.5107 217.151C47.5107 216.24 46.8268 215.556 45.915 215.556ZM252.457 217.963H259.495V216.938H252.457V217.963ZM224.088 215.623L225.563 216.235C225.905 215.893 226.194 215.46 226.428 214.938H224.483L224.088 215.623ZM61.874 213.275C60.962 213.275 60.5059 213.96 60.5059 214.644C60.5059 215.327 61.19 216.011 61.874 216.011C62.5579 216.01 63.2412 215.327 63.2412 214.644C63.2412 213.96 62.5579 213.276 61.874 213.275ZM42.4951 212.364C41.5832 212.364 40.8994 213.048 40.8994 213.96C40.8996 214.872 41.5833 215.556 42.4951 215.556C43.4068 215.556 44.0905 214.644 44.0908 213.96C44.0908 213.048 43.407 212.364 42.4951 212.364ZM57.7695 212.363C57.0857 212.363 56.4018 213.048 56.1738 213.96C56.1741 214.872 56.8579 215.556 57.7695 215.556C58.6813 215.556 59.365 214.872 59.3652 213.96C59.3652 213.048 58.6815 212.363 57.7695 212.363ZM49.1064 212.136C48.1946 212.136 47.5108 212.82 47.5107 213.731C47.5107 214.643 48.1946 215.327 49.1064 215.327C50.0184 215.327 50.7021 214.643 50.7021 213.731C50.7021 213.047 50.0184 212.136 49.1064 212.136ZM252.457 215.209H259.495V214.184H252.457V215.209ZM336.343 211.789C335.929 212.599 335.425 213.337 334.849 214.039H338.593V212.6L337.603 213.625C337.297 213.103 336.865 212.491 336.343 211.789ZM231.576 208.873C231.774 210.367 232.08 211.645 232.53 212.707C232.944 211.609 233.232 210.277 233.394 208.693H231.666L231.576 208.873ZM253.069 211.016C252.655 211.501 252.079 211.969 251.306 212.401H255.373C254.887 212.077 254.113 211.61 253.069 211.016ZM312.059 210.565C311.321 210.619 310.528 210.673 309.7 210.691V212.113H312.167L312.059 210.565ZM39.5312 208.716C38.6194 208.716 37.9357 209.4 37.9355 210.312C37.9355 211.224 38.6193 211.908 39.5312 211.908C40.2152 211.908 40.899 211.224 41.127 210.312C41.1268 209.4 40.4431 208.716 39.5312 208.716ZM45.6865 208.943C45.0027 208.943 44.3195 209.4 44.3193 210.312C44.3193 211.223 45.0027 211.907 45.6865 211.68C46.3705 211.68 47.0547 211.224 47.0547 210.312C47.0546 209.628 46.5983 208.943 45.6865 208.943ZM52.2979 208.943C51.3862 208.944 50.7029 209.628 50.9307 210.312C50.9307 210.995 51.3862 211.679 52.2979 211.68C52.9818 211.68 53.666 211.224 53.666 210.312C53.6659 209.628 53.2097 208.943 52.2979 208.943ZM263.383 211.646H257.012V204.661H263.383V211.646ZM259.153 209.611H261.26V206.659H259.153V209.611ZM250.855 206.605C250.73 206.839 250.513 207.163 250.226 207.595H251.755L251.846 207.343V206.605H250.855ZM36.3398 204.841C35.6559 204.841 34.9717 205.524 34.9717 206.208C34.9717 206.892 35.6559 207.576 36.3398 207.576C37.0237 207.576 37.707 206.892 37.707 206.208C37.707 205.524 37.0237 204.841 36.3398 204.841ZM41.8115 204.841C40.8996 204.841 40.2154 205.524 40.4434 206.208C40.4434 206.892 41.1276 207.576 41.8115 207.576C42.4953 207.576 43.1787 206.892 43.1787 206.208C43.1786 205.524 42.4953 204.841 41.8115 204.841ZM47.2822 204.841C46.3705 204.841 45.6871 205.524 45.915 206.208C45.915 206.892 46.5984 207.576 47.2822 207.576C47.9662 207.576 48.6504 206.892 48.6504 206.208C48.6503 205.524 47.9662 204.841 47.2822 204.841ZM226.229 207.217H227.22L226.229 206.587V207.217ZM34.0596 200.509C33.3758 200.509 32.6917 201.192 32.6914 201.876C32.6914 202.56 33.3756 203.244 34.0596 203.244C34.7435 203.244 35.4277 202.56 35.4277 201.876C35.4275 201.192 34.7434 200.509 34.0596 200.509ZM38.8477 200.736C38.1639 200.736 37.7072 201.192 37.707 201.876C37.707 202.56 38.1637 203.017 38.8477 203.017C39.5314 203.016 39.9873 202.56 39.9873 201.876C39.9871 201.192 39.5313 200.736 38.8477 200.736ZM43.8633 200.736C43.1795 200.736 42.7228 201.192 42.7227 201.876C42.7227 202.56 43.1793 203.017 43.8633 203.017C44.547 203.016 45.0029 202.56 45.0029 201.876C45.0027 201.192 44.5469 200.736 43.8633 200.736ZM87.1797 198.457L85.3564 200.281C85.8121 199.597 86.2681 198.913 86.4961 198.001L87.1797 198.457Z" fill="white"/>
<path fill-rule="evenodd" clip-rule="evenodd" d="M249.6 174.509C250.122 174.741 250.643 174.973 251.136 175.234C253.338 176.335 254.41 178.248 254.497 180.653C254.787 184.826 253.454 188.42 250.122 191.086C248.528 192.361 246.586 193.056 244.615 193.578C241.789 194.34 238.733 194.393 235.766 194.445C235.235 194.454 234.706 194.463 234.183 194.476C232.038 194.505 229.894 194.505 227.749 194.476C227.394 194.47 226.994 194.484 226.572 194.499C225.033 194.552 223.196 194.616 222.127 193.752C220.45 192.39 220.853 189.846 221.18 187.778C221.243 187.382 221.303 187.002 221.345 186.652C221.634 184.304 222.011 181.986 222.446 179.697C222.784 177.91 223.022 176.123 223.259 174.336C223.307 173.978 223.354 173.621 223.402 173.263C223.508 172.536 223.628 171.809 223.749 171.082C223.96 169.809 224.172 168.537 224.301 167.264L224.352 166.783C224.506 165.321 224.66 163.861 225.025 162.425C225.894 159.121 228.59 156.078 231.951 155.18C235.483 154.253 239.036 154.431 242.592 154.608C243.151 154.636 243.709 154.664 244.268 154.687C245.948 154.745 247.542 155.18 249.049 155.933C251.223 157.006 252.701 158.745 253.599 160.976C254.642 163.555 254.642 166.134 253.541 168.713C252.73 170.626 251.339 171.988 249.484 172.915C249.147 173.084 248.81 173.233 248.479 173.379C248.241 173.485 248.005 173.589 247.774 173.698C248.131 173.86 248.479 174.013 248.817 174.162C249.084 174.28 249.345 174.395 249.6 174.509ZM233.082 187.289C235.574 187.579 238.356 187.492 240.703 186.42C243.079 185.348 245.775 182.276 243.659 179.697C243.137 179.088 242.471 178.567 241.746 178.248C239.732 177.338 237.281 177.416 234.974 177.489C234.193 177.514 233.43 177.538 232.705 177.523C232.299 177.523 232.241 177.668 232.183 178.016C232.067 178.885 231.944 179.747 231.821 180.609C231.698 181.471 231.575 182.334 231.459 183.203C231.314 184.044 231.198 184.913 231.082 185.782C231.074 185.853 231.056 185.947 231.035 186.051C230.98 186.332 230.91 186.686 230.995 186.855L231.024 186.884C231.249 187.131 232.122 187.204 232.69 187.251C232.853 187.265 232.991 187.277 233.082 187.289ZM235.516 170.8C236.472 170.916 237.399 170.916 238.327 170.829C241.138 170.568 246.093 169.235 245.832 165.497C245.804 164.888 245.514 164.309 245.137 163.816C244.383 162.831 243.166 162.106 241.949 161.787C240.5 161.411 238.906 161.382 237.429 161.671C236.066 161.961 234.704 162.744 234.241 164.135C233.777 165.526 233.603 166.975 233.458 168.424C233.45 168.54 233.423 168.705 233.392 168.891C233.316 169.357 233.218 169.951 233.342 170.22C233.342 170.249 233.342 170.249 233.371 170.278C233.679 170.681 234.548 170.735 235.156 170.773C235.292 170.782 235.415 170.789 235.516 170.8Z" fill="white"/>
<path fill-rule="evenodd" clip-rule="evenodd" d="M284.52 167.178C282.578 165.758 279.652 165.294 277.333 165.033C276.261 164.917 275.16 164.801 274.058 164.772C272.696 164.714 271.363 164.772 270.059 164.946C268.813 165.12 267.596 165.381 266.379 165.7C266.207 165.747 266.035 165.793 265.863 165.838C264.988 166.068 264.116 166.297 263.365 166.83C262.525 167.438 261.858 168.25 261.481 169.206C261.104 170.191 260.96 171.64 261.626 172.568C262.032 173.147 262.785 173.205 263.423 173.031C266.958 172.133 270.349 171.438 274.001 171.988C275.276 172.191 276.377 172.539 277.188 173.64C277.565 174.162 277.768 174.886 277.246 175.379C277.06 175.751 276.262 175.806 275.842 175.835L275.739 175.842C274.965 175.909 274.185 175.966 273.403 176.023C271.111 176.19 268.8 176.359 266.553 176.77C264.147 177.204 261.742 178.103 260.003 179.9C258.41 181.58 257.598 184.16 257.656 186.449C257.772 191.115 262.64 193.317 266.698 193.752C270.291 194.129 273.884 194.099 277.449 193.375C279.854 192.882 282.173 192.158 284.172 190.622C285.187 189.839 285.853 188.883 285.998 187.579L286.126 186.529C286.518 183.32 286.907 180.129 287.273 176.915C287.301 176.67 287.332 176.426 287.362 176.183C287.519 174.927 287.675 173.685 287.505 172.423C287.215 170.278 286.259 168.424 284.52 167.178ZM276.609 184.826C276.377 185.869 275.768 186.913 274.609 187.087C272.725 187.405 270.436 187.579 268.784 186.42C267.567 185.551 267.045 184.073 268.292 183C269.537 181.916 271.366 181.847 273.105 181.782C273.875 181.753 274.628 181.725 275.305 181.609C275.355 181.602 275.406 181.593 275.456 181.584C275.609 181.557 275.761 181.53 275.913 181.551C276.058 181.551 276.174 181.609 276.261 181.667C277.159 182.131 276.782 184.102 276.609 184.826Z" fill="white"/>
<path fill-rule="evenodd" clip-rule="evenodd" d="M306.342 164.135C308.979 164.077 312.109 164.251 314.485 165.468C316.427 166.453 317.383 169.38 315.499 171.582C315.015 172.143 314.441 172.614 313.857 173.094C313.776 173.16 313.696 173.226 313.616 173.292C313.499 173.379 313.181 173.437 313.036 173.35C310.949 172.162 308.718 171.38 306.342 170.974C305.385 170.829 304.4 170.684 303.415 170.8C302.632 170.887 301.067 171.293 301.154 172.336C301.225 173.017 302.134 173.451 302.815 173.776C302.974 173.852 303.12 173.922 303.241 173.988C304.11 174.451 305.009 174.857 305.936 175.234C306.635 175.518 307.343 175.781 308.049 176.045C309.217 176.479 310.381 176.913 311.5 177.436C315.18 179.175 316.137 183.058 314.804 186.333C313.644 189.115 311.442 190.767 308.776 191.868C303.531 194.012 297.561 194.129 292.199 192.274C292.13 192.25 292.061 192.226 291.991 192.202C290.811 191.794 289.627 191.385 289.244 190.071C288.606 187.898 291.098 185.551 292.721 184.478C293.62 183.899 294.083 183.899 294.895 184.536C297.387 186.449 301.879 188.101 304.777 186.101C305.183 185.84 305.53 185.406 305.443 184.942C305.289 184.093 303.81 183.495 302.953 183.149C302.844 183.105 302.746 183.065 302.661 183.029C302.007 182.751 301.343 182.51 300.68 182.269C300.169 182.083 299.659 181.898 299.155 181.696C299.057 181.657 298.958 181.618 298.858 181.578C296.883 180.791 294.509 179.845 293.185 178.19C291.823 176.451 291.562 174.162 292.026 172.075C292.692 169.003 295.069 166.569 298.025 165.584C300.633 164.714 303.444 164.193 306.226 164.135H306.342Z" fill="white"/>
<path fill-rule="evenodd" clip-rule="evenodd" d="M342.769 165.265C345.262 166.482 347.32 168.163 348.361 170.829C348.826 171.988 348.97 173.263 348.97 174.509C348.97 175.002 348.943 175.495 348.856 175.987C348.739 176.625 348.535 177.233 348.16 177.813C347.581 178.711 346.711 179.407 345.724 179.842C345.058 180.131 344.305 180.232 343.585 180.329C343.366 180.358 343.153 180.387 342.943 180.421C339.133 180.994 335.299 181.438 331.465 181.883C330.838 181.956 330.211 182.029 329.584 182.102C329.536 182.107 329.458 182.113 329.362 182.119C328.934 182.148 328.142 182.202 328.047 182.392C328.019 182.479 328.019 182.566 328.047 182.653C328.337 183.928 329.381 184.797 330.481 185.348C332.164 186.188 334.075 186.536 335.929 186.565C337.264 186.565 338.596 186.333 339.928 186.043C340.915 185.84 341.842 185.608 342.769 185.232L342.922 185.176C343.525 184.953 344.212 184.699 344.827 184.913C345.376 185.087 345.754 185.58 345.985 186.13C346.651 187.782 346.072 189.579 344.77 190.709C343.291 191.984 341.407 192.506 339.553 192.94C337.525 193.433 335.35 193.636 333.235 193.578C330.916 193.52 328.598 193.143 326.396 192.419C324.251 191.723 322.251 190.535 320.774 188.796C317.905 185.406 317.586 180.073 318.629 175.929C319.73 171.495 323.15 167.641 327.323 165.786C329.758 164.685 332.395 164.135 335.062 164.048C337.525 163.961 340.51 164.164 342.769 165.265ZM337.612 175.031C338.017 174.973 338.422 174.828 338.8 174.654C339.205 174.451 339.292 174.133 339.148 173.698C339.031 173.176 338.74 172.857 338.392 172.481C337.465 171.437 336.307 171.032 334.975 170.916C331.408 170.626 328.627 172.539 327.96 175.813C328.218 175.828 328.467 175.852 328.712 175.874C328.937 175.895 329.159 175.915 329.381 175.929C329.545 175.929 329.71 175.936 329.875 175.942C330.202 175.955 330.52 175.968 330.829 175.929C331.495 175.857 332.155 175.777 332.815 175.698C333.475 175.618 334.132 175.538 334.801 175.466C334.975 175.437 335.119 175.408 335.263 175.379C335.524 175.34 335.785 175.305 336.046 175.269C336.568 175.198 337.09 175.128 337.612 175.031Z" fill="white"/>
</g>
<defs>
<linearGradient id="paint0_linear_4649_10603" x1="0" y1="0" x2="458.351" y2="203.711" gradientUnits="userSpaceOnUse">
<stop offset="0.12" stop-color="#85BF5E"/>
<stop offset="1" stop-color="#008699"/>
</linearGradient>
<clipPath id="clip0_4649_10603">
<rect width="321" height="72" fill="white" transform="translate(29.5 154)"/>
</clipPath>
</defs>
</svg>
