<svg width="32" height="32" viewBox="0 0 32 32" fill="none" xmlns="http://www.w3.org/2000/svg">
<rect width="32" height="32" rx="8" fill="#009E9E" fill-opacity="0.1"/>
<path d="M16.5121 10.3958L22.8097 10.3963C23.7255 10.3963 24.4029 11.0679 24.4631 12.0048V21.5189C24.4631 22.4347 23.7255 23.2083 22.8097 23.2083H9.19826C8.2825 23.2083 7.54492 22.4548 7.54492 21.5189V10.3964C7.54492 9.48061 8.28252 8.70703 9.19826 8.70703H13.2637C14.8581 8.70701 14.8581 10.3964 16.5121 10.3958ZM18.723 17.7703H18.4208C18.0869 17.7703 17.8166 18.0406 17.8166 18.3745V20.1872C17.8166 20.5212 18.0869 20.7914 18.4208 20.7914H20.2335C20.5675 20.7914 20.8378 20.5212 20.8378 20.1872V18.3745C20.8378 18.0406 20.5675 17.7703 20.2335 17.7703H19.9314V16.5619C19.9314 16.2279 19.6612 15.9577 19.3272 15.9577H16.3061V15.3534H16.6082C16.9422 15.3534 17.2124 15.0832 17.2124 14.7492V12.9365C17.2124 12.6026 16.9422 12.3323 16.6082 12.3323H14.7955C14.4616 12.3323 14.1913 12.6026 14.1913 12.9365V14.7492C14.1913 15.0832 14.4616 15.3534 14.7955 15.3534H15.0977V15.9577H12.6808C12.3468 15.9577 12.0765 16.2279 12.0765 16.5619V17.7703H11.7745C11.4404 17.7703 11.1702 18.0406 11.1702 18.3745V20.1872C11.1702 20.5212 11.4404 20.7914 11.7745 20.7914H13.5871C13.9211 20.7914 14.1913 20.5212 14.1913 20.1872V18.3745C14.1913 18.0406 13.9211 17.7703 13.5871 17.7703H13.285V17.1661H18.723V17.7703Z" fill="#009E9E"/>
</svg>
