<svg width="12" height="12" viewBox="0 0 12 12" fill="none" xmlns="http://www.w3.org/2000/svg">
<path d="M9.65688 7.77121L8.71402 6.82841L9.65688 5.88561C10.6983 4.84421 10.6983 3.15578 9.65688 2.11438C8.61548 1.07298 6.92702 1.07298 5.88562 2.11438L4.94282 3.05719L4 2.11438L4.94282 1.17157C6.50488 -0.390525 9.03755 -0.390525 10.5997 1.17157C12.1617 2.73367 12.1617 5.26634 10.5997 6.82841L9.65688 7.77121ZM7.77122 9.65688L6.82842 10.5997C5.26635 12.1617 2.73367 12.1617 1.17157 10.5997C-0.390523 9.03754 -0.390523 6.50488 1.17157 4.94281L2.11438 4L3.05719 4.94281L2.11438 5.88561C1.07298 6.92701 1.07298 8.61548 2.11438 9.65688C3.15578 10.6983 4.84422 10.6983 5.88562 9.65688L6.82842 8.71408L7.77122 9.65688ZM7.77122 3.05719L8.71402 4L4 8.71408L3.05719 7.77121L7.77122 3.05719Z" fill="#4E5969"/>
</svg>
