<svg width="24" height="24" viewBox="0 0 24 24" fill="none" xmlns="http://www.w3.org/2000/svg">
<path fill-rule="evenodd" clip-rule="evenodd" d="M21 3C21.5523 3 22 3.44772 22 4V18C22 18.5523 21.5523 19 21 19H15.7529L17.4004 21.1963C17.5661 21.4172 17.5207 21.7308 17.2998 21.8965C17.2133 21.9614 17.1082 21.9971 17 21.9971H7C6.72397 21.9971 6.50017 21.773 6.5 21.4971C6.5 21.3889 6.5347 21.2828 6.59961 21.1963L8.24707 19H3C2.44772 19 2 18.5523 2 18V4C2 3.44772 2.44772 3 3 3H21ZM14.7979 8.7959L12.3477 11.2451L10.2266 9.12402L5.98438 13.3672L7.39844 14.7812L10.2266 11.9531L12.3477 14.0742L16.2119 10.21L18.0049 12.0029V7.00293H13.0049L14.7979 8.7959Z" fill="black"/>
</svg>
