<svg width="18" height="19" viewBox="0 0 18 19" fill="none" xmlns="http://www.w3.org/2000/svg">
<path d="M2 9.5C2 9.8134 2.46101 10.3584 3.53047 10.8931C4.91405 11.5849 6.87677 12 9 12C11.1232 12 13.0859 11.5849 14.4695 10.8931C15.539 10.3584 16 9.8134 16 9.5V7.3287C14.35 8.3482 11.8273 9 9 9C6.17273 9 3.64996 8.3482 2 7.3287V9.5ZM16 12.3287C14.35 13.3482 11.8273 14 9 14C6.17273 14 3.64996 13.3482 2 12.3287V14.5C2 14.8134 2.46101 15.3584 3.53047 15.8931C4.91405 16.5849 6.87677 17 9 17C11.1232 17 13.0859 16.5849 14.4695 15.8931C15.539 15.3584 16 14.8134 16 14.5V12.3287ZM0 14.5V4.5C0 2.01472 4.02944 0 9 0C13.9706 0 18 2.01472 18 4.5V14.5C18 16.9853 13.9706 19 9 19C4.02944 19 0 16.9853 0 14.5ZM9 7C11.1232 7 13.0859 6.58492 14.4695 5.89313C15.539 5.3584 16 4.81342 16 4.5C16 4.18658 15.539 3.6416 14.4695 3.10687C13.0859 2.41508 11.1232 2 9 2C6.87677 2 4.91405 2.41508 3.53047 3.10687C2.46101 3.6416 2 4.18658 2 4.5C2 4.81342 2.46101 5.3584 3.53047 5.89313C4.91405 6.58492 6.87677 7 9 7Z" fill="#6B7785"/>
</svg>
