<svg width="16" height="16" viewBox="0 0 16 16" fill="none" xmlns="http://www.w3.org/2000/svg">
<g clip-path="url(#clip0_821_11822)">
<path d="M11.9216 12.8642C10.7874 13.5833 9.44237 13.9998 8.00004 13.9998C4.40525 13.9998 1.4146 11.4133 0.787598 7.99981C1.07872 6.41489 1.87938 5.00828 3.01348 3.95606L0.928944 1.87152L1.87176 0.928711L15.0711 14.128L14.1283 15.0709L11.9216 12.8642ZM3.9569 4.89948C3.07099 5.70644 2.42504 6.77781 2.14836 7.99981C2.75998 10.7011 5.17624 12.6665 8.00004 12.6665C9.06631 12.6665 10.0745 12.3862 10.9494 11.8919L9.59717 10.5397C9.1347 10.8311 8.58704 10.9998 8.00004 10.9998C6.34316 10.9998 5.00001 9.65661 5.00001 7.99981C5.00001 7.41274 5.16862 6.86508 5.46004 6.40262L3.9569 4.89948ZM8.60911 9.55168L6.44814 7.39074C6.37404 7.57941 6.33334 7.78481 6.33334 7.99981C6.33334 8.92028 7.07957 9.66648 8.00004 9.66648C8.21497 9.66648 8.42044 9.62574 8.60911 9.55168ZM13.871 11.0613L12.9172 10.1075C13.3544 9.48421 13.6768 8.77208 13.8516 7.99981C13.24 5.29846 10.8238 3.33312 8.00004 3.33312C7.4361 3.33312 6.88844 3.4115 6.36817 3.55846L5.31614 2.50644C6.14735 2.1794 7.0527 1.99978 8.00004 1.99978C11.5948 1.99978 14.5854 4.58629 15.2124 7.99981C15.0043 9.13288 14.5357 10.1749 13.871 11.0613ZM7.8151 5.00539C7.87624 5.00167 7.9379 4.99978 8.00004 4.99978C9.65684 4.99978 11 6.34293 11 7.99981C11 8.06188 10.9981 8.12354 10.9944 8.18468L7.8151 5.00539Z" fill="#4E5969"/>
</g>
<defs>
<clipPath id="clip0_821_11822">
<rect width="16" height="16" fill="white"/>
</clipPath>
</defs>
</svg>
