<svg width="20" height="20" viewBox="0 0 20 20" fill="none" xmlns="http://www.w3.org/2000/svg">
<mask id="path-1-outside-1_12239_21299" maskUnits="userSpaceOnUse" x="0.428711" y="4.12109" width="19" height="12" fill="black">
<rect fill="white" x="0.428711" y="4.12109" width="19" height="12"/>
<path d="M18.5713 8.80273H17.4229V13.0244L11.5752 7.17773L11.0996 6.70215L10.624 7.17773L7.65039 10.1504L2.37988 4.87988L1.9043 5.35645L1.42871 5.83203L7.17578 11.5762L7.65137 12.0518L8.12695 11.5762L11.0986 8.60547L16.4697 13.9727H12.2539V15.1211H18.5713V8.80273Z"/>
</mask>
<path d="M18.5713 8.80273H17.4229V13.0244L11.5752 7.17773L11.0996 6.70215L10.624 7.17773L7.65039 10.1504L2.37988 4.87988L1.9043 5.35645L1.42871 5.83203L7.17578 11.5762L7.65137 12.0518L8.12695 11.5762L11.0986 8.60547L16.4697 13.9727H12.2539V15.1211H18.5713V8.80273Z" fill="#00B42A"/>
<path d="M18.5713 8.80273V8.46937H18.9046V8.80273H18.5713ZM17.4229 8.80273H17.0895V8.46937H17.4229V8.80273ZM17.4229 13.0244H17.7562V13.8291L17.1872 13.2602L17.4229 13.0244ZM11.5752 7.17773L11.3395 7.41348L11.3395 7.41346L11.5752 7.17773ZM11.0996 6.70215L10.8639 6.46643L11.0996 6.23071L11.3353 6.46643L11.0996 6.70215ZM10.624 7.17773L10.8597 7.41346L10.8597 7.41349L10.624 7.17773ZM7.65039 10.1504L7.88607 10.3862L7.65035 10.6218L7.41467 10.3861L7.65039 10.1504ZM2.37988 4.87988L2.14392 4.6444L2.37964 4.4082L2.6156 4.64416L2.37988 4.87988ZM1.9043 5.35645L2.14026 5.59192L2.14002 5.59217L1.9043 5.35645ZM1.42871 5.83203L1.19305 6.06781L0.957208 5.83209L1.19299 5.59631L1.42871 5.83203ZM7.17578 11.5762L7.41144 11.3404L7.4115 11.3405L7.17578 11.5762ZM7.65137 12.0518L7.88709 12.2875L7.65137 12.5232L7.41565 12.2875L7.65137 12.0518ZM8.12695 11.5762L7.89123 11.3405L7.89127 11.3404L8.12695 11.5762ZM11.0986 8.60547L10.863 8.36971L11.0986 8.13415L11.3343 8.36966L11.0986 8.60547ZM16.4697 13.9727L16.7054 13.7368L17.2749 14.306H16.4697V13.9727ZM12.2539 13.9727H11.9205V13.6393H12.2539V13.9727ZM12.2539 15.1211V15.4545H11.9205V15.1211H12.2539ZM18.5713 15.1211H18.9046V15.4545H18.5713V15.1211ZM18.5713 8.80273V9.1361H17.4229V8.80273V8.46937H18.5713V8.80273ZM17.4229 8.80273H17.7562V13.0244H17.4229H17.0895V8.80273H17.4229ZM17.4229 13.0244L17.1872 13.2602L11.3395 7.41348L11.5752 7.17773L11.8109 6.94199L17.6586 12.7887L17.4229 13.0244ZM11.5752 7.17773L11.3395 7.41346L10.8639 6.93787L11.0996 6.70215L11.3353 6.46643L11.8109 6.94201L11.5752 7.17773ZM11.0996 6.70215L11.3353 6.93787L10.8597 7.41346L10.624 7.17773L10.3883 6.94201L10.8639 6.46643L11.0996 6.70215ZM10.624 7.17773L10.8597 7.41349L7.88607 10.3862L7.65039 10.1504L7.41471 9.91463L10.3883 6.94197L10.624 7.17773ZM7.65039 10.1504L7.41467 10.3861L2.14416 5.1156L2.37988 4.87988L2.6156 4.64416L7.88611 9.91467L7.65039 10.1504ZM2.37988 4.87988L2.61585 5.11536L2.14026 5.59192L1.9043 5.35645L1.66833 5.12097L2.14392 4.6444L2.37988 4.87988ZM1.9043 5.35645L2.14002 5.59217L1.66443 6.06775L1.42871 5.83203L1.19299 5.59631L1.66858 5.12072L1.9043 5.35645ZM1.42871 5.83203L1.66437 5.59625L7.41144 11.3404L7.17578 11.5762L6.94012 11.812L1.19305 6.06781L1.42871 5.83203ZM7.17578 11.5762L7.4115 11.3405L7.88709 11.816L7.65137 12.0518L7.41565 12.2875L6.94006 11.8119L7.17578 11.5762ZM7.65137 12.0518L7.41565 11.816L7.89123 11.3405L8.12695 11.5762L8.36267 11.8119L7.88709 12.2875L7.65137 12.0518ZM8.12695 11.5762L7.89127 11.3404L10.863 8.36971L11.0986 8.60547L11.3343 8.84123L8.36264 11.8119L8.12695 11.5762ZM11.0986 8.60547L11.3343 8.36966L16.7054 13.7368L16.4697 13.9727L16.2341 14.2085L10.863 8.84128L11.0986 8.60547ZM16.4697 13.9727V14.306H12.2539V13.9727V13.6393H16.4697V13.9727ZM12.2539 13.9727H12.5873V15.1211H12.2539H11.9205V13.9727H12.2539ZM12.2539 15.1211V14.7877H18.5713V15.1211V15.4545H12.2539V15.1211ZM18.5713 15.1211H18.2379V8.80273H18.5713H18.9046V15.1211H18.5713Z" fill="#00B42A" mask="url(#path-1-outside-1_12239_21299)"/>
</svg>
