<svg width="21" height="20" viewBox="0 0 21 20" fill="none" xmlns="http://www.w3.org/2000/svg">
<mask id="path-1-outside-1_12239_21269" maskUnits="userSpaceOnUse" x="-0.528809" y="3.04395" width="22" height="14" fill="black">
<rect fill="white" x="-0.528809" y="3.04395" width="22" height="14"/>
<path d="M20.4712 11.4443H19.1255V6.34082L19.1177 6.33301L12.187 13.2646L11.7104 13.7402L7.67432 9.7041L1.42236 15.9561L0.946777 15.4795L0.471191 15.0039L7.19873 8.27734L7.67432 7.80176L8.1499 8.27734L11.7104 11.8369L18.1597 5.38965H13.0708V4.04395H20.4712V11.4443Z"/>
</mask>
<path d="M20.4712 11.4443H19.1255V6.34082L19.1177 6.33301L12.187 13.2646L11.7104 13.7402L7.67432 9.7041L1.42236 15.9561L0.946777 15.4795L0.471191 15.0039L7.19873 8.27734L7.67432 7.80176L8.1499 8.27734L11.7104 11.8369L18.1597 5.38965H13.0708V4.04395H20.4712V11.4443Z" fill="#F53F3F"/>
<path d="M20.4712 11.4443V11.7777H20.8045V11.4443H20.4712ZM19.1255 11.4443H18.7922V11.7777H19.1255V11.4443ZM19.1255 6.34082H19.4588V6.20275L19.3612 6.10512L19.1255 6.34082ZM19.1177 6.33301L19.3534 6.09731L19.1177 5.86159L18.882 6.09732L19.1177 6.33301ZM12.187 13.2646L12.4225 13.5006L12.4227 13.5003L12.187 13.2646ZM11.7104 13.7402L11.4747 13.9759L11.7102 14.2114L11.9459 13.9762L11.7104 13.7402ZM7.67432 9.7041L7.91002 9.4684L7.67432 9.2327L7.43861 9.4684L7.67432 9.7041ZM1.42236 15.9561L1.18642 16.1915L1.42212 16.4277L1.65807 16.1918L1.42236 15.9561ZM0.946777 15.4795L1.18272 15.244L1.18248 15.2438L0.946777 15.4795ZM0.471191 15.0039L0.235506 14.7682L-0.000230223 15.0039L0.235489 15.2396L0.471191 15.0039ZM7.19873 8.27734L7.43442 8.51306L7.43443 8.51305L7.19873 8.27734ZM7.67432 7.80176L7.91002 7.56606L7.67432 7.33035L7.43861 7.56606L7.67432 7.80176ZM8.1499 8.27734L7.9142 8.51305L7.91423 8.51308L8.1499 8.27734ZM11.7104 11.8369L11.4748 12.0726L11.7104 12.3083L11.9461 12.0727L11.7104 11.8369ZM18.1597 5.38965L18.3953 5.62539L18.9646 5.05632H18.1597V5.38965ZM13.0708 5.38965H12.7375V5.72298H13.0708V5.38965ZM13.0708 4.04395V3.71061H12.7375V4.04395H13.0708ZM20.4712 4.04395H20.8045V3.71061H20.4712V4.04395ZM20.4712 11.4443V11.111H19.1255V11.4443V11.7777H20.4712V11.4443ZM19.1255 11.4443H19.4588V6.34082H19.1255H18.7922V11.4443H19.1255ZM19.1255 6.34082L19.3612 6.10512L19.3534 6.09731L19.1177 6.33301L18.882 6.56871L18.8898 6.57652L19.1255 6.34082ZM19.1177 6.33301L18.882 6.09732L11.9513 13.029L12.187 13.2646L12.4227 13.5003L19.3534 6.56869L19.1177 6.33301ZM12.187 13.2646L11.9516 13.0287L11.475 13.5043L11.7104 13.7402L11.9459 13.9762L12.4225 13.5006L12.187 13.2646ZM11.7104 13.7402L11.9462 13.5045L7.91002 9.4684L7.67432 9.7041L7.43861 9.9398L11.4747 13.9759L11.7104 13.7402ZM7.67432 9.7041L7.43861 9.4684L1.18666 15.7204L1.42236 15.9561L1.65807 16.1918L7.91002 9.9398L7.67432 9.7041ZM1.42236 15.9561L1.65831 15.7206L1.18272 15.244L0.946777 15.4795L0.710833 15.715L1.18642 16.1915L1.42236 15.9561ZM0.946777 15.4795L1.18248 15.2438L0.706894 14.7682L0.471191 15.0039L0.235489 15.2396L0.711075 15.7152L0.946777 15.4795ZM0.471191 15.0039L0.706877 15.2396L7.43442 8.51306L7.19873 8.27734L6.96305 8.04162L0.235506 14.7682L0.471191 15.0039ZM7.19873 8.27734L7.43443 8.51305L7.91002 8.03746L7.67432 7.80176L7.43861 7.56606L6.96303 8.04164L7.19873 8.27734ZM7.67432 7.80176L7.43861 8.03746L7.9142 8.51305L8.1499 8.27734L8.3856 8.04164L7.91002 7.56606L7.67432 7.80176ZM8.1499 8.27734L7.91423 8.51308L11.4748 12.0726L11.7104 11.8369L11.9461 11.6012L8.38557 8.04161L8.1499 8.27734ZM11.7104 11.8369L11.9461 12.0727L18.3953 5.62539L18.1597 5.38965L17.924 5.15391L11.4748 11.6012L11.7104 11.8369ZM18.1597 5.38965V5.05632H13.0708V5.38965V5.72298H18.1597V5.38965ZM13.0708 5.38965H13.4041V4.04395H13.0708H12.7375V5.38965H13.0708ZM13.0708 4.04395V4.37728H20.4712V4.04395V3.71061H13.0708V4.04395ZM20.4712 4.04395H20.1379V11.4443H20.4712H20.8045V4.04395H20.4712Z" fill="#F53F3F" mask="url(#path-1-outside-1_12239_21269)"/>
</svg>
