<svg width="50" height="50" viewBox="0 0 50 50" fill="none" xmlns="http://www.w3.org/2000/svg">
<circle cx="25" cy="25" r="25" fill="#D9D9D9" fill-opacity="0.5"/>
<path fill-rule="evenodd" clip-rule="evenodd" d="M14.216 11.3281L14.2188 11.3281H30.1562L30.159 11.3281C30.7793 11.33 31.3737 11.5875 31.8123 12.0444C32.251 12.5014 32.4982 13.1205 32.5 13.7667L32.5 13.7695V34.7571H30.625V13.7714C30.6244 13.6416 30.5746 13.5173 30.4865 13.4255C30.3984 13.3337 30.2791 13.2819 30.1545 13.2812H14.2205C14.0959 13.2819 13.9766 13.3337 13.8885 13.4255C13.8004 13.5173 13.7506 13.6416 13.75 13.7713V35.2523C13.7514 35.6407 13.9002 36.0129 14.1639 36.2876C14.4277 36.5623 14.785 36.7173 15.158 36.7188H34.375V38.6719H15.1562L15.1535 38.6719C14.2847 38.6692 13.4524 38.3085 12.8381 37.6686C12.2238 37.0288 11.8776 36.1617 11.875 35.2568L11.875 35.2539V13.7695L11.875 13.7667C11.8768 13.1205 12.124 12.5014 12.5627 12.0444C13.0013 11.5875 13.5957 11.33 14.216 11.3281Z" fill="#A9AEB8"/>
<path fill-rule="evenodd" clip-rule="evenodd" d="M30.625 17.1875C30.625 16.6482 31.0447 16.2109 31.5625 16.2109H35.7812C36.4029 16.2109 36.999 16.4682 37.4385 16.926C37.8781 17.3839 38.125 18.0048 38.125 18.6523V34.7656C38.125 35.8016 37.7299 36.7952 37.0267 37.5278C36.3234 38.2603 35.3696 38.6719 34.375 38.6719C33.3804 38.6719 32.4266 38.2603 31.7233 37.5278C31.0201 36.7952 30.625 35.8016 30.625 34.7656V17.1875ZM32.5 18.1641V34.7656C32.5 35.2836 32.6975 35.7804 33.0492 36.1467C33.4008 36.513 33.8777 36.7188 34.375 36.7188C34.8723 36.7188 35.3492 36.513 35.7008 36.1467C36.0525 35.7804 36.25 35.2836 36.25 34.7656V18.6523C36.25 18.5228 36.2006 18.3986 36.1127 18.3071C36.0248 18.2155 35.9056 18.1641 35.7812 18.1641H32.5Z" fill="#A9AEB8"/>
<path fill-rule="evenodd" clip-rule="evenodd" d="M23.125 17.1875C23.125 16.6482 23.5447 16.2109 24.0625 16.2109H27.8125C28.3303 16.2109 28.75 16.6482 28.75 17.1875C28.75 17.7268 28.3303 18.1641 27.8125 18.1641H24.0625C23.5447 18.1641 23.125 17.7268 23.125 17.1875Z" fill="#A9AEB8"/>
<path fill-rule="evenodd" clip-rule="evenodd" d="M23.125 21.0938C23.125 20.5544 23.5447 20.1172 24.0625 20.1172H27.8125C28.3303 20.1172 28.75 20.5544 28.75 21.0938C28.75 21.6331 28.3303 22.0703 27.8125 22.0703H24.0625C23.5447 22.0703 23.125 21.6331 23.125 21.0938Z" fill="#A9AEB8"/>
<path fill-rule="evenodd" clip-rule="evenodd" d="M15.625 25C15.625 24.4607 16.0447 24.0234 16.5625 24.0234H27.8125C28.3303 24.0234 28.75 24.4607 28.75 25C28.75 25.5393 28.3303 25.9766 27.8125 25.9766H16.5625C16.0447 25.9766 15.625 25.5393 15.625 25Z" fill="#A9AEB8"/>
<path fill-rule="evenodd" clip-rule="evenodd" d="M15.625 28.9062C15.625 28.3669 16.0447 27.9297 16.5625 27.9297H27.8125C28.3303 27.9297 28.75 28.3669 28.75 28.9062C28.75 29.4456 28.3303 29.8828 27.8125 29.8828H16.5625C16.0447 29.8828 15.625 29.4456 15.625 28.9062Z" fill="#A9AEB8"/>
<path fill-rule="evenodd" clip-rule="evenodd" d="M15.625 32.8125C15.625 32.2732 16.0447 31.8359 16.5625 31.8359H27.8125C28.3303 31.8359 28.75 32.2732 28.75 32.8125C28.75 33.3518 28.3303 33.7891 27.8125 33.7891H16.5625C16.0447 33.7891 15.625 33.3518 15.625 32.8125Z" fill="#A9AEB8"/>
<path d="M20.3125 22.0703H16.5625C16.3139 22.0703 16.0754 21.9674 15.8996 21.7843C15.7238 21.6011 15.625 21.3528 15.625 21.0938V17.1875C15.625 16.9285 15.7238 16.6801 15.8996 16.497C16.0754 16.3138 16.3139 16.2109 16.5625 16.2109H20.3125C20.5611 16.2109 20.7996 16.3138 20.9754 16.497C21.1512 16.6801 21.25 16.9285 21.25 17.1875V21.0938C21.25 21.3528 21.1512 21.6011 20.9754 21.7843C20.7996 21.9674 20.5611 22.0703 20.3125 22.0703Z" fill="#A9AEB8"/>
</svg>
