<svg width="16" height="16" viewBox="0 0 16 16" fill="none" xmlns="http://www.w3.org/2000/svg">
    <path
        d="M2 3.33333C2 2.96667 2.13045 2.65289 2.39133 2.392C2.65222 2.13111 2.96622 2.00044 3.33333 2L12.6667 2C13.0333 2 13.3471 2.13067 13.608 2.392C13.8689 2.65333 13.9996 2.96711 14 3.33333L14 6C14 6.36667 13.8693 6.68067 13.608 6.942C13.3467 7.20333 13.0329 7.33378 12.6667 7.33333L12 7.33333C11.8111 7.33333 11.6527 7.26933 11.5247 7.14133C11.3967 7.01333 11.3329 6.85511 11.3333 6.66667C11.3338 6.47822 11.3978 6.32 11.5253 6.192C11.6529 6.064 11.8111 6 12 6L12.6667 6L12.6667 3.33333L3.33333 3.33333L3.33333 6L4 6C4.18889 6 4.34711 6.064 4.47467 6.192C4.60222 6.32 4.66622 6.47822 4.66667 6.66667C4.66711 6.85511 4.60311 7.01356 4.47467 7.142C4.34622 7.27044 4.188 7.33422 4 7.33333L3.33333 7.33333C2.96667 7.33333 2.65267 7.20289 2.39133 6.942C2.13 6.68111 1.99956 6.36711 2 6L2 3.33333ZM2 10C2 9.63333 2.13045 9.31956 2.39133 9.05867C2.65222 8.79778 2.96622 8.66711 3.33333 8.66667L4 8.66667C4.18889 8.66667 4.34711 8.73067 4.47467 8.85867C4.60222 8.98667 4.66622 9.14489 4.66667 9.33333C4.66711 9.52178 4.60311 9.68022 4.47467 9.80867C4.34622 9.93711 4.188 10.0009 4 10L3.33333 10L3.33333 12.6667L12.6667 12.6667L12.6667 10L12 10C11.8111 10 11.6527 9.936 11.5247 9.808C11.3967 9.68 11.3329 9.52178 11.3333 9.33333C11.3338 9.14489 11.3978 8.98667 11.5253 8.85867C11.6529 8.73067 11.8111 8.66667 12 8.66667L12.6667 8.66667C13.0333 8.66667 13.3471 8.79733 13.608 9.05867C13.8689 9.32 13.9996 9.63378 14 10L14 12.6667C14 13.0333 13.8693 13.3473 13.608 13.6087C13.3467 13.87 13.0329 14.0004 12.6667 14L3.33333 14C2.96667 14 2.65267 13.8696 2.39133 13.6087C2.13 13.3478 1.99956 13.0338 2 12.6667L2 10ZM7.33333 7.33333L7.33333 6.66667C7.33333 6.47778 7.39733 6.31956 7.52533 6.192C7.65333 6.06444 7.81156 6.00044 8 6C8.18845 5.99956 8.34667 6.06356 8.47467 6.192C8.60267 6.32044 8.66667 6.47867 8.66667 6.66667L8.66667 7.33333L9.33333 7.33333C9.52222 7.33333 9.68045 7.39733 9.808 7.52533C9.93556 7.65333 9.99956 7.81156 10 8C10.0004 8.18844 9.93645 8.34689 9.808 8.47533C9.67956 8.60378 9.52133 8.66756 9.33333 8.66667L8.66667 8.66667L8.66667 9.33333C8.66667 9.52222 8.60267 9.68067 8.47467 9.80867C8.34667 9.93667 8.18844 10.0004 8 10C7.81156 9.99956 7.65311 9.93556 7.52467 9.808C7.39622 9.68044 7.33245 9.52222 7.33333 9.33333L7.33333 8.66667L6.66667 8.66667C6.47778 8.66667 6.31933 8.60267 6.19133 8.47467C6.06333 8.34667 5.99956 8.18844 6 8C6.00045 7.81156 6.06445 7.65333 6.192 7.52533C6.31956 7.39733 6.47778 7.33333 6.66667 7.33333L7.33333 7.33333Z"
        fill="#4E5969" />
</svg>