<svg width="16" height="16" viewBox="0 0 16 16" fill="none" xmlns="http://www.w3.org/2000/svg">
    <path fill-rule="evenodd" clip-rule="evenodd"
        d="M12.8815 5.42047C12.8815 5.25405 12.8113 5.09444 12.6864 4.97676C12.5615 4.85908 12.3922 4.79297 12.2155 4.79297C12.0389 4.79297 11.8695 4.85908 11.7446 4.97676C11.6198 5.09444 11.5496 5.25405 11.5496 5.42047V10.8588C11.5496 11.2052 11.8479 11.4863 12.2155 11.4863H14.4353C14.6119 11.4863 14.7813 11.4202 14.9062 11.3025C15.0311 11.1848 15.1013 11.0252 15.1013 10.8588C15.1013 10.6924 15.0311 10.5328 14.9062 10.4151C14.7813 10.2974 14.6119 10.2313 14.4353 10.2313H12.8815V5.42047ZM10.6617 8.13963C10.6617 9.24403 10.4335 10.0757 10.0322 10.6329L10.9112 11.4612C10.9748 11.5191 11.0255 11.5884 11.0603 11.6649C11.0952 11.7415 11.1135 11.8239 11.1142 11.9072C11.115 11.9905 11.0981 12.0731 11.0646 12.1502C11.031 12.2273 10.9816 12.2974 10.919 12.3563C10.8564 12.4152 10.7821 12.4617 10.7002 12.4932C10.6184 12.5247 10.5307 12.5406 10.4422 12.5398C10.3538 12.5391 10.2664 12.5217 10.1852 12.4888C10.104 12.4559 10.0305 12.408 9.96911 12.3481L8.964 11.401C8.7657 11.4579 8.55467 11.4863 8.33091 11.4863C6.93245 11.4863 6.00014 10.371 6.00014 8.13963C6.00014 5.90824 6.93245 4.79297 8.33091 4.79297C9.72938 4.79297 10.6617 5.90824 10.6617 8.13963ZM8.92404 9.93847C9.12116 9.66906 9.32982 9.11853 9.32982 8.14047C9.32982 7.16324 9.12116 6.61272 8.92404 6.34248C8.76865 6.12996 8.59906 6.04964 8.33091 6.04964C8.06276 6.04964 7.89317 6.12996 7.73779 6.34248C7.54067 6.61272 7.33201 7.16324 7.33201 8.14131C7.33201 9.1177 7.54067 9.66906 7.73779 9.93847C7.89317 10.151 8.06276 10.2321 8.33091 10.2321C8.59906 10.2321 8.76865 10.151 8.92404 9.93847ZM3.16947 4.79464C2.5577 4.79464 2.0285 5.00297 1.65824 5.39119C1.29686 5.77187 1.14058 6.2655 1.14058 6.76081C1.14058 7.37325 1.43004 7.83174 1.81451 8.148C2.17856 8.44753 2.62074 8.61737 2.97324 8.72028C3.32663 8.82235 3.58057 8.90184 3.76348 9.03152C3.89401 9.12606 4.00322 9.25407 4.00322 9.55444C4.00322 9.79707 3.90644 9.946 3.77858 10.0472C3.60412 10.1731 3.38909 10.2386 3.16947 10.233C2.99011 10.233 2.78056 10.1552 2.58522 9.98783C2.40332 9.83579 2.27274 9.63682 2.20963 9.41555C2.16652 9.25721 2.05953 9.12098 1.91144 9.03584C1.76335 8.9507 1.58585 8.92338 1.4167 8.95968C1.24755 8.99598 1.10012 9.09305 1.00577 9.23022C0.911414 9.36739 0.877594 9.53385 0.911502 9.69416C1.02427 10.1602 1.31373 10.5969 1.69109 10.9182C2.06934 11.2412 2.58433 11.488 3.16947 11.488C3.68268 11.488 4.21454 11.3374 4.63186 11.0111C5.0625 10.6722 5.3342 10.1694 5.3342 9.55527C5.3342 8.84996 5.02166 8.35633 4.56704 8.0317C4.18169 7.75644 3.71287 7.62174 3.40743 7.53305L3.3657 7.5205C3.09044 7.44102 2.85159 7.3356 2.69088 7.20257C2.62052 7.15002 2.56413 7.08272 2.52621 7.00603C2.48829 6.92934 2.46989 6.84538 2.47246 6.76081C2.47246 6.50646 2.55237 6.33243 2.65004 6.22952C2.73794 6.13749 2.88977 6.04964 3.16947 6.04964C3.45538 6.04964 3.61165 6.13247 3.71287 6.22199C3.8283 6.32491 3.91976 6.48387 3.97925 6.69053C4.02815 6.84762 4.14026 6.98048 4.29167 7.06077C4.44308 7.14105 4.6218 7.16241 4.78968 7.12026C4.95756 7.07812 5.10132 6.97583 5.19028 6.83521C5.27924 6.69458 5.30635 6.52677 5.26583 6.36757C5.1655 6.01617 4.97726 5.62127 4.62742 5.31087C4.26427 4.98708 3.77414 4.79464 3.16947 4.79464Z"
        fill="#4E5969" />
</svg>