<svg width="20" height="20" viewBox="0 0 20 20" fill="none" xmlns="http://www.w3.org/2000/svg">
<rect width="20" height="20" rx="4" fill="white"/>
<path d="M14.0203 13.0775L16.8755 15.9327L15.9327 16.8755L13.0775 14.0203C12.0509 14.8417 10.749 15.333 9.33301 15.333C6.02101 15.333 3.33301 12.645 3.33301 9.33301C3.33301 6.02101 6.02101 3.33301 9.33301 3.33301C12.645 3.33301 15.333 6.02101 15.333 9.33301C15.333 10.749 14.8417 12.0509 14.0203 13.0775ZM12.6828 12.5829C13.498 11.7427 13.9997 10.5967 13.9997 9.33301C13.9997 6.75467 11.9113 4.66634 9.33301 4.66634C6.75467 4.66634 4.66634 6.75467 4.66634 9.33301C4.66634 11.9113 6.75467 13.9997 9.33301 13.9997C10.5967 13.9997 11.7427 13.498 12.5829 12.6828L12.6828 12.5829Z" fill="#6B7785"/>
</svg>
