<svg width="18" height="18" viewBox="0 0 18 18" fill="none" xmlns="http://www.w3.org/2000/svg">
<g clip-path="url(#clip0_3408_8706)">
<path d="M7.335 7.1499C8.99185 7.1499 10.335 5.80676 10.335 4.1499C10.335 2.49305 8.99185 1.1499 7.335 1.1499C5.67814 1.1499 4.335 2.49305 4.335 4.1499C4.335 5.80676 5.67814 7.1499 7.335 7.1499Z" fill="#4E5969"/>
<path d="M8.22 15.9099C8.05477 15.7465 7.94694 15.5339 7.91269 15.3041C7.87844 15.0742 7.91959 14.8394 8.03 14.6349L8.295 14.1349L7.75 13.9699C7.52776 13.9004 7.33427 13.7602 7.19892 13.5707C7.06356 13.3812 6.99372 13.1527 7 12.9199V11.8949C6.99958 11.6632 7.07373 11.4374 7.21149 11.251C7.34925 11.0647 7.54331 10.9275 7.765 10.8599L8.31 10.6949L8.05 10.1949C7.94283 9.99323 7.90205 9.76284 7.93347 9.5366C7.9649 9.31036 8.06692 9.09981 8.225 8.93494C7.84033 8.88461 7.45294 8.8579 7.065 8.85494C5.91916 8.82797 4.78149 9.05417 3.73312 9.51743C2.68475 9.98068 1.75153 10.6696 1 11.5349V15.4099C1 15.5425 1.05268 15.6697 1.14645 15.7635C1.24021 15.8573 1.36739 15.9099 1.5 15.9099H8.22Z" fill="#4E5969"/>
<path d="M16.85 11.73L15.85 11.43C15.7808 11.183 15.6835 10.9448 15.56 10.72L16.06 9.79002C16.0793 9.7555 16.0864 9.71545 16.08 9.67641C16.0737 9.63736 16.0543 9.60162 16.025 9.57501L15.3 8.84502C15.2721 8.81784 15.2365 8.79991 15.198 8.79364C15.1596 8.78738 15.1201 8.7931 15.085 8.81002L14.16 9.31002C13.9324 9.18621 13.6928 9.0857 13.445 9.01002L13.14 8.01002C13.1266 7.97314 13.1021 7.94133 13.0698 7.91895C13.0376 7.89657 12.9992 7.88471 12.96 7.88502H11.92C11.881 7.8861 11.8433 7.89916 11.812 7.92242C11.7807 7.94568 11.7573 7.97801 11.745 8.01502L11.445 9.01502C11.1926 9.08912 10.9494 9.19143 10.72 9.32001L9.815 8.82001C9.77981 8.80132 9.73964 8.79415 9.70016 8.79953C9.66068 8.80492 9.62389 8.82258 9.595 8.85002L8.86 9.57001C8.83106 9.59791 8.81199 9.63446 8.80567 9.67416C8.79936 9.71385 8.80614 9.75452 8.825 9.79002L9.325 10.7C9.19091 10.9258 9.08193 11.1655 9 11.415L8 11.72C7.96217 11.731 7.92897 11.754 7.90549 11.7856C7.88201 11.8172 7.86954 11.8556 7.87 11.895V12.92C7.86954 12.9594 7.88201 12.9978 7.90549 13.0294C7.92897 13.061 7.96217 13.0841 8 13.095L9 13.4C9.07499 13.6449 9.17554 13.8812 9.3 14.105L8.8 15.055C8.78114 15.0905 8.77436 15.1312 8.78067 15.1709C8.78699 15.2106 8.80606 15.2471 8.835 15.275L9.58 16C9.60889 16.0275 9.64568 16.0451 9.68516 16.0505C9.72464 16.0559 9.76481 16.0487 9.8 16.03L10.735 15.53C10.9574 15.65 11.1921 15.7456 11.435 15.815L11.735 16.84C11.7476 16.8778 11.7717 16.9107 11.804 16.934C11.8363 16.9574 11.8752 16.97 11.915 16.97H12.94C12.979 16.9689 13.0167 16.9559 13.048 16.9326C13.0793 16.9094 13.1027 16.877 13.115 16.84L13.415 15.815C13.6549 15.746 13.8863 15.6504 14.105 15.53L15.05 16.03C15.0852 16.0487 15.1254 16.0559 15.1648 16.0505C15.2043 16.0451 15.2411 16.0275 15.27 16L16 15.275C16.0274 15.2461 16.0451 15.2093 16.0505 15.1699C16.0559 15.1304 16.0487 15.0902 16.03 15.055L15.53 14.115C15.6493 13.8958 15.7449 13.6645 15.815 13.425L16.815 13.12C16.8526 13.1079 16.8856 13.0847 16.9097 13.0535C16.9338 13.0222 16.9478 12.9844 16.95 12.945V11.91C16.9512 11.8738 16.9426 11.8379 16.9249 11.8062C16.9073 11.7745 16.8814 11.7481 16.85 11.73ZM12.435 14.09C12.1045 14.091 11.7811 13.9939 11.5058 13.811C11.2306 13.6281 11.0157 13.3676 10.8886 13.0626C10.7614 12.7575 10.7276 12.4216 10.7915 12.0973C10.8554 11.773 11.014 11.475 11.2474 11.2409C11.4807 11.0069 11.7783 10.8473 12.1024 10.7825C12.4264 10.7176 12.7625 10.7504 13.0679 10.8767C13.3734 11.0029 13.6345 11.217 13.8182 11.4917C14.0019 11.7664 14.1 12.0895 14.1 12.42C14.1 12.8621 13.9247 13.2861 13.6126 13.5991C13.3005 13.9122 12.877 14.0887 12.435 14.09Z" fill="#4E5969"/>
</g>
<defs>
<clipPath id="clip0_3408_8706">
<rect width="18" height="18" fill="white"/>
</clipPath>
</defs>
</svg>
